<svg xmlns="http://www.w3.org/2000/svg" xmlns:xlink="http://www.w3.org/1999/xlink" width="293.298" height="276.598" viewBox="0 0 293.298 276.598">
  <defs>
    <linearGradient id="linear-gradient" x1="0.531" y1="0.128" x2="0.328" y2="1.542" gradientUnits="objectBoundingBox">
      <stop offset="0" stop-color="#09005d"/>
      <stop offset="1" stop-color="#1a0f91"/>
    </linearGradient>
    <linearGradient id="linear-gradient-2" x1="0.639" y1="-14.04" x2="0.128" y2="39.03" gradientUnits="objectBoundingBox">
      <stop offset="0" stop-color="#53d8ff"/>
      <stop offset="1" stop-color="#3840f7"/>
    </linearGradient>
    <linearGradient id="linear-gradient-3" x1="0.599" y1="-8.046" x2="0.178" y2="28.097" xlink:href="#linear-gradient-2"/>
    <linearGradient id="linear-gradient-4" x1="0.583" y1="-6.856" x2="0.169" y2="29.067" xlink:href="#linear-gradient-2"/>
    <linearGradient id="linear-gradient-5" x1="0.574" y1="-5.746" x2="0.135" y2="30.749" xlink:href="#linear-gradient-2"/>
    <linearGradient id="linear-gradient-6" x1="0.567" y1="-0.011" x2="0.363" y2="1.078" gradientUnits="objectBoundingBox">
      <stop offset="0" stop-color="#f57fa3"/>
      <stop offset="1" stop-color="#ef2a66"/>
    </linearGradient>
    <linearGradient id="linear-gradient-7" x1="17.236" y1="-3.759" x2="8.933" y2="-1.651" gradientUnits="objectBoundingBox">
      <stop offset="0" stop-color="#e1473d"/>
      <stop offset="1" stop-color="#e9605a"/>
    </linearGradient>
    <linearGradient id="linear-gradient-8" x1="18.049" y1="-3.917" x2="9.681" y2="-1.809" xlink:href="#linear-gradient-7"/>
    <linearGradient id="linear-gradient-9" x1="194.696" y1="2.462" x2="191.859" y2="8.851" xlink:href="#linear-gradient"/>
    <linearGradient id="linear-gradient-10" x1="774.993" y1="6.056" x2="776.001" y2="6.056" gradientUnits="objectBoundingBox">
      <stop offset="0" stop-color="#febbba"/>
      <stop offset="1" stop-color="#ff928e"/>
    </linearGradient>
    <linearGradient id="linear-gradient-11" x1="244.265" y1="0.403" x2="241.247" y2="1.258" xlink:href="#linear-gradient"/>
    <linearGradient id="linear-gradient-12" x1="484.209" y1="1.288" x2="477.163" y2="8.853" xlink:href="#linear-gradient"/>
    <linearGradient id="linear-gradient-13" x1="904.158" y1="4.77" x2="905.172" y2="4.77" xlink:href="#linear-gradient-10"/>
    <linearGradient id="linear-gradient-14" x1="163.607" y1="0.33" x2="161.587" y2="1.172" xlink:href="#linear-gradient"/>
    <linearGradient id="linear-gradient-15" x1="191.242" y1="-5.59" x2="190.342" y2="-4.215" xlink:href="#linear-gradient-6"/>
    <linearGradient id="linear-gradient-16" x1="149.473" y1="1.433" x2="150.467" y2="1.433" xlink:href="#linear-gradient-10"/>
    <linearGradient id="linear-gradient-17" x1="860.92" y1="3.467" x2="862.903" y2="6.151" xlink:href="#linear-gradient-10"/>
    <linearGradient id="linear-gradient-18" x1="1074.504" y1="5.186" x2="1076.502" y2="3.407" xlink:href="#linear-gradient-10"/>
    <linearGradient id="linear-gradient-19" x1="482.173" y1="-14.078" x2="479.909" y2="-10.576" xlink:href="#linear-gradient-6"/>
    <linearGradient id="linear-gradient-20" x1="118.977" y1="2.21" x2="119.978" y2="2.21" xlink:href="#linear-gradient-10"/>
    <linearGradient id="linear-gradient-21" x1="297.79" y1="2.546" x2="298.781" y2="2.546" xlink:href="#linear-gradient-10"/>
    <linearGradient id="linear-gradient-22" x1="-59.94" y1="-66.912" x2="-60.263" y2="-67.977" xlink:href="#linear-gradient-10"/>
    <linearGradient id="linear-gradient-23" x1="-45.144" y1="-52.405" x2="-44.94" y2="-51.223" xlink:href="#linear-gradient"/>
    <linearGradient id="linear-gradient-24" x1="-196.415" y1="-322.887" x2="-197.363" y2="-327.482" xlink:href="#linear-gradient-10"/>
    <linearGradient id="linear-gradient-25" x1="104.668" y1="-0.063" x2="105.182" y2="2.428" xlink:href="#linear-gradient"/>
    <linearGradient id="linear-gradient-26" x1="358.563" y1="0.5" x2="359.562" y2="0.5" xlink:href="#linear-gradient-10"/>
    <linearGradient id="linear-gradient-27" x1="0.388" y1="-10.127" x2="0.495" y2="0.4" gradientUnits="objectBoundingBox">
      <stop offset="0" stop-color="#6c58b8"/>
      <stop offset="1" stop-color="#35237d"/>
    </linearGradient>
    <linearGradient id="linear-gradient-28" x1="0" y1="0.5" x2="1" y2="0.5" xlink:href="#linear-gradient-10"/>
    <linearGradient id="linear-gradient-29" x1="0.384" y1="-3.578" x2="0.505" y2="0.524" xlink:href="#linear-gradient-27"/>
    <linearGradient id="linear-gradient-30" x1="0" y1="0.5" x2="1" y2="0.5" xlink:href="#linear-gradient"/>
    <linearGradient id="linear-gradient-31" x1="0" y1="0.502" x2="1" y2="0.502" xlink:href="#linear-gradient-10"/>
    <linearGradient id="linear-gradient-32" x1="0.708" y1="0.132" x2="0.066" y2="1.228" xlink:href="#linear-gradient"/>
    <linearGradient id="linear-gradient-33" x1="0.368" y1="0.85" x2="0.602" y2="0.282" xlink:href="#linear-gradient-10"/>
    <linearGradient id="linear-gradient-34" x1="1.924" y1="-2.115" x2="0.336" y2="1.087" xlink:href="#linear-gradient-27"/>
    <linearGradient id="linear-gradient-35" x1="0.766" y1="0.225" x2="11.417" y2="-10.732" xlink:href="#linear-gradient"/>
    <linearGradient id="linear-gradient-37" x1="101.268" y1="2.494" x2="100.229" y2="3.245" xlink:href="#linear-gradient-10"/>
    <linearGradient id="linear-gradient-38" x1="82.568" y1="1.827" x2="83.337" y2="2.722" xlink:href="#linear-gradient"/>
    <linearGradient id="linear-gradient-39" x1="415.312" y1="6.492" x2="411.047" y2="9.107" xlink:href="#linear-gradient-10"/>
    <linearGradient id="linear-gradient-40" x1="82.329" y1="-926.453" x2="81.1" y2="-911.938" xlink:href="#linear-gradient"/>
    <linearGradient id="linear-gradient-41" x1="-151.604" y1="-2.078" x2="-154.232" y2="-0.779" xlink:href="#linear-gradient"/>
    <linearGradient id="linear-gradient-42" x1="-1.05" y1="2.829" x2="0.734" y2="-0.03" xlink:href="#linear-gradient-10"/>
    <linearGradient id="linear-gradient-43" x1="3.826" y1="-5.058" x2="1.473" y2="-1.019" xlink:href="#linear-gradient"/>
    <linearGradient id="linear-gradient-44" x1="0.47" y1="0.998" x2="0.639" y2="-1.153" xlink:href="#linear-gradient-10"/>
    <linearGradient id="linear-gradient-45" x1="0" y1="0.5" x2="1" y2="0.5" xlink:href="#linear-gradient"/>
    <linearGradient id="linear-gradient-46" x1="3.607" y1="-17.32" x2="1.775" y2="-6.665" xlink:href="#linear-gradient"/>
    <linearGradient id="linear-gradient-47" x1="0.619" y1="-0.242" x2="0.442" y2="0.663" xlink:href="#linear-gradient"/>
    <linearGradient id="linear-gradient-48" x1="-0.289" y1="2.507" x2="0.449" y2="0.733" xlink:href="#linear-gradient-27"/>
    <linearGradient id="linear-gradient-49" x1="0.751" y1="1.911" x2="0.44" y2="0.309" xlink:href="#linear-gradient-10"/>
    <linearGradient id="linear-gradient-50" x1="-20.415" y1="31.577" x2="-19.014" y2="32.331" xlink:href="#linear-gradient-10"/>
    <linearGradient id="linear-gradient-51" x1="-12.301" y1="42.579" x2="-12.637" y2="45.568" xlink:href="#linear-gradient"/>
    <linearGradient id="linear-gradient-52" x1="-88.376" y1="101.847" x2="-82.493" y2="104.292" xlink:href="#linear-gradient-10"/>
    <linearGradient id="linear-gradient-53" x1="0.623" y1="0.502" x2="1.624" y2="0.502" xlink:href="#linear-gradient-10"/>
    <linearGradient id="linear-gradient-54" x1="0.254" y1="-13.222" x2="-0.484" y2="-10.808" xlink:href="#linear-gradient"/>
    <linearGradient id="linear-gradient-55" x1="0.733" y1="0.134" x2="0.333" y2="0.8" xlink:href="#linear-gradient"/>
    <linearGradient id="linear-gradient-56" x1="-109.342" y1="4.476" x2="-109.327" y2="8.122" xlink:href="#linear-gradient"/>
    <linearGradient id="linear-gradient-57" x1="-347.262" y1="1.164" x2="-347.524" y2="-0.58" xlink:href="#linear-gradient-10"/>
    <linearGradient id="linear-gradient-58" x1="-203.047" y1="3.701" x2="-203.019" y2="7.13" xlink:href="#linear-gradient"/>
    <linearGradient id="linear-gradient-59" x1="-399.431" y1="1.13" x2="-399.717" y2="-0.792" xlink:href="#linear-gradient-10"/>
    <linearGradient id="linear-gradient-60" x1="0.262" y1="-0.145" x2="0.562" y2="0.725" xlink:href="#linear-gradient"/>
    <linearGradient id="linear-gradient-61" x1="-1725.99" y1="2.368" x2="-1724.611" y2="1.878" xlink:href="#linear-gradient-27"/>
    <linearGradient id="linear-gradient-62" x1="-41.893" y1="0.161" x2="-42.486" y2="1.632" xlink:href="#linear-gradient-27"/>
    <linearGradient id="linear-gradient-63" x1="-97.97" y1="0.5" x2="-96.97" y2="0.5" xlink:href="#linear-gradient-10"/>
    <linearGradient id="linear-gradient-64" x1="-50.959" y1="0.5" x2="-49.96" y2="0.5" xlink:href="#linear-gradient-10"/>
    <linearGradient id="linear-gradient-65" x1="-194.12" y1="1.029" x2="-192.831" y2="0.223" xlink:href="#linear-gradient-10"/>
    <linearGradient id="linear-gradient-66" x1="-156.751" y1="0.174" x2="-158.069" y2="1.492" xlink:href="#linear-gradient-10"/>
    <linearGradient id="linear-gradient-67" x1="1.639" y1="-2.123" x2="0.755" y2="-0.159" xlink:href="#linear-gradient-7"/>
    <linearGradient id="linear-gradient-68" x1="-491.299" y1="2.773" x2="-488.049" y2="0.436" xlink:href="#linear-gradient-10"/>
    <linearGradient id="linear-gradient-69" x1="-1.289" y1="3.145" x2="0.762" y2="0.112" xlink:href="#linear-gradient-27"/>
    <linearGradient id="linear-gradient-70" x1="-1.296" y1="3.157" x2="0.754" y2="0.125" xlink:href="#linear-gradient-27"/>
    <linearGradient id="linear-gradient-71" x1="-1.739" y1="3.813" x2="0.31" y2="0.78" xlink:href="#linear-gradient-27"/>
    <linearGradient id="linear-gradient-72" x1="-1.748" y1="3.824" x2="0.302" y2="0.793" xlink:href="#linear-gradient-27"/>
    <linearGradient id="linear-gradient-73" x1="0.858" y1="-10.922" x2="0.637" y2="-3.934" xlink:href="#linear-gradient"/>
    <linearGradient id="linear-gradient-74" x1="0.211" y1="32.96" x2="0.464" y2="4.256" xlink:href="#linear-gradient-27"/>
  </defs>
  <g id="img1" transform="translate(-106.83 -90.648)">
    <g id="Grupo_57310" data-name="Grupo 57310" transform="translate(106.83 90.648)">
      <g id="Grupo_57282" data-name="Grupo 57282" transform="translate(4.264)">
        <g id="Grupo_57277" data-name="Grupo 57277" transform="translate(0 1.858)">
          <g id="Grupo_57274" data-name="Grupo 57274">
            <path id="Trazado_116298" data-name="Trazado 116298" d="M112.253,185.247a.865.865,0,0,1-.493-.753c0-1.09,0-2.2.061-3.3a.8.8,0,0,1,.865-.77c1.107.052.727,1.142.744,4.091a.813.813,0,0,1-.865.8A.864.864,0,0,1,112.253,185.247Z" transform="translate(-111.76 -104.628)" fill="#91b3fa"/>
            <path id="Trazado_116299" data-name="Trazado 116299" d="M113,159.179c.355-2.067.787-4.143,1.306-6.167a.8.8,0,0,1,1-.58c1.2.32.355.96-.675,7.041a.831.831,0,0,1-1.635-.294Zm4.446-15.907c.77-1.955,1.635-3.918,2.543-5.761a.865.865,0,0,1,1.488.727q-1.349,2.759-2.491,5.648a.865.865,0,0,1-1.54-.614Zm7.664-14.644c1.15-1.73,2.4-3.46,3.685-5.112a.865.865,0,0,1,1.315,1.012c-1.263,1.618-2.474,3.3-3.607,5.008a.865.865,0,0,1-1.393-.908Zm10.536-11.591a.813.813,0,0,1,0-1.159c1.5-1.462,3.079-2.889,4.688-4.238a.828.828,0,0,1,1.081,1.254c-1.574,1.315-3.123,2.716-4.593,4.152a.865.865,0,0,1-1.185-.009Zm12.75-10.38a.8.8,0,0,1,.234-1.124c1.73-1.133,3.616-2.206,5.484-3.2a.865.865,0,0,1,.8,1.445c-1.825.969-3.633,2.024-5.372,3.131a.865.865,0,0,1-1.159-.216Zm15.085-7.084a.865.865,0,0,1-.424-.45.8.8,0,0,1,.458-1.055c1.981-.753,4.014-1.427,6.055-2.024a.865.865,0,0,1,1.047.554.813.813,0,0,1-.528,1.047c-1.989.58-3.979,1.246-5.925,1.989a.865.865,0,0,1-.692-.026Zm16-4.264a.865.865,0,0,1-.476-.614.8.8,0,0,1,.666-.934c2.093-.337,4.238-.6,6.358-.77a.865.865,0,0,1,.865.744.8.8,0,0,1-.735.865c-2.076.173-4.169.424-6.228.753a.908.908,0,0,1-.458-.009Zm16.115-1.73a.8.8,0,0,1,.865-.778c2.128.1,4.282.268,6.4.528a.865.865,0,1,1-.173,1.626c-2.076-.259-4.187-.432-6.271-.528a.865.865,0,0,1-.83-.813Zm51.735,21.452c-4.68-4.135-5.8-4.152-5.052-5.129a.865.865,0,0,1,1.159-.147c1.73,1.289,3.391,2.656,4.991,4.065a.865.865,0,1,1-1.1,1.211ZM212.118,95.87a.8.8,0,0,1,.995-.588c2.067.519,4.152,1.124,6.176,1.808a.813.813,0,1,1-.5,1.54c-1.989-.666-4.031-1.254-6.055-1.73A.865.865,0,0,1,212.118,95.87Zm21.772,9.515c-5.415-3.114-6.522-2.906-5.994-4.022a.865.865,0,0,1,1.107-.381c1.938.926,3.858,1.929,5.709,2.993a.813.813,0,0,1,.311,1.116.865.865,0,0,1-1.133.311Z" transform="translate(-111.926 -92.796)" fill="#91b3fa"/>
            <path id="Trazado_116300" data-name="Trazado 116300" d="M278.787,129.2c-1.73-2.171-2.889-2.941-2.041-3.659a.865.865,0,0,1,1.168.1c1.9,2.162,2.88,3.045,2.041,3.7A.943.943,0,0,1,278.787,129.2Z" transform="translate(-133.997 -97.193)" fill="#91b3fa"/>
          </g>
          <g id="Grupo_57275" data-name="Grupo 57275" transform="translate(15.934 88.039)">
            <path id="Trazado_116301" data-name="Trazado 116301" d="M299.8,199.38a.865.865,0,0,1-.484-.865c.138-1.064.251-2.137.337-3.2a.8.8,0,0,1,.865-.735.865.865,0,0,1,.761.865c-.1,1.09-.208,2.188-.346,3.278a.8.8,0,0,1-.917.692.779.779,0,0,1-.216-.035Z" transform="translate(-153.017 -194.577)" fill="#91b3fa"/>
            <path id="Trazado_116302" data-name="Trazado 116302" d="M162.071,261.99c-2.067-1.021-4.117-2.137-6.055-3.322a.865.865,0,0,1-.294-1.124c.657-1.081,1.055,0,7.1,2.993a.813.813,0,0,1,.381,1.1A.865.865,0,0,1,162.071,261.99Zm9.878,3.278c.4-1.2,1.055-.216,7.551,1.419a.814.814,0,0,1-.381,1.583c-2.223-.562-4.463-1.22-6.643-1.964a.813.813,0,0,1-.528-1.081Zm-25.214-13.044c-1.791-1.436-3.546-2.967-5.19-4.55a.865.865,0,0,1,0-1.159c.865-.908,1.029.234,6.288,4.455a.813.813,0,0,1,.13,1.15.865.865,0,0,1-1.228.061Zm43.2,17.966a.865.865,0,0,1-.484-.865.8.8,0,0,1,.865-.718c2.24.251,4.515.407,6.764.476a.865.865,0,0,1,.813.865.8.8,0,0,1-.865.787c-2.292-.061-4.619-.225-6.92-.476a1.14,1.14,0,0,1-.173-.112Zm17.905,0a.865.865,0,0,1-.476-.649.8.8,0,0,1,.718-.865c2.223-.242,4.472-.58,6.669-1a.865.865,0,0,1,.986.649.8.8,0,0,1-.64.951c-2.249.441-4.533.779-6.807,1.029a.865.865,0,0,1-.45-.121Zm17.421-3.875a.865.865,0,0,1-.441-.476.8.8,0,0,1,.5-1.038c2.111-.718,4.221-1.531,6.262-2.413a.865.865,0,0,1,1.1.415.8.8,0,0,1-.407,1.073c-2.085.865-4.238,1.73-6.392,2.474A.865.865,0,0,1,225.259,266.315Zm16.089-7.508a.77.77,0,0,1-.355-.311.8.8,0,0,1,.251-1.116c1.9-1.159,3.771-2.4,5.562-3.719a.865.865,0,0,1,1.159.182.8.8,0,0,1-.156,1.133c-1.825,1.341-3.737,2.595-5.674,3.8a.865.865,0,0,1-.753.069Zm13.745-10.977c-.917-.865.242-.995,4.576-5.994a.865.865,0,0,1,1.263,1.124c-1.479,1.73-3.045,3.365-4.671,4.939a.865.865,0,0,1-1.168-.035Zm11.323-13.5c-1.09-.7,0-1.029,3.1-6.859a.865.865,0,0,1,1.47.77,67.38,67.38,0,0,1-3.46,5.847.865.865,0,0,1-1.107.277Zm7.923-15.7a.865.865,0,0,1-.441-1.029c.753-2.076,1.436-4.212,2.007-6.332a.813.813,0,0,1,1.012-.562.865.865,0,0,1,.588,1.012c-.588,2.162-1.272,4.325-2.05,6.461a.813.813,0,0,1-1.055.476Z" transform="translate(-131.686 -196.75)" fill="#91b3fa"/>
            <path id="Trazado_116303" data-name="Trazado 116303" d="M132.377,243.182c-1.808-2.249-2.733-3.166-1.868-3.789s1.306.484,3.157,2.794a.8.8,0,0,1-.13,1.142A.865.865,0,0,1,132.377,243.182Z" transform="translate(-130.181 -200.605)" fill="#91b3fa"/>
          </g>
          <g id="Grupo_57276" data-name="Grupo 57276" transform="translate(21.654 20.535)">
            <path id="Trazado_116304" data-name="Trazado 116304" d="M143.771,206.706l11.859-.631a52.531,52.531,0,0,0,11.98,11.781c-.346,11.375-1.176,12.11,0,12.637l13.234,5.475a.969.969,0,0,0,1.1-.251l7.785-8.7a52.54,52.54,0,0,0,16.781.112l7.975,8.832a1,1,0,0,0,1.107.26l13.122-5.285a.934.934,0,0,0,.588-.943l-.865-11.695a50.169,50.169,0,0,0,11.755-11.6l11.868.8a.951.951,0,0,0,.951-.588l5.328-12.975a.951.951,0,0,0-.268-1.09l-8.97-7.785a50.5,50.5,0,0,0-.173-16.539c8.451-7.7,9.515-7.629,9.065-8.788-5.709-12.672-5.259-13.684-6.557-13.615l-11.859.623a52.7,52.7,0,0,0-11.98-11.781c.337-11.366,1.168-12.11,0-12.637-13.234-5.19-13.494-6.159-14.333-5.19l-7.785,8.7a52.54,52.54,0,0,0-16.781-.112c-7.871-8.364-7.9-9.567-9.082-9.091-12.888,5.458-13.8,4.965-13.71,6.228l.865,11.7a49.988,49.988,0,0,0-11.747,11.6c-11.349-.528-12.343-1.393-12.828-.216-5.034,12.9-6.055,13.191-5.06,14.039l8.979,7.785a50.03,50.03,0,0,0,.173,16.539c-8.434,7.672-9.567,7.621-9.065,8.788C142.915,205.754,142.473,206.766,143.771,206.706Z" transform="translate(-136.794 -116.537)" fill="#febc7c"/>
            <path id="Trazado_116305" data-name="Trazado 116305" d="M191.163,181.523a13.615,13.615,0,0,1,15.656-11.461,14.021,14.021,0,0,1,11.868,15.63,13.606,13.606,0,0,1-15.656,11.452h0A14.03,14.03,0,0,1,191.163,181.523Zm12.11,14.411Zm3.244-23.45A11.167,11.167,0,0,0,193.6,181.9a11.513,11.513,0,0,0,9.774,12.828,11.184,11.184,0,0,0,12.862-9.4,11.53,11.53,0,0,0-9.757-12.836Z" transform="translate(-144.12 -123.74)" fill="#fed2a8"/>
            <path id="Trazado_116306" data-name="Trazado 116306" d="M187.2,211.885h0a37.066,37.066,0,0,1-5.363-3.036,1.228,1.228,0,0,1-.441-1.522l.1-.182a1.254,1.254,0,0,1,1.73-.3,34.141,34.141,0,0,0,6.237,3.373h0c16.547,6.842,35.369-.4,42.626-16.149.19-.4.363-.813.536-1.22,6.868-16.7-1.445-35.819-18.39-42.834s-36.329.718-43.154,17.369c-4.083,9.921-1.626,16.936-2.093,17.957a1.254,1.254,0,0,1-2.361-.355,34.418,34.418,0,0,1,2.716-19.895c12.715-27.593,53.188-26.46,65.315,1.8a34.409,34.409,0,0,1,.268,26.884q-.277.675-.571,1.323a34.374,34.374,0,0,1-18.528,17.551,35.966,35.966,0,0,1-27.316-.173C188.091,212.283,187.65,212.092,187.2,211.885Z" transform="translate(-140.763 -120.384)" fill="#fed2a8"/>
          </g>
        </g>
        <g id="Grupo_57281" data-name="Grupo 57281" transform="translate(150.075)">
          <path id="Trazado_116307" data-name="Trazado 116307" d="M307.958,154.046a28.751,28.751,0,0,0,7.127,6.055l.138,6.626c0,.735.64.458,7.949,2.958.675.216.605-.415,4.584-5.5a29.029,29.029,0,0,0,9.333-.753l4.783,4.593c.536.51.779-.138,7.716-3.538a.536.536,0,0,0,.285-.562l-.934-6.565A28.76,28.76,0,0,0,355,150.223c6.332-.26,6.92.182,7.136-.51,2.292-7.543,2.828-7.785,2.249-8.174l-5.285-3.97a28.788,28.788,0,0,0-.753-9.333l4.593-4.783c.51-.528-.138-.77-3.538-7.707-.32-.631-.692-.138-7.127.64a29.133,29.133,0,0,0-7.136-6.055l-.13-6.626c0-.735-.649-.45-7.958-2.95-.666-.216-.58.389-4.584,5.493a28.787,28.787,0,0,0-9.333.761l-4.783-4.6a.536.536,0,0,0-.623-.086l-7.067,3.607a.536.536,0,0,0-.294.562l.934,6.574a28.934,28.934,0,0,0-6.055,7.127c-6.332.259-6.92-.173-7.136.51-2.284,7.543-2.82,7.785-2.249,8.183l5.3,3.979a28.787,28.787,0,0,0,.761,9.333c-4.325,4.662-5.026,4.766-4.688,5.415l3.624,7.084C301.142,155.326,301.549,154.825,307.958,154.046Z" transform="translate(-286.662 -92.008)" fill="#febc7c"/>
          <g id="Grupo_57280" data-name="Grupo 57280">
            <path id="Trazado_116308" data-name="Trazado 116308" d="M325.907,138.787a8.3,8.3,0,1,1,7.785,8.823h0a8.313,8.313,0,0,1-7.785-8.823Zm7.785,7.595Zm-5.354-7.43a5.839,5.839,0,0,0,5.441,6.193h0a5.83,5.83,0,1,0-5.441-6.193Z" transform="translate(-290.746 -96.098)" fill="#fed2a8"/>
            <g id="Grupo_57278" data-name="Grupo 57278">
              <path id="Trazado_116309" data-name="Trazado 116309" d="M287.163,154.334c-.32-1.073-.6-2.171-.865-3.261a.865.865,0,0,1,.64-.977c1.116-.242.96,1,1.782,3.763a.865.865,0,0,1-1.583.476Z" transform="translate(-285.399 -98.67)" fill="#91b3fa"/>
              <path id="Trazado_116310" data-name="Trazado 116310" d="M285.26,132.031a44.123,44.123,0,0,1,.813-6.747.865.865,0,0,1,1.618.32c-1.185,5.908-.259,7.344-1.643,7.292A.865.865,0,0,1,285.26,132.031Zm4.714-16.1a.865.865,0,0,1-.389-1.107,43.693,43.693,0,0,1,3.46-5.856.865.865,0,0,1,1.349.943,42.382,42.382,0,0,0-3.313,5.64.865.865,0,0,1-1.107.381ZM300.6,102.2a.865.865,0,0,1-.277-.216.813.813,0,0,1,.086-1.159,43.474,43.474,0,0,1,5.493-4,.865.865,0,0,1,.865,1.4,41.934,41.934,0,0,0-5.285,3.858A.865.865,0,0,1,300.6,102.2Zm15.241-8.39a.865.865,0,0,1,.1-1.54,43.472,43.472,0,0,1,6.634-1.47.865.865,0,1,1,.234,1.635,41.461,41.461,0,0,0-6.384,1.419.813.813,0,0,1-.562-.061ZM332.7,91.376a.865.865,0,0,1,.908-.727,44.627,44.627,0,0,1,6.678,1.289.865.865,0,0,1-.415,1.609,42.463,42.463,0,0,0-6.4-1.272.865.865,0,0,1-.744-.917Z" transform="translate(-285.26 -90.648)" fill="#91b3fa"/>
              <path id="Trazado_116311" data-name="Trazado 116311" d="M362.415,100.219c-2.491-1.73-3.59-1.894-3.027-2.863a.813.813,0,0,1,1.124-.294c.96.554,1.92,1.159,2.837,1.8a.813.813,0,0,1,.216,1.142.865.865,0,0,1-1.15.216Z" transform="translate(-295.249 -91.498)" fill="#91b3fa"/>
            </g>
            <g id="Grupo_57279" data-name="Grupo 57279" transform="translate(16.859 33.69)">
              <path id="Trazado_116312" data-name="Trazado 116312" d="M383.409,133.769c-.389-3.01-.986-3.936.1-4.161a.865.865,0,0,1,.977.64c.225,1.09.415,2.206.554,3.313a.865.865,0,1,1-1.635.208Z" transform="translate(-315.3 -129.597)" fill="#91b3fa"/>
              <path id="Trazado_116313" data-name="Trazado 116313" d="M319.045,181.52c.432-1.3,1.4,0,7.283,1.021a.865.865,0,0,1-.268,1.626,43.7,43.7,0,0,1-6.5-1.6A.865.865,0,0,1,319.045,181.52ZM336,183.873a.865.865,0,0,1,.761-.865c5.986-.493,7.015-1.73,7.344-.415a.865.865,0,0,1-.614.995,42.316,42.316,0,0,1-6.6,1.064A.865.865,0,0,1,336,183.873Zm16.513-4.5c-.64-1.211.986-.977,5.778-4.558a.865.865,0,0,1,.986,1.323,44.112,44.112,0,0,1-5.674,3.546A.865.865,0,0,1,352.511,179.375Zm13.425-10.631c-1.073-.865.528-1.289,3.529-6.453a.865.865,0,0,1,1.427.865,43.479,43.479,0,0,1-3.8,5.5.865.865,0,0,1-1.159.087Zm7.6-16.054c1.635-5.787.813-7.2,2.188-7.032a.865.865,0,0,1,.718.926,44.973,44.973,0,0,1-1.315,6.548.865.865,0,0,1-1.592-.441Z" transform="translate(-306.676 -131.764)" fill="#91b3fa"/>
              <path id="Trazado_116314" data-name="Trazado 116314" d="M307.821,182.356c-.943-.6-1.868-1.246-2.759-1.92a.865.865,0,0,1-.156-1.159c.692-.917,1.384.138,3.806,1.73a.809.809,0,1,1-.891,1.349Z" transform="translate(-304.75 -136.258)" fill="#91b3fa"/>
            </g>
            <path id="Trazado_116315" data-name="Trazado 116315" d="M322.252,155.041a1.241,1.241,0,1,1,1.2-2.171,17.957,17.957,0,0,0,17.2.45c14.177-7.266,12.508-28.2-2.681-33.094a17.992,17.992,0,0,0-21.824,9.567c-3.78,8.2.493,12.456-2.119,13.061a1.237,1.237,0,0,1-1.488-.926,20.448,20.448,0,1,1,13.641,14.843h0A21.027,21.027,0,0,1,322.252,155.041Z" transform="translate(-288.873 -94.187)" fill="#fed2a8"/>
          </g>
        </g>
      </g>
      <g id="Grupo_57284" data-name="Grupo 57284" transform="translate(152.18 30.835)">
        <path id="Trazado_116316" data-name="Trazado 116316" d="M317.183,194.575c0-.381-.424-.718-1.09-.986.727-.407,1.124-.865,1.09-1.254-.1-1.272-4.143-1.989-9.013-1.592s-8.754,1.73-8.65,3.019c0,.381.424.718,1.1.986-.727.407-1.133.865-1.1,1.254s.424.718,1.1.986c-.727.407-1.133.865-1.1,1.254s.424.718,1.1.986c-.727.407-1.133.865-1.1,1.254.043.562.865,1.021,2.18,1.315a10.816,10.816,0,0,0,0,1.375c.19,2.353,2.828,4.2,6.323,4.2s6.522-2.508,6.557-4.87a11.979,11.979,0,0,0-.069-1.54c1.678-.554,2.69-1.237,2.638-1.9,0-.381-.424-.718-1.09-.986.727-.4,1.124-.865,1.09-1.254s-.424-.718-1.09-.986C316.819,195.431,317.235,195,317.183,194.575Z" transform="translate(-285.025 -134.982)" fill="url(#linear-gradient)"/>
        <g id="Grupo_57283" data-name="Grupo 57283" transform="translate(15.796 58.726)">
          <path id="Trazado_116317" data-name="Trazado 116317" d="M306.291,203.929a20.554,20.554,0,0,1-3.875-.32.112.112,0,0,1-.087-.138.1.1,0,0,1,.13-.086,25.206,25.206,0,0,0,6.453.2,27.056,27.056,0,0,0,5.4-.934.118.118,0,0,1,.069.225,27.587,27.587,0,0,1-5.415.943C308.021,203.895,307.13,203.929,306.291,203.929Z" transform="translate(-301.201 -195.329)" fill="url(#linear-gradient-2)"/>
          <path id="Trazado_116318" data-name="Trazado 116318" d="M306.171,201.236a18.459,18.459,0,0,1-4.749-.51.121.121,0,1,1,.069-.225,27.117,27.117,0,0,0,14.359-1.142.118.118,0,0,1,.1.216,23.242,23.242,0,0,1-7.153,1.557Q307.442,201.236,306.171,201.236Z" transform="translate(-301.063 -194.885)" fill="url(#linear-gradient-3)"/>
          <path id="Trazado_116319" data-name="Trazado 116319" d="M306.115,198.7a17.3,17.3,0,0,1-5.008-.605.118.118,0,0,1,.069-.225,21.435,21.435,0,0,0,7.56.484,22.991,22.991,0,0,0,7.076-1.54.114.114,0,1,1,.1.208,22.965,22.965,0,0,1-7.153,1.566C307.845,198.618,306.954,198.7,306.115,198.7Z" transform="translate(-301.025 -194.541)" fill="url(#linear-gradient-4)"/>
          <path id="Trazado_116320" data-name="Trazado 116320" d="M306.257,196.058a20.388,20.388,0,0,1-4.221-.381.12.12,0,0,1,.052-.234,24.126,24.126,0,0,0,6.773.277A23.035,23.035,0,0,0,315.9,194.2a.114.114,0,1,1,.1.208,23.2,23.2,0,0,1-7.119,1.548C307.978,196.023,307.1,196.058,306.257,196.058Z" transform="translate(-301.149 -194.188)" fill="url(#linear-gradient-5)"/>
        </g>
        <path id="Trazado_116321" data-name="Trazado 116321" d="M293.988,174.574a16.625,16.625,0,0,0-2.958-5.769,38.172,38.172,0,0,1-8.226-21.253c-.865-14.774,12.257-22.17,24.22-21.166s23.753,9.9,22.49,23.649c-.8,8.46-5.536,14.869-9.056,18.554a19.583,19.583,0,0,0-4.7,8.33c-1.055,3.815-3.572,8.572-9.558,8.866C298.434,186.156,295.216,178.942,293.988,174.574Z" transform="translate(-282.763 -126.296)" fill="url(#linear-gradient-6)"/>
        <path id="Trazado_116322" data-name="Trazado 116322" d="M312.119,187.276l4.221-27.212c.087-.562.363-.934.623-.865s.389.631.3,1.194h0L312.5,187.354c0,.2-.138.329-.234.285A.313.313,0,0,1,312.119,187.276Z" transform="translate(-286.725 -130.737)" fill="url(#linear-gradient-7)"/>
        <path id="Trazado_116323" data-name="Trazado 116323" d="M306.289,187.526l-4.178-27.212c-.087-.562-.363-.934-.623-.865s-.389.631-.3,1.194h0l4.766,26.962c0,.2.138.329.234.285S306.324,187.725,306.289,187.526Z" transform="translate(-285.247 -130.771)" fill="url(#linear-gradient-8)"/>
        <path id="Trazado_116324" data-name="Trazado 116324" d="M315.008,156.984a.441.441,0,0,0-.554-.138l-2.327,1.09-.813-2.31a.493.493,0,0,0-.277-.285.588.588,0,0,0-.718.225h0l-1.912,3.46-1.782-4.965h0a.571.571,0,0,0-.268-.3.7.7,0,0,0-.865.173l-2.673,3.685a.32.32,0,0,0,.1.467.458.458,0,0,0,.562-.061l2.361-2.595,2.119,4.731h0a.407.407,0,0,0,.182.182.45.45,0,0,0,.562-.147l2.041-3.287.778,1.661h0a.441.441,0,0,0,.545.147l2.768-1.3a.337.337,0,0,0,.173-.432Z" transform="translate(-285.463 -129.993)" fill="#fff"/>
        <path id="Trazado_116325" data-name="Trazado 116325" d="M326.337,170.506a.545.545,0,0,1-.32-.1.536.536,0,0,1-.112-.744,30.956,30.956,0,0,0,1.946-2.95.529.529,0,0,1,.917.528,31.956,31.956,0,0,1-2.007,3.053A.545.545,0,0,1,326.337,170.506Z" transform="translate(-288.574 -131.716)" fill="#fff"/>
        <path id="Trazado_116326" data-name="Trazado 116326" d="M330.308,161.14a.6.6,0,0,1-.208-.043.536.536,0,0,1-.277-.7,24.825,24.825,0,0,0,.571-18.813.528.528,0,0,1,.259-.7.536.536,0,0,1,.709.26,25.465,25.465,0,0,1-.562,19.678.536.536,0,0,1-.493.32Z" transform="translate(-289.111 -128.259)" fill="#fff"/>
      </g>
      <g id="Grupo_57309" data-name="Grupo 57309" transform="translate(0 80.177)">
        <g id="Grupo_57290" data-name="Grupo 57290" transform="translate(65.8)">
          <path id="Trazado_116327" data-name="Trazado 116327" d="M227.975,388.1s-.683,3.7-1.047,7.37a2.534,2.534,0,0,0,2.4,2.759c4.887.251,15.336.744,19.09.614a.813.813,0,0,0,.727-1.116h0a1.817,1.817,0,0,0-.926-1l-17.2-8.1Z" transform="translate(-188.844 -210.985)" fill="url(#linear-gradient-9)"/>
          <path id="Trazado_116328" data-name="Trazado 116328" d="M227.55,385.479l.484,4.437s3.01,1.436,5.086-.13l-1.2-4.956Z" transform="translate(-188.929 -210.544)" fill="url(#linear-gradient-10)"/>
          <path id="Trazado_116329" data-name="Trazado 116329" d="M226.771,289.191c-.234,1.15-1.73,57.772,4.039,83.2a.865.865,0,0,1-.51.995,14.946,14.946,0,0,1-4.939.96,1.5,1.5,0,0,1-1.462-1.081c-1.678-5.908-9.688-35.464-10.492-63.672-.908-31.494,0-1.073,0-1.073l.865-19.454Z" transform="translate(-186.965 -197.615)" fill="url(#linear-gradient-11)"/>
          <path id="Trazado_116330" data-name="Trazado 116330" d="M204.824,390.12a26.486,26.486,0,0,0-2.119,6.825,1.548,1.548,0,0,0,1.341,1.86c1.618.173,4.1.4,6.055.406a1.531,1.531,0,0,0,1.531-1.73,12.975,12.975,0,0,0-2.958-7.145Z" transform="translate(-185.57 -211.258)" fill="url(#linear-gradient-12)"/>
          <path id="Trazado_116331" data-name="Trazado 116331" d="M204.17,383.476l1.159,6.721a4.337,4.337,0,0,0,3.616.285l-.51-7.223Z" transform="translate(-185.773 -210.332)" fill="url(#linear-gradient-13)"/>
          <path id="Trazado_116332" data-name="Trazado 116332" d="M200.87,290.548c-5.233,29.833.372,73.853,2.318,82.476a1.341,1.341,0,0,0,1.073,1.029,9.057,9.057,0,0,0,3.875-.121,1.211,1.211,0,0,0,.865-1.116c.346-6.92.26-49.667,5.034-66.509a3.866,3.866,0,0,1,1.5-2.1l9.013-6.271.787-10.285Z" transform="translate(-185.034 -197.423)" fill="url(#linear-gradient-14)"/>
          <g id="Grupo_57285" data-name="Grupo 57285" transform="translate(14.204 14.198)">
            <path id="Trazado_116333" data-name="Trazado 116333" d="M233.037,225.5c-14.835-.389-31.243,3.6-31.243,3.6-4.662,25.759-1.3,55.549-1.3,55.549,11.452,3.123,24.453-1.609,24.453-1.609,2.015-10.76,11.245-41.026,11.245-41.026a48.923,48.923,0,0,0,18.165-5.588A31.762,31.762,0,0,1,248.2,223.22a49.954,49.954,0,0,1-15.163,2.284Z" transform="translate(-199.323 -202.923)" fill="url(#linear-gradient-15)"/>
            <path id="Trazado_116334" data-name="Trazado 116334" d="M284.693,200.9a2.846,2.846,0,0,0-3.3-.96c-2.266,9.2-13.788,16.564-25.578,20.111a31.762,31.762,0,0,0,6.159,13.208C281.6,222.456,284.693,200.9,284.693,200.9Z" transform="translate(-206.95 -199.754)" fill="url(#linear-gradient-16)"/>
          </g>
          <g id="Grupo_57286" data-name="Grupo 57286" transform="translate(88.692)">
            <path id="Trazado_116335" data-name="Trazado 116335" d="M288.337,199.126c.147.484-1.626,1.211-2.647-.787,0-.951-.571-5.026,0-5.8a75.753,75.753,0,0,1,8.979-9.2,1.393,1.393,0,0,1,.156,1.938l-2.846,2.958a13.927,13.927,0,0,1,1.626,3.3,4,4,0,0,1-.424,2.932c-.51.865-1.2,2.059-1.851,2.967a3.927,3.927,0,0,1-2.993,1.7Z" transform="translate(-285.437 -183.34)" fill="url(#linear-gradient-17)"/>
            <path id="Trazado_116336" data-name="Trazado 116336" d="M290.98,191.19l-2.595,2.171-.865,2.18,2.284,2.595s.822-4.325,1.41-5.268S291.508,191.467,290.98,191.19Z" transform="translate(-285.718 -184.4)" fill="url(#linear-gradient-18)"/>
          </g>
          <path id="Trazado_116337" data-name="Trazado 116337" d="M205.183,244.437,199.63,230s-13.944,9.281-16.34,21.192A32.627,32.627,0,0,1,195.3,254.54C196.386,248.926,205.183,244.437,205.183,244.437Z" transform="translate(-182.954 -189.64)" fill="url(#linear-gradient-19)"/>
          <path id="Trazado_116338" data-name="Trazado 116338" d="M217.11,261.379s-15.639,8.65-20.82,1.081a5.925,5.925,0,0,1-1.038-4.593,32.627,32.627,0,0,0-12.015-3.347,16.512,16.512,0,0,0,1.73,11.314c9.03,16.91,34.21-.605,34.21-.605Z" transform="translate(-182.901 -192.95)" fill="url(#linear-gradient-20)"/>
          <path id="Trazado_116339" data-name="Trazado 116339" d="M220.3,211.77l-4.853,13.606a.476.476,0,0,0,.225.588c1.28.727,5.891,2.829,11.513-.657a2.318,2.318,0,0,0,1.081-1.652l1.643-11.8Z" transform="translate(-187.291 -187.178)" fill="url(#linear-gradient-21)"/>
          <g id="Grupo_57287" data-name="Grupo 57287" transform="translate(24.105 4.935)">
            <path id="Trazado_116340" data-name="Trazado 116340" d="M231.177,197.27s5.095,9.8,4.394,13.736-7.127,3.59-12.707.337l-3.815-10.57Z" transform="translate(-211.887 -190.155)" fill="url(#linear-gradient-22)"/>
            <path id="Trazado_116341" data-name="Trazado 116341" d="M222.049,205.06a.407.407,0,0,0,.182-.588,10.379,10.379,0,0,1-1.419-3.071s-.926-.605,2.387-1.367,8.252-1.938,9.307-4.74-1.548-9.653-5.83-4.2a.4.4,0,0,1-.64,0c-.683-.865-2.491-2.8-5.034-1.687-2.379,1.038-2.664,2.777-2.595,3.65a.4.4,0,0,1-.476.407,4.628,4.628,0,0,0-5.441,2.474c-1.133,2.413-.424,3.8.225,4.481a.4.4,0,0,1-.182.657,2.422,2.422,0,0,0-1.73,2.742c.121,2.552,2.976,2.353,3.789,2.24a.415.415,0,0,1,.355.13c.692.778,3.8,4.083,7.188,4.507a.407.407,0,0,0,.424-.528l-1.427-4.325a.407.407,0,0,1,.225-.493Z" transform="translate(-210.769 -189.045)" fill="url(#linear-gradient-23)"/>
            <path id="Trazado_116342" data-name="Trazado 116342" d="M223.86,208.068s-3.668-2.595-3.953-.441,3.3,3.123,5.077,2.344Z" transform="translate(-212.001 -191.438)" fill="url(#linear-gradient-24)"/>
          </g>
          <g id="Grupo_57289" data-name="Grupo 57289" transform="translate(30.983 49.86)">
            <g id="Grupo_57288" data-name="Grupo 57288">
              <path id="Trazado_116343" data-name="Trazado 116343" d="M218.755,273.21l8.52-29.756a.865.865,0,0,1,.735-.623c1.54-.182,6.012-.692,11.176-1.124,6.228-.528,13.451-.951,17.767-.588a.865.865,0,0,1,.709,1.246c-2.457,4.974-12.551,25.171-17.611,31.8a.865.865,0,0,1-.7.346l-19.765-.19a.865.865,0,0,1-.83-1.107Z" transform="translate(-218.72 -240.983)" fill="url(#linear-gradient-25)"/>
              <path id="Trazado_116344" data-name="Trazado 116344" d="M221.011,268.346s-1.194-4.879-.709-6.617,1.4-3.953,4.5-3.46a45.043,45.043,0,0,1,6.738,1.8A1.73,1.73,0,0,1,229,261.591l1.462,1.133s-.216,1.808-2.2.865l1.358,1.5a1.583,1.583,0,0,1-2.318.528C225.846,264.635,225.155,268.934,221.011,268.346Z" transform="translate(-218.918 -243.307)" fill="url(#linear-gradient-26)"/>
            </g>
            <path id="Trazado_116345" data-name="Trazado 116345" d="M241.73,251.7a2.5,2.5,0,1,0,2.5-2.5A2.5,2.5,0,0,0,241.73,251.7Z" transform="translate(-221.827 -242.092)" fill="#91b3fa"/>
            <path id="Trazado_116346" data-name="Trazado 116346" d="M229.621,252.542l-.631-.182,1.73-5.891a2.673,2.673,0,0,1,2.015-1.877c5.5-1.15,19.981-1.384,20.6-1.393v.666c-.156,0-15.033.242-20.474,1.375a2.015,2.015,0,0,0-1.514,1.419Z" transform="translate(-220.107 -241.282)" fill="#91b3fa"/>
          </g>
        </g>
        <g id="Grupo_57291" data-name="Grupo 57291" transform="translate(0 137.691)">
          <path id="Trazado_116347" data-name="Trazado 116347" d="M112.346,350.27c-.865,1.341-4.515,31.771-5.086,43.007a1.332,1.332,0,0,0,1.332,1.393h0a1.323,1.323,0,0,0,1.315-1.124l6.643-42.306Z" transform="translate(-106.888 -343.569)" fill="#7d97f4"/>
          <path id="Trazado_116348" data-name="Trazado 116348" d="M146.045,350.27c.908,1.341,4.515,31.771,5.077,43.007a1.323,1.323,0,0,1-1.358,1.393h0a1.332,1.332,0,0,1-1.315-1.124l-6.6-42.306Z" transform="translate(-111.558 -343.569)" fill="#7d97f4"/>
          <path id="Trazado_116349" data-name="Trazado 116349" d="M106.83,346.845v.329a4.533,4.533,0,0,0,4.61,4.394l30.525.519a4.558,4.558,0,0,0,4.775-4.143v-.3a4.515,4.515,0,0,0-4.6-4.567l-30.534-.545a4.541,4.541,0,0,0-4.775,4.316Z" transform="translate(-106.83 -342.523)" fill="#7d97f4"/>
        </g>
        <g id="Grupo_57295" data-name="Grupo 57295" transform="translate(9.055 47.252)">
          <g id="Grupo_57292" data-name="Grupo 57292" transform="translate(46.294 133.503)">
            <path id="Trazado_116350" data-name="Trazado 116350" d="M179.762,398.585c-5.423,0-7.785-.467-8.892-.865a2.05,2.05,0,0,0,2,1.592h19.194a.934.934,0,0,0,.865-1.176C190.773,398.282,186.128,398.585,179.762,398.585Z" transform="translate(-170.825 -393.039)" fill="#91b3fa"/>
            <path id="Trazado_116351" data-name="Trazado 116351" d="M192.955,397.379a.865.865,0,0,0-.156-.329c-1.462-1.868-4.394-4.8-8.39-4.74-5.856.078-7.9.718-12.447,0l-1.073,3.555a2.024,2.024,0,0,0,0,1.064c1.073.424,3.46.865,8.892.865C186.121,397.854,190.766,397.552,192.955,397.379Z" transform="translate(-170.818 -392.309)" fill="url(#linear-gradient-27)"/>
          </g>
          <path id="Trazado_116352" data-name="Trazado 116352" d="M173.463,387.92,172.14,392.4a7.771,7.771,0,0,0,5.484.259l.51-3.884Z" transform="translate(-124.702 -258.214)" fill="url(#linear-gradient-28)"/>
          <g id="Grupo_57293" data-name="Grupo 57293" transform="translate(79.01 127.026)">
            <path id="Trazado_116353" data-name="Trazado 116353" d="M218.481,394.105c-4.221,3.4-6.384,4.541-7.491,4.887a2.067,2.067,0,0,0,2.595,0l14.964-12.023a.934.934,0,0,0,0-1.479C226.88,386.978,223.446,390.126,218.481,394.105Z" transform="translate(-208.957 -384.911)" fill="#91b3fa"/>
            <path id="Trazado_116354" data-name="Trazado 116354" d="M228.163,385.382a.96.96,0,0,0-.329-.156c-2.3-.528-6.418-.969-9.515,1.583-4.515,3.728-5.709,5.5-9.679,7.785l1.384,3.46a1.972,1.972,0,0,0,.631.865c1.107-.346,3.27-1.488,7.491-4.887C223.129,390.036,226.563,386.887,228.163,385.382Z" transform="translate(-208.64 -384.821)" fill="url(#linear-gradient-29)"/>
          </g>
          <path id="Trazado_116355" data-name="Trazado 116355" d="M140.124,328.92s32.48,2.656,39.141,5.787-5.441,47.1-5.441,47.1-1.808.865-5.847-.381c0,0,4.135-32.437,1.055-39.478l-35.162-5.752Z" transform="translate(-119.535 -250.248)" fill="url(#linear-gradient-30)"/>
          <path id="Trazado_116356" data-name="Trazado 116356" d="M204.93,388.7c.3.277,3.226,6.176,3.226,6.176s3.261-.709,3.927-2.768l-2.932-5.328Z" transform="translate(-129.13 -258.06)" fill="url(#linear-gradient-31)"/>
          <path id="Trazado_116357" data-name="Trazado 116357" d="M118.32,328.61a16.34,16.34,0,0,0-1.021,5.925,8.918,8.918,0,0,0,8.5,8.719l38.4,1.73a1.842,1.842,0,0,1,1.73,1.384c.865,3.46,5.311,14.212,26.866,35.594a1.73,1.73,0,0,0,2.154.234l3.071-1.938a.709.709,0,0,0,.234-.952l-22.395-38.163a8.65,8.65,0,0,0-5.259-3.9l-32.722-8.365Z" transform="translate(-117.298 -250.206)" fill="url(#linear-gradient-32)"/>
          <path id="Trazado_116358" data-name="Trazado 116358" d="M160.933,259.66s-4.117,7.275-8.313,10.8l8.65,4.835s1.955-7.7,6.418-9.956Z" transform="translate(-122.067 -240.897)" fill="url(#linear-gradient-33)"/>
          <path id="Trazado_116359" data-name="Trazado 116359" d="M117.67,321.064s10.38,2.526,20.267,0c0,0,13.84-18.614,19.194-23.675,0,0,8.546,13.476,27.567,15.388l1.055-2.37s-15.137-6.98-19.8-17.7-6.531-15.3-10.769-18.1c-2.647-1.73-4.221-2.932-5.043-3.59a1.358,1.358,0,0,0-1.548-.1C144.087,273.671,122.912,288.177,117.67,321.064Z" transform="translate(-117.348 -242.391)" fill="url(#linear-gradient-34)"/>
          <path id="Trazado_116360" data-name="Trazado 116360" d="M161.741,299.614a.666.666,0,0,1-.528-.26,41.519,41.519,0,0,1-5.19-9.247.666.666,0,0,1,.389-.865.657.657,0,0,1,.865.381,41.078,41.078,0,0,0,4.991,8.918.649.649,0,0,1-.121.926A.64.64,0,0,1,161.741,299.614Z" transform="translate(-122.52 -244.884)" fill="url(#linear-gradient-35)"/>
          <path id="Trazado_116361" data-name="Trazado 116361" d="M193.84,314.834l2.137-.571,6.5-1.505a2.984,2.984,0,0,1,2.284.389l5.588,3.512H194.913Z" transform="translate(-127.632 -248.055)" fill="url(#linear-gradient-28)"/>
          <g id="Grupo_57294" data-name="Grupo 57294" transform="translate(28.165)">
            <path id="Trazado_116362" data-name="Trazado 116362" d="M167.958,247.05s4,6.643,4.688,10.319,1.808,5.968-2.37,7.275a9.19,9.19,0,0,1-10.51-3.771s-3.806-5.276-3.46-7.7S167.958,247.05,167.958,247.05Z" transform="translate(-150.727 -239.194)" fill="url(#linear-gradient-37)"/>
            <path id="Trazado_116363" data-name="Trazado 116363" d="M160.015,256.8l.545-.069s-2.837-4.325-.986-5.337,9.4-3.668,10.717-6.643a5.19,5.19,0,0,0-2.906-6.773.285.285,0,0,0-.346.182l-.138.363a.294.294,0,0,1-.545,0h0a.294.294,0,0,0-.528,0c-.407.865-1.618,2.413-5.242,3.59-5.19,1.669-8.364,4.264-7.967,7.923a.294.294,0,0,1-.424.3c-.415-.19-1.055-.216-1.8.588-1.289,1.41-.277,4.5,3.244,6.678a.285.285,0,0,1,.043.467c-.519.45-1.263,1.462,1.116,2.353s3.771.605,4.256.415a.294.294,0,0,0,.182-.337l-.623-3.2a.285.285,0,0,1,.251-.346Z" transform="translate(-149.859 -237.968)" fill="url(#linear-gradient-38)"/>
            <path id="Trazado_116364" data-name="Trazado 116364" d="M161.213,260.01s-1.73-4.325-3.616-2.82,1.73,4.913,3.356,4.861Z" transform="translate(-150.832 -240.52)" fill="url(#linear-gradient-39)"/>
          </g>
        </g>
        <g id="Grupo_57296" data-name="Grupo 57296" transform="translate(67.836 85.803)">
          <path id="Trazado_116365" data-name="Trazado 116365" d="M186.712,320.321h33.017a1.47,1.47,0,0,0,0-2.941H186.764a1.471,1.471,0,0,0-.078,2.941Z" transform="translate(-185.254 -287.24)" fill="url(#linear-gradient-40)"/>
          <path id="Trazado_116366" data-name="Trazado 116366" d="M237.728,283.327v.069l-13.84,29.911a1.473,1.473,0,1,0,2.673,1.237l13.84-29.877a1.474,1.474,0,0,0-2.638-1.315Z" transform="translate(-190.452 -282.536)" fill="url(#linear-gradient-41)"/>
        </g>
        <g id="Grupo_57302" data-name="Grupo 57302" transform="translate(125.32 43.591)">
          <g id="Grupo_57297" data-name="Grupo 57297" transform="translate(55.826 96.917)">
            <rect id="Rect치ngulo_6378" data-name="Rect치ngulo 6378" width="3.477" height="37.627" transform="translate(16.815 8.434)" fill="#7d97f4"/>
            <path id="Trazado_116367" data-name="Trazado 116367" d="M350.562,399.516H320.08a2.275,2.275,0,0,1,2.266-2.266H348.3a2.275,2.275,0,0,1,2.266,2.266Z" transform="translate(-316.767 -352.729)" fill="#7d97f4"/>
            <rect id="Rect치ngulo_6379" data-name="Rect치ngulo 6379" width="38.319" height="10.864" rx="4.33" fill="#7d97f4"/>
          </g>
          <g id="Grupo_57298" data-name="Grupo 57298" transform="translate(3.754 73.19)">
            <path id="Trazado_116368" data-name="Trazado 116368" d="M306.083,326.52a30.344,30.344,0,0,0-10.985,4.688,2.906,2.906,0,0,0-1.271,2.768A123.014,123.014,0,0,0,306.8,374.769a4.385,4.385,0,0,1,.424,3.01l-1.643,7.638-3.036,2.846h7.863l5.19-14.108-2.232-.709a4.221,4.221,0,0,1-2.95-3.944l-.26-15.146a17.213,17.213,0,0,0-4.135-11.392l12.508-.614Z" transform="translate(-261.147 -319.453)" fill="url(#linear-gradient-42)"/>
            <path id="Trazado_116369" data-name="Trazado 116369" d="M300.383,396.953c-.709.934,7.681,2.171,11.919.13,0,0,5.873-10.224,5.873-15.492,0,0-.467-1.073-3.918-.865,0,0-1.972,12.11-4.057,13.459s-5.83.138-5.83.138S301.439,395.578,300.383,396.953Z" transform="translate(-262.03 -326.768)" fill="url(#linear-gradient-43)"/>
            <path id="Trazado_116370" data-name="Trazado 116370" d="M312.421,343.483c-.061-.112-13.468-1.609-13.468-1.609a30.95,30.95,0,0,1-.926,9.679c-1.375,5.614-21.054,29.911-21.054,29.911L279.041,388a33.189,33.189,0,0,1-18.831,1.133L273,381.465s11.971-40.775,19.3-48.05l13.433-4.645Z" transform="translate(-256.612 -319.757)" fill="url(#linear-gradient-44)"/>
            <path id="Trazado_116371" data-name="Trazado 116371" d="M347.508,318.35s7.716,11.487,8.356,16.72-2.119,7.37-10.224,7.724-29.721.346-29.721.346L297.46,327.363s13.451-4.8,16.945-6.159S347.508,318.35,347.508,318.35Z" transform="translate(-261.641 -318.35)" fill="url(#linear-gradient-45)"/>
            <path id="Trazado_116372" data-name="Trazado 116372" d="M277.7,394.71s2.223,2.145.718,4.541c0,0-17.594,3.123-22.369,1.73,0,0,.986-2.266,6.366-4.844l-.4.311a.64.64,0,0,0,.432,1.15C265.989,397.374,273.306,396.691,277.7,394.71Z" transform="translate(-256.05 -328.66)" fill="url(#linear-gradient-46)"/>
          </g>
          <g id="Grupo_57300" data-name="Grupo 57300" transform="translate(41.906)">
            <path id="Trazado_116373" data-name="Trazado 116373" d="M315.787,234.1c15.786-2.69,23.216,10.19,22.671,12.888a.5.5,0,0,0,.623.571c1.808-.493,5.813-1.107,8.3,2.007,2.188,2.742.554,5.337-.778,6.756a.493.493,0,0,0,.415.865c3.33-.415,10.57-.519,11.746,6.262,1.107,6.323-3.3,8.1-5.9,8.607a.5.5,0,0,0-.173.908c1.306.865,2.811,2.534,2.206,5.908-.951,5.276-11.305,4.844-12.516,4.775a.476.476,0,0,1-.216-.061L325.6,274.1a.493.493,0,0,1-.251-.346l-3.348-19.332a.5.5,0,0,1,.138-.432L311.332,238.73C307.379,238.159,315.606,234.129,315.787,234.1Z" transform="translate(-301.521 -233.735)" fill="url(#linear-gradient-47)"/>
            <path id="Trazado_116374" data-name="Trazado 116374" d="M328.689,310.093s-9-8.555-13.416-14.229a12.023,12.023,0,0,1-2.041-10.83c2.024-6.807,5.614-13.84,5.942-14.956.5-1.678,10.579-1.609,10.579-1.609s19.843,12.871,27.636,34.686l-8.754,2.725s-5.19-8.693-10.3-14.212c0,0,8.857,11.695,9.169,16.487Z" transform="translate(-301.855 -238.425)" fill="url(#linear-gradient-48)"/>
            <path id="Trazado_116375" data-name="Trazado 116375" d="M318.77,258.731c.1.346,2.733,9.074,2.941,9.247s5.769.484,8.39-1.306L323.605,254Z" transform="translate(-302.67 -236.471)" fill="url(#linear-gradient-49)"/>
            <g id="Grupo_57299" data-name="Grupo 57299" transform="translate(0 1.629)">
              <path id="Trazado_116376" data-name="Trazado 116376" d="M306.535,246s-1.272,5,2.249,11.721,7.5,6.712,9.679,4.558,4.861-5.8,4.221-12.3S308.378,239.645,306.535,246Z" transform="translate(-300.988 -236.582)" fill="url(#linear-gradient-50)"/>
              <path id="Trazado_116377" data-name="Trazado 116377" d="M316.992,249.373s-5.839-8.927-11.314-1.9l-.1,2.595s-6.418-.753-5.294-6.634,6.66-9.515,13.8-7.006,11.245,5.19,11.686,10.267-3.607,3.962-3.607,3.962-1.323-3.6-3.218-3.979-1.393,2.439-1.393,2.439Z" transform="translate(-300.157 -235.619)" fill="url(#linear-gradient-51)"/>
              <path id="Trazado_116378" data-name="Trazado 116378" d="M321.134,250.551s-3.027-4.567.078-5.25,2.595,4.455,2.284,6.349Z" transform="translate(-302.811 -236.918)" fill="url(#linear-gradient-52)"/>
            </g>
            <path id="Trazado_116379" data-name="Trazado 116379" d="M310,316.147l6.609-6.366,9.134,3.858s9.1,1.41,14.307,0l5.19-1.41L357,308.57l1.842,5.19a3.131,3.131,0,0,1-1.142,3.607,20.251,20.251,0,0,1-2.976,1.851c-1.548.675-38.189-.467-38.189-.467Z" transform="translate(-301.486 -243.839)" fill="url(#linear-gradient-53)"/>
          </g>
          <g id="Grupo_57301" data-name="Grupo 57301" transform="translate(0 40.52)">
            <path id="Trazado_116380" data-name="Trazado 116380" d="M332.635,320.253h-.086l-38.319-.043a1.73,1.73,0,0,1,0-3.46h38.319a1.731,1.731,0,0,1,.086,3.46Z" transform="translate(-257.218 -285.463)" fill="url(#linear-gradient-54)"/>
            <path id="Trazado_116381" data-name="Trazado 116381" d="M254.279,280.58h31.909a6.055,6.055,0,0,1,5.5,3.46l14.765,31.313H266.787a3.711,3.711,0,0,1-3.46-2.344l-11.435-28.942a2.543,2.543,0,0,1,2.387-3.486Z" transform="translate(-251.71 -280.58)" fill="url(#linear-gradient-55)"/>
            <path id="Trazado_116382" data-name="Trazado 116382" d="M279.874,298.62c.692,2.154.182,4.238-1.142,4.662s-2.958-.969-3.65-3.123-.173-4.23,1.142-4.662S279.182,296.475,279.874,298.62Z" transform="translate(-254.824 -282.583)" fill="#7d97f4"/>
          </g>
        </g>
        <g id="Grupo_57306" data-name="Grupo 57306" transform="translate(200.305 9.114)">
          <g id="Grupo_57303" data-name="Grupo 57303" transform="translate(23.414 83.915)">
            <path id="Trazado_116383" data-name="Trazado 116383" d="M386.177,394.131a48.118,48.118,0,0,1,.562,4.887,2.093,2.093,0,0,1-1.894,2.214c-3.927.381-12.854,1.081-18.554.259a.96.96,0,0,1-.528-1.643,29.593,29.593,0,0,1,17.369-7.378Z" transform="translate(-365.468 -304.605)" fill="url(#linear-gradient-56)"/>
            <path id="Trazado_116384" data-name="Trazado 116384" d="M390.6,388.242l-1.981,4.861a1.618,1.618,0,0,1-1.661,1,9.509,9.509,0,0,1-1.626-.311,2.128,2.128,0,0,1-1.41-2.647l1.5-5.008Z" transform="translate(-367.948 -303.75)" fill="url(#linear-gradient-57)"/>
            <path id="Trazado_116385" data-name="Trazado 116385" d="M429.983,398.86a20.9,20.9,0,0,0-5.519,7.586,1.816,1.816,0,0,0,1.73,2.413h8.165a1.929,1.929,0,0,0,1.912-2.258C435.735,403.661,434.239,398.877,429.983,398.86Z" transform="translate(-373.42 -305.467)" fill="url(#linear-gradient-58)"/>
            <path id="Trazado_116386" data-name="Trazado 116386" d="M435.591,393.775s-.8,3.546-1.419,5.891a.744.744,0,0,1-.977.51,6.92,6.92,0,0,0-2.976-.536.58.58,0,0,1-.64-.58l-.069-5.891Z" transform="translate(-374.115 -304.699)" fill="url(#linear-gradient-59)"/>
            <path id="Trazado_116387" data-name="Trazado 116387" d="M408.36,300.076l-24.15,73.688s4.628,3.027,6.833,2.906l28.692-59.217s5.017,36.485,2.595,62.677l8.217.631s13.364-66.941,3.244-89.872Z" transform="translate(-367.999 -290.89)" fill="url(#linear-gradient-60)"/>
            <path id="Trazado_116388" data-name="Trazado 116388" d="M424.913,319.626h0a.242.242,0,0,0,.208-.259l-.934-7.439a.242.242,0,0,0-.268-.208.225.225,0,0,0-.2.259l.934,7.439a.242.242,0,0,0,.259.208Z" transform="translate(-373.332 -293.702)" fill="url(#linear-gradient-61)"/>
          </g>
          <path id="Trazado_116389" data-name="Trazado 116389" d="M403.222,226.55s19.575,1.73,16.807,15.682A190.231,190.231,0,0,1,435.9,286.563a1.4,1.4,0,0,1-1.142,1.678l-32.593,5.579a1.73,1.73,0,0,1-1.989-1.289l-7.785-30.093-3.027,14-9.645-2.517,8.114-41.113S388.958,226.809,403.222,226.55Z" transform="translate(-343.979 -198.288)" fill="url(#linear-gradient-62)"/>
          <path id="Trazado_116390" data-name="Trazado 116390" d="M393.709,264.458h.052a.251.251,0,0,0,.19-.294l-2.716-12.473a.251.251,0,0,0-.294-.182.234.234,0,0,0-.182.285l2.716,12.473A.234.234,0,0,0,393.709,264.458Z" transform="translate(-345.468 -201.657)" fill="#91b3fa"/>
          <path id="Trazado_116391" data-name="Trazado 116391" d="M395.4,306.049a4.6,4.6,0,0,1,3.365-.441l2.266.562a.813.813,0,0,0,1.012-.7l2.344-20.889c2.941,1.393,7.171,1.228,8.563,1.124l-5.4,24.626h-18.9Z" transform="translate(-345.184 -206.123)" fill="url(#linear-gradient-63)"/>
          <path id="Trazado_116392" data-name="Trazado 116392" d="M338.4,254.784l.571-1.894a3.763,3.763,0,0,1,2.188-2.4l10.38-4.152s.156-1.323-2.188-2.223-1.791-3.521-1.791-3.521,3.2,1.453,7.871,3.771a10.89,10.89,0,0,1,4.974,5.406l23.415,28.545L381.07,280.2A7.335,7.335,0,0,1,370.43,277.6L357.75,253.288A47.236,47.236,0,0,1,338.4,254.784Z" transform="translate(-338.4 -200.184)" fill="url(#linear-gradient-64)"/>
          <g id="Grupo_57305" data-name="Grupo 57305" transform="translate(30.299)">
            <path id="Trazado_116393" data-name="Trazado 116393" d="M398.593,211.129l6.055,16.841s-5.328,4.169-9.221,2.759l-3.027-9.653S394.649,209.26,398.593,211.129Z" transform="translate(-375.99 -196.179)" fill="url(#linear-gradient-65)"/>
            <g id="Grupo_57304" data-name="Grupo 57304">
              <path id="Trazado_116394" data-name="Trazado 116394" d="M378.8,203.639c0,.259,5.8,16.435,5.8,16.435l9.152-3.512-3.218-16.123S378.8,199.3,378.8,203.639Z" transform="translate(-374.154 -194.744)" fill="url(#linear-gradient-66)"/>
              <path id="Trazado_116395" data-name="Trazado 116395" d="M388.2,203.5l2.361,8.356a1.073,1.073,0,0,1,0,.329c0,.683-.164,3.027-2.552,2.707-2.171-.285-4.152-.519-5.415.078a1.211,1.211,0,0,0-.623,1.505,52.581,52.581,0,0,0,3.3,7.439,1.211,1.211,0,0,0,1.557.5,39.034,39.034,0,0,0,7.845-4.619,1.228,1.228,0,0,0,.432-1.168c-.4-2.137-1.6-8.65-1.652-10.5s1.912-3.088,2.777-3.59a1.185,1.185,0,0,0,.562-.753c.277-1.124.5-3.668-2.742-4.23a1.211,1.211,0,0,1-.986-1.445,3.156,3.156,0,0,0-2.37-4.057,4.446,4.446,0,0,0-5.069,2.015,1.211,1.211,0,0,1-1.505.407.951.951,0,0,0-1.073.19,1.194,1.194,0,0,1-1.73-.268,3.624,3.624,0,0,0-4.463-1.47c-4.135,1.341-3.944,6.107-2.422,8.693s5.917.865,8-.865c1.583-1.306,4-.519,5.06-.069a1.185,1.185,0,0,1,.709.813Z" transform="translate(-373.428 -193.877)" fill="url(#linear-gradient-67)"/>
              <path id="Trazado_116396" data-name="Trazado 116396" d="M397.362,212.787s-2.448-4.628-.865-6.055,4.325-1.211,4.325,2.4C400.727,213.609,397.362,212.787,397.362,212.787Z" transform="translate(-376.471 -195.501)" fill="url(#linear-gradient-68)"/>
            </g>
          </g>
          <path id="Trazado_116397" data-name="Trazado 116397" d="M413.293,280.989a21.627,21.627,0,0,0,2.387-.112h.173l7.127-33.224a.242.242,0,0,0-.182-.285.251.251,0,0,0-.294.19l-7.05,32.869c-1.064.087-6.721.467-9.714-1.652l6.211-28.873-1.289-2.431a.246.246,0,0,0-.432.234l1.211,2.266-6.2,29,.121.086C407.489,280.686,410.966,280.989,413.293,280.989Z" transform="translate(-347.424 -201.096)" fill="#91b3fa"/>
        </g>
        <g id="Grupo_57307" data-name="Grupo 57307" transform="translate(51.307 121.51)">
          <path id="Trazado_116398" data-name="Trazado 116398" d="M167.386,392.615a1.237,1.237,0,0,1-.484-.112,1.4,1.4,0,0,1-.649-1.782l26.036-66.068a1.211,1.211,0,0,1,1.635-.709,1.41,1.41,0,0,1,.64,1.765l-26.036,66.085a1.246,1.246,0,0,1-1.142.822Z" transform="translate(-166.146 -323.819)" fill="url(#linear-gradient-69)"/>
          <path id="Trazado_116399" data-name="Trazado 116399" d="M197.24,392.612a1.246,1.246,0,0,1-1.142-.865l-26.045-66.042a1.41,1.41,0,0,1,.657-1.782,1.2,1.2,0,0,1,1.626.709L198.373,390.7a1.4,1.4,0,0,1-.649,1.782,1.2,1.2,0,0,1-.484.13Z" transform="translate(-166.659 -323.817)" fill="url(#linear-gradient-70)"/>
          <path id="Trazado_116400" data-name="Trazado 116400" d="M371.686,392.615a1.2,1.2,0,0,1-.484-.112,1.41,1.41,0,0,1-.657-1.782l26.045-66.068a1.2,1.2,0,0,1,1.626-.709,1.393,1.393,0,0,1,.649,1.782l-26.036,66.068a1.246,1.246,0,0,1-1.142.822Z" transform="translate(-193.728 -323.819)" fill="url(#linear-gradient-71)"/>
          <path id="Trazado_116401" data-name="Trazado 116401" d="M401.531,392.612a1.263,1.263,0,0,1-1.142-.865l-26.036-66.042a1.4,1.4,0,0,1,.649-1.782,1.2,1.2,0,0,1,1.635.709L402.673,390.7a1.41,1.41,0,0,1-.649,1.782A1.246,1.246,0,0,1,401.531,392.612Z" transform="translate(-194.242 -323.816)" fill="url(#linear-gradient-72)"/>
        </g>
        <g id="Grupo_57308" data-name="Grupo 57308" transform="translate(224.334 112.907)">
          <path id="Trazado_116402" data-name="Trazado 116402" d="M367.51,318.782h37.713V314.89H367.51C368.323,314.89,368.323,318.782,367.51,318.782Z" transform="translate(-366.36 -314.008)" fill="#91b3fa"/>
          <path id="Trazado_116403" data-name="Trazado 116403" d="M404.689,318.645a.355.355,0,0,0,.355-.355v-3.183a.355.355,0,0,0-.355-.355H366.535a.363.363,0,0,1-.355-.355v-.173a.355.355,0,0,1,.355-.355h40.654a1.626,1.626,0,0,1,1.626,1.626v2.491a1.531,1.531,0,0,1-1.531,1.531h-40.75a.355.355,0,0,1-.355-.355v-.173a.355.355,0,0,1,.355-.346Z" transform="translate(-366.18 -313.87)" fill="url(#linear-gradient-73)"/>
        </g>
        <path id="Trazado_116404" data-name="Trazado 116404" d="M381.415,322.144a1.15,1.15,0,0,0-.467-1.228,2.811,2.811,0,0,0-1.73-.536H153.258a3.053,3.053,0,0,0-2.171.787,1.22,1.22,0,0,0-.164,1.635l2.448,3.512a3.823,3.823,0,0,0,3.114,1.323H377.67a2.556,2.556,0,0,0,2.552-1.393Z" transform="translate(-112.751 -201.842)" fill="url(#linear-gradient-74)"/>
      </g>
    </g>
  </g>
</svg>
