<svg xmlns="http://www.w3.org/2000/svg" xmlns:xlink="http://www.w3.org/1999/xlink" width="228.12" height="215.077" viewBox="0 0 228.12 215.077">
  <defs>
    <linearGradient id="linear-gradient" x1="0.932" y1="-2.906" x2="0.667" y2="-0.816" gradientUnits="objectBoundingBox">
      <stop offset="0" stop-color="#f25585"/>
      <stop offset="1" stop-color="#ef2a66"/>
    </linearGradient>
    <linearGradient id="linear-gradient-2" x1="849.02" y1="43.457" x2="841.02" y2="44.316" gradientUnits="objectBoundingBox">
      <stop offset="0" stop-color="#241753"/>
      <stop offset="1" stop-color="#472ea6"/>
    </linearGradient>
    <linearGradient id="linear-gradient-3" x1="113.02" y1="213.107" x2="112.698" y2="216.552" xlink:href="#linear-gradient-2"/>
    <linearGradient id="linear-gradient-4" x1="740.087" y1="-7.911" x2="737.25" y2="-1.521" xlink:href="#linear-gradient-2"/>
    <linearGradient id="linear-gradient-5" x1="2959.19" y1="-13.568" x2="2960.203" y2="-13.568" gradientUnits="objectBoundingBox">
      <stop offset="0" stop-color="#febbba"/>
      <stop offset="1" stop-color="#ff928e"/>
    </linearGradient>
    <linearGradient id="linear-gradient-6" x1="925.945" y1="-0.906" x2="922.931" y2="-0.051" xlink:href="#linear-gradient-2"/>
    <linearGradient id="linear-gradient-7" x1="1831.915" y1="-10.986" x2="1824.896" y2="-3.424" xlink:href="#linear-gradient-2"/>
    <linearGradient id="linear-gradient-8" x1="3432.653" y1="-10.209" x2="3433.678" y2="-10.209" xlink:href="#linear-gradient-5"/>
    <linearGradient id="linear-gradient-9" x1="619.292" y1="-0.96" x2="617.272" y2="-0.117" xlink:href="#linear-gradient-2"/>
    <linearGradient id="linear-gradient-10" x1="6.57" y1="-19.57" x2="5.529" y2="-18.892" xlink:href="#linear-gradient"/>
    <linearGradient id="linear-gradient-11" x1="570.402" y1="-1.9" x2="571.395" y2="-1.9" xlink:href="#linear-gradient-5"/>
    <linearGradient id="linear-gradient-12" x1="-408.558" y1="-3.392" x2="-406.572" y2="-0.708" xlink:href="#linear-gradient-5"/>
    <linearGradient id="linear-gradient-13" x1="4109.607" y1="-10.883" x2="4111.613" y2="-12.661" xlink:href="#linear-gradient-5"/>
    <linearGradient id="linear-gradient-14" x1="17.332" y1="-49.852" x2="14.716" y2="-48.126" xlink:href="#linear-gradient"/>
    <linearGradient id="linear-gradient-15" x1="454.438" y1="-3.767" x2="455.441" y2="-3.767" xlink:href="#linear-gradient-5"/>
    <linearGradient id="linear-gradient-16" x1="-0.107" y1="1.69" x2="0.84" y2="-0.028" xlink:href="#linear-gradient-5"/>
    <linearGradient id="linear-gradient-17" x1="458.648" y1="464.075" x2="458.325" y2="463.01" xlink:href="#linear-gradient-5"/>
    <linearGradient id="linear-gradient-18" x1="345.449" y1="354.735" x2="345.653" y2="355.917" xlink:href="#linear-gradient-2"/>
    <linearGradient id="linear-gradient-19" x1="1492.909" y1="2228.59" x2="1491.959" y2="2223.98" xlink:href="#linear-gradient-5"/>
    <linearGradient id="linear-gradient-20" x1="414.773" y1="-0.064" x2="415.287" y2="2.434" xlink:href="#linear-gradient-2"/>
    <linearGradient id="linear-gradient-21" x1="1422.304" y1="0.499" x2="1423.308" y2="0.499" xlink:href="#linear-gradient-5"/>
    <linearGradient id="linear-gradient-22" x1="291.44" y1="9.556" x2="290.345" y2="10.757" xlink:href="#linear-gradient-5"/>
    <linearGradient id="linear-gradient-23" x1="-274.471" y1="44.321" x2="-275.082" y2="44.942" xlink:href="#linear-gradient-2"/>
    <linearGradient id="linear-gradient-24" x1="1.813" y1="-0.581" x2="0.99" y2="0.138" xlink:href="#linear-gradient"/>
    <linearGradient id="linear-gradient-25" x1="-1240.078" y1="135.452" x2="-1239.853" y2="134.542" xlink:href="#linear-gradient-5"/>
    <linearGradient id="linear-gradient-26" x1="-715.495" y1="113.692" x2="-714.286" y2="114.857" xlink:href="#linear-gradient-5"/>
    <linearGradient id="linear-gradient-27" x1="-844.858" y1="135.292" x2="-846.737" y2="137.197" xlink:href="#linear-gradient-2"/>
    <linearGradient id="linear-gradient-28" x1="-1993.463" y1="419.862" x2="-1990.097" y2="424.189" xlink:href="#linear-gradient-5"/>
    <linearGradient id="linear-gradient-29" x1="295.583" y1="1.6" x2="296.98" y2="0.463" xlink:href="#linear-gradient-5"/>
    <linearGradient id="linear-gradient-30" x1="719.624" y1="1.659" x2="720.62" y2="1.659" xlink:href="#linear-gradient-2"/>
    <linearGradient id="linear-gradient-31" x1="553.283" y1="0.729" x2="549.387" y2="1.059" xlink:href="#linear-gradient-5"/>
    <linearGradient id="linear-gradient-32" x1="603.402" y1="1.863" x2="604.395" y2="1.863" xlink:href="#linear-gradient-2"/>
    <linearGradient id="linear-gradient-33" x1="1.967" y1="-0.231" x2="0.934" y2="0.314" xlink:href="#linear-gradient-2"/>
    <linearGradient id="linear-gradient-34" x1="395.22" y1="10.601" x2="398.189" y2="8.426" xlink:href="#linear-gradient-5"/>
    <linearGradient id="linear-gradient-35" x1="223.691" y1="40.861" x2="223.281" y2="41.978" xlink:href="#linear-gradient-2"/>
    <linearGradient id="linear-gradient-36" x1="615.5" y1="65.241" x2="616.631" y2="65.241" xlink:href="#linear-gradient-5"/>
    <linearGradient id="linear-gradient-37" x1="88.626" y1="11.818" x2="89.318" y2="10.907" xlink:href="#linear-gradient-2"/>
    <linearGradient id="linear-gradient-38" x1="194.734" y1="55.732" x2="193.496" y2="59.19" xlink:href="#linear-gradient-2"/>
    <linearGradient id="linear-gradient-39" x1="521.907" y1="69.126" x2="522.809" y2="69.126" xlink:href="#linear-gradient-5"/>
    <linearGradient id="linear-gradient-40" x1="71.079" y1="9.881" x2="71.11" y2="8.904" xlink:href="#linear-gradient-2"/>
    <linearGradient id="linear-gradient-41" x1="1.738" y1="-0.371" x2="-0.624" y2="1.26" xlink:href="#linear-gradient"/>
    <linearGradient id="linear-gradient-42" x1="167.103" y1="34.529" x2="168.098" y2="34.529" xlink:href="#linear-gradient-5"/>
    <linearGradient id="linear-gradient-43" x1="-0.88" y1="1.258" x2="0.452" y2="0.577" xlink:href="#linear-gradient"/>
    <linearGradient id="linear-gradient-44" x1="277.013" y1="36.499" x2="278.126" y2="36.499" xlink:href="#linear-gradient-5"/>
    <linearGradient id="linear-gradient-45" x1="-2.673" y1="1.827" x2="-0.423" y2="0.89" xlink:href="#linear-gradient"/>
    <linearGradient id="linear-gradient-46" x1="79.454" y1="-16.012" x2="78.211" y2="-9.193" xlink:href="#linear-gradient-5"/>
    <linearGradient id="linear-gradient-47" x1="239.584" y1="28.845" x2="238.484" y2="30.159" xlink:href="#linear-gradient-5"/>
    <linearGradient id="linear-gradient-48" x1="262.748" y1="28.855" x2="264.024" y2="28.855" xlink:href="#linear-gradient-2"/>
    <linearGradient id="linear-gradient-49" x1="738.734" y1="107.828" x2="741.153" y2="105.165" xlink:href="#linear-gradient-5"/>
    <linearGradient id="linear-gradient-50" x1="305.805" y1="202.988" x2="305.068" y2="205.449" xlink:href="#linear-gradient-2"/>
    <linearGradient id="linear-gradient-51" x1="232.875" y1="0.134" x2="232.474" y2="0.8" xlink:href="#linear-gradient-2"/>
  </defs>
  <g id="img2" transform="translate(0 0)">
    <rect id="Rectángulo_6754" data-name="Rectángulo 6754" width="212.47" height="212.47" transform="translate(15.65 2.607)" fill="none"/>
    <g id="Grupo_58641" data-name="Grupo 58641" transform="translate(0 0)">
      <g id="Grupo_58616" data-name="Grupo 58616">
        <g id="Grupo_58614" data-name="Grupo 58614">
          <circle id="Elipse_4674" data-name="Elipse 4674" cx="75.703" cy="75.703" r="75.703" transform="translate(0 107.061) rotate(-45)" fill="#bdd0fb"/>
          <g id="Grupo_58611" data-name="Grupo 58611" transform="translate(39.206 39.208)">
            <ellipse id="Elipse_4675" data-name="Elipse 4675" cx="64.612" cy="64.612" rx="64.612" ry="64.612" transform="translate(3.244 3.244)" fill="#9182ca"/>
            <path id="Trazado_119435" data-name="Trazado 119435" d="M101.116,187.377a67.849,67.849,0,1,1,67.842-67.844,67.85,67.85,0,0,1-67.842,67.844Zm0-132.44a64.617,64.617,0,1,0,0-.014Z" transform="translate(-33.26 -51.68)" fill="#fff"/>
          </g>
          <g id="Grupo_58612" data-name="Grupo 58612" transform="translate(59.671 59.671)">
            <ellipse id="Elipse_4676" data-name="Elipse 4676" cx="39.392" cy="39.392" rx="39.392" ry="39.392" transform="translate(0 76.677) rotate(-76.72)" fill="#9182ca"/>
            <path id="Trazado_119436" data-name="Trazado 119436" d="M111.512,172.553a42.621,42.621,0,1,1,42.622-42.621,42.621,42.621,0,0,1-42.622,42.621Zm0-78.777a36.155,36.155,0,1,0,36.155,36.155,36.155,36.155,0,0,0-36.155-36.155Z" transform="translate(-64.12 -82.538)" fill="#fff"/>
          </g>
          <g id="Grupo_58613" data-name="Grupo 58613" transform="translate(88.563 88.565)">
            <ellipse id="Elipse_4677" data-name="Elipse 4677" cx="15.262" cy="15.262" rx="15.262" ry="15.262" transform="translate(0.135 29.841) rotate(-76.72)" fill="url(#linear-gradient)"/>
            <path id="Trazado_119437" data-name="Trazado 119437" d="M121.449,158.368a18.5,18.5,0,1,1,18.5-18.5,18.5,18.5,0,0,1-18.5,18.5Zm0-30.525a12.04,12.04,0,1,0,12.04,12.04,12.04,12.04,0,0,0-12.04-12.04Z" transform="translate(-102.95 -121.37)" fill="#fff"/>
          </g>
        </g>
        <g id="Grupo_58615" data-name="Grupo 58615" transform="translate(106.734 26.871)">
          <rect id="Rectángulo_6755" data-name="Rectángulo 6755" width="2.273" height="86.079" transform="translate(13.307 70.624) rotate(-135)" fill="url(#linear-gradient-2)"/>
          <path id="Trazado_119438" data-name="Trazado 119438" d="M141.442,126.188c.921-.921,5.269,3.421,4.349,4.349l-16.126,12.67a.637.637,0,0,1-.9-.9Z" transform="translate(-128.607 -61.044)" fill="url(#linear-gradient-3)"/>
          <path id="Trazado_119439" data-name="Trazado 119439" d="M226.26,48.09l8.187.814-11.218,11.24a17.38,17.38,0,0,1-14.009,5.007h0Z" transform="translate(-152.127 -38.295)" fill="#91b3fa"/>
          <path id="Trazado_119440" data-name="Trazado 119440" d="M223.942,42.447l-.814-8.187L211.9,45.5A17.4,17.4,0,0,0,206.9,59.509h0Z" transform="translate(-151.424 -34.26)" fill="#91b3fa"/>
        </g>
      </g>
      <g id="Grupo_58625" data-name="Grupo 58625" transform="translate(26.987 10.66)">
        <g id="Grupo_58620" data-name="Grupo 58620" transform="translate(0 5.375)">
          <g id="Grupo_58617" data-name="Grupo 58617" opacity="0.3">
            <path id="Trazado_119441" data-name="Trazado 119441" d="M56.187,26.651a.588.588,0,0,1-.829,0,17.51,17.51,0,0,0-1.416-1.282.6.6,0,0,1-.078-.822h0a.6.6,0,0,1,.829-.071c.51.432,1.006.885,1.473,1.353a.6.6,0,0,1,.042.786Zm-4.717-3.1c-.531-.34-1.084-.659-1.643-.949a.581.581,0,0,1-.262-.779.574.574,0,0,1,.786-.248c.588.3,1.169.637,1.735.992a.581.581,0,0,1,.177.807v.057a.6.6,0,0,1-.793.12ZM47,21.375c-.595-.205-1.2-.4-1.813-.552a.588.588,0,0,1-.425-.708.6.6,0,0,1,.708-.418c.644.17,1.282.361,1.912.581a.6.6,0,0,1,.354.751.652.652,0,0,1-.092.17A.581.581,0,0,1,47,21.375Zm-4.844-1.112c-.63-.071-1.268-.12-1.9-.135a.588.588,0,0,1-.567-.6.574.574,0,0,1,.6-.567,16.98,16.98,0,0,1,1.99.142.584.584,0,0,1-.127,1.162Zm-4.958,0c-.63.071-1.261.163-1.877.29A.588.588,0,0,1,35.1,19.4c.652-.127,1.31-.227,1.969-.3a.588.588,0,0,1,.135,1.169Zm-4.851,1.091a18.822,18.822,0,0,0-1.771.708.581.581,0,0,1-.772-.3.6.6,0,0,1,.3-.772,16.485,16.485,0,0,1,1.863-.708.581.581,0,0,1,.644.921.574.574,0,0,1-.276.142ZM17.39,37.154a.581.581,0,0,1-.418-.708c.163-.637.361-1.282.588-1.905a.581.581,0,0,1,.744-.361.6.6,0,0,1,.361.751c-.212.595-.4,1.2-.56,1.813a.588.588,0,0,1-.113.22A.574.574,0,0,1,17.39,37.154ZM27.844,23.485c-.531.333-1.055.708-1.558,1.069a.588.588,0,1,1-.708-.935c.531-.4,1.084-.779,1.65-1.126a.588.588,0,0,1,.765.864A.645.645,0,0,1,27.844,23.485Zm-8.733,8.86a.588.588,0,0,1-.248-.793c.3-.588.637-1.169,1-1.728a.574.574,0,0,1,.807-.177.581.581,0,0,1,.177.807c-.333.531-.659,1.084-.949,1.643a.3.3,0,0,1-.064.1A.574.574,0,0,1,19.111,32.345Zm4.851-5.772a19.018,19.018,0,0,0-1.289,1.416.588.588,0,0,1-.9-.751h0c.425-.5.885-1,1.353-1.466a.588.588,0,0,1,.871.779Z" transform="translate(-16.283 -18.959)" fill="#91b3fa"/>
            <path id="Trazado_119442" data-name="Trazado 119442" d="M17.043,49.322A.531.531,0,0,0,17.171,49a7.863,7.863,0,0,1,.092-.907.588.588,0,1,0-1.169-.135q-.05.475-.085.956a.581.581,0,0,0,1.034.411Z" transform="translate(-16.007 -27.267)" fill="#91b3fa"/>
          </g>
          <g id="Grupo_58618" data-name="Grupo 58618" transform="translate(5.13 23.457)" opacity="0.3">
            <path id="Trazado_119443" data-name="Trazado 119443" d="M24.907,73.3a.6.6,0,0,0,0-.765,8.483,8.483,0,0,1-.595-.708.588.588,0,0,0-.829-.085.595.595,0,0,0-.1.85c.205.248.418.489.63.708a.574.574,0,0,0,.822.042Z" transform="translate(-23.25 -57.779)" fill="#91b3fa"/>
            <path id="Trazado_119444" data-name="Trazado 119444" d="M60.03,69.285a.589.589,0,0,1-.878-.786c.411-.453.807-.942,1.19-1.416a.581.581,0,0,1,.822-.113.6.6,0,0,1,.113.822l-.5.637C60.533,68.7,60.278,69,60.03,69.285Zm2.2-3.966a.574.574,0,0,1-.22-.793c.3-.545.588-1.1.843-1.671a.588.588,0,0,1,1.062.489c-.269.595-.567,1.183-.885,1.756a.709.709,0,0,1-.057.078.588.588,0,0,1-.744.142Zm-4.483,6.19q-.758.637-1.551,1.211a.6.6,0,0,1-.793-.142.581.581,0,0,1,.142-.814,14.747,14.747,0,0,0,1.473-1.147.581.581,0,0,1,.829.814A.368.368,0,0,1,57.742,71.509Zm6.565-10.758a.581.581,0,0,1-.411-.708c.177-.595.326-1.2.453-1.813a.588.588,0,1,1,1.147.241c-.135.637-.3,1.282-.482,1.905a.489.489,0,0,1-.106.2.574.574,0,0,1-.6.177ZM53.472,74.384c-.581.3-1.176.581-1.778.836a.588.588,0,1,1-.453-1.084c.567-.234,1.14-.5,1.686-.793a.6.6,0,0,1,.793.248.6.6,0,0,1-.064.645A.63.63,0,0,1,53.472,74.384Zm-4.8,1.87c-.63.17-1.275.312-1.912.425a.595.595,0,0,1-.708-.475.588.588,0,0,1,.475-.708c.609-.106,1.225-.241,1.827-.4a.581.581,0,0,1,.708.411.6.6,0,0,1-.113.524A.6.6,0,0,1,48.67,76.254Zm-5.085.786H41.616a.588.588,0,1,1,.05-1.176h1.87a.588.588,0,0,1,.609.559.567.567,0,0,1-.135.4A.574.574,0,0,1,43.585,77.04Zm-5.142-.354c-.644-.113-1.289-.262-1.919-.432a.581.581,0,0,1-.411-.708.6.6,0,0,1,.708-.418c.6.163,1.211.3,1.82.411a.588.588,0,0,1,.475.708.708.708,0,0,1-.12.269.581.581,0,0,1-.552.163Zm-4.958-1.473c-.6-.255-1.2-.538-1.778-.843a.588.588,0,1,1,.545-1.034c.552.29,1.119.56,1.686.8a.581.581,0,0,1,.333.779.475.475,0,0,1-.085.142.581.581,0,0,1-.68.149ZM29,72.7c-.4-.283-.779-.581-1.154-.878l-.4-.333a.581.581,0,0,1-.071-.822A.588.588,0,0,1,28.2,70.6l.375.312c.354.29.708.567,1.1.836a.581.581,0,0,1,.135.814h0a.588.588,0,0,1-.793.135Z" transform="translate(-24.413 -53.725)" fill="#91b3fa"/>
            <path id="Trazado_119445" data-name="Trazado 119445" d="M81.3,53.957a.6.6,0,0,0,.127-.333,6.226,6.226,0,0,1,.05-.956.588.588,0,1,0-1.176,0,6.526,6.526,0,0,1-.042.914.581.581,0,0,0,.524.567A.588.588,0,0,0,81.3,53.957Z" transform="translate(-39.883 -52.08)" fill="#91b3fa"/>
          </g>
          <g id="Grupo_58619" data-name="Grupo 58619" transform="translate(5.612 5.69)">
            <path id="Trazado_119446" data-name="Trazado 119446" d="M58.273,39.038a.269.269,0,0,0-.227-.22L54.738,38.4a14.5,14.5,0,0,0-2.649-3.888l.822-3.23a.283.283,0,0,0-.113-.3l-3.322-2.167a.276.276,0,0,0-.319,0L46.5,30.865a14.519,14.519,0,0,0-4.618-.871l-1.707-2.868a.283.283,0,0,0-.29-.127l-3.917.814a.276.276,0,0,0-.212.234l-.446,3.307A14.42,14.42,0,0,0,31.423,34l-3.194-.814a.269.269,0,0,0-.3.113l-2.2,3.343a.276.276,0,0,0,0,.319l2.04,2.635a14.49,14.49,0,0,0-.878,4.618l-2.833,1.707a.269.269,0,0,0-.127.29l.814,3.909a.262.262,0,0,0,.234.22l3.3.418a14.384,14.384,0,0,0,2.628,3.867l-.822,3.23a.276.276,0,0,0,.12.3l3.343,2.188a.269.269,0,0,0,.312,0l2.635-2.04a14.576,14.576,0,0,0,4.625.878l1.7,2.833a.283.283,0,0,0,.29.127l3.917-.814a.269.269,0,0,0,.212-.234l.425-3.307a14.42,14.42,0,0,0,3.888-2.642l3.23.814a.262.262,0,0,0,.29-.113l2.188-3.3a.276.276,0,0,0,0-.319l-2.04-2.635a14.3,14.3,0,0,0,.878-4.618l2.833-1.707a.269.269,0,0,0,.127-.29Z" transform="translate(-23.931 -26.993)" fill="#febc7c"/>
            <path id="Trazado_119447" data-name="Trazado 119447" d="M49.828,53.137a3.994,3.994,0,1,1,.4-.425A3.782,3.782,0,0,1,49.828,53.137Zm-5.793-3.081a3.074,3.074,0,1,0,.992-2.125,3.407,3.407,0,0,0-.312.333A3.038,3.038,0,0,0,44.034,50.056Z" transform="translate(-29.538 -32.593)" fill="#fd8f25"/>
            <path id="Trazado_119448" data-name="Trazado 119448" d="M52.316,54.085c.212-.262.411-.538.6-.822h0l.17-.276a9.4,9.4,0,0,0,.708-1.416h0v-.057l.042-.106a.227.227,0,0,0-.071-.269.135.135,0,0,0-.064,0,.227.227,0,0,0-.3.135A9.42,9.42,0,0,1,39.5,55.743a7.982,7.982,0,0,1-.786-.574A9.412,9.412,0,0,1,49.815,39.977c.262.177.524.361.772.567a9.363,9.363,0,0,1,2.535,3.194.191.191,0,0,0,.064.085.245.245,0,0,0,.354-.312,9.8,9.8,0,0,0-3.47-3.952A9.915,9.915,0,0,0,38.413,55.509a9.7,9.7,0,0,0,.822.595,9.873,9.873,0,0,0,13.081-2.018Z" transform="translate(-27.167 -30.242)" fill="#fd8f25"/>
          </g>
        </g>
        <g id="Grupo_58624" data-name="Grupo 58624" transform="translate(37.955)">
          <g id="Grupo_58621" data-name="Grupo 58621" opacity="0.3">
            <path id="Trazado_119449" data-name="Trazado 119449" d="M106.617,21.015a.354.354,0,0,0,0-.432c-.17-.255-.354-.5-.545-.751a.363.363,0,1,0-.574.446c.184.234.361.475.524.708a.361.361,0,0,0,.5.092.368.368,0,0,0,.092-.064Z" transform="translate(-80.05 -13.798)" fill="#91b3fa"/>
            <path id="Trazado_119450" data-name="Trazado 119450" d="M94.359,16.476a.368.368,0,0,1-.517,0,9.633,9.633,0,0,0-1.126-1.013l-.255-.2a.361.361,0,0,1-.057-.51.375.375,0,0,1,.5-.064l.262.212a15.249,15.249,0,0,1,1.183,1.062.361.361,0,0,1,0,.482Zm-3.414-2.245a13.138,13.138,0,0,0-1.629-.843.363.363,0,1,1,.29-.666,17,17,0,0,1,1.714.885.361.361,0,0,1,.12.5v.042a.368.368,0,0,1-.5.085Zm-3.357-1.48a13.9,13.9,0,0,0-1.785-.418.361.361,0,0,1-.3-.418.368.368,0,0,1,.418-.3,15.673,15.673,0,0,1,1.877.439.361.361,0,0,1,.241.453.4.4,0,0,1-.064.12.368.368,0,0,1-.39.12Zm-3.612-.609a14.533,14.533,0,0,0-1.841,0,.368.368,0,0,1-.39-.333.361.361,0,0,1,.333-.39A15.9,15.9,0,0,1,84,11.384a.361.361,0,0,1,.347.375.354.354,0,0,1-.078.212A.361.361,0,0,1,83.976,12.142Zm-3.654.29a15.312,15.312,0,0,0-1.778.482.354.354,0,0,1-.453-.227.361.361,0,0,1,.227-.46,14.93,14.93,0,0,1,1.856-.5.361.361,0,0,1,.425.283.34.34,0,0,1-.071.3A.333.333,0,0,1,80.322,12.432Zm-3.477,1.176a14.674,14.674,0,0,0-1.6.892.361.361,0,1,1-.39-.609,14.923,14.923,0,0,1,1.679-.935.354.354,0,0,1,.482.163.368.368,0,0,1-.042.39.609.609,0,0,1-.127.1Zm-3.081,1.983a14.909,14.909,0,0,0-1.331,1.261.361.361,0,0,1-.51,0,.368.368,0,0,1,0-.517,15.5,15.5,0,0,1,1.416-1.324.361.361,0,0,1,.51.05.375.375,0,0,1,0,.46.326.326,0,0,1-.085.071Zm-3.98,4.37a.361.361,0,0,1-.142-.489,14,14,0,0,1,.892-1.416l.142-.212a.361.361,0,0,1,.51-.078.354.354,0,0,1,.078.5l-.142.2a15.892,15.892,0,0,0-.843,1.353.248.248,0,0,0,0,.057A.368.368,0,0,1,69.783,19.961Z" transform="translate(-69.598 -11.37)" fill="#91b3fa"/>
          </g>
          <g id="Grupo_58622" data-name="Grupo 58622" transform="translate(10.085 15.73)" opacity="0.3">
            <path id="Trazado_119451" data-name="Trazado 119451" d="M99.47,44.658a14.945,14.945,0,0,1-1.3,1.416.354.354,0,0,1-.51,0,.368.368,0,0,1,0-.51,14.5,14.5,0,0,0,1.254-1.339.361.361,0,0,1,.51-.05.375.375,0,0,1,.05.51Zm.623-1.416a.368.368,0,0,1-.106-.5,16.329,16.329,0,0,0,.892-1.572.354.354,0,0,1,.482-.163.368.368,0,0,1,.17.482,16.453,16.453,0,0,1-.935,1.65h0A.368.368,0,0,1,100.093,43.242ZM96.7,47.251a15.234,15.234,0,0,1-1.594,1.027.368.368,0,0,1-.5-.135.361.361,0,0,1,.142-.5,14.916,14.916,0,0,0,1.516-.977.361.361,0,0,1,.5.517Zm5.092-7.274a.361.361,0,0,1-.227-.46,14.671,14.671,0,0,0,.489-1.735.362.362,0,0,1,.708.149,14.874,14.874,0,0,1-.5,1.827.269.269,0,0,1-.064.106A.347.347,0,0,1,101.793,39.977Zm-8.371,9.129a17.2,17.2,0,0,1-1.792.609.363.363,0,0,1-.191-.7,14.235,14.235,0,0,0,1.721-.581.368.368,0,0,1,.475.2.347.347,0,0,1-.057.361.375.375,0,0,1-.156.113Zm-3.647,1a16.919,16.919,0,0,1-1.884.17.368.368,0,0,1-.4-.382.361.361,0,0,1,.354-.368,15.291,15.291,0,0,0,1.8-.163.361.361,0,0,1,.333.588A.333.333,0,0,1,89.774,50.1Zm-3.782.106a16.808,16.808,0,0,1-1.87-.319.363.363,0,0,1,.156-.708,14.873,14.873,0,0,0,1.785.276.361.361,0,0,1,.326.4.354.354,0,0,1-.078.191A.382.382,0,0,1,85.992,50.211Z" transform="translate(-83.838 -34.722)" fill="#91b3fa"/>
            <path id="Trazado_119452" data-name="Trazado 119452" d="M110.574,35.067a.354.354,0,0,0,.078-.191c0-.312.05-.623.057-.928a.368.368,0,0,0-.354-.368.354.354,0,0,0-.368.354,4.65,4.65,0,0,1-.057.878.361.361,0,0,0,.333.39A.347.347,0,0,0,110.574,35.067Z" transform="translate(-91.45 -33.58)" fill="#91b3fa"/>
          </g>
          <g id="Grupo_58623" data-name="Grupo 58623" transform="translate(1.819 3.815)">
            <path id="Trazado_119453" data-name="Trazado 119453" d="M95.194,24.833a.17.17,0,0,0-.156-.142l-2.21-.283a9.717,9.717,0,0,0-1.771-2.6l.545-2.16a.184.184,0,0,0-.078-.2l-2.238-1.466a.17.17,0,0,0-.212,0l-1.764,1.36a9.731,9.731,0,0,0-3.088-.588l-1.14-1.912a.2.2,0,0,0-.2-.085l-2.613.545a.191.191,0,0,0-.149.156l-.283,2.217a9.83,9.83,0,0,0-2.6,1.771L75.115,20.9a.17.17,0,0,0-.2.078l-1.466,2.231a.177.177,0,0,0,0,.212l1.367,1.763a9.774,9.774,0,0,0-.644,3.074L72.254,29.4a.191.191,0,0,0-.085.191l.545,2.62a.17.17,0,0,0,.156.142l2.217.283a9.724,9.724,0,0,0,1.764,2.606l-.545,2.125a.184.184,0,0,0,.078.2l2.238,1.466a.191.191,0,0,0,.212,0L80.6,37.666a9.731,9.731,0,0,0,3.088.588l1.14,1.912a.177.177,0,0,0,.2.085l2.62-.545a.184.184,0,0,0,.142-.156l.283-2.21a9.83,9.83,0,0,0,2.6-1.771l2.125.545a.177.177,0,0,0,.2-.071l1.466-2.238a.184.184,0,0,0,0-.212L93.09,31.83a9.774,9.774,0,0,0,.588-3.095l1.919-1.14a.184.184,0,0,0,.085-.191Z" transform="translate(-72.167 -16.756)" fill="#febc7c"/>
            <path id="Trazado_119454" data-name="Trazado 119454" d="M89.556,34.275a2.724,2.724,0,1,1,.892-1.9,2.67,2.67,0,0,1-.6,1.6A2.239,2.239,0,0,1,89.556,34.275Zm-3.329-.652a2,2,0,0,0,2.833.12h0a2.013,2.013,0,1,0-2.72-2.967,1.99,1.99,0,0,0-.205.22,2.011,2.011,0,0,0,.092,2.628Z" transform="translate(-75.906 -20.483)" fill="#fd8f25"/>
            <path id="Trazado_119455" data-name="Trazado 119455" d="M91.25,34.9A6.682,6.682,0,0,0,92.3,33.1v-.057a.347.347,0,0,0-.106-.411l-.1-.057a.361.361,0,0,0-.467.205,5.935,5.935,0,0,1-.595,1.154h0a.29.29,0,0,1,0,.064,6.062,6.062,0,0,1-3.761,2.55h-.042A6.084,6.084,0,0,1,82.6,35.7c-.17-.113-.34-.241-.5-.368A6.1,6.1,0,0,1,89.3,25.5c.17.113.34.241.5.368a6.062,6.062,0,0,1,1.643,2.068.439.439,0,0,0,.1.127.361.361,0,0,0,.552-.439,6.728,6.728,0,0,0-1.834-2.316c-.184-.149-.368-.283-.56-.411a6.82,6.82,0,0,0-8.046,10.985c.184.149.375.283.567.411a6.82,6.82,0,0,0,9.03-1.4Z" transform="translate(-74.215 -18.816)" fill="#fd8f25"/>
          </g>
        </g>
      </g>
      <g id="Grupo_58631" data-name="Grupo 58631" transform="translate(24.275 96.901)">
        <path id="Trazado_119456" data-name="Trazado 119456" d="M44.531,280.75s-.411,2.181-.623,4.349a1.494,1.494,0,0,0,1.416,1.629c2.883.149,9.051.439,11.261.361a.482.482,0,0,0,.439-.659,1.069,1.069,0,0,0-.552-.588l-10.149-4.788Z" transform="translate(-21.433 -176.208)" fill="url(#linear-gradient-4)"/>
        <path id="Trazado_119457" data-name="Trazado 119457" d="M44.36,278.772l.283,2.62s1.778.85,3-.078l-.708-2.925Z" transform="translate(-21.567 -175.519)" fill="url(#linear-gradient-5)"/>
        <path id="Trazado_119458" data-name="Trazado 119458" d="M42,209.431c-.142.708-1.048,34.1,2.38,49.109a.51.51,0,0,1-.3.588,8.776,8.776,0,0,1-2.918.567.885.885,0,0,1-.864-.637c-.984-3.485-5.715-20.942-6.2-37.579-.531-18.6,0-.637,0-.637l.567-11.48Z" transform="translate(-18.506 -155.378)" fill="url(#linear-gradient-6)"/>
        <path id="Trazado_119459" data-name="Trazado 119459" d="M27.695,282.2a15.581,15.581,0,0,0-1.254,4.03.907.907,0,0,0,.793,1.1,35.585,35.585,0,0,0,3.591.241.907.907,0,0,0,.907-1.006,7.663,7.663,0,0,0-1.749-4.214Z" transform="translate(-16.333 -176.631)" fill="url(#linear-gradient-7)"/>
        <path id="Trazado_119460" data-name="Trazado 119460" d="M27.5,277.393l.708,3.966a2.571,2.571,0,0,0,2.125.17l-.3-4.249Z" transform="translate(-16.648 -175.195)" fill="url(#linear-gradient-8)"/>
        <path id="Trazado_119461" data-name="Trazado 119461" d="M24.84,210.014c-3.095,17.607.22,43.585,1.367,48.677a.793.793,0,0,0,.637.609,5.263,5.263,0,0,0,2.281-.071.708.708,0,0,0,.531-.659c.2-4.108.149-29.321,2.968-39.257a2.238,2.238,0,0,1,.885-1.239l5.319-3.7.467-6.07Z" transform="translate(-15.497 -155.069)" fill="url(#linear-gradient-9)"/>
        <g id="Grupo_58626" data-name="Grupo 58626" transform="translate(8.405 8.381)">
          <path id="Trazado_119462" data-name="Trazado 119462" d="M43.922,163.239a81.976,81.976,0,0,0-18.414,2.125c-2.755,15.206-.772,32.791-.772,32.791,6.764,1.841,14.441-.949,14.441-.949,1.183-6.374,6.615-24.222,6.615-24.222a28.874,28.874,0,0,0,10.737-3.293,18.889,18.889,0,0,1-3.64-7.791,29.478,29.478,0,0,1-8.966,1.339Z" transform="translate(-24.045 -149.912)" fill="url(#linear-gradient-10)"/>
          <path id="Trazado_119463" data-name="Trazado 119463" d="M81.777,145.651a1.671,1.671,0,0,0-1.941-.567c-1.346,5.425-8.145,9.774-15.107,11.87a18.889,18.889,0,0,0,3.64,7.791C79.95,158.385,81.777,145.651,81.777,145.651Z" transform="translate(-35.916 -144.974)" fill="url(#linear-gradient-11)"/>
        </g>
        <g id="Grupo_58627" data-name="Grupo 58627" transform="translate(52.348)">
          <path id="Trazado_119464" data-name="Trazado 119464" d="M87.8,142.46c.092.283-.956.708-1.558-.467,0-.559-.333-2.967,0-3.421a44.62,44.62,0,0,1,5.3-5.432.822.822,0,0,1,.092,1.14l-1.7,1.735A7.933,7.933,0,0,1,90.9,138a2.344,2.344,0,0,1-.248,1.728,19.764,19.764,0,0,1-1.084,1.714,2.33,2.33,0,0,1-1.771,1.02Z" transform="translate(-86.091 -133.14)" fill="url(#linear-gradient-12)"/>
          <path id="Trazado_119465" data-name="Trazado 119465" d="M89.633,138.79l-1.544,1.282-.489,1.289,1.346,1.53a17.379,17.379,0,0,1,.829-3.109C90.121,139.229,89.951,138.939,89.633,138.79Z" transform="translate(-86.531 -134.788)" fill="url(#linear-gradient-13)"/>
        </g>
        <path id="Trazado_119466" data-name="Trazado 119466" d="M25.375,175.3,22.1,166.8s-8.23,5.475-9.646,12.507a19.512,19.512,0,0,1,7.082,1.976C20.177,177.955,25.375,175.3,25.375,175.3Z" transform="translate(-12.257 -142.961)" fill="url(#linear-gradient-14)"/>
        <path id="Trazado_119467" data-name="Trazado 119467" d="M32.364,188.5s-9.207,5.1-12.288.637a3.484,3.484,0,0,1-.609-2.713,19.512,19.512,0,0,0-7.082-1.976,9.738,9.738,0,0,0,.992,6.679c5.333,9.979,20.2-.354,20.2-.354Z" transform="translate(-12.177 -148.111)" fill="url(#linear-gradient-15)"/>
        <path id="Trazado_119468" data-name="Trazado 119468" d="M38.5,153.63l-2.833,8.031a.283.283,0,0,0,.127.354,6.558,6.558,0,0,0,6.8-.4,1.416,1.416,0,0,0,.637-.97l.97-6.962Z" transform="translate(-19.026 -139.118)" fill="url(#linear-gradient-16)"/>
        <g id="Grupo_58628" data-name="Grupo 58628" transform="translate(14.201 2.912)">
          <path id="Trazado_119469" data-name="Trazado 119469" d="M45.39,143.18s3,5.786,2.592,8.109-4.207,2.125-7.5.2l-2.252-6.24Z" transform="translate(-33.98 -138.981)" fill="url(#linear-gradient-17)"/>
          <path id="Trazado_119470" data-name="Trazado 119470" d="M38.908,146.705a.241.241,0,0,0,.106-.347,6.275,6.275,0,0,1-.836-1.813s-.545-.361,1.416-.807,4.866-1.147,5.5-2.8-.914-5.7-3.442-2.479a.248.248,0,0,1-.382,0,2.436,2.436,0,0,0-2.967-1,2.252,2.252,0,0,0-1.558,2.125.234.234,0,0,1-.283.241,2.734,2.734,0,0,0-3.215,1.494c-.666,1.416-.248,2.245.135,2.642a.241.241,0,0,1-.106.4,1.416,1.416,0,0,0-1.02,1.615c.064,1.509,1.749,1.416,2.231,1.324a.248.248,0,0,1,.212.078c.4.46,2.238,2.408,4.249,2.656a.241.241,0,0,0,.255-.312l-.843-2.528a.248.248,0,0,1,.135-.3Z" transform="translate(-32.229 -137.252)" fill="url(#linear-gradient-18)"/>
          <path id="Trazado_119471" data-name="Trazado 119471" d="M41.183,150.8s-2.167-1.516-2.337-.255,1.941,1.841,3,1.381Z" transform="translate(-34.157 -140.984)" fill="url(#linear-gradient-19)"/>
        </g>
        <g id="Grupo_58630" data-name="Grupo 58630" transform="translate(18.277 29.456)">
          <g id="Grupo_58629" data-name="Grupo 58629">
            <path id="Trazado_119472" data-name="Trazado 119472" d="M38,193.725l5.028-17.564a.51.51,0,0,1,.432-.368c.914-.106,3.541-.4,6.6-.666a76.148,76.148,0,0,1,10.489-.347.517.517,0,0,1,.418.708c-1.416,2.932-7.408,14.873-10.4,18.761a.517.517,0,0,1-.411.205l-11.672-.106a.517.517,0,0,1-.489-.623Z" transform="translate(-37.984 -174.731)" fill="url(#linear-gradient-20)"/>
            <path id="Trazado_119473" data-name="Trazado 119473" d="M39.529,193.092s-.708-2.883-.418-3.9.836-2.337,2.656-2.047a26.39,26.39,0,0,1,3.98,1.062,1.041,1.041,0,0,1-1.494.9l.857.666s-.12,1.069-1.3.5l.8.885a.921.921,0,0,1-1.36.312C42.39,190.9,41.98,193.439,39.529,193.092Z" transform="translate(-38.293 -178.34)" fill="url(#linear-gradient-21)"/>
          </g>
          <path id="Trazado_119474" data-name="Trazado 119474" d="M54.58,182.09a1.473,1.473,0,1,0,.429-1.046,1.48,1.48,0,0,0-.429,1.046Z" transform="translate(-42.826 -176.446)" fill="#91b3fa"/>
          <path id="Trazado_119475" data-name="Trazado 119475" d="M45.765,181.8l1.027-3.47a1.19,1.19,0,0,1,.892-.829c3.208-.708,12-.814,12.082-.814v-.39c-.361,0-8.91.142-12.153.814a1.579,1.579,0,0,0-1.2,1.1L45.39,181.69Z" transform="translate(-40.145 -175.189)" fill="#bdd0fb"/>
        </g>
      </g>
      <g id="Grupo_58640" data-name="Grupo 58640" transform="translate(110.236 96.264)">
        <g id="Grupo_58632" data-name="Grupo 58632" transform="translate(68.131)">
          <path id="Trazado_119476" data-name="Trazado 119476" d="M230.274,147.115a.326.326,0,0,1,.609.064c.3,1.077,1.02,2.946,2.535,3.612l.22.106a.779.779,0,0,0-.092-.708c-.475-.708.375-1.7.375-1.7a2.188,2.188,0,0,0,.708,1.416,2.125,2.125,0,0,1,.453,2.373c-.822,3.187-2.047,7.394,2.734,10.475s11.516-5.808,11.516-5.808l-3.343,10.623s-5.156,3.8-11.162-1.544-2.018-13.145-2.018-13.145S228.234,151,230.274,147.115Z" transform="translate(-229.75 -136.526)" fill="url(#linear-gradient-22)"/>
          <path id="Trazado_119477" data-name="Trazado 119477" d="M257.656,137.091s-1.381-6.218,5.737-4.575c0,0,3.456-.56,3.633,2.7,0,0,2.224,1.466.595,4.292,0,0,6.615-2.557,9.5,3.244s.234,8.995-2.55,9.83a2.769,2.769,0,0,1,1.19,3.683c-1.069,2.55-6.466,4.349-9.653,1.246,0,0-9.072,1.2-8.9-5.213,0,0-4.249-2.727.212-8.017S257.656,137.091,257.656,137.091Z" transform="translate(-237.231 -132.24)" fill="url(#linear-gradient-23)"/>
          <path id="Trazado_119478" data-name="Trazado 119478" d="M255.711,159.264a9.788,9.788,0,0,1,9.561,2.436,2.465,2.465,0,0,1,.708,2.443c-1.062,3.924-3.867,15.5-1.416,20.5,0,0-4.334,4.781-9.065.928,0,0-2.125-9.257-4.908-13.322-1.919-2.833,3.06-10.531,4.32-12.394A1.494,1.494,0,0,1,255.711,159.264Z" transform="translate(-235.704 -140.014)" fill="url(#linear-gradient-24)"/>
          <path id="Trazado_119479" data-name="Trazado 119479" d="M262.453,148.44s2.125,5.977,2.273,8.619a4.526,4.526,0,0,1-4.54-.708,68.11,68.11,0,0,0-.567-7.082Z" transform="translate(-238.465 -136.966)" fill="url(#linear-gradient-25)"/>
          <path id="Trazado_119480" data-name="Trazado 119480" d="M258.12,136.9s-5.531,7.748-2.224,9.993,7.245-3.251,7.245-3.251,1.282-4.249-.057-5.666S258.12,136.9,258.12,136.9Z" transform="translate(-237.071 -133.588)" fill="url(#linear-gradient-26)"/>
          <path id="Trazado_119481" data-name="Trazado 119481" d="M261.884,134.258s-2.543.6-2.9,1.756,3.6,2.217,4.717,2.266l.892,4.639s2.649-4.363,1.6-6.884S261.884,134.258,261.884,134.258Z" transform="translate(-238.272 -132.799)" fill="url(#linear-gradient-27)"/>
          <path id="Trazado_119482" data-name="Trazado 119482" d="M265,145.044s2.125-2.5,3.01-.871-1.934,2.833-2.9,2.047Z" transform="translate(-240.035 -135.561)" fill="url(#linear-gradient-28)"/>
          <path id="Trazado_119483" data-name="Trazado 119483" d="M249.438,224c0,.425-.708,3.754-1.119,5.531a2.946,2.946,0,0,0,.312,2.125l13.9,23.372a2.982,2.982,0,0,1,.368.907,20.052,20.052,0,0,1,.51,6.24l-.708,1.494,3.109-.708.708-8.35-.885-.538a4.186,4.186,0,0,1-1.686-1.983c-1.261-3.052-4.384-10.829-5.184-14.618-.956-4.264-5.737-7.8-5.737-7.8l.843-1.99Z" transform="translate(-235.146 -159.012)" fill="url(#linear-gradient-29)"/>
          <path id="Trazado_119484" data-name="Trazado 119484" d="M274.822,272.481a19.074,19.074,0,0,1-1.877-3.7c-.2-1.034-.744-2.868-1.785-2.316a62.18,62.18,0,0,0-.319,7c.17,1.962-2.224,1.9-2.224,1.9a2.2,2.2,0,0,0-1.14.581.559.559,0,0,0,.375.942,13.455,13.455,0,0,0,3.336-.191,1.02,1.02,0,0,0,.822-.942l.34-5.793,2.125,2.677Z" transform="translate(-240.714 -171.373)" fill="url(#linear-gradient-30)"/>
          <path id="Trazado_119485" data-name="Trazado 119485" d="M260.47,229.032s.489,20.928.56,23.9-.467,9.554-3.449,11.53l1.3.956a17.141,17.141,0,0,0,3.2-4.03,24.551,24.551,0,0,1,2.316-3.541l-.588-1.211a2.607,2.607,0,0,1-.212-1.7c.637-3.116,2.79-13.456,3.371-15.716a10,10,0,0,0-1.664-9.1C262.892,227.177,260.47,229.032,260.47,229.032Z" transform="translate(-237.87 -160.312)" fill="url(#linear-gradient-31)"/>
          <path id="Trazado_119486" data-name="Trazado 119486" d="M262.623,278.283a.184.184,0,0,0,.184-.156,27.014,27.014,0,0,1,.85-4.249c.382-.829,1.65-4.32,0-4.618,0,0-4.108,6-4.894,6.813a1.551,1.551,0,0,1-1.785.283,2.946,2.946,0,0,0-1.346.963.538.538,0,0,0,.425.871h2.769a1.948,1.948,0,0,0,1.82-1.225,10.322,10.322,0,0,1,2.3-3.789l-.51,4.851a.177.177,0,0,0,.184.2Z" transform="translate(-237.268 -172.218)" fill="url(#linear-gradient-32)"/>
          <path id="Trazado_119487" data-name="Trazado 119487" d="M254.23,192.817a9.84,9.84,0,0,1-.333,5.262l-5.907,20.737a.652.652,0,0,0,.4.786,39.718,39.718,0,0,0,15.581,1.891.914.914,0,0,0,.829-.708l2.684-12.09c1.416-6.317,2.975-13.131-3.931-17.245C260.349,192.81,257.374,193.617,254.23,192.817Z" transform="translate(-235.065 -149.515)" fill="url(#linear-gradient-33)"/>
          <path id="Trazado_119488" data-name="Trazado 119488" d="M270.006,163.8s6.757,5.616,8.435,13.286-9.88,8.5-9.88,8.5-1.565-1.749-3.428-1.126-.142-3.06,2.033-3.045,1.169,1.728,4.249.333,4.858-5.567-2.8-11.941a3.414,3.414,0,0,1-.977-1.4C266.118,164.652,267.293,162.195,270.006,163.8Z" transform="translate(-239.842 -141.301)" fill="url(#linear-gradient-34)"/>
        </g>
        <g id="Grupo_58639" data-name="Grupo 58639" transform="translate(0 19.038)">
          <g id="Grupo_58633" data-name="Grupo 58633" transform="translate(41.133 54.569)">
            <rect id="Rectángulo_6756" data-name="Rectángulo 6756" width="2.408" height="26.07" transform="translate(12.458 6.204)" fill="#7d97f4"/>
            <path id="Trazado_119489" data-name="Trazado 119489" d="M217.127,281.794H196v-1.416a.177.177,0,0,1,.17-.177h20.765a.177.177,0,0,1,.177.177Z" transform="translate(-192.905 -249.016)" fill="#7d97f4"/>
            <rect id="Rectángulo_6757" data-name="Rectángulo 6757" width="28.216" height="8.003" rx="3.89" fill="#7d97f4"/>
          </g>
          <g id="Grupo_58635" data-name="Grupo 58635" transform="translate(19.093)">
            <path id="Trazado_119490" data-name="Trazado 119490" d="M177.717,270.306s-7.791,3.357-7.344,6.87c0,0,8.053-1.544,9.5-3.846s.644-3.64.644-3.64Z" transform="translate(-163.382 -191.381)" fill="url(#linear-gradient-35)"/>
            <path id="Trazado_119491" data-name="Trazado 119491" d="M182.063,265.15l.4,3.435a1.126,1.126,0,0,1-.708,1.2,2.791,2.791,0,0,1-.984.149,1.31,1.31,0,0,1-1.282-.956l-.765-2.769Z" transform="translate(-165.823 -190.056)" fill="url(#linear-gradient-36)"/>
            <path id="Trazado_119492" data-name="Trazado 119492" d="M197.368,228.094s-14.335-.666-21.467,3.5.361,24.122.361,24.122a7.277,7.277,0,0,0,4.547-1.034s-3.824-14.618,2.833-17.16a38.316,38.316,0,0,1,15.206-2.125l-1.416-6.813Z" transform="translate(-164.102 -179.233)" fill="url(#linear-gradient-37)"/>
            <path id="Trazado_119493" data-name="Trazado 119493" d="M171.385,277.127c1.629-.361,6.459-2.366,7.2-2.337s1.771,1.126,1.771,1.126a1.941,1.941,0,0,1-.34,1.466,13.525,13.525,0,0,1-7.082,2.946,5.234,5.234,0,0,1-4.469-1.65A6.374,6.374,0,0,1,171.385,277.127Z" transform="translate(-162.83 -192.869)" fill="url(#linear-gradient-38)"/>
            <path id="Trazado_119494" data-name="Trazado 119494" d="M172.706,281.4a13.8,13.8,0,0,0,7.082-2.946,6.162,6.162,0,0,1-2.3,2c-3.152,1.778-8.364,1.523-9.4,1.119-.829-.319-.574-1.091.184-1.827A5.234,5.234,0,0,0,172.706,281.4Z" transform="translate(-162.571 -193.937)" fill="#9182ca"/>
            <path id="Trazado_119495" data-name="Trazado 119495" d="M185.852,273.1a11.532,11.532,0,0,1-1.905,2.295,1.3,1.3,0,0,1-1.211.361,3.376,3.376,0,0,1-.864-.3.843.843,0,0,1-.326-1.147l1.671-3.038Z" transform="translate(-166.616 -191.842)" fill="url(#linear-gradient-39)"/>
            <path id="Trazado_119496" data-name="Trazado 119496" d="M214.335,226.41s1.254,8.881-2.365,10.694-11.551,3-14.285,7.606-7.642,13.641-12.111,16.233c0,0-2.55-.829-3.293-2.082,0,0,5.3-13.938,7.514-17.323,1.912-2.939,4.717-7.167,8.69-8.995,1.14-.524,1.232-1.728,1.034-2.967l-.368-2.252Z" transform="translate(-166.862 -178.753)" fill="url(#linear-gradient-40)"/>
            <path id="Trazado_119497" data-name="Trazado 119497" d="M179.759,206.783c5.071,1.416,7.337-12.826,7.323-13.173l7.791,9.087s-4.632,8.187-11.65,9.023a8.209,8.209,0,0,1-4.533-.666A7.3,7.3,0,0,0,179.759,206.783Z" transform="translate(-165.814 -169.183)" fill="url(#linear-gradient-41)"/>
            <path id="Trazado_119498" data-name="Trazado 119498" d="M165.064,205.505a4.061,4.061,0,0,1,4.079.907c2.2,2.238,3.931,3.371,5.312,3.768a7.3,7.3,0,0,1-1.069,4.249,11.332,11.332,0,0,1-4.958-5.043.942.942,0,0,0-1.254-.425c-.467.227-.949.574-.977,1.041-.064.928-1.161.977-1.169.637a13.706,13.706,0,0,1,.85-2.167s-2.535,1.629-3.541,2.252a1.44,1.44,0,0,1-1.827-.411S162.847,206.412,165.064,205.505Z" transform="translate(-160.51 -172.58)" fill="url(#linear-gradient-42)"/>
            <path id="Trazado_119499" data-name="Trazado 119499" d="M214.732,184.782s-6.813-4.646-23.273,3.761a5.327,5.327,0,0,0-.907,4.575c.793,2.451,10.567,15.524,10.949,21.686,0,0,6.679,3.931,15.355.035C216.857,214.84,219.768,198.586,214.732,184.782Z" transform="translate(-169.214 -166.234)" fill="url(#linear-gradient-43)"/>
            <path id="Trazado_119500" data-name="Trazado 119500" d="M202.511,176.92,205.2,182.2a1.516,1.516,0,0,1-.149,1.622,4.292,4.292,0,0,1-4.958,1.367,2.309,2.309,0,0,1-1.579-1.678l-1.416-5.885Z" transform="translate(-171.186 -164.314)" fill="url(#linear-gradient-44)"/>
            <path id="Trazado_119501" data-name="Trazado 119501" d="M228.607,203.738c.46-3.208-8.017-9.427-8.017-9.427l2.967-9s16.176,11.544,12.748,20.978a6.65,6.65,0,0,1-2.125,3.031A10.372,10.372,0,0,0,228.607,203.738Z" transform="translate(-178.039 -166.762)" fill="url(#linear-gradient-45)"/>
            <path id="Trazado_119502" data-name="Trazado 119502" d="M212.249,212.222s9.589,2.677,11.58-.241a1.558,1.558,0,0,0,.248-.652,10.58,10.58,0,0,1,5.623,5.581c-4.554,3.584-13.329-.432-15.716-1.636a1.678,1.678,0,0,0-1.268-.106,11.643,11.643,0,0,1-3.137.63c-1.2-.064-2.479,4.249-4.519,3.166C205.06,218.965,205.981,211.571,212.249,212.222Z" transform="translate(-173.508 -174.353)" fill="url(#linear-gradient-46)"/>
            <g id="Grupo_58634" data-name="Grupo 58634" transform="translate(22.184)">
              <path id="Trazado_119503" data-name="Trazado 119503" d="M197.525,164.648c-.085.071-3.64,6.282-5.446,9.441a1.863,1.863,0,0,0,.878,2.635l.786.333c1.069.46,3.371.843,4.249.113l5.715-6.027S199.444,162.983,197.525,164.648Z" transform="translate(-191.833 -160.668)" fill="url(#linear-gradient-47)"/>
              <path id="Trazado_119504" data-name="Trazado 119504" d="M206.931,167.952a1.841,1.841,0,0,0,.885-2.6,2.592,2.592,0,0,0-2.833-1.466.708.708,0,0,1-.751-.517.56.56,0,0,0-.5-.4.708.708,0,0,1-.552-.878,2.125,2.125,0,0,0-1.055-2.535c-2.174-1.317-4.207.595-4.773,2.259s1.87,2.953,3.428,3.215c1.183.2,1.764,1.565,1.969,2.21a.708.708,0,0,1-.078.6l-1.742,2.642a21.284,21.284,0,0,1,1.317,1.877,5.355,5.355,0,0,1,.4-.4c.751-.708,2.125-.34,2.649-.149a.708.708,0,0,0,.545,0,1.848,1.848,0,0,0,.822-2.833.708.708,0,0,1,.262-1.027Z" transform="translate(-193.42 -159.12)" fill="url(#linear-gradient-48)"/>
              <path id="Trazado_119505" data-name="Trazado 119505" d="M203.41,178.3s1.112-2.833,2.373-2.691,2.21,1.459.581,2.833C204.338,180.133,203.41,178.3,203.41,178.3Z" transform="translate(-195.211 -163.929)" fill="url(#linear-gradient-49)"/>
            </g>
          </g>
          <g id="Grupo_58636" data-name="Grupo 58636" transform="translate(1.496 23.633)">
            <path id="Trazado_119506" data-name="Trazado 119506" d="M188.219,220.383H165.761a1.006,1.006,0,1,1,0-2h22.409a1.006,1.006,0,0,1,1,1.006A.991.991,0,0,1,188.219,220.383Z" transform="translate(-144.128 -200.042)" fill="url(#linear-gradient-50)"/>
            <path id="Trazado_119507" data-name="Trazado 119507" d="M137.156,192.49h18.662a3.541,3.541,0,0,1,3.215,2.04l8.626,18.294H144.472a2.16,2.16,0,0,1-2.011-1.367l-6.693-16.927a1.494,1.494,0,0,1,1.388-2.04Z" transform="translate(-135.664 -192.49)" fill="url(#linear-gradient-51)"/>
            <path id="Trazado_119508" data-name="Trazado 119508" d="M155.108,204.962c.4,1.261.106,2.479-.666,2.727s-1.728-.567-2.125-1.827-.106-2.472.666-2.72S154.7,203.737,155.108,204.962Z" transform="translate(-140.471 -195.585)" fill="#91b3fa"/>
          </g>
          <g id="Grupo_58638" data-name="Grupo 58638" transform="translate(0 43.761)">
            <g id="Grupo_58637" data-name="Grupo 58637" transform="translate(5.044 2.006)">
              <path id="Trazado_119509" data-name="Trazado 119509" d="M141.613,270a.97.97,0,0,1-.368-.071.9.9,0,0,1-.5-1.2l19.746-44.442a.956.956,0,0,1,1.239-.475.9.9,0,0,1,.489,1.2l-19.746,44.442a.935.935,0,0,1-.864.545Z" transform="translate(-140.674 -223.742)" fill="#91b3fa"/>
              <path id="Trazado_119510" data-name="Trazado 119510" d="M164.928,270a.949.949,0,0,1-.864-.545l-19.746-44.442a.9.9,0,0,1,.489-1.2.956.956,0,0,1,1.239.475l19.746,44.442a.9.9,0,0,1-.475,1.225,1.006,1.006,0,0,1-.39.042Z" transform="translate(-141.715 -223.742)" fill="#91b3fa"/>
              <path id="Trazado_119511" data-name="Trazado 119511" d="M227.954,270a.97.97,0,0,1-.368-.071.907.907,0,0,1-.5-1.2l19.746-44.442a.956.956,0,0,1,1.239-.475.907.907,0,0,1,.5,1.2l-19.746,44.442A.956.956,0,0,1,227.954,270Z" transform="translate(-165.866 -223.742)" fill="#91b3fa"/>
              <path id="Trazado_119512" data-name="Trazado 119512" d="M251.229,270a.949.949,0,0,1-.864-.545l-19.746-44.442a.9.9,0,0,1,.5-1.2.949.949,0,0,1,1.232.475l19.767,44.442a.9.9,0,0,1-.489,1.2.984.984,0,0,1-.4.071Z" transform="translate(-166.895 -223.743)" fill="#91b3fa"/>
            </g>
            <path id="Trazado_119513" data-name="Trazado 119513" d="M225.231,222.093a1.084,1.084,0,0,0-.184-.822.857.857,0,0,0-.708-.361H134.577a.992.992,0,0,0-.864.531,1.246,1.246,0,0,0-.064,1.1l.97,2.358a1.367,1.367,0,0,0,1.239.885h87.9a1.069,1.069,0,0,0,1.013-.935Z" transform="translate(-133.552 -220.91)" fill="#91b3fa"/>
          </g>
        </g>
      </g>
    </g>
  </g>
</svg>
