<svg id="img4" xmlns="http://www.w3.org/2000/svg" xmlns:xlink="http://www.w3.org/1999/xlink" width="212.47" height="212.47" viewBox="0 0 212.47 212.47">
  <defs>
    <linearGradient id="linear-gradient" x1="-59.462" y1="141.096" x2="-58.338" y2="141.096" gradientUnits="objectBoundingBox">
      <stop offset="0" stop-color="#b37cff"/>
      <stop offset="1" stop-color="#f895e7"/>
    </linearGradient>
    <linearGradient id="linear-gradient-2" x1="-860.856" y1="2737.161" x2="-859.886" y2="2737.161" xlink:href="#linear-gradient"/>
    <linearGradient id="linear-gradient-3" x1="-1143.374" y1="2073.704" x2="-1142.475" y2="2073.704" xlink:href="#linear-gradient"/>
    <linearGradient id="linear-gradient-4" x1="-56.387" y1="151.81" x2="-55.271" y2="151.81" xlink:href="#linear-gradient"/>
    <linearGradient id="linear-gradient-5" x1="-881.031" y1="2704.444" x2="-880.073" y2="2704.444" xlink:href="#linear-gradient"/>
    <linearGradient id="linear-gradient-6" x1="0.562" y1="0.135" x2="0.351" y2="1.378" gradientUnits="objectBoundingBox">
      <stop offset="0" stop-color="#cb236d"/>
      <stop offset="1" stop-color="#4c246d"/>
    </linearGradient>
    <linearGradient id="linear-gradient-7" x1="-1660.777" y1="2764.909" x2="-1659.914" y2="2764.909" xlink:href="#linear-gradient"/>
    <linearGradient id="linear-gradient-8" x1="-113.294" y1="213.725" x2="-112.132" y2="213.725" xlink:href="#linear-gradient"/>
    <linearGradient id="linear-gradient-9" x1="-90.396" y1="373.935" x2="-89.324" y2="373.935" xlink:href="#linear-gradient"/>
    <linearGradient id="linear-gradient-10" x1="-1190.099" y1="3870.586" x2="-1189.146" y2="3870.586" xlink:href="#linear-gradient"/>
    <linearGradient id="linear-gradient-11" x1="-36.789" y1="205.999" x2="-38.288" y2="210.039" xlink:href="#linear-gradient-6"/>
    <linearGradient id="linear-gradient-12" x1="0.593" y1="-0.709" x2="0.356" y2="2.381" gradientUnits="objectBoundingBox">
      <stop offset="0" stop-color="#9182ca"/>
      <stop offset="0.97" stop-color="#6c58b8"/>
      <stop offset="1" stop-color="#3840f7"/>
    </linearGradient>
    <linearGradient id="linear-gradient-13" x1="1.024" y1="-7.586" x2="0.085" y2="7.114" xlink:href="#linear-gradient-12"/>
    <linearGradient id="linear-gradient-14" x1="0.557" y1="-4.525" x2="0.478" y2="2.342" gradientUnits="objectBoundingBox">
      <stop offset="0" stop-color="#6c58b8"/>
      <stop offset="1" stop-color="#ef2a66"/>
    </linearGradient>
    <linearGradient id="linear-gradient-15" x1="0.533" y1="-1.642" x2="0.482" y2="1.647" xlink:href="#linear-gradient-14"/>
    <linearGradient id="linear-gradient-16" x1="0.536" y1="-1.257" x2="0.478" y2="1.556" xlink:href="#linear-gradient-14"/>
    <linearGradient id="linear-gradient-17" x1="0.676" y1="-6.36" x2="0.44" y2="2.815" xlink:href="#linear-gradient-14"/>
    <linearGradient id="linear-gradient-18" x1="0.6" y1="-2.687" x2="0.455" y2="1.916" xlink:href="#linear-gradient-14"/>
    <linearGradient id="linear-gradient-19" x1="0.599" y1="-2.167" x2="0.452" y2="1.792" xlink:href="#linear-gradient-14"/>
    <linearGradient id="linear-gradient-20" x1="0.648" y1="-2.985" x2="0.435" y2="2.002" xlink:href="#linear-gradient-14"/>
    <linearGradient id="linear-gradient-21" x1="0.59" y1="-1.397" x2="0.447" y2="1.607" xlink:href="#linear-gradient-14"/>
    <linearGradient id="linear-gradient-22" x1="0.619" y1="-1.607" x2="0.434" y2="1.664" xlink:href="#linear-gradient-14"/>
    <linearGradient id="linear-gradient-23" x1="0.655" y1="-1.976" x2="0.42" y2="1.762" xlink:href="#linear-gradient-14"/>
    <linearGradient id="linear-gradient-24" x1="-36.039" y1="-0.346" x2="-35.676" y2="0.297" gradientUnits="objectBoundingBox">
      <stop offset="0" stop-color="#2b3582"/>
      <stop offset="1" stop-color="#150e42"/>
    </linearGradient>
    <linearGradient id="linear-gradient-25" x1="-25.074" y1="-1.717" x2="-24.522" y2="-0.64" gradientUnits="objectBoundingBox">
      <stop offset="0" stop-color="#f9b776"/>
      <stop offset="1" stop-color="#f47960"/>
    </linearGradient>
    <linearGradient id="linear-gradient-26" x1="-110.655" y1="0.501" x2="-109.654" y2="0.501" xlink:href="#linear-gradient-14"/>
    <linearGradient id="linear-gradient-27" x1="-85.751" y1="1.602" x2="-84.714" y2="-1.187" xlink:href="#linear-gradient-25"/>
    <linearGradient id="linear-gradient-28" x1="-73.777" y1="0.499" x2="-72.776" y2="0.499" xlink:href="#linear-gradient-14"/>
    <linearGradient id="linear-gradient-29" x1="-36.151" y1="1.697" x2="-35.687" y2="-1.193" xlink:href="#linear-gradient-25"/>
    <linearGradient id="linear-gradient-30" x1="-38.287" y1="0.411" x2="-38.054" y2="2.002" gradientUnits="objectBoundingBox">
      <stop offset="0" stop-color="#febc7c"/>
      <stop offset="1" stop-color="#fd8f25"/>
    </linearGradient>
    <linearGradient id="linear-gradient-31" x1="-31.027" y1="-0.331" x2="-32.013" y2="0.684" gradientUnits="objectBoundingBox">
      <stop offset="0" stop-color="#9182ca"/>
      <stop offset="0.97" stop-color="#6c58b8"/>
    </linearGradient>
    <linearGradient id="linear-gradient-32" x1="-112.479" y1="1.856" x2="-112.225" y2="0.808" xlink:href="#linear-gradient-25"/>
    <linearGradient id="linear-gradient-33" x1="-63.768" y1="-3.498" x2="-62.235" y2="-5.752" xlink:href="#linear-gradient-25"/>
    <linearGradient id="linear-gradient-34" x1="-51.99" y1="-4.55" x2="-51.359" y2="-3.148" xlink:href="#linear-gradient-24"/>
    <linearGradient id="linear-gradient-35" x1="-239.884" y1="-11.834" x2="-234.084" y2="-18.969" xlink:href="#linear-gradient-25"/>
    <linearGradient id="linear-gradient-36" x1="-75.184" y1="-4.048" x2="-73.594" y2="-1.044" xlink:href="#linear-gradient-25"/>
    <linearGradient id="linear-gradient-37" x1="0" y1="0.502" x2="1" y2="0.502" xlink:href="#linear-gradient-25"/>
    <linearGradient id="linear-gradient-38" x1="-68.317" y1="-23.974" x2="-69.056" y2="-21.491" xlink:href="#linear-gradient-24"/>
    <linearGradient id="linear-gradient-39" x1="-54.099" y1="0.133" x2="-54.496" y2="0.802" xlink:href="#linear-gradient-24"/>
    <linearGradient id="linear-gradient-40" x1="-371.184" y1="-0.759" x2="-372.401" y2="2.196" xlink:href="#linear-gradient-12"/>
    <linearGradient id="linear-gradient-41" x1="-0.799" y1="1.009" x2="1.024" y2="0.359" xlink:href="#linear-gradient-25"/>
    <linearGradient id="linear-gradient-42" x1="0.936" y1="-0.078" x2="-0.19" y2="1.416" xlink:href="#linear-gradient-12"/>
    <linearGradient id="linear-gradient-43" x1="1.214" y1="-0.449" x2="-0.632" y2="2.003" xlink:href="#linear-gradient-12"/>
    <linearGradient id="linear-gradient-44" x1="2.345" y1="-1.949" x2="-2.423" y2="4.381" xlink:href="#linear-gradient-12"/>
    <linearGradient id="linear-gradient-45" x1="1125.704" y1="58.644" x2="1117.721" y2="59.502" xlink:href="#linear-gradient-24"/>
    <linearGradient id="linear-gradient-46" x1="149.803" y1="289.044" x2="149.481" y2="292.493" gradientUnits="objectBoundingBox">
      <stop offset="0" stop-color="#fdf53f"/>
      <stop offset="1" stop-color="#d93c65"/>
    </linearGradient>
    <linearGradient id="linear-gradient-47" x1="100.179" y1="299.231" x2="99.879" y2="303.97" xlink:href="#linear-gradient-46"/>
    <linearGradient id="linear-gradient-48" x1="-125.903" y1="203.702" x2="-126.344" y2="206.922" xlink:href="#linear-gradient-46"/>
  </defs>
  <rect id="Rectángulo_6714" data-name="Rectángulo 6714" width="212.47" height="212.47" fill="none"/>
  <g id="Grupo_58585" data-name="Grupo 58585" transform="translate(5.135 22.763)">
    <rect id="Rectángulo_6715" data-name="Rectángulo 6715" width="16.027" height="0.22" transform="translate(100.768 53.91) rotate(-4.54)" fill="#fff"/>
    <path id="Trazado_119321" data-name="Trazado 119321" d="M138.336,138.506h-.212l1.523-16.488a1.523,1.523,0,0,0-.39-1.147,1.494,1.494,0,0,0-1.1-.489H112.514a1.5,1.5,0,0,0-1.5,1.5V127H110.8v-5.121a1.714,1.714,0,0,1,1.714-1.714h25.638a1.714,1.714,0,0,1,1.707,1.87Z" transform="translate(-37.462 -57.824)" fill="#fff"/>
    <g id="Grupo_58552" data-name="Grupo 58552" transform="translate(40.072 66.489)">
      <path id="Trazado_119322" data-name="Trazado 119322" d="M100.639,195.4a31.679,31.679,0,1,1,31.679-31.679A31.679,31.679,0,0,1,100.639,195.4Zm0-59.9a28.223,28.223,0,1,0,28.223,28.223A28.223,28.223,0,0,0,100.639,135.5Z" transform="translate(-65.327 -127.776)" fill="#fff"/>
      <path id="Trazado_119323" data-name="Trazado 119323" d="M106.483,187.057a17.493,17.493,0,1,1,17.493-17.493,17.493,17.493,0,0,1-17.493,17.493Zm0-31.531a14.019,14.019,0,1,1,0,.035Z" transform="translate(-71.171 -133.621)" fill="#fff"/>
      <ellipse id="Elipse_4656" data-name="Elipse 4656" cx="7.252" cy="7.252" rx="7.252" ry="7.252" transform="translate(28.06 28.691)" fill="#fff"/>
      <path id="Trazado_119324" data-name="Trazado 119324" d="M115.2,131.905H111.66v-4.1a1.785,1.785,0,0,1,1.792-1.785h0a1.785,1.785,0,0,1,1.785,1.785Z" transform="translate(-77.785 -126.02)" fill="#fff"/>
      <path id="Trazado_119325" data-name="Trazado 119325" d="M69.715,173.785v3.541h-4.1a1.785,1.785,0,0,1-1.785-1.792h0a1.785,1.785,0,0,1,1.785-1.785Z" transform="translate(-63.83 -139.946)" fill="#fff"/>
      <path id="Trazado_119326" data-name="Trazado 119326" d="M156.13,177.391V173.85h4.1a1.785,1.785,0,0,1,1.785,1.785h0a1.785,1.785,0,0,1-1.785,1.792Z" transform="translate(-90.76 -139.975)" fill="#fff"/>
    </g>
    <g id="Grupo_58561" data-name="Grupo 58561" transform="translate(84.768 57.303)">
      <g id="Grupo_58556" data-name="Grupo 58556" transform="translate(0 15.553)">
        <g id="Grupo_58553" data-name="Grupo 58553" transform="translate(19.402 24.399)" opacity="0.3">
          <path id="Trazado_119327" data-name="Trazado 119327" d="M203.905,169.488a.864.864,0,0,1,.977.616c.262.935.489,1.9.673,2.833a.864.864,0,0,1-.708,1.013h0a.864.864,0,0,1-.992-.708c-.177-.914-.39-1.827-.645-2.72a.857.857,0,0,1,.595-1.062Zm1.232,7.436h.106a.864.864,0,0,1,.907.814,25.557,25.557,0,0,1,0,2.946.864.864,0,0,1-1.721-.057V177.8a.85.85,0,0,1,.708-.871Zm-.439,7.5a.836.836,0,0,1,.3,0,.864.864,0,0,1,.708,1c-.17.963-.375,1.926-.63,2.875a.864.864,0,0,1-1.664-.439c.234-.9.432-1.82.595-2.734a.857.857,0,0,1,.694-.722Zm-2.125,7.217a.843.843,0,0,1,.475.05.871.871,0,0,1,.467,1.133c-.382.9-.8,1.792-1.254,2.663a.864.864,0,0,1-1.53-.8c.432-.822.829-1.678,1.19-2.528a.85.85,0,0,1,.673-.538Zm-3.626,6.53a.907.907,0,0,1,.652.149.864.864,0,0,1,.2,1.2c-.567.793-1.176,1.572-1.806,2.316a.864.864,0,0,1-1.317-1.112c.6-.708,1.183-1.452,1.721-2.2a.864.864,0,0,1,.552-.354Zm-5.021,5.6a.864.864,0,0,1,.708,1.494,29.236,29.236,0,0,1-2.281,1.856.864.864,0,0,1-1.034-1.381c.744-.552,1.473-1.147,2.167-1.764a.8.8,0,0,1,.418-.2Zm-30.8,7.394a.885.885,0,0,1,.361,0c.9.234,1.82.432,2.734.588a.878.878,0,0,1,.708,1,.864.864,0,0,1-1,.708c-.963-.163-1.933-.368-2.875-.616a.864.864,0,0,1-.616-1.055.85.85,0,0,1,.666-.616Zm24.647-3.074a.857.857,0,0,1,.567,1.6c-.857.475-1.742.914-2.642,1.31a.865.865,0,0,1-.708-1.579c.85-.375,1.686-.793,2.5-1.239a.757.757,0,0,1,.283-.092Zm-17.231,4.129a.709.709,0,0,1,.177,0c.928,0,1.863,0,2.79-.035a.864.864,0,1,1,.1,1.721c-.977.057-1.969.071-2.946.042a.871.871,0,0,1-.836-.892.857.857,0,0,1,.715-.814Zm10.284-1.275a.864.864,0,0,1,.382,1.678c-.935.269-1.9.5-2.833.708h0a.864.864,0,1,1-.312-1.7c.907-.177,1.82-.4,2.713-.644Z" transform="translate(-156.69 -169.46)" fill="url(#linear-gradient)"/>
          <path id="Trazado_119328" data-name="Trazado 119328" d="M155.047,225.443a.8.8,0,0,1,.51.064c.4.191.822.375,1.232.545a.864.864,0,0,1-.666,1.594c-.432-.184-.871-.375-1.3-.574a.864.864,0,0,1-.411-1.147.829.829,0,0,1,.63-.482Z" transform="translate(-154.334 -185.789)" fill="url(#linear-gradient-2)"/>
        </g>
        <g id="Grupo_58554" data-name="Grupo 58554" opacity="0.3">
          <path id="Trazado_119329" data-name="Trazado 119329" d="M130.206,197.835a.864.864,0,0,1,.963.574c.142.418.3.843.46,1.261a.857.857,0,0,1-.489,1.119.871.871,0,0,1-1.119-.5c-.17-.439-.333-.885-.482-1.324a.864.864,0,0,1,.531-1.1Z" transform="translate(-127.684 -153.337)" fill="url(#linear-gradient-3)"/>
          <path id="Trazado_119330" data-name="Trazado 119330" d="M155.5,135.506c.39-.071.786-.127,1.183-.184a.864.864,0,0,1,.234,1.707c-.914.127-1.82.29-2.705.489a.864.864,0,1,1-.382-1.686C154.384,135.711,154.943,135.6,155.5,135.506Zm5.723-.5h.149a23.145,23.145,0,0,1,2.89.12.86.86,0,0,1-.142,1.714c-.907-.071-1.834-.113-2.748-.106a.864.864,0,0,1-.149-1.714Zm-11.743,2.125a.864.864,0,0,1,.446,1.657c-.85.319-1.707.708-2.528,1.069a.864.864,0,1,1-.708-1.558c.864-.411,1.764-.793,2.663-1.126a.639.639,0,0,1,.127-.05Zm19.122-1.317a.914.914,0,0,1,.34,0c.935.205,1.877.46,2.79.744a.865.865,0,0,1-.517,1.65c-.871-.276-1.764-.517-2.656-.708a.864.864,0,0,1,.042-1.693Zm-25.688,4.653a.85.85,0,0,1,.864.375.864.864,0,0,1-.248,1.2c-.765.5-1.516,1.034-2.238,1.6a.864.864,0,1,1-1.062-1.36c.765-.595,1.551-1.162,2.358-1.686a.921.921,0,0,1,.3-.135Zm-5.708,4.7a.878.878,0,0,1,.751.234.864.864,0,0,1,0,1.218c-.637.659-1.254,1.346-1.834,2.054a.864.864,0,0,1-1.331-1.1c.609-.744,1.261-1.466,1.926-2.16a.906.906,0,0,1,.46-.255Zm-4.561,5.829a.864.864,0,0,1,.885,1.3c-.482.779-.935,1.586-1.346,2.4a.865.865,0,0,1-1.544-.779c.439-.857.914-1.707,1.416-2.528A.864.864,0,0,1,132.648,150.995Zm-3.18,6.672a.829.829,0,0,1,.432,0,.857.857,0,0,1,.531,1.091c-.3.864-.56,1.756-.786,2.635a.864.864,0,1,1-1.671-.418c.234-.935.51-1.87.829-2.776a.857.857,0,0,1,.666-.531Zm-1.622,7.217a.914.914,0,0,1,.241,0,.857.857,0,0,1,.765.949c-.1.907-.163,1.834-.184,2.748a.864.864,0,1,1-1.728-.05,26.157,26.157,0,0,1,.2-2.883.857.857,0,0,1,.708-.751Zm0,7.394h.05a.864.864,0,0,1,.956.765c.071.666.17,1.339.283,2l.127.708a.864.864,0,0,1-1.693.333c-.05-.248-.092-.5-.135-.751q-.181-1.062-.3-2.125a.864.864,0,0,1,.715-.921Z" transform="translate(-126.939 -135.01)" fill="url(#linear-gradient-4)"/>
          <path id="Trazado_119331" data-name="Trazado 119331" d="M195.34,139.545a.85.85,0,0,1,.51.071c.425.2.85.411,1.268.63a.867.867,0,0,1-.814,1.53c-.4-.212-.8-.411-1.2-.6a.864.864,0,0,1,.227-1.629Z" transform="translate(-146.684 -136.33)" fill="url(#linear-gradient-5)"/>
        </g>
        <g id="Grupo_58555" data-name="Grupo 58555" transform="translate(8.484 8.724)">
          <path id="Trazado_119332" data-name="Trazado 119332" d="M179.643,151.876a.4.4,0,0,0-.467-.042l-4.249,2.45a21.566,21.566,0,0,0-6.565-2.2l-1.919-4.511a.4.4,0,0,0-.4-.241l-5.871.411a.4.4,0,0,0-.361.3l-1.268,4.724a21.538,21.538,0,0,0-6.2,3.095l-4.554-1.834a.4.4,0,0,0-.453.106l-3.86,4.441a.411.411,0,0,0-.05.467l2.458,4.249a21.424,21.424,0,0,0-2.2,6.572l-4.511,1.919a.4.4,0,0,0-.248.4l.411,5.871a.411.411,0,0,0,.3.361l4.738,1.268a21.1,21.1,0,0,0,3.095,6.2l-1.841,4.554a.4.4,0,0,0,.113.453l4.441,3.867a.418.418,0,0,0,.467.042l4.249-2.45a21.368,21.368,0,0,0,6.565,2.2l1.919,4.519a.4.4,0,0,0,.4.241l5.871-.411a.411.411,0,0,0,.361-.3l1.268-4.738a21.338,21.338,0,0,0,6.2-3.088l4.554,1.834a.4.4,0,0,0,.453-.113l3.86-4.441a.4.4,0,0,0,.05-.467l-2.458-4.249a21.318,21.318,0,0,0,2.2-6.565l4.511-1.919a.4.4,0,0,0,.248-.4l-.411-5.871a.4.4,0,0,0-.3-.361l-4.738-1.275a21.247,21.247,0,0,0-3.095-6.2l1.841-4.547a.4.4,0,0,0-.113-.46Z" transform="translate(-138.919 -147.328)" fill="url(#linear-gradient-6)"/>
          <path id="Trazado_119333" data-name="Trazado 119333" d="M172.176,175.744a5.921,5.921,0,1,1-1.671,11.112,5.843,5.843,0,0,1-2.946-3.435,5.921,5.921,0,0,1,3.768-7.465,6.121,6.121,0,0,1,.85-.212Zm1.764,10.3a4.178,4.178,0,0,0,.652-.163,4.533,4.533,0,1,0-3.463-.262,4.462,4.462,0,0,0,2.812.425Z" transform="translate(-147.189 -155.593)" fill="#fff" opacity="0.56"/>
          <path id="Trazado_119334" data-name="Trazado 119334" d="M167.023,163.843a14.7,14.7,0,0,1,1.487-.177h.475a14.93,14.93,0,0,1,2.323.1h.3a.347.347,0,0,1,.29.276.3.3,0,0,1,0,.113.347.347,0,0,1-.39.29,13.656,13.656,0,0,0-2.946-.106,13.874,13.874,0,0,0-12.869,14.809,8.689,8.689,0,0,0,.17,1.416,13.86,13.86,0,0,0,27.451-3.35q-.057-.708-.17-1.416a13.761,13.761,0,0,0-2.288-5.56.354.354,0,0,1-.057-.142.347.347,0,0,1,.623-.255,14.547,14.547,0,1,1-26.268,10.822,14.706,14.706,0,0,1-.177-1.487,14.554,14.554,0,0,1,12.04-15.347Z" transform="translate(-143.593 -152.092)" fill="#fff" opacity="0.56"/>
        </g>
      </g>
      <g id="Grupo_58560" data-name="Grupo 58560" transform="translate(49.645)">
        <g id="Grupo_58557" data-name="Grupo 58557" transform="translate(21.399 12.565)" opacity="0.3">
          <path id="Trazado_119335" data-name="Trazado 119335" d="M256.336,130.8a.552.552,0,0,1,.574.29c.2.411.39.829.56,1.246a.531.531,0,0,1-.283.708.538.538,0,0,1-.708-.283c-.163-.4-.347-.8-.531-1.19a.524.524,0,0,1,.241-.708A.566.566,0,0,1,256.336,130.8Z" transform="translate(-235.608 -130.791)" fill="url(#linear-gradient-7)"/>
          <path id="Trazado_119336" data-name="Trazado 119336" d="M249.447,136.207a.531.531,0,0,1,.6.382c.205.751.382,1.516.517,2.288a2.843,2.843,0,0,0,.078.482.552.552,0,0,1-.453.609.531.531,0,0,1-.6-.446,2.685,2.685,0,0,0-.078-.467c-.127-.708-.29-1.466-.489-2.181a.524.524,0,0,1,.368-.652Zm.822,5.468h.078a.538.538,0,0,1,.545.517,23.751,23.751,0,0,1-.092,2.833.534.534,0,1,1-1.062-.106,22.854,22.854,0,0,0,.092-2.7.545.545,0,0,1,.439-.545Zm-.524,5.51a.4.4,0,0,1,.205,0,.538.538,0,0,1,.4.637,22.941,22.941,0,0,1-.793,2.72.531.531,0,1,1-1-.354,22.225,22.225,0,0,0,.751-2.6.538.538,0,0,1,.425-.4Zm-1.87,5.206a.6.6,0,0,1,.333.05.538.538,0,0,1,.234.708,22.716,22.716,0,0,1-1.416,2.443.531.531,0,0,1-.708.149.538.538,0,0,1-.149-.744,21.328,21.328,0,0,0,1.367-2.33.545.545,0,0,1,.34-.276Zm-3.095,4.6a.535.535,0,0,1,.489.878,23.262,23.262,0,0,1-1.983,2.026.538.538,0,0,1-.751-.035.545.545,0,0,1,0-.758,22.151,22.151,0,0,0,1.891-1.933A.574.574,0,0,1,244.779,156.986Zm-4.108,3.711a.531.531,0,0,1,.531.22.538.538,0,0,1-.135.744,22.716,22.716,0,0,1-2.415,1.48.532.532,0,0,1-.5-.942,21.294,21.294,0,0,0,2.3-1.416.51.51,0,0,1,.234-.085Zm-4.88,2.592a.531.531,0,0,1,.588.333.538.538,0,0,1-.312.708,23.482,23.482,0,0,1-2.705.843.538.538,0,0,1-.255-1.041,21.43,21.43,0,0,0,2.585-.8Zm-8.138,1.473h.128c.779,0,1.565-.035,2.351-.113l.347-.042a.538.538,0,0,1,.128,1.062h-.368a22.166,22.166,0,0,1-2.458.135.531.531,0,0,1-.085-1.055Z" transform="translate(-227.252 -132.369)" fill="url(#linear-gradient-8)"/>
        </g>
        <g id="Grupo_58558" data-name="Grupo 58558" opacity="0.3">
          <path id="Trazado_119337" data-name="Trazado 119337" d="M214.851,113.432a.533.533,0,1,1,.191,1.048,21.545,21.545,0,0,0-2.585.645.534.534,0,0,1-.319-1.02,23.578,23.578,0,0,1,2.705-.708Zm2.705-.34h.057a22.927,22.927,0,0,1,2.79,0,.532.532,0,0,1-.057,1.062,23.866,23.866,0,0,0-2.663,0,.524.524,0,0,1-.567-.5.531.531,0,0,1,.432-.567Zm-7.89,1.969a.552.552,0,0,1,.574.3.538.538,0,0,1-.269.708,22.489,22.489,0,0,0-2.344,1.246.531.531,0,0,1-.708-.177.538.538,0,0,1,.177-.708,24.86,24.86,0,0,1,2.465-1.31.752.752,0,0,1,.106-.064Zm13.322-1.657h.227a22.614,22.614,0,0,1,2.713.666.534.534,0,1,1-.319,1.02,21.518,21.518,0,0,0-2.585-.637.531.531,0,0,1,0-1.048Zm-17.968,4.5a.552.552,0,0,1,.51.2.531.531,0,0,1-.085.751,21.32,21.32,0,0,0-1.983,1.771.531.531,0,0,1-.758-.708,22.4,22.4,0,0,1,2.075-1.863.708.708,0,0,1,.241-.149Zm-3.817,3.874a.489.489,0,0,1,.411.106.531.531,0,0,1,.1.708,21.956,21.956,0,0,0-1.5,2.2.532.532,0,0,1-.914-.545,23.244,23.244,0,0,1,1.572-2.309A.545.545,0,0,1,201.2,121.775Zm-2.776,4.7a.567.567,0,0,1,.3.035.545.545,0,0,1,.276.708,21.1,21.1,0,0,0-.928,2.493.533.533,0,1,1-1.02-.312,23.166,23.166,0,0,1,.97-2.613A.538.538,0,0,1,198.427,126.471Z" transform="translate(-197.037 -113.05)" fill="url(#linear-gradient-9)"/>
          <path id="Trazado_119338" data-name="Trazado 119338" d="M240.88,115.838a.574.574,0,0,1,.3.042c.418.184.829.39,1.225.595a.532.532,0,0,1-.5.942c-.375-.2-.772-.39-1.169-.567a.538.538,0,0,1,.135-1.013Z" transform="translate(-209.701 -113.862)" fill="url(#linear-gradient-10)"/>
        </g>
        <g id="Grupo_58559" data-name="Grupo 58559" transform="translate(4.697 5.828)">
          <path id="Trazado_119339" data-name="Trazado 119339" d="M230.88,124.29a.269.269,0,0,0-.312,0l-2.833,1.643a14.449,14.449,0,0,0-4.4-1.473l-1.282-3.017a.269.269,0,0,0-.269-.163l-3.931.276a.262.262,0,0,0-.241.2l-.85,3.166a14.377,14.377,0,0,0-4.143,2.068l-3.045-1.225a.269.269,0,0,0-.3.071l-2.585,2.975a.255.255,0,0,0,0,.312l1.636,2.833a14.342,14.342,0,0,0-1.473,4.391l-3.017,1.282a.276.276,0,0,0-.163.269l.276,3.931a.262.262,0,0,0,.2.241l3.166.85a14.5,14.5,0,0,0,2.068,4.15l-1.225,3.053a.276.276,0,0,0,.071.3L211.2,153a.269.269,0,0,0,.312.035l2.833-1.643a14.342,14.342,0,0,0,4.391,1.473l1.282,3.017a.276.276,0,0,0,.269.163l3.931-.269a.283.283,0,0,0,.241-.205l.85-3.166a14.5,14.5,0,0,0,4.15-2.068l3.045,1.225a.276.276,0,0,0,.3-.071l2.578-2.975a.269.269,0,0,0,.035-.312l-1.643-2.833a14.341,14.341,0,0,0,1.473-4.391l3.017-1.282a.269.269,0,0,0,.163-.269l-.269-3.931a.283.283,0,0,0-.2-.241l-3.173-.85a14.165,14.165,0,0,0-2.068-4.143l1.225-3.045a.269.269,0,0,0-.071-.3Z" transform="translate(-203.669 -121.279)" fill="url(#linear-gradient-11)"/>
          <path id="Trazado_119340" data-name="Trazado 119340" d="M225.834,140.145a3.966,3.966,0,0,1,2.493.375,4.037,4.037,0,1,1-3.074-.234A5.336,5.336,0,0,1,225.834,140.145Zm1.176,6.9q.212-.042.425-.106a2.967,2.967,0,0,0,1.891-3.739,2.918,2.918,0,0,0-1.48-1.721,2.953,2.953,0,0,0-2.259-.177h0a2.918,2.918,0,0,0-1.721,1.48,2.96,2.96,0,0,0,3.145,4.249Z" transform="translate(-209.155 -126.766)" fill="#fff" opacity="0.56"/>
          <path id="Trazado_119341" data-name="Trazado 119341" d="M222.236,131.85a9.642,9.642,0,0,1,1.013-.12,9.867,9.867,0,0,1,2.047.064h.092a.517.517,0,0,1,.446.432.461.461,0,0,1,0,.17.545.545,0,0,1-.609.453,9.016,9.016,0,0,0-1.905-.071h-.106a8.924,8.924,0,0,0-5.985,3h0l-.042.05a8.881,8.881,0,0,0-2.174,6.509,3.931,3.931,0,0,0,.106.914A8.973,8.973,0,0,0,232.9,141.12a7.928,7.928,0,0,0-.113-.907,8.825,8.825,0,0,0-1.48-3.6.666.666,0,0,1-.085-.212.531.531,0,0,1,.22-.531.538.538,0,0,1,.708.135,10.043,10.043,0,0,1,1.657,4.03,9.642,9.642,0,0,1,.12,1.013,10.036,10.036,0,0,1-19.9,2.422c-.057-.333-.1-.708-.127-1.027a10.05,10.05,0,0,1,8.336-10.6Z" transform="translate(-206.647 -124.32)" fill="#fff" opacity="0.56"/>
        </g>
      </g>
    </g>
    <g id="Grupo_58574" data-name="Grupo 58574">
      <rect id="Rectángulo_6716" data-name="Rectángulo 6716" width="118.197" height="68.429" rx="14.84" transform="translate(0.319 0.276)" fill="url(#linear-gradient-12)"/>
      <rect id="Rectángulo_6717" data-name="Rectángulo 6717" width="110.18" height="65.207" rx="14.51" transform="translate(4.179 2.316)" fill="#fff" opacity="0.41"/>
      <g id="Grupo_58572" data-name="Grupo 58572" transform="translate(10.404 19.781)">
        <g id="Grupo_58562" data-name="Grupo 58562" opacity="0.67">
          <rect id="Rectángulo_6718" data-name="Rectángulo 6718" width="7.791" height="44.937" fill="#fff"/>
        </g>
        <g id="Grupo_58563" data-name="Grupo 58563" transform="translate(10.461)" opacity="0.67">
          <rect id="Rectángulo_6719" data-name="Rectángulo 6719" width="7.791" height="44.937" fill="#fff"/>
        </g>
        <g id="Grupo_58564" data-name="Grupo 58564" transform="translate(20.39)" opacity="0.67">
          <rect id="Rectángulo_6720" data-name="Rectángulo 6720" width="7.791" height="44.937" fill="#fff"/>
        </g>
        <g id="Grupo_58565" data-name="Grupo 58565" transform="translate(30.851)" opacity="0.67">
          <rect id="Rectángulo_6721" data-name="Rectángulo 6721" width="7.791" height="44.937" fill="#fff"/>
        </g>
        <g id="Grupo_58566" data-name="Grupo 58566" transform="translate(41.092)" opacity="0.67">
          <rect id="Rectángulo_6722" data-name="Rectángulo 6722" width="7.791" height="44.937" fill="#fff"/>
        </g>
        <g id="Grupo_58567" data-name="Grupo 58567" transform="translate(51.552)" opacity="0.67">
          <rect id="Rectángulo_6723" data-name="Rectángulo 6723" width="7.791" height="44.937" fill="#fff"/>
        </g>
        <g id="Grupo_58568" data-name="Grupo 58568" transform="translate(61.978)" opacity="0.67">
          <rect id="Rectángulo_6724" data-name="Rectángulo 6724" width="7.791" height="44.937" fill="#fff"/>
        </g>
        <g id="Grupo_58569" data-name="Grupo 58569" transform="translate(72.438)" opacity="0.67">
          <rect id="Rectángulo_6725" data-name="Rectángulo 6725" width="7.791" height="44.937" fill="#fff"/>
        </g>
        <g id="Grupo_58570" data-name="Grupo 58570" transform="translate(82.679)" opacity="0.67">
          <rect id="Rectángulo_6726" data-name="Rectángulo 6726" width="7.791" height="44.937" fill="#fff"/>
        </g>
        <g id="Grupo_58571" data-name="Grupo 58571" transform="translate(93.14)" opacity="0.67">
          <rect id="Rectángulo_6727" data-name="Rectángulo 6727" width="7.791" height="44.937" fill="#fff"/>
        </g>
      </g>
      <path id="Trazado_119342" data-name="Trazado 119342" d="M125.78,46.553V36.637c0-2.366-1.679-4.5-3.739-4.5H11.117c-2.054,0-3.867,2.125-3.867,4.5v9.915Z" transform="translate(-7.25 -32.14)" fill="url(#linear-gradient-13)"/>
      <g id="Grupo_58573" data-name="Grupo 58573" transform="translate(10.454 19.54)">
        <rect id="Rectángulo_6728" data-name="Rectángulo 6728" width="7.791" height="8.208" transform="translate(0 36.97)" fill="url(#linear-gradient-14)"/>
        <rect id="Rectángulo_6729" data-name="Rectángulo 6729" width="7.791" height="11.02" transform="translate(10.461 34.158)" fill="url(#linear-gradient-15)"/>
        <rect id="Rectángulo_6730" data-name="Rectángulo 6730" width="7.791" height="14.88" transform="translate(20.39 30.298)" fill="url(#linear-gradient-16)"/>
        <rect id="Rectángulo_6731" data-name="Rectángulo 6731" width="7.791" height="18.449" transform="translate(30.851 26.736)" fill="url(#linear-gradient-17)"/>
        <rect id="Rectángulo_6732" data-name="Rectángulo 6732" width="7.791" height="22.607" transform="translate(41.092 22.571)" fill="url(#linear-gradient-18)"/>
        <rect id="Rectángulo_6733" data-name="Rectángulo 6733" width="7.791" height="26.764" transform="translate(51.552 18.414)" fill="url(#linear-gradient-19)"/>
        <rect id="Rectángulo_6734" data-name="Rectángulo 6734" width="7.791" height="30.624" transform="translate(61.978 14.554)" fill="url(#linear-gradient-20)"/>
        <rect id="Rectángulo_6735" data-name="Rectángulo 6735" width="7.791" height="34.186" transform="translate(72.438 10.992)" fill="url(#linear-gradient-21)"/>
        <rect id="Rectángulo_6736" data-name="Rectángulo 6736" width="7.791" height="40.723" transform="translate(82.679 4.455)" fill="url(#linear-gradient-22)"/>
        <rect id="Rectángulo_6737" data-name="Rectángulo 6737" width="7.791" height="45.178" transform="translate(93.14)" fill="url(#linear-gradient-23)"/>
      </g>
    </g>
    <g id="Grupo_58578" data-name="Grupo 58578" transform="translate(25.772 34.951)">
      <path id="Trazado_119343" data-name="Trazado 119343" d="M82.38,98.41s-2.833,1.416-3.357,2.96c-.418,1.275-3.541,1.416-3.86,3.938a2.833,2.833,0,0,1-2.4,2.514c-3.2.5-8.131,2.125-8.924,7.713-.6,4.249,1.565,5.85,3.832,6.374a3.215,3.215,0,0,1,2.436,3.718c-.326,1.615.163,3.477,2.953,4.958,6.268,3.307,12.522-7.833,12.522-7.833L86.863,103.3Z" transform="translate(-49.503 -86.427)" fill="url(#linear-gradient-24)"/>
      <path id="Trazado_119344" data-name="Trazado 119344" d="M126.91,91.9S114.4,111.688,99.53,115.505c0,0,2.9,8.258,5.135,9.207,0,0,18.3-15.277,23-30Z" transform="translate(-59.947 -84.527)" fill="url(#linear-gradient-25)"/>
      <path id="Trazado_119345" data-name="Trazado 119345" d="M50.758,270.065l-.4,3.336a1.374,1.374,0,0,1-1.2,1.2,21.453,21.453,0,0,1-4.462.071,1.176,1.176,0,0,1-.992-1.53,12.111,12.111,0,0,1,2.238-4.356h3.7a1.14,1.14,0,0,1,1.126,1.275Z" transform="translate(-43.64 -136.138)" fill="url(#linear-gradient-26)"/>
      <path id="Trazado_119346" data-name="Trazado 119346" d="M91.655,215.47l.63,3.669s-2.125,21.169-2.465,29.632a6.622,6.622,0,0,0,.984,3.775l3.633,5.9L85.231,253l-.184-1.133,1.509-2.075-1.976-23.712a7.309,7.309,0,0,1,.822-4.03l1.912-3.584Z" transform="translate(-55.577 -120.581)" fill="url(#linear-gradient-27)"/>
      <path id="Trazado_119347" data-name="Trazado 119347" d="M94.928,273.754H91.975a1.764,1.764,0,0,1-1.416-.708c-.921-1.19-2.833-3.541-3.732-3.584-1.225-.078-1.069,4.249-1.069,4.249h-.708l-.871-5.418A3.2,3.2,0,0,1,85.891,265a4.532,4.532,0,0,0,1.8,2.982c1.516.914,6.183,4.2,6.183,4.2a4.291,4.291,0,0,1,1.2.035.779.779,0,0,1-.142,1.537Z" transform="translate(-55.458 -135.032)" fill="url(#linear-gradient-28)"/>
      <path id="Trazado_119348" data-name="Trazado 119348" d="M67.611,217.3s-12.238,23.223-14.165,28.528a50.992,50.992,0,0,0-2.656,10.142c-.042.652-.857,1.282-3.095,1.282a2.125,2.125,0,0,1-2-.914,1.3,1.3,0,0,1-.05-1.268c.708-1.416,2.953-6.013,3.789-8.088.992-2.486,3.13-13.726,4.3-17.635s2.5-8.145,7.606-12.04C61.315,217.3,64.821,213.866,67.611,217.3Z" transform="translate(-44.183 -120.67)" fill="url(#linear-gradient-29)"/>
      <path id="Trazado_119349" data-name="Trazado 119349" d="M85.647,152.649c3.159-13.386-4.837-20.957-4.837-20.957,5.043-4.844,14.243-7.082,14.243-7.082s8.775,6.417,7.734,11.438c-.609,2.946-6.169,17.635-6.169,17.635a12.224,12.224,0,0,1-10.971-1.034Z" transform="translate(-54.485 -94.071)" fill="url(#linear-gradient-30)"/>
      <path id="Trazado_119350" data-name="Trazado 119350" d="M74.7,170.822c1.282-3.874,7-6.622,7-6.622a12.224,12.224,0,0,0,10.971,1.069,22,22,0,0,1,.361,8.5c-.8,4.094-5.786,30.412-5.786,30.412-7.868,1.594-19.965-1.608-19.965-1.608C72.287,193.684,73.413,174.682,74.7,170.822Z" transform="translate(-50.537 -105.622)" fill="url(#linear-gradient-31)"/>
      <path id="Trazado_119351" data-name="Trazado 119351" d="M91.745,111.712,89.174,123.25c-.241,1.013.708.85,1.714.652,1.679-.312,3.846-.97,4.568-2.273a1.218,1.218,0,0,0,.135-.439l1.1-8a1.416,1.416,0,0,0-.843-1.509l-2.125-.949a1.416,1.416,0,0,0-1.983.977Z" transform="translate(-56.914 -89.984)" fill="url(#linear-gradient-32)"/>
      <g id="Grupo_58575" data-name="Grupo 58575" transform="translate(29.748 6.757)">
        <path id="Trazado_119352" data-name="Trazado 119352" d="M97,97.16s2.734,1.848,3.909,6.558-.708,6.374-2.691,6.3a9.08,9.08,0,0,1-7.252-4.094C88.51,102.55,93.425,94.894,97,97.16Z" transform="translate(-87.003 -92.698)" fill="url(#linear-gradient-33)"/>
        <path id="Trazado_119353" data-name="Trazado 119353" d="M92.086,102.341s-1-6.749,4.6-5.723L97.83,97.8s2.741-3.088-.3-5.425-7.252-1.714-9.582,2.535-3.173,7.238-1.218,9.88,3.414.382,3.414.382-.9-2.288-.156-3.272,1.707.574,1.707.574Z" transform="translate(-85.643 -91.03)" fill="url(#linear-gradient-34)"/>
        <path id="Trazado_119354" data-name="Trazado 119354" d="M92.466,106.753s-.5-3.477-2.266-2.486.637,3.251,1.608,4.016Z" transform="translate(-86.788 -94.84)" fill="url(#linear-gradient-35)"/>
      </g>
      <g id="Grupo_58576" data-name="Grupo 58576" transform="translate(64.917)">
        <path id="Trazado_119355" data-name="Trazado 119355" d="M137.262,92.935c.043.411-1.48.708-1.962-1.048.135-.758.368-4.065.949-4.575a61.255,61.255,0,0,1,8.584-5.822,1.126,1.126,0,0,1-.191,1.558L141.9,84.9a11.332,11.332,0,0,1,.751,2.833,3.215,3.215,0,0,1-.814,2.245,27.445,27.445,0,0,1-1.948,2.047,3.18,3.18,0,0,1-2.628.907Z" transform="translate(-135.3 -81.49)" fill="url(#linear-gradient-36)"/>
        <path id="Trazado_119356" data-name="Trazado 119356" d="M139.445,93.41l-.418-.177a23.546,23.546,0,0,1,2.011-4,.984.984,0,0,0,.347-.644.51.51,0,0,0-.142-.283l-2.224,1.19-.977,1.537-.382-.248,1.041-1.636,2.606-1.416.113.092a1,1,0,0,1,.418.708,1.325,1.325,0,0,1-.475.984A22.1,22.1,0,0,0,139.445,93.41Z" transform="translate(-135.989 -83.311)" fill="url(#linear-gradient-37)"/>
      </g>
      <g id="Grupo_58577" data-name="Grupo 58577" transform="translate(33.119 45.029)">
        <path id="Trazado_119357" data-name="Trazado 119357" d="M91.307,173.331h23a1.02,1.02,0,1,0,0-2.033H91.371a1.02,1.02,0,0,0-.057,2.033Z" transform="translate(-90.403 -152.721)" fill="url(#linear-gradient-38)"/>
        <path id="Trazado_119358" data-name="Trazado 119358" d="M140.387,145.07H121.265a3.647,3.647,0,0,0-3.293,2.068l-8.832,18.527h23.74a2.224,2.224,0,0,0,2.061-1.416l6.87-17.1a1.509,1.509,0,0,0-1.424-2.075Z" transform="translate(-95.87 -145.07)" fill="url(#linear-gradient-39)"/>
        <ellipse id="Elipse_4657" data-name="Elipse 4657" cx="2.422" cy="1.501" rx="2.422" ry="1.501" transform="translate(30.053 11.428) rotate(-71.928)" fill="url(#linear-gradient-40)"/>
      </g>
      <path id="Trazado_119359" data-name="Trazado 119359" d="M78.433,134.65c-3.13,3.159-7.082,17.16-5.128,19.5,1.756,2.705,7.635,6.431,13.265,6.431h8.322c-3.485-3.7-5.885-4.646-8.747-2.054-2.266-.97-5.213-4.724-7.174-6.374a2.125,2.125,0,0,1-.439-2.649c1.565-2.642,3.541-5.361,4.143-7.989C82.782,138.439,80.5,134.9,78.433,134.65Z" transform="translate(-52.143 -97)" fill="url(#linear-gradient-41)"/>
    </g>
    <g id="Grupo_58584" data-name="Grupo 58584" transform="translate(112.876 69.343)">
      <g id="Grupo_58582" data-name="Grupo 58582" transform="translate(0 6.644)">
        <ellipse id="Elipse_4658" data-name="Elipse 4658" cx="34.3" cy="34.3" rx="34.3" ry="34.3" transform="translate(0 67.559) rotate(-80.01)" fill="#fff" opacity="0.57"/>
        <g id="Grupo_58579" data-name="Grupo 58579" transform="translate(9.28 9.312)">
          <ellipse id="Elipse_4659" data-name="Elipse 4659" cx="29.278" cy="29.278" rx="29.278" ry="29.278" transform="translate(1.176 1.147)" fill="url(#linear-gradient-42)"/>
          <path id="Trazado_119360" data-name="Trazado 119360" d="M210.184,213.488a30.454,30.454,0,1,1,30.454-30.454,30.454,30.454,0,0,1-30.454,30.454Zm0-58.55a28.067,28.067,0,1,0,28.067,28.067,28.067,28.067,0,0,0-28.067-28.067Z" transform="translate(-179.73 -152.58)" fill="#fff"/>
        </g>
        <g id="Grupo_58580" data-name="Grupo 58580" transform="translate(18.26 18.256)">
          <ellipse id="Elipse_4660" data-name="Elipse 4660" cx="17.847" cy="17.847" rx="17.847" ry="17.847" transform="translate(0 34.74) rotate(-76.72)" fill="url(#linear-gradient-43)"/>
          <path id="Trazado_119361" data-name="Trazado 119361" d="M214.879,206.737a19.059,19.059,0,1,1,19.059-19.051A19.059,19.059,0,0,1,214.879,206.737Zm0-35.695a16.655,16.655,0,1,0,0-.028Z" transform="translate(-193.405 -166.204)" fill="#fff"/>
        </g>
        <g id="Grupo_58581" data-name="Grupo 58581" transform="translate(31.61 31.145)">
          <ellipse id="Elipse_4661" data-name="Elipse 4661" cx="6.942" cy="6.942" rx="6.942" ry="6.942" transform="translate(0.629 13.41) rotate(-74.995)" fill="url(#linear-gradient-44)"/>
          <path id="Trazado_119362" data-name="Trazado 119362" d="M219.383,200.307a8.123,8.123,0,1,1,8.123-8.123,8.123,8.123,0,0,1-8.123,8.123Zm0-13.832a5.7,5.7,0,1,1,0,.007Z" transform="translate(-211.26 -183.598)" fill="#fff"/>
        </g>
      </g>
      <g id="Grupo_58583" data-name="Grupo 58583" transform="translate(39.592)">
        <rect id="Rectángulo_6738" data-name="Rectángulo 6738" width="1.31" height="49.513" transform="translate(7.645 40.621) rotate(-135)" fill="url(#linear-gradient-45)"/>
        <path id="Trazado_119363" data-name="Trazado 119363" d="M229.9,182.97c.531-.531,3.031,1.969,2.5,2.5l-9.278,7.288a.368.368,0,0,1-.517-.517Z" transform="translate(-222.529 -145.469)" fill="url(#linear-gradient-46)"/>
        <path id="Trazado_119364" data-name="Trazado 119364" d="M278.679,138l4.71.467-6.466,6.466a9.986,9.986,0,0,1-8.053,2.883h0Z" transform="translate(-236.05 -132.37)" fill="url(#linear-gradient-47)"/>
        <path id="Trazado_119365" data-name="Trazado 119365" d="M277.356,134.76l-.467-4.71-6.466,6.466a9.986,9.986,0,0,0-2.883,8.053h0Z" transform="translate(-235.648 -130.05)" fill="url(#linear-gradient-48)"/>
      </g>
    </g>
  </g>
</svg>
