<svg xmlns="http://www.w3.org/2000/svg" xmlns:xlink="http://www.w3.org/1999/xlink" width="224.45" height="289.621" viewBox="0 0 224.45 289.621">
  <defs>
    <linearGradient id="linear-gradient" x1="0.237" y1="-0.212" x2="0.766" y2="1.22" gradientUnits="objectBoundingBox">
      <stop offset="0" stop-color="#fff"/>
      <stop offset="1" stop-color="#d2d1d1"/>
    </linearGradient>
  </defs>
  <g id="card5" transform="translate(-474.91 -5839.05)">
    <path id="Trazado_119744" data-name="Trazado 119744" d="M387.27,792.2h76.05a23.3,23.3,0,0,0,23.3-23.3V669l24.94-21.15-24.94-21.16V526.77a23.3,23.3,0,0,0-23.3-23.3H387.27Z" transform="translate(187.8 5336.391)" fill="#7f43bb"/>
    <g id="Grupo_58725" data-name="Grupo 58725" transform="translate(187.8 5336.391)" opacity="0.8">
      <rect id="Rectángulo_8143" data-name="Rectángulo 8143" width="155.01" height="245.05" rx="46.05" transform="translate(328.46 543.19)" fill="#fff" opacity="0"/>
      <rect id="Rectángulo_8144" data-name="Rectángulo 8144" width="155.01" height="245.05" rx="46.05" transform="translate(328.28 543.01)" fill="#f8f8f8" opacity="0.01"/>
      <rect id="Rectángulo_8145" data-name="Rectángulo 8145" width="155.01" height="245.05" rx="46.05" transform="translate(328.09 542.83)" fill="#f6f6f6" opacity="0.02"/>
      <rect id="Rectángulo_8146" data-name="Rectángulo 8146" width="155.01" height="245.05" rx="46.05" transform="translate(327.91 542.65)" fill="#f4f4f4" opacity="0.03"/>
      <rect id="Rectángulo_8147" data-name="Rectángulo 8147" width="155.01" height="245.05" rx="46.05" transform="translate(327.72 542.48)" fill="#f2f2f2" opacity="0.04"/>
      <rect id="Rectángulo_8148" data-name="Rectángulo 8148" width="155.01" height="245.05" rx="46.05" transform="translate(327.54 542.3)" fill="#f0f0f0" opacity="0.05"/>
      <rect id="Rectángulo_8149" data-name="Rectángulo 8149" width="155.01" height="245.05" rx="46.05" transform="translate(327.35 542.12)" fill="#eee" opacity="0.06"/>
      <rect id="Rectángulo_8150" data-name="Rectángulo 8150" width="155.01" height="245.05" rx="46.05" transform="translate(327.17 541.95)" fill="#ececec" opacity="0.07"/>
      <rect id="Rectángulo_8151" data-name="Rectángulo 8151" width="155.01" height="245.05" rx="46.05" transform="translate(326.98 541.77)" fill="#eaeaea" opacity="0.08"/>
      <rect id="Rectángulo_8152" data-name="Rectángulo 8152" width="155.01" height="245.05" rx="46.05" transform="translate(326.8 541.59)" fill="#e8e8e8" opacity="0.09"/>
      <rect id="Rectángulo_8153" data-name="Rectángulo 8153" width="155.01" height="245.05" rx="46.05" transform="translate(326.61 541.42)" fill="#e6e6e6" opacity="0.1"/>
      <rect id="Rectángulo_8154" data-name="Rectángulo 8154" width="155.01" height="245.05" rx="46.05" transform="translate(326.43 541.24)" fill="#e4e4e4" opacity="0.11"/>
      <rect id="Rectángulo_8155" data-name="Rectángulo 8155" width="155.01" height="245.05" rx="46.05" transform="translate(326.24 541.06)" fill="#e2e2e2" opacity="0.12"/>
      <rect id="Rectángulo_8156" data-name="Rectángulo 8156" width="155.01" height="245.05" rx="46.05" transform="translate(326.06 540.89)" fill="#e0e0e0" opacity="0.13"/>
      <rect id="Rectángulo_8157" data-name="Rectángulo 8157" width="155.01" height="245.05" rx="46.05" transform="translate(325.87 540.71)" fill="#dedede" opacity="0.14"/>
      <rect id="Rectángulo_8158" data-name="Rectángulo 8158" width="155.01" height="245.05" rx="46.05" transform="translate(325.69 540.53)" fill="#dcdcdc" opacity="0.15"/>
      <rect id="Rectángulo_8159" data-name="Rectángulo 8159" width="155.01" height="245.05" rx="46.05" transform="translate(325.5 540.35)" fill="#dadada" opacity="0.16"/>
      <rect id="Rectángulo_8160" data-name="Rectángulo 8160" width="155.01" height="245.05" rx="46.05" transform="translate(325.32 540.18)" fill="#d8d8d8" opacity="0.17"/>
      <rect id="Rectángulo_8161" data-name="Rectángulo 8161" width="155.01" height="245.05" rx="46.05" transform="translate(325.13 540)" fill="#d6d6d6" opacity="0.18"/>
      <rect id="Rectángulo_8162" data-name="Rectángulo 8162" width="155.01" height="245.05" rx="46.05" transform="translate(324.95 539.82)" fill="#d4d4d4" opacity="0.19"/>
      <rect id="Rectángulo_8163" data-name="Rectángulo 8163" width="155.01" height="245.05" rx="46.05" transform="translate(324.76 539.65)" fill="#d2d2d2" opacity="0.2"/>
      <rect id="Rectángulo_8164" data-name="Rectángulo 8164" width="155.01" height="245.05" rx="46.05" transform="translate(324.58 539.47)" fill="#d0d0d0" opacity="0.21"/>
      <rect id="Rectángulo_8165" data-name="Rectángulo 8165" width="155.01" height="245.05" rx="46.05" transform="translate(324.39 539.29)" fill="#cecece" opacity="0.22"/>
      <rect id="Rectángulo_8166" data-name="Rectángulo 8166" width="155.01" height="245.05" rx="46.05" transform="translate(324.21 539.12)" fill="#ccc" opacity="0.23"/>
      <rect id="Rectángulo_8167" data-name="Rectángulo 8167" width="155.01" height="245.05" rx="46.05" transform="translate(324.02 538.94)" fill="#cacaca" opacity="0.24"/>
      <rect id="Rectángulo_8168" data-name="Rectángulo 8168" width="155.01" height="245.05" rx="46.05" transform="translate(323.84 538.76)" fill="#c8c8c8" opacity="0.25"/>
      <rect id="Rectángulo_8169" data-name="Rectángulo 8169" width="155.01" height="245.05" rx="46.05" transform="translate(323.65 538.58)" fill="#c5c5c5" opacity="0.26"/>
      <rect id="Rectángulo_8170" data-name="Rectángulo 8170" width="155.01" height="245.05" rx="46.05" transform="translate(323.47 538.41)" fill="#c3c3c3" opacity="0.27"/>
      <rect id="Rectángulo_8171" data-name="Rectángulo 8171" width="155.01" height="245.05" rx="46.05" transform="translate(323.28 538.23)" fill="#c1c1c1" opacity="0.28"/>
      <rect id="Rectángulo_8172" data-name="Rectángulo 8172" width="155.01" height="245.05" rx="46.05" transform="translate(323.1 538.05)" fill="#bfbfbf" opacity="0.29"/>
      <rect id="Rectángulo_8173" data-name="Rectángulo 8173" width="155.01" height="245.05" rx="46.05" transform="translate(322.91 537.88)" fill="#bdbdbd" opacity="0.3"/>
      <rect id="Rectángulo_8174" data-name="Rectángulo 8174" width="155.01" height="245.05" rx="46.05" transform="translate(322.73 537.7)" fill="#bbb" opacity="0.31"/>
      <rect id="Rectángulo_8175" data-name="Rectángulo 8175" width="155.01" height="245.05" rx="46.05" transform="translate(322.54 537.52)" fill="#b9b9b9" opacity="0.32"/>
      <rect id="Rectángulo_8176" data-name="Rectángulo 8176" width="155.01" height="245.05" rx="46.05" transform="translate(322.36 537.35)" fill="#b7b7b7" opacity="0.33"/>
      <rect id="Rectángulo_8177" data-name="Rectángulo 8177" width="155.01" height="245.05" rx="46.05" transform="translate(322.17 537.17)" fill="#b5b5b5" opacity="0.34"/>
      <rect id="Rectángulo_8178" data-name="Rectángulo 8178" width="155.01" height="245.05" rx="46.05" transform="translate(321.99 536.99)" fill="#b3b3b3" opacity="0.35"/>
      <rect id="Rectángulo_8179" data-name="Rectángulo 8179" width="155.01" height="245.05" rx="46.05" transform="translate(321.8 536.81)" fill="#b1b1b1" opacity="0.36"/>
      <rect id="Rectángulo_8180" data-name="Rectángulo 8180" width="155.01" height="245.05" rx="46.05" transform="translate(321.62 536.64)" fill="#afafaf" opacity="0.37"/>
      <rect id="Rectángulo_8181" data-name="Rectángulo 8181" width="155.01" height="245.05" rx="46.05" transform="translate(321.43 536.46)" fill="#adadad" opacity="0.38"/>
      <rect id="Rectángulo_8182" data-name="Rectángulo 8182" width="155.01" height="245.05" rx="46.05" transform="translate(321.25 536.28)" fill="#ababab" opacity="0.39"/>
      <rect id="Rectángulo_8183" data-name="Rectángulo 8183" width="155.01" height="245.05" rx="46.05" transform="translate(321.06 536.11)" fill="#a9a9a9" opacity="0.4"/>
      <rect id="Rectángulo_8184" data-name="Rectángulo 8184" width="155.01" height="245.05" rx="46.05" transform="translate(320.88 535.93)" fill="#a7a7a7" opacity="0.41"/>
      <rect id="Rectángulo_8185" data-name="Rectángulo 8185" width="155.01" height="245.05" rx="46.05" transform="translate(320.69 535.75)" fill="#a5a5a5" opacity="0.42"/>
      <rect id="Rectángulo_8186" data-name="Rectángulo 8186" width="155.01" height="245.05" rx="46.05" transform="translate(320.51 535.58)" fill="#a3a3a3" opacity="0.43"/>
      <rect id="Rectángulo_8187" data-name="Rectángulo 8187" width="155.01" height="245.05" rx="46.05" transform="translate(320.32 535.4)" fill="#a1a1a1" opacity="0.44"/>
      <rect id="Rectángulo_8188" data-name="Rectángulo 8188" width="155.01" height="245.05" rx="46.05" transform="translate(320.14 535.22)" fill="#9f9f9f" opacity="0.45"/>
      <rect id="Rectángulo_8189" data-name="Rectángulo 8189" width="155.01" height="245.05" rx="46.05" transform="translate(319.95 535.04)" fill="#9d9d9d" opacity="0.46"/>
      <rect id="Rectángulo_8190" data-name="Rectángulo 8190" width="155.01" height="245.05" rx="46.05" transform="translate(319.76 534.87)" fill="#9b9b9b" opacity="0.47"/>
      <rect id="Rectángulo_8191" data-name="Rectángulo 8191" width="155.01" height="245.05" rx="46.05" transform="translate(319.58 534.69)" fill="#999" opacity="0.48"/>
      <rect id="Rectángulo_8192" data-name="Rectángulo 8192" width="155.01" height="245.05" rx="46.05" transform="translate(319.39 534.51)" fill="#979797" opacity="0.49"/>
      <rect id="Rectángulo_8193" data-name="Rectángulo 8193" width="155.01" height="245.05" rx="46.05" transform="translate(319.21 534.34)" fill="#959595" opacity="0.5"/>
      <rect id="Rectángulo_8194" data-name="Rectángulo 8194" width="155.01" height="245.05" rx="46.05" transform="translate(319.02 534.16)" fill="#939393" opacity="0.5"/>
      <rect id="Rectángulo_8195" data-name="Rectángulo 8195" width="155.01" height="245.05" rx="46.05" transform="translate(318.84 533.98)" fill="#919191" opacity="0.51"/>
      <rect id="Rectángulo_8196" data-name="Rectángulo 8196" width="155.01" height="245.05" rx="46.05" transform="translate(318.65 533.81)" fill="#8f8f8f" opacity="0.52"/>
      <rect id="Rectángulo_8197" data-name="Rectángulo 8197" width="155.01" height="245.05" rx="46.05" transform="translate(318.47 533.63)" fill="#8d8d8d" opacity="0.53"/>
      <rect id="Rectángulo_8198" data-name="Rectángulo 8198" width="155.01" height="245.05" rx="46.05" transform="translate(318.28 533.45)" fill="#8b8b8b" opacity="0.54"/>
      <rect id="Rectángulo_8199" data-name="Rectángulo 8199" width="155.01" height="245.05" rx="46.05" transform="translate(318.1 533.28)" fill="#898989" opacity="0.55"/>
      <rect id="Rectángulo_8200" data-name="Rectángulo 8200" width="155.01" height="245.05" rx="46.05" transform="translate(317.91 533.1)" fill="#878787" opacity="0.56"/>
      <rect id="Rectángulo_8201" data-name="Rectángulo 8201" width="155.01" height="245.05" rx="46.05" transform="translate(317.73 532.92)" fill="#858585" opacity="0.57"/>
      <rect id="Rectángulo_8202" data-name="Rectángulo 8202" width="155.01" height="245.05" rx="46.05" transform="translate(317.54 532.74)" fill="#838383" opacity="0.58"/>
      <rect id="Rectángulo_8203" data-name="Rectángulo 8203" width="155.01" height="245.05" rx="46.05" transform="translate(317.36 532.57)" fill="#818181" opacity="0.59"/>
      <rect id="Rectángulo_8204" data-name="Rectángulo 8204" width="155.01" height="245.05" rx="46.05" transform="translate(317.17 532.39)" fill="gray" opacity="0.6"/>
      <rect id="Rectángulo_8205" data-name="Rectángulo 8205" width="155.01" height="245.05" rx="46.05" transform="translate(316.99 532.21)" fill="gray" opacity="0.61"/>
      <rect id="Rectángulo_8206" data-name="Rectángulo 8206" width="155.01" height="245.05" rx="46.05" transform="translate(316.8 532.04)" fill="gray" opacity="0.62"/>
      <rect id="Rectángulo_8207" data-name="Rectángulo 8207" width="155.01" height="245.05" rx="46.05" transform="translate(316.62 531.86)" fill="#7e7e7e" opacity="0.63"/>
      <rect id="Rectángulo_8208" data-name="Rectángulo 8208" width="155.01" height="245.05" rx="46.05" transform="translate(316.43 531.68)" fill="#7c7c7c" opacity="0.64"/>
      <rect id="Rectángulo_8209" data-name="Rectángulo 8209" width="155.01" height="245.05" rx="46.05" transform="translate(316.25 531.51)" fill="#7a7a7a" opacity="0.65"/>
      <rect id="Rectángulo_8210" data-name="Rectángulo 8210" width="155.01" height="245.05" rx="46.05" transform="translate(316.06 531.33)" fill="#787878" opacity="0.66"/>
      <rect id="Rectángulo_8211" data-name="Rectángulo 8211" width="155.01" height="245.05" rx="46.05" transform="translate(315.88 531.15)" fill="#767676" opacity="0.67"/>
      <rect id="Rectángulo_8212" data-name="Rectángulo 8212" width="155.01" height="245.05" rx="46.05" transform="translate(315.69 530.97)" fill="#747474" opacity="0.68"/>
      <rect id="Rectángulo_8213" data-name="Rectángulo 8213" width="155.01" height="245.05" rx="46.05" transform="translate(315.51 530.8)" fill="#727272" opacity="0.69"/>
      <rect id="Rectángulo_8214" data-name="Rectángulo 8214" width="155.01" height="245.05" rx="46.05" transform="translate(315.32 530.62)" fill="#707070" opacity="0.7"/>
      <rect id="Rectángulo_8215" data-name="Rectángulo 8215" width="155.01" height="245.05" rx="46.05" transform="translate(315.14 530.44)" fill="#6e6e6e" opacity="0.71"/>
      <rect id="Rectángulo_8216" data-name="Rectángulo 8216" width="155.01" height="245.05" rx="46.05" transform="translate(314.95 530.27)" fill="#6c6c6c" opacity="0.72"/>
      <rect id="Rectángulo_8217" data-name="Rectángulo 8217" width="155.01" height="245.05" rx="46.05" transform="translate(314.77 530.09)" fill="#6a6a6a" opacity="0.73"/>
      <rect id="Rectángulo_8218" data-name="Rectángulo 8218" width="155.01" height="245.05" rx="46.05" transform="translate(314.58 529.91)" fill="#686868" opacity="0.74"/>
      <rect id="Rectángulo_8219" data-name="Rectángulo 8219" width="155.01" height="245.05" rx="46.05" transform="translate(314.4 529.74)" fill="#656565" opacity="0.75"/>
      <rect id="Rectángulo_8220" data-name="Rectángulo 8220" width="155.01" height="245.05" rx="46.05" transform="translate(314.21 529.56)" fill="#636363" opacity="0.76"/>
      <rect id="Rectángulo_8221" data-name="Rectángulo 8221" width="155.01" height="245.05" rx="46.05" transform="translate(314.03 529.38)" fill="#616161" opacity="0.77"/>
      <rect id="Rectángulo_8222" data-name="Rectángulo 8222" width="155.01" height="245.05" rx="46.05" transform="translate(313.84 529.2)" fill="#5f5f5f" opacity="0.78"/>
      <rect id="Rectángulo_8223" data-name="Rectángulo 8223" width="155.01" height="245.05" rx="46.05" transform="translate(313.66 529.03)" fill="#5d5d5d" opacity="0.79"/>
      <rect id="Rectángulo_8224" data-name="Rectángulo 8224" width="155.01" height="245.05" rx="46.05" transform="translate(313.47 528.85)" fill="#5b5b5b" opacity="0.8"/>
      <rect id="Rectángulo_8225" data-name="Rectángulo 8225" width="155.01" height="245.05" rx="46.05" transform="translate(313.29 528.67)" fill="#595959" opacity="0.81"/>
      <rect id="Rectángulo_8226" data-name="Rectángulo 8226" width="155.01" height="245.05" rx="46.05" transform="translate(313.1 528.5)" fill="#575757" opacity="0.82"/>
      <rect id="Rectángulo_8227" data-name="Rectángulo 8227" width="155.01" height="245.05" rx="46.05" transform="translate(312.92 528.32)" fill="#555" opacity="0.83"/>
      <rect id="Rectángulo_8228" data-name="Rectángulo 8228" width="155.01" height="245.05" rx="46.05" transform="translate(312.73 528.14)" fill="#535353" opacity="0.84"/>
      <rect id="Rectángulo_8229" data-name="Rectángulo 8229" width="155.01" height="245.05" rx="46.05" transform="translate(312.55 527.97)" fill="#515151" opacity="0.85"/>
      <rect id="Rectángulo_8230" data-name="Rectángulo 8230" width="155.01" height="245.05" rx="46.05" transform="translate(312.36 527.79)" fill="#4f4f4f" opacity="0.86"/>
      <rect id="Rectángulo_8231" data-name="Rectángulo 8231" width="155.01" height="245.05" rx="46.05" transform="translate(312.18 527.61)" fill="#4d4d4d" opacity="0.87"/>
      <rect id="Rectángulo_8232" data-name="Rectángulo 8232" width="155.01" height="245.05" rx="46.05" transform="translate(311.99 527.44)" fill="#4b4b4b" opacity="0.88"/>
      <rect id="Rectángulo_8233" data-name="Rectángulo 8233" width="155.01" height="245.05" rx="46.05" transform="translate(311.81 527.26)" fill="#494949" opacity="0.89"/>
      <rect id="Rectángulo_8234" data-name="Rectángulo 8234" width="155.01" height="245.05" rx="46.05" transform="translate(311.62 527.08)" fill="#474747" opacity="0.9"/>
      <rect id="Rectángulo_8235" data-name="Rectángulo 8235" width="155.01" height="245.05" rx="46.05" transform="translate(311.44 526.9)" fill="#454545" opacity="0.91"/>
      <rect id="Rectángulo_8236" data-name="Rectángulo 8236" width="155.01" height="245.05" rx="46.05" transform="translate(311.25 526.73)" fill="#434343" opacity="0.92"/>
      <rect id="Rectángulo_8237" data-name="Rectángulo 8237" width="155.01" height="245.05" rx="46.05" transform="translate(311.07 526.55)" fill="#414141" opacity="0.93"/>
      <rect id="Rectángulo_8238" data-name="Rectángulo 8238" width="155.01" height="245.05" rx="46.05" transform="translate(310.88 526.37)" fill="#3f3f3f" opacity="0.94"/>
      <rect id="Rectángulo_8239" data-name="Rectángulo 8239" width="155.01" height="245.05" rx="46.05" transform="translate(310.7 526.2)" fill="#3d3d3d" opacity="0.95"/>
      <rect id="Rectángulo_8240" data-name="Rectángulo 8240" width="155.01" height="245.05" rx="46.05" transform="translate(310.51 526.02)" fill="#3b3b3b" opacity="0.96"/>
      <rect id="Rectángulo_8241" data-name="Rectángulo 8241" width="155.01" height="245.05" rx="46.05" transform="translate(310.33 525.84)" fill="#393939" opacity="0.97"/>
      <rect id="Rectángulo_8242" data-name="Rectángulo 8242" width="155.01" height="245.05" rx="46.05" transform="translate(310.14 525.67)" fill="#373737" opacity="0.98"/>
      <rect id="Rectángulo_8243" data-name="Rectángulo 8243" width="155.01" height="245.05" rx="46.05" transform="translate(309.96 525.49)" fill="#353535" opacity="0.99"/>
      <rect id="Rectángulo_8244" data-name="Rectángulo 8244" width="155.01" height="245.05" rx="46.05" transform="translate(309.77 525.31)" fill="#333"/>
    </g>
    <g id="Grupo_58726" data-name="Grupo 58726" transform="translate(187.8 5336.391)">
      <rect id="Rectángulo_8245" data-name="Rectángulo 8245" width="249.9" height="159.86" rx="51.4" transform="translate(467.2 522.88) rotate(90)" fill="url(#linear-gradient)"/>
      <rect id="Rectángulo_8246" data-name="Rectángulo 8246" width="245.05" height="155.01" rx="46.05" transform="translate(464.78 525.31) rotate(90)" fill="#ededed"/>
    </g>
    <g id="Grupo_58727" data-name="Grupo 58727" transform="translate(187.8 5336.391)">
      <rect id="Rectángulo_8247" data-name="Rectángulo 8247" width="1.71" height="1.71" transform="translate(385.56 790.57)" fill="#4d4d4d"/>
      <path id="Trazado_119745" data-name="Trazado 119745" d="M380.38,792.28h-3.45v-1.71h3.45Zm-8.64,0h-3.45v-1.71h3.45Zm-8.63,0h-3.46v-1.71h3.46Zm-8.64,0H351v-1.71h3.46Zm-8.64,0h-3.45v-1.71h3.45Zm-8.63,0h-3.46v-1.71h3.46Zm-8.64,0H325.1v-1.71h3.46Zm-8.64,0h-3.45v-1.71h3.45Zm-8.64,0h0a24.068,24.068,0,0,1-3.51-.26l.25-1.69a22.159,22.159,0,0,0,3.26.24Zm-8.75-1.62a23.857,23.857,0,0,1-3.23-1.53l.84-1.49a23,23,0,0,0,3,1.43ZM295,786a24.173,24.173,0,0,1-2.46-2.6l1.33-1.08a22.679,22.679,0,0,0,2.29,2.41Zm-5.36-7.1a23.736,23.736,0,0,1-1.36-3.31l1.63-.53a22.129,22.129,0,0,0,1.26,3.08Zm-2.43-8.56c-.06-.73-.1-1.46-.1-2.2v-1.33h1.72v1.33q0,1,.09,2Zm1.62-8.72h-1.72v-3.45h1.72Zm0-8.63h-1.72v-3.46h1.72Zm0-8.64h-1.72V740.9h1.72Zm0-8.64h-1.72v-3.45h1.72Zm0-8.63h-1.72V723.6h1.72Zm0-8.64h-1.72V715h1.72Zm0-8.64h-1.72v-3.45h1.72Zm0-8.63h-1.72v-3.46h1.72Zm0-8.64h-1.72v-3.45h1.72Zm0-8.64h-1.72v-3.45h1.72Zm0-8.63h-1.72V671.8h1.72Zm0-8.64h-1.72v-3.45h1.72Zm0-34.55h-1.72V628.6h1.72Zm0-8.63h-1.72V620h1.72Zm0-8.64h-1.72v-3.46h1.72Zm0-8.64h-1.72v-3.45h1.72Zm0-8.63h-1.72v-3.46h1.72Zm0-8.64h-1.72v-3.46h1.72Zm0-8.64h-1.72V576.8h1.72Zm0-8.64h-1.72v-3.45h1.72Zm0-8.63h-1.72V559.5h1.72Zm0-8.64h-1.72v-3.45h1.72Zm0-8.64h-1.72v-3.45h1.72Zm0-8.63h-1.72v-3.46h1.72Zm0-8.64h-1.72v-.84a24.322,24.322,0,0,1,.15-2.7l1.71.194a20.994,20.994,0,0,0-.14,2.51Zm1.21-8.23-1.62-.54a25.76,25.76,0,0,1,1.37-3.3l1.53.77a24.244,24.244,0,0,0-1.32,3.05Zm4-7.28-1.34-1.07a25.133,25.133,0,0,1,2.42-2.63l1.17,1.24A23.865,23.865,0,0,0,294,512.9Zm6.22-5.48-.88-1.46a23.362,23.362,0,0,1,3.2-1.61l.65,1.58a22.272,22.272,0,0,0-3.04,1.47Zm80.14-2.36h-3.46v-1.71h3.46Zm-8.64-.09h-3.45v-1.71h3.46Zm-8.64-.09h-3.45v-1.71h3.45Zm-8.63-.1h-3.46v-1.72h3.46Zm-8.64-.09H342.4v-1.72h3.45Zm-8.63-.09h-3.46v-1.71h3.45Zm-29.21,0-.27-1.69a23.612,23.612,0,0,1,3.56-.27v1.71a21.31,21.31,0,0,0-3.36.21Zm20.57-.07h-3.46v-1.71h3.46Zm-8.64-.09h-3.45v-1.71h3.45Z" fill="#4d4d4d"/>
      <rect id="Rectángulo_8248" data-name="Rectángulo 8248" width="1.71" height="1.71" transform="translate(385.582 505.15) rotate(-89.38)" fill="#4d4d4d"/>
    </g>
    <g id="Grupo" transform="translate(187.8 5336.391)">
      <path id="Trazado_119854" data-name="Trazado 119854" d="M2.93,0H1.43V-11.375h1.5ZM6.813-8.453l.047,1.063A3.08,3.08,0,0,1,9.391-8.609q2.68,0,2.7,3.023V0H10.648V-5.594a1.946,1.946,0,0,0-.418-1.352,1.675,1.675,0,0,0-1.277-.437,2.086,2.086,0,0,0-1.234.375,2.546,2.546,0,0,0-.828.984V0H5.445V-8.453ZM16.234-10.5v2.047h1.578v1.117H16.234v5.249a1.173,1.173,0,0,0,.211.763.888.888,0,0,0,.719.254,3.5,3.5,0,0,0,.688-.094V0a4.215,4.215,0,0,1-1.109.155A1.8,1.8,0,0,1,15.281-.43a2.517,2.517,0,0,1-.492-1.664V-7.336H13.25V-8.453h1.539V-10.5ZM23.008.156a3.693,3.693,0,0,1-2.8-1.129,4.19,4.19,0,0,1-1.078-3.02v-.266a5.073,5.073,0,0,1,.48-2.246,3.748,3.748,0,0,1,1.344-1.547,3.378,3.378,0,0,1,1.871-.559,3.166,3.166,0,0,1,2.563,1.086A4.7,4.7,0,0,1,26.3-4.414v.6H20.578a3,3,0,0,0,.73,2.02,2.3,2.3,0,0,0,1.777.77,2.517,2.517,0,0,0,1.3-.312,3.259,3.259,0,0,0,.93-.828l.883.688A3.55,3.55,0,0,1,23.008.156Zm-.18-7.578a1.928,1.928,0,0,0-1.469.637A3.1,3.1,0,0,0,20.625-5h4.234v-.109a2.753,2.753,0,0,0-.594-1.707A1.815,1.815,0,0,0,22.828-7.422Z" transform="translate(347.94 598.56)"/>
      <path id="Trazado_119865" data-name="Trazado 119865" d="M5.18-7.156a4.331,4.331,0,0,0-.711-.055A1.9,1.9,0,0,0,2.539-6V0H1.094V-8.453H2.5l.023.977A2.251,2.251,0,0,1,4.539-8.609,1.477,1.477,0,0,1,5.18-8.5Z" transform="translate(374.82 598.56)"/>
      <path id="Trazado_119856" data-name="Trazado 119856" d="M3.883-1.961,5.977-8.453H7.453L4.422,0H3.32L.258-8.453H1.734ZM10.414,0H8.969V-8.453h1.445ZM8.852-10.7a.863.863,0,0,1,.215-.594.807.807,0,0,1,.637-.242.819.819,0,0,1,.641.242.854.854,0,0,1,.219.594.826.826,0,0,1-.219.586.834.834,0,0,1-.641.234.821.821,0,0,1-.637-.234A.834.834,0,0,1,8.852-10.7ZM16.234.156a3.693,3.693,0,0,1-2.8-1.129,4.19,4.19,0,0,1-1.078-3.02v-.266A5.073,5.073,0,0,1,12.84-6.5a3.748,3.748,0,0,1,1.344-1.547,3.378,3.378,0,0,1,1.871-.559,3.166,3.166,0,0,1,2.563,1.086,4.7,4.7,0,0,1,.914,3.109v.6H13.8a3,3,0,0,0,.73,2.02,2.3,2.3,0,0,0,1.777.77,2.517,2.517,0,0,0,1.3-.312,3.259,3.259,0,0,0,.93-.828l.883.688A3.55,3.55,0,0,1,16.234.156Zm-.18-7.578a1.928,1.928,0,0,0-1.469.637A3.1,3.1,0,0,0,13.852-5h4.234v-.109a2.753,2.753,0,0,0-.594-1.707A1.815,1.815,0,0,0,16.055-7.422ZM22.57-8.453l.047,1.063a3.08,3.08,0,0,1,2.531-1.219q2.68,0,2.7,3.023V0H26.406V-5.594a1.946,1.946,0,0,0-.418-1.352,1.675,1.675,0,0,0-1.277-.437,2.086,2.086,0,0,0-1.234.375,2.546,2.546,0,0,0-.828.984V0H21.2V-8.453ZM33.539.156a3.693,3.693,0,0,1-2.8-1.129,4.19,4.19,0,0,1-1.078-3.02v-.266a5.073,5.073,0,0,1,.48-2.246,3.748,3.748,0,0,1,1.344-1.547,3.378,3.378,0,0,1,1.871-.559,3.166,3.166,0,0,1,2.563,1.086,4.7,4.7,0,0,1,.914,3.109v.6H31.109a3,3,0,0,0,.73,2.02,2.3,2.3,0,0,0,1.777.77,2.517,2.517,0,0,0,1.3-.312,3.259,3.259,0,0,0,.93-.828l.883.688A3.55,3.55,0,0,1,33.539.156Zm-.18-7.578a1.928,1.928,0,0,0-1.469.637A3.1,3.1,0,0,0,31.156-5h4.234v-.109A2.753,2.753,0,0,0,34.8-6.816,1.815,1.815,0,0,0,33.359-7.422Zm6.516-1.031.047,1.063a3.08,3.08,0,0,1,2.531-1.219q2.68,0,2.7,3.023V0H43.711V-5.594a1.946,1.946,0,0,0-.418-1.352,1.675,1.675,0,0,0-1.277-.437,2.086,2.086,0,0,0-1.234.375,2.546,2.546,0,0,0-.828.984V0H38.508V-8.453Z" transform="translate(380.38 598.56)"/>
      <path id="Trazado_119855" data-name="Trazado 119855" d="M6.313-.836A3.07,3.07,0,0,1,3.836.156,2.628,2.628,0,0,1,1.777-.629a3.4,3.4,0,0,1-.715-2.324v-5.5H2.508v5.461q0,1.922,1.563,1.922A2.163,2.163,0,0,0,6.273-2.3V-8.453H7.719V0H6.344Zm4.969-7.617.047,1.063a3.08,3.08,0,0,1,2.531-1.219q2.68,0,2.7,3.023V0H15.117V-5.594A1.946,1.946,0,0,0,14.7-6.945a1.675,1.675,0,0,0-1.277-.437,2.086,2.086,0,0,0-1.234.375,2.546,2.546,0,0,0-.828.984V0H9.914V-8.453ZM18.359-4.3a4.993,4.993,0,0,1,.488-2.234A3.643,3.643,0,0,1,20.207-8.07,3.7,3.7,0,0,1,22.2-8.609a3.565,3.565,0,0,1,2.793,1.2,4.6,4.6,0,0,1,1.066,3.18v.1a5.036,5.036,0,0,1-.473,2.215A3.589,3.589,0,0,1,24.23-.391a3.743,3.743,0,0,1-2.02.547,3.556,3.556,0,0,1-2.785-1.2A4.575,4.575,0,0,1,18.359-4.2Zm1.453.172a3.616,3.616,0,0,0,.652,2.258,2.088,2.088,0,0,0,1.746.852,2.075,2.075,0,0,0,1.75-.863A3.955,3.955,0,0,0,24.609-4.3a3.61,3.61,0,0,0-.66-2.254A2.1,2.1,0,0,0,22.2-7.422a2.075,2.075,0,0,0-1.727.852A3.925,3.925,0,0,0,19.813-4.133ZM31.445-4.3a4.993,4.993,0,0,1,.488-2.234A3.643,3.643,0,0,1,33.293-8.07a3.7,3.7,0,0,1,1.988-.539,3.565,3.565,0,0,1,2.793,1.2,4.6,4.6,0,0,1,1.066,3.18v.1a5.036,5.036,0,0,1-.473,2.215A3.589,3.589,0,0,1,37.316-.391,3.743,3.743,0,0,1,35.3.156a3.556,3.556,0,0,1-2.785-1.2A4.575,4.575,0,0,1,31.445-4.2Zm1.453.172a3.616,3.616,0,0,0,.652,2.258,2.088,2.088,0,0,0,1.746.852,2.075,2.075,0,0,0,1.75-.863A3.955,3.955,0,0,0,37.7-4.3a3.61,3.61,0,0,0-.66-2.254,2.1,2.1,0,0,0-1.754-.863,2.075,2.075,0,0,0-1.727.852A3.925,3.925,0,0,0,32.9-4.133Zm13.375-4.32.039.938A3.122,3.122,0,0,1,48.82-8.609,2.417,2.417,0,0,1,51.234-7.25a3.2,3.2,0,0,1,1.1-.984,3.242,3.242,0,0,1,1.6-.375q2.781,0,2.828,2.945V0H55.313V-5.578A1.941,1.941,0,0,0,54.9-6.934a1.823,1.823,0,0,0-1.391-.449,1.917,1.917,0,0,0-1.336.48,1.949,1.949,0,0,0-.617,1.293V0H50.1V-5.539a1.613,1.613,0,0,0-1.8-1.844,1.934,1.934,0,0,0-1.945,1.211V0H44.906V-8.453ZM64.156,0a3.036,3.036,0,0,1-.2-.891A3.225,3.225,0,0,1,61.547.156,2.984,2.984,0,0,1,59.5-.551a2.287,2.287,0,0,1-.8-1.793,2.39,2.39,0,0,1,1-2.051,4.733,4.733,0,0,1,2.824-.73H63.93v-.664A1.623,1.623,0,0,0,63.477-7a1.821,1.821,0,0,0-1.336-.449,2.107,2.107,0,0,0-1.3.391,1.151,1.151,0,0,0-.523.945H58.867a2,2,0,0,1,.449-1.223,3.066,3.066,0,0,1,1.219-.934,4.1,4.1,0,0,1,1.691-.344,3.342,3.342,0,0,1,2.289.73,2.635,2.635,0,0,1,.859,2.012v3.891a4.757,4.757,0,0,0,.3,1.852V0Zm-2.4-1.1a2.54,2.54,0,0,0,1.289-.352,2.127,2.127,0,0,0,.883-.914V-4.1H62.8q-2.656,0-2.656,1.555a1.316,1.316,0,0,0,.453,1.063A1.742,1.742,0,0,0,61.758-1.1ZM63.094-12h1.75L62.75-9.7l-1.164,0Zm9.469,9.758a1.064,1.064,0,0,0-.441-.91,4.249,4.249,0,0,0-1.539-.559,7.277,7.277,0,0,1-1.742-.562,2.479,2.479,0,0,1-.953-.781,1.869,1.869,0,0,1-.309-1.078,2.193,2.193,0,0,1,.879-1.758A3.432,3.432,0,0,1,70.7-8.609a3.532,3.532,0,0,1,2.332.742,2.357,2.357,0,0,1,.895,1.9H72.477a1.3,1.3,0,0,0-.5-1.023,1.888,1.888,0,0,0-1.27-.43,1.976,1.976,0,0,0-1.234.344,1.082,1.082,0,0,0-.445.9.877.877,0,0,0,.414.789,5.1,5.1,0,0,0,1.5.508,7.8,7.8,0,0,1,1.754.578,2.558,2.558,0,0,1,1,.809,1.988,1.988,0,0,1,.324,1.152A2.163,2.163,0,0,1,73.1-.527,3.8,3.8,0,0,1,70.75.156a4.257,4.257,0,0,1-1.8-.359,2.922,2.922,0,0,1-1.223-1A2.42,2.42,0,0,1,67.289-2.6h1.445a1.5,1.5,0,0,0,.582,1.152,2.258,2.258,0,0,0,1.434.426,2.331,2.331,0,0,0,1.316-.332A1.02,1.02,0,0,0,72.563-2.242Z" transform="translate(349.88 617.76)"/>
      <path id="Trazado_119864" data-name="Trazado 119864" d="M2.664,0H1.219V-8.453H2.664ZM1.1-10.7a.863.863,0,0,1,.215-.594.807.807,0,0,1,.637-.242.819.819,0,0,1,.641.242.854.854,0,0,1,.219.594.826.826,0,0,1-.219.586.834.834,0,0,1-.641.234.821.821,0,0,1-.637-.234A.834.834,0,0,1,1.1-10.7ZM6.344-8.453l.047,1.063A3.08,3.08,0,0,1,8.922-8.609q2.68,0,2.7,3.023V0H10.18V-5.594a1.946,1.946,0,0,0-.418-1.352,1.675,1.675,0,0,0-1.277-.437,2.086,2.086,0,0,0-1.234.375,2.546,2.546,0,0,0-.828.984V0H4.977V-8.453ZM15.766-10.5v2.047h1.578v1.117H15.766v5.249a1.173,1.173,0,0,0,.211.763.888.888,0,0,0,.719.254,3.5,3.5,0,0,0,.688-.094V0a4.215,4.215,0,0,1-1.109.155A1.8,1.8,0,0,1,14.813-.43a2.517,2.517,0,0,1-.492-1.664V-7.336H12.781V-8.453H14.32V-10.5ZM22.539.156a3.693,3.693,0,0,1-2.8-1.129,4.19,4.19,0,0,1-1.078-3.02v-.266a5.073,5.073,0,0,1,.48-2.246,3.748,3.748,0,0,1,1.344-1.547,3.378,3.378,0,0,1,1.871-.559,3.166,3.166,0,0,1,2.563,1.086,4.7,4.7,0,0,1,.914,3.109v.6H20.109a3,3,0,0,0,.73,2.02,2.3,2.3,0,0,0,1.777.77,2.517,2.517,0,0,0,1.3-.312,3.259,3.259,0,0,0,.93-.828l.883.688A3.55,3.55,0,0,1,22.539.156Zm-.18-7.578a1.928,1.928,0,0,0-1.469.637A3.1,3.1,0,0,0,20.156-5h4.234v-.109A2.753,2.753,0,0,0,23.8-6.816,1.815,1.815,0,0,0,22.359-7.422Zm9.234.266a4.331,4.331,0,0,0-.711-.055A1.9,1.9,0,0,0,28.953-6V0H27.508V-8.453h1.406l.023.977a2.251,2.251,0,0,1,2.016-1.133,1.477,1.477,0,0,1,.641.109Zm2.688-1.3.039.938a3.122,3.122,0,0,1,2.508-1.094A2.417,2.417,0,0,1,39.242-7.25a3.2,3.2,0,0,1,1.1-.984,3.242,3.242,0,0,1,1.6-.375q2.781,0,2.828,2.945V0H43.32V-5.578a1.941,1.941,0,0,0-.414-1.355,1.823,1.823,0,0,0-1.391-.449,1.917,1.917,0,0,0-1.336.48,1.949,1.949,0,0,0-.617,1.293V0H38.109V-5.539a1.613,1.613,0,0,0-1.8-1.844,1.934,1.934,0,0,0-1.945,1.211V0H32.914V-8.453ZM50.453.156a3.693,3.693,0,0,1-2.8-1.129,4.19,4.19,0,0,1-1.078-3.02v-.266a5.073,5.073,0,0,1,.48-2.246A3.748,3.748,0,0,1,48.4-8.051a3.378,3.378,0,0,1,1.871-.559,3.166,3.166,0,0,1,2.563,1.086,4.7,4.7,0,0,1,.914,3.109v.6H48.023a3,3,0,0,0,.73,2.02,2.3,2.3,0,0,0,1.777.77,2.517,2.517,0,0,0,1.3-.312,3.259,3.259,0,0,0,.93-.828l.883.688A3.55,3.55,0,0,1,50.453.156Zm-.18-7.578a1.928,1.928,0,0,0-1.469.637A3.1,3.1,0,0,0,48.07-5H52.3v-.109a2.753,2.753,0,0,0-.594-1.707A1.815,1.815,0,0,0,50.273-7.422ZM55.07-4.3a4.952,4.952,0,0,1,.922-3.129,2.915,2.915,0,0,1,2.414-1.184,2.932,2.932,0,0,1,2.352,1.016V-12H62.2V0H60.875L60.8-.906A2.943,2.943,0,0,1,58.391.156,2.887,2.887,0,0,1,56-1.047a5.008,5.008,0,0,1-.926-3.141Zm1.445.164a3.749,3.749,0,0,0,.594,2.25,1.92,1.92,0,0,0,1.641.813A2.108,2.108,0,0,0,60.758-2.3V-6.187a2.125,2.125,0,0,0-1.992-1.2,1.929,1.929,0,0,0-1.656.82A4.128,4.128,0,0,0,56.516-4.133ZM66.016,0H64.57V-8.453h1.445ZM64.453-10.7a.863.863,0,0,1,.215-.594.807.807,0,0,1,.637-.242.819.819,0,0,1,.641.242.854.854,0,0,1,.219.594.826.826,0,0,1-.219.586.834.834,0,0,1-.641.234.821.821,0,0,1-.637-.234A.834.834,0,0,1,64.453-10.7ZM73.547,0a3.036,3.036,0,0,1-.2-.891A3.225,3.225,0,0,1,70.938.156a2.984,2.984,0,0,1-2.051-.707,2.288,2.288,0,0,1-.8-1.793,2.39,2.39,0,0,1,1-2.051,4.733,4.733,0,0,1,2.824-.73H73.32v-.664A1.623,1.623,0,0,0,72.867-7a1.821,1.821,0,0,0-1.336-.449,2.108,2.108,0,0,0-1.3.391,1.151,1.151,0,0,0-.523.945H68.258a2,2,0,0,1,.449-1.223,3.066,3.066,0,0,1,1.219-.934,4.1,4.1,0,0,1,1.691-.344,3.342,3.342,0,0,1,2.289.73,2.635,2.635,0,0,1,.859,2.012v3.891a4.757,4.757,0,0,0,.3,1.852V0Zm-2.4-1.1a2.54,2.54,0,0,0,1.289-.352,2.127,2.127,0,0,0,.883-.914V-4.1H72.188q-2.656,0-2.656,1.555a1.316,1.316,0,0,0,.453,1.063A1.742,1.742,0,0,0,71.148-1.1Zm9.969-6.055a4.331,4.331,0,0,0-.711-.055A1.9,1.9,0,0,0,78.477-6V0H77.031V-8.453h1.406l.023.977a2.251,2.251,0,0,1,2.016-1.133,1.477,1.477,0,0,1,.641.109ZM84.016,0H82.57V-8.453h1.445ZM82.453-10.7a.863.863,0,0,1,.215-.594.807.807,0,0,1,.637-.242.819.819,0,0,1,.641.242.854.854,0,0,1,.219.594.826.826,0,0,1-.219.586.834.834,0,0,1-.641.234.821.821,0,0,1-.637-.234A.834.834,0,0,1,82.453-10.7ZM85.945-4.3a4.993,4.993,0,0,1,.488-2.234A3.643,3.643,0,0,1,87.793-8.07a3.7,3.7,0,0,1,1.988-.539,3.565,3.565,0,0,1,2.793,1.2,4.6,4.6,0,0,1,1.066,3.18v.1a5.036,5.036,0,0,1-.473,2.215A3.589,3.589,0,0,1,91.816-.391,3.743,3.743,0,0,1,89.8.156a3.556,3.556,0,0,1-2.785-1.2A4.575,4.575,0,0,1,85.945-4.2Zm1.453.172a3.616,3.616,0,0,0,.652,2.258,2.088,2.088,0,0,0,1.746.852,2.075,2.075,0,0,0,1.75-.863A3.955,3.955,0,0,0,92.2-4.3a3.61,3.61,0,0,0-.66-2.254,2.1,2.1,0,0,0-1.754-.863,2.075,2.075,0,0,0-1.727.852A3.925,3.925,0,0,0,87.4-4.133Zm12.977,1.891a1.064,1.064,0,0,0-.441-.91,4.249,4.249,0,0,0-1.539-.559,7.277,7.277,0,0,1-1.742-.562,2.479,2.479,0,0,1-.953-.781,1.869,1.869,0,0,1-.309-1.078,2.193,2.193,0,0,1,.879-1.758,3.432,3.432,0,0,1,2.246-.719,3.532,3.532,0,0,1,2.332.742,2.357,2.357,0,0,1,.895,1.9h-1.453a1.3,1.3,0,0,0-.5-1.023,1.888,1.888,0,0,0-1.27-.43,1.976,1.976,0,0,0-1.234.344,1.082,1.082,0,0,0-.445.9.877.877,0,0,0,.414.789,5.1,5.1,0,0,0,1.5.508A7.8,7.8,0,0,1,100.5-4.3a2.558,2.558,0,0,1,1,.809,1.988,1.988,0,0,1,.324,1.152,2.163,2.163,0,0,1-.906,1.816,3.8,3.8,0,0,1-2.352.684,4.257,4.257,0,0,1-1.8-.359,2.922,2.922,0,0,1-1.223-1A2.42,2.42,0,0,1,95.1-2.6h1.445a1.5,1.5,0,0,0,.582,1.152,2.258,2.258,0,0,0,1.434.426,2.331,2.331,0,0,0,1.316-.332A1.02,1.02,0,0,0,100.375-2.242Zm3.359,1.484a.905.905,0,0,1,.223-.625.848.848,0,0,1,.668-.25.874.874,0,0,1,.676.25.887.887,0,0,1,.23.625.839.839,0,0,1-.23.6.89.89,0,0,1-.676.242.863.863,0,0,1-.668-.242A.855.855,0,0,1,103.734-.758Z" transform="translate(333.87 636.96)"/>
      <path id="Trazado_119863" data-name="Trazado 119863" d="M1.32,0V-11.375H4.531a5.169,5.169,0,0,1,2.625.656A4.438,4.438,0,0,1,8.918-8.852,6.078,6.078,0,0,1,9.547-6.07v.727a6.1,6.1,0,0,1-.621,2.82A4.369,4.369,0,0,1,7.152-.664,5.5,5.5,0,0,1,4.469,0Zm1.5-10.148v8.922H4.4A3.434,3.434,0,0,0,7.1-2.306a4.458,4.458,0,0,0,.965-3.073v-.665a4.529,4.529,0,0,0-.91-3.014A3.239,3.239,0,0,0,4.57-10.148ZM15.094.156A3.693,3.693,0,0,1,12.3-.973a4.19,4.19,0,0,1-1.078-3.02v-.266A5.073,5.073,0,0,1,11.7-6.5a3.748,3.748,0,0,1,1.344-1.547,3.378,3.378,0,0,1,1.871-.559,3.166,3.166,0,0,1,2.563,1.086,4.7,4.7,0,0,1,.914,3.109v.6H12.664a3,3,0,0,0,.73,2.02,2.3,2.3,0,0,0,1.777.77,2.517,2.517,0,0,0,1.3-.312,3.259,3.259,0,0,0,.93-.828l.883.688A3.55,3.55,0,0,1,15.094.156Zm-.18-7.578a1.928,1.928,0,0,0-1.469.637A3.1,3.1,0,0,0,12.711-5h4.234v-.109a2.753,2.753,0,0,0-.594-1.707A1.815,1.815,0,0,0,14.914-7.422ZM21.43-8.453l.047,1.063a3.08,3.08,0,0,1,2.531-1.219q2.68,0,2.7,3.023V0H25.266V-5.594a1.946,1.946,0,0,0-.418-1.352,1.675,1.675,0,0,0-1.277-.437,2.086,2.086,0,0,0-1.234.375,2.546,2.546,0,0,0-.828.984V0H20.063V-8.453ZM30.852-10.5v2.047H32.43v1.117H30.852v5.249a1.173,1.173,0,0,0,.211.763.888.888,0,0,0,.719.254,3.5,3.5,0,0,0,.688-.094V0a4.215,4.215,0,0,1-1.109.155A1.8,1.8,0,0,1,29.9-.43a2.517,2.517,0,0,1-.492-1.664V-7.336H27.867V-8.453h1.539V-10.5Z" transform="translate(315 656.16)"/>
      <path id="Trazado_119862" data-name="Trazado 119862" d="M5.18-7.156a4.331,4.331,0,0,0-.711-.055A1.9,1.9,0,0,0,2.539-6V0H1.094V-8.453H2.5l.023.977A2.251,2.251,0,0,1,4.539-8.609,1.477,1.477,0,0,1,5.18-8.5Z" transform="translate(348.03 656.16)"/>
      <path id="Trazado_119861" data-name="Trazado 119861" d="M.711-4.3A4.993,4.993,0,0,1,1.2-6.539,3.643,3.643,0,0,1,2.559-8.07a3.7,3.7,0,0,1,1.988-.539,3.565,3.565,0,0,1,2.793,1.2,4.6,4.6,0,0,1,1.066,3.18v.1a5.036,5.036,0,0,1-.473,2.215A3.589,3.589,0,0,1,6.582-.391a3.743,3.743,0,0,1-2.02.547,3.556,3.556,0,0,1-2.785-1.2A4.575,4.575,0,0,1,.711-4.2Zm1.453.172a3.616,3.616,0,0,0,.652,2.258,2.088,2.088,0,0,0,1.746.852,2.075,2.075,0,0,0,1.75-.863A3.955,3.955,0,0,0,6.961-4.3,3.61,3.61,0,0,0,6.3-6.559a2.1,2.1,0,0,0-1.754-.863A2.075,2.075,0,0,0,2.82-6.57,3.925,3.925,0,0,0,2.164-4.133ZM13.828-4.3a4.952,4.952,0,0,1,.922-3.129,2.915,2.915,0,0,1,2.414-1.184,2.932,2.932,0,0,1,2.352,1.016V-12h1.445V0H19.633l-.07-.906A2.943,2.943,0,0,1,17.148.156a2.887,2.887,0,0,1-2.395-1.2,5.008,5.008,0,0,1-.926-3.141Zm1.445.164a3.749,3.749,0,0,0,.594,2.25,1.92,1.92,0,0,0,1.641.813A2.108,2.108,0,0,0,19.516-2.3V-6.187a2.125,2.125,0,0,0-1.992-1.2,1.929,1.929,0,0,0-1.656.82A4.128,4.128,0,0,0,15.273-4.133ZM26.711.156a3.693,3.693,0,0,1-2.8-1.129,4.19,4.19,0,0,1-1.078-3.02v-.266a5.073,5.073,0,0,1,.48-2.246A3.748,3.748,0,0,1,24.66-8.051a3.378,3.378,0,0,1,1.871-.559,3.166,3.166,0,0,1,2.563,1.086,4.7,4.7,0,0,1,.914,3.109v.6H24.281a3,3,0,0,0,.73,2.02,2.3,2.3,0,0,0,1.777.77,2.517,2.517,0,0,0,1.3-.312,3.259,3.259,0,0,0,.93-.828l.883.688A3.55,3.55,0,0,1,26.711.156Zm-.18-7.578a1.928,1.928,0,0,0-1.469.637A3.1,3.1,0,0,0,24.328-5h4.234v-.109a2.753,2.753,0,0,0-.594-1.707A1.815,1.815,0,0,0,26.531-7.422ZM37.211,0H35.766V-12h1.445Zm1.93-4.3a4.993,4.993,0,0,1,.488-2.234A3.643,3.643,0,0,1,40.988-8.07a3.7,3.7,0,0,1,1.988-.539,3.565,3.565,0,0,1,2.793,1.2,4.6,4.6,0,0,1,1.066,3.18v.1a5.036,5.036,0,0,1-.473,2.215A3.589,3.589,0,0,1,45.012-.391a3.743,3.743,0,0,1-2.02.547,3.556,3.556,0,0,1-2.785-1.2A4.575,4.575,0,0,1,39.141-4.2Zm1.453.172a3.616,3.616,0,0,0,.652,2.258,2.088,2.088,0,0,0,1.746.852,2.075,2.075,0,0,0,1.75-.863A3.955,3.955,0,0,0,45.391-4.3a3.61,3.61,0,0,0-.66-2.254,2.1,2.1,0,0,0-1.754-.863,2.075,2.075,0,0,0-1.727.852A3.925,3.925,0,0,0,40.594-4.133ZM53.57-2.242a1.064,1.064,0,0,0-.441-.91,4.249,4.249,0,0,0-1.539-.559,7.277,7.277,0,0,1-1.742-.562,2.479,2.479,0,0,1-.953-.781,1.869,1.869,0,0,1-.309-1.078,2.193,2.193,0,0,1,.879-1.758,3.432,3.432,0,0,1,2.246-.719,3.532,3.532,0,0,1,2.332.742,2.357,2.357,0,0,1,.895,1.9H53.484a1.3,1.3,0,0,0-.5-1.023,1.888,1.888,0,0,0-1.27-.43,1.976,1.976,0,0,0-1.234.344,1.082,1.082,0,0,0-.445.9.877.877,0,0,0,.414.789,5.1,5.1,0,0,0,1.5.508A7.8,7.8,0,0,1,53.7-4.3a2.558,2.558,0,0,1,1,.809,1.988,1.988,0,0,1,.324,1.152,2.163,2.163,0,0,1-.906,1.816,3.8,3.8,0,0,1-2.352.684,4.257,4.257,0,0,1-1.8-.359,2.922,2.922,0,0,1-1.223-1A2.42,2.42,0,0,1,48.3-2.6h1.445a1.5,1.5,0,0,0,.582,1.152,2.258,2.258,0,0,0,1.434.426,2.331,2.331,0,0,0,1.316-.332A1.02,1.02,0,0,0,53.57-2.242ZM64.25-1.023A2.082,2.082,0,0,0,65.6-1.492a1.649,1.649,0,0,0,.641-1.172h1.367a2.621,2.621,0,0,1-.5,1.383,3.293,3.293,0,0,1-1.23,1.047A3.55,3.55,0,0,1,64.25.156,3.482,3.482,0,0,1,61.5-1a4.59,4.59,0,0,1-1.02-3.152v-.242a5.089,5.089,0,0,1,.453-2.2,3.451,3.451,0,0,1,1.3-1.492,3.7,3.7,0,0,1,2-.531,3.39,3.39,0,0,1,2.363.852,3.043,3.043,0,0,1,1,2.211H66.242a1.992,1.992,0,0,0-.621-1.348,1.932,1.932,0,0,0-1.379-.527,2.023,2.023,0,0,0-1.707.793,3.724,3.724,0,0,0-.605,2.293v.273a3.65,3.65,0,0,0,.6,2.25A2.033,2.033,0,0,0,64.25-1.023Zm10.2.188a3.07,3.07,0,0,1-2.477.992,2.628,2.628,0,0,1-2.059-.785A3.4,3.4,0,0,1,69.2-2.953v-5.5h1.445v5.461q0,1.922,1.563,1.922a2.163,2.163,0,0,0,2.2-1.234V-8.453h1.445V0H74.484ZM83.273,0a3.036,3.036,0,0,1-.2-.891A3.225,3.225,0,0,1,80.664.156a2.984,2.984,0,0,1-2.051-.707,2.288,2.288,0,0,1-.8-1.793,2.39,2.39,0,0,1,1-2.051,4.733,4.733,0,0,1,2.824-.73h1.406v-.664A1.623,1.623,0,0,0,82.594-7a1.821,1.821,0,0,0-1.336-.449,2.108,2.108,0,0,0-1.3.391,1.151,1.151,0,0,0-.523.945H77.984a2,2,0,0,1,.449-1.223,3.066,3.066,0,0,1,1.219-.934,4.1,4.1,0,0,1,1.691-.344,3.342,3.342,0,0,1,2.289.73,2.635,2.635,0,0,1,.859,2.012v3.891a4.757,4.757,0,0,0,.3,1.852V0Zm-2.4-1.1a2.54,2.54,0,0,0,1.289-.352,2.127,2.127,0,0,0,.883-.914V-4.1H81.914q-2.656,0-2.656,1.555a1.316,1.316,0,0,0,.453,1.063A1.742,1.742,0,0,0,80.875-1.1ZM88.328,0H86.883V-12h1.445Zm5.82.156a3.693,3.693,0,0,1-2.8-1.129,4.19,4.19,0,0,1-1.078-3.02v-.266a5.073,5.073,0,0,1,.48-2.246A3.748,3.748,0,0,1,92.1-8.051a3.378,3.378,0,0,1,1.871-.559,3.166,3.166,0,0,1,2.563,1.086,4.7,4.7,0,0,1,.914,3.109v.6H91.719a3,3,0,0,0,.73,2.02,2.3,2.3,0,0,0,1.777.77,2.517,2.517,0,0,0,1.3-.312,3.259,3.259,0,0,0,.93-.828l.883.688A3.55,3.55,0,0,1,94.148.156Zm-.18-7.578a1.928,1.928,0,0,0-1.469.637A3.1,3.1,0,0,0,91.766-5H96v-.109a2.753,2.753,0,0,0-.594-1.707A1.815,1.815,0,0,0,93.969-7.422Zm10.07,5.18a1.064,1.064,0,0,0-.441-.91,4.249,4.249,0,0,0-1.539-.559,7.277,7.277,0,0,1-1.742-.562,2.479,2.479,0,0,1-.953-.781,1.869,1.869,0,0,1-.309-1.078,2.193,2.193,0,0,1,.879-1.758,3.432,3.432,0,0,1,2.246-.719,3.532,3.532,0,0,1,2.332.742,2.357,2.357,0,0,1,.895,1.9h-1.453a1.3,1.3,0,0,0-.5-1.023,1.888,1.888,0,0,0-1.27-.43,1.976,1.976,0,0,0-1.234.344,1.082,1.082,0,0,0-.445.9.877.877,0,0,0,.414.789,5.1,5.1,0,0,0,1.5.508,7.8,7.8,0,0,1,1.754.578,2.558,2.558,0,0,1,1,.809,1.988,1.988,0,0,1,.324,1.152,2.163,2.163,0,0,1-.906,1.816,3.8,3.8,0,0,1-2.352.684,4.257,4.257,0,0,1-1.8-.359,2.922,2.922,0,0,1-1.223-1A2.42,2.42,0,0,1,98.766-2.6h1.445a1.5,1.5,0,0,0,.582,1.152,2.258,2.258,0,0,0,1.434.426,2.331,2.331,0,0,0,1.316-.332A1.02,1.02,0,0,0,104.039-2.242Z" transform="translate(353.28 656.16)"/>
      <path id="Trazado_119860" data-name="Trazado 119860" d="M4.6.156A3.693,3.693,0,0,1,1.8-.973,4.19,4.19,0,0,1,.727-3.992v-.266A5.073,5.073,0,0,1,1.207-6.5,3.748,3.748,0,0,1,2.551-8.051a3.378,3.378,0,0,1,1.871-.559A3.166,3.166,0,0,1,6.984-7.523,4.7,4.7,0,0,1,7.9-4.414v.6H2.172a3,3,0,0,0,.73,2.02,2.3,2.3,0,0,0,1.777.77,2.517,2.517,0,0,0,1.3-.312,3.259,3.259,0,0,0,.93-.828l.883.688A3.55,3.55,0,0,1,4.6.156Zm-.18-7.578a1.928,1.928,0,0,0-1.469.637A3.1,3.1,0,0,0,2.219-5H6.453v-.109a2.753,2.753,0,0,0-.594-1.707A1.815,1.815,0,0,0,4.422-7.422Zm10.07,5.18a1.064,1.064,0,0,0-.441-.91,4.249,4.249,0,0,0-1.539-.559,7.277,7.277,0,0,1-1.742-.562,2.479,2.479,0,0,1-.953-.781,1.869,1.869,0,0,1-.309-1.078,2.193,2.193,0,0,1,.879-1.758,3.432,3.432,0,0,1,2.246-.719,3.532,3.532,0,0,1,2.332.742,2.357,2.357,0,0,1,.895,1.9H14.406a1.3,1.3,0,0,0-.5-1.023,1.888,1.888,0,0,0-1.27-.43,1.976,1.976,0,0,0-1.234.344,1.082,1.082,0,0,0-.445.9.877.877,0,0,0,.414.789,5.1,5.1,0,0,0,1.5.508,7.8,7.8,0,0,1,1.754.578,2.558,2.558,0,0,1,1,.809,1.988,1.988,0,0,1,.324,1.152,2.163,2.163,0,0,1-.906,1.816A3.8,3.8,0,0,1,12.68.156a4.257,4.257,0,0,1-1.8-.359,2.922,2.922,0,0,1-1.223-1A2.42,2.42,0,0,1,9.219-2.6h1.445a1.5,1.5,0,0,0,.582,1.152,2.258,2.258,0,0,0,1.434.426A2.331,2.331,0,0,0,14-1.355,1.02,1.02,0,0,0,14.492-2.242ZM19.781-10.5v2.047h1.578v1.117H19.781v5.249a1.173,1.173,0,0,0,.211.763.888.888,0,0,0,.719.254,3.5,3.5,0,0,0,.688-.094V0a4.215,4.215,0,0,1-1.109.155A1.8,1.8,0,0,1,18.828-.43a2.517,2.517,0,0,1-.492-1.664V-7.336H16.8V-8.453h1.539V-10.5ZM28.266,0a3.036,3.036,0,0,1-.2-.891A3.225,3.225,0,0,1,25.656.156a2.984,2.984,0,0,1-2.051-.707,2.287,2.287,0,0,1-.8-1.793,2.39,2.39,0,0,1,1-2.051,4.733,4.733,0,0,1,2.824-.73h1.406v-.664A1.623,1.623,0,0,0,27.586-7a1.821,1.821,0,0,0-1.336-.449,2.108,2.108,0,0,0-1.3.391,1.151,1.151,0,0,0-.523.945H22.977a2,2,0,0,1,.449-1.223,3.066,3.066,0,0,1,1.219-.934,4.1,4.1,0,0,1,1.691-.344,3.342,3.342,0,0,1,2.289.73,2.635,2.635,0,0,1,.859,2.012v3.891a4.757,4.757,0,0,0,.3,1.852V0Zm-2.4-1.1a2.54,2.54,0,0,0,1.289-.352,2.127,2.127,0,0,0,.883-.914V-4.1H26.906q-2.656,0-2.656,1.555A1.316,1.316,0,0,0,24.7-1.484,1.742,1.742,0,0,0,25.867-1.1ZM27.2-12h1.75L26.859-9.7l-1.164,0Zm5.914,3.547.047,1.063A3.08,3.08,0,0,1,35.7-8.609q2.68,0,2.7,3.023V0H36.953V-5.594a1.946,1.946,0,0,0-.418-1.352,1.675,1.675,0,0,0-1.277-.437,2.086,2.086,0,0,0-1.234.375,2.546,2.546,0,0,0-.828.984V0H31.75V-8.453Zm7.414,7.7a.905.905,0,0,1,.223-.625.848.848,0,0,1,.668-.25.874.874,0,0,1,.676.25.887.887,0,0,1,.23.625.839.839,0,0,1-.23.6.89.89,0,0,1-.676.242.863.863,0,0,1-.668-.242A.855.855,0,0,1,40.531-.758Zm.008-6.9a.905.905,0,0,1,.223-.625.848.848,0,0,1,.668-.25.874.874,0,0,1,.676.25.887.887,0,0,1,.23.625.839.839,0,0,1-.23.6.89.89,0,0,1-.676.242.863.863,0,0,1-.668-.242A.855.855,0,0,1,40.539-7.656ZM53.633,0a3.036,3.036,0,0,1-.2-.891A3.225,3.225,0,0,1,51.023.156a2.984,2.984,0,0,1-2.051-.707,2.287,2.287,0,0,1-.8-1.793,2.39,2.39,0,0,1,1-2.051A4.733,4.733,0,0,1,52-5.125h1.406v-.664A1.623,1.623,0,0,0,52.953-7a1.821,1.821,0,0,0-1.336-.449,2.107,2.107,0,0,0-1.3.391,1.151,1.151,0,0,0-.523.945H48.344a2,2,0,0,1,.449-1.223,3.066,3.066,0,0,1,1.219-.934A4.1,4.1,0,0,1,51.7-8.609a3.342,3.342,0,0,1,2.289.73,2.635,2.635,0,0,1,.859,2.012v3.891a4.757,4.757,0,0,0,.3,1.852V0Zm-2.4-1.1a2.54,2.54,0,0,0,1.289-.352,2.127,2.127,0,0,0,.883-.914V-4.1H52.273q-2.656,0-2.656,1.555a1.316,1.316,0,0,0,.453,1.063A1.742,1.742,0,0,0,51.234-1.1Zm5.539-3.2a4.968,4.968,0,0,1,.914-3.145,2.923,2.923,0,0,1,2.422-1.168,2.908,2.908,0,0,1,2.414,1.094l.07-.937h1.32V-.2a3.439,3.439,0,0,1-.973,2.586,3.589,3.589,0,0,1-2.613.945,4.348,4.348,0,0,1-1.789-.391A3.08,3.08,0,0,1,57.2,1.867L57.953,1a2.826,2.826,0,0,0,2.273,1.148,2.214,2.214,0,0,0,1.645-.594,2.269,2.269,0,0,0,.59-1.672V-.844a2.971,2.971,0,0,1-2.367,1,2.887,2.887,0,0,1-2.4-1.2A5.224,5.224,0,0,1,56.773-4.3Zm1.453.164a3.79,3.79,0,0,0,.586,2.246,1.9,1.9,0,0,0,1.641.816,2.117,2.117,0,0,0,2.008-1.242V-6.172a2.142,2.142,0,0,0-1.992-1.211,1.921,1.921,0,0,0-1.648.82A4.128,4.128,0,0,0,58.227-4.133ZM69.6.156A3.693,3.693,0,0,1,66.8-.973a4.19,4.19,0,0,1-1.078-3.02v-.266a5.073,5.073,0,0,1,.48-2.246,3.748,3.748,0,0,1,1.344-1.547,3.378,3.378,0,0,1,1.871-.559,3.166,3.166,0,0,1,2.563,1.086A4.7,4.7,0,0,1,72.9-4.414v.6H67.172a3,3,0,0,0,.73,2.02,2.3,2.3,0,0,0,1.777.77,2.517,2.517,0,0,0,1.3-.312,3.259,3.259,0,0,0,.93-.828l.883.688A3.55,3.55,0,0,1,69.6.156Zm-.18-7.578a1.928,1.928,0,0,0-1.469.637A3.1,3.1,0,0,0,67.219-5h4.234v-.109a2.753,2.753,0,0,0-.594-1.707A1.815,1.815,0,0,0,69.422-7.422Zm6.516-1.031.047,1.063a3.08,3.08,0,0,1,2.531-1.219q2.68,0,2.7,3.023V0H79.773V-5.594a1.946,1.946,0,0,0-.418-1.352,1.675,1.675,0,0,0-1.277-.437,2.086,2.086,0,0,0-1.234.375,2.546,2.546,0,0,0-.828.984V0H74.57V-8.453ZM85.359-10.5v2.047h1.578v1.117H85.359v5.249a1.173,1.173,0,0,0,.211.763.888.888,0,0,0,.719.254,3.5,3.5,0,0,0,.688-.094V0a4.215,4.215,0,0,1-1.109.155A1.8,1.8,0,0,1,84.406-.43a2.517,2.517,0,0,1-.492-1.664V-7.336H82.375V-8.453h1.539V-10.5ZM92.133.156a3.693,3.693,0,0,1-2.8-1.129,4.19,4.19,0,0,1-1.078-3.02v-.266a5.073,5.073,0,0,1,.48-2.246,3.748,3.748,0,0,1,1.344-1.547,3.378,3.378,0,0,1,1.871-.559,3.166,3.166,0,0,1,2.563,1.086,4.7,4.7,0,0,1,.914,3.109v.6H89.7a3,3,0,0,0,.73,2.02,2.3,2.3,0,0,0,1.777.77,2.517,2.517,0,0,0,1.3-.312,3.259,3.259,0,0,0,.93-.828l.883.688A3.55,3.55,0,0,1,92.133.156Zm-.18-7.578a1.928,1.928,0,0,0-1.469.637A3.1,3.1,0,0,0,89.75-5h4.234v-.109a2.753,2.753,0,0,0-.594-1.707A1.815,1.815,0,0,0,91.953-7.422Zm10.07,5.18a1.064,1.064,0,0,0-.441-.91,4.249,4.249,0,0,0-1.539-.559A7.277,7.277,0,0,1,98.3-4.273a2.479,2.479,0,0,1-.953-.781,1.869,1.869,0,0,1-.309-1.078,2.193,2.193,0,0,1,.879-1.758,3.432,3.432,0,0,1,2.246-.719,3.532,3.532,0,0,1,2.332.742,2.357,2.357,0,0,1,.895,1.9h-1.453a1.3,1.3,0,0,0-.5-1.023,1.888,1.888,0,0,0-1.27-.43,1.976,1.976,0,0,0-1.234.344,1.082,1.082,0,0,0-.445.9.877.877,0,0,0,.414.789,5.1,5.1,0,0,0,1.5.508,7.8,7.8,0,0,1,1.754.578,2.558,2.558,0,0,1,1,.809,1.988,1.988,0,0,1,.324,1.152,2.163,2.163,0,0,1-.906,1.816,3.8,3.8,0,0,1-2.352.684,4.257,4.257,0,0,1-1.8-.359,2.922,2.922,0,0,1-1.223-1A2.42,2.42,0,0,1,96.75-2.6H98.2a1.5,1.5,0,0,0,.582,1.152,2.258,2.258,0,0,0,1.434.426,2.331,2.331,0,0,0,1.316-.332A1.02,1.02,0,0,0,102.023-2.242ZM105.3,2.266l-.82-.562a3.77,3.77,0,0,0,.766-2.109v-1.3h1.414V-.578A3.559,3.559,0,0,1,106.277,1,3.7,3.7,0,0,1,105.3,2.266Z" transform="translate(333.58 675.36)"/>
      <path id="Trazado_119859" data-name="Trazado 119859" d="M2.453-8.453l.039.938A3.122,3.122,0,0,1,5-8.609,2.417,2.417,0,0,1,7.414-7.25a3.2,3.2,0,0,1,1.1-.984,3.242,3.242,0,0,1,1.6-.375q2.781,0,2.828,2.945V0H11.492V-5.578a1.941,1.941,0,0,0-.414-1.355,1.823,1.823,0,0,0-1.391-.449,1.916,1.916,0,0,0-1.336.48,1.949,1.949,0,0,0-.617,1.293V0H6.281V-5.539a1.613,1.613,0,0,0-1.8-1.844A1.934,1.934,0,0,0,2.531-6.172V0H1.086V-8.453Z" transform="translate(342.06 694.56)"/>
      <path id="Trazado_119858" data-name="Trazado 119858" d="M6.313,0a3.036,3.036,0,0,1-.2-.891A3.225,3.225,0,0,1,3.7.156,2.984,2.984,0,0,1,1.652-.551a2.287,2.287,0,0,1-.8-1.793,2.39,2.39,0,0,1,1-2.051,4.733,4.733,0,0,1,2.824-.73H6.086v-.664A1.623,1.623,0,0,0,5.633-7,1.821,1.821,0,0,0,4.3-7.445,2.107,2.107,0,0,0,3-7.055a1.151,1.151,0,0,0-.523.945H1.023a2,2,0,0,1,.449-1.223,3.066,3.066,0,0,1,1.219-.934,4.1,4.1,0,0,1,1.691-.344,3.342,3.342,0,0,1,2.289.73,2.635,2.635,0,0,1,.859,2.012v3.891a4.757,4.757,0,0,0,.3,1.852V0Zm-2.4-1.1A2.54,2.54,0,0,0,5.2-1.453a2.127,2.127,0,0,0,.883-.914V-4.1H4.953Q2.3-4.1,2.3-2.547A1.316,1.316,0,0,0,2.75-1.484,1.742,1.742,0,0,0,3.914-1.1ZM12.4-2.117l1.969-6.336h1.547L12.52,1.3q-.789,2.109-2.508,2.109l-.273-.023-.539-.1V2.117l.391.031a1.923,1.923,0,0,0,1.145-.3A2.148,2.148,0,0,0,11.41.766l.32-.859L8.715-8.453h1.578Z" transform="translate(356.08 694.56)"/>
      <path id="Trazado_119857" data-name="Trazado 119857" d="M.711-4.3A4.993,4.993,0,0,1,1.2-6.539,3.643,3.643,0,0,1,2.559-8.07a3.7,3.7,0,0,1,1.988-.539,3.565,3.565,0,0,1,2.793,1.2,4.6,4.6,0,0,1,1.066,3.18v.1a5.036,5.036,0,0,1-.473,2.215A3.589,3.589,0,0,1,6.582-.391a3.743,3.743,0,0,1-2.02.547,3.556,3.556,0,0,1-2.785-1.2A4.575,4.575,0,0,1,.711-4.2Zm1.453.172a3.616,3.616,0,0,0,.652,2.258,2.088,2.088,0,0,0,1.746.852,2.075,2.075,0,0,0,1.75-.863A3.955,3.955,0,0,0,6.961-4.3,3.61,3.61,0,0,0,6.3-6.559a2.1,2.1,0,0,0-1.754-.863A2.075,2.075,0,0,0,2.82-6.57,3.925,3.925,0,0,0,2.164-4.133ZM14.3-7.156a4.331,4.331,0,0,0-.711-.055A1.9,1.9,0,0,0,11.664-6V0H10.219V-8.453h1.406l.023.977a2.251,2.251,0,0,1,2.016-1.133A1.477,1.477,0,0,1,14.3-8.5ZM17.2,0H15.758V-8.453H17.2ZM15.641-10.7a.863.863,0,0,1,.215-.594.807.807,0,0,1,.637-.242.819.819,0,0,1,.641.242.854.854,0,0,1,.219.594.826.826,0,0,1-.219.586.834.834,0,0,1-.641.234.821.821,0,0,1-.637-.234A.834.834,0,0,1,15.641-10.7Zm8.8,8.453A1.064,1.064,0,0,0,24-3.152a4.249,4.249,0,0,0-1.539-.559,7.277,7.277,0,0,1-1.742-.562,2.479,2.479,0,0,1-.953-.781,1.869,1.869,0,0,1-.309-1.078,2.193,2.193,0,0,1,.879-1.758,3.432,3.432,0,0,1,2.246-.719,3.532,3.532,0,0,1,2.332.742,2.357,2.357,0,0,1,.895,1.9H24.352a1.3,1.3,0,0,0-.5-1.023,1.888,1.888,0,0,0-1.27-.43,1.976,1.976,0,0,0-1.234.344,1.082,1.082,0,0,0-.445.9.877.877,0,0,0,.414.789,5.1,5.1,0,0,0,1.5.508,7.8,7.8,0,0,1,1.754.578,2.558,2.558,0,0,1,1,.809,1.988,1.988,0,0,1,.324,1.152,2.163,2.163,0,0,1-.906,1.816,3.8,3.8,0,0,1-2.352.684,4.257,4.257,0,0,1-1.8-.359,2.922,2.922,0,0,1-1.223-1A2.42,2.42,0,0,1,19.164-2.6h1.445a1.5,1.5,0,0,0,.582,1.152,2.258,2.258,0,0,0,1.434.426,2.331,2.331,0,0,0,1.316-.332A1.02,1.02,0,0,0,24.438-2.242ZM29.727-10.5v2.047H31.3v1.117H29.727v5.249a1.173,1.173,0,0,0,.211.763.888.888,0,0,0,.719.254,3.5,3.5,0,0,0,.688-.094V0a4.215,4.215,0,0,1-1.109.155A1.8,1.8,0,0,1,28.773-.43a2.517,2.517,0,0,1-.492-1.664V-7.336H26.742V-8.453h1.539V-10.5ZM38.211,0a3.036,3.036,0,0,1-.2-.891A3.225,3.225,0,0,1,35.6.156a2.984,2.984,0,0,1-2.051-.707,2.287,2.287,0,0,1-.8-1.793,2.39,2.39,0,0,1,1-2.051,4.733,4.733,0,0,1,2.824-.73h1.406v-.664A1.623,1.623,0,0,0,37.531-7,1.821,1.821,0,0,0,36.2-7.445a2.107,2.107,0,0,0-1.3.391,1.151,1.151,0,0,0-.523.945H32.922a2,2,0,0,1,.449-1.223,3.066,3.066,0,0,1,1.219-.934,4.1,4.1,0,0,1,1.691-.344,3.342,3.342,0,0,1,2.289.73,2.635,2.635,0,0,1,.859,2.012v3.891a4.757,4.757,0,0,0,.3,1.852V0Zm-2.4-1.1A2.54,2.54,0,0,0,37.1-1.453a2.127,2.127,0,0,0,.883-.914V-4.1H36.852Q34.2-4.1,34.2-2.547a1.316,1.316,0,0,0,.453,1.063A1.742,1.742,0,0,0,35.813-1.1Zm10.8-1.141a1.064,1.064,0,0,0-.441-.91,4.249,4.249,0,0,0-1.539-.559,7.277,7.277,0,0,1-1.742-.562,2.479,2.479,0,0,1-.953-.781,1.869,1.869,0,0,1-.309-1.078,2.193,2.193,0,0,1,.879-1.758,3.432,3.432,0,0,1,2.246-.719,3.532,3.532,0,0,1,2.332.742,2.357,2.357,0,0,1,.895,1.9H46.531a1.3,1.3,0,0,0-.5-1.023,1.888,1.888,0,0,0-1.27-.43,1.976,1.976,0,0,0-1.234.344,1.082,1.082,0,0,0-.445.9.877.877,0,0,0,.414.789,5.1,5.1,0,0,0,1.5.508,7.8,7.8,0,0,1,1.754.578,2.558,2.558,0,0,1,1,.809,1.988,1.988,0,0,1,.324,1.152,2.163,2.163,0,0,1-.906,1.816A3.8,3.8,0,0,1,44.8.156a4.257,4.257,0,0,1-1.8-.359,2.922,2.922,0,0,1-1.223-1A2.42,2.42,0,0,1,41.344-2.6h1.445a1.5,1.5,0,0,0,.582,1.152,2.258,2.258,0,0,0,1.434.426,2.331,2.331,0,0,0,1.316-.332A1.02,1.02,0,0,0,46.617-2.242Zm10.055.125,1.969-6.336h1.547L56.789,1.3Q56,3.414,54.281,3.414l-.273-.023-.539-.1V2.117l.391.031A1.923,1.923,0,0,0,55,1.852,2.148,2.148,0,0,0,55.68.766L56-.094,52.984-8.453h1.578Z" transform="translate(372.12 694.56)"/>
      <path id="Trazado_119866" data-name="Trazado 119866" d="M2.453-8.453l.039.938A3.122,3.122,0,0,1,5-8.609,2.417,2.417,0,0,1,7.414-7.25a3.2,3.2,0,0,1,1.1-.984,3.242,3.242,0,0,1,1.6-.375q2.781,0,2.828,2.945V0H11.492V-5.578a1.941,1.941,0,0,0-.414-1.355,1.823,1.823,0,0,0-1.391-.449,1.916,1.916,0,0,0-1.336.48,1.949,1.949,0,0,0-.617,1.293V0H6.281V-5.539a1.613,1.613,0,0,0-1.8-1.844A1.934,1.934,0,0,0,2.531-6.172V0H1.086V-8.453ZM16.688,0H15.242V-8.453h1.445ZM15.125-10.7a.863.863,0,0,1,.215-.594.807.807,0,0,1,.637-.242.819.819,0,0,1,.641.242.854.854,0,0,1,.219.594.826.826,0,0,1-.219.586.834.834,0,0,1-.641.234.821.821,0,0,1-.637-.234A.834.834,0,0,1,15.125-10.7Zm5.242,2.242.047,1.063a3.08,3.08,0,0,1,2.531-1.219q2.68,0,2.7,3.023V0H24.2V-5.594a1.946,1.946,0,0,0-.418-1.352,1.675,1.675,0,0,0-1.277-.437,2.086,2.086,0,0,0-1.234.375,2.546,2.546,0,0,0-.828.984V0H19V-8.453ZM27.445-4.3a4.993,4.993,0,0,1,.488-2.234A3.643,3.643,0,0,1,29.293-8.07a3.7,3.7,0,0,1,1.988-.539,3.565,3.565,0,0,1,2.793,1.2,4.6,4.6,0,0,1,1.066,3.18v.1a5.036,5.036,0,0,1-.473,2.215A3.589,3.589,0,0,1,33.316-.391,3.743,3.743,0,0,1,31.3.156a3.556,3.556,0,0,1-2.785-1.2A4.575,4.575,0,0,1,27.445-4.2Zm1.453.172a3.616,3.616,0,0,0,.652,2.258,2.088,2.088,0,0,0,1.746.852,2.075,2.075,0,0,0,1.75-.863A3.955,3.955,0,0,0,33.7-4.3a3.61,3.61,0,0,0-.66-2.254,2.1,2.1,0,0,0-1.754-.863,2.075,2.075,0,0,0-1.727.852A3.925,3.925,0,0,0,28.9-4.133ZM41.039-7.156a4.331,4.331,0,0,0-.711-.055A1.9,1.9,0,0,0,38.4-6V0H36.953V-8.453h1.406l.023.977A2.251,2.251,0,0,1,40.4-8.609a1.477,1.477,0,0,1,.641.109ZM43.938,0H42.492V-8.453h1.445ZM42.375-10.7a.863.863,0,0,1,.215-.594.807.807,0,0,1,.637-.242.819.819,0,0,1,.641.242.854.854,0,0,1,.219.594.826.826,0,0,1-.219.586.834.834,0,0,1-.641.234.821.821,0,0,1-.637-.234A.834.834,0,0,1,42.375-10.7Zm8.8,8.453a1.064,1.064,0,0,0-.441-.91,4.249,4.249,0,0,0-1.539-.559,7.277,7.277,0,0,1-1.742-.562,2.479,2.479,0,0,1-.953-.781,1.869,1.869,0,0,1-.309-1.078,2.193,2.193,0,0,1,.879-1.758,3.432,3.432,0,0,1,2.246-.719,3.532,3.532,0,0,1,2.332.742,2.357,2.357,0,0,1,.895,1.9H51.086a1.3,1.3,0,0,0-.5-1.023,1.888,1.888,0,0,0-1.27-.43,1.976,1.976,0,0,0-1.234.344,1.082,1.082,0,0,0-.445.9.877.877,0,0,0,.414.789,5.1,5.1,0,0,0,1.5.508A7.8,7.8,0,0,1,51.3-4.3a2.558,2.558,0,0,1,1,.809,1.988,1.988,0,0,1,.324,1.152,2.163,2.163,0,0,1-.906,1.816,3.8,3.8,0,0,1-2.352.684,4.257,4.257,0,0,1-1.8-.359,2.922,2.922,0,0,1-1.223-1A2.42,2.42,0,0,1,45.9-2.6h1.445a1.5,1.5,0,0,0,.582,1.152,2.258,2.258,0,0,0,1.434.426,2.331,2.331,0,0,0,1.316-.332A1.02,1.02,0,0,0,51.172-2.242ZM56.461-10.5v2.047h1.578v1.117H56.461v5.249a1.173,1.173,0,0,0,.211.763.888.888,0,0,0,.719.254,3.5,3.5,0,0,0,.688-.094V0a4.215,4.215,0,0,1-1.109.155A1.8,1.8,0,0,1,55.508-.43a2.517,2.517,0,0,1-.492-1.664V-7.336H53.477V-8.453h1.539V-10.5ZM64.945,0a3.036,3.036,0,0,1-.2-.891A3.225,3.225,0,0,1,62.336.156a2.984,2.984,0,0,1-2.051-.707,2.287,2.287,0,0,1-.8-1.793,2.39,2.39,0,0,1,1-2.051,4.733,4.733,0,0,1,2.824-.73h1.406v-.664A1.623,1.623,0,0,0,64.266-7a1.821,1.821,0,0,0-1.336-.449,2.107,2.107,0,0,0-1.3.391,1.151,1.151,0,0,0-.523.945H59.656a2,2,0,0,1,.449-1.223,3.066,3.066,0,0,1,1.219-.934,4.1,4.1,0,0,1,1.691-.344,3.342,3.342,0,0,1,2.289.73,2.635,2.635,0,0,1,.859,2.012v3.891a4.757,4.757,0,0,0,.3,1.852V0Zm-2.4-1.1a2.54,2.54,0,0,0,1.289-.352,2.127,2.127,0,0,0,.883-.914V-4.1H63.586q-2.656,0-2.656,1.555a1.316,1.316,0,0,0,.453,1.063A1.742,1.742,0,0,0,62.547-1.1Zm10.8-1.141a1.064,1.064,0,0,0-.441-.91,4.249,4.249,0,0,0-1.539-.559,7.277,7.277,0,0,1-1.742-.562,2.479,2.479,0,0,1-.953-.781,1.869,1.869,0,0,1-.309-1.078,2.193,2.193,0,0,1,.879-1.758,3.432,3.432,0,0,1,2.246-.719,3.532,3.532,0,0,1,2.332.742,2.357,2.357,0,0,1,.895,1.9H73.266a1.3,1.3,0,0,0-.5-1.023,1.888,1.888,0,0,0-1.27-.43,1.976,1.976,0,0,0-1.234.344,1.082,1.082,0,0,0-.445.9.877.877,0,0,0,.414.789,5.1,5.1,0,0,0,1.5.508,7.8,7.8,0,0,1,1.754.578,2.558,2.558,0,0,1,1,.809A1.988,1.988,0,0,1,74.8-2.344a2.163,2.163,0,0,1-.906,1.816,3.8,3.8,0,0,1-2.352.684,4.257,4.257,0,0,1-1.8-.359,2.922,2.922,0,0,1-1.223-1A2.42,2.42,0,0,1,68.078-2.6h1.445a1.5,1.5,0,0,0,.582,1.152,2.258,2.258,0,0,0,1.434.426,2.331,2.331,0,0,0,1.316-.332A1.02,1.02,0,0,0,73.352-2.242ZM76.711-.758a.905.905,0,0,1,.223-.625.848.848,0,0,1,.668-.25.874.874,0,0,1,.676.25.887.887,0,0,1,.23.625.839.839,0,0,1-.23.6A.89.89,0,0,1,77.6.086a.863.863,0,0,1-.668-.242A.855.855,0,0,1,76.711-.758Z" transform="translate(347.38 713.76)"/>
    </g>
  </g>
</svg>
