<svg xmlns="http://www.w3.org/2000/svg" xmlns:xlink="http://www.w3.org/1999/xlink" width="224.5" height="289.78" viewBox="0 0 224.5 289.78">
  <defs>
    <linearGradient id="linear-gradient" x1="0.237" y1="-0.211" x2="0.766" y2="1.22" gradientUnits="objectBoundingBox">
      <stop offset="0" stop-color="#fff"/>
      <stop offset="1" stop-color="#d2d1d1"/>
    </linearGradient>
  </defs>
  <g id="card13" transform="translate(-924.29 -6479.44)">
    <path id="Trazado_119737" data-name="Trazado 119737" d="M836.69,1432.75h76a23.3,23.3,0,0,0,23.3-23.3v-99.91l25-21.16-25-21.15v-99.91a23.3,23.3,0,0,0-23.3-23.3h-76Z" transform="translate(187.8 5336.391)" fill="#ef2a93"/>
    <g id="Grupo_58713" data-name="Grupo 58713" transform="translate(187.8 5336.391)" opacity="0.8">
      <rect id="Rectángulo_7825" data-name="Rectángulo 7825" width="155.01" height="245.05" rx="46.05" transform="translate(777.88 1183.73)" fill="#fff" opacity="0"/>
      <rect id="Rectángulo_7826" data-name="Rectángulo 7826" width="155.01" height="245.05" rx="46.05" transform="translate(777.7 1183.56)" fill="#f8f8f8" opacity="0.01"/>
      <rect id="Rectángulo_7827" data-name="Rectángulo 7827" width="155.01" height="245.05" rx="46.05" transform="translate(777.51 1183.38)" fill="#f6f6f6" opacity="0.02"/>
      <rect id="Rectángulo_7828" data-name="Rectángulo 7828" width="155.01" height="245.05" rx="46.05" transform="translate(777.33 1183.2)" fill="#f4f4f4" opacity="0.03"/>
      <rect id="Rectángulo_7829" data-name="Rectángulo 7829" width="155.01" height="245.05" rx="46.05" transform="translate(777.14 1183.03)" fill="#f2f2f2" opacity="0.04"/>
      <rect id="Rectángulo_7830" data-name="Rectángulo 7830" width="155.01" height="245.05" rx="46.05" transform="translate(776.96 1182.85)" fill="#f0f0f0" opacity="0.05"/>
      <rect id="Rectángulo_7831" data-name="Rectángulo 7831" width="155.01" height="245.05" rx="46.05" transform="translate(776.77 1182.67)" fill="#eee" opacity="0.06"/>
      <rect id="Rectángulo_7832" data-name="Rectángulo 7832" width="155.01" height="245.05" rx="46.05" transform="translate(776.59 1182.49)" fill="#ececec" opacity="0.07"/>
      <rect id="Rectángulo_7833" data-name="Rectángulo 7833" width="155.01" height="245.05" rx="46.05" transform="translate(776.4 1182.32)" fill="#eaeaea" opacity="0.08"/>
      <rect id="Rectángulo_7834" data-name="Rectángulo 7834" width="155.01" height="245.05" rx="46.05" transform="translate(776.22 1182.14)" fill="#e8e8e8" opacity="0.09"/>
      <rect id="Rectángulo_7835" data-name="Rectángulo 7835" width="155.01" height="245.05" rx="46.05" transform="translate(776.03 1181.96)" fill="#e6e6e6" opacity="0.1"/>
      <rect id="Rectángulo_7836" data-name="Rectángulo 7836" width="155.01" height="245.05" rx="46.05" transform="translate(775.85 1181.79)" fill="#e4e4e4" opacity="0.11"/>
      <rect id="Rectángulo_7837" data-name="Rectángulo 7837" width="155.01" height="245.05" rx="46.05" transform="translate(775.66 1181.61)" fill="#e2e2e2" opacity="0.12"/>
      <rect id="Rectángulo_7838" data-name="Rectángulo 7838" width="155.01" height="245.05" rx="46.05" transform="translate(775.48 1181.43)" fill="#e0e0e0" opacity="0.13"/>
      <rect id="Rectángulo_7839" data-name="Rectángulo 7839" width="155.01" height="245.05" rx="46.05" transform="translate(775.29 1181.26)" fill="#dedede" opacity="0.14"/>
      <rect id="Rectángulo_7840" data-name="Rectángulo 7840" width="155.01" height="245.05" rx="46.05" transform="translate(775.1 1181.08)" fill="#dcdcdc" opacity="0.15"/>
      <rect id="Rectángulo_7841" data-name="Rectángulo 7841" width="155.01" height="245.05" rx="46.05" transform="translate(774.92 1180.9)" fill="#dadada" opacity="0.16"/>
      <rect id="Rectángulo_7842" data-name="Rectángulo 7842" width="155.01" height="245.05" rx="46.05" transform="translate(774.73 1180.72)" fill="#d8d8d8" opacity="0.17"/>
      <rect id="Rectángulo_7843" data-name="Rectángulo 7843" width="155.01" height="245.05" rx="46.05" transform="translate(774.55 1180.55)" fill="#d6d6d6" opacity="0.18"/>
      <rect id="Rectángulo_7844" data-name="Rectángulo 7844" width="155.01" height="245.05" rx="46.05" transform="translate(774.36 1180.37)" fill="#d4d4d4" opacity="0.19"/>
      <rect id="Rectángulo_7845" data-name="Rectángulo 7845" width="155.01" height="245.05" rx="46.05" transform="translate(774.18 1180.19)" fill="#d2d2d2" opacity="0.2"/>
      <rect id="Rectángulo_7846" data-name="Rectángulo 7846" width="155.01" height="245.05" rx="46.05" transform="translate(773.99 1180.02)" fill="#d0d0d0" opacity="0.21"/>
      <rect id="Rectángulo_7847" data-name="Rectángulo 7847" width="155.01" height="245.05" rx="46.05" transform="translate(773.81 1179.84)" fill="#cecece" opacity="0.22"/>
      <rect id="Rectángulo_7848" data-name="Rectángulo 7848" width="155.01" height="245.05" rx="46.05" transform="translate(773.62 1179.66)" fill="#ccc" opacity="0.23"/>
      <rect id="Rectángulo_7849" data-name="Rectángulo 7849" width="155.01" height="245.05" rx="46.05" transform="translate(773.44 1179.49)" fill="#cacaca" opacity="0.24"/>
      <rect id="Rectángulo_7850" data-name="Rectángulo 7850" width="155.01" height="245.05" rx="46.05" transform="translate(773.25 1179.31)" fill="#c8c8c8" opacity="0.25"/>
      <rect id="Rectángulo_7851" data-name="Rectángulo 7851" width="155.01" height="245.05" rx="46.05" transform="translate(773.07 1179.13)" fill="#c5c5c5" opacity="0.26"/>
      <rect id="Rectángulo_7852" data-name="Rectángulo 7852" width="155.01" height="245.05" rx="46.05" transform="translate(772.88 1178.96)" fill="#c3c3c3" opacity="0.27"/>
      <rect id="Rectángulo_7853" data-name="Rectángulo 7853" width="155.01" height="245.05" rx="46.05" transform="translate(772.7 1178.78)" fill="#c1c1c1" opacity="0.28"/>
      <rect id="Rectángulo_7854" data-name="Rectángulo 7854" width="155.01" height="245.05" rx="46.05" transform="translate(772.51 1178.6)" fill="#bfbfbf" opacity="0.29"/>
      <rect id="Rectángulo_7855" data-name="Rectángulo 7855" width="155.01" height="245.05" rx="46.05" transform="translate(772.33 1178.42)" fill="#bdbdbd" opacity="0.3"/>
      <rect id="Rectángulo_7856" data-name="Rectángulo 7856" width="155.01" height="245.05" rx="46.05" transform="translate(772.14 1178.25)" fill="#bbb" opacity="0.31"/>
      <rect id="Rectángulo_7857" data-name="Rectángulo 7857" width="155.01" height="245.05" rx="46.05" transform="translate(771.96 1178.07)" fill="#b9b9b9" opacity="0.32"/>
      <rect id="Rectángulo_7858" data-name="Rectángulo 7858" width="155.01" height="245.05" rx="46.05" transform="translate(771.77 1177.89)" fill="#b7b7b7" opacity="0.33"/>
      <rect id="Rectángulo_7859" data-name="Rectángulo 7859" width="155.01" height="245.05" rx="46.05" transform="translate(771.59 1177.72)" fill="#b5b5b5" opacity="0.34"/>
      <rect id="Rectángulo_7860" data-name="Rectángulo 7860" width="155.01" height="245.05" rx="46.05" transform="translate(771.4 1177.54)" fill="#b3b3b3" opacity="0.35"/>
      <rect id="Rectángulo_7861" data-name="Rectángulo 7861" width="155.01" height="245.05" rx="46.05" transform="translate(771.22 1177.36)" fill="#b1b1b1" opacity="0.36"/>
      <rect id="Rectángulo_7862" data-name="Rectángulo 7862" width="155.01" height="245.05" rx="46.05" transform="translate(771.03 1177.19)" fill="#afafaf" opacity="0.37"/>
      <rect id="Rectángulo_7863" data-name="Rectángulo 7863" width="155.01" height="245.05" rx="46.05" transform="translate(770.85 1177.01)" fill="#adadad" opacity="0.38"/>
      <rect id="Rectángulo_7864" data-name="Rectángulo 7864" width="155.01" height="245.05" rx="46.05" transform="translate(770.66 1176.83)" fill="#ababab" opacity="0.39"/>
      <rect id="Rectángulo_7865" data-name="Rectángulo 7865" width="155.01" height="245.05" rx="46.05" transform="translate(770.48 1176.65)" fill="#a9a9a9" opacity="0.4"/>
      <rect id="Rectángulo_7866" data-name="Rectángulo 7866" width="155.01" height="245.05" rx="46.05" transform="translate(770.29 1176.48)" fill="#a7a7a7" opacity="0.41"/>
      <rect id="Rectángulo_7867" data-name="Rectángulo 7867" width="155.01" height="245.05" rx="46.05" transform="translate(770.11 1176.3)" fill="#a5a5a5" opacity="0.42"/>
      <rect id="Rectángulo_7868" data-name="Rectángulo 7868" width="155.01" height="245.05" rx="46.05" transform="translate(769.92 1176.12)" fill="#a3a3a3" opacity="0.43"/>
      <rect id="Rectángulo_7869" data-name="Rectángulo 7869" width="155.01" height="245.05" rx="46.05" transform="translate(769.74 1175.95)" fill="#a1a1a1" opacity="0.44"/>
      <rect id="Rectángulo_7870" data-name="Rectángulo 7870" width="155.01" height="245.05" rx="46.05" transform="translate(769.55 1175.77)" fill="#9f9f9f" opacity="0.45"/>
      <rect id="Rectángulo_7871" data-name="Rectángulo 7871" width="155.01" height="245.05" rx="46.05" transform="translate(769.37 1175.59)" fill="#9d9d9d" opacity="0.46"/>
      <rect id="Rectángulo_7872" data-name="Rectángulo 7872" width="155.01" height="245.05" rx="46.05" transform="translate(769.18 1175.42)" fill="#9b9b9b" opacity="0.47"/>
      <rect id="Rectángulo_7873" data-name="Rectángulo 7873" width="155.01" height="245.05" rx="46.05" transform="translate(769 1175.24)" fill="#999" opacity="0.48"/>
      <rect id="Rectángulo_7874" data-name="Rectángulo 7874" width="155.01" height="245.05" rx="46.05" transform="translate(768.81 1175.06)" fill="#979797" opacity="0.49"/>
      <rect id="Rectángulo_7875" data-name="Rectángulo 7875" width="155.01" height="245.05" rx="46.05" transform="translate(768.63 1174.88)" fill="#959595" opacity="0.5"/>
      <rect id="Rectángulo_7876" data-name="Rectángulo 7876" width="155.01" height="245.05" rx="46.05" transform="translate(768.44 1174.71)" fill="#939393" opacity="0.5"/>
      <rect id="Rectángulo_7877" data-name="Rectángulo 7877" width="155.01" height="245.05" rx="46.05" transform="translate(768.26 1174.53)" fill="#919191" opacity="0.51"/>
      <rect id="Rectángulo_7878" data-name="Rectángulo 7878" width="155.01" height="245.05" rx="46.05" transform="translate(768.07 1174.35)" fill="#8f8f8f" opacity="0.52"/>
      <rect id="Rectángulo_7879" data-name="Rectángulo 7879" width="155.01" height="245.05" rx="46.05" transform="translate(767.89 1174.18)" fill="#8d8d8d" opacity="0.53"/>
      <rect id="Rectángulo_7880" data-name="Rectángulo 7880" width="155.01" height="245.05" rx="46.05" transform="translate(767.7 1174)" fill="#8b8b8b" opacity="0.54"/>
      <rect id="Rectángulo_7881" data-name="Rectángulo 7881" width="155.01" height="245.05" rx="46.05" transform="translate(767.52 1173.82)" fill="#898989" opacity="0.55"/>
      <rect id="Rectángulo_7882" data-name="Rectángulo 7882" width="155.01" height="245.05" rx="46.05" transform="translate(767.33 1173.65)" fill="#878787" opacity="0.56"/>
      <rect id="Rectángulo_7883" data-name="Rectángulo 7883" width="155.01" height="245.05" rx="46.05" transform="translate(767.15 1173.47)" fill="#858585" opacity="0.57"/>
      <rect id="Rectángulo_7884" data-name="Rectángulo 7884" width="155.01" height="245.05" rx="46.05" transform="translate(766.96 1173.29)" fill="#838383" opacity="0.58"/>
      <rect id="Rectángulo_7885" data-name="Rectángulo 7885" width="155.01" height="245.05" rx="46.05" transform="translate(766.78 1173.12)" fill="#818181" opacity="0.59"/>
      <rect id="Rectángulo_7886" data-name="Rectángulo 7886" width="155.01" height="245.05" rx="46.05" transform="translate(766.59 1172.94)" fill="gray" opacity="0.6"/>
      <rect id="Rectángulo_7887" data-name="Rectángulo 7887" width="155.01" height="245.05" rx="46.05" transform="translate(766.41 1172.76)" fill="gray" opacity="0.61"/>
      <rect id="Rectángulo_7888" data-name="Rectángulo 7888" width="155.01" height="245.05" rx="46.05" transform="translate(766.22 1172.58)" fill="gray" opacity="0.62"/>
      <rect id="Rectángulo_7889" data-name="Rectángulo 7889" width="155.01" height="245.05" rx="46.05" transform="translate(766.04 1172.41)" fill="#7e7e7e" opacity="0.63"/>
      <rect id="Rectángulo_7890" data-name="Rectángulo 7890" width="155.01" height="245.05" rx="46.05" transform="translate(765.85 1172.23)" fill="#7c7c7c" opacity="0.64"/>
      <rect id="Rectángulo_7891" data-name="Rectángulo 7891" width="155.01" height="245.05" rx="46.05" transform="translate(765.67 1172.05)" fill="#7a7a7a" opacity="0.65"/>
      <rect id="Rectángulo_7892" data-name="Rectángulo 7892" width="155.01" height="245.05" rx="46.05" transform="translate(765.48 1171.88)" fill="#787878" opacity="0.66"/>
      <rect id="Rectángulo_7893" data-name="Rectángulo 7893" width="155.01" height="245.05" rx="46.05" transform="translate(765.3 1171.7)" fill="#767676" opacity="0.67"/>
      <rect id="Rectángulo_7894" data-name="Rectángulo 7894" width="155.01" height="245.05" rx="46.05" transform="translate(765.11 1171.52)" fill="#747474" opacity="0.68"/>
      <rect id="Rectángulo_7895" data-name="Rectángulo 7895" width="155.01" height="245.05" rx="46.05" transform="translate(764.93 1171.35)" fill="#727272" opacity="0.69"/>
      <rect id="Rectángulo_7896" data-name="Rectángulo 7896" width="155.01" height="245.05" rx="46.05" transform="translate(764.74 1171.17)" fill="#707070" opacity="0.7"/>
      <rect id="Rectángulo_7897" data-name="Rectángulo 7897" width="155.01" height="245.05" rx="46.05" transform="translate(764.56 1170.99)" fill="#6e6e6e" opacity="0.71"/>
      <rect id="Rectángulo_7898" data-name="Rectángulo 7898" width="155.01" height="245.05" rx="46.05" transform="translate(764.37 1170.81)" fill="#6c6c6c" opacity="0.72"/>
      <rect id="Rectángulo_7899" data-name="Rectángulo 7899" width="155.01" height="245.05" rx="46.05" transform="translate(764.18 1170.64)" fill="#6a6a6a" opacity="0.73"/>
      <rect id="Rectángulo_7900" data-name="Rectángulo 7900" width="155.01" height="245.05" rx="46.05" transform="translate(764 1170.46)" fill="#686868" opacity="0.74"/>
      <rect id="Rectángulo_7901" data-name="Rectángulo 7901" width="155.01" height="245.05" rx="46.05" transform="translate(763.81 1170.28)" fill="#656565" opacity="0.75"/>
      <rect id="Rectángulo_7902" data-name="Rectángulo 7902" width="155.01" height="245.05" rx="46.05" transform="translate(763.63 1170.11)" fill="#636363" opacity="0.76"/>
      <rect id="Rectángulo_7903" data-name="Rectángulo 7903" width="155.01" height="245.05" rx="46.05" transform="translate(763.44 1169.93)" fill="#616161" opacity="0.77"/>
      <rect id="Rectángulo_7904" data-name="Rectángulo 7904" width="155.01" height="245.05" rx="46.05" transform="translate(763.26 1169.75)" fill="#5f5f5f" opacity="0.78"/>
      <rect id="Rectángulo_7905" data-name="Rectángulo 7905" width="155.01" height="245.05" rx="46.05" transform="translate(763.07 1169.58)" fill="#5d5d5d" opacity="0.79"/>
      <rect id="Rectángulo_7906" data-name="Rectángulo 7906" width="155.01" height="245.05" rx="46.05" transform="translate(762.89 1169.4)" fill="#5b5b5b" opacity="0.8"/>
      <rect id="Rectángulo_7907" data-name="Rectángulo 7907" width="155.01" height="245.05" rx="46.05" transform="translate(762.7 1169.22)" fill="#595959" opacity="0.81"/>
      <rect id="Rectángulo_7908" data-name="Rectángulo 7908" width="155.01" height="245.05" rx="46.05" transform="translate(762.52 1169.04)" fill="#575757" opacity="0.82"/>
      <rect id="Rectángulo_7909" data-name="Rectángulo 7909" width="155.01" height="245.05" rx="46.05" transform="translate(762.33 1168.87)" fill="#555" opacity="0.83"/>
      <rect id="Rectángulo_7910" data-name="Rectángulo 7910" width="155.01" height="245.05" rx="46.05" transform="translate(762.15 1168.69)" fill="#535353" opacity="0.84"/>
      <rect id="Rectángulo_7911" data-name="Rectángulo 7911" width="155.01" height="245.05" rx="46.05" transform="translate(761.96 1168.51)" fill="#515151" opacity="0.85"/>
      <rect id="Rectángulo_7912" data-name="Rectángulo 7912" width="155.01" height="245.05" rx="46.05" transform="translate(761.78 1168.34)" fill="#4f4f4f" opacity="0.86"/>
      <rect id="Rectángulo_7913" data-name="Rectángulo 7913" width="155.01" height="245.05" rx="46.05" transform="translate(761.59 1168.16)" fill="#4d4d4d" opacity="0.87"/>
      <rect id="Rectángulo_7914" data-name="Rectángulo 7914" width="155.01" height="245.05" rx="46.05" transform="translate(761.41 1167.98)" fill="#4b4b4b" opacity="0.88"/>
      <rect id="Rectángulo_7915" data-name="Rectángulo 7915" width="155.01" height="245.05" rx="46.05" transform="translate(761.22 1167.81)" fill="#494949" opacity="0.89"/>
      <rect id="Rectángulo_7916" data-name="Rectángulo 7916" width="155.01" height="245.05" rx="46.05" transform="translate(761.04 1167.63)" fill="#474747" opacity="0.9"/>
      <rect id="Rectángulo_7917" data-name="Rectángulo 7917" width="155.01" height="245.05" rx="46.05" transform="translate(760.85 1167.45)" fill="#454545" opacity="0.91"/>
      <rect id="Rectángulo_7918" data-name="Rectángulo 7918" width="155.01" height="245.05" rx="46.05" transform="translate(760.67 1167.28)" fill="#434343" opacity="0.92"/>
      <rect id="Rectángulo_7919" data-name="Rectángulo 7919" width="155.01" height="245.05" rx="46.05" transform="translate(760.48 1167.1)" fill="#414141" opacity="0.93"/>
      <rect id="Rectángulo_7920" data-name="Rectángulo 7920" width="155.01" height="245.05" rx="46.05" transform="translate(760.3 1166.92)" fill="#3f3f3f" opacity="0.94"/>
      <rect id="Rectángulo_7921" data-name="Rectángulo 7921" width="155.01" height="245.05" rx="46.05" transform="translate(760.11 1166.74)" fill="#3d3d3d" opacity="0.95"/>
      <rect id="Rectángulo_7922" data-name="Rectángulo 7922" width="155.01" height="245.05" rx="46.05" transform="translate(759.93 1166.57)" fill="#3b3b3b" opacity="0.96"/>
      <rect id="Rectángulo_7923" data-name="Rectángulo 7923" width="155.01" height="245.05" rx="46.05" transform="translate(759.74 1166.39)" fill="#393939" opacity="0.97"/>
      <rect id="Rectángulo_7924" data-name="Rectángulo 7924" width="155.01" height="245.05" rx="46.05" transform="translate(759.56 1166.21)" fill="#373737" opacity="0.98"/>
      <rect id="Rectángulo_7925" data-name="Rectángulo 7925" width="155.01" height="245.05" rx="46.05" transform="translate(759.37 1166.04)" fill="#353535" opacity="0.99"/>
      <rect id="Rectángulo_7926" data-name="Rectángulo 7926" width="155.01" height="245.05" rx="46.05" transform="translate(759.19 1165.86)" fill="#333"/>
    </g>
    <g id="Grupo_58714" data-name="Grupo 58714" transform="translate(187.8 5336.391)">
      <rect id="Rectángulo_7927" data-name="Rectángulo 7927" width="249.9" height="159.86" rx="51.4" transform="translate(916.63 1163.43) rotate(90)" fill="url(#linear-gradient)"/>
      <rect id="Rectángulo_7928" data-name="Rectángulo 7928" width="245.05" height="155.01" rx="46.05" transform="translate(914.2 1165.86) rotate(90)" fill="#ededed"/>
    </g>
    <g id="Grupo_58715" data-name="Grupo 58715" transform="translate(187.8 5336.391)">
      <rect id="Rectángulo_7929" data-name="Rectángulo 7929" width="1.71" height="1.71" transform="translate(834.98 1431.11)" fill="#4d4d4d"/>
      <path id="Trazado_119738" data-name="Trazado 119738" d="M829.8,1432.83h-3.46v-1.72h3.46Zm-8.64,0h-3.45v-1.72h3.45Zm-8.64,0h-3.45v-1.72h3.45Zm-8.63,0h-3.46v-1.72h3.46Zm-8.64,0h-3.46v-1.72h3.46Zm-8.64,0h-3.45v-1.72h3.45Zm-8.63,0h-3.46v-1.72H778Zm-8.64,0h-3.46v-1.72h3.46Zm-8.64,0h-.05a24.078,24.078,0,0,1-3.51-.26l.25-1.69a23.489,23.489,0,0,0,3.26.23Zm-8.75-1.62a23.827,23.827,0,0,1-3.23-1.53l.84-1.49a21.764,21.764,0,0,0,3,1.42Zm-7.57-4.68a25.156,25.156,0,0,1-2.46-2.6l1.33-1.08a22.512,22.512,0,0,0,2.28,2.41Zm-5.37-7.1a25.523,25.523,0,0,1-1.35-3.31l1.63-.53a22.13,22.13,0,0,0,1.26,3.08Zm-2.42-8.57c-.07-.72-.1-1.45-.1-2.19v-1.33h1.71v1.33q0,1,.09,2Zm1.61-8.71h-1.71v-3.45h1.71Zm0-8.63h-1.71v-3.46h1.71Zm0-8.64h-1.71v-3.46h1.71Zm0-8.64h-1.71v-3.45h1.71Zm0-8.64h-1.71v-3.45h1.71Zm0-8.63h-1.71v-3.46h1.71Zm0-8.64h-1.71v-3.45h1.71Zm0-8.63h-1.71v-3.46h1.71Zm0-8.64h-1.71v-3.46h1.71Zm0-8.64h-1.71V1321h1.71Zm0-8.63h-1.71v-3.46h1.71Zm0-8.64h-1.71v-3.46h1.71Zm0-34.55h-1.71v-3.45h1.71Zm0-8.64h-1.71v-3.45h1.71Zm0-8.63h-1.71v-3.46h1.71Zm0-8.64h-1.71v-3.45h1.71Zm0-8.64h-1.71v-3.45h1.71Zm0-8.63h-1.71V1226h1.71Zm0-8.64h-1.71v-3.46h1.71Zm0-8.64h-1.71v-3.45h1.71Zm0-8.63h-1.71v-3.46h1.71Zm0-8.64h-1.71v-3.46h1.71Zm0-8.64h-1.71v-3.45h1.71Zm0-8.63h-1.71v-3.46h1.71Zm0-8.64h-1.71v-.84a24.319,24.319,0,0,1,.15-2.7l1.7.184a23.65,23.65,0,0,0-.14,2.52Zm1.22-8.23-1.63-.54a25.816,25.816,0,0,1,1.38-3.3l1.53.77a22.865,22.865,0,0,0-1.28,3.07Zm4-7.28-1.34-1.07a24.991,24.991,0,0,1,2.41-2.63l1.18,1.24a22.855,22.855,0,0,0-2.28,2.46Zm6.22-5.48-.88-1.47a24.373,24.373,0,0,1,3.19-1.6l.65,1.58a22.781,22.781,0,0,0-2.99,1.52Zm80.13-2.36h-3.45v-1.71h3.45Zm-8.63-.1h-3.46v-1.71h3.46Zm-8.64-.09h-3.45v-1.72h3.45Zm-8.63-.09h-3.46v-1.71h3.45Zm-8.64-.09h-3.46v-1.71h3.46Zm-8.64-.09h-3.45v-1.71h3.45Zm-29.2,0-.27-1.69a23.522,23.522,0,0,1,3.56-.28v1.72a21.261,21.261,0,0,0-3.32.23Zm20.57-.07H774.5v-1.71h3.46Zm-8.64-.09h-3.45v-1.71h3.46Z" fill="#4d4d4d"/>
      <rect id="Rectángulo_7930" data-name="Rectángulo 7930" width="1.71" height="1.71" transform="translate(834.41 1144.76) rotate(-89.427)" fill="#4d4d4d"/>
    </g>
    <path id="Trazado_119888" data-name="Trazado 119888" d="M4.588-12.8,7.875-3.516l3.27-9.281h3.463V0H11.962V-3.5l.264-6.038L8.771,0H6.961L3.516-9.527,3.779-3.5V0H1.143V-12.8ZM19.424,0H16.875V-9.51h2.549Zm-2.7-11.971a1.251,1.251,0,0,1,.382-.94,1.436,1.436,0,0,1,1.042-.369,1.44,1.44,0,0,1,1.037.369,1.244,1.244,0,0,1,.387.94,1.247,1.247,0,0,1-.391.949,1.443,1.443,0,0,1-1.033.369,1.443,1.443,0,0,1-1.033-.369A1.247,1.247,0,0,1,16.726-11.971ZM23.854-9.51l.079,1.1a3.32,3.32,0,0,1,2.733-1.274,2.759,2.759,0,0,1,2.25.888,4.142,4.142,0,0,1,.756,2.654V0h-2.54V-6.082a1.648,1.648,0,0,0-.352-1.173,1.574,1.574,0,0,0-1.169-.365A1.747,1.747,0,0,0,24-6.706V0h-2.54V-9.51ZM31.2-4.843a5.64,5.64,0,0,1,.545-2.522,3.989,3.989,0,0,1,1.569-1.714,4.577,4.577,0,0,1,2.377-.606,4.33,4.33,0,0,1,3.142,1.178,4.727,4.727,0,0,1,1.358,3.2l.018.65a4.97,4.97,0,0,1-1.222,3.511A4.247,4.247,0,0,1,35.71.176a4.268,4.268,0,0,1-3.283-1.318A5.058,5.058,0,0,1,31.2-4.729Zm2.54.18a3.555,3.555,0,0,0,.51,2.073,1.682,1.682,0,0,0,1.459.717,1.686,1.686,0,0,0,1.441-.709,3.89,3.89,0,0,0,.519-2.267,3.519,3.519,0,0,0-.519-2.06,1.686,1.686,0,0,0-1.459-.731,1.658,1.658,0,0,0-1.441.726A3.955,3.955,0,0,0,33.741-4.662ZM47.118-7.128A6.9,6.9,0,0,0,46.2-7.2a1.86,1.86,0,0,0-1.89.976V0h-2.54V-9.51h2.4l.07,1.134a2.354,2.354,0,0,1,2.118-1.31,2.662,2.662,0,0,1,.791.114ZM51.021,0H48.472V-9.51h2.549Zm-2.7-11.971a1.251,1.251,0,0,1,.382-.94,1.436,1.436,0,0,1,1.042-.369,1.44,1.44,0,0,1,1.037.369,1.244,1.244,0,0,1,.387.94,1.247,1.247,0,0,1-.391.949,1.443,1.443,0,0,1-1.033.369,1.443,1.443,0,0,1-1.033-.369A1.247,1.247,0,0,1,48.322-11.971Zm9.94,9.343a.818.818,0,0,0-.461-.734,5.241,5.241,0,0,0-1.481-.479q-3.393-.712-3.393-2.883a2.613,2.613,0,0,1,1.05-2.114,4.237,4.237,0,0,1,2.747-.848,4.56,4.56,0,0,1,2.9.853,2.687,2.687,0,0,1,1.085,2.215h-2.54a1.229,1.229,0,0,0-.352-.9,1.488,1.488,0,0,0-1.1-.356,1.52,1.52,0,0,0-.993.29.916.916,0,0,0-.352.738.783.783,0,0,0,.4.681,4.114,4.114,0,0,0,1.349.448,11.019,11.019,0,0,1,1.6.426,2.628,2.628,0,0,1,2.013,2.558,2.481,2.481,0,0,1-1.116,2.1,4.815,4.815,0,0,1-2.883.8A5.029,5.029,0,0,1,54.611-.25a3.561,3.561,0,0,1-1.455-1.169,2.716,2.716,0,0,1-.527-1.6h2.408a1.326,1.326,0,0,0,.5,1.037,1.987,1.987,0,0,0,1.248.36,1.839,1.839,0,0,0,1.1-.277A.861.861,0,0,0,58.263-2.628Zm7.146-9.22V-9.51h1.626v1.863H65.408V-2.9a1.133,1.133,0,0,0,.2.756,1.015,1.015,0,0,0,.773.229,4.051,4.051,0,0,0,.747-.062V-.053a5.229,5.229,0,0,1-1.538.229,2.425,2.425,0,0,1-2.725-2.7V-7.646H61.479V-9.51h1.389v-2.338ZM73.96,0a2.821,2.821,0,0,1-.255-.853,3.073,3.073,0,0,1-2.4,1.028A3.376,3.376,0,0,1,68.99-.633a2.6,2.6,0,0,1-.918-2.039,2.687,2.687,0,0,1,1.121-2.32,5.529,5.529,0,0,1,3.239-.817H73.6v-.545a1.567,1.567,0,0,0-.338-1.055,1.331,1.331,0,0,0-1.068-.4,1.513,1.513,0,0,0-1.006.308,1.045,1.045,0,0,0-.365.844h-2.54a2.551,2.551,0,0,1,.51-1.529,3.37,3.37,0,0,1,1.441-1.1,5.253,5.253,0,0,1,2.092-.4,4.15,4.15,0,0,1,2.791.883,3.09,3.09,0,0,1,1.033,2.483V-2.2a4.546,4.546,0,0,0,.378,2.048V0Zm-2.1-1.767a2.188,2.188,0,0,0,1.037-.25,1.645,1.645,0,0,0,.7-.672V-4.324H72.65q-1.907,0-2.03,1.318l-.009.149a1.017,1.017,0,0,0,.334.782A1.3,1.3,0,0,0,71.859-1.767Z" transform="translate(985.94 6629.091)" fill="#12263f"/>
    <g id="Grupo_58737" data-name="Grupo 58737" transform="translate(187.8 5336.391)">
      <path id="Trazado_119812" data-name="Trazado 119812" d="M820.84,1239.1a12.864,12.864,0,0,1-1.5-.29,4.51,4.51,0,0,1-2.9-4.93,15.141,15.141,0,0,1,1.42-5.12c.56-1.25,1.23-2.44,1.88-3.65a.83.83,0,0,1,.56-.4h15.47l.11.06a5.3,5.3,0,0,0,.24,4.15,16.452,16.452,0,0,0,1.15,1.75l.19-.09c.06-.74.11-1.49.16-2.24.22-3.67.43-7.33.65-11a1.13,1.13,0,0,0-1.17-1.39l-4.79-.53a3.09,3.09,0,0,1-2.79-3.74q1.46-7.08,3-14.16a3.78,3.78,0,0,1,4.25-3.09,3.87,3.87,0,0,1,3.28,3.87,1.429,1.429,0,0,0,.35.85,16,16,0,0,0,6.75,4,9.362,9.362,0,0,0,3.63.6h5c2.3,0,3.52,1.21,3.52,3.49v1.69a3.08,3.08,0,0,1-3.11,3.1h-2c.49,3.65,1.27,7,4.39,9.39a6,6,0,0,1,2.46,6.18,1.662,1.662,0,0,1-.06.53c.63.06,1.26.09,1.87.19a8.45,8.45,0,0,1,7,7.48c.07.7-.09,1-.87,1.38a6.61,6.61,0,0,1-1,5.63,6.51,6.51,0,0,1-4,2.64,6.74,6.74,0,0,1-8.07-5.3h-.11c-1,1.15-1.78,1-2.34-.47-.12-.32-.22-.66-.29-.89a19.686,19.686,0,0,1-2,.2H834.99c-.54,0-.72.13-.81.7a6.67,6.67,0,0,1-13.16-.11A.982.982,0,0,1,820.84,1239.1Zm26.88-7.39v-22.83a18.239,18.239,0,0,1-9.22-3.78c-.26,1.13-.5,2.14-.72,3.16-.17.8,0,1.16.81,1.45l4.51,1.69a3.14,3.14,0,0,1,2.37,3.69c-.39,3.9-.82,7.78-1.23,11.67-.18,1.64-.35,3.28-.52,5Zm14.66,11.78a4.6,4.6,0,0,0,4.25-6.41,1.07,1.07,0,0,0-1-.75,11.809,11.809,0,0,0-7.22,1.46,1.18,1.18,0,0,0-.68,1.15,4.64,4.64,0,0,0,4.65,4.55ZM823,1239.05a4.47,4.47,0,0,0,4.92,4.06c2.18-.15,4.26-2.23,4-4.06Z" fill="#f472b8"/>
      <path id="Trazado_119813" data-name="Trazado 119813" d="M816.5,1197.55h7.11a3.14,3.14,0,0,1,3.34,3.36v11a3.14,3.14,0,0,1-3.39,3.37H809.47a3.14,3.14,0,0,1-3.4-3.42q0-5.48,0-11a3.14,3.14,0,0,1,3.38-3.37Z" fill="#f472b8"/>
      <path id="Trazado_119814" data-name="Trazado 119814" d="M836.31,1222.61H819.92a1.14,1.14,0,0,1-1-.51,6.22,6.22,0,0,1-1.33-3.67,1,1,0,0,1,1.14-1.19h16.43c.73,0,1.15.36,1.17,1C836.33,1219.69,836.31,1221.1,836.31,1222.61Z" fill="#f472b8"/>
      <path id="Trazado_119815" data-name="Trazado 119815" d="M844.7,1188.16a5.22,5.22,0,1,1-5.24-5.22,5.22,5.22,0,0,1,5.24,5.22Z" fill="#f472b8"/>
    </g>
  </g>
</svg>
