<svg xmlns="http://www.w3.org/2000/svg" xmlns:xlink="http://www.w3.org/1999/xlink" width="199.45" height="289.64" viewBox="0 0 199.45 289.64">
  <defs>
    <linearGradient id="linear-gradient" x1="0.237" y1="-0.211" x2="0.766" y2="1.22" gradientUnits="objectBoundingBox">
      <stop offset="0" stop-color="#fff"/>
      <stop offset="1" stop-color="#d2d1d1"/>
    </linearGradient>
  </defs>
  <g id="card9" transform="translate(-924.34 -6159.261)">
    <path id="Trazado_119728" data-name="Trazado 119728" d="M836.69,1112.44h76a23.3,23.3,0,0,0,23.3-23.3V847a23.3,23.3,0,0,0-23.3-23.3h-76Z" transform="translate(187.8 5336.391)" fill="#ef2a66"/>
    <g id="Grupo_58698" data-name="Grupo 58698" transform="translate(187.8 5336.391)" opacity="0.8">
      <rect id="Rectángulo_7401" data-name="Rectángulo 7401" width="155.01" height="245.05" rx="46.05" transform="translate(777.88 863.42)" fill="#fff" opacity="0"/>
      <rect id="Rectángulo_7402" data-name="Rectángulo 7402" width="155.01" height="245.05" rx="46.05" transform="translate(777.7 863.25)" fill="#f8f8f8" opacity="0.01"/>
      <rect id="Rectángulo_7403" data-name="Rectángulo 7403" width="155.01" height="245.05" rx="46.05" transform="translate(777.51 863.07)" fill="#f6f6f6" opacity="0.02"/>
      <rect id="Rectángulo_7404" data-name="Rectángulo 7404" width="155.01" height="245.05" rx="46.05" transform="translate(777.33 862.89)" fill="#f4f4f4" opacity="0.03"/>
      <rect id="Rectángulo_7405" data-name="Rectángulo 7405" width="155.01" height="245.05" rx="46.05" transform="translate(777.14 862.71)" fill="#f2f2f2" opacity="0.04"/>
      <rect id="Rectángulo_7406" data-name="Rectángulo 7406" width="155.01" height="245.05" rx="46.05" transform="translate(776.96 862.54)" fill="#f0f0f0" opacity="0.05"/>
      <rect id="Rectángulo_7407" data-name="Rectángulo 7407" width="155.01" height="245.05" rx="46.05" transform="translate(776.77 862.36)" fill="#eee" opacity="0.06"/>
      <rect id="Rectángulo_7408" data-name="Rectángulo 7408" width="155.01" height="245.05" rx="46.05" transform="translate(776.59 862.18)" fill="#ececec" opacity="0.07"/>
      <rect id="Rectángulo_7409" data-name="Rectángulo 7409" width="155.01" height="245.05" rx="46.05" transform="translate(776.4 862.01)" fill="#eaeaea" opacity="0.08"/>
      <rect id="Rectángulo_7410" data-name="Rectángulo 7410" width="155.01" height="245.05" rx="46.05" transform="translate(776.22 861.83)" fill="#e8e8e8" opacity="0.09"/>
      <rect id="Rectángulo_7411" data-name="Rectángulo 7411" width="155.01" height="245.05" rx="46.05" transform="translate(776.03 861.65)" fill="#e6e6e6" opacity="0.1"/>
      <rect id="Rectángulo_7412" data-name="Rectángulo 7412" width="155.01" height="245.05" rx="46.05" transform="translate(775.85 861.48)" fill="#e4e4e4" opacity="0.11"/>
      <rect id="Rectángulo_7413" data-name="Rectángulo 7413" width="155.01" height="245.05" rx="46.05" transform="translate(775.66 861.3)" fill="#e2e2e2" opacity="0.12"/>
      <rect id="Rectángulo_7414" data-name="Rectángulo 7414" width="155.01" height="245.05" rx="46.05" transform="translate(775.48 861.12)" fill="#e0e0e0" opacity="0.13"/>
      <rect id="Rectángulo_7415" data-name="Rectángulo 7415" width="155.01" height="245.05" rx="46.05" transform="translate(775.29 860.94)" fill="#dedede" opacity="0.14"/>
      <rect id="Rectángulo_7416" data-name="Rectángulo 7416" width="155.01" height="245.05" rx="46.05" transform="translate(775.1 860.77)" fill="#dcdcdc" opacity="0.15"/>
      <rect id="Rectángulo_7417" data-name="Rectángulo 7417" width="155.01" height="245.05" rx="46.05" transform="translate(774.92 860.59)" fill="#dadada" opacity="0.16"/>
      <rect id="Rectángulo_7418" data-name="Rectángulo 7418" width="155.01" height="245.05" rx="46.05" transform="translate(774.73 860.41)" fill="#d8d8d8" opacity="0.17"/>
      <rect id="Rectángulo_7419" data-name="Rectángulo 7419" width="155.01" height="245.05" rx="46.05" transform="translate(774.55 860.24)" fill="#d6d6d6" opacity="0.18"/>
      <rect id="Rectángulo_7420" data-name="Rectángulo 7420" width="155.01" height="245.05" rx="46.05" transform="translate(774.36 860.06)" fill="#d4d4d4" opacity="0.19"/>
      <rect id="Rectángulo_7421" data-name="Rectángulo 7421" width="155.01" height="245.05" rx="46.05" transform="translate(774.18 859.88)" fill="#d2d2d2" opacity="0.2"/>
      <rect id="Rectángulo_7422" data-name="Rectángulo 7422" width="155.01" height="245.05" rx="46.05" transform="translate(773.99 859.71)" fill="#d0d0d0" opacity="0.21"/>
      <rect id="Rectángulo_7423" data-name="Rectángulo 7423" width="155.01" height="245.05" rx="46.05" transform="translate(773.81 859.53)" fill="#cecece" opacity="0.22"/>
      <rect id="Rectángulo_7424" data-name="Rectángulo 7424" width="155.01" height="245.05" rx="46.05" transform="translate(773.62 859.35)" fill="#ccc" opacity="0.23"/>
      <rect id="Rectángulo_7425" data-name="Rectángulo 7425" width="155.01" height="245.05" rx="46.05" transform="translate(773.44 859.17)" fill="#cacaca" opacity="0.24"/>
      <rect id="Rectángulo_7426" data-name="Rectángulo 7426" width="155.01" height="245.05" rx="46.05" transform="translate(773.25 859)" fill="#c8c8c8" opacity="0.25"/>
      <rect id="Rectángulo_7427" data-name="Rectángulo 7427" width="155.01" height="245.05" rx="46.05" transform="translate(773.07 858.82)" fill="#c5c5c5" opacity="0.26"/>
      <rect id="Rectángulo_7428" data-name="Rectángulo 7428" width="155.01" height="245.05" rx="46.05" transform="translate(772.88 858.64)" fill="#c3c3c3" opacity="0.27"/>
      <rect id="Rectángulo_7429" data-name="Rectángulo 7429" width="155.01" height="245.05" rx="46.05" transform="translate(772.7 858.47)" fill="#c1c1c1" opacity="0.28"/>
      <rect id="Rectángulo_7430" data-name="Rectángulo 7430" width="155.01" height="245.05" rx="46.05" transform="translate(772.51 858.29)" fill="#bfbfbf" opacity="0.29"/>
      <rect id="Rectángulo_7431" data-name="Rectángulo 7431" width="155.01" height="245.05" rx="46.05" transform="translate(772.33 858.11)" fill="#bdbdbd" opacity="0.3"/>
      <rect id="Rectángulo_7432" data-name="Rectángulo 7432" width="155.01" height="245.05" rx="46.05" transform="translate(772.14 857.94)" fill="#bbb" opacity="0.31"/>
      <rect id="Rectángulo_7433" data-name="Rectángulo 7433" width="155.01" height="245.05" rx="46.05" transform="translate(771.96 857.76)" fill="#b9b9b9" opacity="0.32"/>
      <rect id="Rectángulo_7434" data-name="Rectángulo 7434" width="155.01" height="245.05" rx="46.05" transform="translate(771.77 857.58)" fill="#b7b7b7" opacity="0.33"/>
      <rect id="Rectángulo_7435" data-name="Rectángulo 7435" width="155.01" height="245.05" rx="46.05" transform="translate(771.59 857.4)" fill="#b5b5b5" opacity="0.34"/>
      <rect id="Rectángulo_7436" data-name="Rectángulo 7436" width="155.01" height="245.05" rx="46.05" transform="translate(771.4 857.23)" fill="#b3b3b3" opacity="0.35"/>
      <rect id="Rectángulo_7437" data-name="Rectángulo 7437" width="155.01" height="245.05" rx="46.05" transform="translate(771.22 857.05)" fill="#b1b1b1" opacity="0.36"/>
      <rect id="Rectángulo_7438" data-name="Rectángulo 7438" width="155.01" height="245.05" rx="46.05" transform="translate(771.03 856.87)" fill="#afafaf" opacity="0.37"/>
      <rect id="Rectángulo_7439" data-name="Rectángulo 7439" width="155.01" height="245.05" rx="46.05" transform="translate(770.85 856.7)" fill="#adadad" opacity="0.38"/>
      <rect id="Rectángulo_7440" data-name="Rectángulo 7440" width="155.01" height="245.05" rx="46.05" transform="translate(770.66 856.52)" fill="#ababab" opacity="0.39"/>
      <rect id="Rectángulo_7441" data-name="Rectángulo 7441" width="155.01" height="245.05" rx="46.05" transform="translate(770.48 856.34)" fill="#a9a9a9" opacity="0.4"/>
      <rect id="Rectángulo_7442" data-name="Rectángulo 7442" width="155.01" height="245.05" rx="46.05" transform="translate(770.29 856.17)" fill="#a7a7a7" opacity="0.41"/>
      <rect id="Rectángulo_7443" data-name="Rectángulo 7443" width="155.01" height="245.05" rx="46.05" transform="translate(770.11 855.99)" fill="#a5a5a5" opacity="0.42"/>
      <rect id="Rectángulo_7444" data-name="Rectángulo 7444" width="155.01" height="245.05" rx="46.05" transform="translate(769.92 855.81)" fill="#a3a3a3" opacity="0.43"/>
      <rect id="Rectángulo_7445" data-name="Rectángulo 7445" width="155.01" height="245.05" rx="46.05" transform="translate(769.74 855.64)" fill="#a1a1a1" opacity="0.44"/>
      <rect id="Rectángulo_7446" data-name="Rectángulo 7446" width="155.01" height="245.05" rx="46.05" transform="translate(769.55 855.46)" fill="#9f9f9f" opacity="0.45"/>
      <rect id="Rectángulo_7447" data-name="Rectángulo 7447" width="155.01" height="245.05" rx="46.05" transform="translate(769.37 855.28)" fill="#9d9d9d" opacity="0.46"/>
      <rect id="Rectángulo_7448" data-name="Rectángulo 7448" width="155.01" height="245.05" rx="46.05" transform="translate(769.18 855.1)" fill="#9b9b9b" opacity="0.47"/>
      <rect id="Rectángulo_7449" data-name="Rectángulo 7449" width="155.01" height="245.05" rx="46.05" transform="translate(769 854.93)" fill="#999" opacity="0.48"/>
      <rect id="Rectángulo_7450" data-name="Rectángulo 7450" width="155.01" height="245.05" rx="46.05" transform="translate(768.81 854.75)" fill="#979797" opacity="0.49"/>
      <rect id="Rectángulo_7451" data-name="Rectángulo 7451" width="155.01" height="245.05" rx="46.05" transform="translate(768.63 854.57)" fill="#959595" opacity="0.5"/>
      <rect id="Rectángulo_7452" data-name="Rectángulo 7452" width="155.01" height="245.05" rx="46.05" transform="translate(768.44 854.4)" fill="#939393" opacity="0.5"/>
      <rect id="Rectángulo_7453" data-name="Rectángulo 7453" width="155.01" height="245.05" rx="46.05" transform="translate(768.26 854.22)" fill="#919191" opacity="0.51"/>
      <rect id="Rectángulo_7454" data-name="Rectángulo 7454" width="155.01" height="245.05" rx="46.05" transform="translate(768.07 854.04)" fill="#8f8f8f" opacity="0.52"/>
      <rect id="Rectángulo_7455" data-name="Rectángulo 7455" width="155.01" height="245.05" rx="46.05" transform="translate(767.89 853.87)" fill="#8d8d8d" opacity="0.53"/>
      <rect id="Rectángulo_7456" data-name="Rectángulo 7456" width="155.01" height="245.05" rx="46.05" transform="translate(767.7 853.69)" fill="#8b8b8b" opacity="0.54"/>
      <rect id="Rectángulo_7457" data-name="Rectángulo 7457" width="155.01" height="245.05" rx="46.05" transform="translate(767.52 853.51)" fill="#898989" opacity="0.55"/>
      <rect id="Rectángulo_7458" data-name="Rectángulo 7458" width="155.01" height="245.05" rx="46.05" transform="translate(767.33 853.33)" fill="#878787" opacity="0.56"/>
      <rect id="Rectángulo_7459" data-name="Rectángulo 7459" width="155.01" height="245.05" rx="46.05" transform="translate(767.15 853.16)" fill="#858585" opacity="0.57"/>
      <rect id="Rectángulo_7460" data-name="Rectángulo 7460" width="155.01" height="245.05" rx="46.05" transform="translate(766.96 852.98)" fill="#838383" opacity="0.58"/>
      <rect id="Rectángulo_7461" data-name="Rectángulo 7461" width="155.01" height="245.05" rx="46.05" transform="translate(766.78 852.8)" fill="#818181" opacity="0.59"/>
      <rect id="Rectángulo_7462" data-name="Rectángulo 7462" width="155.01" height="245.05" rx="46.05" transform="translate(766.59 852.63)" fill="gray" opacity="0.6"/>
      <rect id="Rectángulo_7463" data-name="Rectángulo 7463" width="155.01" height="245.05" rx="46.05" transform="translate(766.41 852.45)" fill="gray" opacity="0.61"/>
      <rect id="Rectángulo_7464" data-name="Rectángulo 7464" width="155.01" height="245.05" rx="46.05" transform="translate(766.22 852.27)" fill="gray" opacity="0.62"/>
      <rect id="Rectángulo_7465" data-name="Rectángulo 7465" width="155.01" height="245.05" rx="46.05" transform="translate(766.04 852.1)" fill="#7e7e7e" opacity="0.63"/>
      <rect id="Rectángulo_7466" data-name="Rectángulo 7466" width="155.01" height="245.05" rx="46.05" transform="translate(765.85 851.92)" fill="#7c7c7c" opacity="0.64"/>
      <rect id="Rectángulo_7467" data-name="Rectángulo 7467" width="155.01" height="245.05" rx="46.05" transform="translate(765.67 851.74)" fill="#7a7a7a" opacity="0.65"/>
      <rect id="Rectángulo_7468" data-name="Rectángulo 7468" width="155.01" height="245.05" rx="46.05" transform="translate(765.48 851.56)" fill="#787878" opacity="0.66"/>
      <rect id="Rectángulo_7469" data-name="Rectángulo 7469" width="155.01" height="245.05" rx="46.05" transform="translate(765.3 851.39)" fill="#767676" opacity="0.67"/>
      <rect id="Rectángulo_7470" data-name="Rectángulo 7470" width="155.01" height="245.05" rx="46.05" transform="translate(765.11 851.21)" fill="#747474" opacity="0.68"/>
      <rect id="Rectángulo_7471" data-name="Rectángulo 7471" width="155.01" height="245.05" rx="46.05" transform="translate(764.93 851.03)" fill="#727272" opacity="0.69"/>
      <rect id="Rectángulo_7472" data-name="Rectángulo 7472" width="155.01" height="245.05" rx="46.05" transform="translate(764.74 850.86)" fill="#707070" opacity="0.7"/>
      <rect id="Rectángulo_7473" data-name="Rectángulo 7473" width="155.01" height="245.05" rx="46.05" transform="translate(764.56 850.68)" fill="#6e6e6e" opacity="0.71"/>
      <rect id="Rectángulo_7474" data-name="Rectángulo 7474" width="155.01" height="245.05" rx="46.05" transform="translate(764.37 850.5)" fill="#6c6c6c" opacity="0.72"/>
      <rect id="Rectángulo_7475" data-name="Rectángulo 7475" width="155.01" height="245.05" rx="46.05" transform="translate(764.18 850.33)" fill="#6a6a6a" opacity="0.73"/>
      <rect id="Rectángulo_7476" data-name="Rectángulo 7476" width="155.01" height="245.05" rx="46.05" transform="translate(764 850.15)" fill="#686868" opacity="0.74"/>
      <rect id="Rectángulo_7477" data-name="Rectángulo 7477" width="155.01" height="245.05" rx="46.05" transform="translate(763.81 849.97)" fill="#656565" opacity="0.75"/>
      <rect id="Rectángulo_7478" data-name="Rectángulo 7478" width="155.01" height="245.05" rx="46.05" transform="translate(763.63 849.8)" fill="#636363" opacity="0.76"/>
      <rect id="Rectángulo_7479" data-name="Rectángulo 7479" width="155.01" height="245.05" rx="46.05" transform="translate(763.44 849.62)" fill="#616161" opacity="0.77"/>
      <rect id="Rectángulo_7480" data-name="Rectángulo 7480" width="155.01" height="245.05" rx="46.05" transform="translate(763.26 849.44)" fill="#5f5f5f" opacity="0.78"/>
      <rect id="Rectángulo_7481" data-name="Rectángulo 7481" width="155.01" height="245.05" rx="46.05" transform="translate(763.07 849.26)" fill="#5d5d5d" opacity="0.79"/>
      <rect id="Rectángulo_7482" data-name="Rectángulo 7482" width="155.01" height="245.05" rx="46.05" transform="translate(762.89 849.09)" fill="#5b5b5b" opacity="0.8"/>
      <rect id="Rectángulo_7483" data-name="Rectángulo 7483" width="155.01" height="245.05" rx="46.05" transform="translate(762.7 848.91)" fill="#595959" opacity="0.81"/>
      <rect id="Rectángulo_7484" data-name="Rectángulo 7484" width="155.01" height="245.05" rx="46.05" transform="translate(762.52 848.73)" fill="#575757" opacity="0.82"/>
      <rect id="Rectángulo_7485" data-name="Rectángulo 7485" width="155.01" height="245.05" rx="46.05" transform="translate(762.33 848.56)" fill="#555" opacity="0.83"/>
      <rect id="Rectángulo_7486" data-name="Rectángulo 7486" width="155.01" height="245.05" rx="46.05" transform="translate(762.15 848.38)" fill="#535353" opacity="0.84"/>
      <rect id="Rectángulo_7487" data-name="Rectángulo 7487" width="155.01" height="245.05" rx="46.05" transform="translate(761.96 848.2)" fill="#515151" opacity="0.85"/>
      <rect id="Rectángulo_7488" data-name="Rectángulo 7488" width="155.01" height="245.05" rx="46.05" transform="translate(761.78 848.03)" fill="#4f4f4f" opacity="0.86"/>
      <rect id="Rectángulo_7489" data-name="Rectángulo 7489" width="155.01" height="245.05" rx="46.05" transform="translate(761.59 847.85)" fill="#4d4d4d" opacity="0.87"/>
      <rect id="Rectángulo_7490" data-name="Rectángulo 7490" width="155.01" height="245.05" rx="46.05" transform="translate(761.41 847.67)" fill="#4b4b4b" opacity="0.88"/>
      <rect id="Rectángulo_7491" data-name="Rectángulo 7491" width="155.01" height="245.05" rx="46.05" transform="translate(761.22 847.49)" fill="#494949" opacity="0.89"/>
      <rect id="Rectángulo_7492" data-name="Rectángulo 7492" width="155.01" height="245.05" rx="46.05" transform="translate(761.04 847.32)" fill="#474747" opacity="0.9"/>
      <rect id="Rectángulo_7493" data-name="Rectángulo 7493" width="155.01" height="245.05" rx="46.05" transform="translate(760.85 847.14)" fill="#454545" opacity="0.91"/>
      <rect id="Rectángulo_7494" data-name="Rectángulo 7494" width="155.01" height="245.05" rx="46.05" transform="translate(760.67 846.96)" fill="#434343" opacity="0.92"/>
      <rect id="Rectángulo_7495" data-name="Rectángulo 7495" width="155.01" height="245.05" rx="46.05" transform="translate(760.48 846.79)" fill="#414141" opacity="0.93"/>
      <rect id="Rectángulo_7496" data-name="Rectángulo 7496" width="155.01" height="245.05" rx="46.05" transform="translate(760.3 846.61)" fill="#3f3f3f" opacity="0.94"/>
      <rect id="Rectángulo_7497" data-name="Rectángulo 7497" width="155.01" height="245.05" rx="46.05" transform="translate(760.11 846.43)" fill="#3d3d3d" opacity="0.95"/>
      <rect id="Rectángulo_7498" data-name="Rectángulo 7498" width="155.01" height="245.05" rx="46.05" transform="translate(759.93 846.26)" fill="#3b3b3b" opacity="0.96"/>
      <rect id="Rectángulo_7499" data-name="Rectángulo 7499" width="155.01" height="245.05" rx="46.05" transform="translate(759.74 846.08)" fill="#393939" opacity="0.97"/>
      <rect id="Rectángulo_7500" data-name="Rectángulo 7500" width="155.01" height="245.05" rx="46.05" transform="translate(759.56 845.9)" fill="#373737" opacity="0.98"/>
      <rect id="Rectángulo_7501" data-name="Rectángulo 7501" width="155.01" height="245.05" rx="46.05" transform="translate(759.37 845.72)" fill="#353535" opacity="0.99"/>
      <rect id="Rectángulo_7502" data-name="Rectángulo 7502" width="155.01" height="245.05" rx="46.05" transform="translate(759.19 845.55)" fill="#333"/>
    </g>
    <g id="Grupo_58699" data-name="Grupo 58699" transform="translate(187.8 5336.391)">
      <rect id="Rectángulo_7503" data-name="Rectángulo 7503" width="249.9" height="159.86" rx="51.4" transform="translate(916.62 843.12) rotate(90)" fill="url(#linear-gradient)"/>
      <rect id="Rectángulo_7504" data-name="Rectángulo 7504" width="245.05" height="155.01" rx="46.05" transform="translate(914.19 845.55) rotate(90)" fill="#ededed"/>
    </g>
    <g id="Grupo_58700" data-name="Grupo 58700" transform="translate(187.8 5336.391)">
      <rect id="Rectángulo_7505" data-name="Rectángulo 7505" width="1.71" height="1.71" transform="translate(834.98 1110.8)" fill="#4d4d4d"/>
      <path id="Trazado_119729" data-name="Trazado 119729" d="M829.8,1112.51h-3.46v-1.71h3.46Zm-8.64,0h-3.45v-1.71h3.45Zm-8.64,0h-3.45v-1.71h3.45Zm-8.63,0h-3.46v-1.71h3.46Zm-8.64,0h-3.46v-1.71h3.46Zm-8.64,0h-3.45v-1.71h3.45Zm-8.63,0h-3.46v-1.71H778Zm-8.64,0h-3.46v-1.71h3.46Zm-8.64,0h-.05a24.071,24.071,0,0,1-3.51-.25l.25-1.7a22.009,22.009,0,0,0,3.26.24Zm-8.7-1.61a25.113,25.113,0,0,1-3.23-1.53l.84-1.49a23,23,0,0,0,3,1.42Zm-7.57-4.69a24.079,24.079,0,0,1-2.46-2.59l1.33-1.08a22.523,22.523,0,0,0,2.28,2.41Zm-5.37-7.09a25.108,25.108,0,0,1-1.35-3.32l1.63-.52a21.524,21.524,0,0,0,1.26,3.07Zm-2.42-8.57c-.07-.72-.1-1.45-.1-2.19V1087h1.71v1.34q0,1,.09,2Zm1.61-8.71h-1.71v-3.45h1.71Zm0-8.64h-1.71v-3.45h1.71Zm0-8.63h-1.71v-3.46h1.71Zm0-8.64h-1.71v-3.45h1.71Zm0-8.64h-1.71v-3.45h1.71Zm0-8.63h-1.71v-3.46h1.71Zm0-8.64h-1.71v-3.45h1.71Zm0-8.64h-1.71v-3.45h1.71Zm0-8.63h-1.71v-3.46h1.71Zm0-8.64h-1.71v-3.45h1.71Zm0-8.64h-1.71V992h1.71Zm0-8.63h-1.71v-3.46h1.71Zm0-34.55h-1.71v-3.46h1.71Zm0-8.64h-1.71V940.2h1.71Zm0-8.64h-1.71v-3.45h1.71Zm0-8.63h-1.71v-3.46h1.71Zm0-8.64h-1.71v-3.45h1.71Zm0-8.63h-1.71v-3.46h1.71Zm0-8.64h-1.71V897h1.71Zm0-8.64h-1.71v-3.45h1.71Zm0-8.64h-1.71v-3.45h1.71Zm0-8.63h-1.71V871.1h1.71Zm0-8.64h-1.71v-3.45h1.71Zm0-8.64h-1.71v-3.45h1.71Zm0-8.63h-1.71v-.84a24.589,24.589,0,0,1,.15-2.707l1.7.187a23.487,23.487,0,0,0-.14,2.52Zm1.22-8.23-1.63-.55a26.3,26.3,0,0,1,1.38-3.29l1.53.76a23.017,23.017,0,0,0-1.33,3.08Zm4-7.29-1.34-1.06a24.075,24.075,0,0,1,2.41-2.63l1.18,1.24a23.755,23.755,0,0,0-2.33,2.45Zm6.22-5.47-.88-1.47a25.753,25.753,0,0,1,3.19-1.61l.65,1.59a22.767,22.767,0,0,0-3.04,1.49Zm80.13-2.37h-3.45v-1.71h3.45Zm-8.63-.09h-3.46v-1.72h3.46Zm-8.64-.09H809.1v-1.72h3.45Zm-8.63-.09h-3.46v-1.71h3.45Zm-8.64-.09h-3.46v-1.71h3.46Zm-8.64-.09h-3.45v-1.71h3.45Zm-29.2,0-.27-1.69a23.522,23.522,0,0,1,3.56-.28v1.71a21.3,21.3,0,0,0-3.37.24Zm20.57-.07h-3.46v-1.71h3.46Zm-8.64-.1h-3.45v-1.71h3.46Z" fill="#4d4d4d"/>
      <rect id="Rectángulo_7506" data-name="Rectángulo 7506" width="1.71" height="1.71" transform="translate(834.4 824.687) rotate(-89.427)" fill="#4d4d4d"/>
    </g>
    <path id="Trazado_119880" data-name="Trazado 119880" d="M11.188-4.263A4.528,4.528,0,0,1,9.664-1.011,5.355,5.355,0,0,1,6.038.176,4.816,4.816,0,0,1,2.167-1.481,6.793,6.793,0,0,1,.756-6.029v-.782a7.671,7.671,0,0,1,.65-3.252,4.874,4.874,0,0,1,1.859-2.158,5.207,5.207,0,0,1,2.808-.751,5.217,5.217,0,0,1,3.568,1.187,4.866,4.866,0,0,1,1.564,3.331H8.569a2.673,2.673,0,0,0-.69-1.8,2.555,2.555,0,0,0-1.806-.558A2.24,2.24,0,0,0,4.1-9.866a5.3,5.3,0,0,0-.672,2.931v.967a5.667,5.667,0,0,0,.628,3.032,2.2,2.2,0,0,0,1.982.958,2.6,2.6,0,0,0,1.824-.558,2.521,2.521,0,0,0,.69-1.727Zm1.169-.58A5.64,5.64,0,0,1,12.9-7.365a3.989,3.989,0,0,1,1.569-1.714,4.577,4.577,0,0,1,2.377-.606,4.33,4.33,0,0,1,3.142,1.178,4.727,4.727,0,0,1,1.358,3.2l.018.65a4.97,4.97,0,0,1-1.222,3.511A4.247,4.247,0,0,1,16.866.176a4.268,4.268,0,0,1-3.283-1.318,5.058,5.058,0,0,1-1.226-3.586Zm2.54.18a3.555,3.555,0,0,0,.51,2.073,1.682,1.682,0,0,0,1.459.717,1.686,1.686,0,0,0,1.441-.709,3.89,3.89,0,0,0,.519-2.267,3.519,3.519,0,0,0-.519-2.06,1.686,1.686,0,0,0-1.459-.731,1.658,1.658,0,0,0-1.441.726A3.955,3.955,0,0,0,14.9-4.662ZM25.269-9.51l.079,1.1a3.32,3.32,0,0,1,2.733-1.274,2.759,2.759,0,0,1,2.25.888,4.142,4.142,0,0,1,.756,2.654V0h-2.54V-6.082A1.648,1.648,0,0,0,28.2-7.255a1.574,1.574,0,0,0-1.169-.365,1.747,1.747,0,0,0-1.608.914V0h-2.54V-9.51ZM38.162-2.628a.818.818,0,0,0-.461-.734,5.241,5.241,0,0,0-1.481-.479q-3.393-.712-3.393-2.883a2.613,2.613,0,0,1,1.05-2.114,4.237,4.237,0,0,1,2.747-.848,4.56,4.56,0,0,1,2.9.853,2.687,2.687,0,0,1,1.085,2.215h-2.54a1.229,1.229,0,0,0-.352-.9,1.488,1.488,0,0,0-1.1-.356,1.52,1.52,0,0,0-.993.29.916.916,0,0,0-.352.738.783.783,0,0,0,.4.681,4.114,4.114,0,0,0,1.349.448,11.019,11.019,0,0,1,1.6.426,2.628,2.628,0,0,1,2.013,2.558,2.481,2.481,0,0,1-1.116,2.1,4.815,4.815,0,0,1-2.883.8A5.029,5.029,0,0,1,34.51-.25a3.561,3.561,0,0,1-1.455-1.169,2.716,2.716,0,0,1-.527-1.6h2.408a1.326,1.326,0,0,0,.5,1.037,1.987,1.987,0,0,0,1.248.36,1.839,1.839,0,0,0,1.1-.277A.861.861,0,0,0,38.162-2.628Zm9.8,1.661A3.185,3.185,0,0,1,45.36.176,3,3,0,0,1,43.027-.7a3.752,3.752,0,0,1-.822-2.575V-9.51h2.54v6.151q0,1.487,1.354,1.487a1.834,1.834,0,0,0,1.775-.9V-9.51h2.549V0H48.032ZM54.721-9.51,54.8-8.446a3.342,3.342,0,0,1,2.733-1.239,2.536,2.536,0,0,1,2.522,1.45,3.265,3.265,0,0,1,2.856-1.45,2.836,2.836,0,0,1,2.3.9,4.141,4.141,0,0,1,.756,2.711V0H63.422V-6.064a1.811,1.811,0,0,0-.316-1.182,1.4,1.4,0,0,0-1.116-.374,1.585,1.585,0,0,0-1.582,1.09L60.416,0h-2.54V-6.056a1.789,1.789,0,0,0-.325-1.2,1.416,1.416,0,0,0-1.107-.369,1.646,1.646,0,0,0-1.564.9V0h-2.54V-9.51ZM70.6,0H68.054V-9.51H70.6ZM67.9-11.971a1.251,1.251,0,0,1,.382-.94,1.436,1.436,0,0,1,1.042-.369,1.44,1.44,0,0,1,1.037.369,1.244,1.244,0,0,1,.387.94,1.247,1.247,0,0,1-.391.949,1.443,1.443,0,0,1-1.033.369,1.443,1.443,0,0,1-1.033-.369A1.247,1.247,0,0,1,67.9-11.971ZM72.3-4.825a5.731,5.731,0,0,1,1-3.542,3.237,3.237,0,0,1,2.729-1.318,2.913,2.913,0,0,1,2.294,1.037V-13.5h2.549V0H78.574l-.123-1.011A2.989,2.989,0,0,1,76.008.176a3.228,3.228,0,0,1-2.694-1.323A5.916,5.916,0,0,1,72.3-4.825Zm2.54.189A3.754,3.754,0,0,0,75.3-2.585a1.517,1.517,0,0,0,1.354.713,1.7,1.7,0,0,0,1.661-.995V-6.625a1.675,1.675,0,0,0-1.644-.995Q74.839-7.62,74.839-4.636Zm7.6-.207a5.64,5.64,0,0,1,.545-2.522,3.989,3.989,0,0,1,1.569-1.714,4.577,4.577,0,0,1,2.377-.606,4.33,4.33,0,0,1,3.142,1.178,4.727,4.727,0,0,1,1.358,3.2l.018.65a4.97,4.97,0,0,1-1.222,3.511A4.247,4.247,0,0,1,86.95.176a4.268,4.268,0,0,1-3.283-1.318,5.058,5.058,0,0,1-1.226-3.586Zm2.54.18a3.555,3.555,0,0,0,.51,2.073,1.682,1.682,0,0,0,1.459.717,1.686,1.686,0,0,0,1.441-.709,3.89,3.89,0,0,0,.519-2.267,3.519,3.519,0,0,0-.519-2.06,1.686,1.686,0,0,0-1.459-.731,1.658,1.658,0,0,0-1.441.726A3.955,3.955,0,0,0,84.981-4.662ZM98.358-7.128a6.9,6.9,0,0,0-.914-.07,1.86,1.86,0,0,0-1.89.976V0h-2.54V-9.51h2.4l.07,1.134A2.354,2.354,0,0,1,97.6-9.686a2.662,2.662,0,0,1,.791.114Z" transform="translate(979.04 6308.771)" fill="#12263f"/>
    <g id="Grupo_58739" data-name="Grupo 58739" transform="translate(187.8 5336.391)">
      <path id="Trazado_119825" data-name="Trazado 119825" d="M869.41,924.56a2.13,2.13,0,0,1-2.21,1.25H847.87c-1.56,0-2.2-.76-2-2.29.41-3.72.79-7.45,1.18-11.17q.525-4.86,1-9.71a1.66,1.66,0,0,1,1.69-1.56h2.24v4.88a1.69,1.69,0,1,0,3.37,0v-4.88h4.48v4.88a1.69,1.69,0,1,0,3.37,0v-4.88h2.18a1.68,1.68,0,0,1,1.75,1.61q1,9.2,1.93,18.39c.09.79.21,1.58.32,2.37Z" fill="#f4729a"/>
      <path id="Trazado_119826" data-name="Trazado 119826" d="M832.18,868.22c.87.16,1.74.28,2.59.5a15.3,15.3,0,0,1,5.38,2.58,1.47,1.47,0,0,0,.81.28,7.32,7.32,0,0,1,7.42,7.47v3.22h-2.83a.7.7,0,0,1-.49-.26,6.85,6.85,0,0,0-6.07-3.11H828.36a6.78,6.78,0,0,0-5.88,3.05.84.84,0,0,1-.57.31h-2.72a12.74,12.74,0,0,1,2.46-9.51,11.63,11.63,0,0,1,7.8-4.44,1.558,1.558,0,0,0,.37-.1Z" fill="#f4729a"/>
      <path id="Trazado_119827" data-name="Trazado 119827" d="M842.16,903.36c.76.15,1.43.26,2.07.43.12,0,.25.3.23.44q-.42,4.23-.87,8.44c-.38,3.65-.79,7.3-1.14,11a13.627,13.627,0,0,0,.14,2.17H813.87c-1.42,0-2-.62-2-2.06,0-2.28-.08-4.58.12-6.85a15.08,15.08,0,0,1,11.83-13.23c.49-.1,1-.17,1.58-.27a8.952,8.952,0,0,0,2.88,8,8.08,8.08,0,0,0,5.33,2.06,8.23,8.23,0,0,0,6.63-3,9.16,9.16,0,0,0,1.92-7.13Z" fill="#f4729a"/>
      <path id="Trazado_119828" data-name="Trazado 119828" d="M833.79,882.27h5.45a3.36,3.36,0,0,1,3.51,3.5v6.69A9,9,0,0,1,824.91,894a10.14,10.14,0,0,1-.14-1.74q0-3.2,0-6.41a3.39,3.39,0,0,1,3.58-3.6Z" fill="#f4729a"/>
      <path id="Trazado_119829" data-name="Trazado 119829" d="M852,901.06a26.844,26.844,0,0,1,.12-3.24A5.56,5.56,0,0,1,858,893.2a5.63,5.63,0,0,1,5.19,5.34v2.52h-3.36v-2.25a2.25,2.25,0,0,0-4.5,0v2.25H852Z" fill="#f4729a"/>
      <path id="Trazado_119830" data-name="Trazado 119830" d="M828.74,903.71a12.57,12.57,0,0,0,10,0c.22,2.28-.29,4.22-2.26,5.49a4.77,4.77,0,0,1-5.36.1C829.08,908.06,828.51,906.09,828.74,903.71Z" fill="#f4729a"/>
      <path id="Trazado_119831" data-name="Trazado 119831" d="M821.36,892.36c-1.59.17-3-.08-3.92-1.51a3.19,3.19,0,0,1,0-3.61c.91-1.47,2.33-1.73,4-1.56Z" fill="#f4729a"/>
      <path id="Trazado_119832" data-name="Trazado 119832" d="M846.15,892.36v-6.67A3.73,3.73,0,0,1,850,887a3.17,3.17,0,0,1,.24,3.6C849.33,892.22,847.87,892.54,846.15,892.36Z" fill="#f4729a"/>
      <path id="Trazado_119833" data-name="Trazado 119833" d="M855.34,901.06v-2.25a2.25,2.25,0,0,1,4.5,0v2.25Z" fill="#f4729a"/>
    </g>
  </g>
</svg>
