<svg xmlns="http://www.w3.org/2000/svg" xmlns:xlink="http://www.w3.org/1999/xlink" width="199.48" height="289.791" viewBox="0 0 199.48 289.791">
  <defs>
    <linearGradient id="linear-gradient" x1="0.237" y1="-0.211" x2="0.766" y2="1.22" gradientUnits="objectBoundingBox">
      <stop offset="0" stop-color="#fff"/>
      <stop offset="1" stop-color="#d2d1d1"/>
    </linearGradient>
  </defs>
  <g id="card14" transform="translate(-1149.62 -6479.43)">
    <path id="Trazado_119739" data-name="Trazado 119739" d="M1062,1432.75h76a23.3,23.3,0,0,0,23.3-23.3V1167.32a23.3,23.3,0,0,0-23.3-23.3h-76Z" transform="translate(187.8 5336.391)" fill="#ef2a66"/>
    <g id="Grupo_58716" data-name="Grupo 58716" transform="translate(187.8 5336.391)" opacity="0.8">
      <rect id="Rectángulo_7931" data-name="Rectángulo 7931" width="155.01" height="245.05" rx="46.05" transform="translate(1003.21 1183.73)" fill="#fff" opacity="0"/>
      <rect id="Rectángulo_7932" data-name="Rectángulo 7932" width="155.01" height="245.05" rx="46.05" transform="translate(1003.02 1183.56)" fill="#f8f8f8" opacity="0.01"/>
      <rect id="Rectángulo_7933" data-name="Rectángulo 7933" width="155.01" height="245.05" rx="46.05" transform="translate(1002.84 1183.38)" fill="#f6f6f6" opacity="0.02"/>
      <rect id="Rectángulo_7934" data-name="Rectángulo 7934" width="155.01" height="245.05" rx="46.05" transform="translate(1002.65 1183.2)" fill="#f4f4f4" opacity="0.03"/>
      <rect id="Rectángulo_7935" data-name="Rectángulo 7935" width="155.01" height="245.05" rx="46.05" transform="translate(1002.47 1183.03)" fill="#f2f2f2" opacity="0.04"/>
      <rect id="Rectángulo_7936" data-name="Rectángulo 7936" width="155.01" height="245.05" rx="46.05" transform="translate(1002.28 1182.85)" fill="#f0f0f0" opacity="0.05"/>
      <rect id="Rectángulo_7937" data-name="Rectángulo 7937" width="155.01" height="245.05" rx="46.05" transform="translate(1002.1 1182.67)" fill="#eee" opacity="0.06"/>
      <rect id="Rectángulo_7938" data-name="Rectángulo 7938" width="155.01" height="245.05" rx="46.05" transform="translate(1001.91 1182.49)" fill="#ececec" opacity="0.07"/>
      <rect id="Rectángulo_7939" data-name="Rectángulo 7939" width="155.01" height="245.05" rx="46.05" transform="translate(1001.73 1182.32)" fill="#eaeaea" opacity="0.08"/>
      <rect id="Rectángulo_7940" data-name="Rectángulo 7940" width="155.01" height="245.05" rx="46.05" transform="translate(1001.54 1182.14)" fill="#e8e8e8" opacity="0.09"/>
      <rect id="Rectángulo_7941" data-name="Rectángulo 7941" width="155.01" height="245.05" rx="46.05" transform="translate(1001.36 1181.96)" fill="#e6e6e6" opacity="0.1"/>
      <rect id="Rectángulo_7942" data-name="Rectángulo 7942" width="155.01" height="245.05" rx="46.05" transform="translate(1001.17 1181.79)" fill="#e4e4e4" opacity="0.11"/>
      <rect id="Rectángulo_7943" data-name="Rectángulo 7943" width="155.01" height="245.05" rx="46.05" transform="translate(1000.99 1181.61)" fill="#e2e2e2" opacity="0.12"/>
      <rect id="Rectángulo_7944" data-name="Rectángulo 7944" width="155.01" height="245.05" rx="46.05" transform="translate(1000.8 1181.43)" fill="#e0e0e0" opacity="0.13"/>
      <rect id="Rectángulo_7945" data-name="Rectángulo 7945" width="155.01" height="245.05" rx="46.05" transform="translate(1000.62 1181.26)" fill="#dedede" opacity="0.14"/>
      <rect id="Rectángulo_7946" data-name="Rectángulo 7946" width="155.01" height="245.05" rx="46.05" transform="translate(1000.43 1181.08)" fill="#dcdcdc" opacity="0.15"/>
      <rect id="Rectángulo_7947" data-name="Rectángulo 7947" width="155.01" height="245.05" rx="46.05" transform="translate(1000.25 1180.9)" fill="#dadada" opacity="0.16"/>
      <rect id="Rectángulo_7948" data-name="Rectángulo 7948" width="155.01" height="245.05" rx="46.05" transform="translate(1000.06 1180.72)" fill="#d8d8d8" opacity="0.17"/>
      <rect id="Rectángulo_7949" data-name="Rectángulo 7949" width="155.01" height="245.05" rx="46.05" transform="translate(999.87 1180.55)" fill="#d6d6d6" opacity="0.18"/>
      <rect id="Rectángulo_7950" data-name="Rectángulo 7950" width="155.01" height="245.05" rx="46.05" transform="translate(999.69 1180.37)" fill="#d4d4d4" opacity="0.19"/>
      <rect id="Rectángulo_7951" data-name="Rectángulo 7951" width="155.01" height="245.05" rx="46.05" transform="translate(999.5 1180.19)" fill="#d2d2d2" opacity="0.2"/>
      <rect id="Rectángulo_7952" data-name="Rectángulo 7952" width="155.01" height="245.05" rx="46.05" transform="translate(999.32 1180.02)" fill="#d0d0d0" opacity="0.21"/>
      <rect id="Rectángulo_7953" data-name="Rectángulo 7953" width="155.01" height="245.05" rx="46.05" transform="translate(999.13 1179.84)" fill="#cecece" opacity="0.22"/>
      <rect id="Rectángulo_7954" data-name="Rectángulo 7954" width="155.01" height="245.05" rx="46.05" transform="translate(998.95 1179.66)" fill="#ccc" opacity="0.23"/>
      <rect id="Rectángulo_7955" data-name="Rectángulo 7955" width="155.01" height="245.05" rx="46.05" transform="translate(998.76 1179.49)" fill="#cacaca" opacity="0.24"/>
      <rect id="Rectángulo_7956" data-name="Rectángulo 7956" width="155.01" height="245.05" rx="46.05" transform="translate(998.58 1179.31)" fill="#c8c8c8" opacity="0.25"/>
      <rect id="Rectángulo_7957" data-name="Rectángulo 7957" width="155.01" height="245.05" rx="46.05" transform="translate(998.39 1179.13)" fill="#c5c5c5" opacity="0.26"/>
      <rect id="Rectángulo_7958" data-name="Rectángulo 7958" width="155.01" height="245.05" rx="46.05" transform="translate(998.21 1178.96)" fill="#c3c3c3" opacity="0.27"/>
      <rect id="Rectángulo_7959" data-name="Rectángulo 7959" width="155.01" height="245.05" rx="46.05" transform="translate(998.02 1178.78)" fill="#c1c1c1" opacity="0.28"/>
      <rect id="Rectángulo_7960" data-name="Rectángulo 7960" width="155.01" height="245.05" rx="46.05" transform="translate(997.84 1178.6)" fill="#bfbfbf" opacity="0.29"/>
      <rect id="Rectángulo_7961" data-name="Rectángulo 7961" width="155.01" height="245.05" rx="46.05" transform="translate(997.65 1178.42)" fill="#bdbdbd" opacity="0.3"/>
      <rect id="Rectángulo_7962" data-name="Rectángulo 7962" width="155.01" height="245.05" rx="46.05" transform="translate(997.47 1178.25)" fill="#bbb" opacity="0.31"/>
      <rect id="Rectángulo_7963" data-name="Rectángulo 7963" width="155.01" height="245.05" rx="46.05" transform="translate(997.28 1178.07)" fill="#b9b9b9" opacity="0.32"/>
      <rect id="Rectángulo_7964" data-name="Rectángulo 7964" width="155.01" height="245.05" rx="46.05" transform="translate(997.1 1177.89)" fill="#b7b7b7" opacity="0.33"/>
      <rect id="Rectángulo_7965" data-name="Rectángulo 7965" width="155.01" height="245.05" rx="46.05" transform="translate(996.91 1177.72)" fill="#b5b5b5" opacity="0.34"/>
      <rect id="Rectángulo_7966" data-name="Rectángulo 7966" width="155.01" height="245.05" rx="46.05" transform="translate(996.73 1177.54)" fill="#b3b3b3" opacity="0.35"/>
      <rect id="Rectángulo_7967" data-name="Rectángulo 7967" width="155.01" height="245.05" rx="46.05" transform="translate(996.54 1177.36)" fill="#b1b1b1" opacity="0.36"/>
      <rect id="Rectángulo_7968" data-name="Rectángulo 7968" width="155.01" height="245.05" rx="46.05" transform="translate(996.36 1177.19)" fill="#afafaf" opacity="0.37"/>
      <rect id="Rectángulo_7969" data-name="Rectángulo 7969" width="155.01" height="245.05" rx="46.05" transform="translate(996.17 1177.01)" fill="#adadad" opacity="0.38"/>
      <rect id="Rectángulo_7970" data-name="Rectángulo 7970" width="155.01" height="245.05" rx="46.05" transform="translate(995.99 1176.83)" fill="#ababab" opacity="0.39"/>
      <rect id="Rectángulo_7971" data-name="Rectángulo 7971" width="155.01" height="245.05" rx="46.05" transform="translate(995.8 1176.65)" fill="#a9a9a9" opacity="0.4"/>
      <rect id="Rectángulo_7972" data-name="Rectángulo 7972" width="155.01" height="245.05" rx="46.05" transform="translate(995.62 1176.48)" fill="#a7a7a7" opacity="0.41"/>
      <rect id="Rectángulo_7973" data-name="Rectángulo 7973" width="155.01" height="245.05" rx="46.05" transform="translate(995.43 1176.3)" fill="#a5a5a5" opacity="0.42"/>
      <rect id="Rectángulo_7974" data-name="Rectángulo 7974" width="155.01" height="245.05" rx="46.05" transform="translate(995.25 1176.12)" fill="#a3a3a3" opacity="0.43"/>
      <rect id="Rectángulo_7975" data-name="Rectángulo 7975" width="155.01" height="245.05" rx="46.05" transform="translate(995.06 1175.95)" fill="#a1a1a1" opacity="0.44"/>
      <rect id="Rectángulo_7976" data-name="Rectángulo 7976" width="155.01" height="245.05" rx="46.05" transform="translate(994.88 1175.77)" fill="#9f9f9f" opacity="0.45"/>
      <rect id="Rectángulo_7977" data-name="Rectángulo 7977" width="155.01" height="245.05" rx="46.05" transform="translate(994.69 1175.59)" fill="#9d9d9d" opacity="0.46"/>
      <rect id="Rectángulo_7978" data-name="Rectángulo 7978" width="155.01" height="245.05" rx="46.05" transform="translate(994.51 1175.42)" fill="#9b9b9b" opacity="0.47"/>
      <rect id="Rectángulo_7979" data-name="Rectángulo 7979" width="155.01" height="245.05" rx="46.05" transform="translate(994.32 1175.24)" fill="#999" opacity="0.48"/>
      <rect id="Rectángulo_7980" data-name="Rectángulo 7980" width="155.01" height="245.05" rx="46.05" transform="translate(994.14 1175.06)" fill="#979797" opacity="0.49"/>
      <rect id="Rectángulo_7981" data-name="Rectángulo 7981" width="155.01" height="245.05" rx="46.05" transform="translate(993.95 1174.88)" fill="#959595" opacity="0.5"/>
      <rect id="Rectángulo_7982" data-name="Rectángulo 7982" width="155.01" height="245.05" rx="46.05" transform="translate(993.77 1174.71)" fill="#939393" opacity="0.5"/>
      <rect id="Rectángulo_7983" data-name="Rectángulo 7983" width="155.01" height="245.05" rx="46.05" transform="translate(993.58 1174.53)" fill="#919191" opacity="0.51"/>
      <rect id="Rectángulo_7984" data-name="Rectángulo 7984" width="155.01" height="245.05" rx="46.05" transform="translate(993.4 1174.35)" fill="#8f8f8f" opacity="0.52"/>
      <rect id="Rectángulo_7985" data-name="Rectángulo 7985" width="155.01" height="245.05" rx="46.05" transform="translate(993.21 1174.18)" fill="#8d8d8d" opacity="0.53"/>
      <rect id="Rectángulo_7986" data-name="Rectángulo 7986" width="155.01" height="245.05" rx="46.05" transform="translate(993.03 1174)" fill="#8b8b8b" opacity="0.54"/>
      <rect id="Rectángulo_7987" data-name="Rectángulo 7987" width="155.01" height="245.05" rx="46.05" transform="translate(992.84 1173.82)" fill="#898989" opacity="0.55"/>
      <rect id="Rectángulo_7988" data-name="Rectángulo 7988" width="155.01" height="245.05" rx="46.05" transform="translate(992.66 1173.65)" fill="#878787" opacity="0.56"/>
      <rect id="Rectángulo_7989" data-name="Rectángulo 7989" width="155.01" height="245.05" rx="46.05" transform="translate(992.47 1173.47)" fill="#858585" opacity="0.57"/>
      <rect id="Rectángulo_7990" data-name="Rectángulo 7990" width="155.01" height="245.05" rx="46.05" transform="translate(992.29 1173.29)" fill="#838383" opacity="0.58"/>
      <rect id="Rectángulo_7991" data-name="Rectángulo 7991" width="155.01" height="245.05" rx="46.05" transform="translate(992.1 1173.12)" fill="#818181" opacity="0.59"/>
      <rect id="Rectángulo_7992" data-name="Rectángulo 7992" width="155.01" height="245.05" rx="46.05" transform="translate(991.92 1172.94)" fill="gray" opacity="0.6"/>
      <rect id="Rectángulo_7993" data-name="Rectángulo 7993" width="155.01" height="245.05" rx="46.05" transform="translate(991.73 1172.76)" fill="gray" opacity="0.61"/>
      <rect id="Rectángulo_7994" data-name="Rectángulo 7994" width="155.01" height="245.05" rx="46.05" transform="translate(991.55 1172.58)" fill="gray" opacity="0.62"/>
      <rect id="Rectángulo_7995" data-name="Rectángulo 7995" width="155.01" height="245.05" rx="46.05" transform="translate(991.36 1172.41)" fill="#7e7e7e" opacity="0.63"/>
      <rect id="Rectángulo_7996" data-name="Rectángulo 7996" width="155.01" height="245.05" rx="46.05" transform="translate(991.18 1172.23)" fill="#7c7c7c" opacity="0.64"/>
      <rect id="Rectángulo_7997" data-name="Rectángulo 7997" width="155.01" height="245.05" rx="46.05" transform="translate(990.99 1172.05)" fill="#7a7a7a" opacity="0.65"/>
      <rect id="Rectángulo_7998" data-name="Rectángulo 7998" width="155.01" height="245.05" rx="46.05" transform="translate(990.81 1171.88)" fill="#787878" opacity="0.66"/>
      <rect id="Rectángulo_7999" data-name="Rectángulo 7999" width="155.01" height="245.05" rx="46.05" transform="translate(990.62 1171.7)" fill="#767676" opacity="0.67"/>
      <rect id="Rectángulo_8000" data-name="Rectángulo 8000" width="155.01" height="245.05" rx="46.05" transform="translate(990.44 1171.52)" fill="#747474" opacity="0.68"/>
      <rect id="Rectángulo_8001" data-name="Rectángulo 8001" width="155.01" height="245.05" rx="46.05" transform="translate(990.25 1171.35)" fill="#727272" opacity="0.69"/>
      <rect id="Rectángulo_8002" data-name="Rectángulo 8002" width="155.01" height="245.05" rx="46.05" transform="translate(990.07 1171.17)" fill="#707070" opacity="0.7"/>
      <rect id="Rectángulo_8003" data-name="Rectángulo 8003" width="155.01" height="245.05" rx="46.05" transform="translate(989.88 1170.99)" fill="#6e6e6e" opacity="0.71"/>
      <rect id="Rectángulo_8004" data-name="Rectángulo 8004" width="155.01" height="245.05" rx="46.05" transform="translate(989.7 1170.81)" fill="#6c6c6c" opacity="0.72"/>
      <rect id="Rectángulo_8005" data-name="Rectángulo 8005" width="155.01" height="245.05" rx="46.05" transform="translate(989.51 1170.64)" fill="#6a6a6a" opacity="0.73"/>
      <rect id="Rectángulo_8006" data-name="Rectángulo 8006" width="155.01" height="245.05" rx="46.05" transform="translate(989.33 1170.46)" fill="#686868" opacity="0.74"/>
      <rect id="Rectángulo_8007" data-name="Rectángulo 8007" width="155.01" height="245.05" rx="46.05" transform="translate(989.14 1170.28)" fill="#656565" opacity="0.75"/>
      <rect id="Rectángulo_8008" data-name="Rectángulo 8008" width="155.01" height="245.05" rx="46.05" transform="translate(988.95 1170.11)" fill="#636363" opacity="0.76"/>
      <rect id="Rectángulo_8009" data-name="Rectángulo 8009" width="155.01" height="245.05" rx="46.05" transform="translate(988.77 1169.93)" fill="#616161" opacity="0.77"/>
      <rect id="Rectángulo_8010" data-name="Rectángulo 8010" width="155.01" height="245.05" rx="46.05" transform="translate(988.58 1169.75)" fill="#5f5f5f" opacity="0.78"/>
      <rect id="Rectángulo_8011" data-name="Rectángulo 8011" width="155.01" height="245.05" rx="46.05" transform="translate(988.4 1169.58)" fill="#5d5d5d" opacity="0.79"/>
      <rect id="Rectángulo_8012" data-name="Rectángulo 8012" width="155.01" height="245.05" rx="46.05" transform="translate(988.21 1169.4)" fill="#5b5b5b" opacity="0.8"/>
      <rect id="Rectángulo_8013" data-name="Rectángulo 8013" width="155.01" height="245.05" rx="46.05" transform="translate(988.03 1169.22)" fill="#595959" opacity="0.81"/>
      <rect id="Rectángulo_8014" data-name="Rectángulo 8014" width="155.01" height="245.05" rx="46.05" transform="translate(987.84 1169.04)" fill="#575757" opacity="0.82"/>
      <rect id="Rectángulo_8015" data-name="Rectángulo 8015" width="155.01" height="245.05" rx="46.05" transform="translate(987.66 1168.87)" fill="#555" opacity="0.83"/>
      <rect id="Rectángulo_8016" data-name="Rectángulo 8016" width="155.01" height="245.05" rx="46.05" transform="translate(987.47 1168.69)" fill="#535353" opacity="0.84"/>
      <rect id="Rectángulo_8017" data-name="Rectángulo 8017" width="155.01" height="245.05" rx="46.05" transform="translate(987.29 1168.51)" fill="#515151" opacity="0.85"/>
      <rect id="Rectángulo_8018" data-name="Rectángulo 8018" width="155.01" height="245.05" rx="46.05" transform="translate(987.1 1168.34)" fill="#4f4f4f" opacity="0.86"/>
      <rect id="Rectángulo_8019" data-name="Rectángulo 8019" width="155.01" height="245.05" rx="46.05" transform="translate(986.92 1168.16)" fill="#4d4d4d" opacity="0.87"/>
      <rect id="Rectángulo_8020" data-name="Rectángulo 8020" width="155.01" height="245.05" rx="46.05" transform="translate(986.73 1167.98)" fill="#4b4b4b" opacity="0.88"/>
      <rect id="Rectángulo_8021" data-name="Rectángulo 8021" width="155.01" height="245.05" rx="46.05" transform="translate(986.55 1167.81)" fill="#494949" opacity="0.89"/>
      <rect id="Rectángulo_8022" data-name="Rectángulo 8022" width="155.01" height="245.05" rx="46.05" transform="translate(986.36 1167.63)" fill="#474747" opacity="0.9"/>
      <rect id="Rectángulo_8023" data-name="Rectángulo 8023" width="155.01" height="245.05" rx="46.05" transform="translate(986.18 1167.45)" fill="#454545" opacity="0.91"/>
      <rect id="Rectángulo_8024" data-name="Rectángulo 8024" width="155.01" height="245.05" rx="46.05" transform="translate(985.99 1167.28)" fill="#434343" opacity="0.92"/>
      <rect id="Rectángulo_8025" data-name="Rectángulo 8025" width="155.01" height="245.05" rx="46.05" transform="translate(985.81 1167.1)" fill="#414141" opacity="0.93"/>
      <rect id="Rectángulo_8026" data-name="Rectángulo 8026" width="155.01" height="245.05" rx="46.05" transform="translate(985.62 1166.92)" fill="#3f3f3f" opacity="0.94"/>
      <rect id="Rectángulo_8027" data-name="Rectángulo 8027" width="155.01" height="245.05" rx="46.05" transform="translate(985.44 1166.74)" fill="#3d3d3d" opacity="0.95"/>
      <rect id="Rectángulo_8028" data-name="Rectángulo 8028" width="155.01" height="245.05" rx="46.05" transform="translate(985.25 1166.57)" fill="#3b3b3b" opacity="0.96"/>
      <rect id="Rectángulo_8029" data-name="Rectángulo 8029" width="155.01" height="245.05" rx="46.05" transform="translate(985.07 1166.39)" fill="#393939" opacity="0.97"/>
      <rect id="Rectángulo_8030" data-name="Rectángulo 8030" width="155.01" height="245.05" rx="46.05" transform="translate(984.88 1166.21)" fill="#373737" opacity="0.98"/>
      <rect id="Rectángulo_8031" data-name="Rectángulo 8031" width="155.01" height="245.05" rx="46.05" transform="translate(984.7 1166.04)" fill="#353535" opacity="0.99"/>
      <rect id="Rectángulo_8032" data-name="Rectángulo 8032" width="155.01" height="245.05" rx="46.05" transform="translate(984.51 1165.86)" fill="#333"/>
    </g>
    <g id="Grupo_58717" data-name="Grupo 58717" transform="translate(187.8 5336.391)">
      <rect id="Rectángulo_8033" data-name="Rectángulo 8033" width="249.9" height="159.86" rx="51.4" transform="translate(1141.95 1163.43) rotate(90)" fill="url(#linear-gradient)"/>
      <rect id="Rectángulo_8034" data-name="Rectángulo 8034" width="245.05" height="155.01" rx="46.05" transform="translate(1139.52 1165.86) rotate(90)" fill="#ededed"/>
    </g>
    <g id="Grupo_58718" data-name="Grupo 58718" transform="translate(187.8 5336.391)">
      <rect id="Rectángulo_8035" data-name="Rectángulo 8035" width="1.71" height="1.71" transform="translate(1060.3 1431.11)" fill="#4d4d4d"/>
      <path id="Trazado_119740" data-name="Trazado 119740" d="M1055.12,1432.83h-3.45v-1.72h3.45Zm-8.63,0H1043v-1.72h3.46Zm-8.64,0h-3.46v-1.72h3.46Zm-8.64,0h-3.45v-1.72h3.45Zm-8.64,0h-3.45v-1.72h3.45Zm-8.63,0h-3.46v-1.72h3.46Zm-8.64,0h-3.45v-1.72h3.45Zm-8.64,0h-3.45v-1.72h3.45Zm-8.63,0H986a24.077,24.077,0,0,1-3.51-.26l.25-1.69a23.587,23.587,0,0,0,3.26.23Zm-8.76-1.62a23.827,23.827,0,0,1-3.23-1.53l.85-1.49a22.215,22.215,0,0,0,3,1.42Zm-7.57-4.68a25.007,25.007,0,0,1-2.45-2.6l1.32-1.08a23.654,23.654,0,0,0,2.29,2.41Zm-5.36-7.1a24.2,24.2,0,0,1-1.35-3.31l1.62-.53a23.441,23.441,0,0,0,1.26,3.08Zm-2.43-8.57q-.09-1.08-.09-2.19v-1.33h1.71v1.33q0,1,.09,2Zm1.62-8.71h-1.71v-3.45h1.71Zm0-8.63h-1.71v-3.46h1.71Zm0-8.64h-1.71v-3.46h1.71Zm0-8.64h-1.71v-3.45h1.71Zm0-8.64h-1.71v-3.45h1.71Zm0-8.63h-1.71v-3.46h1.71Zm0-8.64h-1.71v-3.45h1.71Zm0-8.63h-1.71v-3.46h1.71Zm0-8.64h-1.71v-3.46h1.71Zm0-8.64h-1.71V1321h1.71Zm0-8.63h-1.71v-3.46h1.71Zm0-8.64h-1.71v-3.46h1.71Zm0-34.55h-1.71v-3.45h1.71Zm0-8.64h-1.71v-3.45h1.71Zm0-8.63h-1.71v-3.46h1.71Zm0-8.64h-1.71v-3.45h1.71Zm0-8.64h-1.71v-3.45h1.71Zm0-8.63h-1.71V1226h1.71Zm0-8.64h-1.71v-3.46h1.71Zm0-8.64h-1.71v-3.45h1.71Zm0-8.63h-1.71v-3.46h1.71Zm0-8.64h-1.71v-3.46h1.71Zm0-8.64h-1.71v-3.45h1.71Zm0-8.63h-1.71v-3.46h1.71Zm0-8.64h-1.71v-.84a24.3,24.3,0,0,1,.15-2.7l1.7.183a23.65,23.65,0,0,0-.14,2.52Zm1.21-8.23-1.62-.54a25.754,25.754,0,0,1,1.37-3.3l1.53.77a25.794,25.794,0,0,0-1.28,3.07Zm4-7.28-1.34-1.07a26.294,26.294,0,0,1,2.42-2.63L971,1151a23.008,23.008,0,0,0-2.29,2.45Zm6.22-5.48-.88-1.47a24.494,24.494,0,0,1,3.2-1.6l.65,1.58a22.891,22.891,0,0,0-3,1.52Zm80.14-2.36h-3.45v-1.71h3.46Zm-8.64-.1h-3.45v-1.71h3.45Zm-8.63-.09h-3.46v-1.72h3.46Zm-8.64-.09h-3.45v-1.71h3.45Zm-8.64-.09h-3.45v-1.71h3.45Zm-8.63-.09h-3.46v-1.71h3.46Zm-29.21,0-.26-1.69a23.373,23.373,0,0,1,3.55-.28v1.72a21.412,21.412,0,0,0-3.32.23Zm20.57-.07h-3.45v-1.71h3.45Zm-8.63-.09h-3.46v-1.71h3.45Z" fill="#4d4d4d"/>
      <rect id="Rectángulo_8036" data-name="Rectángulo 8036" width="1.71" height="1.71" transform="translate(1059.573 1144.75) rotate(-89.427)" fill="#4d4d4d"/>
    </g>
    <path id="Trazado_119889" data-name="Trazado 119889" d="M11.188-4.263A4.528,4.528,0,0,1,9.664-1.011,5.355,5.355,0,0,1,6.038.176,4.816,4.816,0,0,1,2.167-1.481,6.793,6.793,0,0,1,.756-6.029v-.782a7.671,7.671,0,0,1,.65-3.252,4.874,4.874,0,0,1,1.859-2.158,5.207,5.207,0,0,1,2.808-.751,5.217,5.217,0,0,1,3.568,1.187,4.866,4.866,0,0,1,1.564,3.331H8.569a2.673,2.673,0,0,0-.69-1.8,2.555,2.555,0,0,0-1.806-.558A2.24,2.24,0,0,0,4.1-9.866a5.3,5.3,0,0,0-.672,2.931v.967a5.667,5.667,0,0,0,.628,3.032,2.2,2.2,0,0,0,1.982.958,2.6,2.6,0,0,0,1.824-.558,2.521,2.521,0,0,0,.69-1.727Zm1.169-.58A5.64,5.64,0,0,1,12.9-7.365a3.989,3.989,0,0,1,1.569-1.714,4.577,4.577,0,0,1,2.377-.606,4.33,4.33,0,0,1,3.142,1.178,4.727,4.727,0,0,1,1.358,3.2l.018.65a4.97,4.97,0,0,1-1.222,3.511A4.247,4.247,0,0,1,16.866.176a4.268,4.268,0,0,1-3.283-1.318,5.058,5.058,0,0,1-1.226-3.586Zm2.54.18a3.555,3.555,0,0,0,.51,2.073,1.682,1.682,0,0,0,1.459.717,1.686,1.686,0,0,0,1.441-.709,3.89,3.89,0,0,0,.519-2.267,3.519,3.519,0,0,0-.519-2.06,1.686,1.686,0,0,0-1.459-.731,1.658,1.658,0,0,0-1.441.726A3.955,3.955,0,0,0,14.9-4.662ZM25.269-9.51l.079,1.1a3.32,3.32,0,0,1,2.733-1.274,2.759,2.759,0,0,1,2.25.888,4.142,4.142,0,0,1,.756,2.654V0h-2.54V-6.082A1.648,1.648,0,0,0,28.2-7.255a1.574,1.574,0,0,0-1.169-.365,1.747,1.747,0,0,0-1.608.914V0h-2.54V-9.51ZM38.162-2.628a.818.818,0,0,0-.461-.734,5.241,5.241,0,0,0-1.481-.479q-3.393-.712-3.393-2.883a2.613,2.613,0,0,1,1.05-2.114,4.237,4.237,0,0,1,2.747-.848,4.56,4.56,0,0,1,2.9.853,2.687,2.687,0,0,1,1.085,2.215h-2.54a1.229,1.229,0,0,0-.352-.9,1.488,1.488,0,0,0-1.1-.356,1.52,1.52,0,0,0-.993.29.916.916,0,0,0-.352.738.783.783,0,0,0,.4.681,4.114,4.114,0,0,0,1.349.448,11.019,11.019,0,0,1,1.6.426,2.628,2.628,0,0,1,2.013,2.558,2.481,2.481,0,0,1-1.116,2.1,4.815,4.815,0,0,1-2.883.8A5.029,5.029,0,0,1,34.51-.25a3.561,3.561,0,0,1-1.455-1.169,2.716,2.716,0,0,1-.527-1.6h2.408a1.326,1.326,0,0,0,.5,1.037,1.987,1.987,0,0,0,1.248.36,1.839,1.839,0,0,0,1.1-.277A.861.861,0,0,0,38.162-2.628Zm9.8,1.661A3.185,3.185,0,0,1,45.36.176,3,3,0,0,1,43.027-.7a3.752,3.752,0,0,1-.822-2.575V-9.51h2.54v6.151q0,1.487,1.354,1.487a1.834,1.834,0,0,0,1.775-.9V-9.51h2.549V0H48.032ZM54.721-9.51,54.8-8.446a3.342,3.342,0,0,1,2.733-1.239,2.536,2.536,0,0,1,2.522,1.45,3.265,3.265,0,0,1,2.856-1.45,2.836,2.836,0,0,1,2.3.9,4.141,4.141,0,0,1,.756,2.711V0H63.422V-6.064a1.811,1.811,0,0,0-.316-1.182,1.4,1.4,0,0,0-1.116-.374,1.585,1.585,0,0,0-1.582,1.09L60.416,0h-2.54V-6.056a1.789,1.789,0,0,0-.325-1.2,1.416,1.416,0,0,0-1.107-.369,1.646,1.646,0,0,0-1.564.9V0h-2.54V-9.51ZM70.6,0H68.054V-9.51H70.6ZM67.9-11.971a1.251,1.251,0,0,1,.382-.94,1.436,1.436,0,0,1,1.042-.369,1.44,1.44,0,0,1,1.037.369,1.244,1.244,0,0,1,.387.94,1.247,1.247,0,0,1-.391.949,1.443,1.443,0,0,1-1.033.369,1.443,1.443,0,0,1-1.033-.369A1.247,1.247,0,0,1,67.9-11.971ZM72.3-4.825a5.731,5.731,0,0,1,1-3.542,3.237,3.237,0,0,1,2.729-1.318,2.913,2.913,0,0,1,2.294,1.037V-13.5h2.549V0H78.574l-.123-1.011A2.989,2.989,0,0,1,76.008.176a3.228,3.228,0,0,1-2.694-1.323A5.916,5.916,0,0,1,72.3-4.825Zm2.54.189A3.754,3.754,0,0,0,75.3-2.585a1.517,1.517,0,0,0,1.354.713,1.7,1.7,0,0,0,1.661-.995V-6.625a1.675,1.675,0,0,0-1.644-.995Q74.839-7.62,74.839-4.636Zm7.6-.207a5.64,5.64,0,0,1,.545-2.522,3.989,3.989,0,0,1,1.569-1.714,4.577,4.577,0,0,1,2.377-.606,4.33,4.33,0,0,1,3.142,1.178,4.727,4.727,0,0,1,1.358,3.2l.018.65a4.97,4.97,0,0,1-1.222,3.511A4.247,4.247,0,0,1,86.95.176a4.268,4.268,0,0,1-3.283-1.318,5.058,5.058,0,0,1-1.226-3.586Zm2.54.18a3.555,3.555,0,0,0,.51,2.073,1.682,1.682,0,0,0,1.459.717,1.686,1.686,0,0,0,1.441-.709,3.89,3.89,0,0,0,.519-2.267,3.519,3.519,0,0,0-.519-2.06,1.686,1.686,0,0,0-1.459-.731,1.658,1.658,0,0,0-1.441.726A3.955,3.955,0,0,0,84.981-4.662ZM98.358-7.128a6.9,6.9,0,0,0-.914-.07,1.86,1.86,0,0,0-1.89.976V0h-2.54V-9.51h2.4l.07,1.134A2.354,2.354,0,0,1,97.6-9.686a2.662,2.662,0,0,1,.791.114Z" transform="translate(1206.54 6629.091)" fill="#12263f"/>
    <g id="Grupo_58740" data-name="Grupo 58740" transform="translate(187.8 5336.391)">
      <path id="Trazado_119834" data-name="Trazado 119834" d="M1096,1246a2.1,2.1,0,0,1-2.21,1.25h-19.32c-1.56,0-2.21-.77-2-2.3.42-3.72.8-7.44,1.19-11.17q.51-4.845,1-9.71a1.68,1.68,0,0,1,1.69-1.56h2.25v4.88a1.72,1.72,0,0,0,1.66,1.87,1.7,1.7,0,0,0,1.71-1.87c0-1.63,0-3.26,0-4.88h4.49v4.88a1.7,1.7,0,1,0,3.38,0v-4.88H1092a1.67,1.67,0,0,1,1.75,1.62q1,9.18,1.94,18.38c.08.79.21,1.58.31,2.37Z" fill="#f4729a"/>
      <path id="Trazado_119835" data-name="Trazado 119835" d="M1058.76,1189.61c.86.16,1.73.28,2.58.5a15.08,15.08,0,0,1,5.38,2.59,1.48,1.48,0,0,0,.81.27,7.32,7.32,0,0,1,7.42,7.47v3.22h-2.83a.68.68,0,0,1-.49-.26,6.85,6.85,0,0,0-6.07-3.11h-10.63a6.8,6.8,0,0,0-5.87,3,.88.88,0,0,1-.58.31h-2.71a12.74,12.74,0,0,1,2.45-9.51,11.65,11.65,0,0,1,7.8-4.44,1.777,1.777,0,0,0,.38-.1Z" fill="#f4729a"/>
      <path id="Trazado_119836" data-name="Trazado 119836" d="M1068.74,1224.75c.76.15,1.42.26,2.07.43.11,0,.24.3.23.44-.28,2.82-.58,5.63-.88,8.44-.38,3.65-.78,7.3-1.13,11a13.711,13.711,0,0,0,.13,2.17h-28.71c-1.43,0-2.06-.63-2-2.06,0-2.29-.09-4.59.11-6.86a15.09,15.09,0,0,1,11.84-13.23c.49-.1,1-.17,1.57-.27-.26,3.14.48,5.87,2.88,8a8.09,8.09,0,0,0,5.33,2.07,8.23,8.23,0,0,0,6.63-3,9.13,9.13,0,0,0,1.93-7.13Z" fill="#f4729a"/>
      <path id="Trazado_119837" data-name="Trazado 119837" d="M1060.37,1203.66h5.45a3.36,3.36,0,0,1,3.51,3.5v6.68a9,9,0,0,1-17.84,1.56,10.126,10.126,0,0,1-.15-1.74c0-2.13,0-4.27,0-6.4a3.37,3.37,0,0,1,3.57-3.6Z" fill="#f4729a"/>
      <path id="Trazado_119838" data-name="Trazado 119838" d="M1078.56,1222.45a26.828,26.828,0,0,1,.11-3.24,5.57,5.57,0,0,1,5.93-4.62,5.63,5.63,0,0,1,5.18,5.34v2.52h-3.36v-2.24a2.25,2.25,0,1,0-4.49,0v2.24h-3.36Z" fill="#f4729a"/>
      <path id="Trazado_119839" data-name="Trazado 119839" d="M1055.31,1225.1a12.53,12.53,0,0,0,10,0c.23,2.28-.29,4.22-2.26,5.49a4.77,4.77,0,0,1-5.36.1C1055.65,1229.45,1055.08,1227.48,1055.31,1225.1Z" fill="#f4729a"/>
      <path id="Trazado_119840" data-name="Trazado 119840" d="M1047.93,1213.75c-1.59.17-3-.08-3.91-1.51a3.2,3.2,0,0,1,0-3.61c.91-1.46,2.34-1.73,4-1.56Z" fill="#f4729a"/>
      <path id="Trazado_119841" data-name="Trazado 119841" d="M1072.72,1213.75v-6.67a3.75,3.75,0,0,1,3.82,1.34,3.2,3.2,0,0,1,.24,3.6C1075.91,1213.61,1074.44,1213.93,1072.72,1213.75Z" fill="#f4729a"/>
      <path id="Trazado_119842" data-name="Trazado 119842" d="M1081.92,1222.45v-2.24a2.25,2.25,0,1,1,4.49,0v2.24Z" fill="#f4729a"/>
    </g>
  </g>
</svg>
