<svg xmlns="http://www.w3.org/2000/svg" xmlns:xlink="http://www.w3.org/1999/xlink" width="224.49" height="289.64" viewBox="0 0 224.49 289.64">
  <defs>
    <linearGradient id="linear-gradient" x1="0.237" y1="-0.211" x2="0.766" y2="1.22" gradientUnits="objectBoundingBox">
      <stop offset="0" stop-color="#fff"/>
      <stop offset="1" stop-color="#d2d1d1"/>
    </linearGradient>
  </defs>
  <g id="card7" transform="translate(-474.87 -6159.26)">
    <path id="Trazado_119724" data-name="Trazado 119724" d="M387.27,1112.44h76.05a23.3,23.3,0,0,0,23.3-23.3V989.23l24.94-21.16-24.94-21.15V847a23.3,23.3,0,0,0-23.3-23.3H387.27Z" transform="translate(187.8 5336.391)" fill="#7f43bb"/>
    <g id="Grupo_58692" data-name="Grupo 58692" transform="translate(187.8 5336.391)" opacity="0.8">
      <rect id="Rectángulo_7189" data-name="Rectángulo 7189" width="155.01" height="245.05" rx="46.05" transform="translate(328.46 863.42)" fill="#fff" opacity="0"/>
      <rect id="Rectángulo_7190" data-name="Rectángulo 7190" width="155.01" height="245.05" rx="46.05" transform="translate(328.28 863.25)" fill="#f8f8f8" opacity="0.01"/>
      <rect id="Rectángulo_7191" data-name="Rectángulo 7191" width="155.01" height="245.05" rx="46.05" transform="translate(328.09 863.07)" fill="#f6f6f6" opacity="0.02"/>
      <rect id="Rectángulo_7192" data-name="Rectángulo 7192" width="155.01" height="245.05" rx="46.05" transform="translate(327.91 862.89)" fill="#f4f4f4" opacity="0.03"/>
      <rect id="Rectángulo_7193" data-name="Rectángulo 7193" width="155.01" height="245.05" rx="46.05" transform="translate(327.72 862.71)" fill="#f2f2f2" opacity="0.04"/>
      <rect id="Rectángulo_7194" data-name="Rectángulo 7194" width="155.01" height="245.05" rx="46.05" transform="translate(327.54 862.54)" fill="#f0f0f0" opacity="0.05"/>
      <rect id="Rectángulo_7195" data-name="Rectángulo 7195" width="155.01" height="245.05" rx="46.05" transform="translate(327.35 862.36)" fill="#eee" opacity="0.06"/>
      <rect id="Rectángulo_7196" data-name="Rectángulo 7196" width="155.01" height="245.05" rx="46.05" transform="translate(327.17 862.18)" fill="#ececec" opacity="0.07"/>
      <rect id="Rectángulo_7197" data-name="Rectángulo 7197" width="155.01" height="245.05" rx="46.05" transform="translate(326.98 862.01)" fill="#eaeaea" opacity="0.08"/>
      <rect id="Rectángulo_7198" data-name="Rectángulo 7198" width="155.01" height="245.05" rx="46.05" transform="translate(326.8 861.83)" fill="#e8e8e8" opacity="0.09"/>
      <rect id="Rectángulo_7199" data-name="Rectángulo 7199" width="155.01" height="245.05" rx="46.05" transform="translate(326.61 861.65)" fill="#e6e6e6" opacity="0.1"/>
      <rect id="Rectángulo_7200" data-name="Rectángulo 7200" width="155.01" height="245.05" rx="46.05" transform="translate(326.43 861.48)" fill="#e4e4e4" opacity="0.11"/>
      <rect id="Rectángulo_7201" data-name="Rectángulo 7201" width="155.01" height="245.05" rx="46.05" transform="translate(326.24 861.3)" fill="#e2e2e2" opacity="0.12"/>
      <rect id="Rectángulo_7202" data-name="Rectángulo 7202" width="155.01" height="245.05" rx="46.05" transform="translate(326.06 861.12)" fill="#e0e0e0" opacity="0.13"/>
      <rect id="Rectángulo_7203" data-name="Rectángulo 7203" width="155.01" height="245.05" rx="46.05" transform="translate(325.87 860.94)" fill="#dedede" opacity="0.14"/>
      <rect id="Rectángulo_7204" data-name="Rectángulo 7204" width="155.01" height="245.05" rx="46.05" transform="translate(325.69 860.77)" fill="#dcdcdc" opacity="0.15"/>
      <rect id="Rectángulo_7205" data-name="Rectángulo 7205" width="155.01" height="245.05" rx="46.05" transform="translate(325.5 860.59)" fill="#dadada" opacity="0.16"/>
      <rect id="Rectángulo_7206" data-name="Rectángulo 7206" width="155.01" height="245.05" rx="46.05" transform="translate(325.32 860.41)" fill="#d8d8d8" opacity="0.17"/>
      <rect id="Rectángulo_7207" data-name="Rectángulo 7207" width="155.01" height="245.05" rx="46.05" transform="translate(325.13 860.24)" fill="#d6d6d6" opacity="0.18"/>
      <rect id="Rectángulo_7208" data-name="Rectángulo 7208" width="155.01" height="245.05" rx="46.05" transform="translate(324.95 860.06)" fill="#d4d4d4" opacity="0.19"/>
      <rect id="Rectángulo_7209" data-name="Rectángulo 7209" width="155.01" height="245.05" rx="46.05" transform="translate(324.76 859.88)" fill="#d2d2d2" opacity="0.2"/>
      <rect id="Rectángulo_7210" data-name="Rectángulo 7210" width="155.01" height="245.05" rx="46.05" transform="translate(324.58 859.71)" fill="#d0d0d0" opacity="0.21"/>
      <rect id="Rectángulo_7211" data-name="Rectángulo 7211" width="155.01" height="245.05" rx="46.05" transform="translate(324.39 859.53)" fill="#cecece" opacity="0.22"/>
      <rect id="Rectángulo_7212" data-name="Rectángulo 7212" width="155.01" height="245.05" rx="46.05" transform="translate(324.21 859.35)" fill="#ccc" opacity="0.23"/>
      <rect id="Rectángulo_7213" data-name="Rectángulo 7213" width="155.01" height="245.05" rx="46.05" transform="translate(324.02 859.17)" fill="#cacaca" opacity="0.24"/>
      <rect id="Rectángulo_7214" data-name="Rectángulo 7214" width="155.01" height="245.05" rx="46.05" transform="translate(323.84 859)" fill="#c8c8c8" opacity="0.25"/>
      <rect id="Rectángulo_7215" data-name="Rectángulo 7215" width="155.01" height="245.05" rx="46.05" transform="translate(323.65 858.82)" fill="#c5c5c5" opacity="0.26"/>
      <rect id="Rectángulo_7216" data-name="Rectángulo 7216" width="155.01" height="245.05" rx="46.05" transform="translate(323.47 858.64)" fill="#c3c3c3" opacity="0.27"/>
      <rect id="Rectángulo_7217" data-name="Rectángulo 7217" width="155.01" height="245.05" rx="46.05" transform="translate(323.28 858.47)" fill="#c1c1c1" opacity="0.28"/>
      <rect id="Rectángulo_7218" data-name="Rectángulo 7218" width="155.01" height="245.05" rx="46.05" transform="translate(323.1 858.29)" fill="#bfbfbf" opacity="0.29"/>
      <rect id="Rectángulo_7219" data-name="Rectángulo 7219" width="155.01" height="245.05" rx="46.05" transform="translate(322.91 858.11)" fill="#bdbdbd" opacity="0.3"/>
      <rect id="Rectángulo_7220" data-name="Rectángulo 7220" width="155.01" height="245.05" rx="46.05" transform="translate(322.73 857.94)" fill="#bbb" opacity="0.31"/>
      <rect id="Rectángulo_7221" data-name="Rectángulo 7221" width="155.01" height="245.05" rx="46.05" transform="translate(322.54 857.76)" fill="#b9b9b9" opacity="0.32"/>
      <rect id="Rectángulo_7222" data-name="Rectángulo 7222" width="155.01" height="245.05" rx="46.05" transform="translate(322.36 857.58)" fill="#b7b7b7" opacity="0.33"/>
      <rect id="Rectángulo_7223" data-name="Rectángulo 7223" width="155.01" height="245.05" rx="46.05" transform="translate(322.17 857.4)" fill="#b5b5b5" opacity="0.34"/>
      <rect id="Rectángulo_7224" data-name="Rectángulo 7224" width="155.01" height="245.05" rx="46.05" transform="translate(321.99 857.23)" fill="#b3b3b3" opacity="0.35"/>
      <rect id="Rectángulo_7225" data-name="Rectángulo 7225" width="155.01" height="245.05" rx="46.05" transform="translate(321.8 857.05)" fill="#b1b1b1" opacity="0.36"/>
      <rect id="Rectángulo_7226" data-name="Rectángulo 7226" width="155.01" height="245.05" rx="46.05" transform="translate(321.62 856.87)" fill="#afafaf" opacity="0.37"/>
      <rect id="Rectángulo_7227" data-name="Rectángulo 7227" width="155.01" height="245.05" rx="46.05" transform="translate(321.43 856.7)" fill="#adadad" opacity="0.38"/>
      <rect id="Rectángulo_7228" data-name="Rectángulo 7228" width="155.01" height="245.05" rx="46.05" transform="translate(321.25 856.52)" fill="#ababab" opacity="0.39"/>
      <rect id="Rectángulo_7229" data-name="Rectángulo 7229" width="155.01" height="245.05" rx="46.05" transform="translate(321.06 856.34)" fill="#a9a9a9" opacity="0.4"/>
      <rect id="Rectángulo_7230" data-name="Rectángulo 7230" width="155.01" height="245.05" rx="46.05" transform="translate(320.88 856.17)" fill="#a7a7a7" opacity="0.41"/>
      <rect id="Rectángulo_7231" data-name="Rectángulo 7231" width="155.01" height="245.05" rx="46.05" transform="translate(320.69 855.99)" fill="#a5a5a5" opacity="0.42"/>
      <rect id="Rectángulo_7232" data-name="Rectángulo 7232" width="155.01" height="245.05" rx="46.05" transform="translate(320.51 855.81)" fill="#a3a3a3" opacity="0.43"/>
      <rect id="Rectángulo_7233" data-name="Rectángulo 7233" width="155.01" height="245.05" rx="46.05" transform="translate(320.32 855.64)" fill="#a1a1a1" opacity="0.44"/>
      <rect id="Rectángulo_7234" data-name="Rectángulo 7234" width="155.01" height="245.05" rx="46.05" transform="translate(320.14 855.46)" fill="#9f9f9f" opacity="0.45"/>
      <rect id="Rectángulo_7235" data-name="Rectángulo 7235" width="155.01" height="245.05" rx="46.05" transform="translate(319.95 855.28)" fill="#9d9d9d" opacity="0.46"/>
      <rect id="Rectángulo_7236" data-name="Rectángulo 7236" width="155.01" height="245.05" rx="46.05" transform="translate(319.76 855.1)" fill="#9b9b9b" opacity="0.47"/>
      <rect id="Rectángulo_7237" data-name="Rectángulo 7237" width="155.01" height="245.05" rx="46.05" transform="translate(319.58 854.93)" fill="#999" opacity="0.48"/>
      <rect id="Rectángulo_7238" data-name="Rectángulo 7238" width="155.01" height="245.05" rx="46.05" transform="translate(319.39 854.75)" fill="#979797" opacity="0.49"/>
      <rect id="Rectángulo_7239" data-name="Rectángulo 7239" width="155.01" height="245.05" rx="46.05" transform="translate(319.21 854.57)" fill="#959595" opacity="0.5"/>
      <rect id="Rectángulo_7240" data-name="Rectángulo 7240" width="155.01" height="245.05" rx="46.05" transform="translate(319.02 854.4)" fill="#939393" opacity="0.5"/>
      <rect id="Rectángulo_7241" data-name="Rectángulo 7241" width="155.01" height="245.05" rx="46.05" transform="translate(318.84 854.22)" fill="#919191" opacity="0.51"/>
      <rect id="Rectángulo_7242" data-name="Rectángulo 7242" width="155.01" height="245.05" rx="46.05" transform="translate(318.65 854.04)" fill="#8f8f8f" opacity="0.52"/>
      <rect id="Rectángulo_7243" data-name="Rectángulo 7243" width="155.01" height="245.05" rx="46.05" transform="translate(318.47 853.87)" fill="#8d8d8d" opacity="0.53"/>
      <rect id="Rectángulo_7244" data-name="Rectángulo 7244" width="155.01" height="245.05" rx="46.05" transform="translate(318.28 853.69)" fill="#8b8b8b" opacity="0.54"/>
      <rect id="Rectángulo_7245" data-name="Rectángulo 7245" width="155.01" height="245.05" rx="46.05" transform="translate(318.1 853.51)" fill="#898989" opacity="0.55"/>
      <rect id="Rectángulo_7246" data-name="Rectángulo 7246" width="155.01" height="245.05" rx="46.05" transform="translate(317.91 853.33)" fill="#878787" opacity="0.56"/>
      <rect id="Rectángulo_7247" data-name="Rectángulo 7247" width="155.01" height="245.05" rx="46.05" transform="translate(317.73 853.16)" fill="#858585" opacity="0.57"/>
      <rect id="Rectángulo_7248" data-name="Rectángulo 7248" width="155.01" height="245.05" rx="46.05" transform="translate(317.54 852.98)" fill="#838383" opacity="0.58"/>
      <rect id="Rectángulo_7249" data-name="Rectángulo 7249" width="155.01" height="245.05" rx="46.05" transform="translate(317.36 852.8)" fill="#818181" opacity="0.59"/>
      <rect id="Rectángulo_7250" data-name="Rectángulo 7250" width="155.01" height="245.05" rx="46.05" transform="translate(317.17 852.63)" fill="gray" opacity="0.6"/>
      <rect id="Rectángulo_7251" data-name="Rectángulo 7251" width="155.01" height="245.05" rx="46.05" transform="translate(316.99 852.45)" fill="gray" opacity="0.61"/>
      <rect id="Rectángulo_7252" data-name="Rectángulo 7252" width="155.01" height="245.05" rx="46.05" transform="translate(316.8 852.27)" fill="gray" opacity="0.62"/>
      <rect id="Rectángulo_7253" data-name="Rectángulo 7253" width="155.01" height="245.05" rx="46.05" transform="translate(316.62 852.1)" fill="#7e7e7e" opacity="0.63"/>
      <rect id="Rectángulo_7254" data-name="Rectángulo 7254" width="155.01" height="245.05" rx="46.05" transform="translate(316.43 851.92)" fill="#7c7c7c" opacity="0.64"/>
      <rect id="Rectángulo_7255" data-name="Rectángulo 7255" width="155.01" height="245.05" rx="46.05" transform="translate(316.25 851.74)" fill="#7a7a7a" opacity="0.65"/>
      <rect id="Rectángulo_7256" data-name="Rectángulo 7256" width="155.01" height="245.05" rx="46.05" transform="translate(316.06 851.56)" fill="#787878" opacity="0.66"/>
      <rect id="Rectángulo_7257" data-name="Rectángulo 7257" width="155.01" height="245.05" rx="46.05" transform="translate(315.88 851.39)" fill="#767676" opacity="0.67"/>
      <rect id="Rectángulo_7258" data-name="Rectángulo 7258" width="155.01" height="245.05" rx="46.05" transform="translate(315.69 851.21)" fill="#747474" opacity="0.68"/>
      <rect id="Rectángulo_7259" data-name="Rectángulo 7259" width="155.01" height="245.05" rx="46.05" transform="translate(315.51 851.03)" fill="#727272" opacity="0.69"/>
      <rect id="Rectángulo_7260" data-name="Rectángulo 7260" width="155.01" height="245.05" rx="46.05" transform="translate(315.32 850.86)" fill="#707070" opacity="0.7"/>
      <rect id="Rectángulo_7261" data-name="Rectángulo 7261" width="155.01" height="245.05" rx="46.05" transform="translate(315.14 850.68)" fill="#6e6e6e" opacity="0.71"/>
      <rect id="Rectángulo_7262" data-name="Rectángulo 7262" width="155.01" height="245.05" rx="46.05" transform="translate(314.95 850.5)" fill="#6c6c6c" opacity="0.72"/>
      <rect id="Rectángulo_7263" data-name="Rectángulo 7263" width="155.01" height="245.05" rx="46.05" transform="translate(314.77 850.33)" fill="#6a6a6a" opacity="0.73"/>
      <rect id="Rectángulo_7264" data-name="Rectángulo 7264" width="155.01" height="245.05" rx="46.05" transform="translate(314.58 850.15)" fill="#686868" opacity="0.74"/>
      <rect id="Rectángulo_7265" data-name="Rectángulo 7265" width="155.01" height="245.05" rx="46.05" transform="translate(314.4 849.97)" fill="#656565" opacity="0.75"/>
      <rect id="Rectángulo_7266" data-name="Rectángulo 7266" width="155.01" height="245.05" rx="46.05" transform="translate(314.21 849.8)" fill="#636363" opacity="0.76"/>
      <rect id="Rectángulo_7267" data-name="Rectángulo 7267" width="155.01" height="245.05" rx="46.05" transform="translate(314.03 849.62)" fill="#616161" opacity="0.77"/>
      <rect id="Rectángulo_7268" data-name="Rectángulo 7268" width="155.01" height="245.05" rx="46.05" transform="translate(313.84 849.44)" fill="#5f5f5f" opacity="0.78"/>
      <rect id="Rectángulo_7269" data-name="Rectángulo 7269" width="155.01" height="245.05" rx="46.05" transform="translate(313.66 849.26)" fill="#5d5d5d" opacity="0.79"/>
      <rect id="Rectángulo_7270" data-name="Rectángulo 7270" width="155.01" height="245.05" rx="46.05" transform="translate(313.47 849.09)" fill="#5b5b5b" opacity="0.8"/>
      <rect id="Rectángulo_7271" data-name="Rectángulo 7271" width="155.01" height="245.05" rx="46.05" transform="translate(313.29 848.91)" fill="#595959" opacity="0.81"/>
      <rect id="Rectángulo_7272" data-name="Rectángulo 7272" width="155.01" height="245.05" rx="46.05" transform="translate(313.1 848.73)" fill="#575757" opacity="0.82"/>
      <rect id="Rectángulo_7273" data-name="Rectángulo 7273" width="155.01" height="245.05" rx="46.05" transform="translate(312.92 848.56)" fill="#555" opacity="0.83"/>
      <rect id="Rectángulo_7274" data-name="Rectángulo 7274" width="155.01" height="245.05" rx="46.05" transform="translate(312.73 848.38)" fill="#535353" opacity="0.84"/>
      <rect id="Rectángulo_7275" data-name="Rectángulo 7275" width="155.01" height="245.05" rx="46.05" transform="translate(312.55 848.2)" fill="#515151" opacity="0.85"/>
      <rect id="Rectángulo_7276" data-name="Rectángulo 7276" width="155.01" height="245.05" rx="46.05" transform="translate(312.36 848.03)" fill="#4f4f4f" opacity="0.86"/>
      <rect id="Rectángulo_7277" data-name="Rectángulo 7277" width="155.01" height="245.05" rx="46.05" transform="translate(312.18 847.85)" fill="#4d4d4d" opacity="0.87"/>
      <rect id="Rectángulo_7278" data-name="Rectángulo 7278" width="155.01" height="245.05" rx="46.05" transform="translate(311.99 847.67)" fill="#4b4b4b" opacity="0.88"/>
      <rect id="Rectángulo_7279" data-name="Rectángulo 7279" width="155.01" height="245.05" rx="46.05" transform="translate(311.81 847.49)" fill="#494949" opacity="0.89"/>
      <rect id="Rectángulo_7280" data-name="Rectángulo 7280" width="155.01" height="245.05" rx="46.05" transform="translate(311.62 847.32)" fill="#474747" opacity="0.9"/>
      <rect id="Rectángulo_7281" data-name="Rectángulo 7281" width="155.01" height="245.05" rx="46.05" transform="translate(311.44 847.14)" fill="#454545" opacity="0.91"/>
      <rect id="Rectángulo_7282" data-name="Rectángulo 7282" width="155.01" height="245.05" rx="46.05" transform="translate(311.25 846.96)" fill="#434343" opacity="0.92"/>
      <rect id="Rectángulo_7283" data-name="Rectángulo 7283" width="155.01" height="245.05" rx="46.05" transform="translate(311.07 846.79)" fill="#414141" opacity="0.93"/>
      <rect id="Rectángulo_7284" data-name="Rectángulo 7284" width="155.01" height="245.05" rx="46.05" transform="translate(310.88 846.61)" fill="#3f3f3f" opacity="0.94"/>
      <rect id="Rectángulo_7285" data-name="Rectángulo 7285" width="155.01" height="245.05" rx="46.05" transform="translate(310.7 846.43)" fill="#3d3d3d" opacity="0.95"/>
      <rect id="Rectángulo_7286" data-name="Rectángulo 7286" width="155.01" height="245.05" rx="46.05" transform="translate(310.51 846.26)" fill="#3b3b3b" opacity="0.96"/>
      <rect id="Rectángulo_7287" data-name="Rectángulo 7287" width="155.01" height="245.05" rx="46.05" transform="translate(310.33 846.08)" fill="#393939" opacity="0.97"/>
      <rect id="Rectángulo_7288" data-name="Rectángulo 7288" width="155.01" height="245.05" rx="46.05" transform="translate(310.14 845.9)" fill="#373737" opacity="0.98"/>
      <rect id="Rectángulo_7289" data-name="Rectángulo 7289" width="155.01" height="245.05" rx="46.05" transform="translate(309.96 845.72)" fill="#353535" opacity="0.99"/>
      <rect id="Rectángulo_7290" data-name="Rectángulo 7290" width="155.01" height="245.05" rx="46.05" transform="translate(309.77 845.55)" fill="#333"/>
    </g>
    <g id="Grupo_58693" data-name="Grupo 58693" transform="translate(187.8 5336.391)">
      <rect id="Rectángulo_7291" data-name="Rectángulo 7291" width="249.9" height="159.86" rx="51.4" transform="translate(467.21 843.12) rotate(90)" fill="url(#linear-gradient)"/>
      <rect id="Rectángulo_7292" data-name="Rectángulo 7292" width="245.05" height="155.01" rx="46.05" transform="translate(464.78 845.55) rotate(90)" fill="#ededed"/>
    </g>
    <g id="Grupo_58694" data-name="Grupo 58694" transform="translate(187.8 5336.391)">
      <rect id="Rectángulo_7293" data-name="Rectángulo 7293" width="1.71" height="1.71" transform="translate(385.56 1110.8)" fill="#4d4d4d"/>
      <path id="Trazado_119725" data-name="Trazado 119725" d="M380.38,1112.51h-3.45v-1.71h3.45Zm-8.64,0h-3.45v-1.71h3.45Zm-8.63,0h-3.46v-1.71h3.46Zm-8.64,0H351v-1.71h3.46Zm-8.64,0h-3.45v-1.71h3.45Zm-8.63,0h-3.46v-1.71h3.46Zm-8.64,0H325.1v-1.71h3.46Zm-8.64,0h-3.45v-1.71h3.45Zm-8.64,0h0a24.072,24.072,0,0,1-3.51-.25l.25-1.7a22.142,22.142,0,0,0,3.26.24Zm-8.75-1.61a25.126,25.126,0,0,1-3.23-1.53l.84-1.49a24.266,24.266,0,0,0,3,1.42Zm-7.57-4.69a24.09,24.09,0,0,1-2.46-2.59l1.33-1.08a23.657,23.657,0,0,0,2.29,2.41Zm-5.36-7.09a23.862,23.862,0,0,1-1.36-3.32l1.63-.52a21.52,21.52,0,0,0,1.26,3.07Zm-2.43-8.57c-.06-.72-.1-1.45-.1-2.19V1087h1.72v1.34q0,1,.09,2Zm1.62-8.71h-1.72v-3.45h1.72Zm0-8.64h-1.72v-3.45h1.72Zm0-8.63h-1.72v-3.46h1.72Zm0-8.64h-1.72v-3.45h1.72Zm0-8.64h-1.72v-3.45h1.72Zm0-8.63h-1.72v-3.46h1.72Zm0-8.64h-1.72v-3.45h1.72Zm0-8.64h-1.72v-3.45h1.72Zm0-8.63h-1.72v-3.46h1.72Zm0-8.64h-1.72v-3.45h1.72Zm0-8.64h-1.72V992h1.72Zm0-8.63h-1.72v-3.46h1.72Zm0-34.55h-1.72v-3.46h1.72Zm0-8.64h-1.72V940.2h1.72Zm0-8.64h-1.72v-3.45h1.72Zm0-8.63h-1.72v-3.46h1.72Zm0-8.64h-1.72v-3.45h1.72Zm0-8.63h-1.72v-3.46h1.72Zm0-8.64h-1.72V897h1.72Zm0-8.64h-1.72v-3.45h1.72Zm0-8.64h-1.72v-3.45h1.72Zm0-8.63h-1.72V871.1h1.72Zm0-8.64h-1.72v-3.45h1.72Zm0-8.64h-1.72v-3.45h1.72Zm0-8.63h-1.72v-.84a24.59,24.59,0,0,1,.15-2.707l1.71.187a21.167,21.167,0,0,0-.14,2.52Zm1.21-8.23-1.62-.55a26.234,26.234,0,0,1,1.37-3.29l1.53.76a24.385,24.385,0,0,0-1.28,3.08Zm4-7.29-1.34-1.06a24.183,24.183,0,0,1,2.42-2.63l1.17,1.24a23.743,23.743,0,0,0-2.25,2.45Zm6.22-5.47-.88-1.47a25.869,25.869,0,0,1,3.2-1.61l.65,1.59a22.275,22.275,0,0,0-3,1.49Zm80.14-2.37H376.9v-1.71h3.46Zm-8.64-.09h-3.45v-1.72h3.46Zm-8.64-.09h-3.45v-1.72h3.45Zm-8.63-.09L351,825v-1.71h3.46Zm-8.64-.09h-3.45v-1.71h3.45Zm-8.63-.09h-3.46v-1.71h3.45Zm-29.21,0-.27-1.69a23.625,23.625,0,0,1,3.56-.28v1.71a21.305,21.305,0,0,0-3.32.24Zm20.57-.07h-3.46v-1.71h3.46Zm-8.64-.1h-3.45v-1.71h3.45Z" fill="#4d4d4d"/>
      <rect id="Rectángulo_7294" data-name="Rectángulo 7294" width="1.71" height="1.71" transform="translate(385.582 825.415) rotate(-89.38)" fill="#4d4d4d"/>
    </g>
    <path id="Trazado_119878" data-name="Trazado 119878" d="M8.842-5.546H3.779v3.428H9.721V0H1.143V-12.8H9.7v2.136H3.779v3.05H8.842ZM13.482-9.51l.079,1.063a3.342,3.342,0,0,1,2.733-1.239,2.536,2.536,0,0,1,2.522,1.45,3.265,3.265,0,0,1,2.856-1.45,2.836,2.836,0,0,1,2.3.9,4.141,4.141,0,0,1,.756,2.711V0H22.184V-6.064a1.811,1.811,0,0,0-.316-1.182,1.4,1.4,0,0,0-1.116-.374,1.585,1.585,0,0,0-1.582,1.09L19.178,0h-2.54V-6.056a1.789,1.789,0,0,0-.325-1.2,1.416,1.416,0,0,0-1.107-.369,1.646,1.646,0,0,0-1.564.9V0H11.1V-9.51ZM35.244-4.667a5.7,5.7,0,0,1-1,3.52A3.2,3.2,0,0,1,31.553.176a2.963,2.963,0,0,1-2.329-1V3.656h-2.54V-9.51h2.355l.088.932a2.985,2.985,0,0,1,2.408-1.107,3.22,3.22,0,0,1,2.733,1.3A5.858,5.858,0,0,1,35.244-4.8ZM32.7-4.852a3.743,3.743,0,0,0-.47-2.048,1.532,1.532,0,0,0-1.367-.721,1.663,1.663,0,0,0-1.644.914v3.894a1.692,1.692,0,0,0,1.661.94Q32.7-1.872,32.7-4.852Zm9.457-2.276a6.9,6.9,0,0,0-.914-.07,1.86,1.86,0,0,0-1.89.976V0h-2.54V-9.51h2.4l.07,1.134a2.354,2.354,0,0,1,2.118-1.31,2.662,2.662,0,0,1,.791.114ZM47.58.176a4.668,4.668,0,0,1-3.406-1.283A4.561,4.561,0,0,1,42.86-4.526v-.246a5.745,5.745,0,0,1,.554-2.562,4.064,4.064,0,0,1,1.569-1.74A4.4,4.4,0,0,1,47.3-9.686a3.947,3.947,0,0,1,3.072,1.23,5,5,0,0,1,1.121,3.489v1.037H45.435a2.36,2.36,0,0,0,.743,1.494,2.245,2.245,0,0,0,1.569.563,2.742,2.742,0,0,0,2.294-1.063l1.248,1.4A3.813,3.813,0,0,1,49.742-.277,5.075,5.075,0,0,1,47.58.176Zm-.29-7.813a1.587,1.587,0,0,0-1.226.512,2.651,2.651,0,0,0-.6,1.466h3.533v-.2a1.891,1.891,0,0,0-.457-1.311A1.638,1.638,0,0,0,47.29-7.638Zm10.793,5.01a.818.818,0,0,0-.461-.734,5.241,5.241,0,0,0-1.481-.479q-3.393-.712-3.393-2.883A2.613,2.613,0,0,1,53.8-8.837a4.237,4.237,0,0,1,2.747-.848,4.56,4.56,0,0,1,2.9.853,2.687,2.687,0,0,1,1.085,2.215h-2.54a1.229,1.229,0,0,0-.352-.9,1.488,1.488,0,0,0-1.1-.356,1.52,1.52,0,0,0-.993.29.916.916,0,0,0-.352.738.783.783,0,0,0,.4.681,4.114,4.114,0,0,0,1.349.448,11.019,11.019,0,0,1,1.6.426,2.628,2.628,0,0,1,2.013,2.558,2.481,2.481,0,0,1-1.116,2.1,4.815,4.815,0,0,1-2.883.8A5.029,5.029,0,0,1,54.431-.25a3.561,3.561,0,0,1-1.455-1.169,2.716,2.716,0,0,1-.527-1.6h2.408a1.326,1.326,0,0,0,.5,1.037,1.987,1.987,0,0,0,1.248.36,1.839,1.839,0,0,0,1.1-.277A.861.861,0,0,0,58.083-2.628ZM67.7,0a2.821,2.821,0,0,1-.255-.853,3.073,3.073,0,0,1-2.4,1.028,3.376,3.376,0,0,1-2.316-.809,2.6,2.6,0,0,1-.918-2.039,2.687,2.687,0,0,1,1.121-2.32,5.529,5.529,0,0,1,3.239-.817h1.169v-.545A1.567,1.567,0,0,0,67-7.409a1.331,1.331,0,0,0-1.068-.4,1.513,1.513,0,0,0-1.006.308,1.045,1.045,0,0,0-.365.844H62.02a2.551,2.551,0,0,1,.51-1.529,3.37,3.37,0,0,1,1.441-1.1,5.253,5.253,0,0,1,2.092-.4,4.15,4.15,0,0,1,2.791.883,3.09,3.09,0,0,1,1.033,2.483V-2.2a4.546,4.546,0,0,0,.378,2.048V0ZM65.6-1.767a2.188,2.188,0,0,0,1.037-.25,1.645,1.645,0,0,0,.7-.672V-4.324h-.949q-1.907,0-2.03,1.318l-.009.149a1.017,1.017,0,0,0,.334.782A1.3,1.3,0,0,0,65.6-1.767Z" transform="translate(540.88 6308.771)" fill="#12263f"/>
    <g id="Grupo_58733" data-name="Grupo 58733" transform="translate(187.8 5336.391)">
      <path id="Trazado_119778" data-name="Trazado 119778" d="M361.79,907.82l7.4-2.44,13.2-4.37.38-.12v6l17.92-6v6.52h12.05v20.92h-6.07v-14.9H391.74v14.9H361.79Zm26.95,5.61H367.9v8.89h20.84Z" fill="#8675c4"/>
      <path id="Trazado_119779" data-name="Trazado 119779" d="M394.73,928.32V916.41h9v11.91Z" fill="#8675c4"/>
      <path id="Trazado_119780" data-name="Trazado 119780" d="M385.41,889.51a10.175,10.175,0,0,1,4.24-7.34,9.23,9.23,0,0,1,5.18-1.62h6.27a.67.67,0,0,0,.64-.34,5.93,5.93,0,0,1,4.91-2.85,6.23,6.23,0,0,1,6.06,5.52,6,6,0,0,1-4.47,6.4,6.557,6.557,0,0,1-1.52.21H385.41Z" fill="#8675c4"/>
      <path id="Trazado_119781" data-name="Trazado 119781" d="M386.16,880.57a11.34,11.34,0,0,1-2.58,5.87,9.08,9.08,0,0,1-6.58,3c-3.1.07-6.2,0-9.3,0h-.19c.73-5.74,4.8-8.82,9.28-8.92,3-.07,6,0,9,0Z" fill="#8675c4"/>
      <path id="Trazado_119782" data-name="Trazado 119782" d="M369.38,902.17v-9.65h5.95v7.24a.54.54,0,0,1-.43.63c-1.69.53-3.36,1.11-5,1.67Z" fill="#8675c4"/>
      <path id="Trazado_119783" data-name="Trazado 119783" d="M387.28,902.17v-9.64h5.93v7.22a.54.54,0,0,1-.46.62c-1.67.54-3.33,1.1-5,1.66Z" fill="#8675c4"/>
      <path id="Trazado_119784" data-name="Trazado 119784" d="M373.8,919.34h-2.93v-2.92h2.93Z" fill="#8675c4"/>
      <path id="Trazado_119785" data-name="Trazado 119785" d="M376.85,916.4h2.92v2.93h-2.92Z" fill="#8675c4"/>
      <path id="Trazado_119786" data-name="Trazado 119786" d="M385.75,919.34h-2.93v-2.93h2.93Z" fill="#8675c4"/>
    </g>
  </g>
</svg>
