<svg xmlns="http://www.w3.org/2000/svg" xmlns:xlink="http://www.w3.org/1999/xlink" width="199.51" height="289.61" viewBox="0 0 199.51 289.61">
  <defs>
    <linearGradient id="linear-gradient" x1="0.237" y1="-0.212" x2="0.766" y2="1.22" gradientUnits="objectBoundingBox">
      <stop offset="0" stop-color="#fff"/>
      <stop offset="1" stop-color="#d2d1d1"/>
    </linearGradient>
  </defs>
  <g id="card3" transform="translate(-699.8 -5513.7)">
    <path id="Trazado_119719" data-name="Trazado 119719" d="M612.21,466.84h76a23.3,23.3,0,0,0,23.3-23.29V201.41a23.3,23.3,0,0,0-23.3-23.3h-76Z" transform="translate(187.8 5336.391)" fill="#ef2a66"/>
    <g id="Grupo_58683" data-name="Grupo 58683" transform="translate(187.8 5336.391)" opacity="0.8">
      <rect id="Rectángulo_6977" data-name="Rectángulo 6977" width="155.01" height="245.05" rx="46.05" transform="translate(553.4 217.83)" fill="#fff" opacity="0"/>
      <rect id="Rectángulo_6978" data-name="Rectángulo 6978" width="155.01" height="245.05" rx="46.05" transform="translate(553.22 217.65)" fill="#f8f8f8" opacity="0.01"/>
      <rect id="Rectángulo_6979" data-name="Rectángulo 6979" width="155.01" height="245.05" rx="46.05" transform="translate(553.03 217.47)" fill="#f6f6f6" opacity="0.02"/>
      <rect id="Rectángulo_6980" data-name="Rectángulo 6980" width="155.01" height="245.05" rx="46.05" transform="translate(552.84 217.3)" fill="#f4f4f4" opacity="0.03"/>
      <rect id="Rectángulo_6981" data-name="Rectángulo 6981" width="155.01" height="245.05" rx="46.05" transform="translate(552.66 217.12)" fill="#f2f2f2" opacity="0.04"/>
      <rect id="Rectángulo_6982" data-name="Rectángulo 6982" width="155.01" height="245.05" rx="46.05" transform="translate(552.47 216.94)" fill="#f0f0f0" opacity="0.05"/>
      <rect id="Rectángulo_6983" data-name="Rectángulo 6983" width="155.01" height="245.05" rx="46.05" transform="translate(552.29 216.77)" fill="#eee" opacity="0.06"/>
      <rect id="Rectángulo_6984" data-name="Rectángulo 6984" width="155.01" height="245.05" rx="46.05" transform="translate(552.1 216.59)" fill="#ececec" opacity="0.07"/>
      <rect id="Rectángulo_6985" data-name="Rectángulo 6985" width="155.01" height="245.05" rx="46.05" transform="translate(551.92 216.41)" fill="#eaeaea" opacity="0.08"/>
      <rect id="Rectángulo_6986" data-name="Rectángulo 6986" width="155.01" height="245.05" rx="46.05" transform="translate(551.73 216.23)" fill="#e8e8e8" opacity="0.09"/>
      <rect id="Rectángulo_6987" data-name="Rectángulo 6987" width="155.01" height="245.05" rx="46.05" transform="translate(551.55 216.06)" fill="#e6e6e6" opacity="0.1"/>
      <rect id="Rectángulo_6988" data-name="Rectángulo 6988" width="155.01" height="245.05" rx="46.05" transform="translate(551.36 215.88)" fill="#e4e4e4" opacity="0.11"/>
      <rect id="Rectángulo_6989" data-name="Rectángulo 6989" width="155.01" height="245.05" rx="46.05" transform="translate(551.18 215.7)" fill="#e2e2e2" opacity="0.12"/>
      <rect id="Rectángulo_6990" data-name="Rectángulo 6990" width="155.01" height="245.05" rx="46.05" transform="translate(550.99 215.53)" fill="#e0e0e0" opacity="0.13"/>
      <rect id="Rectángulo_6991" data-name="Rectángulo 6991" width="155.01" height="245.05" rx="46.05" transform="translate(550.81 215.35)" fill="#dedede" opacity="0.14"/>
      <rect id="Rectángulo_6992" data-name="Rectángulo 6992" width="155.01" height="245.05" rx="46.05" transform="translate(550.62 215.17)" fill="#dcdcdc" opacity="0.15"/>
      <rect id="Rectángulo_6993" data-name="Rectángulo 6993" width="155.01" height="245.05" rx="46.05" transform="translate(550.44 215)" fill="#dadada" opacity="0.16"/>
      <rect id="Rectángulo_6994" data-name="Rectángulo 6994" width="155.01" height="245.05" rx="46.05" transform="translate(550.25 214.82)" fill="#d8d8d8" opacity="0.17"/>
      <rect id="Rectángulo_6995" data-name="Rectángulo 6995" width="155.01" height="245.05" rx="46.05" transform="translate(550.07 214.64)" fill="#d6d6d6" opacity="0.18"/>
      <rect id="Rectángulo_6996" data-name="Rectángulo 6996" width="155.01" height="245.05" rx="46.05" transform="translate(549.88 214.46)" fill="#d4d4d4" opacity="0.19"/>
      <rect id="Rectángulo_6997" data-name="Rectángulo 6997" width="155.01" height="245.05" rx="46.05" transform="translate(549.7 214.29)" fill="#d2d2d2" opacity="0.2"/>
      <rect id="Rectángulo_6998" data-name="Rectángulo 6998" width="155.01" height="245.05" rx="46.05" transform="translate(549.51 214.11)" fill="#d0d0d0" opacity="0.21"/>
      <rect id="Rectángulo_6999" data-name="Rectángulo 6999" width="155.01" height="245.05" rx="46.05" transform="translate(549.33 213.93)" fill="#cecece" opacity="0.22"/>
      <rect id="Rectángulo_7000" data-name="Rectángulo 7000" width="155.01" height="245.05" rx="46.05" transform="translate(549.14 213.76)" fill="#ccc" opacity="0.23"/>
      <rect id="Rectángulo_7001" data-name="Rectángulo 7001" width="155.01" height="245.05" rx="46.05" transform="translate(548.96 213.58)" fill="#cacaca" opacity="0.24"/>
      <rect id="Rectángulo_7002" data-name="Rectángulo 7002" width="155.01" height="245.05" rx="46.05" transform="translate(548.77 213.4)" fill="#c8c8c8" opacity="0.25"/>
      <rect id="Rectángulo_7003" data-name="Rectángulo 7003" width="155.01" height="245.05" rx="46.05" transform="translate(548.59 213.23)" fill="#c5c5c5" opacity="0.26"/>
      <rect id="Rectángulo_7004" data-name="Rectángulo 7004" width="155.01" height="245.05" rx="46.05" transform="translate(548.4 213.05)" fill="#c3c3c3" opacity="0.27"/>
      <rect id="Rectángulo_7005" data-name="Rectángulo 7005" width="155.01" height="245.05" rx="46.05" transform="translate(548.22 212.87)" fill="#c1c1c1" opacity="0.28"/>
      <rect id="Rectángulo_7006" data-name="Rectángulo 7006" width="155.01" height="245.05" rx="46.05" transform="translate(548.03 212.7)" fill="#bfbfbf" opacity="0.29"/>
      <rect id="Rectángulo_7007" data-name="Rectángulo 7007" width="155.01" height="245.05" rx="46.05" transform="translate(547.85 212.52)" fill="#bdbdbd" opacity="0.3"/>
      <rect id="Rectángulo_7008" data-name="Rectángulo 7008" width="155.01" height="245.05" rx="46.05" transform="translate(547.66 212.34)" fill="#bbb" opacity="0.31"/>
      <rect id="Rectángulo_7009" data-name="Rectángulo 7009" width="155.01" height="245.05" rx="46.05" transform="translate(547.48 212.16)" fill="#b9b9b9" opacity="0.32"/>
      <rect id="Rectángulo_7010" data-name="Rectángulo 7010" width="155.01" height="245.05" rx="46.05" transform="translate(547.29 211.99)" fill="#b7b7b7" opacity="0.33"/>
      <rect id="Rectángulo_7011" data-name="Rectángulo 7011" width="155.01" height="245.05" rx="46.05" transform="translate(547.11 211.81)" fill="#b5b5b5" opacity="0.34"/>
      <rect id="Rectángulo_7012" data-name="Rectángulo 7012" width="155.01" height="245.05" rx="46.05" transform="translate(546.92 211.63)" fill="#b3b3b3" opacity="0.35"/>
      <rect id="Rectángulo_7013" data-name="Rectángulo 7013" width="155.01" height="245.05" rx="46.05" transform="translate(546.74 211.46)" fill="#b1b1b1" opacity="0.36"/>
      <rect id="Rectángulo_7014" data-name="Rectángulo 7014" width="155.01" height="245.05" rx="46.05" transform="translate(546.55 211.28)" fill="#afafaf" opacity="0.37"/>
      <rect id="Rectángulo_7015" data-name="Rectángulo 7015" width="155.01" height="245.05" rx="46.05" transform="translate(546.37 211.1)" fill="#adadad" opacity="0.38"/>
      <rect id="Rectángulo_7016" data-name="Rectángulo 7016" width="155.01" height="245.05" rx="46.05" transform="translate(546.18 210.93)" fill="#ababab" opacity="0.39"/>
      <rect id="Rectángulo_7017" data-name="Rectángulo 7017" width="155.01" height="245.05" rx="46.05" transform="translate(546 210.75)" fill="#a9a9a9" opacity="0.4"/>
      <rect id="Rectángulo_7018" data-name="Rectángulo 7018" width="155.01" height="245.05" rx="46.05" transform="translate(545.81 210.57)" fill="#a7a7a7" opacity="0.41"/>
      <rect id="Rectángulo_7019" data-name="Rectángulo 7019" width="155.01" height="245.05" rx="46.05" transform="translate(545.63 210.39)" fill="#a5a5a5" opacity="0.42"/>
      <rect id="Rectángulo_7020" data-name="Rectángulo 7020" width="155.01" height="245.05" rx="46.05" transform="translate(545.44 210.22)" fill="#a3a3a3" opacity="0.43"/>
      <rect id="Rectángulo_7021" data-name="Rectángulo 7021" width="155.01" height="245.05" rx="46.05" transform="translate(545.26 210.04)" fill="#a1a1a1" opacity="0.44"/>
      <rect id="Rectángulo_7022" data-name="Rectángulo 7022" width="155.01" height="245.05" rx="46.05" transform="translate(545.07 209.86)" fill="#9f9f9f" opacity="0.45"/>
      <rect id="Rectángulo_7023" data-name="Rectángulo 7023" width="155.01" height="245.05" rx="46.05" transform="translate(544.89 209.69)" fill="#9d9d9d" opacity="0.46"/>
      <rect id="Rectángulo_7024" data-name="Rectángulo 7024" width="155.01" height="245.05" rx="46.05" transform="translate(544.7 209.51)" fill="#9b9b9b" opacity="0.47"/>
      <rect id="Rectángulo_7025" data-name="Rectángulo 7025" width="155.01" height="245.05" rx="46.05" transform="translate(544.52 209.33)" fill="#999" opacity="0.48"/>
      <rect id="Rectángulo_7026" data-name="Rectángulo 7026" width="155.01" height="245.05" rx="46.05" transform="translate(544.33 209.16)" fill="#979797" opacity="0.49"/>
      <rect id="Rectángulo_7027" data-name="Rectángulo 7027" width="155.01" height="245.05" rx="46.05" transform="translate(544.15 208.98)" fill="#959595" opacity="0.5"/>
      <rect id="Rectángulo_7028" data-name="Rectángulo 7028" width="155.01" height="245.05" rx="46.05" transform="translate(543.96 208.8)" fill="#939393" opacity="0.5"/>
      <rect id="Rectángulo_7029" data-name="Rectángulo 7029" width="155.01" height="245.05" rx="46.05" transform="translate(543.78 208.62)" fill="#919191" opacity="0.51"/>
      <rect id="Rectángulo_7030" data-name="Rectángulo 7030" width="155.01" height="245.05" rx="46.05" transform="translate(543.59 208.45)" fill="#8f8f8f" opacity="0.52"/>
      <rect id="Rectángulo_7031" data-name="Rectángulo 7031" width="155.01" height="245.05" rx="46.05" transform="translate(543.41 208.27)" fill="#8d8d8d" opacity="0.53"/>
      <rect id="Rectángulo_7032" data-name="Rectángulo 7032" width="155.01" height="245.05" rx="46.05" transform="translate(543.22 208.09)" fill="#8b8b8b" opacity="0.54"/>
      <rect id="Rectángulo_7033" data-name="Rectángulo 7033" width="155.01" height="245.05" rx="46.05" transform="translate(543.04 207.92)" fill="#898989" opacity="0.55"/>
      <rect id="Rectángulo_7034" data-name="Rectángulo 7034" width="155.01" height="245.05" rx="46.05" transform="translate(542.85 207.74)" fill="#878787" opacity="0.56"/>
      <rect id="Rectángulo_7035" data-name="Rectángulo 7035" width="155.01" height="245.05" rx="46.05" transform="translate(542.67 207.56)" fill="#858585" opacity="0.57"/>
      <rect id="Rectángulo_7036" data-name="Rectángulo 7036" width="155.01" height="245.05" rx="46.05" transform="translate(542.48 207.39)" fill="#838383" opacity="0.58"/>
      <rect id="Rectángulo_7037" data-name="Rectángulo 7037" width="155.01" height="245.05" rx="46.05" transform="translate(542.3 207.21)" fill="#818181" opacity="0.59"/>
      <rect id="Rectángulo_7038" data-name="Rectángulo 7038" width="155.01" height="245.05" rx="46.05" transform="translate(542.11 207.03)" fill="gray" opacity="0.6"/>
      <rect id="Rectángulo_7039" data-name="Rectángulo 7039" width="155.01" height="245.05" rx="46.05" transform="translate(541.92 206.85)" fill="gray" opacity="0.61"/>
      <rect id="Rectángulo_7040" data-name="Rectángulo 7040" width="155.01" height="245.05" rx="46.05" transform="translate(541.74 206.68)" fill="gray" opacity="0.62"/>
      <rect id="Rectángulo_7041" data-name="Rectángulo 7041" width="155.01" height="245.05" rx="46.05" transform="translate(541.55 206.5)" fill="#7e7e7e" opacity="0.63"/>
      <rect id="Rectángulo_7042" data-name="Rectángulo 7042" width="155.01" height="245.05" rx="46.05" transform="translate(541.37 206.32)" fill="#7c7c7c" opacity="0.64"/>
      <rect id="Rectángulo_7043" data-name="Rectángulo 7043" width="155.01" height="245.05" rx="46.05" transform="translate(541.18 206.15)" fill="#7a7a7a" opacity="0.65"/>
      <rect id="Rectángulo_7044" data-name="Rectángulo 7044" width="155.01" height="245.05" rx="46.05" transform="translate(541 205.97)" fill="#787878" opacity="0.66"/>
      <rect id="Rectángulo_7045" data-name="Rectángulo 7045" width="155.01" height="245.05" rx="46.05" transform="translate(540.81 205.79)" fill="#767676" opacity="0.67"/>
      <rect id="Rectángulo_7046" data-name="Rectángulo 7046" width="155.01" height="245.05" rx="46.05" transform="translate(540.63 205.62)" fill="#747474" opacity="0.68"/>
      <rect id="Rectángulo_7047" data-name="Rectángulo 7047" width="155.01" height="245.05" rx="46.05" transform="translate(540.44 205.44)" fill="#727272" opacity="0.69"/>
      <rect id="Rectángulo_7048" data-name="Rectángulo 7048" width="155.01" height="245.05" rx="46.05" transform="translate(540.26 205.26)" fill="#707070" opacity="0.7"/>
      <rect id="Rectángulo_7049" data-name="Rectángulo 7049" width="155.01" height="245.05" rx="46.05" transform="translate(540.07 205.09)" fill="#6e6e6e" opacity="0.71"/>
      <rect id="Rectángulo_7050" data-name="Rectángulo 7050" width="155.01" height="245.05" rx="46.05" transform="translate(539.89 204.91)" fill="#6c6c6c" opacity="0.72"/>
      <rect id="Rectángulo_7051" data-name="Rectángulo 7051" width="155.01" height="245.05" rx="46.05" transform="translate(539.7 204.73)" fill="#6a6a6a" opacity="0.73"/>
      <rect id="Rectángulo_7052" data-name="Rectángulo 7052" width="155.01" height="245.05" rx="46.05" transform="translate(539.52 204.55)" fill="#686868" opacity="0.74"/>
      <rect id="Rectángulo_7053" data-name="Rectángulo 7053" width="155.01" height="245.05" rx="46.05" transform="translate(539.33 204.38)" fill="#656565" opacity="0.75"/>
      <rect id="Rectángulo_7054" data-name="Rectángulo 7054" width="155.01" height="245.05" rx="46.05" transform="translate(539.15 204.2)" fill="#636363" opacity="0.76"/>
      <rect id="Rectángulo_7055" data-name="Rectángulo 7055" width="155.01" height="245.05" rx="46.05" transform="translate(538.96 204.02)" fill="#616161" opacity="0.77"/>
      <rect id="Rectángulo_7056" data-name="Rectángulo 7056" width="155.01" height="245.05" rx="46.05" transform="translate(538.78 203.85)" fill="#5f5f5f" opacity="0.78"/>
      <rect id="Rectángulo_7057" data-name="Rectángulo 7057" width="155.01" height="245.05" rx="46.05" transform="translate(538.59 203.67)" fill="#5d5d5d" opacity="0.79"/>
      <rect id="Rectángulo_7058" data-name="Rectángulo 7058" width="155.01" height="245.05" rx="46.05" transform="translate(538.41 203.49)" fill="#5b5b5b" opacity="0.8"/>
      <rect id="Rectángulo_7059" data-name="Rectángulo 7059" width="155.01" height="245.05" rx="46.05" transform="translate(538.22 203.32)" fill="#595959" opacity="0.81"/>
      <rect id="Rectángulo_7060" data-name="Rectángulo 7060" width="155.01" height="245.05" rx="46.05" transform="translate(538.04 203.14)" fill="#575757" opacity="0.82"/>
      <rect id="Rectángulo_7061" data-name="Rectángulo 7061" width="155.01" height="245.05" rx="46.05" transform="translate(537.85 202.96)" fill="#555" opacity="0.83"/>
      <rect id="Rectángulo_7062" data-name="Rectángulo 7062" width="155.01" height="245.05" rx="46.05" transform="translate(537.67 202.78)" fill="#535353" opacity="0.84"/>
      <rect id="Rectángulo_7063" data-name="Rectángulo 7063" width="155.01" height="245.05" rx="46.05" transform="translate(537.48 202.61)" fill="#515151" opacity="0.85"/>
      <rect id="Rectángulo_7064" data-name="Rectángulo 7064" width="155.01" height="245.05" rx="46.05" transform="translate(537.3 202.43)" fill="#4f4f4f" opacity="0.86"/>
      <rect id="Rectángulo_7065" data-name="Rectángulo 7065" width="155.01" height="245.05" rx="46.05" transform="translate(537.11 202.25)" fill="#4d4d4d" opacity="0.87"/>
      <rect id="Rectángulo_7066" data-name="Rectángulo 7066" width="155.01" height="245.05" rx="46.05" transform="translate(536.93 202.08)" fill="#4b4b4b" opacity="0.88"/>
      <rect id="Rectángulo_7067" data-name="Rectángulo 7067" width="155.01" height="245.05" rx="46.05" transform="translate(536.74 201.9)" fill="#494949" opacity="0.89"/>
      <rect id="Rectángulo_7068" data-name="Rectángulo 7068" width="155.01" height="245.05" rx="46.05" transform="translate(536.56 201.72)" fill="#474747" opacity="0.9"/>
      <rect id="Rectángulo_7069" data-name="Rectángulo 7069" width="155.01" height="245.05" rx="46.05" transform="translate(536.37 201.55)" fill="#454545" opacity="0.91"/>
      <rect id="Rectángulo_7070" data-name="Rectángulo 7070" width="155.01" height="245.05" rx="46.05" transform="translate(536.19 201.37)" fill="#434343" opacity="0.92"/>
      <rect id="Rectángulo_7071" data-name="Rectángulo 7071" width="155.01" height="245.05" rx="46.05" transform="translate(536 201.19)" fill="#414141" opacity="0.93"/>
      <rect id="Rectángulo_7072" data-name="Rectángulo 7072" width="155.01" height="245.05" rx="46.05" transform="translate(535.82 201.01)" fill="#3f3f3f" opacity="0.94"/>
      <rect id="Rectángulo_7073" data-name="Rectángulo 7073" width="155.01" height="245.05" rx="46.05" transform="translate(535.63 200.84)" fill="#3d3d3d" opacity="0.95"/>
      <rect id="Rectángulo_7074" data-name="Rectángulo 7074" width="155.01" height="245.05" rx="46.05" transform="translate(535.45 200.66)" fill="#3b3b3b" opacity="0.96"/>
      <rect id="Rectángulo_7075" data-name="Rectángulo 7075" width="155.01" height="245.05" rx="46.05" transform="translate(535.26 200.48)" fill="#393939" opacity="0.97"/>
      <rect id="Rectángulo_7076" data-name="Rectángulo 7076" width="155.01" height="245.05" rx="46.05" transform="translate(535.08 200.31)" fill="#373737" opacity="0.98"/>
      <rect id="Rectángulo_7077" data-name="Rectángulo 7077" width="155.01" height="245.05" rx="46.05" transform="translate(534.89 200.13)" fill="#353535" opacity="0.99"/>
      <rect id="Rectángulo_7078" data-name="Rectángulo 7078" width="155.01" height="245.05" rx="46.05" transform="translate(534.71 199.95)" fill="#333"/>
    </g>
    <g id="Grupo_58684" data-name="Grupo 58684" transform="translate(187.8 5336.391)">
      <rect id="Rectángulo_7079" data-name="Rectángulo 7079" width="249.9" height="159.86" rx="51.4" transform="translate(692.14 197.53) rotate(90)" fill="url(#linear-gradient)"/>
      <rect id="Rectángulo_7080" data-name="Rectángulo 7080" width="245.05" height="155.01" rx="46.05" transform="translate(689.71 199.95) rotate(90)" fill="#ededed"/>
    </g>
    <g id="Grupo_58685" data-name="Grupo 58685" transform="translate(187.8 5336.391)">
      <rect id="Rectángulo_7081" data-name="Rectángulo 7081" width="1.71" height="1.71" transform="translate(610.5 465.21)" fill="#4d4d4d"/>
      <path id="Trazado_119720" data-name="Trazado 119720" d="M605.32,466.92h-3.46v-1.71h3.46Zm-8.64,0h-3.46v-1.71h3.46Zm-8.64,0h-3.45v-1.71H588Zm-8.63,0H576v-1.71h3.46Zm-8.64,0h-3.46v-1.71h3.46Zm-8.64,0h-3.45v-1.71h3.45Zm-8.64,0H550v-1.71h3.45Zm-8.63,0H541.4v-1.71h3.46Zm-8.64,0h-.05a25.557,25.557,0,0,1-3.51-.25l.24-1.7a22.176,22.176,0,0,0,3.27.24Zm-8.75-1.61a26.006,26.006,0,0,1-3.24-1.54l.85-1.49a21.832,21.832,0,0,0,3,1.43Zm-7.57-4.69a24.162,24.162,0,0,1-2.46-2.6l1.33-1.08a21.693,21.693,0,0,0,2.28,2.42Zm-5.37-7.1a24.99,24.99,0,0,1-1.35-3.31l1.63-.53a21.643,21.643,0,0,0,1.26,3.08ZM512.11,445c-.07-.72-.1-1.46-.1-2.2v-1.33h1.71v1.33q0,1,.09,2Zm1.61-8.71H512v-3.46h1.71Zm0-8.64H512V424.2h1.71Zm0-8.64H512v-3.45h1.71Zm0-8.63H512v-3.46h1.71Zm0-8.64H512v-3.46h1.71Zm0-8.64H512v-3.45h1.71Zm0-8.64H512V381h1.71Zm0-8.63H512v-3.46h1.71Zm0-8.64H512V363.7h1.71Zm0-8.63H512V355.1h1.71Zm0-8.64H512v-3.46h1.71Zm0-8.64H512v-3.45h1.71Zm0-34.55H512v-3.45h1.71Zm0-8.63H512v-3.5h1.71Zm0-8.64H512V286h1.71Zm0-8.64H512v-3.45h1.71Zm0-8.63H512v-3.46h1.71Zm0-8.64H512V260.1h1.71Zm0-8.64H512v-3.45h1.71Zm0-8.63H512v-3.46h1.71Zm0-8.64H512v-3.46h1.71Zm0-8.64H512v-3.45h1.71Zm0-8.63H512v-3.46h1.71Zm0-8.64H512v-3.46h1.71Zm0-8.64H512v-.83a24.328,24.328,0,0,1,.15-2.71l1.7.19a23.486,23.486,0,0,0-.14,2.52Zm1.22-8.22-1.63-.55a24.46,24.46,0,0,1,1.38-3.3l1.53.77a23.012,23.012,0,0,0-1.28,3.04Zm4-7.29-1.34-1.07a25.01,25.01,0,0,1,2.41-2.63l1.18,1.24a23.873,23.873,0,0,0-2.28,2.42Zm6.22-5.47-.88-1.47a23.246,23.246,0,0,1,3.19-1.61l.65,1.58a21.637,21.637,0,0,0-2.99,1.46Zm80.13-2.37h-3.45v-1.71h3.45Zm-8.63-.09H593.2v-1.71h3.46Zm-8.64-.09h-3.45v-1.71h3.46Zm-8.64-.09h-3.45v-1.71h3.45Zm-8.63-.1h-3.46v-1.71h3.46Zm-8.64-.09h-3.45v-1.72h3.45Zm-29.2,0-.27-1.69a22.288,22.288,0,0,1,3.56-.28V179a21.291,21.291,0,0,0-3.32.23Zm20.57-.08h-3.46v-1.72h3.45Zm-8.64-.09h-3.46V177.4h3.46Z" fill="#4d4d4d"/>
      <rect id="Rectángulo_7082" data-name="Rectángulo 7082" width="1.71" height="1.71" transform="translate(610.045 179.58) rotate(-89.427)" fill="#4d4d4d"/>
    </g>
    <path id="Trazado_119849" data-name="Trazado 119849" d="M11.188-4.263A4.528,4.528,0,0,1,9.664-1.011,5.355,5.355,0,0,1,6.038.176,4.816,4.816,0,0,1,2.167-1.481,6.793,6.793,0,0,1,.756-6.029v-.782a7.671,7.671,0,0,1,.65-3.252,4.874,4.874,0,0,1,1.859-2.158,5.207,5.207,0,0,1,2.808-.751,5.217,5.217,0,0,1,3.568,1.187,4.866,4.866,0,0,1,1.564,3.331H8.569a2.673,2.673,0,0,0-.69-1.8,2.555,2.555,0,0,0-1.806-.558A2.24,2.24,0,0,0,4.1-9.866a5.3,5.3,0,0,0-.672,2.931v.967a5.667,5.667,0,0,0,.628,3.032,2.2,2.2,0,0,0,1.982.958,2.6,2.6,0,0,0,1.824-.558,2.521,2.521,0,0,0,.69-1.727Zm1.169-.58A5.64,5.64,0,0,1,12.9-7.365a3.989,3.989,0,0,1,1.569-1.714,4.577,4.577,0,0,1,2.377-.606,4.33,4.33,0,0,1,3.142,1.178,4.727,4.727,0,0,1,1.358,3.2l.018.65a4.97,4.97,0,0,1-1.222,3.511A4.247,4.247,0,0,1,16.866.176a4.268,4.268,0,0,1-3.283-1.318,5.058,5.058,0,0,1-1.226-3.586Zm2.54.18a3.555,3.555,0,0,0,.51,2.073,1.682,1.682,0,0,0,1.459.717,1.686,1.686,0,0,0,1.441-.709,3.89,3.89,0,0,0,.519-2.267,3.519,3.519,0,0,0-.519-2.06,1.686,1.686,0,0,0-1.459-.731,1.658,1.658,0,0,0-1.441.726A3.955,3.955,0,0,0,14.9-4.662ZM25.269-9.51l.079,1.1a3.32,3.32,0,0,1,2.733-1.274,2.759,2.759,0,0,1,2.25.888,4.142,4.142,0,0,1,.756,2.654V0h-2.54V-6.082A1.648,1.648,0,0,0,28.2-7.255a1.574,1.574,0,0,0-1.169-.365,1.747,1.747,0,0,0-1.608.914V0h-2.54V-9.51ZM38.162-2.628a.818.818,0,0,0-.461-.734,5.241,5.241,0,0,0-1.481-.479q-3.393-.712-3.393-2.883a2.613,2.613,0,0,1,1.05-2.114,4.237,4.237,0,0,1,2.747-.848,4.56,4.56,0,0,1,2.9.853,2.687,2.687,0,0,1,1.085,2.215h-2.54a1.229,1.229,0,0,0-.352-.9,1.488,1.488,0,0,0-1.1-.356,1.52,1.52,0,0,0-.993.29.916.916,0,0,0-.352.738.783.783,0,0,0,.4.681,4.114,4.114,0,0,0,1.349.448,11.019,11.019,0,0,1,1.6.426,2.628,2.628,0,0,1,2.013,2.558,2.481,2.481,0,0,1-1.116,2.1,4.815,4.815,0,0,1-2.883.8A5.029,5.029,0,0,1,34.51-.25a3.561,3.561,0,0,1-1.455-1.169,2.716,2.716,0,0,1-.527-1.6h2.408a1.326,1.326,0,0,0,.5,1.037,1.987,1.987,0,0,0,1.248.36,1.839,1.839,0,0,0,1.1-.277A.861.861,0,0,0,38.162-2.628Zm9.8,1.661A3.185,3.185,0,0,1,45.36.176,3,3,0,0,1,43.027-.7a3.752,3.752,0,0,1-.822-2.575V-9.51h2.54v6.151q0,1.487,1.354,1.487a1.834,1.834,0,0,0,1.775-.9V-9.51h2.549V0H48.032ZM54.721-9.51,54.8-8.446a3.342,3.342,0,0,1,2.733-1.239,2.536,2.536,0,0,1,2.522,1.45,3.265,3.265,0,0,1,2.856-1.45,2.836,2.836,0,0,1,2.3.9,4.141,4.141,0,0,1,.756,2.711V0H63.422V-6.064a1.811,1.811,0,0,0-.316-1.182,1.4,1.4,0,0,0-1.116-.374,1.585,1.585,0,0,0-1.582,1.09L60.416,0h-2.54V-6.056a1.789,1.789,0,0,0-.325-1.2,1.416,1.416,0,0,0-1.107-.369,1.646,1.646,0,0,0-1.564.9V0h-2.54V-9.51ZM70.6,0H68.054V-9.51H70.6ZM67.9-11.971a1.251,1.251,0,0,1,.382-.94,1.436,1.436,0,0,1,1.042-.369,1.44,1.44,0,0,1,1.037.369,1.244,1.244,0,0,1,.387.94,1.247,1.247,0,0,1-.391.949,1.443,1.443,0,0,1-1.033.369,1.443,1.443,0,0,1-1.033-.369A1.247,1.247,0,0,1,67.9-11.971ZM72.3-4.825a5.731,5.731,0,0,1,1-3.542,3.237,3.237,0,0,1,2.729-1.318,2.913,2.913,0,0,1,2.294,1.037V-13.5h2.549V0H78.574l-.123-1.011A2.989,2.989,0,0,1,76.008.176a3.228,3.228,0,0,1-2.694-1.323A5.916,5.916,0,0,1,72.3-4.825Zm2.54.189A3.754,3.754,0,0,0,75.3-2.585a1.517,1.517,0,0,0,1.354.713,1.7,1.7,0,0,0,1.661-.995V-6.625a1.675,1.675,0,0,0-1.644-.995Q74.839-7.62,74.839-4.636Zm7.6-.207a5.64,5.64,0,0,1,.545-2.522,3.989,3.989,0,0,1,1.569-1.714,4.577,4.577,0,0,1,2.377-.606,4.33,4.33,0,0,1,3.142,1.178,4.727,4.727,0,0,1,1.358,3.2l.018.65a4.97,4.97,0,0,1-1.222,3.511A4.247,4.247,0,0,1,86.95.176a4.268,4.268,0,0,1-3.283-1.318,5.058,5.058,0,0,1-1.226-3.586Zm2.54.18a3.555,3.555,0,0,0,.51,2.073,1.682,1.682,0,0,0,1.459.717,1.686,1.686,0,0,0,1.441-.709,3.89,3.89,0,0,0,.519-2.267,3.519,3.519,0,0,0-.519-2.06,1.686,1.686,0,0,0-1.459-.731,1.658,1.658,0,0,0-1.441.726A3.955,3.955,0,0,0,84.981-4.662ZM98.358-7.128a6.9,6.9,0,0,0-.914-.07,1.86,1.86,0,0,0-1.89.976V0h-2.54V-9.51h2.4l.07,1.134A2.354,2.354,0,0,1,97.6-9.686a2.662,2.662,0,0,1,.791.114Z" transform="translate(750.71 5663.181)" fill="#12263f"/>
    <g id="Grupo_58738" data-name="Grupo 58738" transform="translate(187.8 5336.391)">
      <path id="Trazado_119816" data-name="Trazado 119816" d="M650.62,273.45a2.13,2.13,0,0,1-2.21,1.26H629.09c-1.56,0-2.21-.76-2-2.3q.62-5.58,1.19-11.16.51-4.86,1-9.72A1.67,1.67,0,0,1,631,250h2.25v4.88a1.7,1.7,0,1,0,3.37,0V250h4.51v4.88a1.7,1.7,0,1,0,3.38,0V250h2.19a1.69,1.69,0,0,1,1.75,1.62q1,9.19,1.93,18.38c.09.8.21,1.59.32,2.38Z" fill="#f4729a"/>
      <path id="Trazado_119817" data-name="Trazado 119817" d="M613.4,217.11c.86.17,1.73.29,2.58.5a15.419,15.419,0,0,1,5.38,2.59,1.48,1.48,0,0,0,.81.27,7.34,7.34,0,0,1,7.42,7.48v3.22h-2.83a.73.73,0,0,1-.49-.27,6.84,6.84,0,0,0-6.07-3.1H609.57a6.78,6.78,0,0,0-5.87,3.06.83.83,0,0,1-.58.3H600.4c-.3-3.42.21-6.69,2.46-9.51a11.67,11.67,0,0,1,7.8-4.45,1.781,1.781,0,0,0,.38-.1Z" fill="#f4729a"/>
      <path id="Trazado_119818" data-name="Trazado 119818" d="M623.38,252.25c.76.15,1.42.27,2.07.43a.52.52,0,0,1,.22.45c-.27,2.81-.57,5.62-.87,8.44-.38,3.65-.78,7.3-1.13,10.95a13.639,13.639,0,0,0,.13,2.17H595.09c-1.43,0-2.06-.62-2-2.06,0-2.28-.09-4.58.11-6.85A15.08,15.08,0,0,1,605,252.55c.49-.11,1-.17,1.57-.27-.26,3.14.48,5.87,2.88,8a8.09,8.09,0,0,0,5.33,2.07,8.25,8.25,0,0,0,6.63-3,9.19,9.19,0,0,0,1.97-7.1Z" fill="#f4729a"/>
      <path id="Trazado_119819" data-name="Trazado 119819" d="M615,231.17h5.45a3.37,3.37,0,0,1,3.51,3.5q0,3.35,0,6.69a9,9,0,0,1-17.84,1.55,10,10,0,0,1-.15-1.73v-6.41a3.37,3.37,0,0,1,3.57-3.6Z" fill="#f4729a"/>
      <path id="Trazado_119820" data-name="Trazado 119820" d="M633.2,250a27.084,27.084,0,0,1,.11-3.25,5.57,5.57,0,0,1,5.92-4.62,5.63,5.63,0,0,1,5.19,5.34V250h-3.39v-2.25a2.25,2.25,0,1,0-4.49,0q0,1.125,0,2.25h-3.39Z" fill="#f4729a"/>
      <path id="Trazado_119821" data-name="Trazado 119821" d="M610,252.6a12.48,12.48,0,0,0,10,0c.23,2.29-.29,4.22-2.26,5.5a4.77,4.77,0,0,1-5.36.09C610.29,257,609.72,255,610,252.6Z" fill="#f4729a"/>
      <path id="Trazado_119822" data-name="Trazado 119822" d="M602.57,241.26c-1.59.16-3-.09-3.91-1.52a3.18,3.18,0,0,1,0-3.6c.91-1.47,2.34-1.73,4-1.56Z" fill="#f4729a"/>
      <path id="Trazado_119823" data-name="Trazado 119823" d="M627.36,241.26v-6.68c1.51-.16,2.87,0,3.82,1.35a3.19,3.19,0,0,1,.24,3.59C630.55,241.11,629.08,241.43,627.36,241.26Z" fill="#f4729a"/>
      <path id="Trazado_119824" data-name="Trazado 119824" d="M636.56,250v-2.25a2.25,2.25,0,1,1,4.49,0V250Z" fill="#f4729a"/>
    </g>
  </g>
</svg>
