<svg xmlns="http://www.w3.org/2000/svg" xmlns:xlink="http://www.w3.org/1999/xlink" width="224.49" height="289.61" viewBox="0 0 224.49 289.61">
  <defs>
    <linearGradient id="linear-gradient" x1="0.237" y1="-0.212" x2="0.766" y2="1.22" gradientUnits="objectBoundingBox">
      <stop offset="0" stop-color="#fff"/>
      <stop offset="1" stop-color="#d2d1d1"/>
    </linearGradient>
  </defs>
  <g id="card2" transform="translate(-474.87 -5513.7)">
    <path id="Trazado_119717" data-name="Trazado 119717" d="M387.27,466.84h76.05a23.3,23.3,0,0,0,23.3-23.29V343.63l24.94-21.15-24.94-21.16V201.41a23.3,23.3,0,0,0-23.3-23.3H387.27Z" transform="translate(187.8 5336.391)" fill="#7f43bb"/>
    <g id="Grupo_58680" data-name="Grupo 58680" transform="translate(187.8 5336.391)" opacity="0.8">
      <rect id="Rectángulo_6871" data-name="Rectángulo 6871" width="155.01" height="245.05" rx="46.05" transform="translate(328.46 217.83)" fill="#fff" opacity="0"/>
      <rect id="Rectángulo_6872" data-name="Rectángulo 6872" width="155.01" height="245.05" rx="46.05" transform="translate(328.28 217.65)" fill="#f8f8f8" opacity="0.01"/>
      <rect id="Rectángulo_6873" data-name="Rectángulo 6873" width="155.01" height="245.05" rx="46.05" transform="translate(328.09 217.47)" fill="#f6f6f6" opacity="0.02"/>
      <rect id="Rectángulo_6874" data-name="Rectángulo 6874" width="155.01" height="245.05" rx="46.05" transform="translate(327.91 217.3)" fill="#f4f4f4" opacity="0.03"/>
      <rect id="Rectángulo_6875" data-name="Rectángulo 6875" width="155.01" height="245.05" rx="46.05" transform="translate(327.72 217.12)" fill="#f2f2f2" opacity="0.04"/>
      <rect id="Rectángulo_6876" data-name="Rectángulo 6876" width="155.01" height="245.05" rx="46.05" transform="translate(327.54 216.94)" fill="#f0f0f0" opacity="0.05"/>
      <rect id="Rectángulo_6877" data-name="Rectángulo 6877" width="155.01" height="245.05" rx="46.05" transform="translate(327.35 216.77)" fill="#eee" opacity="0.06"/>
      <rect id="Rectángulo_6878" data-name="Rectángulo 6878" width="155.01" height="245.05" rx="46.05" transform="translate(327.17 216.59)" fill="#ececec" opacity="0.07"/>
      <rect id="Rectángulo_6879" data-name="Rectángulo 6879" width="155.01" height="245.05" rx="46.05" transform="translate(326.98 216.41)" fill="#eaeaea" opacity="0.08"/>
      <rect id="Rectángulo_6880" data-name="Rectángulo 6880" width="155.01" height="245.05" rx="46.05" transform="translate(326.8 216.23)" fill="#e8e8e8" opacity="0.09"/>
      <rect id="Rectángulo_6881" data-name="Rectángulo 6881" width="155.01" height="245.05" rx="46.05" transform="translate(326.61 216.06)" fill="#e6e6e6" opacity="0.1"/>
      <rect id="Rectángulo_6882" data-name="Rectángulo 6882" width="155.01" height="245.05" rx="46.05" transform="translate(326.43 215.88)" fill="#e4e4e4" opacity="0.11"/>
      <rect id="Rectángulo_6883" data-name="Rectángulo 6883" width="155.01" height="245.05" rx="46.05" transform="translate(326.24 215.7)" fill="#e2e2e2" opacity="0.12"/>
      <rect id="Rectángulo_6884" data-name="Rectángulo 6884" width="155.01" height="245.05" rx="46.05" transform="translate(326.06 215.53)" fill="#e0e0e0" opacity="0.13"/>
      <rect id="Rectángulo_6885" data-name="Rectángulo 6885" width="155.01" height="245.05" rx="46.05" transform="translate(325.87 215.35)" fill="#dedede" opacity="0.14"/>
      <rect id="Rectángulo_6886" data-name="Rectángulo 6886" width="155.01" height="245.05" rx="46.05" transform="translate(325.69 215.17)" fill="#dcdcdc" opacity="0.15"/>
      <rect id="Rectángulo_6887" data-name="Rectángulo 6887" width="155.01" height="245.05" rx="46.05" transform="translate(325.5 215)" fill="#dadada" opacity="0.16"/>
      <rect id="Rectángulo_6888" data-name="Rectángulo 6888" width="155.01" height="245.05" rx="46.05" transform="translate(325.32 214.82)" fill="#d8d8d8" opacity="0.17"/>
      <rect id="Rectángulo_6889" data-name="Rectángulo 6889" width="155.01" height="245.05" rx="46.05" transform="translate(325.13 214.64)" fill="#d6d6d6" opacity="0.18"/>
      <rect id="Rectángulo_6890" data-name="Rectángulo 6890" width="155.01" height="245.05" rx="46.05" transform="translate(324.95 214.46)" fill="#d4d4d4" opacity="0.19"/>
      <rect id="Rectángulo_6891" data-name="Rectángulo 6891" width="155.01" height="245.05" rx="46.05" transform="translate(324.76 214.29)" fill="#d2d2d2" opacity="0.2"/>
      <rect id="Rectángulo_6892" data-name="Rectángulo 6892" width="155.01" height="245.05" rx="46.05" transform="translate(324.58 214.11)" fill="#d0d0d0" opacity="0.21"/>
      <rect id="Rectángulo_6893" data-name="Rectángulo 6893" width="155.01" height="245.05" rx="46.05" transform="translate(324.39 213.93)" fill="#cecece" opacity="0.22"/>
      <rect id="Rectángulo_6894" data-name="Rectángulo 6894" width="155.01" height="245.05" rx="46.05" transform="translate(324.21 213.76)" fill="#ccc" opacity="0.23"/>
      <rect id="Rectángulo_6895" data-name="Rectángulo 6895" width="155.01" height="245.05" rx="46.05" transform="translate(324.02 213.58)" fill="#cacaca" opacity="0.24"/>
      <rect id="Rectángulo_6896" data-name="Rectángulo 6896" width="155.01" height="245.05" rx="46.05" transform="translate(323.84 213.4)" fill="#c8c8c8" opacity="0.25"/>
      <rect id="Rectángulo_6897" data-name="Rectángulo 6897" width="155.01" height="245.05" rx="46.05" transform="translate(323.65 213.23)" fill="#c5c5c5" opacity="0.26"/>
      <rect id="Rectángulo_6898" data-name="Rectángulo 6898" width="155.01" height="245.05" rx="46.05" transform="translate(323.47 213.05)" fill="#c3c3c3" opacity="0.27"/>
      <rect id="Rectángulo_6899" data-name="Rectángulo 6899" width="155.01" height="245.05" rx="46.05" transform="translate(323.28 212.87)" fill="#c1c1c1" opacity="0.28"/>
      <rect id="Rectángulo_6900" data-name="Rectángulo 6900" width="155.01" height="245.05" rx="46.05" transform="translate(323.1 212.7)" fill="#bfbfbf" opacity="0.29"/>
      <rect id="Rectángulo_6901" data-name="Rectángulo 6901" width="155.01" height="245.05" rx="46.05" transform="translate(322.91 212.52)" fill="#bdbdbd" opacity="0.3"/>
      <rect id="Rectángulo_6902" data-name="Rectángulo 6902" width="155.01" height="245.05" rx="46.05" transform="translate(322.73 212.34)" fill="#bbb" opacity="0.31"/>
      <rect id="Rectángulo_6903" data-name="Rectángulo 6903" width="155.01" height="245.05" rx="46.05" transform="translate(322.54 212.16)" fill="#b9b9b9" opacity="0.32"/>
      <rect id="Rectángulo_6904" data-name="Rectángulo 6904" width="155.01" height="245.05" rx="46.05" transform="translate(322.36 211.99)" fill="#b7b7b7" opacity="0.33"/>
      <rect id="Rectángulo_6905" data-name="Rectángulo 6905" width="155.01" height="245.05" rx="46.05" transform="translate(322.17 211.81)" fill="#b5b5b5" opacity="0.34"/>
      <rect id="Rectángulo_6906" data-name="Rectángulo 6906" width="155.01" height="245.05" rx="46.05" transform="translate(321.99 211.63)" fill="#b3b3b3" opacity="0.35"/>
      <rect id="Rectángulo_6907" data-name="Rectángulo 6907" width="155.01" height="245.05" rx="46.05" transform="translate(321.8 211.46)" fill="#b1b1b1" opacity="0.36"/>
      <rect id="Rectángulo_6908" data-name="Rectángulo 6908" width="155.01" height="245.05" rx="46.05" transform="translate(321.62 211.28)" fill="#afafaf" opacity="0.37"/>
      <rect id="Rectángulo_6909" data-name="Rectángulo 6909" width="155.01" height="245.05" rx="46.05" transform="translate(321.43 211.1)" fill="#adadad" opacity="0.38"/>
      <rect id="Rectángulo_6910" data-name="Rectángulo 6910" width="155.01" height="245.05" rx="46.05" transform="translate(321.25 210.93)" fill="#ababab" opacity="0.39"/>
      <rect id="Rectángulo_6911" data-name="Rectángulo 6911" width="155.01" height="245.05" rx="46.05" transform="translate(321.06 210.75)" fill="#a9a9a9" opacity="0.4"/>
      <rect id="Rectángulo_6912" data-name="Rectángulo 6912" width="155.01" height="245.05" rx="46.05" transform="translate(320.88 210.57)" fill="#a7a7a7" opacity="0.41"/>
      <rect id="Rectángulo_6913" data-name="Rectángulo 6913" width="155.01" height="245.05" rx="46.05" transform="translate(320.69 210.39)" fill="#a5a5a5" opacity="0.42"/>
      <rect id="Rectángulo_6914" data-name="Rectángulo 6914" width="155.01" height="245.05" rx="46.05" transform="translate(320.51 210.22)" fill="#a3a3a3" opacity="0.43"/>
      <rect id="Rectángulo_6915" data-name="Rectángulo 6915" width="155.01" height="245.05" rx="46.05" transform="translate(320.32 210.04)" fill="#a1a1a1" opacity="0.44"/>
      <rect id="Rectángulo_6916" data-name="Rectángulo 6916" width="155.01" height="245.05" rx="46.05" transform="translate(320.14 209.86)" fill="#9f9f9f" opacity="0.45"/>
      <rect id="Rectángulo_6917" data-name="Rectángulo 6917" width="155.01" height="245.05" rx="46.05" transform="translate(319.95 209.69)" fill="#9d9d9d" opacity="0.46"/>
      <rect id="Rectángulo_6918" data-name="Rectángulo 6918" width="155.01" height="245.05" rx="46.05" transform="translate(319.76 209.51)" fill="#9b9b9b" opacity="0.47"/>
      <rect id="Rectángulo_6919" data-name="Rectángulo 6919" width="155.01" height="245.05" rx="46.05" transform="translate(319.58 209.33)" fill="#999" opacity="0.48"/>
      <rect id="Rectángulo_6920" data-name="Rectángulo 6920" width="155.01" height="245.05" rx="46.05" transform="translate(319.39 209.16)" fill="#979797" opacity="0.49"/>
      <rect id="Rectángulo_6921" data-name="Rectángulo 6921" width="155.01" height="245.05" rx="46.05" transform="translate(319.21 208.98)" fill="#959595" opacity="0.5"/>
      <rect id="Rectángulo_6922" data-name="Rectángulo 6922" width="155.01" height="245.05" rx="46.05" transform="translate(319.02 208.8)" fill="#939393" opacity="0.5"/>
      <rect id="Rectángulo_6923" data-name="Rectángulo 6923" width="155.01" height="245.05" rx="46.05" transform="translate(318.84 208.62)" fill="#919191" opacity="0.51"/>
      <rect id="Rectángulo_6924" data-name="Rectángulo 6924" width="155.01" height="245.05" rx="46.05" transform="translate(318.65 208.45)" fill="#8f8f8f" opacity="0.52"/>
      <rect id="Rectángulo_6925" data-name="Rectángulo 6925" width="155.01" height="245.05" rx="46.05" transform="translate(318.47 208.27)" fill="#8d8d8d" opacity="0.53"/>
      <rect id="Rectángulo_6926" data-name="Rectángulo 6926" width="155.01" height="245.05" rx="46.05" transform="translate(318.28 208.09)" fill="#8b8b8b" opacity="0.54"/>
      <rect id="Rectángulo_6927" data-name="Rectángulo 6927" width="155.01" height="245.05" rx="46.05" transform="translate(318.1 207.92)" fill="#898989" opacity="0.55"/>
      <rect id="Rectángulo_6928" data-name="Rectángulo 6928" width="155.01" height="245.05" rx="46.05" transform="translate(317.91 207.74)" fill="#878787" opacity="0.56"/>
      <rect id="Rectángulo_6929" data-name="Rectángulo 6929" width="155.01" height="245.05" rx="46.05" transform="translate(317.73 207.56)" fill="#858585" opacity="0.57"/>
      <rect id="Rectángulo_6930" data-name="Rectángulo 6930" width="155.01" height="245.05" rx="46.05" transform="translate(317.54 207.39)" fill="#838383" opacity="0.58"/>
      <rect id="Rectángulo_6931" data-name="Rectángulo 6931" width="155.01" height="245.05" rx="46.05" transform="translate(317.36 207.21)" fill="#818181" opacity="0.59"/>
      <rect id="Rectángulo_6932" data-name="Rectángulo 6932" width="155.01" height="245.05" rx="46.05" transform="translate(317.17 207.03)" fill="gray" opacity="0.6"/>
      <rect id="Rectángulo_6933" data-name="Rectángulo 6933" width="155.01" height="245.05" rx="46.05" transform="translate(316.99 206.85)" fill="gray" opacity="0.61"/>
      <rect id="Rectángulo_6934" data-name="Rectángulo 6934" width="155.01" height="245.05" rx="46.05" transform="translate(316.8 206.68)" fill="gray" opacity="0.62"/>
      <rect id="Rectángulo_6935" data-name="Rectángulo 6935" width="155.01" height="245.05" rx="46.05" transform="translate(316.62 206.5)" fill="#7e7e7e" opacity="0.63"/>
      <rect id="Rectángulo_6936" data-name="Rectángulo 6936" width="155.01" height="245.05" rx="46.05" transform="translate(316.43 206.32)" fill="#7c7c7c" opacity="0.64"/>
      <rect id="Rectángulo_6937" data-name="Rectángulo 6937" width="155.01" height="245.05" rx="46.05" transform="translate(316.25 206.15)" fill="#7a7a7a" opacity="0.65"/>
      <rect id="Rectángulo_6938" data-name="Rectángulo 6938" width="155.01" height="245.05" rx="46.05" transform="translate(316.06 205.97)" fill="#787878" opacity="0.66"/>
      <rect id="Rectángulo_6939" data-name="Rectángulo 6939" width="155.01" height="245.05" rx="46.05" transform="translate(315.88 205.79)" fill="#767676" opacity="0.67"/>
      <rect id="Rectángulo_6940" data-name="Rectángulo 6940" width="155.01" height="245.05" rx="46.05" transform="translate(315.69 205.62)" fill="#747474" opacity="0.68"/>
      <rect id="Rectángulo_6941" data-name="Rectángulo 6941" width="155.01" height="245.05" rx="46.05" transform="translate(315.51 205.44)" fill="#727272" opacity="0.69"/>
      <rect id="Rectángulo_6942" data-name="Rectángulo 6942" width="155.01" height="245.05" rx="46.05" transform="translate(315.32 205.26)" fill="#707070" opacity="0.7"/>
      <rect id="Rectángulo_6943" data-name="Rectángulo 6943" width="155.01" height="245.05" rx="46.05" transform="translate(315.14 205.09)" fill="#6e6e6e" opacity="0.71"/>
      <rect id="Rectángulo_6944" data-name="Rectángulo 6944" width="155.01" height="245.05" rx="46.05" transform="translate(314.95 204.91)" fill="#6c6c6c" opacity="0.72"/>
      <rect id="Rectángulo_6945" data-name="Rectángulo 6945" width="155.01" height="245.05" rx="46.05" transform="translate(314.77 204.73)" fill="#6a6a6a" opacity="0.73"/>
      <rect id="Rectángulo_6946" data-name="Rectángulo 6946" width="155.01" height="245.05" rx="46.05" transform="translate(314.58 204.55)" fill="#686868" opacity="0.74"/>
      <rect id="Rectángulo_6947" data-name="Rectángulo 6947" width="155.01" height="245.05" rx="46.05" transform="translate(314.4 204.38)" fill="#656565" opacity="0.75"/>
      <rect id="Rectángulo_6948" data-name="Rectángulo 6948" width="155.01" height="245.05" rx="46.05" transform="translate(314.21 204.2)" fill="#636363" opacity="0.76"/>
      <rect id="Rectángulo_6949" data-name="Rectángulo 6949" width="155.01" height="245.05" rx="46.05" transform="translate(314.03 204.02)" fill="#616161" opacity="0.77"/>
      <rect id="Rectángulo_6950" data-name="Rectángulo 6950" width="155.01" height="245.05" rx="46.05" transform="translate(313.84 203.85)" fill="#5f5f5f" opacity="0.78"/>
      <rect id="Rectángulo_6951" data-name="Rectángulo 6951" width="155.01" height="245.05" rx="46.05" transform="translate(313.66 203.67)" fill="#5d5d5d" opacity="0.79"/>
      <rect id="Rectángulo_6952" data-name="Rectángulo 6952" width="155.01" height="245.05" rx="46.05" transform="translate(313.47 203.49)" fill="#5b5b5b" opacity="0.8"/>
      <rect id="Rectángulo_6953" data-name="Rectángulo 6953" width="155.01" height="245.05" rx="46.05" transform="translate(313.29 203.32)" fill="#595959" opacity="0.81"/>
      <rect id="Rectángulo_6954" data-name="Rectángulo 6954" width="155.01" height="245.05" rx="46.05" transform="translate(313.1 203.14)" fill="#575757" opacity="0.82"/>
      <rect id="Rectángulo_6955" data-name="Rectángulo 6955" width="155.01" height="245.05" rx="46.05" transform="translate(312.92 202.96)" fill="#555" opacity="0.83"/>
      <rect id="Rectángulo_6956" data-name="Rectángulo 6956" width="155.01" height="245.05" rx="46.05" transform="translate(312.73 202.78)" fill="#535353" opacity="0.84"/>
      <rect id="Rectángulo_6957" data-name="Rectángulo 6957" width="155.01" height="245.05" rx="46.05" transform="translate(312.55 202.61)" fill="#515151" opacity="0.85"/>
      <rect id="Rectángulo_6958" data-name="Rectángulo 6958" width="155.01" height="245.05" rx="46.05" transform="translate(312.36 202.43)" fill="#4f4f4f" opacity="0.86"/>
      <rect id="Rectángulo_6959" data-name="Rectángulo 6959" width="155.01" height="245.05" rx="46.05" transform="translate(312.18 202.25)" fill="#4d4d4d" opacity="0.87"/>
      <rect id="Rectángulo_6960" data-name="Rectángulo 6960" width="155.01" height="245.05" rx="46.05" transform="translate(311.99 202.08)" fill="#4b4b4b" opacity="0.88"/>
      <rect id="Rectángulo_6961" data-name="Rectángulo 6961" width="155.01" height="245.05" rx="46.05" transform="translate(311.81 201.9)" fill="#494949" opacity="0.89"/>
      <rect id="Rectángulo_6962" data-name="Rectángulo 6962" width="155.01" height="245.05" rx="46.05" transform="translate(311.62 201.72)" fill="#474747" opacity="0.9"/>
      <rect id="Rectángulo_6963" data-name="Rectángulo 6963" width="155.01" height="245.05" rx="46.05" transform="translate(311.44 201.55)" fill="#454545" opacity="0.91"/>
      <rect id="Rectángulo_6964" data-name="Rectángulo 6964" width="155.01" height="245.05" rx="46.05" transform="translate(311.25 201.37)" fill="#434343" opacity="0.92"/>
      <rect id="Rectángulo_6965" data-name="Rectángulo 6965" width="155.01" height="245.05" rx="46.05" transform="translate(311.07 201.19)" fill="#414141" opacity="0.93"/>
      <rect id="Rectángulo_6966" data-name="Rectángulo 6966" width="155.01" height="245.05" rx="46.05" transform="translate(310.88 201.01)" fill="#3f3f3f" opacity="0.94"/>
      <rect id="Rectángulo_6967" data-name="Rectángulo 6967" width="155.01" height="245.05" rx="46.05" transform="translate(310.7 200.84)" fill="#3d3d3d" opacity="0.95"/>
      <rect id="Rectángulo_6968" data-name="Rectángulo 6968" width="155.01" height="245.05" rx="46.05" transform="translate(310.51 200.66)" fill="#3b3b3b" opacity="0.96"/>
      <rect id="Rectángulo_6969" data-name="Rectángulo 6969" width="155.01" height="245.05" rx="46.05" transform="translate(310.33 200.48)" fill="#393939" opacity="0.97"/>
      <rect id="Rectángulo_6970" data-name="Rectángulo 6970" width="155.01" height="245.05" rx="46.05" transform="translate(310.14 200.31)" fill="#373737" opacity="0.98"/>
      <rect id="Rectángulo_6971" data-name="Rectángulo 6971" width="155.01" height="245.05" rx="46.05" transform="translate(309.96 200.13)" fill="#353535" opacity="0.99"/>
      <rect id="Rectángulo_6972" data-name="Rectángulo 6972" width="155.01" height="245.05" rx="46.05" transform="translate(309.77 199.95)" fill="#333"/>
    </g>
    <g id="Grupo_58681" data-name="Grupo 58681" transform="translate(187.8 5336.391)">
      <rect id="Rectángulo_6973" data-name="Rectángulo 6973" width="249.9" height="159.86" rx="51.4" transform="translate(467.2 197.52) rotate(90)" fill="url(#linear-gradient)"/>
      <rect id="Rectángulo_6974" data-name="Rectángulo 6974" width="245.05" height="155.01" rx="46.05" transform="translate(464.77 199.95) rotate(90)" fill="#ededed"/>
    </g>
    <g id="Grupo_58682" data-name="Grupo 58682" transform="translate(187.8 5336.391)">
      <rect id="Rectángulo_6975" data-name="Rectángulo 6975" width="1.71" height="1.71" transform="translate(385.56 465.21)" fill="#4d4d4d"/>
      <path id="Trazado_119718" data-name="Trazado 119718" d="M380.38,466.92h-3.45v-1.71h3.45Zm-8.64,0h-3.45v-1.71h3.45Zm-8.63,0h-3.46v-1.71h3.46Zm-8.64,0H351v-1.71h3.46Zm-8.64,0h-3.45v-1.71h3.45Zm-8.63,0h-3.46v-1.71h3.46Zm-8.64,0H325.1v-1.71h3.46Zm-8.64,0h-3.45v-1.71h3.45Zm-8.64,0h0a25.557,25.557,0,0,1-3.51-.25L308,465a22.146,22.146,0,0,0,3.26.24Zm-8.75-1.61a25.153,25.153,0,0,1-3.23-1.54l.84-1.49a23,23,0,0,0,3,1.43ZM295,460.62a24.173,24.173,0,0,1-2.46-2.6l1.33-1.08a22.76,22.76,0,0,0,2.29,2.42Zm-5.36-7.1a23.741,23.741,0,0,1-1.36-3.31l1.63-.53a21.639,21.639,0,0,0,1.26,3.08ZM287.17,445c-.06-.72-.1-1.46-.1-2.2v-1.33h1.72v1.33q0,1,.09,2Zm1.62-8.71h-1.72v-3.46h1.72Zm0-8.64h-1.72V424.2h1.72Zm0-8.64h-1.72v-3.45h1.72Zm0-8.63h-1.72v-3.46h1.72Zm0-8.64h-1.72v-3.46h1.72Zm0-8.64h-1.72v-3.45h1.72Zm0-8.64h-1.72V381h1.72Zm0-8.63h-1.72v-3.46h1.72Zm0-8.64h-1.72V363.7h1.72Zm0-8.63h-1.72V355.1h1.72Zm0-8.64h-1.72v-3.46h1.72Zm0-8.64h-1.72v-3.45h1.72Zm0-34.55h-1.72v-3.45h1.72Zm0-8.63h-1.72v-3.5h1.72Zm0-8.64h-1.72V286h1.72Zm0-8.64h-1.72v-3.45h1.72Zm0-8.63h-1.72v-3.46h1.72Zm0-8.64h-1.72V260.1h1.72Zm0-8.64h-1.72v-3.45h1.72Zm0-8.63h-1.72v-3.46h1.72Zm0-8.64h-1.72v-3.46h1.72Zm0-8.64h-1.72v-3.45h1.72Zm0-8.63h-1.72v-3.46h1.72Zm0-8.64h-1.72v-3.46h1.72Zm0-8.64h-1.72v-.83a24.335,24.335,0,0,1,.15-2.71l1.71.19a21.173,21.173,0,0,0-.14,2.52Zm1.21-8.22-1.62-.55a25.763,25.763,0,0,1,1.37-3.3l1.53.77a24.371,24.371,0,0,0-1.28,3.04Zm4-7.29-1.34-1.07a25.139,25.139,0,0,1,2.42-2.63l1.17,1.24a23.871,23.871,0,0,0-2.25,2.42Zm6.22-5.47-.88-1.47a23.367,23.367,0,0,1,3.2-1.61l.65,1.58a21.2,21.2,0,0,0-3,1.46Zm80.14-2.37H376.9v-1.71h3.46Zm-8.64-.09h-3.45v-1.71h3.46Zm-8.64-.09h-3.45v-1.71h3.45Zm-8.63-.09h-3.46v-1.71h3.46Zm-8.64-.1h-3.45v-1.71h3.45Zm-8.63-.09h-3.46v-1.72h3.45Zm-29.21,0-.27-1.69a22.378,22.378,0,0,1,3.56-.28v1.71a21.317,21.317,0,0,0-3.32.21Zm20.57-.08h-3.46v-1.72h3.46Zm-8.64-.09h-3.45V177.4h3.45Z" fill="#4d4d4d"/>
      <rect id="Rectángulo_6976" data-name="Rectángulo 6976" width="1.71" height="1.71" transform="translate(385.581 179.77) rotate(-89.38)" fill="#4d4d4d"/>
    </g>
    <path id="Trazado_119848" data-name="Trazado 119848" d="M8.842-5.546H3.779v3.428H9.721V0H1.143V-12.8H9.7v2.136H3.779v3.05H8.842ZM13.482-9.51l.079,1.063a3.342,3.342,0,0,1,2.733-1.239,2.536,2.536,0,0,1,2.522,1.45,3.265,3.265,0,0,1,2.856-1.45,2.836,2.836,0,0,1,2.3.9,4.141,4.141,0,0,1,.756,2.711V0H22.184V-6.064a1.811,1.811,0,0,0-.316-1.182,1.4,1.4,0,0,0-1.116-.374,1.585,1.585,0,0,0-1.582,1.09L19.178,0h-2.54V-6.056a1.789,1.789,0,0,0-.325-1.2,1.416,1.416,0,0,0-1.107-.369,1.646,1.646,0,0,0-1.564.9V0H11.1V-9.51ZM35.244-4.667a5.7,5.7,0,0,1-1,3.52A3.2,3.2,0,0,1,31.553.176a2.963,2.963,0,0,1-2.329-1V3.656h-2.54V-9.51h2.355l.088.932a2.985,2.985,0,0,1,2.408-1.107,3.22,3.22,0,0,1,2.733,1.3A5.858,5.858,0,0,1,35.244-4.8ZM32.7-4.852a3.743,3.743,0,0,0-.47-2.048,1.532,1.532,0,0,0-1.367-.721,1.663,1.663,0,0,0-1.644.914v3.894a1.692,1.692,0,0,0,1.661.94Q32.7-1.872,32.7-4.852Zm9.457-2.276a6.9,6.9,0,0,0-.914-.07,1.86,1.86,0,0,0-1.89.976V0h-2.54V-9.51h2.4l.07,1.134a2.354,2.354,0,0,1,2.118-1.31,2.662,2.662,0,0,1,.791.114ZM47.58.176a4.668,4.668,0,0,1-3.406-1.283A4.561,4.561,0,0,1,42.86-4.526v-.246a5.745,5.745,0,0,1,.554-2.562,4.064,4.064,0,0,1,1.569-1.74A4.4,4.4,0,0,1,47.3-9.686a3.947,3.947,0,0,1,3.072,1.23,5,5,0,0,1,1.121,3.489v1.037H45.435a2.36,2.36,0,0,0,.743,1.494,2.245,2.245,0,0,0,1.569.563,2.742,2.742,0,0,0,2.294-1.063l1.248,1.4A3.813,3.813,0,0,1,49.742-.277,5.075,5.075,0,0,1,47.58.176Zm-.29-7.813a1.587,1.587,0,0,0-1.226.512,2.651,2.651,0,0,0-.6,1.466h3.533v-.2a1.891,1.891,0,0,0-.457-1.311A1.638,1.638,0,0,0,47.29-7.638Zm10.793,5.01a.818.818,0,0,0-.461-.734,5.241,5.241,0,0,0-1.481-.479q-3.393-.712-3.393-2.883A2.613,2.613,0,0,1,53.8-8.837a4.237,4.237,0,0,1,2.747-.848,4.56,4.56,0,0,1,2.9.853,2.687,2.687,0,0,1,1.085,2.215h-2.54a1.229,1.229,0,0,0-.352-.9,1.488,1.488,0,0,0-1.1-.356,1.52,1.52,0,0,0-.993.29.916.916,0,0,0-.352.738.783.783,0,0,0,.4.681,4.114,4.114,0,0,0,1.349.448,11.019,11.019,0,0,1,1.6.426,2.628,2.628,0,0,1,2.013,2.558,2.481,2.481,0,0,1-1.116,2.1,4.815,4.815,0,0,1-2.883.8A5.029,5.029,0,0,1,54.431-.25a3.561,3.561,0,0,1-1.455-1.169,2.716,2.716,0,0,1-.527-1.6h2.408a1.326,1.326,0,0,0,.5,1.037,1.987,1.987,0,0,0,1.248.36,1.839,1.839,0,0,0,1.1-.277A.861.861,0,0,0,58.083-2.628ZM67.7,0a2.821,2.821,0,0,1-.255-.853,3.073,3.073,0,0,1-2.4,1.028,3.376,3.376,0,0,1-2.316-.809,2.6,2.6,0,0,1-.918-2.039,2.687,2.687,0,0,1,1.121-2.32,5.529,5.529,0,0,1,3.239-.817h1.169v-.545A1.567,1.567,0,0,0,67-7.409a1.331,1.331,0,0,0-1.068-.4,1.513,1.513,0,0,0-1.006.308,1.045,1.045,0,0,0-.365.844H62.02a2.551,2.551,0,0,1,.51-1.529,3.37,3.37,0,0,1,1.441-1.1,5.253,5.253,0,0,1,2.092-.4,4.15,4.15,0,0,1,2.791.883,3.09,3.09,0,0,1,1.033,2.483V-2.2a4.546,4.546,0,0,0,.378,2.048V0ZM65.6-1.767a2.188,2.188,0,0,0,1.037-.25,1.645,1.645,0,0,0,.7-.672V-4.324h-.949q-1.907,0-2.03,1.318l-.009.149a1.017,1.017,0,0,0,.334.782A1.3,1.3,0,0,0,65.6-1.767Z" transform="translate(540.88 5663.181)" fill="#12263f"/>
    <g id="Grupo_58731" data-name="Grupo 58731" transform="translate(187.8 5336.391)">
      <path id="Trazado_119747" data-name="Trazado 119747" d="M361.79,251.21l7.4-2.44,13.2-4.37.38-.12v6l17.92-6v6.52h12.05v20.92h-6.07v-14.9H391.74v14.89H361.79Zm26.95,5.61H367.9v8.89h20.84Z" fill="#8675c4"/>
      <path id="Trazado_119748" data-name="Trazado 119748" d="M394.73,271.71V259.8h9v11.91Z" fill="#8675c4"/>
      <path id="Trazado_119749" data-name="Trazado 119749" d="M385.41,232.9a10.175,10.175,0,0,1,4.24-7.34,9.23,9.23,0,0,1,5.18-1.62h6.27a.67.67,0,0,0,.64-.34,5.93,5.93,0,0,1,4.91-2.85,6.23,6.23,0,0,1,6.06,5.52,6,6,0,0,1-4.47,6.4,6.549,6.549,0,0,1-1.52.21H385.41Z" fill="#8675c4"/>
      <path id="Trazado_119750" data-name="Trazado 119750" d="M386.16,224a11.34,11.34,0,0,1-2.58,5.87,9,9,0,0,1-6.58,3c-3.1.07-6.2,0-9.3,0h-.19c.73-5.74,4.8-8.82,9.28-8.92,3-.07,6,0,9,0Z" fill="#8675c4"/>
      <path id="Trazado_119751" data-name="Trazado 119751" d="M369.38,245.57v-9.66h5.95v7.22a.54.54,0,0,1-.43.63c-1.69.54-3.36,1.11-5,1.67Z" fill="#8675c4"/>
      <path id="Trazado_119752" data-name="Trazado 119752" d="M387.28,245.56v-9.64h5.93v7.23a.54.54,0,0,1-.46.61c-1.67.54-3.33,1.1-5,1.66Z" fill="#8675c4"/>
      <path id="Trazado_119753" data-name="Trazado 119753" d="M373.8,262.73h-2.93v-2.92h2.93Z" fill="#8675c4"/>
      <path id="Trazado_119754" data-name="Trazado 119754" d="M376.85,259.79h2.92v2.93h-2.92Z" fill="#8675c4"/>
      <path id="Trazado_119755" data-name="Trazado 119755" d="M385.75,262.73h-2.93V259.8h2.93Z" fill="#8675c4"/>
    </g>
  </g>
</svg>
