<svg xmlns="http://www.w3.org/2000/svg" xmlns:xlink="http://www.w3.org/1999/xlink" width="224.45" height="289.64" viewBox="0 0 224.45 289.64">
  <defs>
    <linearGradient id="linear-gradient" x1="0.237" y1="-0.211" x2="0.766" y2="1.22" gradientUnits="objectBoundingBox">
      <stop offset="0" stop-color="#fff"/>
      <stop offset="1" stop-color="#d2d1d1"/>
    </linearGradient>
    <linearGradient id="linear-gradient-2" x1="0.136" y1="0.141" x2="0.889" y2="0.884" gradientUnits="objectBoundingBox">
      <stop offset="0" stop-color="#fff"/>
      <stop offset="0.4" stop-color="#fbfbfb"/>
      <stop offset="0.76" stop-color="#f1f1f1"/>
      <stop offset="1" stop-color="#e5e5e5"/>
    </linearGradient>
    <linearGradient id="linear-gradient-3" x1="0.115" y1="0.124" x2="0.894" y2="0.885" gradientUnits="objectBoundingBox">
      <stop offset="0" stop-color="#fff"/>
      <stop offset="0.34" stop-color="#fbfbfb"/>
      <stop offset="0.64" stop-color="#f1f1f1"/>
      <stop offset="0.92" stop-color="#dedede"/>
      <stop offset="1" stop-color="#d8d8d8"/>
    </linearGradient>
    <linearGradient id="linear-gradient-4" x1="0.119" y1="0.151" x2="0.873" y2="0.842" gradientUnits="objectBoundingBox">
      <stop offset="0" stop-color="#d8d8d8"/>
      <stop offset="0.08" stop-color="#dedede"/>
      <stop offset="0.36" stop-color="#f1f1f1"/>
      <stop offset="0.66" stop-color="#fbfbfb"/>
      <stop offset="1" stop-color="#fff"/>
    </linearGradient>
  </defs>
  <g id="card6" transform="translate(-250 -6159.26)">
    <path id="Trazado_119722" data-name="Trazado 119722" d="M162.4,1112.44h76a23.3,23.3,0,0,0,23.3-23.3V989.23l24.95-21.16L261.7,946.92V847a23.3,23.3,0,0,0-23.3-23.3h-76Z" transform="translate(187.8 5336.391)" fill="#472ea6"/>
    <g id="Grupo_58689" data-name="Grupo 58689" transform="translate(187.8 5336.391)" opacity="0.8">
      <rect id="Rectángulo_7083" data-name="Rectángulo 7083" width="155.01" height="245.05" rx="46.05" transform="translate(103.59 863.42)" fill="#fff" opacity="0"/>
      <rect id="Rectángulo_7084" data-name="Rectángulo 7084" width="155.01" height="245.05" rx="46.05" transform="translate(103.4 863.25)" fill="#f8f8f8" opacity="0.01"/>
      <rect id="Rectángulo_7085" data-name="Rectángulo 7085" width="155.01" height="245.05" rx="46.05" transform="translate(103.22 863.07)" fill="#f6f6f6" opacity="0.02"/>
      <rect id="Rectángulo_7086" data-name="Rectángulo 7086" width="155.01" height="245.05" rx="46.05" transform="translate(103.03 862.89)" fill="#f4f4f4" opacity="0.03"/>
      <rect id="Rectángulo_7087" data-name="Rectángulo 7087" width="155.01" height="245.05" rx="46.05" transform="translate(102.85 862.71)" fill="#f2f2f2" opacity="0.04"/>
      <rect id="Rectángulo_7088" data-name="Rectángulo 7088" width="155.01" height="245.05" rx="46.05" transform="translate(102.66 862.54)" fill="#f0f0f0" opacity="0.05"/>
      <rect id="Rectángulo_7089" data-name="Rectángulo 7089" width="155.01" height="245.05" rx="46.05" transform="translate(102.48 862.36)" fill="#eee" opacity="0.06"/>
      <rect id="Rectángulo_7090" data-name="Rectángulo 7090" width="155.01" height="245.05" rx="46.05" transform="translate(102.29 862.18)" fill="#ececec" opacity="0.07"/>
      <rect id="Rectángulo_7091" data-name="Rectángulo 7091" width="155.01" height="245.05" rx="46.05" transform="translate(102.11 862.01)" fill="#eaeaea" opacity="0.08"/>
      <rect id="Rectángulo_7092" data-name="Rectángulo 7092" width="155.01" height="245.05" rx="46.05" transform="translate(101.92 861.83)" fill="#e8e8e8" opacity="0.09"/>
      <rect id="Rectángulo_7093" data-name="Rectángulo 7093" width="155.01" height="245.05" rx="46.05" transform="translate(101.74 861.65)" fill="#e6e6e6" opacity="0.1"/>
      <rect id="Rectángulo_7094" data-name="Rectángulo 7094" width="155.01" height="245.05" rx="46.05" transform="translate(101.55 861.48)" fill="#e4e4e4" opacity="0.11"/>
      <rect id="Rectángulo_7095" data-name="Rectángulo 7095" width="155.01" height="245.05" rx="46.05" transform="translate(101.37 861.3)" fill="#e2e2e2" opacity="0.12"/>
      <rect id="Rectángulo_7096" data-name="Rectángulo 7096" width="155.01" height="245.05" rx="46.05" transform="translate(101.18 861.12)" fill="#e0e0e0" opacity="0.13"/>
      <rect id="Rectángulo_7097" data-name="Rectángulo 7097" width="155.01" height="245.05" rx="46.05" transform="translate(101 860.94)" fill="#dedede" opacity="0.14"/>
      <rect id="Rectángulo_7098" data-name="Rectángulo 7098" width="155.01" height="245.05" rx="46.05" transform="translate(100.81 860.77)" fill="#dcdcdc" opacity="0.15"/>
      <rect id="Rectángulo_7099" data-name="Rectángulo 7099" width="155.01" height="245.05" rx="46.05" transform="translate(100.63 860.59)" fill="#dadada" opacity="0.16"/>
      <rect id="Rectángulo_7100" data-name="Rectángulo 7100" width="155.01" height="245.05" rx="46.05" transform="translate(100.44 860.41)" fill="#d8d8d8" opacity="0.17"/>
      <rect id="Rectángulo_7101" data-name="Rectángulo 7101" width="155.01" height="245.05" rx="46.05" transform="translate(100.26 860.24)" fill="#d6d6d6" opacity="0.18"/>
      <rect id="Rectángulo_7102" data-name="Rectángulo 7102" width="155.01" height="245.05" rx="46.05" transform="translate(100.07 860.06)" fill="#d4d4d4" opacity="0.19"/>
      <rect id="Rectángulo_7103" data-name="Rectángulo 7103" width="155.01" height="245.05" rx="46.05" transform="translate(99.89 859.88)" fill="#d2d2d2" opacity="0.2"/>
      <rect id="Rectángulo_7104" data-name="Rectángulo 7104" width="155.01" height="245.05" rx="46.05" transform="translate(99.7 859.71)" fill="#d0d0d0" opacity="0.21"/>
      <rect id="Rectángulo_7105" data-name="Rectángulo 7105" width="155.01" height="245.05" rx="46.05" transform="translate(99.52 859.53)" fill="#cecece" opacity="0.22"/>
      <rect id="Rectángulo_7106" data-name="Rectángulo 7106" width="155.01" height="245.05" rx="46.05" transform="translate(99.33 859.35)" fill="#ccc" opacity="0.23"/>
      <rect id="Rectángulo_7107" data-name="Rectángulo 7107" width="155.01" height="245.05" rx="46.05" transform="translate(99.15 859.17)" fill="#cacaca" opacity="0.24"/>
      <rect id="Rectángulo_7108" data-name="Rectángulo 7108" width="155.01" height="245.05" rx="46.05" transform="translate(98.96 859)" fill="#c8c8c8" opacity="0.25"/>
      <rect id="Rectángulo_7109" data-name="Rectángulo 7109" width="155.01" height="245.05" rx="46.05" transform="translate(98.78 858.82)" fill="#c5c5c5" opacity="0.26"/>
      <rect id="Rectángulo_7110" data-name="Rectángulo 7110" width="155.01" height="245.05" rx="46.05" transform="translate(98.59 858.64)" fill="#c3c3c3" opacity="0.27"/>
      <rect id="Rectángulo_7111" data-name="Rectángulo 7111" width="155.01" height="245.05" rx="46.05" transform="translate(98.41 858.47)" fill="#c1c1c1" opacity="0.28"/>
      <rect id="Rectángulo_7112" data-name="Rectángulo 7112" width="155.01" height="245.05" rx="46.05" transform="translate(98.22 858.29)" fill="#bfbfbf" opacity="0.29"/>
      <rect id="Rectángulo_7113" data-name="Rectángulo 7113" width="155.01" height="245.05" rx="46.05" transform="translate(98.04 858.11)" fill="#bdbdbd" opacity="0.3"/>
      <rect id="Rectángulo_7114" data-name="Rectángulo 7114" width="155.01" height="245.05" rx="46.05" transform="translate(97.85 857.94)" fill="#bbb" opacity="0.31"/>
      <rect id="Rectángulo_7115" data-name="Rectángulo 7115" width="155.01" height="245.05" rx="46.05" transform="translate(97.67 857.76)" fill="#b9b9b9" opacity="0.32"/>
      <rect id="Rectángulo_7116" data-name="Rectángulo 7116" width="155.01" height="245.05" rx="46.05" transform="translate(97.48 857.58)" fill="#b7b7b7" opacity="0.33"/>
      <rect id="Rectángulo_7117" data-name="Rectángulo 7117" width="155.01" height="245.05" rx="46.05" transform="translate(97.3 857.4)" fill="#b5b5b5" opacity="0.34"/>
      <rect id="Rectángulo_7118" data-name="Rectángulo 7118" width="155.01" height="245.05" rx="46.05" transform="translate(97.11 857.23)" fill="#b3b3b3" opacity="0.35"/>
      <rect id="Rectángulo_7119" data-name="Rectángulo 7119" width="155.01" height="245.05" rx="46.05" transform="translate(96.93 857.05)" fill="#b1b1b1" opacity="0.36"/>
      <rect id="Rectángulo_7120" data-name="Rectángulo 7120" width="155.01" height="245.05" rx="46.05" transform="translate(96.74 856.87)" fill="#afafaf" opacity="0.37"/>
      <rect id="Rectángulo_7121" data-name="Rectángulo 7121" width="155.01" height="245.05" rx="46.05" transform="translate(96.56 856.7)" fill="#adadad" opacity="0.38"/>
      <rect id="Rectángulo_7122" data-name="Rectángulo 7122" width="155.01" height="245.05" rx="46.05" transform="translate(96.37 856.52)" fill="#ababab" opacity="0.39"/>
      <rect id="Rectángulo_7123" data-name="Rectángulo 7123" width="155.01" height="245.05" rx="46.05" transform="translate(96.19 856.34)" fill="#a9a9a9" opacity="0.4"/>
      <rect id="Rectángulo_7124" data-name="Rectángulo 7124" width="155.01" height="245.05" rx="46.05" transform="translate(96 856.17)" fill="#a7a7a7" opacity="0.41"/>
      <rect id="Rectángulo_7125" data-name="Rectángulo 7125" width="155.01" height="245.05" rx="46.05" transform="translate(95.82 855.99)" fill="#a5a5a5" opacity="0.42"/>
      <rect id="Rectángulo_7126" data-name="Rectángulo 7126" width="155.01" height="245.05" rx="46.05" transform="translate(95.63 855.81)" fill="#a3a3a3" opacity="0.43"/>
      <rect id="Rectángulo_7127" data-name="Rectángulo 7127" width="155.01" height="245.05" rx="46.05" transform="translate(95.45 855.64)" fill="#a1a1a1" opacity="0.44"/>
      <rect id="Rectángulo_7128" data-name="Rectángulo 7128" width="155.01" height="245.05" rx="46.05" transform="translate(95.26 855.46)" fill="#9f9f9f" opacity="0.45"/>
      <rect id="Rectángulo_7129" data-name="Rectángulo 7129" width="155.01" height="245.05" rx="46.05" transform="translate(95.08 855.28)" fill="#9d9d9d" opacity="0.46"/>
      <rect id="Rectángulo_7130" data-name="Rectángulo 7130" width="155.01" height="245.05" rx="46.05" transform="translate(94.89 855.1)" fill="#9b9b9b" opacity="0.47"/>
      <rect id="Rectángulo_7131" data-name="Rectángulo 7131" width="155.01" height="245.05" rx="46.05" transform="translate(94.7 854.93)" fill="#999" opacity="0.48"/>
      <rect id="Rectángulo_7132" data-name="Rectángulo 7132" width="155.01" height="245.05" rx="46.05" transform="translate(94.52 854.75)" fill="#979797" opacity="0.49"/>
      <rect id="Rectángulo_7133" data-name="Rectángulo 7133" width="155.01" height="245.05" rx="46.05" transform="translate(94.33 854.57)" fill="#959595" opacity="0.5"/>
      <rect id="Rectángulo_7134" data-name="Rectángulo 7134" width="155.01" height="245.05" rx="46.05" transform="translate(94.15 854.4)" fill="#939393" opacity="0.5"/>
      <rect id="Rectángulo_7135" data-name="Rectángulo 7135" width="155.01" height="245.05" rx="46.05" transform="translate(93.96 854.22)" fill="#919191" opacity="0.51"/>
      <rect id="Rectángulo_7136" data-name="Rectángulo 7136" width="155.01" height="245.05" rx="46.05" transform="translate(93.78 854.04)" fill="#8f8f8f" opacity="0.52"/>
      <rect id="Rectángulo_7137" data-name="Rectángulo 7137" width="155.01" height="245.05" rx="46.05" transform="translate(93.59 853.87)" fill="#8d8d8d" opacity="0.53"/>
      <rect id="Rectángulo_7138" data-name="Rectángulo 7138" width="155.01" height="245.05" rx="46.05" transform="translate(93.41 853.69)" fill="#8b8b8b" opacity="0.54"/>
      <rect id="Rectángulo_7139" data-name="Rectángulo 7139" width="155.01" height="245.05" rx="46.05" transform="translate(93.22 853.51)" fill="#898989" opacity="0.55"/>
      <rect id="Rectángulo_7140" data-name="Rectángulo 7140" width="155.01" height="245.05" rx="46.05" transform="translate(93.04 853.33)" fill="#878787" opacity="0.56"/>
      <rect id="Rectángulo_7141" data-name="Rectángulo 7141" width="155.01" height="245.05" rx="46.05" transform="translate(92.85 853.16)" fill="#858585" opacity="0.57"/>
      <rect id="Rectángulo_7142" data-name="Rectángulo 7142" width="155.01" height="245.05" rx="46.05" transform="translate(92.67 852.98)" fill="#838383" opacity="0.58"/>
      <rect id="Rectángulo_7143" data-name="Rectángulo 7143" width="155.01" height="245.05" rx="46.05" transform="translate(92.48 852.8)" fill="#818181" opacity="0.59"/>
      <rect id="Rectángulo_7144" data-name="Rectángulo 7144" width="155.01" height="245.05" rx="46.05" transform="translate(92.3 852.63)" fill="gray" opacity="0.6"/>
      <rect id="Rectángulo_7145" data-name="Rectángulo 7145" width="155.01" height="245.05" rx="46.05" transform="translate(92.11 852.45)" fill="gray" opacity="0.61"/>
      <rect id="Rectángulo_7146" data-name="Rectángulo 7146" width="155.01" height="245.05" rx="46.05" transform="translate(91.93 852.27)" fill="gray" opacity="0.62"/>
      <rect id="Rectángulo_7147" data-name="Rectángulo 7147" width="155.01" height="245.05" rx="46.05" transform="translate(91.74 852.1)" fill="#7e7e7e" opacity="0.63"/>
      <rect id="Rectángulo_7148" data-name="Rectángulo 7148" width="155.01" height="245.05" rx="46.05" transform="translate(91.56 851.92)" fill="#7c7c7c" opacity="0.64"/>
      <rect id="Rectángulo_7149" data-name="Rectángulo 7149" width="155.01" height="245.05" rx="46.05" transform="translate(91.37 851.74)" fill="#7a7a7a" opacity="0.65"/>
      <rect id="Rectángulo_7150" data-name="Rectángulo 7150" width="155.01" height="245.05" rx="46.05" transform="translate(91.19 851.56)" fill="#787878" opacity="0.66"/>
      <rect id="Rectángulo_7151" data-name="Rectángulo 7151" width="155.01" height="245.05" rx="46.05" transform="translate(91 851.39)" fill="#767676" opacity="0.67"/>
      <rect id="Rectángulo_7152" data-name="Rectángulo 7152" width="155.01" height="245.05" rx="46.05" transform="translate(90.82 851.21)" fill="#747474" opacity="0.68"/>
      <rect id="Rectángulo_7153" data-name="Rectángulo 7153" width="155.01" height="245.05" rx="46.05" transform="translate(90.63 851.03)" fill="#727272" opacity="0.69"/>
      <rect id="Rectángulo_7154" data-name="Rectángulo 7154" width="155.01" height="245.05" rx="46.05" transform="translate(90.45 850.86)" fill="#707070" opacity="0.7"/>
      <rect id="Rectángulo_7155" data-name="Rectángulo 7155" width="155.01" height="245.05" rx="46.05" transform="translate(90.26 850.68)" fill="#6e6e6e" opacity="0.71"/>
      <rect id="Rectángulo_7156" data-name="Rectángulo 7156" width="155.01" height="245.05" rx="46.05" transform="translate(90.08 850.5)" fill="#6c6c6c" opacity="0.72"/>
      <rect id="Rectángulo_7157" data-name="Rectángulo 7157" width="155.01" height="245.05" rx="46.05" transform="translate(89.89 850.33)" fill="#6a6a6a" opacity="0.73"/>
      <rect id="Rectángulo_7158" data-name="Rectángulo 7158" width="155.01" height="245.05" rx="46.05" transform="translate(89.71 850.15)" fill="#686868" opacity="0.74"/>
      <rect id="Rectángulo_7159" data-name="Rectángulo 7159" width="155.01" height="245.05" rx="46.05" transform="translate(89.52 849.97)" fill="#656565" opacity="0.75"/>
      <rect id="Rectángulo_7160" data-name="Rectángulo 7160" width="155.01" height="245.05" rx="46.05" transform="translate(89.34 849.8)" fill="#636363" opacity="0.76"/>
      <rect id="Rectángulo_7161" data-name="Rectángulo 7161" width="155.01" height="245.05" rx="46.05" transform="translate(89.15 849.62)" fill="#616161" opacity="0.77"/>
      <rect id="Rectángulo_7162" data-name="Rectángulo 7162" width="155.01" height="245.05" rx="46.05" transform="translate(88.97 849.44)" fill="#5f5f5f" opacity="0.78"/>
      <rect id="Rectángulo_7163" data-name="Rectángulo 7163" width="155.01" height="245.05" rx="46.05" transform="translate(88.78 849.26)" fill="#5d5d5d" opacity="0.79"/>
      <rect id="Rectángulo_7164" data-name="Rectángulo 7164" width="155.01" height="245.05" rx="46.05" transform="translate(88.6 849.09)" fill="#5b5b5b" opacity="0.8"/>
      <rect id="Rectángulo_7165" data-name="Rectángulo 7165" width="155.01" height="245.05" rx="46.05" transform="translate(88.41 848.91)" fill="#595959" opacity="0.81"/>
      <rect id="Rectángulo_7166" data-name="Rectángulo 7166" width="155.01" height="245.05" rx="46.05" transform="translate(88.23 848.73)" fill="#575757" opacity="0.82"/>
      <rect id="Rectángulo_7167" data-name="Rectángulo 7167" width="155.01" height="245.05" rx="46.05" transform="translate(88.04 848.56)" fill="#555" opacity="0.83"/>
      <rect id="Rectángulo_7168" data-name="Rectángulo 7168" width="155.01" height="245.05" rx="46.05" transform="translate(87.86 848.38)" fill="#535353" opacity="0.84"/>
      <rect id="Rectángulo_7169" data-name="Rectángulo 7169" width="155.01" height="245.05" rx="46.05" transform="translate(87.67 848.2)" fill="#515151" opacity="0.85"/>
      <rect id="Rectángulo_7170" data-name="Rectángulo 7170" width="155.01" height="245.05" rx="46.05" transform="translate(87.49 848.03)" fill="#4f4f4f" opacity="0.86"/>
      <rect id="Rectángulo_7171" data-name="Rectángulo 7171" width="155.01" height="245.05" rx="46.05" transform="translate(87.3 847.85)" fill="#4d4d4d" opacity="0.87"/>
      <rect id="Rectángulo_7172" data-name="Rectángulo 7172" width="155.01" height="245.05" rx="46.05" transform="translate(87.12 847.67)" fill="#4b4b4b" opacity="0.88"/>
      <rect id="Rectángulo_7173" data-name="Rectángulo 7173" width="155.01" height="245.05" rx="46.05" transform="translate(86.93 847.49)" fill="#494949" opacity="0.89"/>
      <rect id="Rectángulo_7174" data-name="Rectángulo 7174" width="155.01" height="245.05" rx="46.05" transform="translate(86.75 847.32)" fill="#474747" opacity="0.9"/>
      <rect id="Rectángulo_7175" data-name="Rectángulo 7175" width="155.01" height="245.05" rx="46.05" transform="translate(86.56 847.14)" fill="#454545" opacity="0.91"/>
      <rect id="Rectángulo_7176" data-name="Rectángulo 7176" width="155.01" height="245.05" rx="46.05" transform="translate(86.38 846.96)" fill="#434343" opacity="0.92"/>
      <rect id="Rectángulo_7177" data-name="Rectángulo 7177" width="155.01" height="245.05" rx="46.05" transform="translate(86.19 846.79)" fill="#414141" opacity="0.93"/>
      <rect id="Rectángulo_7178" data-name="Rectángulo 7178" width="155.01" height="245.05" rx="46.05" transform="translate(86.01 846.61)" fill="#3f3f3f" opacity="0.94"/>
      <rect id="Rectángulo_7179" data-name="Rectángulo 7179" width="155.01" height="245.05" rx="46.05" transform="translate(85.82 846.43)" fill="#3d3d3d" opacity="0.95"/>
      <rect id="Rectángulo_7180" data-name="Rectángulo 7180" width="155.01" height="245.05" rx="46.05" transform="translate(85.64 846.26)" fill="#3b3b3b" opacity="0.96"/>
      <rect id="Rectángulo_7181" data-name="Rectángulo 7181" width="155.01" height="245.05" rx="46.05" transform="translate(85.45 846.08)" fill="#393939" opacity="0.97"/>
      <rect id="Rectángulo_7182" data-name="Rectángulo 7182" width="155.01" height="245.05" rx="46.05" transform="translate(85.27 845.9)" fill="#373737" opacity="0.98"/>
      <rect id="Rectángulo_7183" data-name="Rectángulo 7183" width="155.01" height="245.05" rx="46.05" transform="translate(85.08 845.72)" fill="#353535" opacity="0.99"/>
      <rect id="Rectángulo_7184" data-name="Rectángulo 7184" width="155.01" height="245.05" rx="46.05" transform="translate(84.9 845.55)" fill="#333"/>
    </g>
    <g id="Grupo_58690" data-name="Grupo 58690" transform="translate(187.8 5336.391)">
      <rect id="Rectángulo_7185" data-name="Rectángulo 7185" width="249.9" height="159.86" rx="51.4" transform="translate(242.33 843.12) rotate(90)" fill="url(#linear-gradient)"/>
      <rect id="Rectángulo_7186" data-name="Rectángulo 7186" width="245.05" height="155.01" rx="46.05" transform="translate(239.9 845.54) rotate(90)" fill="#ededed"/>
    </g>
    <g id="Grupo_58691" data-name="Grupo 58691" transform="translate(187.8 5336.391)">
      <rect id="Rectángulo_7187" data-name="Rectángulo 7187" width="1.71" height="1.71" transform="translate(160.69 1110.8)" fill="#4d4d4d"/>
      <path id="Trazado_119723" data-name="Trazado 119723" d="M155.5,1112.51h-3.45v-1.71h3.45Zm-8.63,0h-3.46v-1.71h3.46Zm-8.64,0h-3.45v-1.71h3.45Zm-8.64,0h-3.45v-1.71h3.45Zm-8.63,0H117.5v-1.71H121Zm-8.64,0h-3.45v-1.71h3.45Zm-8.64,0h-3.45v-1.71h3.45Zm-8.63,0H91.59v-1.71h3.46Zm-8.64,0h-.06a24.279,24.279,0,0,1-3.51-.25l.25-1.7a22.142,22.142,0,0,0,3.26.24Zm-8.75-1.61a25.249,25.249,0,0,1-3.24-1.53l.85-1.49a23.492,23.492,0,0,0,3,1.42Zm-7.57-4.69a24.091,24.091,0,0,1-2.46-2.59l1.33-1.08a22.5,22.5,0,0,0,2.28,2.41Zm-5.37-7.09a23.808,23.808,0,0,1-1.35-3.32l1.63-.52a22.707,22.707,0,0,0,1.25,3.07Zm-2.42-8.57c-.07-.72-.1-1.45-.1-2.19V1087h1.71v1.34q0,1,.09,2Zm1.61-8.71H62.2v-3.45h1.71Zm0-8.64H62.2v-3.45h1.71Zm0-8.63H62.2v-3.46h1.71Zm0-8.64H62.2v-3.45h1.71Zm0-8.64H62.2v-3.45h1.71Zm0-8.63H62.2v-3.46h1.71Zm0-8.64H62.2v-3.45h1.71Zm0-8.64H62.2v-3.45h1.71Zm0-8.63H62.2v-3.46h1.71Zm0-8.64H62.2v-3.45h1.71Zm0-8.64H62.2V992h1.71Zm0-8.63H62.2v-3.46h1.71Zm0-8.64H62.2v-3.46h1.71Zm0-8.64H62.2v-3.45h1.71Zm0-8.63H62.2v-3.46h1.71Zm0-8.64H62.2v-3.46h1.71Zm0-8.64H62.2V940.2h1.71Zm0-8.64H62.2v-3.45h1.71Zm0-8.63H62.2v-3.46h1.71Zm0-8.64H62.2v-3.45h1.71Zm0-8.63H62.2v-3.46h1.71Zm0-8.64H62.2V897h1.71Zm0-8.64H62.2v-3.45h1.71Zm0-8.64H62.2v-3.45h1.71Zm0-8.63H62.2V871.1h1.71Zm0-8.64H62.2v-3.45h1.71Zm0-8.64H62.2v-3.45h1.71Zm0-8.63H62.2v-.84a24.6,24.6,0,0,1,.15-2.707l1.7.187a23.5,23.5,0,0,0-.14,2.52Zm1.22-8.23-1.63-.55a24.882,24.882,0,0,1,1.38-3.29l1.53.76a23.007,23.007,0,0,0-1.28,3.08Zm4-7.29-1.33-1.06a24.081,24.081,0,0,1,2.41-2.63l1.18,1.24a25.005,25.005,0,0,0-2.3,2.45Zm6.23-5.47-.88-1.47a25.755,25.755,0,0,1,3.19-1.61l.65,1.59a22.774,22.774,0,0,0-3,1.49Zm80.13-2.37h-3.45v-1.71h3.45Zm-8.63-.09H143.4v-1.72h3.45Zm-8.64-.09h-3.45v-1.72h3.46Zm-8.64-.09h-3.45v-1.71h3.45Zm-8.63-.09h-3.46v-1.71h3.46Zm-8.64-.09h-3.45v-1.71h3.46Zm-29.2,0-.27-1.69a23.493,23.493,0,0,1,3.55-.28v1.71a21.188,21.188,0,0,0-3.32.24Zm20.56-.07h-3.45v-1.71h3.45Zm-8.63-.1H91.58v-1.71h3.46Z" fill="#4d4d4d"/>
      <rect id="Rectángulo_7188" data-name="Rectángulo 7188" width="1.71" height="1.71" transform="translate(160.689 825.401) rotate(-89.38)" fill="#4d4d4d"/>
    </g>
    <g id="Grupo" transform="translate(187.8 5336.391)">
      <path id="Trazado_119876" data-name="Trazado 119876" d="M11.188-4.263A4.528,4.528,0,0,1,9.664-1.011,5.355,5.355,0,0,1,6.038.176,4.816,4.816,0,0,1,2.167-1.481,6.793,6.793,0,0,1,.756-6.029v-.782a7.671,7.671,0,0,1,.65-3.252,4.874,4.874,0,0,1,1.859-2.158,5.207,5.207,0,0,1,2.808-.751,5.217,5.217,0,0,1,3.568,1.187,4.866,4.866,0,0,1,1.564,3.331H8.569a2.673,2.673,0,0,0-.69-1.8,2.555,2.555,0,0,0-1.806-.558A2.24,2.24,0,0,0,4.1-9.866a5.3,5.3,0,0,0-.672,2.931v.967a5.667,5.667,0,0,0,.628,3.032,2.2,2.2,0,0,0,1.982.958,2.6,2.6,0,0,0,1.824-.558,2.521,2.521,0,0,0,.69-1.727ZM18.264,0a2.821,2.821,0,0,1-.255-.853,3.073,3.073,0,0,1-2.4,1.028,3.376,3.376,0,0,1-2.316-.809,2.6,2.6,0,0,1-.918-2.039A2.687,2.687,0,0,1,13.5-4.992a5.529,5.529,0,0,1,3.239-.817H17.9v-.545a1.567,1.567,0,0,0-.338-1.055A1.331,1.331,0,0,0,16.5-7.8a1.513,1.513,0,0,0-1.006.308,1.045,1.045,0,0,0-.365.844h-2.54a2.551,2.551,0,0,1,.51-1.529,3.37,3.37,0,0,1,1.441-1.1,5.253,5.253,0,0,1,2.092-.4,4.15,4.15,0,0,1,2.791.883,3.09,3.09,0,0,1,1.033,2.483V-2.2A4.546,4.546,0,0,0,20.83-.149V0Zm-2.1-1.767a2.188,2.188,0,0,0,1.037-.25,1.645,1.645,0,0,0,.7-.672V-4.324h-.949q-1.907,0-2.03,1.318l-.009.149a1.017,1.017,0,0,0,.334.782A1.3,1.3,0,0,0,16.163-1.767ZM24.741-9.51l.079,1.1a3.32,3.32,0,0,1,2.733-1.274A2.759,2.759,0,0,1,29.8-8.8a4.142,4.142,0,0,1,.756,2.654V0H28.02V-6.082a1.648,1.648,0,0,0-.352-1.173A1.574,1.574,0,0,0,26.5-7.62a1.747,1.747,0,0,0-1.608.914V0h-2.54V-9.51ZM38,0a2.821,2.821,0,0,1-.255-.853,3.073,3.073,0,0,1-2.4,1.028,3.376,3.376,0,0,1-2.316-.809,2.6,2.6,0,0,1-.918-2.039,2.687,2.687,0,0,1,1.121-2.32,5.529,5.529,0,0,1,3.239-.817h1.169v-.545A1.567,1.567,0,0,0,37.3-7.409a1.331,1.331,0,0,0-1.068-.4,1.513,1.513,0,0,0-1.006.308,1.045,1.045,0,0,0-.365.844h-2.54a2.551,2.551,0,0,1,.51-1.529,3.37,3.37,0,0,1,1.441-1.1,5.253,5.253,0,0,1,2.092-.4,4.15,4.15,0,0,1,2.791.883,3.09,3.09,0,0,1,1.033,2.483V-2.2a4.546,4.546,0,0,0,.378,2.048V0Zm-2.1-1.767a2.188,2.188,0,0,0,1.037-.25,1.645,1.645,0,0,0,.7-.672V-4.324h-.949q-1.907,0-2.03,1.318l-.009.149a1.017,1.017,0,0,0,.334.782A1.3,1.3,0,0,0,35.895-1.767ZM44.815,0H42.267V-13.5h2.549Zm6.179-4.825a5.731,5.731,0,0,1,1-3.542,3.237,3.237,0,0,1,2.729-1.318,2.913,2.913,0,0,1,2.294,1.037V-13.5h2.549V0H57.27l-.123-1.011A2.989,2.989,0,0,1,54.7.176a3.228,3.228,0,0,1-2.694-1.323A5.916,5.916,0,0,1,50.994-4.825Zm2.54.189A3.754,3.754,0,0,0,54-2.585a1.517,1.517,0,0,0,1.354.713,1.7,1.7,0,0,0,1.661-.995V-6.625a1.675,1.675,0,0,0-1.644-.995Q53.534-7.62,53.534-4.636ZM65.909.176A4.668,4.668,0,0,1,62.5-1.107a4.561,4.561,0,0,1-1.314-3.419v-.246a5.745,5.745,0,0,1,.554-2.562,4.064,4.064,0,0,1,1.569-1.74,4.4,4.4,0,0,1,2.316-.611A3.947,3.947,0,0,1,68.7-8.455,5,5,0,0,1,69.82-4.966v1.037H63.765a2.36,2.36,0,0,0,.743,1.494,2.245,2.245,0,0,0,1.569.563A2.742,2.742,0,0,0,68.37-2.936l1.248,1.4A3.813,3.813,0,0,1,68.071-.277,5.075,5.075,0,0,1,65.909.176Zm-.29-7.813a1.587,1.587,0,0,0-1.226.512,2.651,2.651,0,0,0-.6,1.466h3.533v-.2a1.891,1.891,0,0,0-.457-1.311A1.638,1.638,0,0,0,65.619-7.638Z" transform="translate(125.53 960.91)" fill="#12263f"/>
      <path id="Trazado_119875" data-name="Trazado 119875" d="M.58-4.825a5.731,5.731,0,0,1,1-3.542A3.237,3.237,0,0,1,4.307-9.686,2.913,2.913,0,0,1,6.6-8.648V-13.5H9.149V0H6.855L6.732-1.011A2.989,2.989,0,0,1,4.289.176,3.228,3.228,0,0,1,1.6-1.147,5.916,5.916,0,0,1,.58-4.825Zm2.54.189a3.754,3.754,0,0,0,.466,2.051,1.517,1.517,0,0,0,1.354.713A1.7,1.7,0,0,0,6.6-2.867V-6.625A1.675,1.675,0,0,0,4.957-7.62Q3.12-7.62,3.12-4.636ZM13.8,0H11.25V-9.51H13.8ZM11.1-11.971a1.251,1.251,0,0,1,.382-.94,1.436,1.436,0,0,1,1.042-.369,1.44,1.44,0,0,1,1.037.369,1.244,1.244,0,0,1,.387.94,1.247,1.247,0,0,1-.391.949,1.443,1.443,0,0,1-1.033.369,1.443,1.443,0,0,1-1.033-.369A1.247,1.247,0,0,1,11.1-11.971Zm9.94,9.343a.818.818,0,0,0-.461-.734A5.241,5.241,0,0,0,19.1-3.841q-3.393-.712-3.393-2.883a2.613,2.613,0,0,1,1.05-2.114A4.237,4.237,0,0,1,19.5-9.686a4.56,4.56,0,0,1,2.9.853,2.687,2.687,0,0,1,1.085,2.215h-2.54a1.229,1.229,0,0,0-.352-.9,1.488,1.488,0,0,0-1.1-.356,1.52,1.52,0,0,0-.993.29.916.916,0,0,0-.352.738.783.783,0,0,0,.4.681,4.114,4.114,0,0,0,1.349.448,11.019,11.019,0,0,1,1.6.426,2.628,2.628,0,0,1,2.013,2.558,2.481,2.481,0,0,1-1.116,2.1,4.815,4.815,0,0,1-2.883.8A5.029,5.029,0,0,1,17.389-.25a3.561,3.561,0,0,1-1.455-1.169,2.716,2.716,0,0,1-.527-1.6h2.408a1.326,1.326,0,0,0,.5,1.037,1.987,1.987,0,0,0,1.248.36,1.839,1.839,0,0,0,1.1-.277A.861.861,0,0,0,21.041-2.628Zm7.146-9.22V-9.51h1.626v1.863H28.187V-2.9a1.133,1.133,0,0,0,.2.756,1.015,1.015,0,0,0,.773.229,4.051,4.051,0,0,0,.747-.062V-.053a5.229,5.229,0,0,1-1.538.229,2.425,2.425,0,0,1-2.725-2.7V-7.646H24.258V-9.51h1.389v-2.338Zm8.385,4.72a6.9,6.9,0,0,0-.914-.07,1.86,1.86,0,0,0-1.89.976V0h-2.54V-9.51h2.4l.07,1.134a2.354,2.354,0,0,1,2.118-1.31,2.662,2.662,0,0,1,.791.114ZM40.474,0H37.925V-9.51h2.549Zm-2.7-11.971a1.251,1.251,0,0,1,.382-.94A1.436,1.436,0,0,1,39.2-13.28a1.44,1.44,0,0,1,1.037.369,1.244,1.244,0,0,1,.387.94,1.247,1.247,0,0,1-.391.949,1.443,1.443,0,0,1-1.033.369,1.443,1.443,0,0,1-1.033-.369A1.247,1.247,0,0,1,37.775-11.971Zm13.359,7.3A5.758,5.758,0,0,1,50.159-1.1,3.231,3.231,0,0,1,47.435.176a2.969,2.969,0,0,1-2.47-1.187L44.851,0H42.565V-13.5h2.54v4.843a2.893,2.893,0,0,1,2.312-1.028,3.258,3.258,0,0,1,2.729,1.279,5.767,5.767,0,0,1,.989,3.6Zm-2.54-.185a3.783,3.783,0,0,0-.457-2.1,1.545,1.545,0,0,0-1.362-.664,1.676,1.676,0,0,0-1.67.993v3.753a1.7,1.7,0,0,0,1.688,1A1.568,1.568,0,0,0,48.41-3.085,6.257,6.257,0,0,0,48.595-4.852Zm9.8,3.885a3.185,3.185,0,0,1-2.6,1.143A3,3,0,0,1,53.459-.7a3.752,3.752,0,0,1-.822-2.575V-9.51h2.54v6.151q0,1.487,1.354,1.487a1.834,1.834,0,0,0,1.775-.9V-9.51h2.549V0H58.465Zm8.332-.905a1.666,1.666,0,0,0,1.143-.387,1.355,1.355,0,0,0,.457-1.028h2.382a3.258,3.258,0,0,1-.527,1.771A3.48,3.48,0,0,1,68.761-.268a4.442,4.442,0,0,1-1.991.444,4.129,4.129,0,0,1-3.217-1.3A5.13,5.13,0,0,1,62.376-4.7v-.167a5.071,5.071,0,0,1,1.169-3.507,4.08,4.08,0,0,1,3.208-1.31A4,4,0,0,1,69.614-8.67a3.594,3.594,0,0,1,1.094,2.7H68.326a1.745,1.745,0,0,0-.457-1.206,1.524,1.524,0,0,0-1.16-.464,1.53,1.53,0,0,0-1.34.647,3.749,3.749,0,0,0-.453,2.1v.264a3.8,3.8,0,0,0,.448,2.113A1.549,1.549,0,0,0,66.727-1.872ZM74.839,0H72.29V-9.51h2.549Zm-2.7-11.971a1.251,1.251,0,0,1,.382-.94,1.436,1.436,0,0,1,1.042-.369,1.44,1.44,0,0,1,1.037.369,1.244,1.244,0,0,1,.387.94,1.247,1.247,0,0,1-.391.949,1.443,1.443,0,0,1-1.033.369,1.443,1.443,0,0,1-1.033-.369A1.247,1.247,0,0,1,72.141-11.971Zm4.395,7.128a5.64,5.64,0,0,1,.545-2.522,3.989,3.989,0,0,1,1.569-1.714,4.577,4.577,0,0,1,2.377-.606,4.33,4.33,0,0,1,3.142,1.178,4.727,4.727,0,0,1,1.358,3.2l.018.65a4.97,4.97,0,0,1-1.222,3.511A4.247,4.247,0,0,1,81.044.176a4.268,4.268,0,0,1-3.283-1.318,5.058,5.058,0,0,1-1.226-3.586Zm2.54.18a3.555,3.555,0,0,0,.51,2.073,1.682,1.682,0,0,0,1.459.717,1.686,1.686,0,0,0,1.441-.709A3.89,3.89,0,0,0,83-4.847a3.519,3.519,0,0,0-.519-2.06,1.686,1.686,0,0,0-1.459-.731,1.658,1.658,0,0,0-1.441.726A3.955,3.955,0,0,0,79.075-4.662ZM81.527-13.5H84.3l-2.435,2.725H79.8Zm7.919,3.99.079,1.1a3.32,3.32,0,0,1,2.733-1.274,2.759,2.759,0,0,1,2.25.888,4.142,4.142,0,0,1,.756,2.654V0h-2.54V-6.082a1.648,1.648,0,0,0-.352-1.173A1.574,1.574,0,0,0,91.2-7.62a1.747,1.747,0,0,0-1.608.914V0h-2.54V-9.51Z" transform="translate(112.57 982.51)" fill="#12263f"/>
      <path id="Trazado_119874" data-name="Trazado 119874" d="M4.931-1.872a1.666,1.666,0,0,0,1.143-.387A1.355,1.355,0,0,0,6.53-3.287H8.912a3.258,3.258,0,0,1-.527,1.771A3.48,3.48,0,0,1,6.965-.268,4.442,4.442,0,0,1,4.975.176a4.129,4.129,0,0,1-3.217-1.3A5.13,5.13,0,0,1,.58-4.7v-.167A5.071,5.071,0,0,1,1.749-8.376a4.08,4.08,0,0,1,3.208-1.31A4,4,0,0,1,7.818-8.67a3.594,3.594,0,0,1,1.094,2.7H6.53a1.745,1.745,0,0,0-.457-1.206,1.524,1.524,0,0,0-1.16-.464,1.53,1.53,0,0,0-1.34.647,3.749,3.749,0,0,0-.453,2.1v.264a3.8,3.8,0,0,0,.448,2.113A1.549,1.549,0,0,0,4.931-1.872ZM9.967-4.843a5.64,5.64,0,0,1,.545-2.522,3.989,3.989,0,0,1,1.569-1.714,4.577,4.577,0,0,1,2.377-.606A4.33,4.33,0,0,1,17.6-8.508a4.727,4.727,0,0,1,1.358,3.2l.018.65a4.97,4.97,0,0,1-1.222,3.511A4.247,4.247,0,0,1,14.476.176a4.268,4.268,0,0,1-3.283-1.318A5.058,5.058,0,0,1,9.967-4.729Zm2.54.18a3.555,3.555,0,0,0,.51,2.073,1.682,1.682,0,0,0,1.459.717,1.686,1.686,0,0,0,1.441-.709,3.89,3.89,0,0,0,.519-2.267,3.519,3.519,0,0,0-.519-2.06,1.686,1.686,0,0,0-1.459-.731,1.658,1.658,0,0,0-1.441.726A3.955,3.955,0,0,0,12.507-4.662Z" transform="translate(136.85 1004.11)" fill="#12263f"/>
      <path id="Trazado_119873" data-name="Trazado 119873" d="M6.319-7.128a6.9,6.9,0,0,0-.914-.07,1.86,1.86,0,0,0-1.89.976V0H.976V-9.51h2.4l.07,1.134a2.354,2.354,0,0,1,2.118-1.31,2.662,2.662,0,0,1,.791.114Z" transform="translate(156.41 1004.11)" fill="#12263f"/>
      <path id="Trazado_119872" data-name="Trazado 119872" d="M4.017-11.848V-9.51H5.643v1.863H4.017V-2.9a1.133,1.133,0,0,0,.2.756,1.015,1.015,0,0,0,.773.229,4.051,4.051,0,0,0,.747-.062V-.053A5.229,5.229,0,0,1,4.2.176a2.425,2.425,0,0,1-2.725-2.7V-7.646H.088V-9.51H1.477v-2.338Z" transform="translate(163.42 1004.11)" fill="#12263f"/>
      <path id="Trazado_119877" data-name="Trazado 119877" d="M.58-4.843a5.64,5.64,0,0,1,.545-2.522A3.989,3.989,0,0,1,2.694-9.079a4.577,4.577,0,0,1,2.377-.606A4.33,4.33,0,0,1,8.213-8.508a4.727,4.727,0,0,1,1.358,3.2l.018.65A4.97,4.97,0,0,1,8.367-1.147,4.247,4.247,0,0,1,5.089.176,4.268,4.268,0,0,1,1.806-1.143,5.058,5.058,0,0,1,.58-4.729Zm2.54.18a3.555,3.555,0,0,0,.51,2.073,1.682,1.682,0,0,0,1.459.717A1.686,1.686,0,0,0,6.53-2.581a3.89,3.89,0,0,0,.519-2.267,3.519,3.519,0,0,0-.519-2.06,1.686,1.686,0,0,0-1.459-.731,1.658,1.658,0,0,0-1.441.726A3.955,3.955,0,0,0,3.12-4.662Zm8.156,3.414a1.279,1.279,0,0,1,.409-.984,1.45,1.45,0,0,1,1.024-.378,1.462,1.462,0,0,1,1.033.378,1.279,1.279,0,0,1,.409.984,1.261,1.261,0,0,1-.4.971A1.468,1.468,0,0,1,12.709.1a1.456,1.456,0,0,1-1.028-.374A1.261,1.261,0,0,1,11.276-1.248Zm0-7.2a1.279,1.279,0,0,1,.409-.984,1.45,1.45,0,0,1,1.024-.378,1.462,1.462,0,0,1,1.033.378,1.279,1.279,0,0,1,.409.984,1.261,1.261,0,0,1-.4.971,1.468,1.468,0,0,1-1.037.374,1.456,1.456,0,0,1-1.028-.374A1.261,1.261,0,0,1,11.276-8.446Z" transform="translate(169.24 1004.11)" fill="#12263f"/>
    </g>
    <g id="Grupo_58703" data-name="Grupo 58703" transform="translate(187.8 5336.391)">
      <g id="Grupo_58702" data-name="Grupo 58702">
        <circle id="Elipse_4701" data-name="Elipse 4701" cx="31.67" cy="31.67" r="31.67" transform="translate(126.162 918.154) rotate(-81)" fill="url(#linear-gradient-2)"/>
        <g id="Grupo_58701" data-name="Grupo 58701">
          <circle id="Elipse_4702" data-name="Elipse 4702" cx="28.54" cy="28.54" r="28.54" transform="translate(133.86 863.29)" fill="#472ea6"/>
          <circle id="Elipse_4703" data-name="Elipse 4703" cx="22.41" cy="22.41" r="22.41" transform="translate(139.99 869.42)" fill="url(#linear-gradient-3)"/>
          <circle id="Elipse_4704" data-name="Elipse 4704" cx="21.26" cy="21.26" r="21.26" transform="translate(141.14 870.57)" fill="url(#linear-gradient-4)"/>
          <circle id="Elipse_4705" data-name="Elipse 4705" cx="21.26" cy="21.26" r="21.26" transform="translate(141.14 870.57)" fill="url(#linear-gradient-4)"/>
        </g>
      </g>
      <path id="Trazado_119730" data-name="Trazado 119730" d="M160.64,889.67h1.62a3.58,3.58,0,0,0,2.42-.81,2.71,2.71,0,0,0,.87-2.12,2.652,2.652,0,0,0-3-3,3.06,3.06,0,0,0-2.24.8,2.79,2.79,0,0,0-.84,2.12H157.3a4.35,4.35,0,0,1,1.48-3.36,5.39,5.39,0,0,1,3.77-1.34,5.319,5.319,0,0,1,3.78,1.27,4.63,4.63,0,0,1,1.37,3.55,3.72,3.72,0,0,1-.72,2.15,4.28,4.28,0,0,1-2,1.56,4.17,4.17,0,0,1,2.17,1.48,4.07,4.07,0,0,1,.77,2.51,4.67,4.67,0,0,1-1.5,3.65,5.65,5.65,0,0,1-3.9,1.34,5.72,5.72,0,0,1-3.9-1.3,4.28,4.28,0,0,1-1.51-3.43h2.18a2.78,2.78,0,0,0,.88,2.16,3.36,3.36,0,0,0,2.35.8,3.25,3.25,0,0,0,2.4-.82,3.16,3.16,0,0,0,.83-2.35,2.85,2.85,0,0,0-.91-2.28,4,4,0,0,0-2.64-.82h-1.62Z" fill="#12263f"/>
    </g>
  </g>
</svg>
