<svg xmlns="http://www.w3.org/2000/svg" width="64.805" height="48.601" viewBox="0 0 64.805 48.601">
  <g id="flecha-correcta" transform="translate(0)">
    <path id="Trazado_117781" data-name="Trazado 117781" d="M54.672,96.242,48.4,90.654a6.08,6.08,0,1,1,8.1-9.071l18.222,16.2a6.074,6.074,0,0,1,0,9.071l-18.222,16.2a6.08,6.08,0,1,1-8.1-9.071l6.277-5.588h-32.6a6.074,6.074,0,0,1,0-12.148Z" transform="translate(-13.975 -78.012)" fill="#fff" opacity="0.5"/>
    <path id="Trazado_117782" data-name="Trazado 117782" d="M38.469,112.625a8.1,8.1,0,0,1-5.394-14.149l2.3-2.049H8.1a8.1,8.1,0,0,1,0-16.2H35.376l-2.3-2.049a8.107,8.107,0,0,1,10.792-12.1l18.222,16.2a8.1,8.1,0,0,1,0,12.108l-18.222,16.2A8.066,8.066,0,0,1,38.469,112.625ZM8.1,84.28a4.049,4.049,0,0,0,0,8.1H40.7a2.025,2.025,0,0,1,1.344,3.539L35.768,101.5a4.049,4.049,0,0,0-.331,5.717l.011.013a4.207,4.207,0,0,0,5.722.324l18.222-16.2a4.07,4.07,0,0,0,0-6.038L41.17,69.122a4.049,4.049,0,0,0-5.406,6.03l6.277,5.588A2.025,2.025,0,0,1,40.7,84.279H8.1Z" transform="translate(0 -64.025)" fill="#fff"/>
  </g>
</svg>
