<svg xmlns="http://www.w3.org/2000/svg" xmlns:xlink="http://www.w3.org/1999/xlink" width="420" height="878" viewBox="0 0 420 878">
  <defs>
    <clipPath id="clip-path">
      <rect id="Rectángulo_6609" data-name="Rectángulo 6609" width="420" height="878" transform="translate(180 4942)" fill="#fff" stroke="#707070" stroke-width="1"/>
    </clipPath>
    <linearGradient id="linear-gradient" x1="-5.849" y1="-0.744" x2="-5.676" y2="1.026" gradientUnits="objectBoundingBox">
      <stop offset="0" stop-color="#4f52ff"/>
      <stop offset="1" stop-color="#4042e2"/>
    </linearGradient>
    <linearGradient id="linear-gradient-2" x1="315.204" y1="0.5" x2="316.204" y2="0.5" gradientUnits="objectBoundingBox">
      <stop offset="0" stop-color="#febbba"/>
      <stop offset="1" stop-color="#ff928e"/>
    </linearGradient>
    <linearGradient id="linear-gradient-3" x1="-5.419" y1="0.101" x2="-4.719" y2="1.178" gradientUnits="objectBoundingBox">
      <stop offset="0" stop-color="#241753"/>
      <stop offset="1" stop-color="#472ea6"/>
    </linearGradient>
    <linearGradient id="linear-gradient-4" x1="-8.71" y1="-0.978" x2="-8.729" y2="1.076" xlink:href="#linear-gradient"/>
    <linearGradient id="linear-gradient-5" x1="365.078" y1="0.5" x2="366.078" y2="0.5" xlink:href="#linear-gradient-2"/>
    <linearGradient id="linear-gradient-6" x1="-3.023" y1="0.093" x2="-2.506" y2="1.147" xlink:href="#linear-gradient-3"/>
    <linearGradient id="linear-gradient-7" x1="-1.746" y1="0.118" x2="-1.027" y2="1.609" xlink:href="#linear-gradient-3"/>
    <linearGradient id="linear-gradient-8" x1="-5.448" y1="1.124" x2="-7.359" y2="-0.445" xlink:href="#linear-gradient-2"/>
    <linearGradient id="linear-gradient-9" x1="-18.511" y1="2.975" x2="-24.199" y2="-0.251" xlink:href="#linear-gradient-2"/>
    <linearGradient id="linear-gradient-10" x1="443.538" y1="2.251" x2="445.557" y2="0.474" xlink:href="#linear-gradient-2"/>
    <linearGradient id="linear-gradient-11" x1="-2.109" y1="1.013" x2="-0.304" y2="4.827" xlink:href="#linear-gradient-3"/>
    <linearGradient id="linear-gradient-12" x1="48.741" y1="0.5" x2="49.74" y2="0.5" xlink:href="#linear-gradient-2"/>
    <linearGradient id="linear-gradient-13" x1="-2.719" y1="-0.451" x2="-2.904" y2="-0.026" gradientUnits="objectBoundingBox">
      <stop offset="0" stop-color="#f57fa3"/>
      <stop offset="0.97" stop-color="#ef2a66"/>
      <stop offset="1" stop-color="#fe7062"/>
    </linearGradient>
    <linearGradient id="linear-gradient-14" x1="-20.198" y1="-4.791" x2="-19.48" y2="5.683" xlink:href="#linear-gradient"/>
    <linearGradient id="linear-gradient-15" x1="-9.655" y1="-5.035" x2="-10.35" y2="3.927" xlink:href="#linear-gradient"/>
    <linearGradient id="linear-gradient-16" x1="156.527" y1="0.5" x2="157.528" y2="0.5" xlink:href="#linear-gradient-2"/>
    <linearGradient id="linear-gradient-17" x1="123.237" y1="0.5" x2="124.237" y2="0.5" xlink:href="#linear-gradient-2"/>
    <linearGradient id="linear-gradient-18" x1="41.512" y1="26.212" x2="41.19" y2="25.147" xlink:href="#linear-gradient-2"/>
    <linearGradient id="linear-gradient-19" x1="42.83" y1="21.872" x2="43.064" y2="23.011" xlink:href="#linear-gradient-3"/>
    <linearGradient id="linear-gradient-20" x1="133.991" y1="124.646" x2="133.048" y2="119.998" xlink:href="#linear-gradient-2"/>
    <linearGradient id="linear-gradient-21" x1="-4.551" y1="-0.23" x2="-7.424" y2="3.588" xlink:href="#linear-gradient-3"/>
    <linearGradient id="linear-gradient-22" x1="-32.1" y1="23.517" x2="-31.049" y2="23.517" xlink:href="#linear-gradient-3"/>
    <linearGradient id="linear-gradient-23" x1="-4.376" y1="-3.114" x2="-10.08" y2="2.151" xlink:href="#linear-gradient-3"/>
    <linearGradient id="linear-gradient-24" x1="-6.577" y1="-0.851" x2="-9.949" y2="7.27" xlink:href="#linear-gradient-3"/>
    <linearGradient id="linear-gradient-25" x1="-3.225" y1="-1.551" x2="-3.25" y2="0.176" xlink:href="#linear-gradient-3"/>
    <linearGradient id="linear-gradient-26" x1="-3.897" y1="-3.917" x2="-5.488" y2="-0.55" xlink:href="#linear-gradient-3"/>
    <linearGradient id="linear-gradient-27" x1="-5.012" y1="0.501" x2="-4.012" y2="0.501" xlink:href="#linear-gradient"/>
  </defs>
  <g id="img4" transform="translate(-180 -4942)" clip-path="url(#clip-path)">
    <g id="cf5_vertical" transform="translate(180 4942)">
      <path id="Trazado_117863" data-name="Trazado 117863" d="M0,0H420V878H0Z" fill="#e9e4fd"/>
      <path id="Trazado_117822" data-name="Trazado 117822" d="M0,878H42.82l-.08-.89c-.05-.53-4.5-53.44,8.53-150.68,17.52-130.7,119.68-191,209.82-244.15,23.32-13.76,45.34-26.76,64.86-40.38,22.76-15.9,42.41-38.35,58.39-66.73,12.6-22.37,23-48.48,30.82-77.61,1.3-4.85,2.5-9.62,3.59-14.28V0H0Z" fill="#cec8e8"/>
      <path id="Trazado_117823" data-name="Trazado 117823" d="M420,205.64S414.6,367.8,320.22,433.7,64.16,555,41.36,725.1C28,824.9,32.78,878,32.78,878H0V0H420Z" fill="#fff"/>
      <g id="Grupo_57721" data-name="Grupo 57721">
        <path id="Trazado_117824" data-name="Trazado 117824" d="M370.87,138.59h-.06l-21.4-.23a6,6,0,0,1-5.87-5.43l-1.88-20a4.69,4.69,0,0,1,.92-3.26,4.55,4.55,0,0,1,3.28-1.79h0c1.8-.14,4.34-.38,7-.63,5.66-.54,12.7-1.2,16.67-1.26a6.06,6.06,0,0,1,6,4.66c1.11,4.57,1,13.24.8,22.47A5.54,5.54,0,0,1,370.87,138.59ZM346,109.75a2.91,2.91,0,0,0-2.13,1.15,2.7,2.7,0,0,0-.55,1.89l1.89,20a4.26,4.26,0,0,0,4.25,3.8l21.4.22h0a3.79,3.79,0,0,0,3.84-3.63c.21-9.1.31-17.62-.75-22a4.44,4.44,0,0,0-4.38-3.3c-3.91,0-10.92.71-16.55,1.25-2.7.25-5.25.49-7.06.63Z" fill="#b3204d"/>
        <path id="Trazado_117825" data-name="Trazado 117825" d="M348.27,111c4.5-.34,14.27-1.44,18.9-1.51a4.2,4.2,0,0,1,4.15,3.19c.89,3.67.78,11,.62,17.75a3.72,3.72,0,0,1-3.76,3.62l-17.11-.19a4.08,4.08,0,0,1-4-3.69l-1.5-15.93A3,3,0,0,1,348.27,111Z" fill="#febc7c"/>
        <path id="Trazado_117826" data-name="Trazado 117826" d="M349.18,114.94h0a3.11,3.11,0,0,1,4.53,1.36l4.22,8.41a1,1,0,0,0,1.89-.09l10.47-25.89a1.16,1.16,0,0,1,2.23.56c-.1,7.92-2,23-13.39,35.57,0,0-6.28-2.71-11.33-15a4,4,0,0,1,1.38-4.92Z" fill="#f57fa3"/>
      </g>
      <g id="Grupo_57722" data-name="Grupo 57722">
        <path id="Trazado_117827" data-name="Trazado 117827" d="M371.9,250.41h-.06l-21.4-.22a6,6,0,0,1-5.87-5.44l-1.89-19.94a4.63,4.63,0,0,1,.93-3.26,4.51,4.51,0,0,1,3.27-1.8h0c1.8-.14,4.34-.38,7-.63,5.66-.54,12.71-1.2,16.67-1.26a6.07,6.07,0,0,1,6,4.66c1.12,4.58,1,13.24.81,22.48A5.53,5.53,0,0,1,371.9,250.41ZM347,221.57a3,3,0,0,0-2.13,1.15,2.75,2.75,0,0,0-.54,1.89l1.88,19.95a4.25,4.25,0,0,0,4.25,3.8l21.4.23h0a3.79,3.79,0,0,0,3.83-3.64c.21-9.09.31-17.61-.74-21.95a4.47,4.47,0,0,0-4.39-3.31c-3.9.05-10.92.72-16.55,1.25-2.69.25-5.24.49-7.06.63Z" fill="#b3204d"/>
        <path id="Trazado_117828" data-name="Trazado 117828" d="M349.29,222.85c4.5-.34,14.27-1.44,18.91-1.5a4.19,4.19,0,0,1,4.14,3.18c.9,3.67.78,11,.62,17.75a3.71,3.71,0,0,1-3.76,3.62l-17.1-.18a4.1,4.1,0,0,1-4.05-3.69l-1.5-15.94a3,3,0,0,1,2.74-3.24Z" fill="#febc7c"/>
        <path id="Trazado_117829" data-name="Trazado 117829" d="M350.21,226.76h0a3.11,3.11,0,0,1,4.53,1.37l4.22,8.4a1,1,0,0,0,1.88-.09l10.47-25.89a1.16,1.16,0,0,1,2.24.56c-.11,7.92-2,23-13.39,35.58,0,0-6.28-2.71-11.34-15.05A4.05,4.05,0,0,1,350.21,226.76Z" fill="#f57fa3"/>
      </g>
      <g id="Grupo_57723" data-name="Grupo 57723">
        <path id="Trazado_117830" data-name="Trazado 117830" d="M371.52,360.38h-.06l-21.4-.23a6,6,0,0,1-5.87-5.43l-1.88-20a4.7,4.7,0,0,1,.92-3.26,4.55,4.55,0,0,1,3.28-1.79h0c1.8-.14,4.34-.38,7-.63,5.66-.54,12.7-1.2,16.66-1.26a6.07,6.07,0,0,1,6,4.66c1.11,4.58,1,13.24.8,22.48a5.53,5.53,0,0,1-5.45,5.46Zm-24.9-28.84a2.91,2.91,0,0,0-2.13,1.15,2.7,2.7,0,0,0-.55,1.89l1.88,19.95a4.28,4.28,0,0,0,4.26,3.8l21.4.23h0a3.8,3.8,0,0,0,3.84-3.64c.21-9.09.31-17.61-.75-22a4.45,4.45,0,0,0-4.38-3.3c-3.91,0-10.92.71-16.55,1.25-2.7.25-5.25.49-7.06.63Z" fill="#b3204d"/>
        <path id="Trazado_117831" data-name="Trazado 117831" d="M348.92,332.82c4.5-.34,14.27-1.44,18.9-1.51A4.2,4.2,0,0,1,372,334.5c.89,3.67.77,11,.62,17.75a3.72,3.72,0,0,1-3.76,3.62l-17.11-.18a4.1,4.1,0,0,1-4-3.69l-1.51-15.94A3,3,0,0,1,348.92,332.82Z" fill="#febc7c"/>
        <path id="Trazado_117832" data-name="Trazado 117832" d="M349.83,336.73h0a3.11,3.11,0,0,1,4.53,1.37l4.22,8.4a1,1,0,0,0,1.89-.09l10.47-25.89a1.16,1.16,0,0,1,2.23.56c-.11,7.92-2,23-13.39,35.57,0,0-6.28-2.71-11.33-15A4,4,0,0,1,349.83,336.73Z" fill="#f57fa3"/>
      </g>
      <g id="Grupo_57724" data-name="Grupo 57724">
        <path id="Trazado_117833" data-name="Trazado 117833" d="M370.9,477.17h-.06l-21.4-.23a6,6,0,0,1-5.87-5.43l-1.88-19.95a4.61,4.61,0,0,1,4.19-5.05h0c1.8-.14,4.34-.38,7-.63,5.66-.54,12.71-1.2,16.67-1.26a6.06,6.06,0,0,1,6,4.66c1.12,4.58,1,13.24.81,22.48a5.53,5.53,0,0,1-5.46,5.41ZM346,448.33a3,3,0,0,0-2.13,1.15,2.75,2.75,0,0,0-.54,1.89l1.88,19.95a4.25,4.25,0,0,0,4.25,3.8l21.41.23h0a3.81,3.81,0,0,0,3.84-3.64c.2-9.09.3-17.61-.75-22a4.46,4.46,0,0,0-4.39-3.3c-3.9.05-10.91.72-16.55,1.25-2.69.25-5.24.49-7.06.63Z" fill="#b3204d"/>
        <path id="Trazado_117834" data-name="Trazado 117834" d="M348.3,449.61c4.49-.34,14.26-1.44,18.9-1.5a4.19,4.19,0,0,1,4.14,3.18c.9,3.67.78,11,.63,17.75a3.72,3.72,0,0,1-3.77,3.62l-17.1-.18a4.11,4.11,0,0,1-4.05-3.69l-1.5-15.94a3,3,0,0,1,2.75-3.24Z" fill="#febc7c"/>
        <path id="Trazado_117835" data-name="Trazado 117835" d="M349.21,453.52h0a3.11,3.11,0,0,1,4.53,1.37l4.22,8.4a1,1,0,0,0,1.88-.09l10.47-25.89a1.16,1.16,0,0,1,2.24.56c-.11,7.92-2,23-13.39,35.58,0,0-6.28-2.72-11.34-15.05a4.05,4.05,0,0,1,1.39-4.88Z" fill="#f57fa3"/>
      </g>
      <g id="Grupo_57734" data-name="Grupo 57734">
        <g id="Grupo_57729" data-name="Grupo 57729">
          <path id="Trazado_117836" data-name="Trazado 117836" d="M144.65,821.79s-2.14,12.08-3.18,24a8.24,8.24,0,0,0,7.88,8.93c15.92.66,50,2,62.21,1.41a2.68,2.68,0,0,0,2.36-3.67h0a6,6,0,0,0-3.07-3.24L154.58,823.4Z" fill="url(#linear-gradient)"/>
          <path id="Trazado_117837" data-name="Trazado 117837" d="M142.9,814.7l1.71,14.45s9.86,4.58,16.59-.58l-4.08-16.1Z" fill="url(#linear-gradient-2)"/>
          <path id="Trazado_117838" data-name="Trazado 117838" d="M144.19,543c-.74,3.92-2.72,195.41,17,281.15.32,1.4,2.36,4.15,1.66,5.35-1.71,2.93-14.32,2.11-21.43,2.35-2.2.08-3.38-2.5-4-4.69-5.64-19.9-32.66-119.57-36.18-214.78-3.94-106.39,0-3.62,0-3.62L103.56,543Z" fill="url(#linear-gradient-3)"/>
          <path id="Trazado_117839" data-name="Trazado 117839" d="M79.92,828.1s-3.4,6.1-6.69,22.3a5,5,0,0,0,4.43,6c5.25.52,13.35,1.18,19.83,1.14a5,5,0,0,0,5-5.59c-.72-5.92-3-15.62-9.87-23.19Z" fill="url(#linear-gradient-4)"/>
          <path id="Trazado_117840" data-name="Trazado 117840" d="M76.94,809.51l4,21.85s4,2.95,11.8.81l-1.91-23.51Z" fill="url(#linear-gradient-5)"/>
          <path id="Trazado_117841" data-name="Trazado 117841" d="M66.11,549.14C50,650.77,69.61,800.32,76.23,829.59a4.47,4.47,0,0,0,3.53,3.47,28.12,28.12,0,0,0,12.62-.53,4.14,4.14,0,0,0,2.88-3.85c.89-23.66-.71-168.94,14.33-226.36a13.05,13.05,0,0,1,4.81-7.19l29.18-21.65,2.24-35Z" fill="url(#linear-gradient-6)"/>
          <g id="Grupo_57725" data-name="Grupo 57725">
            <path id="Trazado_117842" data-name="Trazado 117842" d="M168.91,364.22c-48.35-.8-101.69,12.69-101.69,12.69C52.81,461,64.7,558,64.7,558c37.43,9.81,79.65-6,79.65-6,6.22-35.15,35.24-134.06,35.24-134.06,23.63-2.94,43.09-9.75,59.11-18.76-12.22-14.17-18-32.2-20.49-42.86C201.12,361.63,183.82,364.46,168.91,364.22Z" fill="url(#linear-gradient-7)"/>
            <path id="Trazado_117843" data-name="Trazado 117843" d="M311.72,293A9.25,9.25,0,0,0,301,290c-7.12,30.06-44.42,54.42-82.75,66.33,2.5,10.66,8.27,28.69,20.49,42.86C302.3,363.41,311.72,293,311.72,293Z" fill="url(#linear-gradient-8)"/>
          </g>
          <g id="Grupo_57726" data-name="Grupo 57726">
            <path id="Trazado_117844" data-name="Trazado 117844" d="M310.56,294.46c.5,1.58-5.25,4-8.64-2.47-.12-3.1-2-16.36-.15-18.89,9.85-13.43,29-30.28,29-30.28a4.55,4.55,0,0,1,.57,6.32L322,258.8c1.94,3.5,4.3,6.46,5.41,10.69a12.94,12.94,0,0,1-1.3,9.56,111.429,111.429,0,0,1-5.94,9.73A12.82,12.82,0,0,1,310.56,294.46Z" fill="url(#linear-gradient-9)"/>
            <path id="Trazado_117845" data-name="Trazado 117845" d="M318,265.06l-8.44,7.16-2.66,7.13,7.54,8.36s2.53-14.15,4.41-17.21S319.73,266,318,265.06Z" fill="url(#linear-gradient-10)"/>
          </g>
          <path id="Trazado_117846" data-name="Trazado 117846" d="M85.76,423.72,67.22,376.91S22.06,407.59,14.63,446.5c8.54.63,24.06,2.84,39.26,10.52C57.23,438.65,85.76,423.72,85.76,423.72Z" fill="url(#linear-gradient-11)"/>
          <path id="Trazado_117847" data-name="Trazado 117847" d="M125.23,467.77S74.52,496.43,57.42,472a19.26,19.26,0,0,1-3.53-15c-15.2-7.68-30.72-9.89-39.26-10.52a53.74,53.74,0,0,0,5.84,36.8c30,54.82,111.47-3,111.47-3Z" fill="url(#linear-gradient-12)"/>
          <g id="Grupo_57727" data-name="Grupo 57727">
            <path id="Trazado_117848" data-name="Trazado 117848" d="M119.13,504l27.67-96.63a2.82,2.82,0,0,1,2.39-2c5-.58,19.54-2.22,36.31-3.64,20.21-1.71,43.67-3.1,57.69-1.92a2.83,2.83,0,0,1,2.31,4.07c-8,16.13-40.77,81.74-57.19,103.24a2.85,2.85,0,0,1-2.28,1.12l-64.2-.6a2.84,2.84,0,0,1-2.7-3.64Z" fill="url(#linear-gradient-13)"/>
            <path id="Trazado_117849" data-name="Trazado 117849" d="M188.37,393.34,208.43,390a1.44,1.44,0,0,1,1.61,1.87l-2,6a1.43,1.43,0,0,1-1.18,1l-19.3,2.58a1.44,1.44,0,0,1-1.59-1.75l1.23-5.26a1.43,1.43,0,0,1,1.17-1.1Z" fill="url(#linear-gradient-14)"/>
            <path id="Trazado_117850" data-name="Trazado 117850" d="M173.35,410.32l1.65-8.61a2,2,0,0,1,1.76-1.6L217.28,396a2,2,0,0,1,2.13,2.44l-2.57,10.73a2,2,0,0,1-1.84,1.52l-39.6,2a2,2,0,0,1-2.05-2.37Z" fill="url(#linear-gradient-15)"/>
            <path id="Trazado_117851" data-name="Trazado 117851" d="M125.82,480.68s-3.86-15.85-2.3-21.48,4.57-12.85,14.61-11.24A147.072,147.072,0,0,1,160,453.8s-.59,7.32-8.23,5l4.74,3.66s-.68,5.86-7.13,2.73L153.8,470s-2.77,4.81-7.52,1.72S139.27,482.59,125.82,480.68Z" fill="url(#linear-gradient-16)"/>
          </g>
          <path id="Trazado_117852" data-name="Trazado 117852" d="M119.94,325l-15.38,44.48a1.58,1.58,0,0,0,.73,1.93c4.19,2.32,19.3,9,37.5-2.52a7.54,7.54,0,0,0,3.48-5.39l5-38.5Z" fill="url(#linear-gradient-17)"/>
          <g id="Grupo_57728" data-name="Grupo 57728">
            <path id="Trazado_117853" data-name="Trazado 117853" d="M153.41,283.77s16.89,31.8,14.73,44.64-23.1,11.93-41.38,1.49L114,295.57Z" fill="url(#linear-gradient-18)"/>
            <path id="Trazado_117854" data-name="Trazado 117854" d="M127.56,313a1.31,1.31,0,0,0,.58-1.92c-1.36-2.06-3.89-6.28-4.7-10,0,0-3-1.95,7.73-4.53,5.86-1.4,16.25-2.56,20.82-6.77,5.11-4.72-4.32-13.63-8.28-16-5.23-3.16-11.59-5-17.49-3.44a32.509,32.509,0,0,0-8,3.8c-4.31,2.56-8.78,5.26-11.53,9.46a31.11,31.11,0,0,0-3.56,9c-1.23,4.51-2.35,9.12-2.13,13.79.56,12.43,15.13,23.56,26.84,24.92a1.32,1.32,0,0,0,1.38-1.75l-4.78-13.91a1.32,1.32,0,0,1,.71-1.64Z" fill="url(#linear-gradient-19)"/>
            <path id="Trazado_117855" data-name="Trazado 117855" d="M129.49,315s-12-8.25-12.91-1.3,10.83,10.06,16.63,7.47Z" fill="url(#linear-gradient-20)"/>
          </g>
        </g>
        <g id="Grupo_57730" data-name="Grupo 57730">
          <path id="Trazado_117856" data-name="Trazado 117856" d="M156.07,285.15c-22.66-42.81-81.4-3.92-54.07,32.14C122.33,303.78,145.3,283.69,156.07,285.15Z" fill="url(#linear-gradient-21)"/>
          <path id="Trazado_117857" data-name="Trazado 117857" d="M154.59,280.53c45.82-2.33,8.11,14.66-33.62,23.73C131.35,293.23,141.74,285,154.59,280.53Z" fill="url(#linear-gradient-22)"/>
        </g>
        <g id="Grupo_57731" data-name="Grupo 57731">
          <path id="Trazado_117858" data-name="Trazado 117858" d="M114.15,425.56c-3.55.29-33.55,1.25-33.55,1.25L81.81,457l15.54,8.77,16.8-8.77Z" fill="url(#linear-gradient-23)"/>
          <path id="Trazado_117859" data-name="Trazado 117859" d="M116.53,425.56l-35.87,1.25L79.2,438.4l18.67,4.85,19.84-8.85Z" fill="url(#linear-gradient-24)"/>
        </g>
        <g id="Grupo_57732" data-name="Grupo 57732">
          <path id="Trazado_117860" data-name="Trazado 117860" d="M145.23,547.36c-20.33,7.3-48.94,7.31-81.24,4.06l.28,9.78c34.17,3.58,63.88,4.09,80.33-4.48Z" fill="url(#linear-gradient-25)"/>
          <path id="Trazado_117861" data-name="Trazado 117861" d="M64.58,547.56H97.12a3.57,3.57,0,0,1,3.57,3.57V560a7.08,7.08,0,0,1-7.08,7.08h-29A3.57,3.57,0,0,1,61,563.54V551.12a3.57,3.57,0,0,1,3.58-3.56Z" transform="matrix(-0.998, -0.06, 0.06, -0.998, 128.35, 1118.49)" fill="url(#linear-gradient-26)"/>
        </g>
        <g id="Grupo_57733" data-name="Grupo 57733">
          <circle id="Elipse_4605" data-name="Elipse 4605" cx="17.6" cy="17.6" r="17.6" transform="translate(28.991 440.347) rotate(-83.44)" fill="#fff"/>
          <path id="Trazado_117862" data-name="Trazado 117862" d="M31.14,417A19.27,19.27,0,1,1,41,442.39,19.27,19.27,0,0,1,31.14,417Zm1.71.76a13.184,13.184,0,1,0,0-.02Z" fill="url(#linear-gradient-27)"/>
        </g>
      </g>
    </g>
  </g>
</svg>
