<svg xmlns="http://www.w3.org/2000/svg" width="1235.98" height="490" viewBox="0 0 1235.98 490">
  <g id="fondo-tab" transform="translate(805.418 -767.817)">
    <rect id="Rectángulo_6264" data-name="Rectángulo 6264" width="490" height="490" transform="translate(-59.438 767.817)" fill="#e9e4fd"/>
    <path id="Trazado_114990" data-name="Trazado 114990" d="M-59.418,767.817V1257.8H-3.666l-.011-.309c-.855-22.178.932-80.538,35.91-143.291,35.209-63.169,92.106-109.6,169.109-137.995a270.016,270.016,0,0,0,90.618-55.469,294.743,294.743,0,0,0,54.3-68.405c25.68-44.218,33.2-81.4,33.5-82.959l.305-1.552Z" transform="translate(0)" fill="#cec8e8"/>
    <path id="Trazado_114991" data-name="Trazado 114991" d="M371.869,767.817S342.8,915.47,198.553,968.667C19.508,1034.7-14.552,1183.912-11.7,1257.8H-805.418V767.817Z" transform="translate(0)" fill="#fff"/>
  </g>
</svg>
