<svg xmlns="http://www.w3.org/2000/svg" width="78.05" height="50.63" viewBox="0 0 78.05 50.63">
  <g id="icon2" transform="translate(-262.09 -368.91)">
    <path id="Trazado_102142" data-name="Trazado 102142" d="M273.07,409.57h-2.49a3.51,3.51,0,0,1-3.5-3.51v-.23H265.6a3.51,3.51,0,0,1-3.51-3.51v-16.2a3.51,3.51,0,0,1,3.51-3.5h1.48v-.23a3.51,3.51,0,0,1,3.5-3.51h2.49a1,1,0,0,1,1,1v28.67a1,1,0,0,1-1,1.02Zm-7.47-24.92a1.47,1.47,0,0,0-1.48,1.47v16.2a1.48,1.48,0,0,0,1.48,1.48h2.49a1,1,0,0,1,1,1v1.24a1.48,1.48,0,0,0,1.48,1.48h1.48V380.91h-1.48a1.48,1.48,0,0,0-1.48,1.48v1.24a1,1,0,0,1-1,1Z" fill="#bbabf5"/>
    <path id="Trazado_102143" data-name="Trazado 102143" d="M279.31,419.54h-5a2.26,2.26,0,0,1-2.26-2.26V371.17a2.26,2.26,0,0,1,2.26-2.26h5a2.26,2.26,0,0,1,2.25,2.26v46.11a2.26,2.26,0,0,1-2.25,2.26Zm-5-48.6a.23.23,0,0,0-.23.23v46.11a.23.23,0,0,0,.23.23h5a.23.23,0,0,0,.23-.23V371.17a.23.23,0,0,0-.23-.23Z" fill="#bbabf5"/>
    <path id="Trazado_102144" data-name="Trazado 102144" d="M286.78,419.54h-5a2.26,2.26,0,0,1-2.26-2.26V371.17a2.26,2.26,0,0,1,2.26-2.26h5a2.26,2.26,0,0,1,2.26,2.26v46.11a2.26,2.26,0,0,1-2.26,2.26Zm-5-48.6a.23.23,0,0,0-.24.23v46.11a.23.23,0,0,0,.24.23h5a.23.23,0,0,0,.23-.23V371.17a.23.23,0,0,0-.23-.23Z" fill="#bbabf5"/>
    <path id="Trazado_102145" data-name="Trazado 102145" d="M331.64,409.57h-2.49a1,1,0,0,1-1-1V379.89a1,1,0,0,1,1-1h2.49a3.51,3.51,0,0,1,3.51,3.51v.23h1.48a3.51,3.51,0,0,1,3.51,3.5v16.2a3.51,3.51,0,0,1-3.51,3.51h-1.48v.23a3.51,3.51,0,0,1-3.51,3.5Zm-1.47-2h1.47a1.48,1.48,0,0,0,1.48-1.48v-1.24a1,1,0,0,1,1-1h2.49a1.48,1.48,0,0,0,1.48-1.48v-16.2a1.48,1.48,0,0,0-1.48-1.47h-2.49a1,1,0,0,1-1-1v-1.24a1.48,1.48,0,0,0-1.48-1.48h-1.47Z" fill="#bbabf5"/>
    <path id="Trazado_102146" data-name="Trazado 102146" d="M327.91,419.54h-5a2.27,2.27,0,0,1-2.26-2.26V371.17a2.26,2.26,0,0,1,2.26-2.26h5a2.26,2.26,0,0,1,2.26,2.26v46.11A2.27,2.27,0,0,1,327.91,419.54Zm-5-48.6a.23.23,0,0,0-.23.23v46.11a.23.23,0,0,0,.23.23h5a.23.23,0,0,0,.23-.23V371.17a.23.23,0,0,0-.23-.23Z" fill="#bbabf5"/>
    <path id="Trazado_102147" data-name="Trazado 102147" d="M320.43,419.54h-5a2.27,2.27,0,0,1-2.26-2.26V371.17a2.26,2.26,0,0,1,2.26-2.26h5a2.26,2.26,0,0,1,2.26,2.26v46.11a2.26,2.26,0,0,1-2.26,2.26Zm-5-48.6a.23.23,0,0,0-.23.23v46.11a.23.23,0,0,0,.23.23h5a.23.23,0,0,0,.23-.23V371.17a.23.23,0,0,0-.23-.23Z" fill="#bbabf5"/>
    <path id="Trazado_102148" data-name="Trazado 102148" d="M314.2,399.6H288a1,1,0,0,1-1-1v-8.73a1,1,0,0,1,1-1h26.2a1,1,0,0,1,1,1v8.73A1,1,0,0,1,314.2,399.6Zm-25.16-2h24.14v-6.69H289Z" fill="#bbabf5"/>
  </g>
</svg>
