<svg xmlns="http://www.w3.org/2000/svg" width="66.837" height="63.08" viewBox="0 0 66.837 63.08">
  <g id="icon3" transform="translate(-265.883 -234.48)">
    <g id="Grupo_54216" data-name="Grupo 54216">
      <path id="Trazado_102149" data-name="Trazado 102149" d="M296.92,267.39a.85.85,0,0,1-.71-.37.86.86,0,0,1,.23-1.2l31.78-21.53a.868.868,0,0,1,1,1.42L297.4,267.25a.84.84,0,0,1-.48.14Z" fill="#bbabf5"/>
      <path id="Trazado_102150" data-name="Trazado 102150" d="M296.92,267.82a1.29,1.29,0,0,1-.72-2.36L328,243.93a1.292,1.292,0,1,1,1.45,2.14L297.64,267.6A1.22,1.22,0,0,1,296.92,267.82Zm31.78-23.25a.42.42,0,0,0-.24.07l-31.78,21.53a.433.433,0,1,0,.48.72L329,245.36a.43.43,0,0,0,.11-.6.41.41,0,0,0-.41-.19Z" fill="#bbabf5"/>
    </g>
    <path id="Trazado_102151" data-name="Trazado 102151" d="M313.32,256.12a.89.89,0,0,1-.51-.17.88.88,0,0,1-.32-.93l2.06-7.18a.83.83,0,0,1,.33-.47l10.25-7.18a.89.89,0,0,1,.89-.06.87.87,0,0,1,.47.75l.13,6.1a.89.89,0,0,1-.39.74L313.8,256A.83.83,0,0,1,313.32,256.12Zm2.8-7.51-1.32,4.63,10.08-6.7-.08-4Z" fill="#bbabf5"/>
    <path id="Trazado_102152" data-name="Trazado 102152" d="M320.5,257.14h-.12l-7.18-1a.87.87,0,0,1-.72-.67.85.85,0,0,1,.37-.9l12.3-8.21a.86.86,0,0,1,.7-.11l6.23,1.66a.85.85,0,0,1,.63.69.87.87,0,0,1-.38.86L321,257a.9.9,0,0,1-.5.14Zm-4.82-2.42,4.62.66,9.49-6.33-4-1.07Z" fill="#bbabf5"/>
    <g id="Grupo_54217" data-name="Grupo 54217">
      <path id="Trazado_102153" data-name="Trazado 102153" d="M297.43,279.7a13.68,13.68,0,1,1,7-25.45.861.861,0,0,1-.88,1.48A12,12,0,1,0,309.39,266a11.663,11.663,0,0,0-.14-1.78A.882.882,0,1,1,311,264a13.9,13.9,0,0,1,.15,2,13.7,13.7,0,0,1-13.72,13.7Z" fill="#bbabf5"/>
      <path id="Trazado_102154" data-name="Trazado 102154" d="M297.43,280.13a14.11,14.11,0,1,1,7.19-26.25,1.22,1.22,0,0,1,.59.79,1.25,1.25,0,0,1-.14,1,1.29,1.29,0,0,1-1.77.45A11.52,11.52,0,1,0,309,266a12.221,12.221,0,0,0-.13-1.72,1.289,1.289,0,1,1,2.55-.38,13.406,13.406,0,0,1,.16,2.1,14.13,14.13,0,0,1-14.15,14.13Zm0-27.36A13.25,13.25,0,1,0,310.68,266a14.27,14.27,0,0,0-.14-2,.43.43,0,0,0-.18-.29.4.4,0,0,0-.32-.08.46.46,0,0,0-.28.17.41.41,0,0,0-.08.32,12.69,12.69,0,0,1,.13,1.85,12.36,12.36,0,1,1-6.07-10.66.468.468,0,0,0,.64-.53.41.41,0,0,0-.2-.26,13.2,13.2,0,0,0-6.75-1.75Z" fill="#bbabf5"/>
    </g>
    <g id="Grupo_54218" data-name="Grupo 54218">
      <path id="Trazado_102155" data-name="Trazado 102155" d="M297.43,287.9a21.88,21.88,0,1,1,11.15-40.71.861.861,0,1,1-.88,1.48A20.15,20.15,0,1,0,317.59,266a21.552,21.552,0,0,0-.22-3,.86.86,0,1,1,1.7-.25,22.154,22.154,0,0,1,.24,3.26,21.9,21.9,0,0,1-21.88,21.89Z" fill="#bbabf5"/>
      <path id="Trazado_102156" data-name="Trazado 102156" d="M297.43,288.33a22.31,22.31,0,1,1,11.37-41.51,1.291,1.291,0,1,1-1.32,2.22,19.73,19.73,0,1,0,9.68,17,19.113,19.113,0,0,0-.22-2.94,1.294,1.294,0,1,1,2.56-.38,22.992,22.992,0,0,1,.24,3.32,22.34,22.34,0,0,1-22.31,22.29Zm0-43.76A21.45,21.45,0,1,0,318.88,266a22.737,22.737,0,0,0-.23-3.2.45.45,0,0,0-.5-.36.43.43,0,0,0-.36.49A20.937,20.937,0,0,1,318,266a20.58,20.58,0,1,1-10.1-17.72.42.42,0,0,0,.33,0,.43.43,0,0,0,.26-.2.45.45,0,0,0-.15-.6,21.47,21.47,0,0,0-10.91-2.91Z" fill="#bbabf5"/>
    </g>
    <g id="Grupo_54219" data-name="Grupo 54219">
      <path id="Trazado_102157" data-name="Trazado 102157" d="M297.43,297.13a31.11,31.11,0,1,1,17.33-56.95.872.872,0,1,1-1,1.43,29.393,29.393,0,1,0,12.09,17.14.85.85,0,0,1,.62-1,.86.86,0,0,1,1.05.62,31.13,31.13,0,0,1-30.15,38.8Z" fill="#bbabf5"/>
      <path id="Trazado_102158" data-name="Trazado 102158" d="M297.43,297.56A31.54,31.54,0,1,1,315,239.83a1.29,1.29,0,0,1,.35,1.79,1.31,1.31,0,0,1-.82.55,1.33,1.33,0,0,1-1-.2,28.746,28.746,0,1,0,11.94,16.84,1.29,1.29,0,0,1,.93-1.57,1.31,1.31,0,0,1,1.57.93,31.929,31.929,0,0,1,1,7.8,31.58,31.58,0,0,1-31.54,31.59Zm0-62.22A30.68,30.68,0,1,0,328.11,266a31.007,31.007,0,0,0-.941-7.584.433.433,0,0,0-.839.214A29.82,29.82,0,1,1,314,241.26a.47.47,0,0,0,.33.06.39.39,0,0,0,.27-.18.42.42,0,0,0-.12-.6,30.54,30.54,0,0,0-17.05-5.2Z" fill="#bbabf5"/>
    </g>
  </g>
</svg>
