<svg xmlns="http://www.w3.org/2000/svg" xmlns:xlink="http://www.w3.org/1999/xlink" width="426.084" height="354.229" viewBox="0 0 426.084 354.229">
  <defs>
    <linearGradient id="linear-gradient" y1="0.5" x2="1" y2="0.5" gradientUnits="objectBoundingBox">
      <stop offset="0" stop-color="#dae3fe"/>
      <stop offset="1" stop-color="#e9effd"/>
    </linearGradient>
    <linearGradient id="linear-gradient-2" x1="0" y1="0.5" x2="1" y2="0.5" xlink:href="#linear-gradient"/>
    <linearGradient id="linear-gradient-3" x1="0" y1="0.5" x2="1" y2="0.5" xlink:href="#linear-gradient"/>
    <linearGradient id="linear-gradient-4" x1="0" y1="0.5" x2="1" y2="0.5" xlink:href="#linear-gradient"/>
    <linearGradient id="linear-gradient-5" x1="0" y1="0.5" x2="1" y2="0.5" xlink:href="#linear-gradient"/>
    <linearGradient id="linear-gradient-11" x1="0" y1="0.5" x2="1" y2="0.5" xlink:href="#linear-gradient"/>
    <linearGradient id="linear-gradient-13" y1="0.5" x2="1" y2="0.5" gradientUnits="objectBoundingBox">
      <stop offset="0" stop-color="#120c2a"/>
      <stop offset="1" stop-color="#472ea6"/>
    </linearGradient>
    <linearGradient id="linear-gradient-14" x1="-1.041" y1="2.887" x2="3.053" y2="-3.455" gradientUnits="objectBoundingBox">
      <stop offset="0" stop-color="#4f52ff"/>
      <stop offset="1" stop-color="#4042e2"/>
    </linearGradient>
    <linearGradient id="linear-gradient-15" x1="-1.77" y1="4.016" x2="2.324" y2="-2.326" xlink:href="#linear-gradient-14"/>
    <linearGradient id="linear-gradient-16" x1="-2.472" y1="5.103" x2="1.623" y2="-1.239" xlink:href="#linear-gradient-14"/>
    <linearGradient id="linear-gradient-17" x1="3.046" y1="-4.239" x2="0.813" y2="-0.082" gradientUnits="objectBoundingBox">
      <stop offset="0" stop-color="#f57fa3"/>
      <stop offset="1" stop-color="#ef2a66"/>
    </linearGradient>
    <linearGradient id="linear-gradient-18" x1="-0.555" y1="2.134" x2="3.539" y2="-4.208" xlink:href="#linear-gradient-14"/>
    <linearGradient id="linear-gradient-19" x1="-1.284" y1="3.264" x2="2.81" y2="-3.078" xlink:href="#linear-gradient-14"/>
    <linearGradient id="linear-gradient-20" x1="-1.986" y1="4.35" x2="2.109" y2="-1.992" xlink:href="#linear-gradient-14"/>
    <linearGradient id="linear-gradient-21" x1="-2.716" y1="5.48" x2="1.38" y2="-0.862" xlink:href="#linear-gradient-14"/>
    <linearGradient id="linear-gradient-22" x1="-0.124" y1="1.467" x2="3.97" y2="-4.875" xlink:href="#linear-gradient-14"/>
    <linearGradient id="linear-gradient-23" x1="-0.853" y1="2.597" x2="3.24" y2="-3.745" xlink:href="#linear-gradient-14"/>
    <linearGradient id="linear-gradient-24" x1="-1.555" y1="3.683" x2="2.54" y2="-2.659" xlink:href="#linear-gradient-14"/>
    <linearGradient id="linear-gradient-25" x1="0.349" y1="0.734" x2="4.442" y2="-5.604" xlink:href="#linear-gradient-14"/>
    <linearGradient id="linear-gradient-26" x1="-0.381" y1="1.864" x2="3.713" y2="-4.475" xlink:href="#linear-gradient-14"/>
    <linearGradient id="linear-gradient-27" x1="-1.082" y1="2.95" x2="3.013" y2="-3.389" xlink:href="#linear-gradient-14"/>
    <linearGradient id="linear-gradient-28" x1="1.299" y1="-18.456" x2="0.471" y2="1.152" xlink:href="#linear-gradient-14"/>
    <linearGradient id="linear-gradient-29" x1="209.836" y1="0.495" x2="210.836" y2="0.495" xlink:href="#linear-gradient-13"/>
    <linearGradient id="linear-gradient-30" x1="721.997" y1="0.5" x2="722.997" y2="0.5" gradientUnits="objectBoundingBox">
      <stop offset="0" stop-color="#febbba"/>
      <stop offset="1" stop-color="#ff928e"/>
    </linearGradient>
    <linearGradient id="linear-gradient-31" x1="2.228" y1="-13.366" x2="0.417" y2="1.073" xlink:href="#linear-gradient-14"/>
    <linearGradient id="linear-gradient-32" x1="355.44" y1="0.5" x2="356.442" y2="0.5" xlink:href="#linear-gradient-13"/>
    <linearGradient id="linear-gradient-33" x1="593.596" y1="0.5" x2="594.596" y2="0.5" xlink:href="#linear-gradient-30"/>
    <linearGradient id="linear-gradient-34" x1="1.916" y1="-1.232" x2="0.208" y2="0.864" xlink:href="#linear-gradient-14"/>
    <linearGradient id="linear-gradient-35" x1="107.703" y1="-18.396" x2="107.02" y2="-17.304" xlink:href="#linear-gradient-17"/>
    <linearGradient id="linear-gradient-36" x1="5.132" y1="-9.651" x2="1.685" y2="-2.092" xlink:href="#linear-gradient-13"/>
    <linearGradient id="linear-gradient-37" x1="403.673" y1="0.099" x2="401.283" y2="1.141" xlink:href="#linear-gradient-30"/>
    <linearGradient id="linear-gradient-38" x1="234.632" y1="-32.204" x2="233.126" y2="-30.304" xlink:href="#linear-gradient-17"/>
    <linearGradient id="linear-gradient-39" x1="321.081" y1="-37.658" x2="319.057" y2="-35.427" xlink:href="#linear-gradient-17"/>
    <linearGradient id="linear-gradient-40" x1="220.493" y1="0.5" x2="221.494" y2="0.5" xlink:href="#linear-gradient-30"/>
    <linearGradient id="linear-gradient-41" x1="293.714" y1="-0.004" x2="293.7" y2="1.888" xlink:href="#linear-gradient-30"/>
    <linearGradient id="linear-gradient-42" x1="0.028" y1="-0.037" x2="1.029" y2="0.962" xlink:href="#linear-gradient-13"/>
    <linearGradient id="linear-gradient-43" x1="0.159" y1="-0.007" x2="0.789" y2="0.93" xlink:href="#linear-gradient-13"/>
    <linearGradient id="linear-gradient-44" x1="344.394" y1="89.993" x2="342.874" y2="91.33" xlink:href="#linear-gradient-30"/>
    <linearGradient id="linear-gradient-45" x1="153.619" y1="0.423" x2="156.586" y2="0.704" xlink:href="#linear-gradient-13"/>
    <linearGradient id="linear-gradient-46" x1="921.023" y1="257.647" x2="924.316" y2="255.285" xlink:href="#linear-gradient-30"/>
    <linearGradient id="linear-gradient-47" x1="287.577" y1="-1.224" x2="285.883" y2="3.821" xlink:href="#linear-gradient-30"/>
    <linearGradient id="linear-gradient-48" x1="618.421" y1="0.5" x2="619.422" y2="0.5" xlink:href="#linear-gradient-30"/>
    <linearGradient id="linear-gradient-49" x1="1.278" y1="-3.919" x2="0.784" y2="-1.057" xlink:href="#linear-gradient-13"/>
    <linearGradient id="linear-gradient-50" x1="926.687" y1="0.5" x2="927.687" y2="0.5" xlink:href="#linear-gradient-30"/>
    <linearGradient id="linear-gradient-51" x1="279.578" y1="0.802" x2="284.462" y2="-0.514" xlink:href="#linear-gradient-13"/>
    <linearGradient id="linear-gradient-52" x1="580.823" y1="-2.223" x2="573.803" y2="5.383" xlink:href="#linear-gradient-13"/>
    <linearGradient id="linear-gradient-53" x1="1072.831" y1="0.501" x2="1073.831" y2="0.501" xlink:href="#linear-gradient-30"/>
    <linearGradient id="linear-gradient-54" x1="197.065" y1="0.721" x2="200.506" y2="-0.572" xlink:href="#linear-gradient-13"/>
    <linearGradient id="linear-gradient-55" x1="1.397" y1="-0.921" x2="0.379" y2="0.372" xlink:href="#linear-gradient-17"/>
    <linearGradient id="linear-gradient-56" x1="181.351" y1="0.5" x2="182.351" y2="0.5" xlink:href="#linear-gradient-30"/>
    <linearGradient id="linear-gradient-57" x1="939.043" y1="1.605" x2="941.041" y2="4.277" xlink:href="#linear-gradient-30"/>
    <linearGradient id="linear-gradient-58" x1="1304.648" y1="0.706" x2="1306.661" y2="-1.073" xlink:href="#linear-gradient-30"/>
    <linearGradient id="linear-gradient-59" x1="3.387" y1="-3.081" x2="0.83" y2="0.23" xlink:href="#linear-gradient-17"/>
    <linearGradient id="linear-gradient-60" x1="143.298" y1="0.502" x2="144.298" y2="0.502" xlink:href="#linear-gradient-30"/>
    <linearGradient id="linear-gradient-61" x1="0" y1="0.499" x2="1.001" y2="0.499" xlink:href="#linear-gradient-14"/>
    <linearGradient id="linear-gradient-62" x1="-0.036" y1="-12.759" x2="0.335" y2="-3.567" xlink:href="#linear-gradient-13"/>
    <linearGradient id="linear-gradient-63" x1="0.204" y1="-9.128" x2="0.398" y2="-2.808" xlink:href="#linear-gradient-13"/>
    <linearGradient id="linear-gradient-64" x1="460.103" y1="0.502" x2="461.103" y2="0.502" xlink:href="#linear-gradient-30"/>
    <linearGradient id="linear-gradient-65" x1="362.316" y1="0.5" x2="363.315" y2="0.5" xlink:href="#linear-gradient-30"/>
    <linearGradient id="linear-gradient-66" x1="9.537" y1="-57.026" x2="9.216" y2="-58.092" xlink:href="#linear-gradient-30"/>
    <linearGradient id="linear-gradient-67" x1="7.351" y1="-44.715" x2="7.555" y2="-43.535" xlink:href="#linear-gradient-13"/>
    <linearGradient id="linear-gradient-68" x1="29.871" y1="-278.851" x2="28.928" y2="-283.499" xlink:href="#linear-gradient-30"/>
    <linearGradient id="linear-gradient-69" x1="93.056" y1="-1.716" x2="44.861" y2="-0.562" xlink:href="#linear-gradient-13"/>
    <linearGradient id="linear-gradient-70" x1="88.631" y1="-1.595" x2="40.436" y2="-0.449" xlink:href="#linear-gradient-13"/>
    <linearGradient id="linear-gradient-71" x1="4.023" y1="-1.325" x2="1.826" y2="-0.189" xlink:href="#linear-gradient-13"/>
    <linearGradient id="linear-gradient-72" x1="4.383" y1="-1.508" x2="2.177" y2="-0.368" xlink:href="#linear-gradient-13"/>
    <linearGradient id="linear-gradient-73" x1="2.943" y1="-61.785" x2="1.373" y2="-21.753" xlink:href="#linear-gradient-13"/>
    <linearGradient id="linear-gradient-74" x1="5.387" y1="-90.221" x2="2.343" y2="-33.701" xlink:href="#linear-gradient-13"/>
    <linearGradient id="linear-gradient-75" x1="5.566" y1="-93.545" x2="2.522" y2="-37.025" xlink:href="#linear-gradient-13"/>
    <linearGradient id="linear-gradient-76" x1="5.423" y1="-95.944" x2="2.561" y2="-39.889" xlink:href="#linear-gradient-13"/>
    <linearGradient id="linear-gradient-77" x1="5.589" y1="-99.203" x2="2.728" y2="-43.148" xlink:href="#linear-gradient-13"/>
    <linearGradient id="linear-gradient-78" x1="0.948" y1="-1.67" x2="-0.009" y2="3.289" xlink:href="#linear-gradient-17"/>
    <linearGradient id="linear-gradient-79" x1="3.853" y1="-5.189" x2="-0.737" y2="2.245" xlink:href="#linear-gradient-17"/>
    <linearGradient id="linear-gradient-80" x1="-8.91" y1="-10.277" x2="-8.24" y2="-11.056" xlink:href="#linear-gradient-17"/>
    <linearGradient id="linear-gradient-81" x1="-8.147" y1="-12.039" x2="-10.198" y2="-8.94" xlink:href="#linear-gradient-17"/>
    <linearGradient id="linear-gradient-82" x1="-89.932" y1="27.698" x2="-92.643" y2="30.422" xlink:href="#linear-gradient-17"/>
    <linearGradient id="linear-gradient-83" x1="-5.587" y1="-5.808" x2="-4.916" y2="-6.587" xlink:href="#linear-gradient-17"/>
    <linearGradient id="linear-gradient-84" x1="-4.711" y1="-7.419" x2="-6.763" y2="-4.32" xlink:href="#linear-gradient-17"/>
    <linearGradient id="linear-gradient-85" x1="-55.634" y1="16.797" x2="-58.349" y2="19.517" xlink:href="#linear-gradient-17"/>
    <linearGradient id="linear-gradient-86" x1="-5.39" y1="-5.644" x2="-4.719" y2="-6.422" xlink:href="#linear-gradient-17"/>
    <linearGradient id="linear-gradient-87" x1="-4.506" y1="-7.246" x2="-6.557" y2="-4.148" xlink:href="#linear-gradient-17"/>
    <linearGradient id="linear-gradient-88" x1="-53.434" y1="15.935" x2="-56.153" y2="18.658" xlink:href="#linear-gradient-17"/>
    <linearGradient id="linear-gradient-89" x1="-6.758" y1="-7.404" x2="-6.087" y2="-8.183" xlink:href="#linear-gradient-17"/>
    <linearGradient id="linear-gradient-90" x1="-5.923" y1="-9.071" x2="-7.974" y2="-5.971" xlink:href="#linear-gradient-17"/>
    <linearGradient id="linear-gradient-91" x1="-68.12" y1="19.818" x2="-70.832" y2="22.54" xlink:href="#linear-gradient-17"/>
  </defs>
  <g id="img11" transform="translate(-285 -7312.683)">
    <path id="Trazado_116025" data-name="Trazado 116025" d="M-7656-4263.2s20.134,15.333,52.934-23.867,76.8-130.6,76.8-130.6" transform="translate(8236 11731)" fill="none" stroke="#b7a5f8" stroke-width="3" stroke-dasharray="3 3"/>
    <g id="cf5_proyección" transform="translate(242.996 7312.949)">
      <g id="Grupo_57222" data-name="Grupo 57222" transform="translate(100.151 36.139)">
        <path id="Trazado_116118" data-name="Trazado 116118" d="M351.55,341.781H139.8a12.808,12.808,0,0,1-12.655-12.7L121.868,54.19a12.815,12.815,0,0,1,12.378-13.2L351.281,36.14a12.8,12.8,0,0,1,12.932,12.954V328.828A12.808,12.808,0,0,1,351.55,341.781Z" transform="translate(-121.862 -36.139)" fill="#472ea6"/>
        <rect id="Rectángulo_6335" data-name="Rectángulo 6335" width="209.855" height="253.66" rx="10.46" transform="translate(18.042 38.504)" fill="#91b3fa"/>
        <g id="Grupo_57212" data-name="Grupo 57212" transform="translate(32.969 164.129)">
          <rect id="Rectángulo_6336" data-name="Rectángulo 6336" width="66.42" height="9.145" fill="#bdd0fb"/>
          <rect id="Rectángulo_6337" data-name="Rectángulo 6337" width="66.42" height="5.294" transform="translate(0 12.997)" fill="#bdd0fb"/>
          <rect id="Rectángulo_6338" data-name="Rectángulo 6338" width="66.42" height="5.294" transform="translate(0 22.143)" fill="#bdd0fb"/>
          <rect id="Rectángulo_6339" data-name="Rectángulo 6339" width="66.42" height="5.294" transform="translate(0 31.288)" fill="#bdd0fb"/>
        </g>
        <g id="Grupo_57213" data-name="Grupo 57213" transform="translate(94.263 95.932)">
          <rect id="Rectángulo_6340" data-name="Rectángulo 6340" width="6.473" height="27.574" transform="translate(0 22.332)" fill="url(#linear-gradient)"/>
          <rect id="Rectángulo_6341" data-name="Rectángulo 6341" width="6.473" height="18.094" transform="translate(10.82 31.812)" fill="url(#linear-gradient-2)"/>
          <rect id="Rectángulo_6342" data-name="Rectángulo 6342" width="6.473" height="41.518" transform="translate(21.633 8.395)" fill="url(#linear-gradient-3)"/>
          <rect id="Rectángulo_6343" data-name="Rectángulo 6343" width="6.473" height="9.975" transform="translate(32.453 39.931)" fill="url(#linear-gradient-4)"/>
          <rect id="Rectángulo_6344" data-name="Rectángulo 6344" width="6.473" height="35.963" transform="translate(43.266 13.944)" fill="url(#linear-gradient-5)"/>
          <rect id="Rectángulo_6345" data-name="Rectángulo 6345" width="6.473" height="29.737" transform="translate(54.086 20.169)" fill="url(#linear-gradient-4)"/>
          <rect id="Rectángulo_6346" data-name="Rectángulo 6346" width="6.473" height="22.973" transform="translate(64.899 26.941)" fill="url(#linear-gradient-3)"/>
          <rect id="Rectángulo_6347" data-name="Rectángulo 6347" width="6.473" height="49.906" transform="translate(75.719)" fill="url(#linear-gradient-4)"/>
          <rect id="Rectángulo_6348" data-name="Rectángulo 6348" width="6.473" height="44.627" transform="translate(86.531 5.279)" fill="url(#linear-gradient)"/>
          <rect id="Rectángulo_6349" data-name="Rectángulo 6349" width="6.473" height="36.64" transform="translate(97.351 13.267)" fill="url(#linear-gradient-4)"/>
          <rect id="Rectángulo_6350" data-name="Rectángulo 6350" width="6.473" height="9.051" transform="translate(108.164 40.863)" fill="url(#linear-gradient-11)"/>
          <rect id="Rectángulo_6351" data-name="Rectángulo 6351" width="6.473" height="26.628" transform="translate(118.984 23.286)" fill="url(#linear-gradient-5)"/>
        </g>
        <rect id="Rectángulo_6352" data-name="Rectángulo 6352" width="186.752" height="5.294" transform="translate(32.969 275.315)" fill="#bdd0fb"/>
        <rect id="Rectángulo_6353" data-name="Rectángulo 6353" width="65.94" height="56.794" rx="17" transform="translate(33.449 210.337)" fill="#fff" opacity="0.57"/>
        <g id="Grupo_57214" data-name="Grupo 57214" transform="translate(112.446 164.146)">
          <path id="Trazado_116119" data-name="Trazado 116119" d="M347.85,312.773a2.738,2.738,0,0,1-2.687-3.226l8.257-45.741a2.73,2.73,0,0,1,3.2-2.184,49.768,49.768,0,0,1,39.967,41.329,2.745,2.745,0,0,1-.51,2.046,2.709,2.709,0,0,1-1.806,1.078l-46.025,6.67A2.385,2.385,0,0,1,347.85,312.773Z" transform="translate(-295.004 -261.574)" fill="#bdd0fb"/>
          <path id="Trazado_116120" data-name="Trazado 116120" d="M317.022,371.328a40.659,40.659,0,1,1,7.551-80.6,2.738,2.738,0,0,1,2.184,3.175l-5.985,33.123,33.334-4.828a2.745,2.745,0,0,1,3.1,2.294,41.7,41.7,0,0,1,.466,6.182,40.7,40.7,0,0,1-40.652,40.652Z" transform="translate(-276.292 -269.304)" fill="#bdd0fb"/>
        </g>
        <g id="Grupo_57217" data-name="Grupo 57217" transform="translate(118.947 80.299)">
          <path id="Trazado_116121" data-name="Trazado 116121" d="M314.209,147.1a27.356,27.356,0,1,0,27.363,27.358A27.356,27.356,0,0,0,314.209,147.1Zm0,50.627a23.3,23.3,0,1,1,23.3-23.3A23.3,23.3,0,0,1,314.209,197.727Z" transform="translate(-285.666 -146.605)" fill="#9182ca"/>
          <g id="Grupo_57216" data-name="Grupo 57216">
            <path id="Trazado_116122" data-name="Trazado 116122" d="M313.974,146.42a28.754,28.754,0,1,0,28.754,28.754A28.754,28.754,0,0,0,313.974,146.42Zm-.306,53.2a24.757,24.757,0,1,1,24.757-24.757,24.757,24.757,0,0,1-24.757,24.757Z" transform="translate(-285.22 -146.42)" fill="#9182ca"/>
            <g id="Grupo_57215" data-name="Grupo 57215" transform="translate(19.871 1.099)">
              <path id="Trazado_116123" data-name="Trazado 116123" d="M357.239,171.31a.43.43,0,0,1-.415-.313,20.385,20.385,0,0,0-.976-2.84.43.43,0,0,1,.233-.561.422.422,0,0,1,.561.226,22.364,22.364,0,0,1,1.012,2.949.43.43,0,0,1-.306.524.284.284,0,0,1-.109.015Z" transform="translate(-324.284 -153.267)" fill="#9182ca"/>
              <path id="Trazado_116124" data-name="Trazado 116124" d="M341.723,158.32a.437.437,0,0,1-.342-.167,23.919,23.919,0,0,0-19.048-9.371,22.725,22.725,0,0,0-9.218,1.937.437.437,0,0,1-.568-.218.43.43,0,0,1,.226-.568,23.5,23.5,0,0,1,9.56-2,24.757,24.757,0,0,1,19.747,9.706.43.43,0,0,1-.08.6.444.444,0,0,1-.277.08Z" transform="translate(-312.51 -147.93)" fill="#9182ca"/>
            </g>
          </g>
          <circle id="Elipse_4435" data-name="Elipse 4435" cx="2.548" cy="2.548" r="2.548" transform="translate(26.952 31.995) rotate(-67.5)" fill="#9182ca"/>
          <path id="Trazado_116125" data-name="Trazado 116125" d="M343.167,166.181a.415.415,0,0,0,0-.6h0a.422.422,0,0,0-.6,0L329.624,178.96a.422.422,0,0,0,0,.6h0a.422.422,0,0,0,.6,0Z" transform="translate(-297.258 -151.596)" fill="#9182ca"/>
          <path id="Trazado_116126" data-name="Trazado 116126" d="M318.28,191.431a.408.408,0,0,0,0-.575h0a.415.415,0,0,0-.582,0l-12.131,12.524a.422.422,0,0,0,0,.583h0a.415.415,0,0,0,.582,0Z" transform="translate(-290.72 -158.468)" fill="#9182ca"/>
          <path id="Trazado_116127" data-name="Trazado 116127" d="M312.659,185.874a.422.422,0,0,0,.517-.3h0a.422.422,0,0,0-.3-.517l-17.956-4.864a.422.422,0,0,0-.517.3h0a.422.422,0,0,0,.3.517Z" transform="translate(-287.713 -155.598)" fill="#9182ca"/>
          <path id="Trazado_116128" data-name="Trazado 116128" d="M346.174,195.07a.342.342,0,0,0,.422-.248h0a.342.342,0,0,0-.24-.422l-14.781-4a.35.35,0,0,0-.43.248h0a.342.342,0,0,0,.248.422Z" transform="translate(-297.702 -158.372)" fill="#9182ca"/>
          <path id="Trazado_116129" data-name="Trazado 116129" d="M320.028,177.331a.349.349,0,0,0,.488.087h0a.349.349,0,0,0,.087-.488l-8.84-12.517a.349.349,0,0,0-.488-.087h0a.35.35,0,0,0-.08.488Z" transform="translate(-292.264 -151.271)" fill="#9182ca"/>
          <path id="Trazado_116130" data-name="Trazado 116130" d="M337.774,205.2a.35.35,0,0,0,.488.087h0a.357.357,0,0,0,.08-.488l-8.818-12.517a.342.342,0,0,0-.481-.087h0a.35.35,0,0,0-.087.488Z" transform="translate(-297.093 -158.848)" fill="#9182ca"/>
          <path id="Trazado_116131" data-name="Trazado 116131" d="M297.171,194.362a.357.357,0,0,0-.255.43h0a.357.357,0,0,0,.43.248l14.81-3.9a.357.357,0,0,0,.248-.43h0a.357.357,0,0,0-.43-.248Z" transform="translate(-288.397 -158.392)" fill="#9182ca"/>
          <path id="Trazado_116132" data-name="Trazado 116132" d="M332.643,184.231a.342.342,0,0,0-.248.422h0a.335.335,0,0,0,.422.248l14.81-3.9a.349.349,0,0,0,.248-.422h0a.342.342,0,0,0-.422-.248Z" transform="translate(-298.042 -155.637)" fill="#9182ca"/>
          <path id="Trazado_116133" data-name="Trazado 116133" d="M327.441,208.428a.342.342,0,0,0,.357.335h0a.335.335,0,0,0,.335-.35l-.291-15.291a.35.35,0,0,0-.357-.342h0a.35.35,0,0,0-.335.357Z" transform="translate(-296.619 -159.024)" fill="#9182ca"/>
          <path id="Trazado_116134" data-name="Trazado 116134" d="M327.441,172.95a.342.342,0,0,0,.357.342h0a.335.335,0,0,0,.335-.35l-.291-15.291a.35.35,0,0,0-.357-.342h0a.342.342,0,0,0-.335.357Z" transform="translate(-296.619 -149.381)" fill="#9182ca"/>
        </g>
        <g id="Grupo_57220" data-name="Grupo 57220" transform="translate(35 80.299)">
          <path id="Trazado_116135" data-name="Trazado 116135" d="M199.153,147.69A27.516,27.516,0,1,0,226.662,175.2a27.516,27.516,0,0,0-27.509-27.511Zm0,50.911a23.4,23.4,0,1,1,23.4-23.4A23.4,23.4,0,0,1,199.153,198.6Z" transform="translate(-170.392 -146.765)" fill="#9182ca"/>
          <g id="Grupo_57219" data-name="Grupo 57219">
            <path id="Trazado_116136" data-name="Trazado 116136" d="M198.691,146.42a28.754,28.754,0,1,0,28.747,28.752,28.754,28.754,0,0,0-28.747-28.752Zm-.313,53.2a24.757,24.757,0,1,1,24.757-24.757A24.757,24.757,0,0,1,198.378,199.617Z" transform="translate(-169.93 -146.42)" fill="#9182ca"/>
            <g id="Grupo_57218" data-name="Grupo 57218" transform="translate(18.474 0.415)">
              <path id="Trazado_116137" data-name="Trazado 116137" d="M243.443,172.19a.466.466,0,0,1-.444-.35,22.865,22.865,0,0,0-1.012-3.08.466.466,0,0,1,.248-.6.459.459,0,0,1,.6.248,24.378,24.378,0,0,1,1.092,3.175.459.459,0,0,1-.328.561.372.372,0,0,1-.16.051Z" transform="translate(-207.984 -152.734)" fill="#9182ca"/>
              <path id="Trazado_116138" data-name="Trazado 116138" d="M226.756,158.211a.444.444,0,0,1-.364-.189,25.776,25.776,0,0,0-20.526-10.085,24.5,24.5,0,0,0-9.917,2.082.461.461,0,1,1-.371-.845,25.31,25.31,0,0,1,10.289-2.184,26.686,26.686,0,0,1,21.254,10.478.466.466,0,0,1-.095.648A.473.473,0,0,1,226.756,158.211Z" transform="translate(-195.301 -146.99)" fill="#9182ca"/>
            </g>
          </g>
          <circle id="Elipse_4436" data-name="Elipse 4436" cx="2.548" cy="2.548" r="2.548" transform="translate(27.221 28.723) rotate(-13.28)" fill="#9182ca"/>
          <path id="Trazado_116139" data-name="Trazado 116139" d="M227.893,166.181a.422.422,0,0,0,0-.6h0a.422.422,0,0,0-.6,0L214.343,178.96a.415.415,0,0,0,0,.6h0a.422.422,0,0,0,.6,0Z" transform="translate(-181.97 -151.596)" fill="#9182ca"/>
          <path id="Trazado_116140" data-name="Trazado 116140" d="M202.989,191.431a.408.408,0,0,0,0-.575h0a.415.415,0,0,0-.583,0l-12.131,12.524a.415.415,0,0,0,0,.582h0a.415.415,0,0,0,.583,0Z" transform="translate(-175.429 -158.468)" fill="#9182ca"/>
          <path id="Trazado_116141" data-name="Trazado 116141" d="M197.371,185.874a.437.437,0,0,0,.524-.3h0a.422.422,0,0,0-.3-.517l-17.956-4.864a.422.422,0,0,0-.517.3h0a.415.415,0,0,0,.3.517Z" transform="translate(-172.425 -155.598)" fill="#9182ca"/>
          <path id="Trazado_116142" data-name="Trazado 116142" d="M230.887,195.07a.349.349,0,0,0,.43-.248h0a.342.342,0,0,0-.248-.422l-14.781-4a.342.342,0,0,0-.422.248h0a.342.342,0,0,0,.24.422Z" transform="translate(-182.415 -158.372)" fill="#9182ca"/>
          <path id="Trazado_116143" data-name="Trazado 116143" d="M204.754,177.331a.349.349,0,0,0,.488.087h0a.357.357,0,0,0,.08-.488l-8.81-12.517a.349.349,0,0,0-.488-.087h0a.349.349,0,0,0-.087.488Z" transform="translate(-176.983 -151.271)" fill="#9182ca"/>
          <path id="Trazado_116144" data-name="Trazado 116144" d="M222.494,205.2a.342.342,0,0,0,.481.087h0a.349.349,0,0,0,.087-.488l-8.818-12.517a.349.349,0,0,0-.488-.087h0a.357.357,0,0,0-.08.488Z" transform="translate(-181.806 -158.848)" fill="#9182ca"/>
          <path id="Trazado_116145" data-name="Trazado 116145" d="M181.9,194.361a.357.357,0,0,0-.248.43h0a.357.357,0,0,0,.43.248l14.8-3.9a.349.349,0,0,0,.248-.43h0a.342.342,0,0,0-.422-.248Z" transform="translate(-173.115 -158.391)" fill="#9182ca"/>
          <path id="Trazado_116146" data-name="Trazado 116146" d="M217.354,184.231a.349.349,0,0,0-.248.422h0a.35.35,0,0,0,.43.248l14.781-3.9a.357.357,0,0,0,.248-.422h0a.35.35,0,0,0-.43-.248Z" transform="translate(-182.753 -155.637)" fill="#9182ca"/>
          <path id="Trazado_116147" data-name="Trazado 116147" d="M212.159,208.428a.335.335,0,0,0,.35.335h0a.342.342,0,0,0,.342-.35l-.291-15.291a.357.357,0,0,0-.357-.342h0a.357.357,0,0,0-.342.357Z" transform="translate(-181.329 -159.024)" fill="#9182ca"/>
          <path id="Trazado_116148" data-name="Trazado 116148" d="M212.159,172.95a.342.342,0,0,0,.35.342h0a.342.342,0,0,0,.342-.35l-.291-15.291a.357.357,0,0,0-.357-.342h0a.357.357,0,0,0-.342.357Z" transform="translate(-181.329 -149.381)" fill="#9182ca"/>
        </g>
        <path id="Trazado_116149" data-name="Trazado 116149" d="M279.7,131.467c-2.308,0-44.052,6-44.052,6l-.917-7.026-3,1.26.728,8.992s-24.9,31.368-21.91,32.285,33.494,7.15,36.254,4.369,33.043-36.2,33.043-36.2c2.345,4.529,13.8,31.361,13.8,31.361s2.767,4.15,3.153-.692C296.729,171.827,282,131.467,279.7,131.467Zm-37.237,43.3a.852.852,0,0,1-.772.255c-5.031-.881-23.38-4.063-26.023-4.194s13.951-21.3,18.429-26.941a.852.852,0,0,1,1.5.335l7.07,29.766a.845.845,0,0,1-.2.779Zm35.045-36.887c-1.383,1.311-29.22,35.2-30.676,34.062s-10.077-30.968-9.08-31.135c0,0,39.436-6.684,39.785-5.767s1.354,1.529-.029,2.84Z" transform="translate(-145.904 -61.776)" fill="#9182ca"/>
        <path id="Trazado_116150" data-name="Trazado 116150" d="M243.2,116.357c-1.842-2.075-22.47-3.116-23.227-.575s1.9,4.769,6.051,4.98,6.226.437,6.226.437l.91,6.2a.779.779,0,0,0,.976.648l3.6-.961-.881-6.32S245.049,118.447,243.2,116.357Z" transform="translate(-148.499 -57.385)" fill="#9182ca"/>
        <path id="Trazado_116151" data-name="Trazado 116151" d="M317.256,118.976c-4.493-.517-16.834,2.25-17.118,2.25s-1.5.342-.925,2.359,1.507,5.1,1.507,5.1l3.677.124-1.74-6.349s12.291-2.5,13.951,0c1.529,2.286-1.981,6.393-4.26,8.126a.939.939,0,0,0-.3,1.1l.481,1.114a.932.932,0,0,0,1.551.233c1.165-1.34,3.065-3.51,3.641-4.056C318.589,128.165,321.756,119.457,317.256,118.976Z" transform="translate(-170.036 -58.642)" fill="#9182ca"/>
        <circle id="Elipse_4437" data-name="Elipse 4437" cx="0.91" cy="0.91" r="0.91" transform="translate(148.32 109.57)" fill="#9182ca"/>
        <circle id="Elipse_4438" data-name="Elipse 4438" cx="0.91" cy="0.91" r="0.91" transform="translate(66.223 109.57)" fill="#9182ca"/>
        <g id="Grupo_57221" data-name="Grupo 57221" transform="translate(65.367 107.026)">
          <path id="Trazado_116152" data-name="Trazado 116152" d="M248.325,186.347h0l-35.839-2.112c-.255,0-.451-.35-.437-.6s.233-.539.481-.5l35.846,1.842c.255,0,.444.459.437.728S248.573,186.347,248.325,186.347Z" transform="translate(-211.748 -183.126)" fill="#9182ca"/>
          <path id="Trazado_116153" data-name="Trazado 116153" d="M246.582,199.688h0l-34.608-9.466a.473.473,0,0,1-.32-.582.444.444,0,0,1,.568-.328l34.615,9.466a.5.5,0,0,1-.226.954Z" transform="translate(-211.635 -184.802)" fill="#9182ca"/>
        </g>
        <circle id="Elipse_4439" data-name="Elipse 4439" cx="7.551" cy="7.551" r="7.551" transform="translate(90.662 120.731) rotate(-73.15)" fill="#9182ca"/>
        <path id="Trazado_116154" data-name="Trazado 116154" d="M257.382,194.689l-.5-.641a.976.976,0,0,0-.8-.379.99.99,0,0,0-.786.415L250.37,201l2.388,1.871,4.675-7.019A1,1,0,0,0,257.382,194.689Z" transform="translate(-156.799 -78.966)" fill="#9182ca"/>
        <circle id="Elipse_4440" data-name="Elipse 4440" cx="3.51" cy="3.51" r="3.51" transform="matrix(0.998, -0.055, 0.055, 0.998, 61.967, 106.637)" fill="#9182ca"/>
      </g>
      <g id="Grupo_57226" data-name="Grupo 57226" transform="translate(83.058 191.852)">
        <g id="Grupo_57223" data-name="Grupo 57223" transform="translate(0 0)">
          <path id="Trazado_116155" data-name="Trazado 116155" d="M100.6,258.109c-.728,25.368-3.014,112.861-1.915,143.872.117,3.284,3.087,5.92,6.8,6.029,18.349.532,85.621,1.879,115.642.765,6.247-.233,11.221-4.711,11.352-10.252.626-26.628,2-101.516-1.274-135.826-.386-4.107-4.034-7.383-8.672-7.791-19.98-1.769-87.544-6.094-113.48-4.609C104.374,250.565,100.712,253.959,100.6,258.109Z" transform="translate(-98.386 -249.991)" fill="url(#linear-gradient-13)"/>
          <rect id="Rectángulo_6354" data-name="Rectángulo 6354" width="117.637" height="36.429" rx="10.25" transform="translate(7.481 11.839)" fill="#7d97f4"/>
          <path id="Trazado_116156" data-name="Trazado 116156" d="M223.218,275.2a4.9,4.9,0,0,0-3.451-1.5l-96.114-1.529a4.922,4.922,0,0,0-4.973,4.463l-2,21.32c-.16,1.748,2.709,3.218,6.371,3.262l94.49,1.143c3.641.044,6.677-1.347,6.706-3.095L224.6,278.7a4.878,4.878,0,0,0-1.383-3.5Z" transform="translate(-103.357 -256.02)" fill="#fff" opacity="0.2"/>
        </g>
        <path id="Trazado_116157" data-name="Trazado 116157" d="M135.669,343.646a6.866,6.866,0,0,1-6.866,6.866h-8.366a6.866,6.866,0,0,1-6.866-6.866h0a6.866,6.866,0,0,1,6.866-6.866H128.8a6.866,6.866,0,0,1,6.866,6.866Z" transform="translate(-102.514 -273.586)" fill="url(#linear-gradient-14)"/>
        <path id="Trazado_116158" data-name="Trazado 116158" d="M178.319,343.646a6.866,6.866,0,0,1-6.866,6.866h-8.366a6.866,6.866,0,0,1-6.866-6.866h0a6.866,6.866,0,0,1,6.866-6.866h8.366a6.866,6.866,0,0,1,6.866,6.866Z" transform="translate(-114.109 -273.586)" fill="url(#linear-gradient-15)"/>
        <path id="Trazado_116159" data-name="Trazado 116159" d="M219.322,343.646a6.866,6.866,0,0,1-6.866,6.866H204.1a6.866,6.866,0,0,1-6.866-6.866h0a6.866,6.866,0,0,1,6.866-6.866h8.359a6.866,6.866,0,0,1,6.866,6.866Z" transform="translate(-125.259 -273.586)" fill="url(#linear-gradient-16)"/>
        <path id="Trazado_116160" data-name="Trazado 116160" d="M260.913,344.986a6.976,6.976,0,0,1-6.976,6.983h-8.082a6.976,6.976,0,0,1-6.976-6.983h0a6.975,6.975,0,0,1,6.975-6.975h8.082A6.976,6.976,0,0,1,260.913,344.986Z" transform="translate(-136.582 -273.92)" fill="url(#linear-gradient-17)"/>
        <path id="Trazado_116161" data-name="Trazado 116161" d="M135.669,373.166a6.866,6.866,0,0,1-6.866,6.866h-8.366a6.866,6.866,0,0,1-6.866-6.866h0a6.866,6.866,0,0,1,6.866-6.866H128.8a6.866,6.866,0,0,1,6.866,6.866Z" transform="translate(-102.514 -281.611)" fill="url(#linear-gradient-18)"/>
        <path id="Trazado_116162" data-name="Trazado 116162" d="M178.319,373.166a6.866,6.866,0,0,1-6.866,6.866h-8.366a6.866,6.866,0,0,1-6.866-6.866h0a6.866,6.866,0,0,1,6.866-6.866h8.366a6.866,6.866,0,0,1,6.866,6.866Z" transform="translate(-114.109 -281.611)" fill="url(#linear-gradient-19)"/>
        <path id="Trazado_116163" data-name="Trazado 116163" d="M219.322,373.166a6.866,6.866,0,0,1-6.866,6.866H204.1a6.866,6.866,0,0,1-6.866-6.866h0A6.866,6.866,0,0,1,204.1,366.3h8.359a6.866,6.866,0,0,1,6.866,6.866Z" transform="translate(-125.259 -281.611)" fill="url(#linear-gradient-20)"/>
        <path id="Trazado_116164" data-name="Trazado 116164" d="M261.972,373.166a6.866,6.866,0,0,1-6.866,6.866h-8.359a6.866,6.866,0,0,1-6.866-6.866h0a6.866,6.866,0,0,1,6.866-6.866h8.359a6.866,6.866,0,0,1,6.866,6.866Z" transform="translate(-136.854 -281.611)" fill="url(#linear-gradient-21)"/>
        <g id="Grupo_57224" data-name="Grupo 57224" transform="translate(11.056 103.729)">
          <path id="Trazado_116165" data-name="Trazado 116165" d="M135.669,399.316a6.866,6.866,0,0,1-6.866,6.866h-8.366a6.866,6.866,0,0,1-6.866-6.866h0a6.866,6.866,0,0,1,6.866-6.866H128.8a6.866,6.866,0,0,1,6.866,6.866Z" transform="translate(-113.57 -392.45)" opacity="0.63" fill="url(#linear-gradient-22)"/>
          <path id="Trazado_116166" data-name="Trazado 116166" d="M178.319,399.316a6.866,6.866,0,0,1-6.866,6.866h-8.366a6.866,6.866,0,0,1-6.866-6.866h0a6.866,6.866,0,0,1,6.866-6.866h8.366a6.866,6.866,0,0,1,6.866,6.866Z" transform="translate(-125.165 -392.45)" opacity="0.63" fill="url(#linear-gradient-23)"/>
          <path id="Trazado_116167" data-name="Trazado 116167" d="M219.322,399.316a6.866,6.866,0,0,1-6.866,6.866H204.1a6.866,6.866,0,0,1-6.866-6.866h0a6.866,6.866,0,0,1,6.866-6.866h8.359a6.866,6.866,0,0,1,6.866,6.866Z" transform="translate(-136.314 -392.45)" opacity="0.63" fill="url(#linear-gradient-24)"/>
        </g>
        <g id="Grupo_57225" data-name="Grupo 57225" transform="translate(11.056 124.627)">
          <path id="Trazado_116168" data-name="Trazado 116168" d="M135.669,428.016a6.874,6.874,0,0,1-6.866,6.874h-8.366a6.874,6.874,0,0,1-6.866-6.874h0a6.866,6.866,0,0,1,6.866-6.866H128.8a6.866,6.866,0,0,1,6.866,6.866Z" transform="translate(-113.57 -421.15)" opacity="0.63" fill="url(#linear-gradient-25)"/>
          <path id="Trazado_116169" data-name="Trazado 116169" d="M178.319,428.016a6.874,6.874,0,0,1-6.866,6.874h-8.366a6.874,6.874,0,0,1-6.866-6.874h0a6.874,6.874,0,0,1,6.866-6.866h8.366A6.874,6.874,0,0,1,178.319,428.016Z" transform="translate(-125.165 -421.15)" opacity="0.63" fill="url(#linear-gradient-26)"/>
          <path id="Trazado_116170" data-name="Trazado 116170" d="M219.322,428.016a6.874,6.874,0,0,1-6.866,6.874H204.1a6.874,6.874,0,0,1-6.866-6.874h0a6.866,6.866,0,0,1,6.866-6.866h8.359a6.866,6.866,0,0,1,6.866,6.866Z" transform="translate(-136.314 -421.15)" opacity="0.63" fill="url(#linear-gradient-27)"/>
        </g>
        <rect id="Rectángulo_6355" data-name="Rectángulo 6355" width="17.912" height="34.04" rx="8.956" transform="translate(104.221 105.593)" fill="#7d97f4"/>
      </g>
      <g id="Grupo_57235" data-name="Grupo 57235" transform="translate(166.57 104.482)">
        <g id="Grupo_57232" data-name="Grupo 57232" transform="translate(82.483 24.21)">
          <g id="Grupo_57227" data-name="Grupo 57227" transform="translate(33.712 122.421)">
            <path id="Trazado_116171" data-name="Trazado 116171" d="M373.119,344.86c2.84.248,7.762.648,11.65.816a11.148,11.148,0,0,0,4.449-.437v.248a.8.8,0,0,1-.765.728,136.208,136.208,0,0,1-15.247,0,.568.568,0,0,1-.466-.859A4.367,4.367,0,0,1,373.119,344.86Z" transform="translate(-372.659 -335.045)" fill="url(#linear-gradient-28)"/>
            <path id="Trazado_116172" data-name="Trazado 116172" d="M384.94,343.556c-3.888-.167-8.81-.568-11.65-.816,2.789-3.422,11.65-5.73,11.65-5.73h2.5a10.434,10.434,0,0,1,1.951,6.109,11.148,11.148,0,0,1-4.449.437Z" transform="translate(-372.831 -332.911)" fill="url(#linear-gradient-29)"/>
            <path id="Trazado_116173" data-name="Trazado 116173" d="M391.557,331.38l-.233,4.638a1.056,1.056,0,0,1-.9.99,4.129,4.129,0,0,1-1.879-.153,1.26,1.26,0,0,1-.845-.961l-.808-4.514Z" transform="translate(-376.528 -331.38)" fill="url(#linear-gradient-30)"/>
          </g>
          <g id="Grupo_57229" data-name="Grupo 57229" transform="translate(72.835 118.096)">
            <g id="Grupo_57228" data-name="Grupo 57228" transform="translate(1.157 4.295)">
              <path id="Trazado_116174" data-name="Trazado 116174" d="M436.334,345.38a2.257,2.257,0,0,0,2.024-1.5h0a1.6,1.6,0,0,1-1.078,1.82,7.012,7.012,0,0,1-2.985.466,2.949,2.949,0,0,1-2.235-1.027h0C432.977,345.606,434.281,345.664,436.334,345.38Z" transform="translate(-429.088 -334.749)" fill="url(#linear-gradient-31)"/>
              <path id="Trazado_116175" data-name="Trazado 116175" d="M429.45,331.34h2.061c3.146-.066,5.1,6.553,5.767,9.131a2.257,2.257,0,0,1-2.024,1.5c-2.053.284-3.357.226-4.281-.233a19.049,19.049,0,0,1-2.913-7.412A2.6,2.6,0,0,1,429.45,331.34Z" transform="translate(-427.979 -331.339)" fill="url(#linear-gradient-32)"/>
            </g>
            <path id="Trazado_116176" data-name="Trazado 116176" d="M430.788,325.44l1.143,4.551a1.238,1.238,0,0,1-.641,1.405,4.369,4.369,0,0,1-2.374.575,1.034,1.034,0,0,1-.845-.728l-1.682-4.791Z" transform="translate(-426.39 -325.44)" fill="url(#linear-gradient-33)"/>
          </g>
          <path id="Trazado_116177" data-name="Trazado 116177" d="M417.865,303.07c-1.456,1.26-6.065,1.456-6.065,1.456-16.7-40.047-23.533-45.778-23.533-45.778,2.41,15.131.393,48.625.393,48.625-2.76,1.216-6.313,0-6.313,0a258.49,258.49,0,0,0-8.526-63.4c11.286-.255,17.286-4.114,19.252-5.665C402.479,253.448,417.865,303.07,417.865,303.07Z" transform="translate(-339.263 -183.656)" fill="url(#linear-gradient-34)"/>
          <path id="Trazado_116178" data-name="Trazado 116178" d="M384.54,174.9c2.133,10.66,1.369,29.73.867,38.431-.138,2.447,1.565,5.825,2.949,8.148a.728.728,0,0,1-.3,1.019,50.512,50.512,0,0,1-19.2,5.294,1.282,1.282,0,0,1-1.3-.961C360.825,201.7,352.99,185.65,352.99,185.65,361.64,171.873,384.54,174.9,384.54,174.9Z" transform="translate(-333.6 -166.34)" fill="url(#linear-gradient-35)"/>
          <path id="Trazado_116179" data-name="Trazado 116179" d="M389.5,262.53a.553.553,0,0,0,.277-.08.539.539,0,0,0,.175-.728,16.746,16.746,0,0,0-6.619-5.745.524.524,0,0,0-.728.248.539.539,0,0,0,.248.728,15.961,15.961,0,0,1,6.175,5.345.546.546,0,0,0,.473.233Z" transform="translate(-341.636 -188.442)" fill="url(#linear-gradient-36)"/>
          <g id="Grupo_57230" data-name="Grupo 57230" transform="translate(48.523 8.556)">
            <path id="Trazado_116180" data-name="Trazado 116180" d="M411.618,216.718a36.634,36.634,0,0,1-6.764,16.135l-1.544-1.26a47.634,47.634,0,0,0,.765-15.415A17.553,17.553,0,0,1,411.618,216.718Z" transform="translate(-395.803 -186.136)" fill="url(#linear-gradient-37)"/>
            <path id="Trazado_116181" data-name="Trazado 116181" d="M393,188.106,395.417,175s15.946,12.189,13.4,30.582a18.512,18.512,0,0,0-7.543-.539C400.543,199.109,398.366,192.7,393,188.106Z" transform="translate(-393 -175)" fill="url(#linear-gradient-38)"/>
          </g>
          <g id="Grupo_57231" data-name="Grupo 57231" transform="translate(0 19.31)">
            <path id="Trazado_116182" data-name="Trazado 116182" d="M350.825,189.77l6.153,13.252c-1,8.009-5.294,11.468-9.932,12.793A28.135,28.135,0,0,0,345,207.18C350.92,201.071,350.825,189.77,350.825,189.77Z" transform="translate(-331.428 -189.77)" fill="url(#linear-gradient-39)"/>
            <path id="Trazado_116183" data-name="Trazado 116183" d="M339.932,213.68a28.135,28.135,0,0,1,2.061,8.636c-12.378,4.8-15.633-4.507-15.633-4.507l2.286-.408C333.8,217.947,337.413,216.287,339.932,213.68Z" transform="translate(-326.36 -196.27)" fill="url(#linear-gradient-40)"/>
          </g>
          <path id="Trazado_116184" data-name="Trazado 116184" d="M360.8,166.2l2.978,10.922a2.119,2.119,0,0,0,2.84,1.413,43.444,43.444,0,0,0,4.281-1.959,2.862,2.862,0,0,0,1.012-4.114l-6.182-9.211Z" transform="translate(-335.723 -163.25)" fill="url(#linear-gradient-41)"/>
        </g>
        <path id="Trazado_116185" data-name="Trazado 116185" d="M317.855,209.31l76.134,27.713a5.825,5.825,0,0,1,3.313,7.886l-.226.51a5.417,5.417,0,0,1-7.209,2.672L315.94,213.868Z" transform="translate(-241.044 -151.562)" fill="url(#linear-gradient-42)"/>
        <g id="Grupo_57233" data-name="Grupo 57233" transform="translate(4.23 4.179)" opacity="0.15">
          <ellipse id="Elipse_4441" data-name="Elipse 4441" cx="37.586" cy="36.902" rx="37.586" ry="36.902" fill="#7d97f4"/>
        </g>
        <path id="Trazado_116186" data-name="Trazado 116186" d="M213.08,171.081c0,22.681,18.72,41.067,41.817,41.067s41.86-18.385,41.86-41.067S277.993,130,254.9,130,213.08,148.4,213.08,171.081Zm6.145,0c0-19.347,15.968-35.038,35.679-35.038s35.679,15.691,35.679,35.038-15.975,35.031-35.679,35.031S219.225,190.435,219.225,171.081Z" transform="translate(-213.08 -130)" fill="url(#linear-gradient-43)"/>
        <path id="Trazado_116187" data-name="Trazado 116187" d="M301.273,177.063h0a.189.189,0,0,1-.167-.211c.124-.968.211-1.944.255-2.913a.2.2,0,1,1,.386,0c-.051.976-.138,1.966-.262,2.913a.182.182,0,0,1-.211.211Zm-.284-11.483a.189.189,0,0,1-.189-.153,38.052,38.052,0,0,0-2.228-7.631h0a38.591,38.591,0,0,0-35.941-23.781,39.181,39.181,0,0,0-20.81,5.949.189.189,0,0,1-.262-.058.2.2,0,0,1,.058-.269,39.588,39.588,0,0,1,21.014-6.007,39.006,39.006,0,0,1,36.3,24.028h0a37.865,37.865,0,0,1,2.25,7.7.2.2,0,0,1-.16.226Z" transform="translate(-220.814 -130.986)" fill="#bdd0fb"/>
        <g id="Grupo_57234" data-name="Grupo 57234" transform="translate(97.954 12.956)">
          <path id="Trazado_116188" data-name="Trazado 116188" d="M351.88,155.245c0,.189,2.476,12.466,2.476,12.466l6.983-1.58-.633-11.992S352.331,152.107,351.88,155.245Z" transform="translate(-348.769 -149.342)" fill="url(#linear-gradient-44)"/>
          <path id="Trazado_116189" data-name="Trazado 116189" d="M357.956,155.261l.837,6.284a1.325,1.325,0,0,1,0,.24c-.073.5-.437,2.184-2.133,1.7-1.536-.437-2.913-.816-3.917-.517a.881.881,0,0,0-.6,1.027,38.111,38.111,0,0,0,1.6,5.716.881.881,0,0,0,1.078.524,28.228,28.228,0,0,0,6.145-2.519.874.874,0,0,0,.437-.794c-.066-1.587-.255-6.408-.095-7.762s1.7-2.031,2.374-2.3a.845.845,0,0,0,.488-.488,2.3,2.3,0,0,0-1.544-3.342.888.888,0,0,1-.561-1.15,2.3,2.3,0,0,0-1.289-3.175,3.247,3.247,0,0,0-3.874.932.881.881,0,0,1-1.129.131.728.728,0,0,0-.794,0,.874.874,0,0,1-1.26-.364,2.65,2.65,0,0,0-3.073-1.529c-3.131.539-3.48,4-2.658,6.036s4.187,1.252,5.869.233c1.282-.779,2.913.036,3.641.473A.845.845,0,0,1,357.956,155.261Z" transform="translate(-347.607 -147.793)" fill="url(#linear-gradient-45)"/>
          <path id="Trazado_116190" data-name="Trazado 116190" d="M366.591,164.728s-1.281-3.641.036-4.485,3.277-.422,2.847,2.184C368.921,165.675,366.591,164.728,366.591,164.728Z" transform="translate(-352.616 -151.071)" fill="url(#linear-gradient-46)"/>
        </g>
        <path id="Trazado_116191" data-name="Trazado 116191" d="M400.325,236.873l-7.194-.583L390,239.159s.728,1.019,3.044.437a32.415,32.415,0,0,1,5.461-.728s3.182,1.456,3.218-1.252Z" transform="translate(-261.179 -158.897)" fill="url(#linear-gradient-47)"/>
        <path id="Trazado_116192" data-name="Trazado 116192" d="M325.806,219.654c-.626.481-2.76-.532-4.063-1.231a1.507,1.507,0,0,1-.728-1.777c.313-.99.837-2.272,1.456-2.432C323.57,213.953,328.369,217.645,325.806,219.654Z" transform="translate(-242.405 -152.892)" fill="url(#linear-gradient-48)"/>
        <path id="Trazado_116193" data-name="Trazado 116193" d="M417.863,256.567a.2.2,0,0,1-.182-.131.189.189,0,0,1,.116-.24c2.184-.728,3.335-1.988,3.408-3.641a4.056,4.056,0,0,0-2.665-3.925l-9.145-3.561a.2.2,0,0,1-.109-.255.2.2,0,0,1,.248-.109l9.145,3.568a4.442,4.442,0,0,1,2.913,4.274c-.08,1.842-1.318,3.189-3.641,4Z" transform="translate(-266.418 -161.181)" fill="#bdd0fb"/>
        <path id="Trazado_116194" data-name="Trazado 116194" d="M405.176,243.408H405.1l-1.18-.466a.182.182,0,0,1-.109-.248.189.189,0,0,1,.248-.109l1.18.466a.182.182,0,0,1,.109.248.2.2,0,0,1-.175.109Z" transform="translate(-264.93 -160.604)" fill="#bdd0fb"/>
      </g>
      <g id="Grupo_57240" data-name="Grupo 57240" transform="translate(42.004 195.958)">
        <path id="Trazado_116195" data-name="Trazado 116195" d="M87.953,460s-.546,3.109-.816,6.182a2.119,2.119,0,0,0,2.024,2.294c4.092.175,12.852.5,16.019.364a.728.728,0,0,0,.612-.947h0a1.551,1.551,0,0,0-.794-.83l-14.461-6.648Z" transform="translate(-54.272 -311.191)" fill="url(#linear-gradient-49)"/>
        <path id="Trazado_116196" data-name="Trazado 116196" d="M87.65,457.285,88.087,461s2.534,1.18,4.267-.146l-1.049-4.143Z" transform="translate(-54.414 -310.297)" fill="url(#linear-gradient-50)"/>
        <path id="Trazado_116197" data-name="Trazado 116197" d="M83.811,361.6c-.189.976-1.019,48.4,4.048,69.661a.728.728,0,0,1-.422.837,12.612,12.612,0,0,1-4.129.837,1.238,1.238,0,0,1-1.231-.888c-1.456-4.937-8.4-29.642-9.306-53.248-1.012-26.373,0-.9,0-.9l.6-16.3Z" transform="translate(-50.247 -284.44)" fill="url(#linear-gradient-51)"/>
        <path id="Trazado_116198" data-name="Trazado 116198" d="M64.768,462.23a22.264,22.264,0,0,0-1.718,5.73,1.3,1.3,0,0,0,1.136,1.551c1.347.131,3.43.3,5.1.291a1.289,1.289,0,0,0,1.274-1.456,10.849,10.849,0,0,0-2.534-5.963Z" transform="translate(-47.719 -311.798)" fill="url(#linear-gradient-52)"/>
        <path id="Trazado_116199" data-name="Trazado 116199" d="M64.36,455.588l1.034,5.614a3.765,3.765,0,0,0,3.029.211l-.488-6.043Z" transform="translate(-48.082 -309.933)" fill="url(#linear-gradient-53)"/>
        <path id="Trazado_116200" data-name="Trazado 116200" d="M59.945,362.621c-4.143,25.026.9,61.855,2.6,69.056a1.151,1.151,0,0,0,.91.859,7.631,7.631,0,0,0,3.247-.131,1.027,1.027,0,0,0,.728-.947c.233-5.825-.182-41.606,3.684-55.739a3.24,3.24,0,0,1,1.238-1.777l7.5-5.33L80.434,360Z" transform="translate(-46.448 -284.005)" fill="url(#linear-gradient-54)"/>
        <g id="Grupo_57236" data-name="Grupo 57236" transform="translate(11.95 11.958)">
          <path id="Trazado_116201" data-name="Trazado 116201" d="M86.387,297.721c-12.429-.2-26.14,3.262-26.14,3.262-3.7,21.618-.648,46.542-.648,46.542,9.626,2.527,20.475-1.544,20.475-1.544,1.6-9.029,9.058-34.455,9.058-34.455a40.825,40.825,0,0,0,15.189-4.82,26.75,26.75,0,0,1-5.264-11.017,41.5,41.5,0,0,1-12.67,2.032Z" transform="translate(-58.416 -278.479)" fill="url(#linear-gradient-55)"/>
          <path id="Trazado_116202" data-name="Trazado 116202" d="M138.266,273a2.374,2.374,0,0,0-2.767-.779c-1.828,7.725-11.417,13.987-21.269,17.046a26.75,26.75,0,0,0,5.264,11.017C135.848,291.091,138.266,273,138.266,273Z" transform="translate(-73.59 -272.052)" fill="url(#linear-gradient-56)"/>
        </g>
        <g id="Grupo_57237" data-name="Grupo 57237" transform="translate(73.865)">
          <path id="Trazado_116203" data-name="Trazado 116203" d="M145.911,268.9c.131.408-1.347,1.027-2.221-.633,0-.8-.517-4.209-.036-4.857a63.857,63.857,0,0,1,7.442-7.784,1.165,1.165,0,0,1,.146,1.624l-2.381,2.483a11.65,11.65,0,0,1,1.391,2.752,3.328,3.328,0,0,1-.335,2.454,28.1,28.1,0,0,1-1.529,2.5A3.277,3.277,0,0,1,145.911,268.9Z" transform="translate(-143.449 -255.63)" fill="url(#linear-gradient-57)"/>
          <path id="Trazado_116204" data-name="Trazado 116204" d="M148.379,263.48l-2.184,1.842-.684,1.835,1.937,2.141a24.457,24.457,0,0,1,1.136-4.42C149.071,264.1,148.83,263.713,148.379,263.48Z" transform="translate(-144.009 -257.764)" fill="url(#linear-gradient-58)"/>
        </g>
        <path id="Trazado_116205" data-name="Trazado 116205" d="M60.653,315.007,55.884,303s-11.6,7.857-13.514,17.861a27.443,27.443,0,0,1,10.092,2.7C53.321,318.844,60.653,315.007,60.653,315.007Z" transform="translate(-42.104 -268.508)" fill="url(#linear-gradient-59)"/>
        <path id="Trazado_116206" data-name="Trazado 116206" d="M70.7,332.958s-13.034,7.361-17.432,1.078a4.959,4.959,0,0,1-.9-3.845,27.443,27.443,0,0,0-10.092-2.7,13.835,13.835,0,0,0,1.5,9.466c7.7,14.089,28.652-.779,28.652-.779Z" transform="translate(-42.004 -275.166)" fill="url(#linear-gradient-60)"/>
        <g id="Grupo_57238" data-name="Grupo 57238" transform="translate(27.098 37.821)">
          <path id="Trazado_116207" data-name="Trazado 116207" d="M79.249,337.8l7.092-24.837a.728.728,0,0,1,.612-.517c1.289-.153,5.024-.575,9.335-.939a121.829,121.829,0,0,1,13.674-.561,1.456,1.456,0,0,1,1.252,2.112c-2.665,5.352-10.267,20.388-14.206,25.536a.728.728,0,0,1-.59.291l-16.5-.153a.728.728,0,0,1-.67-.932Z" transform="translate(-79.22 -308.486)" fill="url(#linear-gradient-61)"/>
          <path id="Trazado_116208" data-name="Trazado 116208" d="M103.465,308.437l5.155-.859a.371.371,0,0,1,.415.481l-.51,1.551a.379.379,0,0,1-.306.248l-4.959.663a.371.371,0,0,1-.415-.451l.32-1.347a.371.371,0,0,1,.3-.284Z" transform="translate(-85.64 -307.573)" fill="url(#linear-gradient-62)"/>
          <path id="Trazado_116209" data-name="Trazado 116209" d="M98.394,313.394l.422-2.184a.51.51,0,0,1,.451-.415l10.412-1.056a.517.517,0,0,1,.553.626l-.663,2.76a.524.524,0,0,1-.473.393l-10.194.51a.51.51,0,0,1-.51-.633Z" transform="translate(-84.429 -308.161)" fill="url(#linear-gradient-63)"/>
          <path id="Trazado_116210" data-name="Trazado 116210" d="M81.364,336.42s-.99-4.07-.59-5.527,1.172-3.3,3.75-2.913a38,38,0,0,1,5.628,1.5,1.456,1.456,0,0,1-2.119,1.274l1.216.947s-.167,1.507-1.828.728l1.129,1.252a1.318,1.318,0,0,1-1.93.444C85.405,333.325,84.823,336.915,81.364,336.42Z" transform="translate(-79.616 -313.107)" fill="url(#linear-gradient-64)"/>
        </g>
        <path id="Trazado_116211" data-name="Trazado 116211" d="M78.055,284.63,74.1,296.062a.408.408,0,0,0,.189.5,9.282,9.282,0,0,0,9.641-.648,1.922,1.922,0,0,0,.9-1.383l1.282-9.9Z" transform="translate(-50.724 -263.514)" fill="url(#linear-gradient-65)"/>
        <g id="Grupo_57239" data-name="Grupo 57239" transform="translate(19.762 4.58)">
          <path id="Trazado_116212" data-name="Trazado 116212" d="M87.576,270.09s4.369,8.17,3.786,11.468-5.942,3.065-10.638.386l-3.284-8.825Z" transform="translate(-71.4 -264.141)" fill="url(#linear-gradient-66)"/>
          <path id="Trazado_116213" data-name="Trazado 116213" d="M78.673,275.391a.342.342,0,0,0,.153-.5,8.672,8.672,0,0,1-1.209-2.563s-.779-.5,1.988-1.165,6.888-1.689,7.755-4.041-1.376-8.06-4.915-3.473a.342.342,0,0,1-.539,0c-.583-.728-2.1-2.33-4.23-1.376a3.236,3.236,0,0,0-2.184,3.08.342.342,0,0,1-.4.342,3.881,3.881,0,0,0-4.536,2.112c-.925,2.039-.32,3.189.226,3.75a.335.335,0,0,1-.146.561,2.017,2.017,0,0,0-1.456,2.308c.117,2.133,2.5,1.944,3.182,1.849a.35.35,0,0,1,.3.1c.583.648,3.211,3.386,6.058,3.713a.335.335,0,0,0,.349-.444l-1.231-3.575a.349.349,0,0,1,.189-.422Z" transform="translate(-69.145 -261.92)" fill="url(#linear-gradient-67)"/>
          <path id="Trazado_116214" data-name="Trazado 116214" d="M81.669,280.727s-3.087-2.126-3.313-.335,2.781,2.585,4.274,1.915Z" transform="translate(-71.646 -266.747)" fill="url(#linear-gradient-68)"/>
        </g>
      </g>
      <g id="Grupo_57241" data-name="Grupo 57241" transform="translate(273.089 262.48)">
        <path id="Trazado_116215" data-name="Trazado 116215" d="M362.26,435.234c.546,0,1-.32,1-.728V348.928c0-.393-.451-.728-1-.728s-.99.32-.99.728v85.585C361.27,434.913,361.714,435.234,362.26,435.234Z" transform="translate(-359.887 -347.319)" fill="url(#linear-gradient-69)"/>
        <path id="Trazado_116216" data-name="Trazado 116216" d="M387.16,435c.553,0,1-.328,1-.728v-86.2c0-.393-.444-.728-1-.728s-.99.328-.99.728v86.211C386.17,434.672,386.614,435,387.16,435Z" transform="translate(-366.656 -347.085)" fill="url(#linear-gradient-70)"/>
        <path id="Trazado_116217" data-name="Trazado 116217" d="M462.414,435.658a1.07,1.07,0,0,0,.393-.073.852.852,0,0,0,.524-1.158L421.98,347.5s-2.374-.451-2.184,0l41.678,87.624a1,1,0,0,0,.939.539Z" transform="translate(-375.795 -347.073)" fill="url(#linear-gradient-71)"/>
        <path id="Trazado_116218" data-name="Trazado 116218" d="M419.415,435.744a1.062,1.062,0,0,0,.386-.073.852.852,0,0,0,.524-1.158L379.178,348c-.211-.451-2.41-.539-2.184-.087l41.5,87.3a1.012,1.012,0,0,0,.917.539Z" transform="translate(-364.157 -347.159)" fill="url(#linear-gradient-72)"/>
        <rect id="Rectángulo_6356" data-name="Rectángulo 6356" width="60.93" height="2.505" rx="1.252" transform="translate(60.93 2.505) rotate(180)" fill="url(#linear-gradient-73)"/>
        <rect id="Rectángulo_6357" data-name="Rectángulo 6357" width="31.463" height="1.777" transform="translate(21.8 16.565)" fill="url(#linear-gradient-74)"/>
        <rect id="Rectángulo_6358" data-name="Rectángulo 6358" width="31.463" height="1.777" transform="translate(31.142 36.756)" fill="url(#linear-gradient-75)"/>
        <path id="Trazado_116219" data-name="Trazado 116219" d="M415.223,426.974h31.463a.9.9,0,1,0,0-1.777H415.223a.9.9,0,1,0,0,1.777Z" transform="translate(-374.28 -368.25)" fill="url(#linear-gradient-76)"/>
        <path id="Trazado_116220" data-name="Trazado 116220" d="M428.233,454.7H459.7a.9.9,0,1,0,0-1.777H428.233a.9.9,0,1,0,0,1.777Z" transform="translate(-377.817 -375.789)" fill="url(#linear-gradient-77)"/>
      </g>
      <g id="Grupo_57242" data-name="Grupo 57242" transform="translate(264.832 48.016)">
        <path id="Trazado_116221" data-name="Trazado 116221" d="M350.265,63.459l11.5-9.553a6.2,6.2,0,0,1,3.946-1.456h55.7a6.182,6.182,0,0,1,6.182,6.226V77.767a6.182,6.182,0,0,1-6.182,6.182h-55.7a6.2,6.2,0,0,1-3.947-1.456l-11.5-9.524a6.175,6.175,0,0,1,0-9.509Z" transform="translate(-348.03 -52.45)" fill="url(#linear-gradient-78)"/>
        <rect id="Rectángulo_6359" data-name="Rectángulo 6359" width="19.39" height="19.39" rx="6.49" transform="translate(51.756 5.454)" fill="#fff"/>
        <path id="Trazado_116222" data-name="Trazado 116222" d="M425,68.174l5.206,9.458,5.607-13.973-6.124,7.361Z" transform="translate(-368.956 -55.498)" fill="url(#linear-gradient-79)"/>
      </g>
      <g id="Grupo_57247" data-name="Grupo 57247" transform="translate(80.109 101.562)">
        <g id="Grupo_57243" data-name="Grupo 57243" transform="translate(0 52.768)">
          <circle id="Elipse_4442" data-name="Elipse 4442" cx="12.961" cy="12.961" r="12.961" transform="matrix(0.585, -0.811, 0.811, 0.585, 0, 21.032)" fill="url(#linear-gradient-80)"/>
          <circle id="Elipse_4443" data-name="Elipse 4443" cx="12.531" cy="12.531" r="12.531" transform="translate(1.884 10.919) rotate(-21.14)" fill="url(#linear-gradient-81)"/>
          <path id="Trazado_116223" data-name="Trazado 116223" d="M105.2,213.506a.444.444,0,0,1-.189-.058.415.415,0,0,1-.153-.568,12,12,0,0,1,13.179-5.73.408.408,0,0,1,.306.5.415.415,0,0,1-.5.313,11.452,11.452,0,0,0-1.973-.284,11.082,11.082,0,0,0-10.259,5.614A.437.437,0,0,1,105.2,213.506Z" transform="translate(-97.182 -200.734)" fill="#fff" opacity="0.78"/>
          <circle id="Elipse_4444" data-name="Elipse 4444" cx="10.602" cy="10.602" r="10.602" transform="translate(3.359 18.215) rotate(-44.38)" fill="#fff" opacity="0.78"/>
          <path id="Trazado_116224" data-name="Trazado 116224" d="M116.243,228.7l.058-1.15a9.575,9.575,0,0,1-3.2-.866.67.67,0,0,1-.328-.808l.35-1.056a.663.663,0,0,1,.932-.393,7.885,7.885,0,0,0,2.956.779c1.158.058,2.039-.291,2.082-1.092s-.612-1.194-2.184-1.7c-2.264-.728-3.859-1.828-3.757-3.852.095-1.82,1.5-3.146,3.83-3.4l.058-1.15a.677.677,0,0,1,.728-.641h.677a.677.677,0,0,1,.641.728l-.058,1.034a8.657,8.657,0,0,1,2.541.59.67.67,0,0,1,.379.83l-.32.983a.677.677,0,0,1-.91.4,7.143,7.143,0,0,0-2.49-.583c-1.369-.073-1.791.481-1.82.99,0,.626.772,1.1,2.527,1.74,2.512.9,3.517,2.01,3.415,3.91-.087,1.748-1.456,3.247-3.99,3.51l-.066,1.289a.677.677,0,0,1-.728.641h-.677a.677.677,0,0,1-.648-.728Z" transform="translate(-99.34 -202.512)" fill="url(#linear-gradient-82)"/>
        </g>
        <g id="Grupo_57244" data-name="Grupo 57244" transform="translate(5.829 1.504)">
          <circle id="Elipse_4445" data-name="Elipse 4445" cx="21.152" cy="21.152" r="21.152" transform="translate(2.302 44.602) rotate(-89.41)" fill="url(#linear-gradient-83)"/>
          <circle id="Elipse_4446" data-name="Elipse 4446" cx="20.446" cy="20.446" r="20.446" transform="matrix(0.173, -0.985, 0.985, 0.173, 0, 40.278)" fill="url(#linear-gradient-84)"/>
          <path id="Trazado_116225" data-name="Trazado 116225" d="M112.151,144.408a.371.371,0,0,1-.175-.051.393.393,0,0,1-.146-.539,19.194,19.194,0,0,1,17.73-9.7,19.66,19.66,0,0,1,3.459.488.393.393,0,0,1,.291.473.386.386,0,0,1-.473.291,18.711,18.711,0,0,0-3.313-.466,18.393,18.393,0,0,0-17.009,9.313A.4.4,0,0,1,112.151,144.408Z" transform="translate(-104.907 -129.696)" fill="#fff" opacity="0.78"/>
          <circle id="Elipse_4447" data-name="Elipse 4447" cx="17.308" cy="17.308" r="17.308" transform="translate(0.675 16.988) rotate(-27.99)" fill="#fff" opacity="0.78"/>
          <path id="Trazado_116226" data-name="Trazado 116226" d="M130.057,169.372l.095-1.879a15.35,15.35,0,0,1-5.213-1.456,1.085,1.085,0,0,1-.539-1.311l.568-1.733a1.107,1.107,0,0,1,1.529-.641,12.655,12.655,0,0,0,4.813,1.282c1.893.095,3.335-.473,3.4-1.784.058-1.187-.99-1.944-3.582-2.781-3.692-1.216-6.291-2.993-6.124-6.284.153-2.978,2.447-5.141,6.255-5.556l.095-1.879a1.1,1.1,0,0,1,1.15-1.041l1.107.058a1.1,1.1,0,0,1,1.041,1.172l-.087,1.689a14.1,14.1,0,0,1,4.143.968,1.092,1.092,0,0,1,.612,1.347l-.524,1.6a1.092,1.092,0,0,1-1.456.663,11.352,11.352,0,0,0-4.063-.954c-2.243-.117-2.913.779-2.971,1.609-.051,1.027,1.252,1.8,4.121,2.847,4.1,1.456,5.738,3.277,5.577,6.378-.146,2.847-2.388,5.3-6.553,5.73l-.1,2.1a1.107,1.107,0,0,1-1.158,1.041l-1.1-.058A1.1,1.1,0,0,1,130.057,169.372Z" transform="translate(-108.324 -132.473)" fill="url(#linear-gradient-85)"/>
        </g>
        <g id="Grupo_57245" data-name="Grupo 57245" transform="translate(28.191 34.764)">
          <circle id="Elipse_4448" data-name="Elipse 4448" cx="21.764" cy="21.764" r="21.764" transform="translate(0 37.593) rotate(-59.73)" fill="url(#linear-gradient-86)"/>
          <circle id="Elipse_4449" data-name="Elipse 4449" cx="21.043" cy="21.043" r="21.043" transform="matrix(0.435, -0.9, 0.9, 0.435, 1.658, 39.538)" fill="url(#linear-gradient-87)"/>
          <path id="Trazado_116227" data-name="Trazado 116227" d="M150.581,197.985a.444.444,0,0,1-.175-.051.393.393,0,0,1-.146-.539,19.725,19.725,0,0,1,18.2-9.975,20.679,20.679,0,0,1,3.553.5.393.393,0,0,1-.182.728,19.092,19.092,0,0,0-20.927,9.1A.393.393,0,0,1,150.581,197.985Z" transform="translate(-137.717 -177.446)" fill="#fff" opacity="0.78"/>
          <circle id="Elipse_4450" data-name="Elipse 4450" cx="17.81" cy="17.81" r="17.81" transform="translate(7.96 42.081) rotate(-73)" fill="#fff" opacity="0.78"/>
          <path id="Trazado_116228" data-name="Trazado 116228" d="M169,223.694l.1-1.937a15.771,15.771,0,0,1-5.366-1.456,1.121,1.121,0,0,1-.553-1.354l.583-1.777a1.136,1.136,0,0,1,1.573-.663,13.209,13.209,0,0,0,4.959,1.318c1.944.095,3.422-.488,3.5-1.835.058-1.223-1.019-2-3.684-2.869-3.8-1.245-6.48-3.073-6.306-6.459.16-3.065,2.519-5.286,6.437-5.716l.095-1.937a1.143,1.143,0,0,1,1.187-1.07l1.136.066a1.121,1.121,0,0,1,1.07,1.18l-.087,1.74a14.519,14.519,0,0,1,4.267.99,1.129,1.129,0,0,1,.626,1.391l-.539,1.646a1.121,1.121,0,0,1-1.522.684,11.65,11.65,0,0,0-4.179-.983c-2.308-.117-3.014.8-3.058,1.66-.051,1.049,1.3,1.849,4.245,2.913,4.209,1.507,5.9,3.379,5.738,6.553-.153,2.913-2.461,5.454-6.713,5.9l-.109,2.184a1.121,1.121,0,0,1-1.187,1.063l-1.136-.058a1.129,1.129,0,0,1-1.07-1.172Z" transform="translate(-141.227 -180.313)" fill="url(#linear-gradient-88)"/>
        </g>
        <g id="Grupo_57246" data-name="Grupo 57246" transform="translate(56.491)">
          <circle id="Elipse_4451" data-name="Elipse 4451" cx="17.41" cy="17.41" r="17.41" transform="translate(0.074 34.46) rotate(-80.91)" fill="url(#linear-gradient-89)"/>
          <circle id="Elipse_4452" data-name="Elipse 4452" cx="16.827" cy="16.827" r="16.827" transform="translate(0 32.888) rotate(-77.75)" fill="url(#linear-gradient-90)"/>
          <path id="Trazado_116229" data-name="Trazado 116229" d="M180.687,140.261a.422.422,0,0,1-.35-.641,15.888,15.888,0,0,1,14.686-8.009,15.655,15.655,0,0,1,2.862.4.43.43,0,0,1,.32.517.422.422,0,0,1-.517.32,15.289,15.289,0,0,0-2.709-.386,15.043,15.043,0,0,0-13.9,7.609.422.422,0,0,1-.393.189Z" transform="translate(-174.191 -127.511)" fill="#fff" opacity="0.78"/>
          <circle id="Elipse_4453" data-name="Elipse 4453" cx="14.242" cy="14.242" r="14.242" transform="translate(2.896 10.385) rotate(-15.16)" fill="#fff" opacity="0.78"/>
          <path id="Trazado_116230" data-name="Trazado 116230" d="M195.465,160.747l.08-1.544a12.677,12.677,0,0,1-4.3-1.165.9.9,0,0,1-.437-1.085l.466-1.42a.9.9,0,0,1,1.26-.524,10.631,10.631,0,0,0,3.961,1.048c1.558.08,2.738-.386,2.8-1.456.051-.976-.816-1.595-2.913-2.286-3.044-1-5.184-2.461-5.046-5.17.124-2.454,2.01-4.23,5.148-4.573l.08-1.544a.9.9,0,0,1,.947-.859l.91.051a.9.9,0,0,1,.852.947l-.073,1.391a11.344,11.344,0,0,1,3.415.794.9.9,0,0,1,.5,1.114l-.43,1.311a.9.9,0,0,1-1.216.546,9.335,9.335,0,0,0-3.342-.786c-1.849-.095-2.41.641-2.447,1.325-.044.845,1.034,1.456,3.393,2.345,3.371,1.2,4.718,2.694,4.587,5.25-.124,2.345-1.966,4.369-5.366,4.718l-.087,1.726a.91.91,0,0,1-.947.859l-.91-.044a.91.91,0,0,1-.888-.968Z" transform="translate(-177.042 -129.844)" fill="url(#linear-gradient-91)"/>
        </g>
      </g>
    </g>
  </g>
</svg>
