<svg xmlns="http://www.w3.org/2000/svg" width="543" height="543.95" viewBox="0 0 543 543.95">
  <g id="img7" transform="translate(-149 -21.16)">
    <g id="Grupo_55976" data-name="Grupo 55976" opacity="0.56">
      <path id="Trazado_113338" data-name="Trazado 113338" d="M405.05,24.08V212.6a65.69,65.69,0,0,1-65.62,65.6H150.93V89.69a65.68,65.68,0,0,1,65.6-65.61Z" fill="#5e567b"/>
      <path id="Trazado_113339" data-name="Trazado 113339" d="M692,89.69V278.2H503.45a65.69,65.69,0,0,1-65.62-65.6V24.08H626.35A65.69,65.69,0,0,1,692,89.69Z" fill="#5e567b"/>
      <path id="Trazado_113340" data-name="Trazado 113340" d="M405.05,376.6V565.11H216.53a65.67,65.67,0,0,1-65.6-65.61V311h188.5a65.68,65.68,0,0,1,65.62,65.6Z" fill="#5e567b"/>
      <path id="Trazado_113341" data-name="Trazado 113341" d="M692,311V499.5a65.68,65.68,0,0,1-65.61,65.61H437.83V376.6A65.68,65.68,0,0,1,503.45,311Z" fill="#5e567b"/>
    </g>
    <path id="Trazado_113342" data-name="Trazado 113342" d="M684.89,309.06V494.5A62.61,62.61,0,0,1,622.35,557H436.91V371.6a62.6,62.6,0,0,1,62.54-62.54Z" fill="#f25585" stroke="#d0d2d3" stroke-miterlimit="10" stroke-width="2"/>
    <path id="Trazado_119724" data-name="Trazado 119724" d="M16.834-8.823a11.159,11.159,0,0,1-.965,4.786A7.266,7.266,0,0,1,13.108-.863,7.638,7.638,0,0,1,8.988.254a7.69,7.69,0,0,1-4.1-1.1A7.338,7.338,0,0,1,2.095-4.005a10.839,10.839,0,0,1-1-4.716v-.914a11.1,11.1,0,0,1,.984-4.805,7.326,7.326,0,0,1,2.78-3.187,7.648,7.648,0,0,1,4.107-1.111,7.648,7.648,0,0,1,4.107,1.111,7.326,7.326,0,0,1,2.78,3.187,11.068,11.068,0,0,1,.984,4.792Zm-3.859-.838a7.779,7.779,0,0,0-1.041-4.418A3.393,3.393,0,0,0,8.963-15.59,3.394,3.394,0,0,0,6-14.1,7.69,7.69,0,0,0,4.951-9.725v.9A7.876,7.876,0,0,0,5.992-4.431a3.384,3.384,0,0,0,3,1.562,3.353,3.353,0,0,0,2.945-1.5A7.83,7.83,0,0,0,12.975-8.76Zm18.751,2.92a8.238,8.238,0,0,1-1.441,5.084A4.62,4.62,0,0,1,26.394.254a4.279,4.279,0,0,1-3.364-1.447V5.281H19.36V-13.736h3.4l.127,1.346a4.312,4.312,0,0,1,3.479-1.6,4.651,4.651,0,0,1,3.948,1.879,8.461,8.461,0,0,1,1.409,5.18Zm-3.669-.267a5.406,5.406,0,0,0-.679-2.958A2.212,2.212,0,0,0,25.4-11.007a2.4,2.4,0,0,0-2.374,1.32v5.624a2.443,2.443,0,0,0,2.4,1.358Q28.057-2.7,28.057-7.008ZM33.427-7a8.146,8.146,0,0,1,.787-3.644,5.762,5.762,0,0,1,2.266-2.476,6.611,6.611,0,0,1,3.434-.876,6.255,6.255,0,0,1,4.539,1.7,6.827,6.827,0,0,1,1.961,4.621l.025.939a7.18,7.18,0,0,1-1.765,5.072A6.134,6.134,0,0,1,39.939.254,6.164,6.164,0,0,1,35.2-1.65a7.306,7.306,0,0,1-1.771-5.18Zm3.669.26a5.135,5.135,0,0,0,.736,2.994A2.429,2.429,0,0,0,39.939-2.7a2.435,2.435,0,0,0,2.082-1.024A5.618,5.618,0,0,0,42.771-7a5.083,5.083,0,0,0-.749-2.975,2.435,2.435,0,0,0-2.107-1.055,2.4,2.4,0,0,0-2.082,1.049A5.713,5.713,0,0,0,37.1-6.735ZM56.418-10.3a9.968,9.968,0,0,0-1.32-.1,2.687,2.687,0,0,0-2.729,1.409V0H48.7V-13.736h3.466l.1,1.638a3.4,3.4,0,0,1,3.06-1.892,3.844,3.844,0,0,1,1.143.165Zm7.312-6.817v3.377h2.349v2.691H63.73v6.855A1.637,1.637,0,0,0,64.022-3.1a1.466,1.466,0,0,0,1.117.33,5.851,5.851,0,0,0,1.079-.089v2.78A7.553,7.553,0,0,1,64,.254q-3.859,0-3.936-3.9v-7.4H58.055v-2.691h2.006v-3.377ZM76.349-1.4A4.6,4.6,0,0,1,72.591.254a4.339,4.339,0,0,1-3.371-1.27,5.419,5.419,0,0,1-1.187-3.72v-9H71.7v8.884Q71.7-2.7,73.658-2.7A2.649,2.649,0,0,0,76.222-4v-9.736H79.9V0H76.451Zm9.7-12.34.114,1.587a4.8,4.8,0,0,1,3.948-1.841,3.986,3.986,0,0,1,3.25,1.282,5.983,5.983,0,0,1,1.092,3.834V0H90.784V-8.785a2.38,2.38,0,0,0-.508-1.695,2.273,2.273,0,0,0-1.688-.527,2.524,2.524,0,0,0-2.323,1.32V0H82.6V-13.736ZM101.1,0H97.423V-13.736H101.1Zm-3.9-17.291a1.807,1.807,0,0,1,.552-1.358,2.075,2.075,0,0,1,1.5-.533,2.079,2.079,0,0,1,1.5.533,1.8,1.8,0,0,1,.559,1.358,1.8,1.8,0,0,1-.565,1.371,2.084,2.084,0,0,1-1.492.533,2.084,2.084,0,0,1-1.492-.533A1.8,1.8,0,0,1,97.208-17.291ZM103.555-6.97A8.278,8.278,0,0,1,105-12.086a4.675,4.675,0,0,1,3.942-1.9,4.207,4.207,0,0,1,3.313,1.5V-19.5h3.682V0H112.62l-.178-1.46A4.318,4.318,0,0,1,108.913.254a4.663,4.663,0,0,1-3.891-1.911A8.545,8.545,0,0,1,103.555-6.97Zm3.669.273a5.423,5.423,0,0,0,.673,2.963,2.192,2.192,0,0,0,1.955,1.03,2.455,2.455,0,0,0,2.4-1.437V-9.57a2.42,2.42,0,0,0-2.374-1.437Q107.224-11.007,107.224-6.7ZM126.737,0a4.074,4.074,0,0,1-.368-1.231A4.439,4.439,0,0,1,122.9.254a4.877,4.877,0,0,1-3.345-1.168,3.756,3.756,0,0,1-1.327-2.945,3.882,3.882,0,0,1,1.619-3.352,7.987,7.987,0,0,1,4.678-1.181h1.688v-.787a2.264,2.264,0,0,0-.489-1.523,1.923,1.923,0,0,0-1.542-.571,2.186,2.186,0,0,0-1.454.444A1.509,1.509,0,0,0,122.2-9.61h-3.669a3.686,3.686,0,0,1,.736-2.209,4.867,4.867,0,0,1,2.082-1.593,7.588,7.588,0,0,1,3.021-.578,6,6,0,0,1,4.031,1.276A4.463,4.463,0,0,1,129.9-9.128v5.954a6.567,6.567,0,0,0,.546,2.958V0ZM123.7-2.552a3.16,3.16,0,0,0,1.5-.362,2.376,2.376,0,0,0,1.016-.971V-6.246h-1.371q-2.755,0-2.933,1.9l-.013.216A1.469,1.469,0,0,0,122.382-3,1.874,1.874,0,0,0,123.7-2.552Zm8.442-4.418a8.278,8.278,0,0,1,1.441-5.116,4.675,4.675,0,0,1,3.942-1.9,4.207,4.207,0,0,1,3.313,1.5V-19.5h3.682V0h-3.313l-.178-1.46A4.318,4.318,0,0,1,137.5.254a4.663,4.663,0,0,1-3.891-1.911A8.545,8.545,0,0,1,132.145-6.97Zm3.669.273a5.423,5.423,0,0,0,.673,2.963,2.192,2.192,0,0,0,1.955,1.03,2.455,2.455,0,0,0,2.4-1.437V-9.57a2.42,2.42,0,0,0-2.374-1.437Q135.814-11.007,135.814-6.7ZM153.689.254A6.743,6.743,0,0,1,148.77-1.6a6.588,6.588,0,0,1-1.9-4.938v-.355a8.3,8.3,0,0,1,.8-3.7,5.87,5.87,0,0,1,2.266-2.514,6.36,6.36,0,0,1,3.345-.882,5.7,5.7,0,0,1,4.437,1.777,7.222,7.222,0,0,1,1.619,5.04v1.5h-8.747a3.408,3.408,0,0,0,1.073,2.158,3.243,3.243,0,0,0,2.266.813,3.96,3.96,0,0,0,3.313-1.536l1.8,2.019A5.508,5.508,0,0,1,156.812-.4,7.331,7.331,0,0,1,153.689.254Zm-.419-11.286a2.293,2.293,0,0,0-1.771.74,3.83,3.83,0,0,0-.87,2.117h5.1v-.293a2.731,2.731,0,0,0-.66-1.894A2.365,2.365,0,0,0,153.27-11.032ZM168.86-3.8a1.182,1.182,0,0,0-.667-1.06,7.571,7.571,0,0,0-2.139-.692q-4.9-1.028-4.9-4.164a3.774,3.774,0,0,1,1.517-3.053,6.12,6.12,0,0,1,3.967-1.225,6.587,6.587,0,0,1,4.183,1.231,3.881,3.881,0,0,1,1.568,3.2H168.72a1.775,1.775,0,0,0-.508-1.3,2.149,2.149,0,0,0-1.587-.514,2.2,2.2,0,0,0-1.435.419,1.322,1.322,0,0,0-.508,1.066,1.131,1.131,0,0,0,.578.984,5.942,5.942,0,0,0,1.949.647,15.917,15.917,0,0,1,2.311.616q2.907,1.066,2.907,3.694a3.583,3.583,0,0,1-1.612,3.041A6.955,6.955,0,0,1,166.651.254a7.264,7.264,0,0,1-3.066-.616,5.144,5.144,0,0,1-2.1-1.688,3.923,3.923,0,0,1-.762-2.317H164.2a1.915,1.915,0,0,0,.724,1.5,2.87,2.87,0,0,0,1.8.521,2.657,2.657,0,0,0,1.593-.4A1.244,1.244,0,0,0,168.86-3.8Z" transform="translate(474.93 528.24)" fill="#fff"/>
    <path id="Trazado_113343" data-name="Trazado 113343" d="M398,22.16V207.6a62.6,62.6,0,0,1-62.54,62.52H150V84.69a62.61,62.61,0,0,1,62.54-62.53Z" fill="#472ea6" stroke="#d0d2d3" stroke-miterlimit="10" stroke-width="2"/>
    <path id="Trazado_113344" data-name="Trazado 113344" d="M686.89,84.69V270.12H501.45a62.6,62.6,0,0,1-62.54-62.52V22.16H624.35a62.61,62.61,0,0,1,62.54,62.53Z" fill="#ef2a66" stroke="#d0d2d3" stroke-miterlimit="10" stroke-width="2"/>
    <path id="Trazado_113345" data-name="Trazado 113345" d="M398,371.6V557H212.53A62.62,62.62,0,0,1,150,494.5V309.06H335.43A62.6,62.6,0,0,1,398,371.6Z" fill="#6c58b8" stroke="#d0d2d3" stroke-miterlimit="10" stroke-width="2"/>
    <path id="Trazado_119722" data-name="Trazado 119722" d="M1.65,0V-18.484H7.338a8.637,8.637,0,0,1,4.361,1.1,7.658,7.658,0,0,1,3,3.123,9.633,9.633,0,0,1,1.079,4.6v.851a9.66,9.66,0,0,1-1.06,4.583,7.592,7.592,0,0,1-2.99,3.11A8.7,8.7,0,0,1,7.376,0ZM5.459-15.4V-3.06H7.3a4.136,4.136,0,0,0,3.415-1.46A6.6,6.6,0,0,0,11.921-8.7v-.978a6.7,6.7,0,0,0-1.168-4.272A4.122,4.122,0,0,0,7.338-15.4ZM24.629.254A6.743,6.743,0,0,1,19.709-1.6a6.588,6.588,0,0,1-1.9-4.938v-.355a8.3,8.3,0,0,1,.8-3.7,5.87,5.87,0,0,1,2.266-2.514,6.36,6.36,0,0,1,3.345-.882,5.7,5.7,0,0,1,4.437,1.777,7.222,7.222,0,0,1,1.619,5.04v1.5H21.531A3.408,3.408,0,0,0,22.6-3.517,3.243,3.243,0,0,0,24.87-2.7,3.96,3.96,0,0,0,28.184-4.24l1.8,2.019A5.508,5.508,0,0,1,27.752-.4,7.331,7.331,0,0,1,24.629.254ZM24.21-11.032a2.293,2.293,0,0,0-1.771.74,3.83,3.83,0,0,0-.87,2.117h5.1v-.293a2.731,2.731,0,0,0-.66-1.894A2.365,2.365,0,0,0,24.21-11.032ZM44.738-6.741a8.318,8.318,0,0,1-1.409,5.148A4.668,4.668,0,0,1,39.394.254,4.289,4.289,0,0,1,35.826-1.46L35.661,0h-3.3V-19.5h3.669v7a4.178,4.178,0,0,1,3.339-1.485,4.706,4.706,0,0,1,3.942,1.847,8.33,8.33,0,0,1,1.428,5.2Zm-3.669-.267a5.464,5.464,0,0,0-.66-3.041,2.232,2.232,0,0,0-1.968-.958,2.42,2.42,0,0,0-2.412,1.435v5.421A2.453,2.453,0,0,0,38.467-2.7,2.265,2.265,0,0,0,40.8-4.456,9.038,9.038,0,0,0,41.069-7.008ZM50.87,0H47.188V-13.736H50.87Zm-3.9-17.291a1.807,1.807,0,0,1,.552-1.358,2.075,2.075,0,0,1,1.5-.533,2.079,2.079,0,0,1,1.5.533,1.8,1.8,0,0,1,.559,1.358,1.8,1.8,0,0,1-.565,1.371,2.084,2.084,0,0,1-1.492.533,2.084,2.084,0,0,1-1.492-.533A1.8,1.8,0,0,1,46.973-17.291ZM57.764,0H54.082V-19.5h3.682Zm6.894,0H60.976V-13.736h3.682Zm-3.9-17.291a1.807,1.807,0,0,1,.552-1.358,2.075,2.075,0,0,1,1.5-.533,2.079,2.079,0,0,1,1.5.533,1.8,1.8,0,0,1,.559,1.358,1.8,1.8,0,0,1-.565,1.371,2.084,2.084,0,0,1-1.492.533,2.084,2.084,0,0,1-1.492-.533A1.8,1.8,0,0,1,60.76-17.291ZM67.107-6.97a8.278,8.278,0,0,1,1.441-5.116,4.675,4.675,0,0,1,3.942-1.9,4.207,4.207,0,0,1,3.313,1.5V-19.5h3.682V0H76.172l-.178-1.46A4.318,4.318,0,0,1,72.465.254a4.663,4.663,0,0,1-3.891-1.911A8.545,8.545,0,0,1,67.107-6.97Zm3.669.273a5.423,5.423,0,0,0,.673,2.963A2.192,2.192,0,0,0,73.4-2.7a2.455,2.455,0,0,0,2.4-1.437V-9.57a2.42,2.42,0,0,0-2.374-1.437Q70.776-11.007,70.776-6.7ZM90.289,0a4.074,4.074,0,0,1-.368-1.231A4.439,4.439,0,0,1,86.455.254,4.877,4.877,0,0,1,83.11-.914a3.756,3.756,0,0,1-1.327-2.945A3.882,3.882,0,0,1,83.4-7.211,7.987,7.987,0,0,1,88.08-8.392h1.688v-.787A2.264,2.264,0,0,0,89.28-10.7a1.923,1.923,0,0,0-1.542-.571,2.186,2.186,0,0,0-1.454.444,1.509,1.509,0,0,0-.527,1.219H82.088a3.686,3.686,0,0,1,.736-2.209,4.867,4.867,0,0,1,2.082-1.593,7.588,7.588,0,0,1,3.021-.578,6,6,0,0,1,4.031,1.276A4.463,4.463,0,0,1,93.45-9.128v5.954A6.567,6.567,0,0,0,94-.216V0ZM87.255-2.552a3.16,3.16,0,0,0,1.5-.362,2.376,2.376,0,0,0,1.016-.971V-6.246H88.4q-2.755,0-2.933,1.9l-.013.216A1.469,1.469,0,0,0,85.935-3,1.874,1.874,0,0,0,87.255-2.552ZM95.7-6.97a8.278,8.278,0,0,1,1.441-5.116,4.675,4.675,0,0,1,3.942-1.9,4.207,4.207,0,0,1,3.313,1.5V-19.5h3.682V0h-3.313l-.178-1.46A4.318,4.318,0,0,1,101.055.254a4.663,4.663,0,0,1-3.891-1.911A8.545,8.545,0,0,1,95.7-6.97Zm3.669.273a5.423,5.423,0,0,0,.673,2.963,2.192,2.192,0,0,0,1.955,1.03,2.455,2.455,0,0,0,2.4-1.437V-9.57a2.42,2.42,0,0,0-2.374-1.437Q99.366-11.007,99.366-6.7ZM117.241.254A6.743,6.743,0,0,1,112.322-1.6a6.588,6.588,0,0,1-1.9-4.938v-.355a8.3,8.3,0,0,1,.8-3.7,5.87,5.87,0,0,1,2.266-2.514,6.36,6.36,0,0,1,3.345-.882,5.7,5.7,0,0,1,4.437,1.777,7.222,7.222,0,0,1,1.619,5.04v1.5h-8.747a3.408,3.408,0,0,0,1.073,2.158,3.243,3.243,0,0,0,2.266.813A3.96,3.96,0,0,0,120.8-4.24l1.8,2.019A5.508,5.508,0,0,1,120.364-.4,7.331,7.331,0,0,1,117.241.254Zm-.419-11.286a2.293,2.293,0,0,0-1.771.74,3.83,3.83,0,0,0-.87,2.117h5.1v-.293a2.731,2.731,0,0,0-.66-1.894A2.365,2.365,0,0,0,116.822-11.032ZM132.412-3.8a1.182,1.182,0,0,0-.667-1.06,7.571,7.571,0,0,0-2.139-.692q-4.9-1.028-4.9-4.164a3.774,3.774,0,0,1,1.517-3.053,6.12,6.12,0,0,1,3.967-1.225,6.587,6.587,0,0,1,4.183,1.231,3.881,3.881,0,0,1,1.568,3.2h-3.669a1.775,1.775,0,0,0-.508-1.3,2.149,2.149,0,0,0-1.587-.514,2.2,2.2,0,0,0-1.435.419,1.322,1.322,0,0,0-.508,1.066,1.131,1.131,0,0,0,.578.984,5.942,5.942,0,0,0,1.949.647,15.917,15.917,0,0,1,2.311.616q2.907,1.066,2.907,3.694a3.583,3.583,0,0,1-1.612,3.041A6.955,6.955,0,0,1,130.2.254a7.264,7.264,0,0,1-3.066-.616,5.144,5.144,0,0,1-2.1-1.688,3.923,3.923,0,0,1-.762-2.317h3.479a1.915,1.915,0,0,0,.724,1.5,2.87,2.87,0,0,0,1.8.521,2.657,2.657,0,0,0,1.593-.4A1.244,1.244,0,0,0,132.412-3.8Z" transform="translate(207.83 234.27)" fill="#fff"/>
    <path id="Trazado_119721" data-name="Trazado 119721" d="M12.086-3.809H5.408L4.139,0H.089L6.97-18.484H10.5L17.418,0h-4.05ZM6.437-6.894h4.621L8.734-13.812Zm15.387-6.843.114,1.536a4.827,4.827,0,0,1,3.948-1.79A3.664,3.664,0,0,1,29.53-11.9a4.716,4.716,0,0,1,4.126-2.095,4.1,4.1,0,0,1,3.326,1.3,5.981,5.981,0,0,1,1.092,3.917V0H34.392V-8.76a2.616,2.616,0,0,0-.457-1.708,2.025,2.025,0,0,0-1.612-.54,2.29,2.29,0,0,0-2.285,1.574L30.05,0H26.381V-8.747a2.584,2.584,0,0,0-.47-1.727,2.045,2.045,0,0,0-1.6-.533,2.378,2.378,0,0,0-2.26,1.295V0H18.383V-13.736ZM47.214.254A6.743,6.743,0,0,1,42.295-1.6a6.588,6.588,0,0,1-1.9-4.938v-.355a8.3,8.3,0,0,1,.8-3.7,5.87,5.87,0,0,1,2.266-2.514,6.36,6.36,0,0,1,3.345-.882,5.7,5.7,0,0,1,4.437,1.777,7.222,7.222,0,0,1,1.619,5.04v1.5H44.117a3.408,3.408,0,0,0,1.073,2.158,3.243,3.243,0,0,0,2.266.813A3.96,3.96,0,0,0,50.769-4.24l1.8,2.019A5.508,5.508,0,0,1,50.337-.4,7.331,7.331,0,0,1,47.214.254ZM46.8-11.032a2.293,2.293,0,0,0-1.771.74,3.83,3.83,0,0,0-.87,2.117h5.1v-.293a2.731,2.731,0,0,0-.66-1.894A2.365,2.365,0,0,0,46.8-11.032Zm11.527-2.7.114,1.587a4.8,4.8,0,0,1,3.948-1.841,3.986,3.986,0,0,1,3.25,1.282,5.983,5.983,0,0,1,1.092,3.834V0H63.058V-8.785a2.38,2.38,0,0,0-.508-1.695,2.273,2.273,0,0,0-1.688-.527,2.524,2.524,0,0,0-2.323,1.32V0H54.87V-13.736ZM77.467,0A4.074,4.074,0,0,1,77.1-1.231,4.439,4.439,0,0,1,73.633.254,4.877,4.877,0,0,1,70.288-.914a3.756,3.756,0,0,1-1.327-2.945A3.882,3.882,0,0,1,70.58-7.211a7.987,7.987,0,0,1,4.678-1.181h1.688v-.787a2.264,2.264,0,0,0-.489-1.523,1.923,1.923,0,0,0-1.542-.571,2.186,2.186,0,0,0-1.454.444,1.509,1.509,0,0,0-.527,1.219H69.266A3.686,3.686,0,0,1,70-11.819a4.867,4.867,0,0,1,2.082-1.593,7.588,7.588,0,0,1,3.021-.578,6,6,0,0,1,4.031,1.276,4.463,4.463,0,0,1,1.492,3.586v5.954a6.567,6.567,0,0,0,.546,2.958V0ZM74.433-2.552a3.16,3.16,0,0,0,1.5-.362,2.376,2.376,0,0,0,1.016-.971V-6.246H75.576q-2.755,0-2.933,1.9l-.013.216A1.469,1.469,0,0,0,73.113-3,1.874,1.874,0,0,0,74.433-2.552Zm13.229-.406h6.716V0h-11.4V-2.234l6.462-8.544H83.167v-2.958H94.174v2.162ZM104.635,0a4.074,4.074,0,0,1-.368-1.231A4.439,4.439,0,0,1,100.8.254,4.877,4.877,0,0,1,97.456-.914a3.756,3.756,0,0,1-1.327-2.945,3.882,3.882,0,0,1,1.619-3.352,7.987,7.987,0,0,1,4.678-1.181h1.688v-.787a2.264,2.264,0,0,0-.489-1.523,1.923,1.923,0,0,0-1.542-.571,2.186,2.186,0,0,0-1.454.444A1.509,1.509,0,0,0,100.1-9.61H96.434a3.686,3.686,0,0,1,.736-2.209,4.867,4.867,0,0,1,2.082-1.593,7.588,7.588,0,0,1,3.021-.578,6,6,0,0,1,4.031,1.276A4.463,4.463,0,0,1,107.8-9.128v5.954a6.567,6.567,0,0,0,.546,2.958V0ZM101.6-2.552a3.16,3.16,0,0,0,1.5-.362,2.376,2.376,0,0,0,1.016-.971V-6.246h-1.371q-2.755,0-2.933,1.9l-.013.216A1.469,1.469,0,0,0,100.281-3,1.874,1.874,0,0,0,101.6-2.552ZM118.054-3.8a1.182,1.182,0,0,0-.667-1.06,7.571,7.571,0,0,0-2.139-.692q-4.9-1.028-4.9-4.164a3.774,3.774,0,0,1,1.517-3.053,6.12,6.12,0,0,1,3.967-1.225,6.587,6.587,0,0,1,4.183,1.231,3.881,3.881,0,0,1,1.568,3.2h-3.669a1.775,1.775,0,0,0-.508-1.3,2.149,2.149,0,0,0-1.587-.514,2.2,2.2,0,0,0-1.435.419,1.323,1.323,0,0,0-.508,1.066,1.13,1.13,0,0,0,.578.984,5.942,5.942,0,0,0,1.949.647,15.917,15.917,0,0,1,2.311.616q2.907,1.066,2.907,3.694a3.583,3.583,0,0,1-1.612,3.041A6.955,6.955,0,0,1,115.845.254a7.264,7.264,0,0,1-3.066-.616,5.144,5.144,0,0,1-2.1-1.688,3.923,3.923,0,0,1-.762-2.317H113.4a1.915,1.915,0,0,0,.724,1.5,2.87,2.87,0,0,0,1.8.521,2.657,2.657,0,0,0,1.593-.4A1.244,1.244,0,0,0,118.054-3.8Z" transform="translate(516 239.27)" fill="#fff"/>
    <path id="Trazado_119723" data-name="Trazado 119723" d="M12.771-7.554H5.459V0H1.65V-18.484H13.686V-15.4H5.459v4.773h7.313ZM14.555-7a8.146,8.146,0,0,1,.787-3.644,5.762,5.762,0,0,1,2.266-2.476,6.611,6.611,0,0,1,3.434-.876,6.255,6.255,0,0,1,4.539,1.7,6.827,6.827,0,0,1,1.961,4.621l.025.939A7.18,7.18,0,0,1,25.8-1.657,6.134,6.134,0,0,1,21.068.254a6.164,6.164,0,0,1-4.742-1.9,7.306,7.306,0,0,1-1.771-5.18Zm3.669.26a5.135,5.135,0,0,0,.736,2.994A2.429,2.429,0,0,0,21.068-2.7,2.435,2.435,0,0,0,23.15-3.728,5.618,5.618,0,0,0,23.9-7a5.083,5.083,0,0,0-.749-2.975,2.435,2.435,0,0,0-2.107-1.055,2.4,2.4,0,0,0-2.082,1.049A5.713,5.713,0,0,0,18.224-6.735ZM37.547-10.3a9.968,9.968,0,0,0-1.32-.1A2.687,2.687,0,0,0,33.5-8.988V0H29.828V-13.736h3.466l.1,1.638a3.4,3.4,0,0,1,3.06-1.892,3.844,3.844,0,0,1,1.143.165Zm7.312-6.817v3.377h2.349v2.691H44.859v6.855A1.637,1.637,0,0,0,45.151-3.1a1.467,1.467,0,0,0,1.117.33,5.851,5.851,0,0,0,1.079-.089v2.78a7.553,7.553,0,0,1-2.222.33q-3.859,0-3.936-3.9v-7.4H39.184v-2.691H41.19v-3.377ZM57.211,0a4.074,4.074,0,0,1-.368-1.231A4.439,4.439,0,0,1,53.377.254,4.877,4.877,0,0,1,50.032-.914a3.756,3.756,0,0,1-1.327-2.945,3.882,3.882,0,0,1,1.619-3.352A7.987,7.987,0,0,1,55-8.392h1.688v-.787A2.264,2.264,0,0,0,56.2-10.7a1.923,1.923,0,0,0-1.542-.571,2.186,2.186,0,0,0-1.454.444,1.509,1.509,0,0,0-.527,1.219H49.01a3.685,3.685,0,0,1,.736-2.209,4.867,4.867,0,0,1,2.082-1.593,7.588,7.588,0,0,1,3.021-.578,6,6,0,0,1,4.031,1.276,4.463,4.463,0,0,1,1.492,3.586v5.954a6.567,6.567,0,0,0,.546,2.958V0ZM54.177-2.552a3.16,3.16,0,0,0,1.5-.362,2.376,2.376,0,0,0,1.016-.971V-6.246H55.32q-2.755,0-2.933,1.9l-.013.216A1.469,1.469,0,0,0,52.857-3,1.874,1.874,0,0,0,54.177-2.552ZM67.063,0H63.381V-19.5h3.682Zm9.344.254A6.743,6.743,0,0,1,71.487-1.6a6.588,6.588,0,0,1-1.9-4.938v-.355a8.3,8.3,0,0,1,.8-3.7,5.87,5.87,0,0,1,2.266-2.514A6.36,6.36,0,0,1,76-13.99a5.7,5.7,0,0,1,4.437,1.777,7.222,7.222,0,0,1,1.619,5.04v1.5H73.309a3.408,3.408,0,0,0,1.073,2.158,3.243,3.243,0,0,0,2.266.813A3.96,3.96,0,0,0,79.961-4.24l1.8,2.019A5.508,5.508,0,0,1,79.53-.4,7.331,7.331,0,0,1,76.406.254Zm-.419-11.286a2.293,2.293,0,0,0-1.771.74,3.83,3.83,0,0,0-.87,2.117h5.1v-.293a2.731,2.731,0,0,0-.66-1.894A2.365,2.365,0,0,0,75.988-11.032ZM88.353-2.958h6.716V0h-11.4V-2.234l6.462-8.544H83.859v-2.958H94.865v2.162ZM105.326,0a4.074,4.074,0,0,1-.368-1.231A4.439,4.439,0,0,1,101.492.254,4.877,4.877,0,0,1,98.147-.914a3.756,3.756,0,0,1-1.327-2.945,3.882,3.882,0,0,1,1.619-3.352,7.987,7.987,0,0,1,4.678-1.181h1.688v-.787a2.264,2.264,0,0,0-.489-1.523,1.923,1.923,0,0,0-1.542-.571,2.186,2.186,0,0,0-1.454.444,1.509,1.509,0,0,0-.527,1.219H97.125a3.686,3.686,0,0,1,.736-2.209,4.867,4.867,0,0,1,2.082-1.593,7.588,7.588,0,0,1,3.021-.578A6,6,0,0,1,107-12.714a4.463,4.463,0,0,1,1.492,3.586v5.954a6.567,6.567,0,0,0,.546,2.958V0Zm-3.034-2.552a3.16,3.16,0,0,0,1.5-.362,2.376,2.376,0,0,0,1.016-.971V-6.246h-1.371q-2.755,0-2.933,1.9l-.013.216A1.469,1.469,0,0,0,100.972-3,1.874,1.874,0,0,0,102.292-2.552ZM118.745-3.8a1.182,1.182,0,0,0-.667-1.06,7.571,7.571,0,0,0-2.139-.692q-4.9-1.028-4.9-4.164a3.774,3.774,0,0,1,1.517-3.053,6.12,6.12,0,0,1,3.967-1.225,6.587,6.587,0,0,1,4.183,1.231,3.881,3.881,0,0,1,1.568,3.2h-3.669a1.775,1.775,0,0,0-.508-1.3,2.149,2.149,0,0,0-1.587-.514,2.2,2.2,0,0,0-1.435.419,1.323,1.323,0,0,0-.508,1.066,1.13,1.13,0,0,0,.578.984,5.942,5.942,0,0,0,1.949.647,15.917,15.917,0,0,1,2.311.616q2.907,1.066,2.907,3.694A3.583,3.583,0,0,1,120.7-.908,6.955,6.955,0,0,1,116.536.254a7.264,7.264,0,0,1-3.066-.616,5.144,5.144,0,0,1-2.1-1.688,3.923,3.923,0,0,1-.762-2.317h3.479a1.915,1.915,0,0,0,.724,1.5,2.87,2.87,0,0,0,1.8.521,2.657,2.657,0,0,0,1.593-.4A1.244,1.244,0,0,0,118.745-3.8Z" transform="translate(214.79 528.07)" fill="#fff"/>
    <g id="Grupo_55979" data-name="Grupo 55979" transform="translate(0 44.79)">
      <path id="Trazado_113346" data-name="Trazado 113346" d="M562.9,152.5a5.41,5.41,0,0,1-3.84-1.59h0l-50.21-50.2a5.45,5.45,0,0,1,0-7.68l50.21-50.2a5.43,5.43,0,0,1,7.68,0L616.94,93a5.43,5.43,0,0,1,0,7.68l-50.2,50.2A5.41,5.41,0,0,1,562.9,152.5Zm-1.8-3.63a2.55,2.55,0,0,0,3.6,0l50.2-50.2a2.55,2.55,0,0,0,0-3.6l-50.2-50.2a2.55,2.55,0,0,0-3.6,0l-50.2,50.2a2.55,2.55,0,0,0,0,3.6Z" fill="#fff"/>
      <g id="Grupo_55977" data-name="Grupo 55977">
        <path id="Trazado_113347" data-name="Trazado 113347" d="M542.3,117.26a1.44,1.44,0,0,1-1-.42L523.6,99.16a3.24,3.24,0,0,1,0-4.58L542,76.18a1.45,1.45,0,0,1,2,2L525.6,96.57a.37.37,0,0,0,0,.5l17.68,17.67a1.46,1.46,0,0,1,0,2A1.44,1.44,0,0,1,542.3,117.26Z" fill="#fff"/>
        <path id="Trazado_113348" data-name="Trazado 113348" d="M542.3,118a2.18,2.18,0,0,1-1.53-.63l-17.68-17.7a4,4,0,0,1,0-5.6l18.4-18.39a2.21,2.21,0,0,1,3.06,0,2.17,2.17,0,0,1,0,3.06L526.41,96.87l17.42,17.42a2.12,2.12,0,0,1,.63,1.53A2.185,2.185,0,0,1,542.3,118Zm.72-41.5a.76.76,0,0,0-.52.21L524.11,95.08a2.521,2.521,0,0,0-.74,1.79,2.48,2.48,0,0,0,.74,1.78l17.67,17.68a.76.76,0,0,0,1,0,.74.74,0,0,0,0-1l-17.64-17.7a1.08,1.08,0,0,1,0-1.52l18.4-18.39a.74.74,0,0,0,0-1,.75.75,0,0,0-.54-.24Z" fill="#fff"/>
      </g>
      <g id="Grupo_55978" data-name="Grupo 55978">
        <path id="Trazado_113349" data-name="Trazado 113349" d="M583.5,117.26a1.45,1.45,0,0,1-1-2.47l17.67-17.67a.34.34,0,0,0,0-.5L580,76.47a1.45,1.45,0,1,1,2-2l20.2,20.11a3.25,3.25,0,0,1,0,4.58l-17.68,17.68A1.44,1.44,0,0,1,583.5,117.26Z" fill="#fff"/>
        <path id="Trazado_113350" data-name="Trazado 113350" d="M583.5,118a2.17,2.17,0,0,1-2.17-2.16,2.131,2.131,0,0,1,.64-1.53l17.41-17.42L579.49,77a2.17,2.17,0,0,1,0-3.06,2.21,2.21,0,0,1,3.06,0L602.7,94.07a4,4,0,0,1,0,5.6L585,117.35a2.18,2.18,0,0,1-1.5.65ZM581,74.72a.74.74,0,0,0-.51.21.72.72,0,0,0,0,1l20.15,20.15a1.09,1.09,0,0,1,0,1.52L583,115.3a.74.74,0,0,0,0,1,.76.76,0,0,0,1,0l17.68-17.68a2.54,2.54,0,0,0,0-3.56L581.53,74.93A.74.74,0,0,0,581,74.72ZM599.62,96.61Z" fill="#fff"/>
      </g>
      <path id="Trazado_113351" data-name="Trazado 113351" d="M567.88,109.28h-10a1.45,1.45,0,0,1-1.44-1.3l-3.11-31.11a9.42,9.42,0,0,1,9.38-10.36h.32a9.42,9.42,0,0,1,9.37,10.36L569.32,108a1.44,1.44,0,0,1-1.44,1.28Zm-8.66-2.89h7.36l3-29.81a6.52,6.52,0,0,0-6.5-7.18h-.32a6.52,6.52,0,0,0-6.5,7.18Z" fill="#fff"/>
      <path id="Trazado_113352" data-name="Trazado 113352" d="M563.9,127.23h-2a5.44,5.44,0,0,1-5.43-5.43v-2a5.44,5.44,0,0,1,5.43-5.43h2a5.44,5.44,0,0,1,5.43,5.43v2a5.44,5.44,0,0,1-5.43,5.43Zm-2-10a2.54,2.54,0,0,0-2.54,2.54v2a2.54,2.54,0,0,0,2.54,2.54h2a2.54,2.54,0,0,0,2.54-2.54v-2a2.54,2.54,0,0,0-2.54-2.54Z" fill="#fff"/>
    </g>
    <g id="Grupo_55987" data-name="Grupo 55987" transform="translate(0 44.79)">
      <g id="Grupo_55980" data-name="Grupo 55980">
        <path id="Trazado_113353" data-name="Trazado 113353" d="M260.38,78.8A14.33,14.33,0,0,1,270.54,83h0c.13.13.24.27.36.4l-4.29,4.3c-.12-.14-.21-.29-.34-.42a8.32,8.32,0,0,0-11.77,0l-18.18,18.19a8.32,8.32,0,1,0,11.76,11.76l17.79-17.79,4.28,4.28-17.79,17.79A14.379,14.379,0,1,1,232,101.2L250.22,83a14.35,14.35,0,0,1,10.16-4.2Zm0-2.46a16.73,16.73,0,0,0-11.9,4.93L230.3,99.46a16.83,16.83,0,1,0,23.8,23.8L271.89,105.47a2.46,2.46,0,0,0,0-3.48l-4.28-4.28a2.46,2.46,0,0,0-3.48,0L246.34,115.5a5.855,5.855,0,0,1-8.28-8.28L256.24,89a5.84,5.84,0,0,1,8.24,0h0q.122.166.26.32a2.5,2.5,0,0,0,1.77.84h.08a2.49,2.49,0,0,0,1.74-.72l4.29-4.3a2.46,2.46,0,0,0,.07-3.42l-.09-.1-.33-.36a16.73,16.73,0,0,0-11.91-4.93Z" fill="#fff"/>
        <path id="Trazado_113354" data-name="Trazado 113354" d="M305.77,50.06a14.33,14.33,0,0,1,10.16,4.21h0a14.37,14.37,0,0,1,0,20.32L297.74,92.78a14.36,14.36,0,0,1-20.32,0,13,13,0,0,1-.94-1l4.68-3.9a8.25,8.25,0,0,0,12.3.66l18.19-18.19a8.32,8.32,0,1,0-11.771-11.761L285.12,73.31,280.84,69,295.6,54.27a14.33,14.33,0,0,1,10.17-4.21Zm0-2.46a16.73,16.73,0,0,0-11.91,4.93L279.1,67.29a2.46,2.46,0,0,0,0,3.48l4.28,4.28a2.46,2.46,0,0,0,3.48,0l14.76-14.76a5.86,5.86,0,0,1,8.29,8.28L291.72,86.76a5.87,5.87,0,0,1-8.28,0l-.15-.19c-.07-.1-.15-.19-.22-.28a2.47,2.47,0,0,0-1.67-.9h-.24a2.49,2.49,0,0,0-1.58.57l-4.68,3.9a2.45,2.45,0,0,0-.32,3.45,14.576,14.576,0,0,0,1.1,1.22,16.83,16.83,0,0,0,23.8,0l18.19-18.19a16.83,16.83,0,0,0-11.9-28.73Z" fill="#fff"/>
      </g>
      <g id="Grupo_55981" data-name="Grupo 55981">
        <path id="Trazado_113355" data-name="Trazado 113355" d="M274,56.88h0a2.27,2.27,0,0,1-2.27-2.27V44A2.27,2.27,0,0,1,274,41.76h0A2.27,2.27,0,0,1,276.25,44V54.61A2.27,2.27,0,0,1,274,56.88Z" fill="#fff"/>
        <path id="Trazado_113356" data-name="Trazado 113356" d="M274,57.5a2.89,2.89,0,0,1-2.88-2.89V44a2.88,2.88,0,0,1,5.76,0V54.61A2.89,2.89,0,0,1,274,57.5Zm0-15.13A1.66,1.66,0,0,0,272.32,44V54.61a1.66,1.66,0,1,0,3.32,0V44A1.65,1.65,0,0,0,274,42.37Z" fill="#fff"/>
      </g>
      <g id="Grupo_55982" data-name="Grupo 55982">
        <path id="Trazado_113357" data-name="Trazado 113357" d="M258.48,61h0a2.28,2.28,0,0,1-3.1-.83L250.08,51a2.28,2.28,0,0,1,.83-3.1h0a2.26,2.26,0,0,1,3.1.83l5.3,9.17a2.28,2.28,0,0,1-.83,3.1Z" fill="#fff"/>
        <path id="Trazado_113358" data-name="Trazado 113358" d="M257.35,62a2.86,2.86,0,0,1-2.5-1.44l-5.3-9.17a2.885,2.885,0,1,1,5-2.88l5.3,9.17a2.88,2.88,0,0,1-2.5,4.32ZM252,48.25a1.63,1.63,0,0,0-.82.22,1.66,1.66,0,0,0-.61,2.26l5.3,9.17a1.66,1.66,0,1,0,2.87-1.66l-5.3-9.17A1.65,1.65,0,0,0,252,48.25Z" fill="#fff"/>
      </g>
      <g id="Grupo_55983" data-name="Grupo 55983">
        <path id="Trazado_113359" data-name="Trazado 113359" d="M247.13,72.39h0a2.27,2.27,0,0,1-3.1.83l-9.18-5.3a2.27,2.27,0,0,1-.83-3.09h0a2.28,2.28,0,0,1,3.1-.84l9.17,5.3a2.27,2.27,0,0,1,.84,3.1Z" fill="#fff"/>
        <path id="Trazado_113360" data-name="Trazado 113360" d="M245.15,74.14a2.88,2.88,0,0,1-1.43-.39l-9.17-5.3a2.885,2.885,0,1,1,2.88-5l9.17,5.3a2.88,2.88,0,0,1-1.45,5.38ZM236,64.3a1.66,1.66,0,0,0-.83,3.09l9.17,5.3a1.63,1.63,0,0,0,1.26.16,1.58,1.58,0,0,0,1-.77,1.65,1.65,0,0,0-.6-2.26l-9.17-5.3A1.66,1.66,0,0,0,236,64.3Z" fill="#fff"/>
      </g>
      <g id="Grupo_55984" data-name="Grupo 55984">
        <path id="Trazado_113361" data-name="Trazado 113361" d="M274,118.91h0a2.27,2.27,0,0,1,2.27,2.27v10.58A2.27,2.27,0,0,1,274,134h0a2.27,2.27,0,0,1-2.27-2.27V121.18a2.27,2.27,0,0,1,2.27-2.27Z" fill="#fff"/>
        <path id="Trazado_113362" data-name="Trazado 113362" d="M274,134.65a2.89,2.89,0,0,1-2.88-2.89V121.18a2.88,2.88,0,0,1,5.76,0v10.58a2.89,2.89,0,0,1-2.88,2.89Zm0-15.13a1.66,1.66,0,0,0-1.66,1.66v10.58a1.66,1.66,0,0,0,3.32,0V121.18A1.66,1.66,0,0,0,274,119.52Z" fill="#fff"/>
      </g>
      <g id="Grupo_55985" data-name="Grupo 55985">
        <path id="Trazado_113363" data-name="Trazado 113363" d="M289.49,114.75h0a2.27,2.27,0,0,1,3.1.83l5.29,9.17a2.26,2.26,0,0,1-.83,3.1h0A2.26,2.26,0,0,1,294,127l-5.29-9.17a2.26,2.26,0,0,1,.78-3.08Z" fill="#fff"/>
        <path id="Trazado_113364" data-name="Trazado 113364" d="M295.92,128.77a2.88,2.88,0,0,1-2.5-1.44l-5.29-9.17a2.885,2.885,0,1,1,5-2.88l5.29,9.17a2.88,2.88,0,0,1-1.05,3.93,2.91,2.91,0,0,1-1.45.39Zm-5.3-13.71a1.65,1.65,0,0,0-1.43,2.48l5.29,9.18a1.66,1.66,0,0,0,2.87-1.66l-5.29-9.17a1.67,1.67,0,0,0-1.44-.83Z" fill="#fff"/>
      </g>
      <g id="Grupo_55986" data-name="Grupo 55986">
        <path id="Trazado_113365" data-name="Trazado 113365" d="M300.84,103.4h0a2.26,2.26,0,0,1,3.1-.83l9.17,5.29a2.27,2.27,0,0,1,.83,3.1h0a2.26,2.26,0,0,1-3.1.83l-9.17-5.29a2.26,2.26,0,0,1-.83-3.1Z" fill="#fff"/>
        <path id="Trazado_113366" data-name="Trazado 113366" d="M312,112.71a2.9,2.9,0,0,1-1.44-.38l-9.17-5.3a2.89,2.89,0,0,1-1.05-3.94,2.85,2.85,0,0,1,1.75-1.34,2.82,2.82,0,0,1,2.18.29l9.18,5.29a2.88,2.88,0,0,1-1.45,5.38Zm-9.16-9.83A1.66,1.66,0,0,0,302,106l9.17,5.29a1.61,1.61,0,0,0,1.25.17,1.64,1.64,0,0,0,1-.77,1.67,1.67,0,0,0-.61-2.27l-9.17-5.29a1.63,1.63,0,0,0-.83-.25Z" fill="#fff"/>
      </g>
    </g>
    <g id="Grupo_55988" data-name="Grupo 55988" transform="translate(0 -23)">
      <path id="Trazado_113367" data-name="Trazado 113367" d="M231.92,463.51h-3.74a5.26,5.26,0,0,1-5.25-5.26v-.34h-2.22a5.27,5.27,0,0,1-5.26-5.26v-24.3a5.27,5.27,0,0,1,5.26-5.26h2.22v-.35a5.26,5.26,0,0,1,5.25-5.26h3.74a1.52,1.52,0,0,1,1.52,1.52v43a1.52,1.52,0,0,1-1.52,1.51Zm-11.21-37.38a2.21,2.21,0,0,0-2.22,2.22v24.3a2.22,2.22,0,0,0,2.22,2.22h3.74a1.52,1.52,0,0,1,1.52,1.52v1.86a2.21,2.21,0,0,0,2.21,2.22h2.22v-40h-2.22a2.22,2.22,0,0,0-2.21,2.22v1.87a1.52,1.52,0,0,1-1.52,1.52Z" fill="#fff"/>
      <path id="Trazado_113368" data-name="Trazado 113368" d="M241.27,478.47h-7.48a3.39,3.39,0,0,1-3.39-3.39V405.92a3.39,3.39,0,0,1,3.39-3.39h7.48a3.39,3.39,0,0,1,3.39,3.39v69.16A3.39,3.39,0,0,1,241.27,478.47Zm-7.48-72.9a.35.35,0,0,0-.35.35v69.16a.35.35,0,0,0,.35.35h7.48a.35.35,0,0,0,.35-.35V405.92a.35.35,0,0,0-.35-.35Z" fill="#fff"/>
      <path id="Trazado_113369" data-name="Trazado 113369" d="M252.48,478.47H245a3.39,3.39,0,0,1-3.39-3.39V405.92a3.39,3.39,0,0,1,3.39-3.39h7.47a3.39,3.39,0,0,1,3.39,3.39v69.16a3.39,3.39,0,0,1-3.38,3.39ZM245,405.57a.35.35,0,0,0-.35.35v69.16a.35.35,0,0,0,.35.35h7.47a.35.35,0,0,0,.35-.35V405.92a.34.34,0,0,0-.35-.35Z" fill="#fff"/>
      <path id="Trazado_113370" data-name="Trazado 113370" d="M319.78,463.51H316a1.52,1.52,0,0,1-1.52-1.52V419a1.52,1.52,0,0,1,1.52-1.52h3.74a5.27,5.27,0,0,1,5.26,5.26v.35h2.22a5.27,5.27,0,0,1,5.26,5.26v24.3a5.27,5.27,0,0,1-5.26,5.26H325v.34a5.27,5.27,0,0,1-5.22,5.26Zm-2.22-3h2.22a2.22,2.22,0,0,0,2.22-2.22v-1.86a1.52,1.52,0,0,1,1.52-1.52h3.74a2.22,2.22,0,0,0,2.21-2.22v-24.3a2.21,2.21,0,0,0-2.21-2.22h-3.74a1.52,1.52,0,0,1-1.52-1.52v-1.87a2.23,2.23,0,0,0-2.22-2.22h-2.22Z" fill="#fff"/>
      <path id="Trazado_113371" data-name="Trazado 113371" d="M314.17,478.47h-7.48a3.4,3.4,0,0,1-3.39-3.39V405.92a3.4,3.4,0,0,1,3.39-3.39h7.48a3.39,3.39,0,0,1,3.39,3.39v69.16A3.39,3.39,0,0,1,314.17,478.47Zm-7.48-72.9a.34.34,0,0,0-.34.35v69.16a.35.35,0,0,0,.34.35h7.48a.35.35,0,0,0,.35-.35V405.92a.35.35,0,0,0-.35-.35Z" fill="#fff"/>
      <path id="Trazado_113372" data-name="Trazado 113372" d="M303,478.47h-7.48a3.39,3.39,0,0,1-3.39-3.39V405.92a3.39,3.39,0,0,1,3.39-3.39H303a3.4,3.4,0,0,1,3.39,3.39v69.16a3.4,3.4,0,0,1-3.39,3.39Zm-7.48-72.9a.35.35,0,0,0-.35.35v69.16a.35.35,0,0,0,.35.35H303a.35.35,0,0,0,.34-.35V405.92a.34.34,0,0,0-.34-.35Z" fill="#fff"/>
      <path id="Trazado_113373" data-name="Trazado 113373" d="M293.61,448.56H254.35a1.52,1.52,0,0,1-1.52-1.52V434a1.52,1.52,0,0,1,1.52-1.52h39.26a1.52,1.52,0,0,1,1.52,1.52v13a1.52,1.52,0,0,1-1.52,1.56Zm-37.74-3h36.22v-10H255.87Z" fill="#fff"/>
    </g>
    <g id="Grupo_55993" data-name="Grupo 55993" transform="translate(0 -23)">
      <g id="Grupo_55989" data-name="Grupo 55989">
        <path id="Trazado_113374" data-name="Trazado 113374" d="M557.32,447.58a1.288,1.288,0,0,1-.72-2.36l47.67-32.3a1.292,1.292,0,1,1,1.45,2.14l-47.67,32.3a1.319,1.319,0,0,1-.73.22Z" fill="#fff"/>
        <path id="Trazado_113375" data-name="Trazado 113375" d="M557.32,448.22a1.91,1.91,0,0,1-1.6-.85,1.94,1.94,0,0,1,.51-2.69l47.68-32.29a1.933,1.933,0,0,1,2.17,3.2l-47.67,32.3A1.94,1.94,0,0,1,557.32,448.22ZM605,413.34a.7.7,0,0,0-.37.11L557,445.75a.65.65,0,0,0-.18.9.67.67,0,0,0,.9.18l47.68-32.3a.65.65,0,0,0-.36-1.19Z" fill="#fff"/>
      </g>
      <path id="Trazado_113376" data-name="Trazado 113376" d="M581.93,430.66a1.29,1.29,0,0,1-1.25-1.64l3.08-10.77a1.27,1.27,0,0,1,.5-.7l15.38-10.77a1.3,1.3,0,0,1,2,1l.19,9.15a1.28,1.28,0,0,1-.58,1.1L582.6,430.42A1.28,1.28,0,0,1,581.93,430.66Zm4.19-11.26-2,7,15.14-10.05-.13-6Z" fill="#fff"/>
      <path id="Trazado_113377" data-name="Trazado 113377" d="M592.69,432.2h-.18l-10.77-1.54a1.27,1.27,0,0,1-1.07-1,1.29,1.29,0,0,1,.54-1.37L599.67,416a1.25,1.25,0,0,1,1.05-.17l9.34,2.48a1.29,1.29,0,0,1,.94,1,1.27,1.27,0,0,1-.56,1.29l-17,11.35a1.22,1.22,0,0,1-.75.25Zm-7.23-3.63,6.93,1,14.23-9.49-6-1.6Z" fill="#fff"/>
      <g id="Grupo_55990" data-name="Grupo 55990">
        <path id="Trazado_113378" data-name="Trazado 113378" d="M558.09,466a20.52,20.52,0,1,1,10.45-38.18,1.291,1.291,0,0,1-1.32,2.22,17.94,17.94,0,1,0,8.8,15.44,18.151,18.151,0,0,0-.2-2.67,1.295,1.295,0,1,1,2.56-.39,20.908,20.908,0,0,1,.23,3.06A20.55,20.55,0,0,1,558.09,466Z" fill="#fff"/>
        <path id="Trazado_113379" data-name="Trazado 113379" d="M558.09,466.68a21.16,21.16,0,1,1,10.78-39.37,1.93,1.93,0,0,1,.68,2.65,2,2,0,0,1-1.19.89,1.94,1.94,0,0,1-1.47-.21,17.29,17.29,0,1,0,8.49,14.88,18.451,18.451,0,0,0-.19-2.58,2,2,0,0,1,.35-1.44,1.92,1.92,0,0,1,1.28-.76,1.88,1.88,0,0,1,1.43.36,1.91,1.91,0,0,1,.77,1.27,22,22,0,0,1,.23,3.15,21.18,21.18,0,0,1-21.16,21.16Zm0-41A19.88,19.88,0,1,0,578,445.52a19.471,19.471,0,0,0-.22-3,.62.62,0,0,0-.25-.43A.64.64,0,0,0,577,442a.65.65,0,0,0-.43.26.64.64,0,0,0-.12.48,18.262,18.262,0,0,1,.2,2.77,18.57,18.57,0,1,1-9.11-16,.6.6,0,0,0,.49.07.64.64,0,0,0,.4-.3.65.65,0,0,0,.07-.49.64.64,0,0,0-.3-.4,19.84,19.84,0,0,0-10.11-2.75Z" fill="#fff"/>
      </g>
      <g id="Grupo_55991" data-name="Grupo 55991">
        <path id="Trazado_113380" data-name="Trazado 113380" d="M558.09,478.34a32.82,32.82,0,1,1,16.72-61.07,1.291,1.291,0,1,1-1.32,2.22,30.24,30.24,0,1,0,14.83,26A30.8,30.8,0,0,0,588,441a1.294,1.294,0,0,1,2.56-.38,33.2,33.2,0,0,1,.36,4.89,32.85,32.85,0,0,1-32.83,32.83Z" fill="#fff"/>
        <path id="Trazado_113381" data-name="Trazado 113381" d="M558.09,479a33.47,33.47,0,1,1,17-62.26,1.942,1.942,0,1,1-2,3.33,29.59,29.59,0,1,0,14.19,21.06,1.942,1.942,0,1,1,3.84-.58,34.587,34.587,0,0,1,.36,5A33.5,33.5,0,0,1,558.09,479Zm0-65.64a32.18,32.18,0,1,0,32.18,32.18,31.786,31.786,0,0,0-.36-4.79.65.65,0,0,0-.74-.55.64.64,0,0,0-.54.74,31.938,31.938,0,0,1,.34,4.6,30.86,30.86,0,1,1-15.15-26.58.6.6,0,0,0,.49.07.64.64,0,0,0,.4-.3.66.66,0,0,0-.23-.89,32.15,32.15,0,0,0-16.39-4.5Z" fill="#fff"/>
      </g>
      <g id="Grupo_55992" data-name="Grupo 55992">
        <path id="Trazado_113382" data-name="Trazado 113382" d="M558.09,492.18a46.66,46.66,0,1,1,26-85.42,1.3,1.3,0,1,1-1.45,2.15,44,44,0,1,0,18.17,25.71,1.3,1.3,0,0,1,2.51-.64,46.73,46.73,0,0,1-45.23,58.2Z" fill="#fff"/>
        <path id="Trazado_113383" data-name="Trazado 113383" d="M558.09,492.82a47.31,47.31,0,1,1,26.36-86.59,1.94,1.94,0,0,1,.52,2.69,1.89,1.89,0,0,1-1.23.82,1.94,1.94,0,0,1-1.45-.29,43.36,43.36,0,1,0,17.89,25.33,1.94,1.94,0,0,1,3.76-.95,47.33,47.33,0,0,1-45.85,59Zm0-93.32a46,46,0,1,0,44.6,34.64.66.66,0,0,0-.79-.47.65.65,0,0,0-.47.79A44.74,44.74,0,1,1,583,408.38a.71.71,0,0,0,.49.1.72.72,0,0,0,.42-.28.65.65,0,0,0-.18-.9,45.82,45.82,0,0,0-25.64-7.8Z" fill="#fff"/>
      </g>
    </g>
    <g id="Grupo_55994" data-name="Grupo 55994">
      <path id="Trazado_113384" data-name="Trazado 113384" d="M329.87,302.3a92.19,92.19,0,0,0,114.78,80.84" fill="none" stroke="#fd8f25" stroke-miterlimit="10" stroke-width="12"/>
      <path id="Trazado_113385" data-name="Trazado 113385" d="M310.43,316.13l19.95-7.27,19.1,9.32-17.1-47.31Z" fill="#fd8f25"/>
    </g>
    <g id="Grupo_55995" data-name="Grupo 55995">
      <path id="Trazado_113386" data-name="Trazado 113386" d="M513.47,285.4a92.19,92.19,0,0,0-114.78-80.84" fill="none" stroke="#fd8f25" stroke-miterlimit="10" stroke-width="12"/>
      <path id="Trazado_113387" data-name="Trazado 113387" d="M532.91,271.56l-19.96,7.28-19.09-9.32,17.1,47.31Z" fill="#fd8f25"/>
    </g>
  </g>
</svg>
