<svg xmlns="http://www.w3.org/2000/svg" xmlns:xlink="http://www.w3.org/1999/xlink" width="307.947" height="298.002" viewBox="0 0 307.947 298.002">
  <defs>
    <linearGradient id="linear-gradient" x1="0.565" y1="1.179" x2="0.523" y2="0.432" gradientUnits="objectBoundingBox">
      <stop offset="0" stop-color="#35237d"/>
      <stop offset="1" stop-color="#6c58b8"/>
    </linearGradient>
    <linearGradient id="linear-gradient-2" x1="0.576" y1="-15.039" x2="0.522" y2="-4.117" gradientUnits="objectBoundingBox">
      <stop offset="0" stop-color="#120c2a"/>
      <stop offset="1" stop-color="#472ea6"/>
    </linearGradient>
    <linearGradient id="linear-gradient-3" x1="0.648" y1="-10.136" x2="0.571" y2="-4.675" xlink:href="#linear-gradient-2"/>
    <linearGradient id="linear-gradient-4" x1="3.045" y1="-4.048" x2="2.136" y2="-2.424" gradientUnits="objectBoundingBox">
      <stop offset="0" stop-color="#4042e2"/>
      <stop offset="1" stop-color="#4f52ff"/>
    </linearGradient>
    <linearGradient id="linear-gradient-5" x1="2.986" y1="-3.943" x2="2.077" y2="-2.318" xlink:href="#linear-gradient-4"/>
    <linearGradient id="linear-gradient-6" x1="2.927" y1="-3.837" x2="2.018" y2="-2.212" xlink:href="#linear-gradient-4"/>
    <linearGradient id="linear-gradient-7" x1="2.868" y1="-3.731" x2="1.959" y2="-2.107" xlink:href="#linear-gradient-4"/>
    <linearGradient id="linear-gradient-8" x1="2.809" y1="-3.626" x2="1.9" y2="-2.001" xlink:href="#linear-gradient-4"/>
    <linearGradient id="linear-gradient-9" x1="2.75" y1="-3.52" x2="1.841" y2="-1.895" xlink:href="#linear-gradient-4"/>
    <clipPath id="clip-path">
      <path id="Trazado_115748" data-name="Trazado 115748" d="M175.244,326.337,170.31,222.89H313.922L308.6,326.519Z" transform="translate(-170.31 -222.89)" fill="#7d97f4"/>
    </clipPath>
    <linearGradient id="linear-gradient-10" y1="0.5" x2="1" y2="0.5" gradientUnits="objectBoundingBox">
      <stop offset="0" stop-color="#dae3fe"/>
      <stop offset="1" stop-color="#e9effd"/>
    </linearGradient>
    <linearGradient id="linear-gradient-11" x1="0" y1="0.5" y2="0.5" xlink:href="#linear-gradient-10"/>
    <linearGradient id="linear-gradient-12" x1="1.744" y1="1.014" x2="1.939" y2="0.903" gradientUnits="objectBoundingBox">
      <stop offset="0" stop-color="#febbba"/>
      <stop offset="1" stop-color="#ff928e"/>
    </linearGradient>
    <linearGradient id="linear-gradient-13" x1="0.958" y1="1.293" x2="1.637" y2="2.484" gradientUnits="objectBoundingBox">
      <stop offset="0" stop-color="#09005d"/>
      <stop offset="1" stop-color="#1a0f91"/>
    </linearGradient>
    <linearGradient id="linear-gradient-14" x1="4.821" y1="1.186" x2="6.385" y2="3.549" gradientUnits="objectBoundingBox">
      <stop offset="0" stop-color="#e1473d"/>
      <stop offset="1" stop-color="#e9605a"/>
    </linearGradient>
    <linearGradient id="linear-gradient-15" x1="3.638" y1="-3.285" x2="5.797" y2="-4.35" xlink:href="#linear-gradient-12"/>
    <linearGradient id="linear-gradient-16" x1="5.135" y1="0.954" x2="4.364" y2="1.819" xlink:href="#linear-gradient-13"/>
    <linearGradient id="linear-gradient-17" x1="0.659" y1="-0.186" x2="-0.028" y2="2.783" xlink:href="#linear-gradient-13"/>
    <linearGradient id="linear-gradient-18" x1="0.15" y1="0.857" x2="0.85" y2="0.143" xlink:href="#linear-gradient-13"/>
    <linearGradient id="linear-gradient-19" x1="-54.027" y1="20.709" x2="-53.966" y2="20.709" xlink:href="#linear-gradient-13"/>
    <linearGradient id="linear-gradient-20" x1="-56.079" y1="18.736" x2="-56.013" y2="18.736" xlink:href="#linear-gradient-13"/>
    <linearGradient id="linear-gradient-21" x1="-54.878" y1="237.171" x2="-54.833" y2="237.171" xlink:href="#linear-gradient-13"/>
    <linearGradient id="linear-gradient-22" x1="-68.354" y1="280.91" x2="-68.309" y2="280.91" xlink:href="#linear-gradient-13"/>
    <linearGradient id="linear-gradient-23" x1="-67.802" y1="148.608" x2="-67.728" y2="148.608" xlink:href="#linear-gradient-13"/>
    <linearGradient id="linear-gradient-24" x1="-69.046" y1="145.197" x2="-68.973" y2="145.197" xlink:href="#linear-gradient-13"/>
    <linearGradient id="linear-gradient-25" x1="67.126" y1="294.148" x2="67.171" y2="294.148" xlink:href="#linear-gradient-13"/>
    <linearGradient id="linear-gradient-26" x1="65.379" y1="301.528" x2="65.424" y2="301.528" xlink:href="#linear-gradient-13"/>
    <linearGradient id="linear-gradient-27" x1="-41.362" y1="132.691" x2="-40.655" y2="132.691" xlink:href="#linear-gradient-13"/>
    <linearGradient id="linear-gradient-28" x1="-41.869" y1="135.915" x2="-41.162" y2="135.915" xlink:href="#linear-gradient-13"/>
    <linearGradient id="linear-gradient-29" x1="0.659" y1="-0.186" x2="-0.028" y2="2.783" xlink:href="#linear-gradient-13"/>
    <linearGradient id="linear-gradient-31" x1="-52.312" y1="24.819" x2="-52.251" y2="24.819" xlink:href="#linear-gradient-13"/>
    <linearGradient id="linear-gradient-32" x1="-54.251" y1="23.429" x2="-54.186" y2="23.429" xlink:href="#linear-gradient-13"/>
    <linearGradient id="linear-gradient-33" x1="-49.25" y1="251.37" x2="-49.205" y2="251.37" xlink:href="#linear-gradient-13"/>
    <linearGradient id="linear-gradient-34" x1="-61.536" y1="298.175" x2="-61.491" y2="298.175" xlink:href="#linear-gradient-13"/>
    <linearGradient id="linear-gradient-35" x1="-51.738" y1="152.267" x2="-51.666" y2="152.267" xlink:href="#linear-gradient-13"/>
    <linearGradient id="linear-gradient-36" x1="-52.95" y1="148.879" x2="-52.877" y2="148.879" xlink:href="#linear-gradient-13"/>
    <linearGradient id="linear-gradient-37" x1="73.927" y1="276.495" x2="73.972" y2="276.495" xlink:href="#linear-gradient-13"/>
    <linearGradient id="linear-gradient-38" x1="72.157" y1="283.949" x2="72.202" y2="283.949" xlink:href="#linear-gradient-13"/>
    <linearGradient id="linear-gradient-39" x1="128.669" y1="132.792" x2="129.368" y2="132.792" xlink:href="#linear-gradient-13"/>
    <linearGradient id="linear-gradient-40" x1="128.197" y1="136.018" x2="128.904" y2="136.018" xlink:href="#linear-gradient-13"/>
    <linearGradient id="linear-gradient-41" x1="-33.959" y1="12.754" x2="-34.716" y2="15.695" xlink:href="#linear-gradient-12"/>
    <linearGradient id="linear-gradient-42" x1="0.5" y1="-6.343" x2="0.5" y2="-3.898" gradientUnits="objectBoundingBox">
      <stop offset="0" stop-color="#ff928e"/>
      <stop offset="1" stop-color="#fe7062"/>
    </linearGradient>
    <linearGradient id="linear-gradient-43" x1="0.607" y1="-1.389" x2="0.475" y2="1.39" xlink:href="#linear-gradient-42"/>
    <linearGradient id="linear-gradient-44" x1="0.905" y1="2.334" x2="0.58" y2="0.617" xlink:href="#linear-gradient-14"/>
    <linearGradient id="linear-gradient-45" x1="0.236" y1="0.784" x2="1.075" y2="-0.435" gradientUnits="objectBoundingBox">
      <stop offset="0" stop-color="#2c50ff"/>
      <stop offset="1" stop-color="#1a1b80"/>
    </linearGradient>
    <linearGradient id="linear-gradient-46" x1="0.65" y1="0.471" x2="1.749" y2="0.163" xlink:href="#linear-gradient-12"/>
    <linearGradient id="linear-gradient-47" x1="0" y1="0.5" x2="1.004" y2="0.5" xlink:href="#linear-gradient-13"/>
    <linearGradient id="linear-gradient-48" x1="0" y1="0.5" x2="1" y2="0.5" xlink:href="#linear-gradient-13"/>
    <linearGradient id="linear-gradient-49" x1="-0.768" y1="-5.657" x2="0.184" y2="-1.065" xlink:href="#linear-gradient-13"/>
    <linearGradient id="linear-gradient-50" x1="16.869" y1="-67.867" x2="17.85" y2="-66.439" xlink:href="#linear-gradient-13"/>
    <linearGradient id="linear-gradient-51" x1="0" y1="0.5" x2="1" y2="0.5" xlink:href="#linear-gradient-13"/>
    <linearGradient id="linear-gradient-52" x1="-0.307" y1="1.173" x2="0.886" y2="0.217" xlink:href="#linear-gradient-13"/>
    <linearGradient id="linear-gradient-53" x1="0.96" y1="1.296" x2="1.639" y2="2.491" xlink:href="#linear-gradient-13"/>
    <linearGradient id="linear-gradient-54" x1="1.152" y1="1.456" x2="2.759" y2="3.693" xlink:href="#linear-gradient-14"/>
    <linearGradient id="linear-gradient-55" x1="-0.792" y1="1.161" x2="0.979" y2="0.205" xlink:href="#linear-gradient-12"/>
    <linearGradient id="linear-gradient-56" x1="3.089" y1="-1.876" x2="2.397" y2="-1.246" xlink:href="#linear-gradient-13"/>
    <linearGradient id="linear-gradient-57" x1="0.588" y1="-0.2" x2="0.194" y2="2.949" xlink:href="#linear-gradient-13"/>
    <linearGradient id="linear-gradient-58" x1="-58.885" y1="-118.012" x2="-60.017" y2="-116.738" xlink:href="#linear-gradient-12"/>
    <linearGradient id="linear-gradient-59" x1="-45.785" y1="-78.265" x2="-44.843" y2="-78.265" xlink:href="#linear-gradient-13"/>
    <linearGradient id="linear-gradient-60" x1="0.691" y1="0.526" x2="-0.616" y2="0.246" xlink:href="#linear-gradient-42"/>
    <linearGradient id="linear-gradient-61" x1="0.062" y1="1.026" x2="-6.119" y2="7.395" xlink:href="#linear-gradient-14"/>
    <linearGradient id="linear-gradient-62" x1="-0.997" y1="0.752" x2="-19.887" y2="4.441" xlink:href="#linear-gradient-14"/>
    <linearGradient id="linear-gradient-63" x1="1.104" y1="0.287" x2="-15.016" y2="4.975" xlink:href="#linear-gradient-14"/>
    <linearGradient id="linear-gradient-64" x1="-0.254" y1="-0.177" x2="2.182" y2="1.952" xlink:href="#linear-gradient-14"/>
    <linearGradient id="linear-gradient-65" x1="-0.246" y1="-0.308" x2="2.118" y2="1.809" xlink:href="#linear-gradient-14"/>
    <linearGradient id="linear-gradient-66" x1="-202.963" y1="-370.616" x2="-200.02" y2="-373.03" xlink:href="#linear-gradient-12"/>
    <linearGradient id="linear-gradient-67" x1="531.39" y1="0.072" x2="532.559" y2="3.841" gradientUnits="objectBoundingBox">
      <stop offset="0" stop-color="#ff928e"/>
      <stop offset="1" stop-color="#feb3b1"/>
    </linearGradient>
    <linearGradient id="linear-gradient-68" x1="0.197" y1="0.688" x2="-1.414" y2="1.413" xlink:href="#linear-gradient-4"/>
    <linearGradient id="linear-gradient-69" x1="21.985" y1="4.638" x2="22.395" y2="-1.207" xlink:href="#linear-gradient-4"/>
    <linearGradient id="linear-gradient-70" x1="21.791" y1="-1.386" x2="21.647" y2="6.178" xlink:href="#linear-gradient-4"/>
    <linearGradient id="linear-gradient-71" x1="45.574" y1="3.989" x2="46.431" y2="-2.111" xlink:href="#linear-gradient-4"/>
    <linearGradient id="linear-gradient-72" x1="0.506" y1="-0.606" x2="0.755" y2="-26.614" xlink:href="#linear-gradient-4"/>
    <linearGradient id="linear-gradient-73" x1="0.001" y1="0.5" x2="0.999" y2="0.5" xlink:href="#linear-gradient-67"/>
    <linearGradient id="linear-gradient-74" x1="83.813" y1="0.5" x2="84.809" y2="0.5" xlink:href="#linear-gradient-67"/>
    <linearGradient id="linear-gradient-75" x1="199.395" y1="0.809" x2="199.427" y2="-0.418" xlink:href="#linear-gradient-4"/>
    <linearGradient id="linear-gradient-76" x1="9.726" y1="-7.36" x2="4.723" y2="-3.098" xlink:href="#linear-gradient-13"/>
    <linearGradient id="linear-gradient-77" x1="236.863" y1="-12.726" x2="237.426" y2="-11.936" xlink:href="#linear-gradient-4"/>
    <linearGradient id="linear-gradient-78" x1="0.687" y1="-0.225" x2="0.416" y2="1.333" xlink:href="#linear-gradient-67"/>
    <linearGradient id="linear-gradient-79" x1="27.543" y1="-3.588" x2="28.315" y2="-2.28" xlink:href="#linear-gradient-67"/>
    <linearGradient id="linear-gradient-80" x1="26.133" y1="0.162" x2="27.023" y2="1.144" xlink:href="#linear-gradient-13"/>
    <linearGradient id="linear-gradient-81" x1="111.328" y1="-12.477" x2="114.495" y2="-8.209" xlink:href="#linear-gradient-67"/>
    <linearGradient id="linear-gradient-82" x1="0.848" y1="0.322" x2="-1.989" y2="1.814" xlink:href="#linear-gradient-10"/>
    <linearGradient id="linear-gradient-83" x1="1.194" y1="-0.638" x2="0.015" y2="1.197" xlink:href="#linear-gradient-10"/>
    <linearGradient id="linear-gradient-84" x1="908.47" y1="59.184" x2="913.518" y2="56.816" xlink:href="#linear-gradient-67"/>
    <linearGradient id="linear-gradient-85" x1="335.58" y1="-23.904" x2="336.372" y2="-22.437" xlink:href="#linear-gradient-4"/>
    <linearGradient id="linear-gradient-86" x1="2.69" y1="-3.985" x2="1.379" y2="-1.167" xlink:href="#linear-gradient-67"/>
    <linearGradient id="linear-gradient-87" x1="898.468" y1="80.811" x2="903.46" y2="77.545" xlink:href="#linear-gradient-67"/>
    <linearGradient id="linear-gradient-88" x1="-27.921" y1="-0.297" x2="-29.004" y2="4.371" xlink:href="#linear-gradient-4"/>
    <linearGradient id="linear-gradient-89" x1="0.55" y1="-0.302" x2="0.41" y2="2.354" xlink:href="#linear-gradient-4"/>
    <linearGradient id="linear-gradient-90" x1="0.613" y1="-1.431" x2="0.56" y2="-0.696" xlink:href="#linear-gradient-4"/>
    <linearGradient id="linear-gradient-91" x1="0.617" y1="-2.232" x2="0.207" y2="7.342" xlink:href="#linear-gradient-4"/>
  </defs>
  <g id="img8" transform="translate(-23.8 -47.783)">
    <g id="Grupo_57101" data-name="Grupo 57101" transform="translate(81.744 56.278)">
      <path id="Trazado_115742" data-name="Trazado 115742" d="M116.75,67.66,128.5,275.64H324.035l8.43-207.98Z" transform="translate(-111.959 -62.74)" fill="url(#linear-gradient)"/>
      <path id="Trazado_115743" data-name="Trazado 115743" d="M330.9,69.5H113.41a2.4,2.4,0,0,1-2.3-1.7l-1.35-4.313a2.409,2.409,0,0,1,2.308-3.118H331.561a2.409,2.409,0,0,1,2.4,2.774l-.675,4.313A2.409,2.409,0,0,1,330.9,69.5Z" transform="translate(-109.652 -60.37)" fill="url(#linear-gradient-2)"/>
      <path id="Trazado_115744" data-name="Trazado 115744" d="M330.9,165.282H113.41a2.4,2.4,0,0,1-2.3-1.7l-1.35-4.313a2.41,2.41,0,0,1,2.308-3.118H331.561a2.409,2.409,0,0,1,2.383,2.774l-.675,4.313A2.41,2.41,0,0,1,330.9,165.282Z" transform="translate(-109.652 -91.505)" fill="url(#linear-gradient-3)"/>
      <g id="Grupo_57095" data-name="Grupo 57095" transform="translate(5.742 21.78)">
        <path id="Trazado_115745" data-name="Trazado 115745" d="M331.04,122.155l1.2-29.515H118.16l1.667,29.515Z" transform="translate(-118.16 -92.64)" fill="#91b3fa"/>
        <rect id="Rectángulo_6289" data-name="Rectángulo 6289" width="4.92" height="29.515" transform="translate(23.643)" fill="url(#linear-gradient-4)"/>
        <rect id="Rectángulo_6290" data-name="Rectángulo 6290" width="4.92" height="29.515" transform="translate(57.369)" fill="url(#linear-gradient-5)"/>
        <rect id="Rectángulo_6291" data-name="Rectángulo 6291" width="4.92" height="29.515" transform="translate(91.095)" fill="url(#linear-gradient-6)"/>
        <rect id="Rectángulo_6292" data-name="Rectángulo 6292" width="4.92" height="29.515" transform="translate(124.822)" fill="url(#linear-gradient-7)"/>
        <rect id="Rectángulo_6293" data-name="Rectángulo 6293" width="4.92" height="29.515" transform="translate(158.548)" fill="url(#linear-gradient-8)"/>
        <rect id="Rectángulo_6294" data-name="Rectángulo 6294" width="4.92" height="29.515" transform="translate(192.274)" fill="url(#linear-gradient-9)"/>
      </g>
      <g id="Grupo_57100" data-name="Grupo 57100" transform="translate(29.851 85.23)">
        <path id="Trazado_115746" data-name="Trazado 115746" d="M168.064,319.661,163.4,206l152.811-3.753-4.536,117.411Z" transform="translate(-156.975 -191.721)" fill="#7d97f4"/>
        <g id="Grupo_57098" data-name="Grupo 57098" transform="translate(11.089 24.459)">
          <path id="Trazado_115747" data-name="Trazado 115747" d="M175.244,326.337,170.31,222.89H313.922L308.6,326.519Z" transform="translate(-170.31 -222.89)" fill="#7d97f4"/>
          <g id="Grupo_57097" data-name="Grupo 57097" clip-path="url(#clip-path)">
            <g id="Grupo_57096" data-name="Grupo 57096" transform="translate(-3.098 8.464)">
              <rect id="Rectángulo_6295" data-name="Rectángulo 6295" width="149.571" height="3.766" fill="#91b3fa"/>
              <rect id="Rectángulo_6296" data-name="Rectángulo 6296" width="149.571" height="3.766" transform="translate(0 8.47)" fill="#91b3fa"/>
              <rect id="Rectángulo_6297" data-name="Rectángulo 6297" width="149.571" height="3.766" transform="translate(0 16.934)" fill="#91b3fa"/>
              <rect id="Rectángulo_6298" data-name="Rectángulo 6298" width="149.571" height="3.766" transform="translate(0 25.404)" fill="#91b3fa"/>
              <rect id="Rectángulo_6299" data-name="Rectángulo 6299" width="149.571" height="4.232" transform="translate(0 33.868)" fill="#91b3fa"/>
              <rect id="Rectángulo_6300" data-name="Rectángulo 6300" width="149.571" height="4.232" transform="translate(0 42.332)" fill="#91b3fa"/>
              <rect id="Rectángulo_6301" data-name="Rectángulo 6301" width="149.571" height="4.232" transform="translate(0 50.802)" fill="#91b3fa"/>
              <rect id="Rectángulo_6302" data-name="Rectángulo 6302" width="149.571" height="4.232" transform="translate(0 59.266)" fill="#91b3fa"/>
              <rect id="Rectángulo_6303" data-name="Rectángulo 6303" width="149.571" height="4.232" transform="translate(0 67.736)" fill="#91b3fa"/>
              <rect id="Rectángulo_6304" data-name="Rectángulo 6304" width="149.571" height="4.232" transform="translate(0 76.2)" fill="#91b3fa"/>
              <rect id="Rectángulo_6305" data-name="Rectángulo 6305" width="149.571" height="4.232" transform="translate(0 84.67)" fill="#91b3fa"/>
            </g>
          </g>
        </g>
        <g id="Grupo_57099" data-name="Grupo 57099">
          <rect id="Rectángulo_6306" data-name="Rectángulo 6306" width="164.157" height="26.808" rx="4.51" transform="translate(1.404 1.411)" fill="#fd8f25"/>
          <path id="Trazado_115749" data-name="Trazado 115749" d="M319.913,211.292a4.05,4.05,0,0,1-4.05,4.05H157.93a4.05,4.05,0,0,1-4.05-4.05V190.7a4.05,4.05,0,0,1,4.05-4.05H315.863a4.05,4.05,0,0,1,4.05,4.05Zm-1.883-20.248a2.025,2.025,0,0,0-2.025-2.025H157.795a2.025,2.025,0,0,0-2.025,2.025v20.39a2.025,2.025,0,0,0,2.025,2.025H316a2.025,2.025,0,0,0,2.025-2.025Z" transform="translate(-153.88 -186.65)" fill="url(#linear-gradient-10)"/>
        </g>
      </g>
      <rect id="Rectángulo_6307" data-name="Rectángulo 6307" width="204.605" height="7.525" rx="3.763" transform="translate(11.972 209.404)" fill="#91b3fa"/>
      <text id="Colombia_Bike_Accesorios" data-name="Colombia Bike Accesorios" transform="translate(36.236 106.517)" font-size="13" font-family="Roboto-Regular, Roboto"><tspan x="0" y="0">Colombia Bi</tspan><tspan y="0" letter-spacing="-0.01em">k</tspan><tspan y="0">e Accesorios</tspan></text>
    </g>
    <g id="Grupo_57108" data-name="Grupo 57108" transform="translate(232.063 138.087)">
      <g id="Grupo_57105" data-name="Grupo 57105" transform="translate(0 36.446)">
        <g id="Grupo_57102" data-name="Grupo 57102">
          <path id="Trazado_115750" data-name="Trazado 115750" d="M355.607,361.975a.472.472,0,0,1-.324-.128c-.459-.425-.918-.864-1.35-1.309a.477.477,0,0,1,.675-.675c.439.439.891.871,1.35,1.289a.466.466,0,0,1,0,.675A.479.479,0,0,1,355.607,361.975Z" transform="translate(-339.334 -275.935)" fill="#91b3fa"/>
          <path id="Trazado_115751" data-name="Trazado 115751" d="M343.155,315.749a.473.473,0,0,1-.371-.182c-.783-1.012-1.539-2.072-2.247-3.152a.466.466,0,0,1,.135-.675.459.459,0,0,1,.675.135c.675,1.053,1.438,2.092,2.214,3.091a.466.466,0,0,1-.088.675A.472.472,0,0,1,343.155,315.749Zm-5.312-8.538a.466.466,0,0,1-.425-.263c-.567-1.154-1.093-2.349-1.566-3.543a.466.466,0,0,1,.263-.607.472.472,0,0,1,.614.263c.459,1.168.979,2.342,1.532,3.476a.466.466,0,0,1-.418.675Zm-3.483-9.449a.466.466,0,0,1-.452-.351c-.324-1.242-.594-2.517-.817-3.786a.473.473,0,1,1,.931-.162c.216,1.242.479,2.49.8,3.712a.472.472,0,0,1-.344.574.319.319,0,0,1-.115.027Zm-1.471-9.942a.479.479,0,0,1-.472-.452c-.034-.715-.047-1.444-.047-2.153,0-.574,0-1.147.034-1.721a.472.472,0,0,1,.938.034v1.687c0,.675,0,1.411.04,2.113a.472.472,0,0,1-.445.493Zm.58-10.009H333.4a.472.472,0,0,1-.391-.54c.209-1.262.466-2.544.776-3.793a.469.469,0,1,1,.911.223c-.3,1.228-.553,2.484-.756,3.726A.479.479,0,0,1,333.47,277.812Zm2.625-9.706a.459.459,0,0,1-.439-.634c.459-1.2.972-2.4,1.525-3.564a.468.468,0,1,1,.844.4c-.54,1.141-1.039,2.315-1.492,3.489a.472.472,0,0,1-.425.283Zm4.536-8.97a.453.453,0,0,1-.257-.074.473.473,0,0,1-.142-.675c.675-1.08,1.444-2.153,2.221-3.172a.466.466,0,0,1,.675-.094.472.472,0,0,1,.095.675c-.763,1.006-1.5,2.025-2.173,3.111a.473.473,0,0,1-.4.209Zm6.27-7.856a.452.452,0,0,1-.331-.135.466.466,0,0,1,0-.675c.9-.918,1.856-1.809,2.828-2.652a.466.466,0,1,1,.614.675c-.952.83-1.883,1.7-2.767,2.605a.5.5,0,0,1-.331.162Zm7.755-6.4a.466.466,0,0,1-.391-.209.472.472,0,0,1,.128-.675c1.066-.709,2.18-1.39,3.3-2.025a.472.472,0,1,1,.459.823c-1.1.614-2.194,1.282-3.24,1.978a.459.459,0,0,1-.243.088Zm8.889-4.725a.466.466,0,0,1-.439-.29.472.472,0,0,1,.263-.614c1.195-.479,2.416-.925,3.645-1.309a.472.472,0,0,1,.283.9c-1.2.378-2.409.81-3.577,1.282a.392.392,0,0,1-.162.041Zm9.658-2.787a.472.472,0,0,1-.081-.938c1.269-.223,2.558-.4,3.834-.533a.459.459,0,0,1,.513.418.472.472,0,0,1-.418.52c-1.255.122-2.518.3-3.759.526Z" transform="translate(-332.37 -235.682)" fill="#91b3fa"/>
          <path id="Trazado_115752" data-name="Trazado 115752" d="M409.429,236.613h-.034c-.614-.047-1.242-.074-1.856-.094a.466.466,0,0,1-.459-.479.473.473,0,0,1,.486-.459c.628,0,1.262.047,1.9.094a.472.472,0,0,1,.439.5A.479.479,0,0,1,409.429,236.613Z" transform="translate(-356.656 -235.58)" fill="#91b3fa"/>
        </g>
        <g id="Grupo_57103" data-name="Grupo 57103" transform="translate(43.544 15.894)">
          <path id="Trazado_115753" data-name="Trazado 115753" d="M460.372,261.5a.466.466,0,0,1-.358-.169c-.4-.466-.81-.938-1.235-1.4a.472.472,0,0,1,.034-.675.466.466,0,0,1,.675.034c.432.466.85.945,1.255,1.424a.472.472,0,0,1-.358.776Z" transform="translate(-416.965 -259.129)" fill="#91b3fa"/>
          <path id="Trazado_115754" data-name="Trazado 115754" d="M409.245,345.272a.469.469,0,0,1-.02-.938c1.242-.068,2.491-.175,3.719-.337a.473.473,0,0,1,.122.938c-1.255.155-2.531.27-3.793.337Zm9.807-1.492a.459.459,0,0,1-.452-.351.466.466,0,0,1,.337-.574c1.2-.31,2.4-.675,3.577-1.08a.479.479,0,0,1,.6.3.466.466,0,0,1-.3.594c-1.195.412-2.423.783-3.645,1.1a.369.369,0,0,1-.121.013Zm9.28-3.442a.472.472,0,0,1-.209-.891l.675-.351c.877-.445,1.755-.925,2.6-1.417a.466.466,0,0,1,.675.162.473.473,0,0,1-.162.675c-.864.506-1.755.992-2.646,1.451l-.715.351a.445.445,0,0,1-.243.007Zm8.4-5.217a.472.472,0,0,1-.284-.844c.979-.756,1.944-1.559,2.868-2.389a.466.466,0,0,1,.628.675c-.938.85-1.924,1.667-2.922,2.443a.513.513,0,0,1-.317.1Zm7.181-6.8a.472.472,0,0,1-.358-.776c.81-.945,1.593-1.924,2.329-2.929a.473.473,0,1,1,.763.56c-.749,1.019-1.552,2.025-2.376,2.983a.466.466,0,0,1-.385.148Zm5.663-8.1a.477.477,0,0,1-.412-.729c.607-1.087,1.174-2.207,1.694-3.334a.472.472,0,0,1,.628-.229.466.466,0,0,1,.229.621c-.533,1.154-1.114,2.295-1.728,3.375a.479.479,0,0,1-.439.27Zm3.894-9.1a.513.513,0,0,1-.142,0,.479.479,0,0,1-.31-.594c.378-1.181.709-2.4,1-3.6a.466.466,0,0,1,.56-.351.473.473,0,0,1,.351.567c-.29,1.228-.628,2.47-1.012,3.672a.466.466,0,0,1-.445.31Zm2.025-9.685h-.054a.466.466,0,0,1-.412-.52c.128-1.235.216-2.491.25-3.726a.459.459,0,0,1,.486-.459.466.466,0,0,1,.452.486,35.918,35.918,0,0,1-.256,3.8.466.466,0,0,1-.466.418Zm.047-9.894a.466.466,0,0,1-.466-.425c-.121-1.235-.29-2.477-.506-3.705a.472.472,0,0,1,.925-.162c.223,1.249.391,2.517.513,3.78a.466.466,0,0,1-.418.513Zm-1.951-9.7a.466.466,0,0,1-.445-.331c-.365-1.181-.783-2.369-1.242-3.53a.478.478,0,0,1,.891-.344c.472,1.181.9,2.389,1.269,3.6a.473.473,0,0,1-.31.587.513.513,0,0,1-.148.02Zm-3.854-9.112a.479.479,0,0,1-.419-.243c-.594-1.093-1.235-2.173-1.917-3.213a.472.472,0,0,1,.79-.513c.675,1.06,1.35,2.16,1.957,3.273a.466.466,0,0,1-.189.634.459.459,0,0,1-.209.061Z" transform="translate(-400.752 -262.201)" fill="#91b3fa"/>
          <path id="Trazado_115755" data-name="Trazado 115755" d="M399.231,381.562h-.04c-.628-.047-1.262-.108-1.89-.182a.473.473,0,0,1-.412-.52.466.466,0,0,1,.52-.412c.614.068,1.235.128,1.856.176a.472.472,0,0,1-.034.938Z" transform="translate(-396.886 -298.565)" fill="#91b3fa"/>
        </g>
        <g id="Grupo_57104" data-name="Grupo 57104" transform="translate(12.361 12.162)">
          <path id="Trazado_115756" data-name="Trazado 115756" d="M378.927,327.545a.587.587,0,0,0,.675-.182l4.488-5.582a31.1,31.1,0,0,0,10.124-.472l4.994,5.136a.581.581,0,0,0,.675.121l7.708-3.658a.587.587,0,0,0,.337-.594l-.769-7.121a31.088,31.088,0,0,0,6.8-7.478l7.168.1a.594.594,0,0,0,.56-.391l2.916-8.1a.594.594,0,0,0-.189-.675l-5.575-4.495a31.255,31.255,0,0,0-.472-10.124l5.129-4.995a.587.587,0,0,0,.121-.675l-3.651-7.775a.587.587,0,0,0-.6-.331l-7.053.823a31.346,31.346,0,0,0-7.478-6.8l.095-7.161a.574.574,0,0,0-.385-.56l-8.1-2.916a.587.587,0,0,0-.675.182l-4.5,5.582a31.257,31.257,0,0,0-10.124.472l-4.995-5.136a.587.587,0,0,0-.675-.122l-7.714,3.658a.587.587,0,0,0-.337.594l.736,7.148a31.215,31.215,0,0,0-6.8,7.424l-7.168-.1a.594.594,0,0,0-.56.391l-2.916,8.1a.594.594,0,0,0,.189.675l5.575,4.5a31.248,31.248,0,0,0,.472,10.124l-5.129,4.995a.587.587,0,0,0-.121.675l3.651,7.768a.594.594,0,0,0,.6.337l7.087-.8a31.343,31.343,0,0,0,7.478,6.8l-.054,7.154a.587.587,0,0,0,.385.567Z" transform="translate(-350.684 -253.6)" fill="#91b3fa"/>
          <path id="Trazado_115757" data-name="Trazado 115757" d="M401.494,312.724a5.793,5.793,0,0,1-.837-.04,8.342,8.342,0,1,1,.837.04Zm0-15.26a6.983,6.983,0,1,1-.02,0Z" transform="translate(-364.484 -267.396)" fill="#bdd0fb"/>
          <path id="Trazado_115758" data-name="Trazado 115758" d="M400.045,318.718l-.317-1.35a20.35,20.35,0,0,0,4.05-1.4,19.863,19.863,0,0,0,9.591-9.577c.27-.574.513-1.161.736-1.762a20.038,20.038,0,1,0-30.048,9.814l-.79,1.168a21.443,21.443,0,1,1,21.092,1.613,21.818,21.818,0,0,1-3.449,1.276h-.1l-.25.068A1.9,1.9,0,0,1,400.045,318.718Z" transform="translate(-358.195 -261.004)" fill="#bdd0fb"/>
        </g>
      </g>
      <path id="Trazado_115759" data-name="Trazado 115759" d="M428.319,230.3l2.261-3.314a17.4,17.4,0,0,0,5.622-.715l3.017,2.646a.324.324,0,0,0,.378.04l4.212-2.362a.324.324,0,0,0,.155-.344l-.742-3.942a17.724,17.724,0,0,0,3.469-4.482l4-.263a.324.324,0,0,0,.3-.243l1.269-4.644a.317.317,0,0,0-.135-.358l-3.314-2.261a17.582,17.582,0,0,0-.709-5.622l2.646-3.017a.337.337,0,0,0,.034-.385l-2.383-4.178a.337.337,0,0,0-.351-.162l-3.942.749a17.3,17.3,0,0,0-4.482-3.469l-.263-4.009a.324.324,0,0,0-.236-.3l-4.65-1.269a.337.337,0,0,0-.358.135l-2.261,3.314a17.4,17.4,0,0,0-5.622.715l-3.017-2.646a.324.324,0,0,0-.378-.04l-4.185,2.389a.324.324,0,0,0-.155.344l.742,3.942a17.724,17.724,0,0,0-3.469,4.482l-4,.263a.324.324,0,0,0-.3.243L410.2,206.19a.317.317,0,0,0,.135.358l3.314,2.268a17.549,17.549,0,0,0,.709,5.615l-2.646,3.017a.337.337,0,0,0-.034.385l2.383,4.178a.337.337,0,0,0,.351.162l3.942-.749a17.306,17.306,0,0,0,4.482,3.469l.263,4.009a.324.324,0,0,0,.236.3l4.65,1.269A.337.337,0,0,0,428.319,230.3Z" transform="translate(-357.667 -183.796)" fill="#91b3fa"/>
      <path id="Trazado_115760" data-name="Trazado 115760" d="M438.851,222h-.1a5.1,5.1,0,1,1,.1,0Zm0-8.551a3.53,3.53,0,0,0-2.47,1,3.57,3.57,0,1,0,4.947,5.143h0a3.57,3.57,0,0,0-2.4-6.142Z" transform="translate(-365.311 -191.407)" fill="#bdd0fb"/>
      <g id="Grupo_57106" data-name="Grupo 57106" transform="translate(47.279 0)">
        <path id="Trazado_115761" data-name="Trazado 115761" d="M423.654,253.784a.425.425,0,0,1-.2-.047c-.574-.277-1.147-.574-1.694-.9a.469.469,0,0,1,.472-.81c.526.3,1.073.594,1.627.864a.466.466,0,0,1-.2.891Z" transform="translate(-408.63 -204.46)" fill="#91b3fa"/>
        <path id="Trazado_115762" data-name="Trazado 115762" d="M410.56,227.584a.445.445,0,0,1-.331-.135l-.493-.493a27.188,27.188,0,0,1-2.214-2.619.472.472,0,0,1,.1-.675.466.466,0,0,1,.675.1,26.185,26.185,0,0,0,2.139,2.531l.473.472a.479.479,0,0,1,0,.675A.473.473,0,0,1,410.56,227.584ZM404.7,218.81a.472.472,0,0,1-.432-.3,25.883,25.883,0,0,1-1.228-3.942.472.472,0,0,1,.358-.56.466.466,0,0,1,.56.358,26.545,26.545,0,0,0,1.181,3.793.472.472,0,0,1-.263.614.506.506,0,0,1-.175.014Zm-1.822-10.428h0a.479.479,0,0,1-.459-.486,27,27,0,0,1,.459-4.1.468.468,0,0,1,.918.182,25.793,25.793,0,0,0-.432,3.948A.472.472,0,0,1,402.879,208.382Zm2.484-10.272a.445.445,0,0,1-.2-.047.479.479,0,0,1-.223-.628,26.507,26.507,0,0,1,2.065-3.57.479.479,0,0,1,.675-.121.472.472,0,0,1,.115.675,26.015,26.015,0,0,0-1.984,3.442.472.472,0,0,1-.445.25Zm6.405-8.4a.466.466,0,0,1-.358-.162.479.479,0,0,1,.047-.675,26.575,26.575,0,0,1,3.314-2.45.472.472,0,0,1,.675.148.466.466,0,0,1-.148.675,25.941,25.941,0,0,0-3.2,2.369.472.472,0,0,1-.331.095Z" transform="translate(-402.42 -183.126)" fill="#91b3fa"/>
        <path id="Trazado_115763" data-name="Trazado 115763" d="M429.783,183a.472.472,0,0,1-.135-.918c.607-.189,1.228-.358,1.843-.5a.472.472,0,0,1,.216.918c-.6.135-1.195.3-1.782.479A.513.513,0,0,1,429.783,183Z" transform="translate(-411.168 -181.58)" fill="#91b3fa"/>
      </g>
      <g id="Grupo_57107" data-name="Grupo 57107" transform="translate(77.744 2.944)">
        <path id="Trazado_115764" data-name="Trazado 115764" d="M462.188,187.884a.445.445,0,0,1-.27-.088c-.5-.351-1.026-.675-1.552-1a.472.472,0,0,1,.479-.81c.547.324,1.093.675,1.613,1.039a.472.472,0,0,1-.27.857Z" transform="translate(-451.657 -185.942)" fill="#91b3fa"/>
        <path id="Trazado_115765" data-name="Trazado 115765" d="M459.662,234.21a.459.459,0,0,1-.412-.236.466.466,0,0,1,.182-.641,25.486,25.486,0,0,0,3.26-2.16.472.472,0,0,1,.675.081.479.479,0,0,1-.081.675,26.669,26.669,0,0,1-3.375,2.241.479.479,0,0,1-.25.04Zm7.883-6.749a.472.472,0,0,1-.371-.763,25.441,25.441,0,0,0,2.153-3.26.466.466,0,0,1,.634-.189.479.479,0,0,1,.189.675,26.231,26.231,0,0,1-2.234,3.375.452.452,0,0,1-.371.142Zm4.576-9.334a.338.338,0,0,1-.115,0,.472.472,0,0,1-.337-.574,25.507,25.507,0,0,0,.675-3.847.472.472,0,0,1,.513-.425.466.466,0,0,1,.418.513,25.652,25.652,0,0,1-.675,4,.479.479,0,0,1-.479.317Zm.526-10.38a.472.472,0,0,1-.466-.4,25.14,25.14,0,0,0-.884-3.807.472.472,0,0,1,.3-.594.479.479,0,0,1,.594.31,26.186,26.186,0,0,1,.918,3.948.466.466,0,0,1-.4.533Zm-3.611-9.753a.472.472,0,0,1-.4-.223,25.71,25.71,0,0,0-2.322-3.145.472.472,0,0,1,.047-.675.466.466,0,0,1,.675.047,26.207,26.207,0,0,1,2.41,3.26.466.466,0,0,1-.148.675.472.472,0,0,1-.263.061Z" transform="translate(-451.338 -188.505)" fill="#91b3fa"/>
        <path id="Trazado_115766" data-name="Trazado 115766" d="M448.025,257.182a.469.469,0,0,1-.081-.931c.594-.108,1.2-.243,1.8-.4a.472.472,0,0,1,.574.337.479.479,0,0,1-.337.574c-.621.162-1.249.3-1.87.412Z" transform="translate(-447.558 -208.663)" fill="#91b3fa"/>
      </g>
      <path id="Trazado_115767" data-name="Trazado 115767" d="M439.145,225.211l-.425-1.35a10.927,10.927,0,0,0,7.161-7.249l.081-.283a10.914,10.914,0,1,0-15.881,6.635l-.675,1.228a12.317,12.317,0,1,1,18.378-10.758,12.565,12.565,0,0,1-.439,3.267,12.284,12.284,0,0,1-5.777,7.458h0l-.378.2h0a12.015,12.015,0,0,1-1.8.776h0l-.108.034Z" transform="translate(-361.879 -187.942)" fill="#bdd0fb"/>
    </g>
    <path id="Trazado_115768" data-name="Trazado 115768" d="M302.668,188.8a.918.918,0,0,1-.911-.769c-.067-.4-.135-.79-.216-1.181a.925.925,0,1,1,1.816-.351c.081.4.155.817.223,1.228a.925.925,0,0,1-.763,1.06Zm-.844-4a.931.931,0,0,1-.9-.675c-.095-.391-.2-.776-.31-1.161a.931.931,0,0,1,.641-1.141.918.918,0,0,1,1.134.634c.115.4.223.8.331,1.208a.938.938,0,0,1-.675,1.127.891.891,0,0,1-.2.007Zm-1.181-3.915a.925.925,0,0,1-.871-.614c-.128-.385-.263-.756-.4-1.134a.927.927,0,1,1,1.728-.675l.425,1.174a.925.925,0,0,1-.574,1.174.952.952,0,0,1-.3.074Zm-1.492-3.793a.918.918,0,0,1-.844-.553c-.162-.364-.331-.729-.5-1.093a.921.921,0,1,1,1.667-.783c.182.371.351.749.52,1.134a.925.925,0,0,1-.844,1.3Zm-1.8-3.665a.918.918,0,0,1-.81-.486c-.189-.351-.385-.675-.58-1.053a.92.92,0,0,1,1.6-.911c.209.358.4.722.607,1.087a.925.925,0,0,1-.378,1.249.871.871,0,0,1-.412.115Zm-2.065-3.516a.918.918,0,0,1-.776-.425c-.216-.337-.439-.675-.675-1.006a.925.925,0,0,1,1.532-1.033c.236.344.459.675.675,1.039a.925.925,0,0,1-.776,1.424Zm-2.315-3.375a.925.925,0,0,1-.742-.371l-.729-.958a.925.925,0,1,1,1.458-1.134c.256.324.506.675.749.985a.925.925,0,0,1-.736,1.478ZM99.514,164.594a.925.925,0,0,1,0-1.849h1.228a.925.925,0,0,1,0,1.843H99.508Zm-2.862-.04h0l-1.235-.047a.926.926,0,0,1,.081-1.849l1.208.047a.925.925,0,0,1,0,1.849Zm6.938-.054a.925.925,0,1,1-.04-1.849l1.215-.061a.925.925,0,0,1,.1,1.843q-.614.04-1.235.061Zm-11.015-.175H92.5l-1.235-.108a.926.926,0,0,1,.182-1.843l1.2.115a.925.925,0,0,1-.074,1.843Zm15.091-.094a.925.925,0,0,1-.081-1.843l1.215-.108a.928.928,0,1,1,.162,1.849l-1.235.108Zm-19.148-.358h-.128l-1.228-.189a.923.923,0,1,1,.29-1.822c.391.067.8.121,1.195.182a.925.925,0,0,1-.128,1.836Zm23.2-.054a.925.925,0,0,1-.108-1.836l1.208-.155a.925.925,0,0,1,.236,1.836l-1.222.148Zm178.748-.445a.911.911,0,0,1-.675-.324l-.8-.911a.925.925,0,1,1,1.384-1.222l.817.931a.925.925,0,0,1-.675,1.525Zm-174.7-.1a.925.925,0,0,1-.142-1.836l1.2-.189a.925.925,0,1,1,.3,1.822l-1.222.189ZM84.5,163.176a.857.857,0,0,1-.189,0c-.4-.081-.817-.169-1.215-.263a.92.92,0,0,1,.4-1.8l1.181.256A.918.918,0,0,1,84.5,163.2Zm35.3-.58a.925.925,0,0,1-.162-1.829l1.195-.223a.921.921,0,0,1,.344,1.809l-1.208.229Zm-39.274-.378a1.007,1.007,0,0,1-.243,0l-1.2-.351a.921.921,0,0,1,.54-1.762l1.154.337a.918.918,0,0,1-.25,1.809Zm43.283-.4a.925.925,0,0,1-.182-1.829l1.195-.243a.921.921,0,0,1,.378,1.8l-1.2.25Zm-47.164-.85a.851.851,0,0,1-.317-.054l-1.168-.439a.925.925,0,1,1,.675-1.721c.371.148.749.29,1.12.425a.925.925,0,0,1-.31,1.789Zm51.153,0a.925.925,0,0,1-.2-1.829l1.188-.27a.917.917,0,0,1,.432,1.782l-1.2.27a.675.675,0,0,1-.236.047Zm159.958-.607a.945.945,0,0,1-.675-.277c-.277-.29-.56-.574-.85-.857a.938.938,0,1,1,1.3-1.35l.871.884a.925.925,0,0,1-.675,1.566Zm-155.909-.317a.925.925,0,0,1-.216-1.822l1.181-.29a.925.925,0,1,1,.445,1.8l-1.195.29a.823.823,0,0,1-.3.061Zm-59-.641a.884.884,0,0,1-.385-.088c-.378-.169-.749-.351-1.127-.533a.925.925,0,0,1,.817-1.66c.364.182.722.351,1.087.52a.923.923,0,0,1-.391,1.762Zm62.877-.358a.925.925,0,0,1-.229-1.816l1.181-.31a.925.925,0,0,1,.466,1.789l-1.188.3a.943.943,0,0,1-.229.047Zm3.948-.992a.925.925,0,0,1-.243-1.816l1.181-.317a.925.925,0,0,1,.486,1.782l-1.188.317A1,1,0,0,1,139.673,158.053Zm-70.449-.472a.952.952,0,0,1-.459-.121c-.358-.209-.715-.418-1.073-.641a.925.925,0,1,1,.965-1.573q.506.317,1.033.607a.925.925,0,0,1-.466,1.728Zm215.546,0a.925.925,0,0,1-.621-.243l-.9-.8a.926.926,0,0,1,1.215-1.4c.31.277.621.547.925.83a.925.925,0,0,1-.621,1.606Zm-141.162-.594a.925.925,0,0,1-.25-1.816l1.174-.331a.925.925,0,1,1,.506,1.775l-1.181.331a.837.837,0,0,1-.25-.007Zm3.928-1.12a.925.925,0,0,1-.256-1.816l1.168-.337a.925.925,0,1,1,.52,1.768l-1.174.344a.884.884,0,0,1-.256-.007Zm-81.768-.513a.925.925,0,0,1-.533-.169c-.337-.236-.675-.486-1.012-.736a.925.925,0,0,1,1.107-1.478q.486.364.972.709a.918.918,0,0,1-.533,1.674Zm215.876-.466a.918.918,0,0,1-.574-.2q-.472-.385-.952-.749a.925.925,0,1,1,1.134-1.458l.972.763a.925.925,0,0,1-.58,1.647Zm-130.16-.209a.918.918,0,0,1-.263-1.8l1.174-.351a.925.925,0,0,1,.526,1.768l-1.174.351A.884.884,0,0,1,151.484,154.679Zm3.915-1.168a.918.918,0,0,1-.27-1.8l1.174-.358a.925.925,0,0,1,.533,1.768l-1.174.351a.891.891,0,0,1-.3.027Zm-92.789-.675a.938.938,0,0,1-.607-.223l-.958-.83a.925.925,0,0,1,1.255-1.35c.29.27.587.533.891.8a.925.925,0,0,1-.6,1.62Zm215.836-.418a.925.925,0,0,1-.533-.169l-.992-.675a.925.925,0,1,1,1.046-1.525l1.012.709a.918.918,0,0,1-.533,1.674Zm-119.139-.108a.918.918,0,0,1-.27-1.8l1.174-.358a.925.925,0,0,1,.533,1.768l-1.174.351a.891.891,0,0,1-.3.047Zm3.9-1.181a.932.932,0,0,1-.263-1.822l1.174-.358a.925.925,0,0,1,.533,1.768l-1.174.358a.9.9,0,0,1-.3.061ZM275,150.157a.9.9,0,0,1-.486-.142l-1.033-.635a.925.925,0,1,1,.958-1.579l1.053.675a.906.906,0,0,1-.493,1.681Zm-215.384-.142a.938.938,0,0,1-.675-.29c-.283-.31-.567-.614-.844-.931a.925.925,0,0,1,1.35-1.222c.263.3.533.594.81.884a.931.931,0,0,1-.047,1.309.9.9,0,0,1-.574.25Zm107.449-.067a.918.918,0,0,1-.263-1.8l1.174-.358a.923.923,0,0,1,.533,1.768l-1.174.358a.9.9,0,0,1-.25.04Zm3.915-1.168a.925.925,0,0,1-.263-1.809l1.174-.351a.926.926,0,0,1,.526,1.775l-1.174.344a.891.891,0,0,1-.243.04Zm100.511-.675a.979.979,0,0,1-.452-.115c-.351-.2-.675-.391-1.06-.58a.921.921,0,0,1,.864-1.627c.364.189.729.391,1.093.587a.925.925,0,0,1-.445,1.735Zm-96.6-.459a.925.925,0,0,1-.256-1.809l1.181-.337a.925.925,0,1,1,.506,1.775l-1.174.337a.81.81,0,0,1-.236.013Zm-117.9-.749a.925.925,0,0,1-.736-.358c-.25-.331-.5-.675-.742-1.006a.923.923,0,1,1,1.5-1.08c.229.324.466.675.675.965a.918.918,0,0,1-.7,1.478Zm121.845-.391a.925.925,0,0,1-.25-1.816l1.181-.331a.925.925,0,0,1,.493,1.782l-1.174.331a1.107,1.107,0,0,1-.25.034Zm89.037-.3a.931.931,0,0,1-.4-.094l-1.093-.52a.925.925,0,1,1,.776-1.674l1.12.533a.925.925,0,0,1,.432,1.228.938.938,0,0,1-.837.526Zm-85.1-.79a.925.925,0,0,1-.243-1.816l1.181-.317a.925.925,0,1,1,.479,1.782l-1.181.317a1,1,0,0,1-.236.034Zm81.376-.864a.938.938,0,0,1-.351-.074l-1.12-.459a.925.925,0,1,1,.675-1.714l1.147.466a.925.925,0,0,1-.358,1.782Zm-77.435-.162a.925.925,0,0,1-.229-1.816l1.188-.3a.925.925,0,1,1,.459,1.789l-1.188.3a.857.857,0,0,1-.229.007Zm-132.043-.85a.925.925,0,0,1-.783-.432c-.223-.358-.439-.709-.675-1.073a.925.925,0,1,1,1.593-.931c.2.344.412.675.621,1.026a.931.931,0,0,1-.3,1.276A.9.9,0,0,1,54.672,143.542Zm136.005-.162a.918.918,0,0,1-.216-1.816l1.195-.29a.931.931,0,0,1,1.114.675.918.918,0,0,1-.675,1.107l-1.188.283a.79.79,0,0,1-.229.04Zm69.66-.317a.8.8,0,0,1-.3-.054l-1.147-.391a.925.925,0,1,1,.587-1.748l1.174.4a.918.918,0,0,1-.31,1.789Zm-65.684-.607a.925.925,0,0,1-.2-1.822l1.2-.27a.926.926,0,0,1,.4,1.809l-1.195.263Zm61.8-.641a.864.864,0,0,1-.256-.034l-.182-.054-.985-.277a.925.925,0,1,1,.493-1.782l1,.283.189.054a.925.925,0,0,1-.256,1.809Zm-57.8-.216a.918.918,0,0,1-.9-.736.931.931,0,0,1,.715-1.093l1.208-.243a.925.925,0,1,1,.358,1.816l-1.195.236a.837.837,0,0,1-.182.02Zm4-.776a.925.925,0,0,1-.162-1.829l1.208-.223a.925.925,0,1,1,.324,1.822l-1.2.216Zm49.85-.047a.824.824,0,0,1-.216,0l-1.181-.27a.925.925,0,0,1,.4-1.8l1.208.277a.925.925,0,0,1-.216,1.822ZM206.68,140.1a.925.925,0,0,1-.148-1.836l1.215-.189a.925.925,0,1,1,.283,1.822l-1.208.189a.506.506,0,0,1-.142.04Zm-154.006-.115a.925.925,0,0,1-.823-.506c-.189-.378-.371-.749-.547-1.127a.925.925,0,0,1,1.674-.783c.169.364.344.722.526,1.08a.925.925,0,0,1-.83,1.35Zm195.838-.067a.769.769,0,0,1-.176,0l-1.195-.216a.925.925,0,0,1,.324-1.822l1.215.223a.925.925,0,0,1-.169,1.829Zm-37.8-.391a.925.925,0,0,1-.128-1.836l1.222-.162a.925.925,0,1,1,.236,1.829l-1.208.162Zm33.747-.277h-.128l-1.208-.169a.925.925,0,0,1,.243-1.829l1.228.169a.925.925,0,0,1-.135,1.843Zm-29.7-.223a.925.925,0,0,1-.1-1.843l1.228-.128a.925.925,0,0,1,.189,1.836l-1.215.128Zm25.647-.283h-.094l-1.208-.115a.925.925,0,1,1,.169-1.836l1.228.115a.925.925,0,0,1-.094,1.843Zm-21.6-.108a.925.925,0,0,1-.074-1.843l1.228-.094a.925.925,0,0,1,.135,1.843l-1.215.094Zm17.548-.229h-.054l-1.215-.067a.925.925,0,1,1,.094-1.843l1.235.068a.925.925,0,0,1-.061,1.843Zm-13.465-.04a.925.925,0,0,1-.04-1.849l1.228-.054a.925.925,0,0,1,.081,1.843l-1.215.054Zm9.388-.135h-1.215a.925.925,0,1,1,0-1.843h1.235a.925.925,0,0,1,0,1.849Zm-5.3,0a.925.925,0,0,1,0-1.849h1.235a.938.938,0,0,1,.884.884.918.918,0,0,1-.911.931h-1.215ZM51.007,136.273a.918.918,0,0,1-.857-.58c-.155-.385-.3-.776-.445-1.168a.925.925,0,0,1,1.735-.634c.135.378.283.749.425,1.12a.925.925,0,0,1-.513,1.2,1.026,1.026,0,0,1-.344.047Zm-1.35-3.854a.918.918,0,0,1-.877-.675c-.121-.4-.236-.8-.351-1.195a.925.925,0,0,1,1.782-.493c.108.385.216.769.331,1.154a.9.9,0,0,1-.877,1.195Zm-1.019-3.948a.925.925,0,0,1-.9-.729c-.088-.4-.169-.81-.25-1.222a.925.925,0,0,1,1.816-.344c.074.391.155.783.236,1.174a.925.925,0,0,1-.9,1.12Zm-.675-4.05a.918.918,0,0,1-.931-.79c-.054-.412-.1-.823-.148-1.235a.925.925,0,0,1,1.836-.2c.04.4.088.8.142,1.188a.925.925,0,0,1-.79,1.039Zm-.385-4.05a.925.925,0,0,1-.925-.871c0-.412-.04-.83-.054-1.242a.925.925,0,0,1,.891-.952.911.911,0,0,1,.938.925,8.948,8.948,0,0,0,.054,1.2.911.911,0,0,1-.871.972Zm-.074-4.05h0a.931.931,0,0,1-.9-.945l.041-1.242a.926.926,0,0,1,1.849.081c0,.4-.034.8-.04,1.2a.925.925,0,0,1-.958.877Zm.243-4.05h-.094a.925.925,0,0,1-.823-1.012c.04-.412.081-.823.135-1.235a.921.921,0,1,1,1.829.216c-.047.4-.088.8-.128,1.2a.925.925,0,0,1-.931.776Zm.553-4.05h-.162a.918.918,0,0,1-.749-1.066c.067-.412.148-.823.229-1.228a.925.925,0,0,1,1.809.364l-.236,1.141a.918.918,0,0,1-.9.742Zm.864-3.989a.939.939,0,0,1-.236,0,.925.925,0,0,1-.675-1.127c.108-.4.216-.8.331-1.2a.923.923,0,1,1,1.775.506c-.108.385-.216.769-.317,1.161a.925.925,0,0,1-.891.614Zm1.181-3.908a.952.952,0,0,1-.3-.047.925.925,0,0,1-.574-1.174q.2-.6.425-1.174a.927.927,0,0,1,1.728.675c-.142.371-.277.749-.4,1.127a.925.925,0,0,1-.884.547Zm1.492-3.793a.93.93,0,0,1-.844-1.3c.169-.378.344-.756.52-1.134a.927.927,0,0,1,1.674.8c-.175.358-.344.722-.506,1.087a.918.918,0,0,1-.857.506Zm1.782-3.705a.9.9,0,0,1-.445-.115.931.931,0,0,1-.364-1.255c.2-.364.412-.729.621-1.087a.925.925,0,0,1,1.593.938c-.2.344-.4.675-.594,1.039A.931.931,0,0,1,53.619,92.828Zm2.126-3.489a.9.9,0,0,1-.513-.155.918.918,0,0,1-.256-1.276q.344-.526.709-1.033a.92.92,0,0,1,1.505,1.06l-.675.992a.925.925,0,0,1-.749.412Zm2.4-3.307a.952.952,0,0,1-.574-.2.925.925,0,0,1-.155-1.3c.256-.331.52-.675.783-.972a.921.921,0,0,1,1.424,1.168c-.256.31-.506.628-.756.945a.925.925,0,0,1-.7.351Zm2.632-3.118a.938.938,0,0,1-.621-.236.925.925,0,0,1-.061-1.309l.871-.931a.929.929,0,1,1,1.35,1.276c-.277.29-.547.587-.823.884a.931.931,0,0,1-.7.317ZM63.635,80a.9.9,0,0,1-.675-.29.918.918,0,0,1,.061-1.3l.911-.85a.925.925,0,0,1,1.242,1.35c-.3.27-.594.54-.884.817a.918.918,0,0,1-.634.277ZM66.7,77.3a.925.925,0,0,1-.587-1.64c.317-.263.641-.52.965-.776a.925.925,0,0,1,1.141,1.451l-.938.756a.9.9,0,0,1-.56.209Zm3.233-2.484a.931.931,0,0,1-.749-.385.918.918,0,0,1,.216-1.289q.506-.364,1.012-.675a.925.925,0,1,1,1.046,1.519c-.331.229-.675.459-.985.675a.931.931,0,0,1-.52.155Zm3.375-2.261a.925.925,0,0,1-.486-1.708l1.066-.675a.925.925,0,1,1,.938,1.586l-.958.661a.9.9,0,0,1-.52.135Zm3.537-2.025a.925.925,0,0,1-.432-1.741c.358-.2.729-.385,1.093-.574a.925.925,0,0,1,.844,1.647c-.358.182-.715.364-1.066.553a.945.945,0,0,1-.4.108ZM80.5,68.72a.925.925,0,0,1-.344-1.782l1.134-.493a.925.925,0,1,1,.742,1.694l-1.1.493a.985.985,0,0,1-.391.081Zm3.759-1.586a.925.925,0,0,1-.337-1.782l1.161-.439a.925.925,0,1,1,.634,1.735c-.378.135-.756.283-1.127.425a.952.952,0,0,1-.29.054Zm3.847-1.35a.925.925,0,0,1-.283-1.8l1.181-.371a.925.925,0,1,1,.533,1.768l-1.154.358a.823.823,0,0,1-.236.034Zm3.915-1.134a.925.925,0,0,1-.229-1.816l1.208-.3a.918.918,0,0,1,1.114.675.931.931,0,0,1-.675,1.114c-.391.088-.783.189-1.168.29a.938.938,0,0,1-.182.02Zm3.982-.9a.925.925,0,0,1-.175-1.829l1.215-.229a.925.925,0,0,1,.331,1.816l-1.188.229Zm4.05-.675a.925.925,0,0,1-.128-1.836l1.228-.155a.925.925,0,1,1,.223,1.829l-1.2.155Zm4.05-.439a.925.925,0,0,1-.074-1.843l1.242-.088a.925.925,0,1,1,.115,1.843l-1.147.074Zm9.382-.108h-.047l-1.208-.061a.925.925,0,1,1,.067-1.843l1.242.054a.925.925,0,0,1-.054,1.849Zm-5.3-.094a.925.925,0,0,1,0-1.849h1.242a.925.925,0,1,1,0,1.849h-1.208Z" transform="translate(-7.411 -4.16)" fill="url(#linear-gradient-11)"/>
    <g id="Grupo_57121" data-name="Grupo 57121" transform="translate(110.184 181.129)">
      <path id="Trazado_115769" data-name="Trazado 115769" d="M258.453,277.47c-5.156-.04-6.432,7.424-4.873,10.124s4.394,17.67,6.871,18.547,21.928,12.972,22.043,13.067-1.566,3.159.243,3.456,5.035-.142,4.61-1.687.344-2.652-.891-3.726-20.464-16.03-20.464-16.03S265.189,277.524,258.453,277.47Z" transform="translate(-184.676 -255.793)" fill="url(#linear-gradient-12)"/>
      <path id="Trazado_115770" data-name="Trazado 115770" d="M247.788,393.317l-12.331-9.328a.931.931,0,0,0-1.262.128l-.607.675a.931.931,0,0,0-.229.715.952.952,0,0,0,.364.675l12.587,9.611a.951.951,0,0,0,.837.155.925.925,0,0,0,.607-.587l.358-.985A.952.952,0,0,0,247.788,393.317Z" transform="translate(-178.303 -290.358)" fill="url(#linear-gradient-13)"/>
      <g id="Grupo_57109" data-name="Grupo 57109" transform="translate(35.818 42.863)">
        <path id="Trazado_115771" data-name="Trazado 115771" d="M240.908,383.15s-3.982,1.64-1.39,3.921a49.012,49.012,0,0,0,10.2,6.209c1.2.317,4.927-1,3.867-2.3s-6.594-3.5-6.594-3.5l-2.383-3.57S240.773,383.616,240.908,383.15Z" transform="translate(-215.841 -333.009)" fill="url(#linear-gradient-14)"/>
        <path id="Trazado_115772" data-name="Trazado 115772" d="M249.027,344.291s-4.347,10.8-4.353,13.553-2.754,11.845-2.754,11.845,1.681,2.383,3.449.466,12.662-27.24,11.1-29.022S249.135,341.733,249.027,344.291Z" transform="translate(-216.907 -319.15)" fill="url(#linear-gradient-15)"/>
        <path id="Trazado_115773" data-name="Trazado 115773" d="M206.122,308.86s-5,11.116,4.907,12.918,25.9,14.477,25.9,14.477l9.84-5.055s-17.15-20.167-23.4-20.369C213.9,312.059,209.22,309.94,206.122,308.86Z" transform="translate(-204.86 -308.86)" fill="url(#linear-gradient-16)"/>
      </g>
      <g id="Grupo_57112" data-name="Grupo 57112" transform="translate(76.348 73.687)">
        <path id="Trazado_115774" data-name="Trazado 115774" d="M291.391,355.19a24.885,24.885,0,1,0,24.878,24.882,24.885,24.885,0,0,0-24.878-24.882Zm0,46.05a21.166,21.166,0,1,1,21.166-21.166A21.166,21.166,0,0,1,291.391,401.24Z" transform="translate(-265.427 -354.745)" fill="#fff"/>
        <g id="Grupo_57111" data-name="Grupo 57111">
          <path id="Trazado_115775" data-name="Trazado 115775" d="M291.07,354.53a26.154,26.154,0,1,0,26.147,26.151A26.154,26.154,0,0,0,291.07,354.53Zm-.277,48.386A22.516,22.516,0,1,1,313.3,380.4a22.516,22.516,0,0,1-22.509,22.513Z" transform="translate(-264.91 -354.53)" fill="url(#linear-gradient-17)"/>
          <g id="Grupo_57110" data-name="Grupo 57110" transform="translate(18.069 0.985)">
            <path id="Trazado_115776" data-name="Trazado 115776" d="M335.479,378.687a.385.385,0,0,1-.371-.29,20.851,20.851,0,0,0-.884-2.585.378.378,0,0,1,.2-.506.391.391,0,0,1,.513.209,19.911,19.911,0,0,1,.918,2.7.391.391,0,0,1-.277.479Z" transform="translate(-305.5 -362.259)" fill="#91b3fa"/>
            <path id="Trazado_115777" data-name="Trazado 115777" d="M318.259,365.446a.4.4,0,0,1-.31-.155,21.76,21.76,0,0,0-17.339-8.524,20.639,20.639,0,0,0-8.383,1.762.4.4,0,0,1-.513-.2.391.391,0,0,1,.2-.513,21.483,21.483,0,0,1,8.7-1.822,22.543,22.543,0,0,1,17.96,8.828.391.391,0,0,1-.31.628Z" transform="translate(-291.681 -355.99)" fill="#91b3fa"/>
          </g>
        </g>
        <circle id="Elipse_4404" data-name="Elipse 4404" cx="2.315" cy="2.315" r="2.315" transform="translate(24.526 29.093) rotate(-67.5)" fill="url(#linear-gradient-18)"/>
        <path id="Trazado_115778" data-name="Trazado 115778" d="M320.806,373.867a.385.385,0,0,0,0-.54h0a.385.385,0,0,0-.54,0L308.5,385.475a.385.385,0,0,0,0,.547h0a.385.385,0,0,0,.54,0Z" transform="translate(-279.041 -360.604)" fill="url(#linear-gradient-19)"/>
        <path id="Trazado_115779" data-name="Trazado 115779" d="M296.419,398.693a.371.371,0,0,0,0-.526h0a.378.378,0,0,0-.533,0l-11.049,11.325a.371.371,0,0,0,0,.526h0a.371.371,0,0,0,.526,0Z" transform="translate(-271.352 -368.679)" fill="url(#linear-gradient-20)"/>
        <path id="Trazado_115780" data-name="Trazado 115780" d="M290.529,392.827a.385.385,0,0,0,.472-.27h0a.385.385,0,0,0-.27-.472l-16.327-4.421a.385.385,0,0,0-.472.27h0a.378.378,0,0,0,.27.472Z" transform="translate(-267.838 -365.296)" fill="url(#linear-gradient-21)"/>
        <path id="Trazado_115781" data-name="Trazado 115781" d="M323.643,401.947a.317.317,0,0,0,.391-.223h0a.311.311,0,0,0-.223-.385L310.367,397.7a.324.324,0,0,0-.391.223h0a.324.324,0,0,0,.229.391Z" transform="translate(-279.556 -368.558)" fill="url(#linear-gradient-22)"/>
        <path id="Trazado_115782" data-name="Trazado 115782" d="M298.45,383.926a.31.31,0,0,0,.439.074h0a.317.317,0,0,0,.074-.439l-8.018-11.386a.324.324,0,0,0-.439-.081h0a.324.324,0,0,0-.074.445Z" transform="translate(-273.188 -360.223)" fill="url(#linear-gradient-23)"/>
        <path id="Trazado_115783" data-name="Trazado 115783" d="M315.851,411.273a.317.317,0,0,0,.439.074h0a.317.317,0,0,0,.074-.439l-8.018-11.393a.31.31,0,0,0-.439-.074h0a.317.317,0,0,0-.074.439Z" transform="translate(-278.844 -369.11)" fill="url(#linear-gradient-24)"/>
        <path id="Trazado_115784" data-name="Trazado 115784" d="M276.625,401.289a.331.331,0,0,0-.229.391h0a.317.317,0,0,0,.391.223l13.465-3.543a.317.317,0,0,0,.229-.385h0a.331.331,0,0,0-.391-.229Z" transform="translate(-268.641 -368.575)" fill="url(#linear-gradient-25)"/>
        <path id="Trazado_115785" data-name="Trazado 115785" d="M311.427,391.348a.31.31,0,0,0-.223.385h0a.317.317,0,0,0,.385.229l13.5-3.543a.317.317,0,0,0,.223-.391h0a.31.31,0,0,0-.385-.223Z" transform="translate(-279.955 -365.343)" fill="url(#linear-gradient-26)"/>
        <path id="Trazado_115786" data-name="Trazado 115786" d="M306.323,414.238a.317.317,0,0,0,.324.31h0a.317.317,0,0,0,.31-.324l-.27-13.924a.311.311,0,0,0-.317-.31h0a.317.317,0,0,0-.31.324Z" transform="translate(-278.287 -369.308)" fill="url(#linear-gradient-27)"/>
        <path id="Trazado_115787" data-name="Trazado 115787" d="M306.323,379.438a.324.324,0,0,0,.324.31h0a.324.324,0,0,0,.31-.324l-.27-13.924a.3.3,0,0,0-.317-.31h0a.31.31,0,0,0-.31.317Z" transform="translate(-278.287 -357.995)" fill="url(#linear-gradient-28)"/>
      </g>
      <g id="Grupo_57115" data-name="Grupo 57115" transform="translate(0 73.687)">
        <path id="Trazado_115788" data-name="Trazado 115788" d="M178.5,355.78A25.02,25.02,0,1,0,203.529,380.8,25.02,25.02,0,0,0,178.5,355.78Zm0,46.307A21.287,21.287,0,1,1,199.79,380.8,21.287,21.287,0,0,1,178.5,402.087Z" transform="translate(-152.343 -354.936)" fill="#fff"/>
        <g id="Grupo_57114" data-name="Grupo 57114">
          <path id="Trazado_115789" data-name="Trazado 115789" d="M177.95,354.53A26.154,26.154,0,1,0,204.1,380.681,26.154,26.154,0,0,0,177.95,354.53Zm-.277,48.386A22.516,22.516,0,1,1,200.182,380.4,22.516,22.516,0,0,1,177.674,402.916Z" transform="translate(-151.79 -354.53)" fill="url(#linear-gradient-29)"/>
          <g id="Grupo_57113" data-name="Grupo 57113" transform="translate(16.804 0.405)">
            <path id="Trazado_115790" data-name="Trazado 115790" d="M223.831,379.531a.425.425,0,0,1-.4-.31,20.8,20.8,0,0,0-.952-2.781.421.421,0,1,1,.776-.324,22.11,22.11,0,0,1,.992,2.889.425.425,0,0,1-.3.513.277.277,0,0,1-.108.013Z" transform="translate(-191.561 -361.868)" fill="#91b3fa"/>
            <path id="Trazado_115791" data-name="Trazado 115791" d="M205.3,365.308a.425.425,0,0,1-.337-.169,23.42,23.42,0,0,0-18.662-9.172,22.273,22.273,0,0,0-9.024,1.89.42.42,0,1,1-.337-.769,23.049,23.049,0,0,1,9.361-1.957,24.3,24.3,0,0,1,19.33,9.5.412.412,0,0,1-.081.587A.432.432,0,0,1,205.3,365.308Z" transform="translate(-176.687 -355.13)" fill="#91b3fa"/>
          </g>
        </g>
        <circle id="Elipse_4405" data-name="Elipse 4405" cx="2.315" cy="2.315" r="2.315" transform="translate(24.755 26.128) rotate(-13.28)" fill="url(#linear-gradient-18)"/>
        <path id="Trazado_115792" data-name="Trazado 115792" d="M207.686,373.866a.385.385,0,0,0,0-.54h0a.391.391,0,0,0-.547,0l-11.764,12.149a.385.385,0,0,0,0,.547h0a.385.385,0,0,0,.54,0Z" transform="translate(-165.921 -360.604)" fill="url(#linear-gradient-31)"/>
        <path id="Trazado_115793" data-name="Trazado 115793" d="M183.307,398.694a.378.378,0,0,0,0-.526h0a.371.371,0,0,0-.526,0l-11.062,11.325a.378.378,0,0,0,0,.526h0a.371.371,0,0,0,.526,0Z" transform="translate(-158.234 -368.68)" fill="url(#linear-gradient-32)"/>
        <path id="Trazado_115794" data-name="Trazado 115794" d="M177.411,392.827a.385.385,0,0,0,.472-.27h0a.378.378,0,0,0-.27-.472l-16.327-4.421a.385.385,0,0,0-.472.27h0a.391.391,0,0,0,.27.472Z" transform="translate(-154.72 -365.296)" fill="url(#linear-gradient-33)"/>
        <path id="Trazado_115795" data-name="Trazado 115795" d="M210.532,401.947a.311.311,0,0,0,.385-.223h0a.31.31,0,0,0-.223-.385L197.249,397.7a.317.317,0,0,0-.385.223h0a.317.317,0,0,0,.223.391Z" transform="translate(-166.439 -368.558)" fill="url(#linear-gradient-34)"/>
        <path id="Trazado_115796" data-name="Trazado 115796" d="M185.33,383.925a.317.317,0,0,0,.439.074h0a.324.324,0,0,0,.081-.439l-8.025-11.386a.317.317,0,0,0-.439-.081h0a.324.324,0,0,0-.074.445Z" transform="translate(-160.068 -360.221)" fill="url(#linear-gradient-35)"/>
        <path id="Trazado_115797" data-name="Trazado 115797" d="M202.731,411.274a.317.317,0,0,0,.439.074h0a.311.311,0,0,0,.081-.439l-8.018-11.393a.324.324,0,0,0-.445-.074h0a.317.317,0,0,0-.074.439Z" transform="translate(-165.724 -369.111)" fill="url(#linear-gradient-36)"/>
        <path id="Trazado_115798" data-name="Trazado 115798" d="M163.507,401.289a.317.317,0,0,0-.223.391h0a.31.31,0,0,0,.385.223l13.465-3.543a.31.31,0,0,0,.229-.385h0a.324.324,0,0,0-.385-.229Z" transform="translate(-155.523 -368.576)" fill="url(#linear-gradient-37)"/>
        <path id="Trazado_115799" data-name="Trazado 115799" d="M198.307,391.348a.31.31,0,0,0-.223.385h0a.324.324,0,0,0,.385.229l13.5-3.543a.317.317,0,0,0,.223-.391h0a.31.31,0,0,0-.385-.223Z" transform="translate(-166.835 -365.343)" fill="url(#linear-gradient-38)"/>
        <path id="Trazado_115800" data-name="Trazado 115800" d="M193.2,414.238a.317.317,0,0,0,.324.31h0a.31.31,0,0,0,.31-.324l-.263-13.924a.324.324,0,0,0-.324-.31h0a.317.317,0,0,0-.31.324Z" transform="translate(-165.167 -369.308)" fill="url(#linear-gradient-39)"/>
        <path id="Trazado_115801" data-name="Trazado 115801" d="M193.2,379.438a.324.324,0,0,0,.324.311h0a.317.317,0,0,0,.31-.324l-.263-13.924a.317.317,0,0,0-.324-.31h0a.31.31,0,0,0-.31.317Z" transform="translate(-165.167 -357.995)" fill="url(#linear-gradient-40)"/>
      </g>
      <path id="Trazado_115802" data-name="Trazado 115802" d="M272.857,265l-7.687,9.517s1.161,6.074,7.255,5.879l6.581-11.751Z" transform="translate(-188.646 -251.74)" fill="url(#linear-gradient-41)"/>
      <path id="Trazado_115803" data-name="Trazado 115803" d="M235.052,292.377s9.861.945,13.323-1.262,9.854-12.581-2.308-16.779-28.489,5.7-34.779,12.149-6.857,10.623-6.857,10.623,11.751,7.424,15.523,5.737S231.009,292.181,235.052,292.377Z" transform="translate(-168.902 -254.448)" fill="url(#linear-gradient-42)"/>
      <path id="Trazado_115804" data-name="Trazado 115804" d="M254.517,339.788c-2.1,0-40.057,5.453-40.057,5.453l-.844-6.392-2.7,1.147.628,8.18S188.894,376.7,191.62,377.544s30.493,6.5,32.97,3.982,30.061-32.93,30.061-32.93c2.126,4.124,12.547,28.523,12.547,28.523s2.517,3.78,2.868-.628C270.04,376.491,256.6,339.788,254.517,339.788ZM220.649,379.17a.763.763,0,0,1-.675.229c-4.583-.8-21.267-3.7-23.677-3.813s12.689-19.37,16.765-24.507a.776.776,0,0,1,.776-.27.763.763,0,0,1,.587.574l6.4,27.078A.763.763,0,0,1,220.649,379.17Zm31.9-33.551c-1.262,1.195-26.579,32.012-27.895,30.979s-9.172-28.165-8.288-28.347c0,0,35.866-6.074,36.183-5.237S253.781,344.425,252.546,345.62Z" transform="translate(-164.664 -275.746)" fill="url(#linear-gradient-43)"/>
      <path id="Trazado_115805" data-name="Trazado 115805" d="M222.019,324.882c-1.681-1.89-20.437-2.835-21.125-.526s1.721,4.34,5.5,4.529,5.663.4,5.663.4l.823,5.636a.715.715,0,0,0,.317.493.675.675,0,0,0,.574.094l3.273-.877-.8-5.75S223.693,326.772,222.019,324.882Z" transform="translate(-167.714 -270.593)" fill="url(#linear-gradient-44)"/>
      <path id="Trazado_115806" data-name="Trazado 115806" d="M295.032,327.551c-4.09-.472-15.307,2.025-15.571,2.025s-1.35.31-.837,2.146,1.35,4.65,1.35,4.65l3.375.115-1.566-5.757s11.177-2.275,12.689,0c1.384,2.079-1.8,5.811-3.874,7.384a.844.844,0,0,0-.27,1c.169.4.31.742.432,1.019a.844.844,0,0,0,1.411.209c1.06-1.215,2.794-3.192,3.314-3.692C296.254,335.934,299.136,328.017,295.032,327.551Z" transform="translate(-192.976 -272.054)" fill="url(#linear-gradient-45)"/>
      <path id="Trazado_115807" data-name="Trazado 115807" d="M266.816,276.352c-5.143-.4-6.932,6.932-5.568,9.766s3.145,17.933,5.555,18.979,20.977,14.47,21.085,14.578-1.789,3.044,0,3.462,5.028.209,4.724-1.35.52-2.625-.634-3.78-19.3-17.42-19.3-17.42S273.525,276.879,266.816,276.352Z" transform="translate(-187.228 -255.425)" fill="url(#linear-gradient-46)"/>
      <circle id="Elipse_4406" data-name="Elipse 4406" cx="0.823" cy="0.823" r="0.823" transform="translate(103.069 100.32)" fill="url(#linear-gradient-47)"/>
      <circle id="Elipse_4407" data-name="Elipse 4407" cx="0.823" cy="0.823" r="0.823" transform="translate(28.401 100.32)" fill="url(#linear-gradient-48)"/>
      <g id="Grupo_57116" data-name="Grupo 57116" transform="translate(27.616 97.969)">
        <path id="Trazado_115808" data-name="Trazado 115808" d="M226.1,393.465h0l-32.613-1.951c-.229,0-.412-.317-.4-.553s.209-.479.439-.452L226.1,392.19c.236,0,.412.418.4.675S226.33,393.465,226.1,393.465Z" transform="translate(-192.831 -390.507)" fill="url(#linear-gradient-49)"/>
        <path id="Trazado_115809" data-name="Trazado 115809" d="M224.492,406.032h0l-31.479-8.639a.432.432,0,0,1-.29-.526.412.412,0,0,1,.513-.3l31.492,8.605a.445.445,0,0,1-.216.864Z" transform="translate(-192.707 -392.47)" fill="url(#linear-gradient-50)"/>
      </g>
      <circle id="Elipse_4408" data-name="Elipse 4408" cx="6.884" cy="6.884" r="6.884" transform="translate(51.42 110.046) rotate(-73.191)" fill="url(#linear-gradient-51)"/>
      <path id="Trazado_115810" data-name="Trazado 115810" d="M237.125,401.822l-.459-.587a.911.911,0,0,0-1.451.034l-4.475,6.3,2.173,1.694,4.252-6.385A.9.9,0,0,0,237.125,401.822Z" transform="translate(-177.454 -295.914)" fill="url(#linear-gradient-52)"/>
      <path id="Trazado_115811" data-name="Trazado 115811" d="M235.352,413.208l-12.358-9.3a.925.925,0,0,0-1.262.128l-.607.675a.952.952,0,0,0,.135,1.35l12.587,9.611a.931.931,0,0,0,1.444-.432l.358-.985a.958.958,0,0,0-.3-1.046Z" transform="translate(-174.257 -296.832)" fill="url(#linear-gradient-53)"/>
      <g id="Grupo_57117" data-name="Grupo 57117" transform="translate(33.177 41.918)">
        <path id="Trazado_115812" data-name="Trazado 115812" d="M226.3,400.82s-4.38,1.478-1.762,4.1a52.334,52.334,0,0,0,10.488,7.336c1.255.418,5.352-.729,4.3-2.2s-6.817-4.191-6.817-4.191L230.2,401.88S226.124,401.306,226.3,400.82Z" transform="translate(-208.344 -337.809)" fill="url(#linear-gradient-54)"/>
        <path id="Trazado_115813" data-name="Trazado 115813" d="M237.6,353.974s-5.872,12.864-6.074,16.2-4.09,14.261-4.09,14.261,1.782,3.037,3.982.837,16.786-32.3,15.1-34.6S237.942,350.849,237.6,353.974Z" transform="translate(-209.558 -321.213)" fill="url(#linear-gradient-55)"/>
        <path id="Trazado_115814" data-name="Trazado 115814" d="M203.48,307.46s-7.033,9.955,2.335,13.593,22.651,19.168,22.651,19.168l10.63-3.071s-12.979-23.076-19.074-24.473C210.506,312.083,206.314,309.107,203.48,307.46Z" transform="translate(-200.946 -307.46)" fill="url(#linear-gradient-56)"/>
      </g>
      <circle id="Elipse_4409" data-name="Elipse 4409" cx="3.186" cy="3.186" r="3.186" transform="matrix(0.998, -0.055, 0.055, 0.998, 24.531, 97.651)" fill="url(#linear-gradient-57)"/>
      <g id="Grupo_57120" data-name="Grupo 57120" transform="translate(81.854)">
        <g id="Grupo_57118" data-name="Grupo 57118" transform="translate(0.229 1.149)">
          <path id="Trazado_115815" data-name="Trazado 115815" d="M292.112,259.22c-.047.223-7.984,12.9-7.984,12.9L277,267.434l5.737-13.134S292.922,255.515,292.112,259.22Z" transform="translate(-274.575 -249.41)" fill="url(#linear-gradient-58)"/>
          <path id="Trazado_115816" data-name="Trazado 115816" d="M283.027,255.029a1.222,1.222,0,0,0-.877.634l-3.51,6.581a1.4,1.4,0,0,0-.121.317c-.128.607-.385,2.585,1.681,2.76a10.754,10.754,0,0,1,4.374.911,1.228,1.228,0,0,1,.385,1.7,46.067,46.067,0,0,1-3.989,5.46,1.235,1.235,0,0,1-1.654.162,34.192,34.192,0,0,1-5.636-5.217,1.228,1.228,0,0,1-.175-1.249c.776-1.836,2.929-7,3.314-8.545.358-1.444-.979-2.9-1.64-3.523a1.222,1.222,0,0,1-.4-.9,2.7,2.7,0,0,1,3-2.99,1.228,1.228,0,0,0,1.235-1.188,2.724,2.724,0,0,1,2.774-2.875,3.834,3.834,0,0,1,3.874,2.511,1.262,1.262,0,0,0,1.35.763.83.83,0,0,1,.756.29,1.127,1.127,0,0,0,1.465.209c.236-.128.2-.29.6-.3a1.9,1.9,0,0,1,1.019.344,3.659,3.659,0,0,1,1.039,1.141,8.1,8.1,0,0,1,1.228,4.725c-.074,1.35-1.512,1.829-2.7,1.559a6.074,6.074,0,0,1-3.192-2.288C286.152,254.692,284.059,254.847,283.027,255.029Z" transform="translate(-273.407 -247.056)" fill="url(#linear-gradient-59)"/>
        </g>
        <g id="Grupo_57119" data-name="Grupo 57119" transform="translate(0.292)">
          <path id="Trazado_115817" data-name="Trazado 115817" d="M276.787,245.418c12.824-.85,20.518,6.7,16.59,15.118-.493,1.053-1.964,1.235-3.044.81-8.214-3.24-12.149-7.053-14.99-13.566a1.694,1.694,0,0,1,1.444-2.362Z" transform="translate(-274.054 -245.353)" fill="url(#linear-gradient-60)"/>
          <path id="Trazado_115818" data-name="Trazado 115818" d="M282.491,262l-6.6,3.685,5.73-4.967Z" transform="translate(-274.277 -250.348)" fill="url(#linear-gradient-61)"/>
          <path id="Trazado_115819" data-name="Trazado 115819" d="M276.27,262.878l1.276-8.578.884,1.33Z" transform="translate(-274.4 -248.261)" fill="url(#linear-gradient-62)"/>
          <path id="Trazado_115820" data-name="Trazado 115820" d="M275.343,266.91c-2.025,4.805-1.64,5.345-1.843,6.709l.506-1.316c.439-1.006.628-1.762,2.025-5.433Z" transform="translate(-273.5 -252.347)" fill="url(#linear-gradient-63)"/>
          <path id="Trazado_115821" data-name="Trazado 115821" d="M279.74,248.81A33.377,33.377,0,0,1,291.659,261,52.786,52.786,0,0,1,279.74,248.81Z" transform="translate(-275.528 -246.477)" fill="url(#linear-gradient-64)"/>
          <path id="Trazado_115822" data-name="Trazado 115822" d="M294.995,259.917c1.35-5.3-4.1-10.2-12.075-12.257C289.008,251.082,293.948,255.314,294.995,259.917Z" transform="translate(-276.562 -246.103)" fill="url(#linear-gradient-65)"/>
        </g>
        <path id="Trazado_115823" data-name="Trazado 115823" d="M276.059,264.174s2.322-2.929,1.215-4.468-3.489-1.843-4.1,1.255C272.414,264.808,276.059,264.174,276.059,264.174Z" transform="translate(-273.067 -249.651)" fill="url(#linear-gradient-66)"/>
      </g>
    </g>
    <g id="Grupo_57126" data-name="Grupo 57126" transform="translate(23.8 180.99)">
      <g id="Grupo_57122" data-name="Grupo 57122" transform="translate(70.854 41.659)">
        <path id="Trazado_115824" data-name="Trazado 115824" d="M159.295,342.841l-3.712,3.658a26.639,26.639,0,0,1-12.452-4.225,29.613,29.613,0,0,1,5.278-9.064A30.608,30.608,0,0,0,159.295,342.841Z" transform="translate(-133.445 -315.432)" fill="url(#linear-gradient-67)"/>
        <path id="Trazado_115825" data-name="Trazado 115825" d="M128.78,320.571l8.774-13.7a34.577,34.577,0,0,0,6.223,17.778,29.909,29.909,0,0,0-5.278,9.064,24.115,24.115,0,0,1-9.719-13.141Z" transform="translate(-128.78 -306.87)" fill="url(#linear-gradient-68)"/>
      </g>
      <path id="Trazado_115826" data-name="Trazado 115826" d="M111.649,483.941c4.374.2,8.6.074,11.427-.074-2.571-1.829-8.5-5.811-13.451-7.424l-3.375-.2A13.935,13.935,0,0,0,104.69,482C105.2,482.74,106.843,483.718,111.649,483.941Z" transform="translate(-50.095 -320.268)" fill="url(#linear-gradient-69)"/>
      <path id="Trazado_115827" data-name="Trazado 115827" d="M123.1,486.7h0c-2.828.148-7.053.27-11.427.074-4.785-.223-6.432-1.2-6.992-1.91,0,.189-.04.371-.054.567a1.593,1.593,0,0,0,1.465,1.721c3.577.27,12.446.884,16.732.675a.594.594,0,0,0,.277-1.127Z" transform="translate(-50.073 -323.07)" fill="url(#linear-gradient-70)"/>
      <path id="Trazado_115828" data-name="Trazado 115828" d="M63.777,482.875a33.562,33.562,0,0,0-1.235-5.771c-.621-1.195-2.747,0-2.747,0a5.649,5.649,0,0,0-2.187,1.856c-.439.742-1.647,2.848-2.47,4.279a.931.931,0,0,0-.128.506l8.524.3A1.707,1.707,0,0,0,63.777,482.875Z" transform="translate(-33.945 -320.377)" fill="url(#linear-gradient-71)"/>
      <path id="Trazado_115829" data-name="Trazado 115829" d="M55,487.2a.965.965,0,0,0,.945.945l6.074.169a1.714,1.714,0,0,0,1.505-.81Z" transform="translate(-33.942 -323.831)" fill="url(#linear-gradient-72)"/>
      <path id="Trazado_115830" data-name="Trazado 115830" d="M66.1,467.533c-.317-2.322-4.482-1.384-4.482-1.384,0,.256-.56,5.676-.8,8.052a1.35,1.35,0,0,0,.911,1.444,11,11,0,0,0,1.107.277,1.5,1.5,0,0,0,1.681-1.033C65.168,472.96,66.336,469.221,66.1,467.533Z" transform="translate(-35.829 -316.927)" fill="url(#linear-gradient-73)"/>
      <path id="Trazado_115831" data-name="Trazado 115831" d="M105.93,468.7c.472,0-.189,2.436.526,4.853a1.242,1.242,0,0,0,1.141.979,11.474,11.474,0,0,0,1.242-.04,1.35,1.35,0,0,0,1.262-1.235l.6-6.257Z" transform="translate(-50.498 -317.265)" fill="url(#linear-gradient-74)"/>
      <path id="Trazado_115832" data-name="Trazado 115832" d="M104.53,369.521c-.216,1.026-7.66,44.444-8.1,66.913a.756.756,0,0,1-.675.742,14.908,14.908,0,0,1-4.569,0,.547.547,0,0,1-.445-.493c-.263-4.191-2.356-39.591.209-56.255,0,0-21.166,44.545-24.372,56.829a.675.675,0,0,1-.675.486,15.883,15.883,0,0,1-4.245-.817,1.12,1.12,0,0,1-.675-1.316c1.735-7.37,14.3-57.99,22.826-69.16Z" transform="translate(-35.876 -284.579)" fill="url(#linear-gradient-75)"/>
      <path id="Trazado_115833" data-name="Trazado 115833" d="M105.277,385.829a.284.284,0,0,1-.2-.081.277.277,0,0,1,0-.391l2.835-2.9a.277.277,0,0,1,.391,0,.283.283,0,0,1,0,.391l-2.835,2.9A.283.283,0,0,1,105.277,385.829Z" transform="translate(-50.195 -289.757)" fill="url(#linear-gradient-76)"/>
      <path id="Trazado_115834" data-name="Trazado 115834" d="M127.651,288.848c-5.433-1.424-15.463-3.651-23.447-3.179a3.611,3.611,0,0,0-3.375,3.375c-1.208,21.26-2.855,40.131-5.96,51.106,6.979,2.76,13.9,4.05,20.72,3.044a229.786,229.786,0,0,0,13.4-37.945s2.241-11.474.061-15.267a2.227,2.227,0,0,0-1.4-1.134Z" transform="translate(-46.903 -258.298)" fill="url(#linear-gradient-77)"/>
      <path id="Trazado_115835" data-name="Trazado 115835" d="M123.207,268.34s-1.35,8.194-1.782,11.98a1.471,1.471,0,0,0,.8,1.478,10.8,10.8,0,0,0,8.194.877,1.384,1.384,0,0,0,.938-1.35l-.236-10.934Z" transform="translate(-55.532 -252.686)" fill="url(#linear-gradient-78)"/>
      <g id="Grupo_57123" data-name="Grupo 57123" transform="translate(62.85 0.456)">
        <path id="Trazado_115836" data-name="Trazado 115836" d="M132.221,254.9s2.652,6.074,2.828,9.274.864,5.271-2.828,5.912a7.853,7.853,0,0,1-8.491-4.38s-2.639-4.9-2.025-6.9S132.221,254.9,132.221,254.9Z" transform="translate(-118.445 -248.774)" fill="url(#linear-gradient-79)"/>
        <path id="Trazado_115837" data-name="Trazado 115837" d="M123.467,260.467h.472s-1.924-3.942-.236-4.637,6.864-.675,8.308-3.057-2.288-3.7-4.144-4.529a8.983,8.983,0,0,1,2.146-.236l.385-.29c-.1.2-1.35-.742-1.39-.958s-1.505-1.093-1.62-.911c-.439.715,1.417,1.627-1.8,2.221-4.556.844-7.573,2.7-7.647,5.838a.25.25,0,0,1-.385.2c-.337-.2,1-.3.283.3a2.389,2.389,0,0,0-.925,1.613,3.159,3.159,0,0,0,1.046,2.268,1.5,1.5,0,0,1,.486,1.154,11.533,11.533,0,0,1-.324,1.262c-.074.567.493.958.918,1.2A18.738,18.738,0,0,1,120.821,263c.317.216.965.891,1.35.783a.25.25,0,0,0,.189-.263l-.169-2.787a.256.256,0,0,1,.25-.27Z" transform="translate(-116.92 -245.823)" fill="url(#linear-gradient-80)"/>
        <path id="Trazado_115838" data-name="Trazado 115838" d="M125.191,266.949s-1.006-3.888-2.747-2.8.9,4.36,2.3,4.5Z" transform="translate(-118.529 -251.718)" fill="url(#linear-gradient-81)"/>
      </g>
      <g id="Grupo_57124" data-name="Grupo 57124" transform="translate(0 30.309)">
        <path id="Trazado_115839" data-name="Trazado 115839" d="M36.759,351.307l-3.577.9c-6.142,1.552-10.266,6.162-9.22,10.306l1.249,4.927c1.046,4.137,6.871,6.236,13.013,4.684l3.577-.9.675-.2,104.9-31.384-2.7-10.725-107.2,22.225C37.245,351.193,37,351.247,36.759,351.307Zm1.539,4.913c4.623-1.168,8.936.108,9.631,2.855s-2.484,5.919-7.121,7.087-8.929-.108-9.625-2.855,2.5-5.919,7.121-7.087Z" transform="translate(-23.8 -302.688)" fill="#7d97f4"/>
        <path id="Trazado_115840" data-name="Trazado 115840" d="M234.768,301.714l-20.761,5.244a4.907,4.907,0,0,0-3.307,2.814l-3.1,7.168a4.913,4.913,0,0,0,1.471,5.811l6.142,4.839a4.9,4.9,0,0,0,4.239.9l20.761-5.244a3.773,3.773,0,0,1,4.313,5.345,28.246,28.246,0,0,1-18.264,14.39c-14.929,3.78-28.138-5.271-31.769-19.627s3.7-28.6,18.621-32.4a28.253,28.253,0,0,1,22.948,3.975,3.78,3.78,0,0,1-1.289,6.783Z" transform="translate(-78.987 -290.054)" fill="#7d97f4"/>
        <path id="Trazado_115841" data-name="Trazado 115841" d="M235.488,304.615l-20.761,5.244a4.887,4.887,0,0,0-3.3,2.808l-3.111,7.175a4.914,4.914,0,0,0,1.471,5.811l6.142,4.839a4.913,4.913,0,0,0,4.245.9l20.754-5.244a3.773,3.773,0,0,1,4.313,5.345,28.246,28.246,0,0,1-18.284,14.389c-14.929,3.773-28.138-5.271-31.769-19.627s3.7-28.6,18.628-32.4a28.266,28.266,0,0,1,22.948,3.975,3.78,3.78,0,0,1-1.276,6.783Z" transform="translate(-79.214 -290.997)" fill="url(#linear-gradient-82)"/>
        <path id="Trazado_115842" data-name="Trazado 115842" d="M37.355,353.611l-3.577.9c-6.142,1.525-10.272,6.169-9.226,10.3l1.249,4.92c1.046,4.137,6.871,6.236,13.006,4.684l3.577-.9c.236-.061.472-.121.709-.2L148,341.935l-2.7-10.725L38.064,353.449Zm1.539,4.913c4.623-1.168,8.929.108,9.625,2.855s-2.49,5.919-7.114,7.087-8.929-.108-9.625-2.855,2.47-5.919,7.114-7.087Z" transform="translate(-23.992 -303.433)" fill="url(#linear-gradient-83)"/>
      </g>
      <g id="Grupo_57125" data-name="Grupo 57125" transform="translate(31.418 27.722)">
        <path id="Trazado_115843" data-name="Trazado 115843" d="M78.76,331.836c-2.7,7.546-1.181,15.631-1.181,15.631l-3.543.945s-4.576-5.447-3.53-17.548A17.285,17.285,0,0,1,78.76,331.836Z" transform="translate(-70.35 -300.689)" fill="url(#linear-gradient-84)"/>
        <path id="Trazado_115844" data-name="Trazado 115844" d="M70.58,316.444c.121-1.35.3-2.8.58-4.326,2.4-13.33,19.478-23.582,23.5-25.83a.553.553,0,0,1,.817.506L94.9,304.909c-9.517,1.276-14.018,6.749-16.07,12.486a17.284,17.284,0,0,0-8.254-.952Z" transform="translate(-70.425 -286.221)" fill="url(#linear-gradient-85)"/>
      </g>
      <path id="Trazado_115845" data-name="Trazado 115845" d="M174.558,354.822a2.308,2.308,0,0,0,1.485-1.282c.547-1.222,1.154-3.172-.148-3.766-1.951-.884-5.494,2.747-5.494,2.747l-1.735,2.808-1.586.769C168.531,356.5,171.332,355.827,174.558,354.822Z" transform="translate(-70.376 -279.113)" fill="url(#linear-gradient-86)"/>
      <path id="Trazado_115846" data-name="Trazado 115846" d="M78.727,352.9h4.387s-3.557,2.133-3.672,4.374,1.411,6.884,2.126,8.153c.776,1.384-9.928-2.025-6.149-12.527Z" transform="translate(-40.316 -280.174)" fill="url(#linear-gradient-87)"/>
      <path id="Trazado_115847" data-name="Trazado 115847" d="M116.753,257.2c2.167-.594,4.333-1.188,6.493-1.809,3.685-1.046,7.424-1.978,11.069-3.179.776-.256,1.552-.5,2.335-.736a2.774,2.774,0,0,0,1.35-.763c.344-.425.2-1.066-.391-1.093a15.612,15.612,0,0,0-3.071.277c-.29.054-3.138.594-3.132.675s-1.087-7.485-9.55-4.873C111.671,248.773,115.484,257.871,116.753,257.2Z" transform="translate(-53.445 -245.147)" fill="url(#linear-gradient-88)"/>
    </g>
    <g id="Grupo_57127" data-name="Grupo 57127" transform="translate(108.983 47.783)">
      <path id="Trazado_115848" data-name="Trazado 115848" d="M158.817,60.21l-.047,6.925,4.711-2.949Z" transform="translate(-152.858 -51.823)" fill="#7d97f4"/>
      <path id="Trazado_115849" data-name="Trazado 115849" d="M187.124,52.384l-18.79,16.3a1.768,1.768,0,0,1-1.309.418,1.741,1.741,0,0,1-1.208-.675L150.172,48.922a.7.7,0,0,1,.607-1.134Z" transform="translate(-150.01 -47.783)" fill="#91b3fa"/>
      <path id="Trazado_115850" data-name="Trazado 115850" d="M158.84,58.386,190.015,54.6l-28.658,6.945-.095,1.917Z" transform="translate(-152.88 -49.999)" fill="#7d97f4"/>
      <path id="Trazado_115851" data-name="Trazado 115851" d="M162.84,66.746l-4.07,1.91,2.565-3.766Z" transform="translate(-152.858 -53.344)" fill="#7d97f4"/>
    </g>
    <g id="Grupo_57129" data-name="Grupo 57129" transform="translate(218.173 260.411)">
      <path id="Trazado_115852" data-name="Trazado 115852" d="M390.319,383.52h-5.2V369.475c0-1.026-.918-1.478-1.944-1.478H360.494c-1.033,0-1.714.452-1.714,1.478V383.52h-5.17V369.475a6.6,6.6,0,0,1,6.884-6.655h22.684c3.881,0,7.121,2.781,7.121,6.655Z" transform="translate(-325.384 -362.82)" fill="url(#linear-gradient-89)"/>
      <path id="Trazado_115853" data-name="Trazado 115853" d="M317.64,394.18l2.322,43.007a7.492,7.492,0,0,0,7.424,7.08l63.484.358a7.478,7.478,0,0,0,7.505-6.851l3.678-43.594Z" transform="translate(-313.692 -373.014)" fill="url(#linear-gradient-90)"/>
      <rect id="Rectángulo_6308" data-name="Rectángulo 6308" width="93.599" height="10.819" rx="3.33" transform="translate(0 15.051)" fill="url(#linear-gradient-91)"/>
      <g id="Grupo_57128" data-name="Grupo 57128" transform="translate(11.42 22.576)">
        <path id="Trazado_115854" data-name="Trazado 115854" d="M341.054,404.734c-.081.675-.675,1.417-1.289,1.417h-9.928c-.634,0-1.141-.749-1.127-1.417l.148-7.114a1.35,1.35,0,0,1,1.269-1.35h10.752a1.114,1.114,0,0,1,1.066,1.35Z" transform="translate(-328.71 -396.27)" fill="#91b3fa"/>
        <path id="Trazado_115855" data-name="Trazado 115855" d="M407.9,404.734c.081.675.675,1.417,1.3,1.417h9.948c.628,0,1.134-.749,1.12-1.417l-.148-7.114a1.35,1.35,0,0,0-1.269-1.35H408.074a1.114,1.114,0,0,0-1.066,1.35Z" transform="translate(-354.154 -396.27)" fill="#91b3fa"/>
      </g>
      <path id="Trazado_115856" data-name="Trazado 115856" d="M372.069,438.415h-.074l-2.848-.243a.9.9,0,0,1-.8-.675l-.486-1.937a11.223,11.223,0,0,1-2.5-1.289l-1.836.7a.9.9,0,0,1-1.012-.256l-1.843-2.187a.9.9,0,0,1-.081-1.046l1.026-1.714a10.873,10.873,0,0,1-.85-2.7l-1.829-.81a.9.9,0,0,1-.533-.9l.25-2.848a.891.891,0,0,1,.675-.8l1.937-.486a11.251,11.251,0,0,1,1.3-2.5l-.722-1.863a.9.9,0,0,1,.263-1.012l2.187-1.843a.9.9,0,0,1,1.039-.081l1.714,1.026a11.063,11.063,0,0,1,2.7-.85l.81-1.829a.911.911,0,0,1,.9-.533l2.848.25a.9.9,0,0,1,.8.675l.486,1.937a11.056,11.056,0,0,1,2.49,1.3l1.87-.722a.9.9,0,0,1,1.012.263l1.836,2.187a.9.9,0,0,1,.088,1.039l-1.026,1.714a11.363,11.363,0,0,1,.85,2.7l1.822.81a.911.911,0,0,1,.533.9l-.243,2.848a.9.9,0,0,1-.675.8l-1.944.486a11.032,11.032,0,0,1-1.289,2.491l.715,1.87a.9.9,0,0,1-.256,1.012l-2.187,1.836a.9.9,0,0,1-1.046.088l-1.789-1.026a10.874,10.874,0,0,1-2.7.85l-.81,1.822a.9.9,0,0,1-.776.54Zm-2.349-1.276Zm-.088-.351,2.119.182.979-2.2.385-.054a9.68,9.68,0,0,0,2.983-.945l.344-.175,2.065,1.235,1.633-1.35-.864-2.247.229-.31a9.828,9.828,0,0,0,1.444-2.781l.115-.371,2.335-.587.182-2.119-2.2-1-.054-.385a9.564,9.564,0,0,0-.925-2.99l-.175-.351,1.235-2.065-1.35-1.627-2.248.864-.31-.229a9.658,9.658,0,0,0-2.781-1.444l-.371-.121-.587-2.335L371.7,413.2l-.979,2.2-.385.061a9.394,9.394,0,0,0-2.983.945l-.351.176-2.119-1.228-1.627,1.35.864,2.247-.236.31a9.633,9.633,0,0,0-1.438,2.781l-.121.371-2.335.587-.182,2.119,2.2.979.054.385a9.692,9.692,0,0,0,.952,2.983l.175.351-1.235,2.059,1.35,1.633,2.241-.864.317.229a9.741,9.741,0,0,0,2.781,1.444l.371.115ZM359.65,423.108Zm20.5-7.242ZM371.806,412.876Zm-.175,19.809a7.593,7.593,0,1,1,5.8-12.486,7.382,7.382,0,0,1,.9,1.35.71.71,0,1,1-1.249.675,6.189,6.189,0,1,0,.378,4.913.713.713,0,0,1,1.35.459,7.586,7.586,0,0,1-7.188,5.089Z" transform="translate(-326.943 -378.724)" fill="#91b3fa"/>
    </g>
  </g>
</svg>
