<svg xmlns="http://www.w3.org/2000/svg" xmlns:xlink="http://www.w3.org/1999/xlink" width="549.391" height="679.974" viewBox="0 0 549.391 679.974">
  <defs>
    <clipPath id="clip-path">
      <rect width="8.621" height="256.142" fill="none"/>
    </clipPath>
  </defs>
  <g id="conceptual1" transform="translate(3277 4762.987)">
    <rect id="Rectángulo_6768" data-name="Rectángulo 6768" width="549.391" height="116.974" rx="12" transform="translate(-3277 -4762.987)" fill="#b7a5f8" opacity="0.2"/>
    <rect id="Rectángulo_6772" data-name="Rectángulo 6772" width="385.391" height="194.974" rx="12" transform="translate(-3148.892 -4615.987)" fill="#b7a5f8" opacity="0.2"/>
    <rect id="Rectángulo_6776" data-name="Rectángulo 6776" width="385.391" height="313.974" rx="12" transform="translate(-3148.892 -4396.987)" fill="#b7a5f8" opacity="0.2"/>
    <g id="Grupo_58682" data-name="Grupo 58682" transform="translate(-3153.946 -4717.987)">
      <g id="Grupo_20708" data-name="Grupo 20708" transform="translate(0 0)">
        <text id="Variables_demográficas" data-name="Variables demográficas" transform="translate(0 0)" fill="#12263f" font-size="18" font-family="Roboto-Black, Roboto" font-weight="800"><tspan x="0" y="19">Variables demográficas</tspan></text>
      </g>
    </g>
    <text id="Son_las_únicas_que_se_pueden_medir_en_forma_estadística._Cada_país_realiza_actividades_de_levantamiento_de_información_con_una_periodicidad_determinada_censos_a_partir_de_las_cuales_es_posible_tener_datos_estadísticos_con_ables." data-name="Son las únicas que se pueden medir en forma estadística. Cada país realiza actividades  de levantamiento de información con una periodicidad determinada (censos), a partir de las cuales es posible tener datos estadísticos conﬁables." transform="translate(-3129.5 -4589.987)" fill="#12263f" font-size="16" font-family="Roboto-Regular, Roboto"><tspan x="0" y="17">Son las únicas que se pueden medir en forma </tspan><tspan x="0" y="41" xml:space="preserve">estadística. Cada país realiza actividades  de </tspan><tspan x="0" y="65">levantamiento de información con una </tspan><tspan x="0" y="89">periodicidad determinada (censos), a partir de </tspan><tspan x="0" y="113">las cuales es posible tener datos estadísticos </tspan><tspan x="0" y="137">conﬁables.</tspan></text>
    <text id="Edad_Sexo_Nivel_socioeconómico_Estado_civil_Nivel_académico_Religión_Características_de_vivienda" data-name="Edad
Sexo
Nivel socioeconómico
Estado civil
Nivel académico
Religión 
Características de vivienda" transform="translate(-3067.5 -4370.987)" fill="#12263f" font-size="16" font-family="Roboto-Regular, Roboto"><tspan x="0" y="17">Edad</tspan><tspan x="0" y="57">Sexo</tspan><tspan x="0" y="97">Nivel socioeconómico</tspan><tspan x="0" y="137">Estado civil</tspan><tspan x="0" y="177">Nivel académico</tspan><tspan x="0" y="217">Religión </tspan><tspan x="0" y="257">Características de vivienda</tspan></text>
    <line id="Línea_167" data-name="Línea 167" y2="423" transform="translate(-3221.111 -4662.487)" fill="none" stroke="#727997" stroke-width="2"/>
    <path id="Trazado_119788" data-name="Trazado 119788" d="M-5665.28-5111.5h-72.02" transform="translate(2516.389 591.013)" fill="none" stroke="#727997" stroke-width="2"/>
    <path id="Trazado_119792" data-name="Trazado 119792" d="M-5665.08-5111.5h-72.22" transform="translate(2516.188 870.013)" fill="none" stroke="#727997" stroke-width="2"/>
    <g id="Grupo_423" data-name="Grupo 423" transform="translate(-3100.621 -4368.129)" clip-path="url(#clip-path)">
      <g id="Grupo_423-2" data-name="Grupo 423">
        <path id="Trazado_635" data-name="Trazado 635" d="M8.385,6.763,1.856.234A.8.8,0,0,0,.725.23l0,0L.24.715a.8.8,0,0,0,0,1.131l0,0L5.722,7.332.234,12.82a.8.8,0,0,0,0,1.131l0,0,.481.481a.8.8,0,0,0,1.131,0l0,0L8.385,7.9a.81.81,0,0,0,0-1.139Z" transform="translate(0.002 0.002)" fill="#472ea6"/>
      </g>
      <g id="Grupo_423-3" data-name="Grupo 423" transform="translate(0 40)">
        <path id="Trazado_635-2" data-name="Trazado 635" d="M8.385,6.763,1.856.234A.8.8,0,0,0,.725.23l0,0L.24.715a.8.8,0,0,0,0,1.131l0,0L5.722,7.332.234,12.82a.8.8,0,0,0,0,1.131l0,0,.481.481a.8.8,0,0,0,1.131,0l0,0L8.385,7.9a.81.81,0,0,0,0-1.139Z" transform="translate(0.002 0.002)" fill="#472ea6"/>
      </g>
      <g id="Grupo_423-4" data-name="Grupo 423" transform="translate(0 80)">
        <path id="Trazado_635-3" data-name="Trazado 635" d="M8.385,6.763,1.856.234A.8.8,0,0,0,.725.23l0,0L.24.715a.8.8,0,0,0,0,1.131l0,0L5.722,7.332.234,12.82a.8.8,0,0,0,0,1.131l0,0,.481.481a.8.8,0,0,0,1.131,0l0,0L8.385,7.9a.81.81,0,0,0,0-1.139Z" transform="translate(0.002 0.002)" fill="#472ea6"/>
      </g>
      <g id="Grupo_423-5" data-name="Grupo 423" transform="translate(0 120)">
        <path id="Trazado_635-4" data-name="Trazado 635" d="M8.385,6.763,1.856.234A.8.8,0,0,0,.725.23l0,0L.24.715a.8.8,0,0,0,0,1.131l0,0L5.722,7.332.234,12.82a.8.8,0,0,0,0,1.131l0,0,.481.481a.8.8,0,0,0,1.131,0l0,0L8.385,7.9a.81.81,0,0,0,0-1.139Z" transform="translate(0.002 0.002)" fill="#472ea6"/>
      </g>
      <g id="Grupo_423-6" data-name="Grupo 423" transform="translate(0 160)">
        <path id="Trazado_635-5" data-name="Trazado 635" d="M8.385,6.763,1.856.234A.8.8,0,0,0,.725.23l0,0L.24.715a.8.8,0,0,0,0,1.131l0,0L5.722,7.332.234,12.82a.8.8,0,0,0,0,1.131l0,0,.481.481a.8.8,0,0,0,1.131,0l0,0L8.385,7.9a.81.81,0,0,0,0-1.139Z" transform="translate(0.002 0.002)" fill="#472ea6"/>
      </g>
      <g id="Grupo_423-7" data-name="Grupo 423" transform="translate(0 200)">
        <path id="Trazado_635-6" data-name="Trazado 635" d="M8.385,6.763,1.856.234A.8.8,0,0,0,.725.23l0,0L.24.715a.8.8,0,0,0,0,1.131l0,0L5.722,7.332.234,12.82a.8.8,0,0,0,0,1.131l0,0,.481.481a.8.8,0,0,0,1.131,0l0,0L8.385,7.9a.81.81,0,0,0,0-1.139Z" transform="translate(0.002 0.002)" fill="#472ea6"/>
      </g>
      <g id="Grupo_423-8" data-name="Grupo 423" transform="translate(0 240)">
        <path id="Trazado_635-7" data-name="Trazado 635" d="M8.385,6.763,1.856.234A.8.8,0,0,0,.725.23l0,0L.24.715a.8.8,0,0,0,0,1.131l0,0L5.722,7.332.234,12.82a.8.8,0,0,0,0,1.131l0,0,.481.481a.8.8,0,0,0,1.131,0l0,0L8.385,7.9a.81.81,0,0,0,0-1.139Z" transform="translate(0.002 0.002)" fill="#472ea6"/>
      </g>
    </g>
    <g id="cf5_variable" transform="translate(-3269 -4747.987)">
      <circle id="Elipse_4537" data-name="Elipse 4537" cx="45" cy="45" r="45" fill="#dad5ed"/>
      <path id="Trazado_116863" data-name="Trazado 116863" d="M88.4,56.93,65.23,33.77,46.05,26.15,10.55,41.08,30.66,61.19,17.71,70.25l19,19A45,45,0,0,0,88.4,56.93Z" fill="#cccadb"/>
      <path id="Trazado_116864" data-name="Trazado 116864" d="M65.23,33.77,45,13.54,24.77,33.77H33.2V70.25H56.8V33.77Z" fill="#9182ca"/>
      <path id="Trazado_116865" data-name="Trazado 116865" d="M45,13.54h0l-.02,56.71H56.8V33.77h8.43Z" fill="#6c58b8"/>
      <path id="Trazado_116866" data-name="Trazado 116866" d="M78.88,55.2,61.7,38.02,44.52,55.2h7.17V70.25H71.71V55.2Z" fill="#f25585"/>
      <path id="Trazado_116867" data-name="Trazado 116867" d="M61.7,38.02l.02,32.23h9.99V55.2h7.17Z" fill="#ef2a66"/>
      <path id="Trazado_116868" data-name="Trazado 116868" d="M44.9,41.08,27.73,23.9,10.55,41.08h7.16V70.25H37.74V41.08Z" fill="#fda551"/>
      <path id="Trazado_116869" data-name="Trazado 116869" d="M27.73,23.9l.09,46.35h9.92V41.08H44.9Z" fill="#fd8f25"/>
      <circle id="Elipse_4538" data-name="Elipse 4538" cx="4.6" cy="4.6" r="4.6" transform="translate(23.12 45.32)" fill="#fff"/>
      <path id="Trazado_116870" data-name="Trazado 116870" d="M32.32,49.92a4.6,4.6,0,0,0-4.5-4.6v9.2A4.6,4.6,0,0,0,32.32,49.92Z" fill="#e9edf5"/>
      <path id="Trazado_116871" data-name="Trazado 116871" d="M26.69,67.77h2.07a18.08,18.08,0,0,0,6.73-1.72l-1-6.64a4.79,4.79,0,0,0-4.72-4h-4a4.79,4.79,0,0,0-4.72,4l-1,6.64a18,18,0,0,0,6.64,1.72Z" fill="#fff"/>
      <path id="Trazado_116872" data-name="Trazado 116872" d="M35.49,66.05l-1-6.64a4.79,4.79,0,0,0-4.72-4H27.82v12.4h.94a18.08,18.08,0,0,0,6.73-1.76Z" fill="#e9edf5"/>
      <circle id="Elipse_4539" data-name="Elipse 4539" cx="4.6" cy="4.6" r="4.6" transform="translate(57.1 45.32)" fill="#fff"/>
      <path id="Trazado_116873" data-name="Trazado 116873" d="M66.3,49.92a4.6,4.6,0,0,0-4.58-4.6v9.2A4.6,4.6,0,0,0,66.3,49.92Z" fill="#e9edf5"/>
      <path id="Trazado_116874" data-name="Trazado 116874" d="M60.66,67.77h2.08a18.08,18.08,0,0,0,6.73-1.72l-1-6.64a4.77,4.77,0,0,0-4.72-4h-4a4.77,4.77,0,0,0-4.71,4l-1,6.64a18.08,18.08,0,0,0,6.62,1.72Z" fill="#fff"/>
      <path id="Trazado_116875" data-name="Trazado 116875" d="M69.47,66.05l-1-6.64a4.77,4.77,0,0,0-4.72-4h-2v12.4h1A18.08,18.08,0,0,0,69.47,66.05Z" fill="#e9edf5"/>
    </g>
  </g>
</svg>
