<svg xmlns="http://www.w3.org/2000/svg" xmlns:xlink="http://www.w3.org/1999/xlink" width="549.391" height="523.158" viewBox="0 0 549.391 523.158">
  <defs>
    <clipPath id="clip-path">
      <rect width="8.621" height="136.142" fill="none"/>
    </clipPath>
  </defs>
  <g id="conceptual2" transform="translate(2646.391 4762.987)">
    <rect id="Rectángulo_6770" data-name="Rectángulo 6770" width="549.391" height="116.974" rx="12" transform="translate(-2646.391 -4762.987)" fill="#ef2a66" opacity="0.09"/>
    <rect id="Rectángulo_6774" data-name="Rectángulo 6774" width="385.391" height="131.974" rx="12" transform="translate(-2518.282 -4615.987)" fill="#ef2a66" opacity="0.09"/>
    <rect id="Rectángulo_6778" data-name="Rectángulo 6778" width="385.391" height="205.974" rx="12" transform="translate(-2518.282 -4445.804)" fill="#ef2a66" opacity="0.09"/>
    <g id="Grupo_58684" data-name="Grupo 58684" transform="translate(-2523.338 -4717.987)">
      <g id="Grupo_20708" data-name="Grupo 20708" transform="translate(0 0)">
        <text id="Variables_geográficas" data-name="Variables geográficas" transform="translate(0 0)" fill="#12263f" font-size="18" font-family="Roboto-Black, Roboto" font-weight="800"><tspan x="0" y="19">Variables geográficas</tspan></text>
      </g>
    </g>
    <text id="Son_las_variables_ambientales_que_dan_origen_a_las_diferencias_en_la_personalidad_de_comunidades_por_su_estructura_geográ_ca." data-name="Son las variables ambientales que dan origen a las diferencias en la personalidad de comunidades por su estructura geográﬁca." transform="translate(-2498.892 -4589.987)" fill="#12263f" font-size="16" font-family="Roboto-Regular, Roboto"><tspan x="0" y="17">Son las variables ambientales que dan origen a </tspan><tspan x="0" y="41">las diferencias en la personalidad de </tspan><tspan x="0" y="65">comunidades por su estructura geográﬁca.</tspan></text>
    <text id="Unidad_geográfica_Condiciones_geográficas_Raza_Tipo_de_población_" data-name="Unidad geográfica
Condiciones geográficas
Raza
Tipo de población " transform="translate(-2436.892 -4419.804)" fill="#12263f" font-size="16" font-family="Roboto-Regular, Roboto"><tspan x="0" y="17">Unidad geográfica</tspan><tspan x="0" y="57">Condiciones geográficas</tspan><tspan x="0" y="97">Raza</tspan><tspan x="0" y="137">Tipo de población </tspan></text>
    <line id="Línea_169" data-name="Línea 169" y2="320" transform="translate(-2590.502 -4662.487)" fill="none" stroke="#727997" stroke-width="2"/>
    <path id="Trazado_119790" data-name="Trazado 119790" d="M-5665.28-5111.5h-72.02" transform="translate(3146.998 561.5)" fill="none" stroke="#727997" stroke-width="2"/>
    <path id="Trazado_119794" data-name="Trazado 119794" d="M-5665.08-5111.5h-72.22" transform="translate(3146.797 768.683)" fill="none" stroke="#727997" stroke-width="2"/>
    <g id="Grupo_423" data-name="Grupo 423" transform="translate(-2470.012 -4416.945)" clip-path="url(#clip-path)">
      <g id="Grupo_423-2" data-name="Grupo 423">
        <path id="Trazado_635" data-name="Trazado 635" d="M8.385,6.763,1.856.234A.8.8,0,0,0,.725.23l0,0L.24.715a.8.8,0,0,0,0,1.131l0,0L5.722,7.332.234,12.82a.8.8,0,0,0,0,1.131l0,0,.481.481a.8.8,0,0,0,1.131,0l0,0L8.385,7.9a.81.81,0,0,0,0-1.139Z" transform="translate(0.002 0.002)" fill="#472ea6"/>
      </g>
      <g id="Grupo_423-3" data-name="Grupo 423" transform="translate(0 40)">
        <path id="Trazado_635-2" data-name="Trazado 635" d="M8.385,6.763,1.856.234A.8.8,0,0,0,.725.23l0,0L.24.715a.8.8,0,0,0,0,1.131l0,0L5.722,7.332.234,12.82a.8.8,0,0,0,0,1.131l0,0,.481.481a.8.8,0,0,0,1.131,0l0,0L8.385,7.9a.81.81,0,0,0,0-1.139Z" transform="translate(0.002 0.002)" fill="#472ea6"/>
      </g>
      <g id="Grupo_423-4" data-name="Grupo 423" transform="translate(0 80)">
        <path id="Trazado_635-3" data-name="Trazado 635" d="M8.385,6.763,1.856.234A.8.8,0,0,0,.725.23l0,0L.24.715a.8.8,0,0,0,0,1.131l0,0L5.722,7.332.234,12.82a.8.8,0,0,0,0,1.131l0,0,.481.481a.8.8,0,0,0,1.131,0l0,0L8.385,7.9a.81.81,0,0,0,0-1.139Z" transform="translate(0.002 0.002)" fill="#472ea6"/>
      </g>
      <g id="Grupo_423-5" data-name="Grupo 423" transform="translate(0 120)">
        <path id="Trazado_635-4" data-name="Trazado 635" d="M8.385,6.763,1.856.234A.8.8,0,0,0,.725.23l0,0L.24.715a.8.8,0,0,0,0,1.131l0,0L5.722,7.332.234,12.82a.8.8,0,0,0,0,1.131l0,0,.481.481a.8.8,0,0,0,1.131,0l0,0L8.385,7.9a.81.81,0,0,0,0-1.139Z" transform="translate(0.002 0.002)" fill="#472ea6"/>
      </g>
    </g>
    <g id="cf5_variable_1" data-name="cf5_variable 1" transform="translate(-2638 -4747.987)">
      <circle id="Elipse_4525" data-name="Elipse 4525" cx="45" cy="45" r="45" fill="#dad5ed"/>
      <path id="Trazado_116824" data-name="Trazado 116824" d="M90,45a44.78,44.78,0,0,0-4.61-19.85L68.68,9.36,46.05,26.15,10.55,41.08,30.66,61.19l-17.78-10L39.4,82.24c.9.17,3.41,3.45,6.46,7.74A45,45,0,0,0,90,45Z" fill="#cccadb"/>
      <g id="Grupo_57497" data-name="Grupo 57497">
        <g id="Grupo_57496" data-name="Grupo 57496">
          <path id="Trazado_116825" data-name="Trazado 116825" d="M45.18,70.2h1.93l1.07,12H44.11Z" fill="#fff"/>
          <path id="Trazado_116826" data-name="Trazado 116826" d="M26,6.68,24.36,5H24.3A36.84,36.84,0,1,0,75.81,56.57v-.06l-1.68-1.67-.05.07c-.22.31-.44.61-.67.91l-.41.51-1.19-1.19-.74.74,1.26,1.26-.36.4a34.5,34.5,0,1,1-48.7-48.7l.41-.36,1.2,1.2L25.67,9,24.53,7.81l.52-.4.9-.67Z" fill="#fff"/>
        </g>
        <path id="Trazado_116827" data-name="Trazado 116827" d="M46.55,68.36A33.67,33.67,0,1,0,12.88,34.69,33.67,33.67,0,0,0,46.55,68.36Z" fill="#9182ca"/>
        <path id="Trazado_116828" data-name="Trazado 116828" d="M73.56,31.82A32.36,32.36,0,0,1,22.43,58.18,33.67,33.67,0,1,0,52.83,1.61a32.36,32.36,0,0,1,20.73,30.2Z" fill="#6c58b8"/>
        <path id="Trazado_116829" data-name="Trazado 116829" d="M79.83,39.83a1.09,1.09,0,0,0-.24,1.32c-.12.65-.26,1.28-.42,1.92a5.4,5.4,0,0,0-.75.44A9.64,9.64,0,0,1,78.13,45c-.28.71-.32.33-.72.91a8.37,8.37,0,0,1-.6,1,4.25,4.25,0,0,1-.72.74,6.19,6.19,0,0,1-4.43,1.08c-.68-.57-.22-.72-.38-1.53a6.85,6.85,0,0,0-.86-1.85v-.06a4.47,4.47,0,0,1-.37-.77c-.55-1.74-.35-3.06-1.31-4.82-1.21-2.28.67-3.47.59-4.75a5.294,5.294,0,0,0-.18-.82,7.15,7.15,0,0,0-1.31-3.81c-1-1.21-.91-.78-.57-2.78.43-2.29-.55-1.7-1.93-1.76-.67-2.08-2-1.07-3.3-.45-.82.37-1.13-.11-2.06,0-2.08.28-.45,1.17-3.23-1-1.16-.92-.38-.45-1.07-1.6a17.41,17.41,0,0,0-1.25-1.39c-1.06-1.32.2-2.65,0-4.17-.32-2.82-.78-.37.8-3.77.82-1.81,2.08-1.83,2.4-2.63s.09-1.24.61-1.9,1.12-.43,1.38-1.27c.36-1-.34-1.18-1.1-1.2-.33-1.09-.33-.82-.08-1.83.13-.54,0-.81.12-1.34a34,34,0,0,1,4.15,1.92c-.24.69-.25,1.28-1.79,1.52a1.39,1.39,0,0,0-.4.06c-.45.16-.19,0-.45.28.2.47-.07.39.72.5,1.46.2,1.64-.7,2.69-.92.2,0,.78-.08,1.44-.12A33.72,33.72,0,0,1,79.83,39.83ZM17.26,18.08h0a33.342,33.342,0,0,1,2-3.1s0,.1,0,.15c.11,2.75,2.61,2.91,3.25,1.62.43-.85.33-1.32,1.72-1.1A3.42,3.42,0,0,1,24,17.49c-.12.33-.46.93-.29,1.38,1,.41,1-.35,2.34.43.09,1.31-.6,2.78.41,3.54.78.58.82.06,1.51-.06s.63.34,1.33.45c.4-.49.23-.18.49-.78.46-1,.58-.55,1.67-1.19a2.7,2.7,0,0,0,.31-.2c.12.26.26.51.38.75.79-.94.88,0,1.8.24a4.63,4.63,0,0,0,.89.15c.67,0,.74-.32,1.65,0a3.189,3.189,0,0,0,.37.13s.06,0,.06.05l.07.06c.16.17.17.34.29.53l1.87,1.78c1.21.48,1.21-.41,2.58.92.58.55.32.54.65,1.25a3.35,3.35,0,0,0,.2.35c.12.34.25.65.39,1,.63.82,1.49.31,2.36,1.15.5.49.12.35,1.24.54,1.72.28,1.05.12,2.37,1.12.5.36.62.15,1.1.47A2.26,2.26,0,0,1,50,34.24c-1.7,2.47-1.12,2.07-1.2,4-.06,1.12-.38,3.45-1.43,3.73-3.84,1.08-1.61,1.83-2.62,3.72-.29.54-.5.68-.69,1.11-.76,1.78-.23,2.38-2.49,2,.22.38.08.12.29.46.67,1,.78,1.83-.59,2.09-1.15.22-.66,0-.77,1.27-.44.18-.64,0-.93.29.4.74,0,.13.7.54-.12.41-.21.8-.32,1.19-.26,1-.34.07-.43,1.19.4.18.68.14,1,.62,0,.37-.42,1.37-.52,1.95.56.84,1,1.75,2.23,1.84,0,.7.15.63-.46.78a4.39,4.39,0,0,1-2.08-.61,5.63,5.63,0,0,1-2.06-1.8A7.17,7.17,0,0,0,37.1,58c-.58-.75-.35-1.1-.52-1.6a1.93,1.93,0,0,1-.36-1.56c0-.27.47-1.56,0-1.34s.4.12-.32.47a10.24,10.24,0,0,1-.4-1.73,14.805,14.805,0,0,0-.52-1.59c-.23-1.36.35-1.51-.29-3.77-.42-1.5-.25-5.05-.7-6.87a3,3,0,0,0-.26-.72c-.42-.69-1.43-1-2.24-1.56a.13.13,0,0,1-.09,0c-1.11-.78-2.17-3.85-3.06-5-.41-.56-.67-.31-.85-1.18s.11-.66.37-1.32c-1.36-2.5,1.75-2.46,1.11-5.46a3.31,3.31,0,0,0-.87-1.57c-.64.28-.34.44-.67,1l-1.55-.88c-1.57-1.52-.73-.42-1.17-1.41-.95-2.08-1.85-.92-3-1.95-.5-.42-.59-1.1-1.43-1-1.27.17-.57.36-1.88-.25-.37-.17-.74-.36-1.11-.55Zm5.44-7.16h0A33.54,33.54,0,0,1,34.89,3.1a4.58,4.58,0,0,0-.1.64,4.53,4.53,0,0,0-1.92.93L31.46,6l-.11.1c.17,1.26,0,1.28-.76,1.77a8.92,8.92,0,0,0-1.45.93c-1.91,1.72-1,.92-.89,3.87-.4-.12-.78-.26-1.15-.39-.29-2,.11-1.31-1.47-1.76s-1.46.34-2.17.49a1.3,1.3,0,0,1-.76-.11ZM37.28,2.31h0c.53-.15,1.06-.29,1.6-.41-.73.24-1,.55-1.59.69C37.29,2.48,37.28,2.38,37.28,2.31Z" fill="#abfff3"/>
        <path id="Trazado_116830" data-name="Trazado 116830" d="M38.59,82.24H53.71a1,1,0,0,1,1,1v1H37.57v-1a1,1,0,0,1,1.02-1Z" fill="#fd8f25"/>
        <path id="Trazado_116831" data-name="Trazado 116831" d="M29.34,84.28H63A2.68,2.68,0,0,1,65.63,87v2.67h-39V87a2.68,2.68,0,0,1,2.67-2.67Z" fill="#f25585"/>
      </g>
    </g>
  </g>
</svg>
