<svg xmlns="http://www.w3.org/2000/svg" width="191.834" height="191.834" viewBox="0 0 191.834 191.834">
  <g id="img4" transform="translate(0)">
    <ellipse id="Elipse_4519" data-name="Elipse 4519" cx="95.917" cy="95.917" rx="95.917" ry="95.917" transform="translate(0 0)" fill="#dad5ed"/>
    <g id="Grupo_57493" data-name="Grupo 57493" transform="translate(28.304 0)">
      <path id="Trazado_116811" data-name="Trazado 116811" d="M62.607,84.231,92.716,64.8l-3.08-8.54L42.746,84.213Z" transform="translate(-30.049 -2.297)" fill="#6c58b8"/>
      <path id="Trazado_116812" data-name="Trazado 116812" d="M117.251,51.68a18.031,18.031,0,0,1-36.048-.7,4.507,4.507,0,1,1,9.014,0A9.015,9.015,0,1,0,102.8,42.7a13.477,13.477,0,0,1-8.071-12.443V26.943h9.014v3.312a4.483,4.483,0,0,0,2.623,4.165,17.93,17.93,0,0,1,10.888,17.26Z" transform="translate(-31.62 -1.1)" fill="#8c80b8"/>
      <path id="Trazado_116813" data-name="Trazado 116813" d="M108.324,66.963A17.866,17.866,0,0,1,100,69.013V60a9.019,9.019,0,0,0,3.564-17.3A13.032,13.032,0,0,1,100,40.423V26.943h4.507v3.312a4.483,4.483,0,0,0,2.623,4.165c14.054,6.056,14.53,25.548,1.193,32.544Z" transform="translate(-32.387 -1.1)" fill="#5e567b"/>
      <path id="Trazado_116814" data-name="Trazado 116814" d="M153.518,84.445l-45.833-28.2a4.517,4.517,0,0,0-2.016-.475H93.648a4.517,4.517,0,0,0-2.016.475,2.9,2.9,0,0,0,1.353,2.451L133.8,84.406Z" transform="translate(-32.045 -2.277)" fill="#5b5555"/>
      <path id="Trazado_116815" data-name="Trazado 116815" d="M153.858,84.444l-19.716-.038L100,62.9v-7.13c9.424.206,5.118-1.316,15.71,5.2l36.959,22.742Z" transform="translate(-32.387 -2.276)" fill="#472ea6"/>
      <path id="Trazado_116816" data-name="Trazado 116816" d="M119.265,4.5A4.508,4.508,0,0,0,114.757,0H83.529a4.508,4.508,0,0,0-4.508,4.5l-.012,9.315a4.506,4.506,0,0,0,1.1,2.959l7.818,9.015a4.51,4.51,0,0,0,3.406,1.555h15.614a4.509,4.509,0,0,0,3.405-1.555l7.819-9.015a4.509,4.509,0,0,0,1.1-2.959Z" transform="translate(-31.53)" fill="#f25585"/>
      <path id="Trazado_116817" data-name="Trazado 116817" d="M120.134,13.817a4.517,4.517,0,0,1-1.1,2.96l-7.819,9.015a4.514,4.514,0,0,1-3.405,1.554H100V0h15.614a4.506,4.506,0,0,1,4.507,4.5Z" transform="translate(-32.387)" fill="#ef2a66"/>
      <path id="Trazado_116818" data-name="Trazado 116818" d="M160.227,84.9H34.017a4.508,4.508,0,0,0-4.508,4.507v63.406a4.508,4.508,0,0,0,4.508,4.507h126.21a4.508,4.508,0,0,0,4.508-4.507V89.409A4.508,4.508,0,0,0,160.227,84.9Z" transform="translate(-29.509 -3.466)" fill="#fda551"/>
      <path id="Trazado_116819" data-name="Trazado 116819" d="M167.613,89.409v63.406a4.509,4.509,0,0,1-4.508,4.507H100V84.9h63.1A4.509,4.509,0,0,1,167.613,89.409Z" transform="translate(-32.387 -3.466)" fill="#fd8f25"/>
      <g id="Grupo_57492" data-name="Grupo 57492" transform="translate(22.538 99.616)">
        <g id="Grupo_57491" data-name="Grupo 57491">
          <path id="Trazado_116820" data-name="Trazado 116820" d="M57.514,103.856a4.508,4.508,0,0,0-4.508,4.508v27.045a4.508,4.508,0,0,0,9.015,0V108.364A4.508,4.508,0,0,0,57.514,103.856Z" transform="translate(-53.006 -103.856)" fill="#febc7c"/>
          <path id="Trazado_116821" data-name="Trazado 116821" d="M85.71,103.856a4.508,4.508,0,0,0-4.507,4.508v27.045a4.507,4.507,0,1,0,9.014,0V108.364A4.508,4.508,0,0,0,85.71,103.856Z" transform="translate(-54.157 -103.856)" fill="#febc7c"/>
          <g id="Grupo_57490" data-name="Grupo 57490" transform="translate(54.091)">
            <path id="Trazado_116822" data-name="Trazado 116822" d="M113.906,103.856a4.508,4.508,0,0,0-4.507,4.508v27.045a4.507,4.507,0,1,0,9.014,0V108.364A4.508,4.508,0,0,0,113.906,103.856Z" transform="translate(-109.399 -103.856)" fill="#be6b1c"/>
            <path id="Trazado_116823" data-name="Trazado 116823" d="M142.1,103.856a4.508,4.508,0,0,0-4.507,4.508v27.045a4.508,4.508,0,0,0,9.015,0V108.364A4.508,4.508,0,0,0,142.1,103.856Z" transform="translate(-110.55 -103.856)" fill="#be6b1c"/>
          </g>
        </g>
      </g>
    </g>
  </g>
</svg>
