<svg xmlns="http://www.w3.org/2000/svg" width="18.838" height="29.789" viewBox="0 0 18.838 29.789">
  <path id="question-open" d="M14.074,30.388A13.585,13.585,0,0,1,13.463,35a6.892,6.892,0,0,1-2.052,2.833L10.09,39.056A5.221,5.221,0,0,0,8.228,42.78,2.782,2.782,0,0,0,8.9,44.852a2.383,2.383,0,0,0,1.732.651,2.644,2.644,0,0,0,2.092-.851,3.679,3.679,0,0,0,.791-2.412H20.3a8.2,8.2,0,0,1-2.552,6.246,10.047,10.047,0,0,1-6.957,2.222q-4.464,0-6.9-2.072A7.272,7.272,0,0,1,1.461,42.78a6.726,6.726,0,0,1,.761-3.133,12.425,12.425,0,0,1,2.6-3.193l1.7-1.562a4.6,4.6,0,0,0,1.722-3.063l.1-1.441Zm-2.683-2.7a3.878,3.878,0,0,1-2.673-.951,3.3,3.3,0,0,1,0-4.865,3.878,3.878,0,0,1,2.673-.951,3.812,3.812,0,0,1,2.693.971,3.294,3.294,0,0,1,0,4.825A3.812,3.812,0,0,1,11.391,27.685Z" transform="translate(-1.461 -20.918)" fill="#fd8f25"/>
</svg>
