<svg xmlns="http://www.w3.org/2000/svg" xmlns:xlink="http://www.w3.org/1999/xlink" width="268.718" height="268.472" viewBox="0 0 268.718 268.472">
  <defs>
    <linearGradient id="linear-gradient" x1="0.148" y1="1.185" x2="0.902" y2="-0.284" gradientUnits="objectBoundingBox">
      <stop offset="0" stop-color="#444b8c"/>
      <stop offset="1" stop-color="#26264f"/>
    </linearGradient>
    <linearGradient id="linear-gradient-2" x1="-0.345" y1="2.146" x2="0.409" y2="0.677" gradientUnits="objectBoundingBox">
      <stop offset="0" stop-color="#9182ca"/>
      <stop offset="1" stop-color="#472ea6"/>
    </linearGradient>
    <linearGradient id="linear-gradient-3" x1="0.782" y1="0.182" x2="-0.614" y2="1.755" xlink:href="#linear-gradient-2"/>
    <linearGradient id="linear-gradient-4" x1="0" y1="0.5" x2="1" y2="0.5" xlink:href="#linear-gradient-2"/>
    <clipPath id="clip-path">
      <path id="Trazado_119069" data-name="Trazado 119069" d="M150.6,18.24c-97.15,0-108.14,83-108.14,83H14.6v7.54L69.37,184.1,136.3,96.65H109.94l37.3-43.73s42.87,7.66,57.67,12.63c19.12,7,34.16,23,34.16,23S224.14,18.24,150.6,18.24Z" fill="none"/>
    </clipPath>
    <linearGradient id="linear-gradient-5" x1="0.284" y1="1.037" x2="0.764" y2="0.039" gradientUnits="objectBoundingBox">
      <stop offset="0" stop-color="#fda551"/>
      <stop offset="0" stop-color="#fda552"/>
      <stop offset="0.05" stop-color="#fdb065"/>
      <stop offset="0.11" stop-color="#feb772"/>
      <stop offset="0.18" stop-color="#febb7a"/>
      <stop offset="0.32" stop-color="#febc7c"/>
      <stop offset="0.43" stop-color="#feb671"/>
      <stop offset="0.62" stop-color="#fea754"/>
      <stop offset="0.86" stop-color="#fd8f26"/>
      <stop offset="0.87" stop-color="#fd8f25"/>
      <stop offset="1" stop-color="#be6b1c"/>
    </linearGradient>
    <linearGradient id="linear-gradient-6" x1="0.401" y1="0.958" x2="0.726" y2="0.091" xlink:href="#linear-gradient-5"/>
    <linearGradient id="linear-gradient-7" x1="-0.085" y1="0.498" x2="1.064" y2="0.498" xlink:href="#linear-gradient-5"/>
    <linearGradient id="linear-gradient-8" x1="0.495" y1="0.177" x2="0.556" y2="4.089" gradientUnits="objectBoundingBox">
      <stop offset="0" stop-color="#ffdb44"/>
      <stop offset="1" stop-color="#feef06"/>
    </linearGradient>
    <linearGradient id="linear-gradient-9" x1="0.493" y1="-0.778" x2="0.511" y2="1.296" xlink:href="#linear-gradient-8"/>
    <linearGradient id="linear-gradient-10" x1="22.845" y1="1177.98" x2="22.864" y2="1180.398" gradientUnits="objectBoundingBox">
      <stop offset="0" stop-color="#f36f56"/>
      <stop offset="0.31" stop-color="#f99c4c"/>
      <stop offset="0.55" stop-color="#fdb946"/>
      <stop offset="0.68" stop-color="#ffc444"/>
      <stop offset="0.8" stop-color="#ffc244"/>
      <stop offset="0.87" stop-color="#feba46"/>
      <stop offset="0.92" stop-color="#fcad49"/>
      <stop offset="0.96" stop-color="#f99a4d"/>
      <stop offset="1" stop-color="#f68252"/>
      <stop offset="1" stop-color="#f57e53"/>
    </linearGradient>
    <linearGradient id="linear-gradient-11" x1="-0.085" y1="0.5" x2="1.064" y2="0.5" xlink:href="#linear-gradient-5"/>
    <linearGradient id="linear-gradient-12" x1="0.495" y1="0.179" x2="0.556" y2="4.091" xlink:href="#linear-gradient-8"/>
    <linearGradient id="linear-gradient-13" x1="0.493" y1="-0.778" x2="0.511" y2="1.296" xlink:href="#linear-gradient-8"/>
    <linearGradient id="linear-gradient-14" x1="23.127" y1="1184.028" x2="23.145" y2="1186.451" xlink:href="#linear-gradient-10"/>
    <linearGradient id="linear-gradient-15" x1="-0.085" y1="0.5" x2="1.064" y2="0.5" xlink:href="#linear-gradient-5"/>
    <linearGradient id="linear-gradient-16" x1="0.495" y1="0.179" x2="0.555" y2="4.091" xlink:href="#linear-gradient-8"/>
    <linearGradient id="linear-gradient-17" x1="0.493" y1="-0.778" x2="0.511" y2="1.296" xlink:href="#linear-gradient-8"/>
    <linearGradient id="linear-gradient-18" x1="22.884" y1="1190.094" x2="22.902" y2="1192.52" xlink:href="#linear-gradient-10"/>
    <linearGradient id="linear-gradient-20" x1="0.495" y1="0.178" x2="0.556" y2="4.087" xlink:href="#linear-gradient-8"/>
    <linearGradient id="linear-gradient-22" x1="22.736" y1="1191.285" x2="22.755" y2="1193.708" xlink:href="#linear-gradient-10"/>
    <linearGradient id="linear-gradient-23" x1="-0.085" y1="0.5" x2="1.064" y2="0.5" xlink:href="#linear-gradient-5"/>
    <linearGradient id="linear-gradient-26" x1="22.845" y1="1195.202" x2="22.864" y2="1197.625" xlink:href="#linear-gradient-10"/>
    <linearGradient id="linear-gradient-27" x1="-0.085" y1="0.5" x2="1.064" y2="0.5" xlink:href="#linear-gradient-5"/>
    <linearGradient id="linear-gradient-28" x1="0.495" y1="0.18" x2="0.556" y2="4.088" xlink:href="#linear-gradient-8"/>
    <linearGradient id="linear-gradient-30" x1="23.127" y1="1198.835" x2="23.145" y2="1201.256" xlink:href="#linear-gradient-10"/>
    <linearGradient id="linear-gradient-32" x1="0.495" y1="0.178" x2="0.556" y2="4.087" xlink:href="#linear-gradient-8"/>
    <linearGradient id="linear-gradient-34" x1="22.884" y1="1202.451" x2="22.902" y2="1204.874" xlink:href="#linear-gradient-10"/>
    <linearGradient id="linear-gradient-35" x1="-0.085" y1="0.5" x2="1.064" y2="0.5" xlink:href="#linear-gradient-5"/>
    <linearGradient id="linear-gradient-38" x1="23.01" y1="1206.094" x2="23.029" y2="1208.517" xlink:href="#linear-gradient-10"/>
    <linearGradient id="linear-gradient-39" x1="-35.507" y1="34.048" x2="-33.802" y2="34.048" xlink:href="#linear-gradient-5"/>
    <linearGradient id="linear-gradient-40" x1="-39.833" y1="36.494" x2="-39.73" y2="37.114" xlink:href="#linear-gradient-8"/>
    <linearGradient id="linear-gradient-41" x1="-39.773" y1="36.378" x2="-39.741" y2="36.568" xlink:href="#linear-gradient-8"/>
    <linearGradient id="linear-gradient-42" x1="77.565" y1="58.738" x2="77.597" y2="58.931" xlink:href="#linear-gradient-10"/>
    <linearGradient id="linear-gradient-43" x1="-1132.611" y1="0.266" x2="-1132.351" y2="1.66" gradientUnits="objectBoundingBox">
      <stop offset="0" stop-color="#ffc444"/>
      <stop offset="1" stop-color="#f36f56"/>
    </linearGradient>
    <linearGradient id="linear-gradient-44" x1="854.922" y1="-526.656" x2="855.138" y2="-524.851" xlink:href="#linear-gradient-43"/>
    <linearGradient id="linear-gradient-45" x1="206.171" y1="-39.497" x2="206.562" y2="-37.982" gradientUnits="objectBoundingBox">
      <stop offset="0" stop-color="#ff9085"/>
      <stop offset="1" stop-color="#fb6fbb"/>
    </linearGradient>
    <linearGradient id="linear-gradient-46" x1="2266.193" y1="-57.438" x2="2266.193" y2="-66.987" xlink:href="#linear-gradient-43"/>
    <linearGradient id="linear-gradient-47" x1="380.18" y1="-3.185" x2="380.009" y2="-2.22" gradientUnits="objectBoundingBox">
      <stop offset="0" stop-color="#311944"/>
      <stop offset="1" stop-color="#893976"/>
    </linearGradient>
    <linearGradient id="linear-gradient-48" x1="379.922" y1="-3.185" x2="379.752" y2="-2.221" xlink:href="#linear-gradient-47"/>
    <linearGradient id="linear-gradient-49" x1="1070.459" y1="-43.966" x2="1069.469" y2="-47.967" xlink:href="#linear-gradient-45"/>
    <linearGradient id="linear-gradient-50" x1="936.666" y1="-1718.419" x2="936.666" y2="-1728.5" xlink:href="#linear-gradient-43"/>
    <linearGradient id="linear-gradient-51" x1="1317.708" y1="-764.535" x2="1315.665" y2="-767.327" xlink:href="#linear-gradient-45"/>
    <linearGradient id="linear-gradient-52" x1="-282.133" y1="0.532" x2="-284.542" y2="0.475" xlink:href="#linear-gradient-47"/>
    <linearGradient id="linear-gradient-53" x1="-110.898" y1="-0.387" x2="-110.664" y2="0.92" xlink:href="#linear-gradient-45"/>
    <linearGradient id="linear-gradient-54" x1="-47.163" y1="-31.501" x2="-46.7" y2="-29.736" xlink:href="#linear-gradient-45"/>
    <linearGradient id="linear-gradient-55" x1="618.938" y1="-17.045" x2="618.287" y2="-16.185" xlink:href="#linear-gradient-43"/>
    <linearGradient id="linear-gradient-56" x1="-191.55" y1="0.252" x2="-191.202" y2="1.822" xlink:href="#linear-gradient-45"/>
    <linearGradient id="linear-gradient-57" x1="124.56" y1="-3.079" x2="125.094" y2="-4.162" xlink:href="#linear-gradient"/>
  </defs>
  <g id="img5" transform="translate(-14.6 -18.24)">
    <g id="Layer_1" data-name="Layer 1">
      <g id="Grupo_58461" data-name="Grupo 58461">
        <g id="Grupo_58449" data-name="Grupo 58449">
          <g id="Grupo_58446" data-name="Grupo 58446">
            <path id="Trazado_119060" data-name="Trazado 119060" d="M261.14,157.91c0,54-43.76,99.79-99.6,102.34-58,2.65-106.67-42-106.67-99.85S103.55,56.72,161.54,58C217.38,59.18,261.14,103.9,261.14,157.91Z" fill="url(#linear-gradient)"/>
            <path id="Trazado_119061" data-name="Trazado 119061" d="M267.63,157.91c0,54-43.77,99.79-99.6,102.34-58,2.65-106.67-42-106.67-99.85S110,56.72,168,58C223.86,59.18,267.63,103.9,267.63,157.91Z" fill="url(#linear-gradient-2)"/>
            <path id="Trazado_119062" data-name="Trazado 119062" d="M261.46,158c0,50.89-41.28,94-93.84,96.24-54.47,2.38-100.1-39.62-100.1-93.9S113.15,62.94,167.62,64C220.18,65,261.46,107.1,261.46,158Z" fill="url(#linear-gradient-3)"/>
            <g id="Grupo_58444" data-name="Grupo 58444">
              <path id="Trazado_119063" data-name="Trazado 119063" d="M146.43,162.86q6.34-8.24,6.34-24.62,0-15.68-6.45-24.12t-18.49-8.44q-24.58,0-24.58,32.56,0,16,6.41,24.41t18.17,8.44Q140.09,171.09,146.43,162.86ZM128,156.34c-2.37,0-4.09-1.49-5.16-4.45s-1.61-7.47-1.61-13.51.54-10.51,1.61-13.43,2.79-4.38,5.16-4.38q6.84,0,6.84,17.81T128,156.34Z" fill="#fff"/>
              <path id="Trazado_119064" data-name="Trazado 119064" d="M219.29,155.73q-6.45-8.44-18.49-8.44-24.59,0-24.59,32.56,0,15.9,6.42,24.34t18.17,8.44q12.25,0,18.6-8.23t6.34-24.55Q225.74,164.18,219.29,155.73ZM200.94,198q-3.57,0-5.17-4.45t-1.6-13.5c0-6,.54-10.51,1.6-13.44s2.79-4.38,5.17-4.38q6.84,0,6.84,17.82T200.94,198Z" fill="#fff"/>
              <path id="Trazado_119065" data-name="Trazado 119065" d="M199.9,108.26a2.3,2.3,0,0,0-2-1.15H187.38a4.58,4.58,0,0,0-4,2.38L128.77,208a2.3,2.3,0,0,0,2,3.41h11.92a2.27,2.27,0,0,0,2-1.18l55.28-99.67A2.3,2.3,0,0,0,199.9,108.26Z" fill="#fff"/>
            </g>
            <g id="Grupo_58445" data-name="Grupo 58445" opacity="0.3">
              <path id="Trazado_119066" data-name="Trazado 119066" d="M123.08,115.69c-3.43-11.18-3.27-28.15,13.45-53.23C93.39,74.88,61.36,114,61.36,160.8c0,57.84,48.68,102.5,106.67,99.85A105.07,105.07,0,0,0,225,240.79c-.49-15.42-3.85-32.31-13.29-47.88C185.75,150.08,133.84,150.76,123.08,115.69Z" opacity="0.3" fill="url(#linear-gradient-4)"/>
            </g>
          </g>
          <g id="Grupo_58448" data-name="Grupo 58448" clip-path="url(#clip-path)">
            <g id="Grupo_58447" data-name="Grupo 58447">
              <path id="Trazado_119067" data-name="Trazado 119067" d="M237,103.25v.32a137.111,137.111,0,0,0-11.2-12c-.06-.13-.16-.27-.22-.4a69.69,69.69,0,0,0-18.52-24.95,20.663,20.663,0,0,0-1.73-1.42l-.89-.71L204,63.7l-.46-.34L201.7,62l-.46-.34-.49-.32-1-.63c-1.28-.88-2.65-1.64-4-2.44-.69-.39-1.4-.75-2.1-1.12l-1-.56-1.09-.51a69.66,69.66,0,0,0-18.44-5.87l-2.42-.37c-.81-.11-1.63-.18-2.43-.27l-1.22-.13-1.22-.06-1.22-.07a8.28,8.28,0,0,0-1.22,0h-4.67l-1.07.05h-.29l-1.1.08-1.48.09-1.11.08h.01l-2.39.34a6,6,0,0,0-1.18.17l-1.17.23-1.18.22-.58.11a3.024,3.024,0,0,0-.58.13l-2.29.56c-.38.08-.76.2-1.13.31l-1.12.34-1.12.32-1.09.38c-.73.26-1.46.49-2.16.76l-2.12.86a61.23,61.23,0,0,0-14.83,8.88l-.81.64-.76.69c-.5.44-1,.87-1.51,1.34v.05c-.94.92-1.89,1.79-2.73,2.75l-.66.7-.33.35-.3.37-1.23,1.44c-.09.12-.2.23-.3.36l-.28.37-.56.73c-.37.5-.76,1-1.09,1.47a53.65,53.65,0,0,0-6.31,11.65A51.21,51.21,0,0,0,101,96.58c-.06.39-.11.77-.16,1.15s-.13.74-.15,1.11q-.09,1.09-.18,2.1a17.334,17.334,0,0,1-.07,1.94v3.32a2.318,2.318,0,0,0,0,.31,2,2,0,0,0,0,.26v.31c0,.16,0,.2.05.2H127.9l-16.56,17.48-38.5,40.1L17.77,107.28h29a3.84,3.84,0,0,0,.13-.85c.12-.8.24-1.58.37-2.53.07-.47.14-.91.22-1.42a4.951,4.951,0,0,1,.12-.74,7.49,7.49,0,0,1,.13-.76q.3-1.5.63-3c.12-.54.24-1.08.36-1.64s.29-1.13.45-1.71c.32-1.16.62-2.39,1-3.64l1.27-3.9c.21-.68.48-1.34.74-2l.8-2.09a97.52,97.52,0,0,1,9.43-17.89,99.65,99.65,0,0,1,15.46-18c.75-.73,1.58-1.39,2.38-2.09l1.22-1,.61-.52.63-.5c.85-.65,1.71-1.32,2.56-2l.65-.49.67-.48L87.9,39c1.77-1.29,3.67-2.45,5.55-3.65,1-.58,1.94-1.12,2.92-1.69l1.47-.83,1.52-.78a101,101,0,0,1,26.2-9.31l3.48-.65c1.16-.21,2.34-.35,3.51-.52l1.75-.23,1.77-.17,1.76-.16c.59-.05,1.18-.11,1.77-.13,1.17-.06,2.35-.19,3.53-.24.29,0,.59-.12.89-.12h.88l1.76.1,1.76.05c.59,0,1.18.08,1.76.1l3.5.2h.75l.37.05.74.08,1.46.18.74.08h.36l.45.06,1.86.26,1.85.26.92.14c.31.05.58.11.87.17l3.39.68c.56.11,1.11.26,1.67.4l1.67.42,1.65.43,1.64.49c1.08.33,2.17.65,3.24,1L180.48,27a92.5,92.5,0,0,1,22.6,12.32l1.23.92,1.19,1c.78.64,1.58,1.26,2.33,1.91,1.5,1.34,3,2.62,4.35,4l1,1,.51.5.48.53c.65.7,1.3,1.39,1.93,2.08l.48.53.45.53c.3.36.6.71.89,1.07.59.71,1.21,1.39,1.74,2.13a85.879,85.879,0,0,1,7.64,11.63q1.54,2.81,2.75,5.57a79.43,79.43,0,0,1,5.11,15.74c.12.6.24,1.19.35,1.77s.23,1.14.3,1.7c.16,1.13.32,2.2.46,3.24s.19,2,.29,3c0,.48.08.94.11,1.39s.12.9.14,1.33C236.87,101.67,237,102.49,237,103.25Z" fill="url(#linear-gradient-5)"/>
              <path id="Trazado_119068" data-name="Trazado 119068" d="M237,103.25v.32a137.111,137.111,0,0,0-11.2-12c-.06-.13-.16-.27-.22-.4a69.69,69.69,0,0,0-18.52-24.95,20.663,20.663,0,0,0-1.73-1.42l-.89-.71L204,63.7l-.46-.34L201.7,62l-.46-.34-.49-.32-1-.63c-1.28-.88-2.65-1.64-4-2.44-.69-.39-1.4-.75-2.1-1.12l-1-.56-1.09-.51a69.66,69.66,0,0,0-18.44-5.87l-2.42-.37c-.81-.11-1.63-.18-2.43-.27l-1.22-.13-1.22-.06-1.22-.07a8.28,8.28,0,0,0-1.22,0h-4.67l-1.07.05h-.29l-1.1.08-1.48.09-1.11.08h.01l-2.39.34a6,6,0,0,0-1.18.17l-1.17.23-1.18.22-.58.11a3.024,3.024,0,0,0-.58.13l-2.29.56c-.38.08-.76.2-1.13.31l-1.12.34-1.12.32-1.09.38c-.73.26-1.46.49-2.16.76l-2.12.86a61.23,61.23,0,0,0-14.83,8.88l-.81.64-.76.69c-.5.44-1,.87-1.51,1.34v.05c12.23-14.43,32.05-23.8,54.42-23.8,22.92,0,43.17,9.84,55.31,24.87q1.54,2.81,2.75,5.57a79.432,79.432,0,0,1,5.11,15.74c.12.6.24,1.19.35,1.77s.23,1.14.3,1.7c.16,1.13.32,2.2.46,3.24s.19,2,.29,3c0,.48.08.94.11,1.39s.12.9.14,1.33C236.87,101.67,237,102.49,237,103.25Z" fill="url(#linear-gradient-6)"/>
            </g>
          </g>
        </g>
        <g id="Grupo_58459" data-name="Grupo 58459">
          <g id="Grupo_58450" data-name="Grupo 58450">
            <path id="Trazado_119070" data-name="Trazado 119070" d="M34.49,269v8.42c0,2.72,17,4.92,38,4.92s38-2.2,38-4.92V269Z" fill="url(#linear-gradient-7)"/>
            <path id="Trazado_119071" data-name="Trazado 119071" d="M110.4,269c0,2.72-17,4.92-37.95,4.92s-38-2.2-38-4.92,17-4.93,38-4.93S110.4,266.26,110.4,269Z" fill="url(#linear-gradient-8)"/>
            <path id="Trazado_119072" data-name="Trazado 119072" d="M72.45,274.24c-18.57,0-38-1.77-38-5.19,0-.19.07-.52.26-.52s.1.26.1.45c0,2.17,15.45,4.58,37.62,4.58s37.61-2.41,37.61-4.58c0-.19,0-.37.22-.37s.15.25.15.44C110.43,272.47,91,274.24,72.45,274.24Z" fill="url(#linear-gradient-9)"/>
            <path id="Trazado_119073" data-name="Trazado 119073" d="M68.86,269.25c.38-.26.77-.51,1.2-.76a7.269,7.269,0,0,1,1.63-.68,15.906,15.906,0,0,1,2.5-.5,34.14,34.14,0,0,1,3.75-.2,39.061,39.061,0,0,1,4.13.14,28,28,0,0,1,3.39.45,10.78,10.78,0,0,1,2.39.74,1.91,1.91,0,0,1,1.09,1h4.27a4.745,4.745,0,0,1,.82.08c.24.05.36.11.36.19v.35l-5.5-.06a2.72,2.72,0,0,1-1.47,1.19,15.232,15.232,0,0,1-3,.93l-2-.28a1.87,1.87,0,0,1-.44-.11.163.163,0,0,1-.18-.13c0-.05.16-.15.47-.24s.66-.19,1-.32.77-.28,1.14-.45a1.51,1.51,0,0,0,.75-.63l-13-.12a11.993,11.993,0,0,1-1.15.73,7.251,7.251,0,0,1-1.68.66,18,18,0,0,1-2.61.47,37.734,37.734,0,0,1-3.93.19,30.616,30.616,0,0,1-3.48-.13,24.6,24.6,0,0,1-3-.43,9.51,9.51,0,0,1-2.17-.71c-.56-.28-.88-.61-.94-1H49.68a5.156,5.156,0,0,1-.83-.07c-.24,0-.37-.11-.37-.19v-.35h4.81a2.61,2.61,0,0,1,1.32-1,15,15,0,0,1,2.44-.73l1.61.22c.49.07.73.15.73.24s-.1.11-.3.19l-.72.26a8.41,8.41,0,0,0-.8.36,1.72,1.72,0,0,0-.59.47ZM57,269.73a1.34,1.34,0,0,0,.64.6,5.2,5.2,0,0,0,1.23.41,11.924,11.924,0,0,0,1.64.24c.62,0,1.26.07,1.92.07a15.023,15.023,0,0,0,3.53-.36,7.6,7.6,0,0,0,1.14-.38,5.593,5.593,0,0,0,.88-.47Zm28.24-.31a1.36,1.36,0,0,0-.7-.62,6.741,6.741,0,0,0-1.41-.44,15.762,15.762,0,0,0-2-.27c-.76-.06-1.59-.09-2.51-.08a17.711,17.711,0,0,0-2.09.11,10.3,10.3,0,0,0-1.53.28,5.561,5.561,0,0,0-1.1.4,6.9,6.9,0,0,0-.84.5Z" fill="#fcb048"/>
            <path id="Trazado_119074" data-name="Trazado 119074" d="M72.45,264.58c-16.92,0-34.54,1.49-37.36,4.38.11.1.21.21.31.32,2.38-2,16.93-4,37.05-4,20.65,0,35.43,2.12,37.22,4.18.09-.12.19-.22.29-.33C107.63,266.13,89.68,264.58,72.45,264.58Z" fill="url(#linear-gradient-10)"/>
          </g>
          <g id="Grupo_58451" data-name="Grupo 58451">
            <path id="Trazado_119075" data-name="Trazado 119075" d="M23.94,260.13v8.42c0,2.72,17,4.93,38,4.93s37.95-2.21,37.95-4.93v-8.42Z" fill="url(#linear-gradient-11)"/>
            <path id="Trazado_119076" data-name="Trazado 119076" d="M99.85,260.13c0,2.72-17,4.93-37.95,4.93s-38-2.21-38-4.93,17-4.92,38-4.92S99.85,257.41,99.85,260.13Z" fill="url(#linear-gradient-12)"/>
            <path id="Trazado_119077" data-name="Trazado 119077" d="M61.9,265.4c-18.57,0-38-1.77-38-5.19,0-.19.07-.52.26-.52s.1.26.1.44c0,2.17,15.45,4.59,37.62,4.59s37.61-2.42,37.61-4.59c0-.18,0-.36.22-.36s.14.25.14.44C99.87,263.63,80.46,265.4,61.9,265.4Z" fill="url(#linear-gradient-13)"/>
            <path id="Trazado_119078" data-name="Trazado 119078" d="M58.31,260.41c.37-.26.77-.51,1.19-.76a7.483,7.483,0,0,1,1.63-.68,15.175,15.175,0,0,1,2.51-.5,31.771,31.771,0,0,1,3.74-.2,39.159,39.159,0,0,1,4.14.14,28.009,28.009,0,0,1,3.39.45,10.779,10.779,0,0,1,2.39.74,1.88,1.88,0,0,1,1.09,1h4.27a3.928,3.928,0,0,1,.82.08c.24,0,.35.11.35.18v.35l-5.5-.05a2.72,2.72,0,0,1-1.47,1.18,14.791,14.791,0,0,1-3,.93l-2-.27a3,3,0,0,1-.45-.11.166.166,0,0,1-.17-.14c0-.05.16-.14.47-.23s.66-.19,1-.32.77-.28,1.15-.45a1.62,1.62,0,0,0,.75-.63l-13-.13a13.452,13.452,0,0,1-1.15.74,7.72,7.72,0,0,1-1.68.66,18,18,0,0,1-2.61.47,37.808,37.808,0,0,1-3.94.19,28.346,28.346,0,0,1-3.47-.14,22.818,22.818,0,0,1-3-.43,9,9,0,0,1-2.17-.71c-.56-.28-.88-.6-.94-1H39.13a4.1,4.1,0,0,1-.83-.08c-.25,0-.37-.11-.37-.18v-.36l4.81.05a2.62,2.62,0,0,1,1.31-1,15.152,15.152,0,0,1,2.45-.73l1.61.22c.49.07.73.15.73.24s-.1.11-.3.19l-.72.26a5.866,5.866,0,0,0-.81.36,1.77,1.77,0,0,0-.58.47Zm-11.87.48a1.29,1.29,0,0,0,.64.59,5.179,5.179,0,0,0,1.23.42,11.777,11.777,0,0,0,1.64.23c.61.06,1.25.08,1.92.08a19.591,19.591,0,0,0,2-.11,11.109,11.109,0,0,0,1.53-.25,7.6,7.6,0,0,0,1.14-.38,6.547,6.547,0,0,0,.88-.47Zm28.23-.32A1.32,1.32,0,0,0,74,260a5.731,5.731,0,0,0-1.41-.44,15.756,15.756,0,0,0-2-.27c-.76-.06-1.59-.09-2.51-.08a18,18,0,0,0-2.1.11,10.493,10.493,0,0,0-1.52.27,5.532,5.532,0,0,0-1.1.41,8.426,8.426,0,0,0-.84.49Z" fill="#fcb048"/>
            <path id="Trazado_119079" data-name="Trazado 119079" d="M61.9,255.74c-16.92,0-34.54,1.49-37.36,4.37.11.11.21.21.31.33,2.37-2,16.92-4,37.05-4,20.65,0,35.43,2.12,37.22,4.17a2.889,2.889,0,0,1,.29-.32C97.08,257.29,79.13,255.74,61.9,255.74Z" fill="url(#linear-gradient-14)"/>
          </g>
          <g id="Grupo_58452" data-name="Grupo 58452">
            <path id="Trazado_119080" data-name="Trazado 119080" d="M33.05,251.32v8.42c0,2.72,17,4.92,38,4.92s38-2.2,38-4.92v-8.42Z" fill="url(#linear-gradient-15)"/>
            <path id="Trazado_119081" data-name="Trazado 119081" d="M109,251.32c0,2.72-17,4.92-38,4.92s-37.95-2.2-37.95-4.92,17-4.93,38-4.93S109,248.6,109,251.32Z" fill="url(#linear-gradient-16)"/>
            <path id="Trazado_119082" data-name="Trazado 119082" d="M71,256.58c-18.56,0-38-1.77-38-5.19,0-.19.06-.52.25-.52s.11.26.11.45c0,2.17,15.45,4.58,37.61,4.58s37.62-2.41,37.62-4.58c0-.19,0-.37.22-.37s.14.25.14.44C109,254.81,89.57,256.58,71,256.58Z" fill="url(#linear-gradient-17)"/>
            <path id="Trazado_119083" data-name="Trazado 119083" d="M67.42,251.59c.37-.26.76-.51,1.19-.76a7.481,7.481,0,0,1,1.63-.68,16.141,16.141,0,0,1,2.5-.5,34.136,34.136,0,0,1,3.75-.2,38.979,38.979,0,0,1,4.13.14A28.232,28.232,0,0,1,84,250a10.682,10.682,0,0,1,2.38.74,1.91,1.91,0,0,1,1.09,1l4.28.05a3.879,3.879,0,0,1,.81.07c.24.05.36.11.36.19v.35H87.43A2.83,2.83,0,0,1,86,253.58a14.589,14.589,0,0,1-3,.93l-2-.28a1.87,1.87,0,0,1-.44-.11.152.152,0,0,1-.17-.13c0-.05.15-.15.46-.23l1-.33A10.131,10.131,0,0,0,83,253a1.51,1.51,0,0,0,.75-.63l-13-.12c-.34.25-.73.49-1.15.74a7.76,7.76,0,0,1-1.68.65,18,18,0,0,1-2.61.47,37.6,37.6,0,0,1-3.93.19,30.609,30.609,0,0,1-3.48-.13,24.888,24.888,0,0,1-3-.43,9.51,9.51,0,0,1-2.17-.71,1.508,1.508,0,0,1-.94-1H48.27a5.147,5.147,0,0,1-.83-.07c-.24-.05-.36-.11-.37-.19v-.35h4.81a2.59,2.59,0,0,1,1.32-1,14.931,14.931,0,0,1,2.44-.74l1.61.22c.49.07.73.15.73.24s-.1.12-.3.19l-.72.26a8.256,8.256,0,0,0-.8.37,1.68,1.68,0,0,0-.59.46Zm-11.87.48a1.26,1.26,0,0,0,.64.6,5,5,0,0,0,1.22.41,12.083,12.083,0,0,0,1.65.24c.61.05,1.25.07,1.92.07a19.838,19.838,0,0,0,2-.1,12.89,12.89,0,0,0,1.52-.26,6.742,6.742,0,0,0,1.15-.38,5.941,5.941,0,0,0,.87-.47Zm28.23-.31a1.32,1.32,0,0,0-.7-.62,6.739,6.739,0,0,0-1.41-.44,15.51,15.51,0,0,0-2-.27c-.75-.06-1.59-.08-2.5-.08a17.887,17.887,0,0,0-2.1.11,10.549,10.549,0,0,0-1.53.28,5.448,5.448,0,0,0-1.09.4,8.465,8.465,0,0,0-.84.5Z" fill="#fcb048"/>
            <path id="Trazado_119084" data-name="Trazado 119084" d="M71,246.93c-16.93,0-34.55,1.48-37.37,4.37a2.329,2.329,0,0,1,.31.32c2.38-2,16.93-4,37.06-4,20.64,0,35.43,2.12,37.22,4.17a2.878,2.878,0,0,1,.28-.33C106.18,248.47,88.23,246.93,71,246.93Z" fill="url(#linear-gradient-18)"/>
          </g>
          <g id="Grupo_58453" data-name="Grupo 58453">
            <path id="Trazado_119085" data-name="Trazado 119085" d="M38.57,242.48v8.41c0,2.72,17,4.93,38,4.93s38-2.21,38-4.93v-8.41Z" fill="url(#linear-gradient-15)"/>
            <ellipse id="Elipse_4630" data-name="Elipse 4630" cx="37.95" cy="4.93" rx="37.95" ry="4.93" transform="translate(38.58 237.55)" fill="url(#linear-gradient-20)"/>
            <path id="Trazado_119086" data-name="Trazado 119086" d="M76.53,247.74c-18.57,0-38-1.77-38-5.19,0-.19.07-.52.26-.52s.1.26.1.45c0,2.16,15.45,4.58,37.62,4.58s37.61-2.42,37.61-4.58c0-.19,0-.37.22-.37s.14.25.14.44C114.5,246,95.09,247.74,76.53,247.74Z" fill="url(#linear-gradient-13)"/>
            <path id="Trazado_119087" data-name="Trazado 119087" d="M72.94,242.75c.37-.26.77-.51,1.19-.76a7.481,7.481,0,0,1,1.63-.68,15,15,0,0,1,2.51-.5,31.754,31.754,0,0,1,3.74-.2,38.88,38.88,0,0,1,4.13.14,28,28,0,0,1,3.4.45,10.78,10.78,0,0,1,2.39.74A1.88,1.88,0,0,1,93,243h4.27a4.848,4.848,0,0,1,.82.08c.24.05.35.11.35.18v.36l-5.5-.06a2.77,2.77,0,0,1-1.47,1.19,15.5,15.5,0,0,1-3,.92l-2-.27a3.125,3.125,0,0,1-.44-.11.166.166,0,0,1-.17-.14c0-.05.16-.14.47-.23s.65-.19,1-.32.77-.28,1.15-.45a1.62,1.62,0,0,0,.75-.63l-13-.13a11.849,11.849,0,0,1-1.14.74,7.939,7.939,0,0,1-1.68.66,18,18,0,0,1-2.61.47,37.8,37.8,0,0,1-3.94.19,30.7,30.7,0,0,1-3.48-.13,23,23,0,0,1-3-.44,9.451,9.451,0,0,1-2.16-.7c-.56-.29-.88-.61-.94-1H53.76a4.1,4.1,0,0,1-.83-.08c-.25,0-.37-.1-.37-.18v-.35h4.81a2.62,2.62,0,0,1,1.31-1,15.308,15.308,0,0,1,2.44-.73l1.62.22c.48.07.73.15.73.24s-.1.11-.3.19l-.73.26a6.327,6.327,0,0,0-.8.36,1.77,1.77,0,0,0-.58.47Zm-11.87.48a1.3,1.3,0,0,0,.64.6,5.6,5.6,0,0,0,1.22.41,12.085,12.085,0,0,0,1.65.24c.61.05,1.25.07,1.92.07a12.558,12.558,0,0,0,2-.1,13.077,13.077,0,0,0,1.53-.26,7.6,7.6,0,0,0,1.14-.38,6.548,6.548,0,0,0,.88-.47Zm28.23-.32a1.31,1.31,0,0,0-.7-.61,5.939,5.939,0,0,0-1.4-.44,15.756,15.756,0,0,0-2-.27c-.76-.06-1.59-.09-2.51-.08a18,18,0,0,0-2.1.11,12.06,12.06,0,0,0-1.52.27,5.531,5.531,0,0,0-1.1.41,8.434,8.434,0,0,0-.84.49Z" fill="#fcb048"/>
            <path id="Trazado_119088" data-name="Trazado 119088" d="M76.53,238.08c-16.92,0-34.54,1.49-37.36,4.37.11.11.21.21.31.33,2.37-2,16.92-4,37.05-4,20.65,0,35.43,2.12,37.22,4.17a2.889,2.889,0,0,1,.29-.32C111.71,239.63,93.76,238.08,76.53,238.08Z" fill="url(#linear-gradient-22)"/>
          </g>
          <g id="Grupo_58454" data-name="Grupo 58454">
            <path id="Trazado_119089" data-name="Trazado 119089" d="M34.49,232.94v8.41c0,2.72,17,4.93,38,4.93s38-2.21,38-4.93v-8.41Z" fill="url(#linear-gradient-23)"/>
            <path id="Trazado_119090" data-name="Trazado 119090" d="M110.4,232.94c0,2.72-17,4.92-37.95,4.92s-38-2.2-38-4.92,17-4.93,38-4.93S110.4,230.21,110.4,232.94Z" fill="url(#linear-gradient-12)"/>
            <path id="Trazado_119091" data-name="Trazado 119091" d="M72.45,238.2c-18.57,0-38-1.77-38-5.19,0-.19.07-.52.26-.52s.1.26.1.45c0,2.16,15.45,4.58,37.62,4.58s37.61-2.42,37.61-4.58c0-.19,0-.37.22-.37s.15.25.15.44C110.43,236.43,91,238.2,72.45,238.2Z" fill="url(#linear-gradient-9)"/>
            <path id="Trazado_119092" data-name="Trazado 119092" d="M68.86,233.21c.38-.26.77-.51,1.2-.76a7.27,7.27,0,0,1,1.63-.68,14.829,14.829,0,0,1,2.5-.5,31.808,31.808,0,0,1,3.75-.2,39.066,39.066,0,0,1,4.13.14,28,28,0,0,1,3.39.45,10.778,10.778,0,0,1,2.39.74,1.88,1.88,0,0,1,1.09,1h4.27a3.929,3.929,0,0,1,.82.08q.36.08.36.18v.36l-5.5-.06a2.77,2.77,0,0,1-1.47,1.19,15.29,15.29,0,0,1-3,.92l-2-.27a2.55,2.55,0,0,1-.44-.11.169.169,0,0,1-.18-.14c0-.05.16-.14.47-.23s.66-.19,1-.32.77-.28,1.14-.45a1.57,1.57,0,0,0,.75-.63l-13-.13a12.05,12.05,0,0,1-1.15.74,7.72,7.72,0,0,1-1.68.66,18,18,0,0,1-2.61.47,37.73,37.73,0,0,1-3.93.19,28.44,28.44,0,0,1-3.48-.14,21.258,21.258,0,0,1-3-.43,9.541,9.541,0,0,1-2.17-.7c-.56-.29-.88-.61-.94-1H49.68a4.171,4.171,0,0,1-.83-.08c-.24,0-.37-.1-.37-.18V233h4.81a2.61,2.61,0,0,1,1.32-1,15,15,0,0,1,2.44-.73l1.61.22c.49.07.73.15.73.24s-.1.11-.3.19l-.72.26a5.271,5.271,0,0,0-.8.36,1.72,1.72,0,0,0-.59.47ZM57,233.69a1.34,1.34,0,0,0,.64.6,5.7,5.7,0,0,0,1.23.41,11.917,11.917,0,0,0,1.64.24c.62.05,1.26.07,1.92.07a15.024,15.024,0,0,0,3.53-.36,7.6,7.6,0,0,0,1.14-.38,6.549,6.549,0,0,0,.88-.47Zm28.24-.32a1.39,1.39,0,0,0-.7-.61,6.2,6.2,0,0,0-1.41-.44,15.759,15.759,0,0,0-2-.27c-.76-.06-1.59-.09-2.51-.08a17.7,17.7,0,0,0-2.09.11,11.92,11.92,0,0,0-1.53.27,5.531,5.531,0,0,0-1.1.41,8.429,8.429,0,0,0-.84.49Z" fill="#fcb048"/>
            <path id="Trazado_119093" data-name="Trazado 119093" d="M72.45,228.54c-16.92,0-34.54,1.49-37.36,4.37.11.11.21.21.31.33,2.38-2,16.93-4,37.05-4,20.65,0,35.43,2.12,37.22,4.17.09-.11.19-.22.29-.32C107.63,230.09,89.68,228.54,72.45,228.54Z" fill="url(#linear-gradient-26)"/>
          </g>
          <g id="Grupo_58455" data-name="Grupo 58455">
            <path id="Trazado_119094" data-name="Trazado 119094" d="M23.94,224.09v8.42c0,2.72,17,4.93,38,4.93s37.95-2.21,37.95-4.93v-8.42Z" fill="url(#linear-gradient-27)"/>
            <ellipse id="Elipse_4631" data-name="Elipse 4631" cx="37.95" cy="4.93" rx="37.95" ry="4.93" transform="translate(23.95 219.16)" fill="url(#linear-gradient-28)"/>
            <path id="Trazado_119095" data-name="Trazado 119095" d="M61.9,229.36c-18.57,0-38-1.78-38-5.2,0-.18.07-.51.26-.51s.1.25.1.44c0,2.17,15.45,4.59,37.62,4.59s37.61-2.42,37.61-4.59c0-.19,0-.36.22-.36s.14.25.14.44C99.87,227.59,80.46,229.36,61.9,229.36Z" fill="url(#linear-gradient-13)"/>
            <path id="Trazado_119096" data-name="Trazado 119096" d="M58.31,224.37c.37-.26.77-.51,1.19-.77a8,8,0,0,1,1.63-.68,16.41,16.41,0,0,1,2.51-.49,29.733,29.733,0,0,1,3.74-.2,39.159,39.159,0,0,1,4.14.14,28,28,0,0,1,3.39.45,10.28,10.28,0,0,1,2.39.74,1.88,1.88,0,0,1,1.09,1h4.27a3.929,3.929,0,0,1,.82.08c.24,0,.35.11.35.18v.35l-5.5-.05a2.72,2.72,0,0,1-1.47,1.18,14.79,14.79,0,0,1-3,.93l-2-.28a2.171,2.171,0,0,1-.45-.1.166.166,0,0,1-.17-.14c0-.05.16-.14.47-.23s.66-.19,1-.32a10.208,10.208,0,0,0,1.15-.46,1.55,1.55,0,0,0,.75-.62l-13-.13a13.46,13.46,0,0,1-1.15.74,7.28,7.28,0,0,1-1.68.65,16.751,16.751,0,0,1-2.61.47,34.9,34.9,0,0,1-3.94.2,28.355,28.355,0,0,1-3.47-.14,22.808,22.808,0,0,1-3-.43,9.511,9.511,0,0,1-2.17-.71c-.56-.28-.88-.6-.94-1H39.13a5,5,0,0,1-.83-.08c-.25,0-.37-.11-.37-.19v-.35l4.81.05a2.56,2.56,0,0,1,1.31-1,14.2,14.2,0,0,1,2.45-.73l1.61.22c.49.07.73.15.73.24s-.1.11-.3.18l-.72.27a5.87,5.87,0,0,0-.81.36,1.66,1.66,0,0,0-.58.47Zm-11.87.48a1.29,1.29,0,0,0,.64.59,5.179,5.179,0,0,0,1.23.42,13.5,13.5,0,0,0,1.64.23c.61,0,1.25.08,1.92.07a17.374,17.374,0,0,0,2-.1,11,11,0,0,0,1.53-.26,6.639,6.639,0,0,0,1.14-.37,6.55,6.55,0,0,0,.88-.47Zm28.23-.32a1.28,1.28,0,0,0-.69-.61,6.17,6.17,0,0,0-1.41-.45,14.23,14.23,0,0,0-2-.26c-.76-.06-1.59-.09-2.51-.08a20.826,20.826,0,0,0-2.1.1,10.4,10.4,0,0,0-1.52.28,5.531,5.531,0,0,0-1.1.41,6.849,6.849,0,0,0-.84.49Z" fill="#fcb048"/>
            <path id="Trazado_119097" data-name="Trazado 119097" d="M61.9,219.7c-16.92,0-34.54,1.49-37.36,4.37a3.261,3.261,0,0,1,.31.33c2.37-2,16.92-4,37.05-4,20.65,0,35.43,2.12,37.22,4.17a2.889,2.889,0,0,1,.29-.32C97.08,221.24,79.13,219.7,61.9,219.7Z" fill="url(#linear-gradient-30)"/>
          </g>
          <g id="Grupo_58456" data-name="Grupo 58456">
            <path id="Trazado_119098" data-name="Trazado 119098" d="M33.05,215.28v8.41c0,2.72,17,4.93,38,4.93s38-2.21,38-4.93v-8.41Z" fill="url(#linear-gradient-15)"/>
            <ellipse id="Elipse_4632" data-name="Elipse 4632" cx="37.95" cy="4.93" rx="37.95" ry="4.93" transform="translate(33.05 210.35)" fill="url(#linear-gradient-32)"/>
            <path id="Trazado_119099" data-name="Trazado 119099" d="M71,220.54c-18.56,0-38-1.77-38-5.19,0-.19.06-.52.25-.52s.11.26.11.45c0,2.16,15.45,4.58,37.61,4.58s37.62-2.42,37.62-4.58c0-.19,0-.37.22-.37s.14.25.14.44C109,218.77,89.57,220.54,71,220.54Z" fill="url(#linear-gradient-17)"/>
            <path id="Trazado_119100" data-name="Trazado 119100" d="M67.42,215.55c.37-.26.76-.51,1.19-.76a7.479,7.479,0,0,1,1.63-.68,16.139,16.139,0,0,1,2.5-.5,34.139,34.139,0,0,1,3.75-.2,38.975,38.975,0,0,1,4.13.14A28.233,28.233,0,0,1,84,214a10.679,10.679,0,0,1,2.38.74,1.88,1.88,0,0,1,1.09,1h4.28a4.619,4.619,0,0,1,.81.08q.36.07.36.18v.36l-5.49-.06A2.84,2.84,0,0,1,86,217.54a15.931,15.931,0,0,1-3,.93l-2-.28a1.871,1.871,0,0,1-.44-.11.159.159,0,0,1-.17-.13c0-.04.15-.15.46-.24s.66-.19,1-.32.77-.28,1.15-.45a1.56,1.56,0,0,0,.75-.63l-13-.13a10.366,10.366,0,0,1-1.15.74,7.25,7.25,0,0,1-1.68.66,18,18,0,0,1-2.61.47,37.592,37.592,0,0,1-3.93.19,30.606,30.606,0,0,1-3.48-.13,24.891,24.891,0,0,1-3-.43,10,10,0,0,1-2.17-.71c-.56-.29-.87-.61-.94-1H48.27a5.151,5.151,0,0,1-.83-.07c-.24,0-.36-.11-.37-.19v-.35h4.81a2.65,2.65,0,0,1,1.32-1,15,15,0,0,1,2.44-.73l1.61.22c.49.07.73.15.73.24s-.1.11-.3.19l-.72.26a8.157,8.157,0,0,0-.8.36,1.82,1.82,0,0,0-.59.47ZM55.55,216a1.26,1.26,0,0,0,.64.6,5.42,5.42,0,0,0,1.22.41,12.083,12.083,0,0,0,1.65.24c.61.05,1.25.07,1.92.07a12.558,12.558,0,0,0,2-.1,12.884,12.884,0,0,0,1.52-.26,7.75,7.75,0,0,0,1.15-.38,5.943,5.943,0,0,0,.87-.47Zm28.23-.31a1.32,1.32,0,0,0-.7-.62,6.2,6.2,0,0,0-1.41-.44,15.51,15.51,0,0,0-2-.27c-.75-.06-1.59-.09-2.5-.08a17.89,17.89,0,0,0-2.1.11,12.251,12.251,0,0,0-1.53.27,5.42,5.42,0,0,0-1.09.41,8.428,8.428,0,0,0-.84.49Z" fill="#fcb048"/>
            <path id="Trazado_119101" data-name="Trazado 119101" d="M71,210.88c-16.93,0-34.55,1.49-37.37,4.38a2.329,2.329,0,0,1,.31.32c2.38-2,16.93-4,37.06-4,20.64,0,35.43,2.12,37.22,4.17a2.788,2.788,0,0,1,.28-.32C106.18,212.43,88.23,210.88,71,210.88Z" fill="url(#linear-gradient-34)"/>
          </g>
          <g id="Grupo_58457" data-name="Grupo 58457">
            <path id="Trazado_119102" data-name="Trazado 119102" d="M28.31,206.43v8.42c0,2.72,17,4.93,38,4.93s38-2.21,38-4.93v-8.42Z" fill="url(#linear-gradient-35)"/>
            <ellipse id="Elipse_4633" data-name="Elipse 4633" cx="37.95" cy="4.93" rx="37.95" ry="4.93" transform="translate(28.32 201.5)" fill="url(#linear-gradient-28)"/>
            <path id="Trazado_119103" data-name="Trazado 119103" d="M66.27,211.7c-18.57,0-38-1.77-38-5.19,0-.19.07-.52.26-.52s.1.26.1.44c0,2.17,15.45,4.59,37.62,4.59s37.61-2.42,37.61-4.59c0-.18,0-.36.22-.36s.14.25.14.44C104.24,209.93,84.83,211.7,66.27,211.7Z" fill="url(#linear-gradient-13)"/>
            <path id="Trazado_119104" data-name="Trazado 119104" d="M62.68,206.71c.37-.26.77-.51,1.19-.77a7.5,7.5,0,0,1,1.63-.67,15,15,0,0,1,2.51-.5,31.764,31.764,0,0,1,3.74-.2,38.872,38.872,0,0,1,4.13.14,28,28,0,0,1,3.4.45,10.279,10.279,0,0,1,2.39.74,1.88,1.88,0,0,1,1.09,1L87,207a4,4,0,0,1,.82.08c.24.05.35.11.35.18v.35l-5.5-.05a2.72,2.72,0,0,1-1.47,1.18,14.791,14.791,0,0,1-3,.93l-2-.28a2.211,2.211,0,0,1-.44-.1.166.166,0,0,1-.17-.14c0-.05.16-.14.47-.23l1-.32a10.211,10.211,0,0,0,1.15-.46,1.55,1.55,0,0,0,.75-.62l-13-.13a11.845,11.845,0,0,1-1.14.74,7.46,7.46,0,0,1-1.68.65,17.889,17.889,0,0,1-2.61.48,38,38,0,0,1-3.94.19,28.516,28.516,0,0,1-3.48-.14,23.053,23.053,0,0,1-3-.43,9,9,0,0,1-2.16-.71c-.56-.28-.88-.6-.94-1H43.49a5,5,0,0,1-.83-.08c-.25,0-.37-.11-.37-.18v-.36l4.81.05a2.62,2.62,0,0,1,1.31-1,15.309,15.309,0,0,1,2.44-.73l1.62.22c.48.07.73.15.73.24s-.1.11-.3.18l-.73.27a6.332,6.332,0,0,0-.8.36,1.77,1.77,0,0,0-.58.47Zm-11.87.48a1.24,1.24,0,0,0,.64.59,5.09,5.09,0,0,0,1.22.42,14,14,0,0,0,1.65.23c.61,0,1.25.08,1.92.07a17.374,17.374,0,0,0,2-.1,13.22,13.22,0,0,0,1.53-.25,7.6,7.6,0,0,0,1.14-.38,6.549,6.549,0,0,0,.88-.47ZM79,206.87a1.27,1.27,0,0,0-.7-.61,5.91,5.91,0,0,0-1.4-.45,15.91,15.91,0,0,0-2-.26c-.76-.06-1.59-.09-2.51-.08a20.826,20.826,0,0,0-2.1.1,11.925,11.925,0,0,0-1.52.28,5.53,5.53,0,0,0-1.1.41,8.429,8.429,0,0,0-.84.49Z" fill="#fcb048"/>
            <path id="Trazado_119105" data-name="Trazado 119105" d="M66.27,202c-16.92,0-34.54,1.49-37.36,4.37a3.258,3.258,0,0,1,.31.33c2.37-2,16.92-4,37.05-4,20.65,0,35.43,2.12,37.22,4.17a2.89,2.89,0,0,1,.29-.32C101.45,203.59,83.5,202,66.27,202Z" fill="url(#linear-gradient-38)"/>
          </g>
          <g id="Grupo_58458" data-name="Grupo 58458">
            <path id="Trazado_119106" data-name="Trazado 119106" d="M115,212.37l-6.86,4.88c-2.22,1.57,5.83,16.7,18,33.78s23.8,29.65,26,28.07l6.86-4.88Z" fill="url(#linear-gradient-39)"/>
            <path id="Trazado_119107" data-name="Trazado 119107" d="M159,274.22c-2.22,1.58-13.87-11-26-28.07s-20.2-32.21-18-33.78,13.86,11,26,28.07S161.23,272.65,159,274.22Z" fill="url(#linear-gradient-40)"/>
            <path id="Trazado_119108" data-name="Trazado 119108" d="M132.73,246.35c-10.76-15.13-20.57-32-17.78-34,.15-.11.46-.24.57-.09s-.15.24-.31.34c-1.76,1.26,5.22,15.25,18.07,33.31s23.77,29.25,25.54,28c.15-.11.31-.19.42,0s-.12.26-.27.37C156.18,276.27,143.49,261.48,132.73,246.35Z" fill="url(#linear-gradient-41)"/>
            <path id="Trazado_119109" data-name="Trazado 119109" d="M134.71,240.53c.43.16.87.33,1.32.53a7.621,7.621,0,0,1,1.5.94,15,15,0,0,1,1.85,1.75,32.739,32.739,0,0,1,2.34,2.94c.85,1.19,1.61,2.34,2.28,3.44a30.551,30.551,0,0,1,1.6,3,10.811,10.811,0,0,1,.78,2.37,1.93,1.93,0,0,1-.19,1.48l2.44,3.51a3.56,3.56,0,0,1,.41.71q.15.33.06.39l-.29.21-3.14-4.51a2.82,2.82,0,0,1-1.82-.51,15.269,15.269,0,0,1-2.5-1.92l-.93-1.79a1.681,1.681,0,0,1-.17-.42v-.22c0-.03.21,0,.46.24a8.228,8.228,0,0,0,.87.67q.483.36,1,.67a1.53,1.53,0,0,0,.94.25l-7.41-10.64a10.41,10.41,0,0,1-1.26-.51,6.878,6.878,0,0,1-1.51-1,16.772,16.772,0,0,1-1.9-1.85,37.468,37.468,0,0,1-2.43-3.09c-.7-1-1.33-1.94-1.91-2.92a22.84,22.84,0,0,1-1.4-2.71,9.761,9.761,0,0,1-.68-2.17,1.55,1.55,0,0,1,.25-1.34l-2-2.88a5.238,5.238,0,0,1-.43-.72c-.1-.23-.12-.36-.06-.41l.29-.21,2.75,4a2.61,2.61,0,0,1,1.55.51,15.409,15.409,0,0,1,2,1.56l.75,1.45c.23.43.3.68.23.73s-.15,0-.33-.14l-.63-.43a7.15,7.15,0,0,0-.76-.44,1.7,1.7,0,0,0-.72-.21Zm-7.27-9.39a1.31,1.31,0,0,0-.11.87,4.78,4.78,0,0,0,.37,1.23,13.081,13.081,0,0,0,.76,1.48c.32.53.67,1.06,1.06,1.61a19.56,19.56,0,0,0,1.26,1.6,11.181,11.181,0,0,0,1.1,1.09,6.191,6.191,0,0,0,1,.72,6.1,6.1,0,0,0,.89.44ZM144.06,254a1.27,1.27,0,0,0,.1-.92,6.61,6.61,0,0,0-.45-1.41,17.509,17.509,0,0,0-.94-1.77c-.39-.65-.85-1.35-1.39-2.09a20,20,0,0,0-1.3-1.65A10.929,10.929,0,0,0,139,245a5.39,5.39,0,0,0-1-.66,7,7,0,0,0-.89-.4Z" fill="#fcb048"/>
            <path id="Trazado_119110" data-name="Trazado 119110" d="M140.6,240.75c-9.81-13.79-21.24-27.28-25.22-27.91a3.118,3.118,0,0,1-.09.44c3,.78,13.09,11.47,24.75,27.87,12,16.82,18.81,30.1,18.18,32.75a3.282,3.282,0,0,1,.43,0C159.73,270.31,150.58,254.79,140.6,240.75Z" fill="url(#linear-gradient-42)"/>
          </g>
        </g>
        <g id="Grupo_58460" data-name="Grupo 58460">
          <path id="Trazado_119111" data-name="Trazado 119111" d="M219.76,156a4.84,4.84,0,0,0,1.48-1.95c.39-1,.12-1.45.61-2.08a2.47,2.47,0,0,1,2.76-.75,1.06,1.06,0,0,1,.55.43c.39.66-.47,1.79-1.16,2.4a11.465,11.465,0,0,1-1.28.81,5.2,5.2,0,0,0-1.75,2.22Z" fill="url(#linear-gradient-43)"/>
          <path id="Trazado_119112" data-name="Trazado 119112" d="M248.54,150.5a4.77,4.77,0,0,1-2.13-1.22c-.75-.77-.67-1.29-1.37-1.68a2.51,2.51,0,0,0-2.84.39,1.12,1.12,0,0,0-.33.62c-.1.75,1.13,1.46,2,1.75a9.626,9.626,0,0,0,1.49.24,5.28,5.28,0,0,1,2.48,1.37Z" fill="url(#linear-gradient-44)"/>
          <path id="Trazado_119113" data-name="Trazado 119113" d="M245.79,151.44c-.38,1.82,1.58,3.43,3,5,2.85,3.19,5.83,8.88,4.74,13.77a10.62,10.62,0,0,1-5.22,6.91c-2.91,1.47-4.66.14-7.69,1.88-.22.13-4.05,2.4-4.16,5.47-.14,3.78,5.42,7.8,10.18,8.11,8.7.56,19.18-11,18.69-22.49-.53-12.5-14-22.43-17.82-20.74A3.14,3.14,0,0,0,245.79,151.44Z" fill="url(#linear-gradient-45)"/>
          <path id="Trazado_119114" data-name="Trazado 119114" d="M241.92,280.87l-.32,3.17,1.48-.27.99-2.97Z" fill="url(#linear-gradient-46)"/>
          <path id="Trazado_119115" data-name="Trazado 119115" d="M250.9,222.36a79.54,79.54,0,0,1-1.68,14.36c-.9,4.23-1.42,5-1.7,7.88-.6,6.36,1.45,7.27,1.82,14.46a43.75,43.75,0,0,1-2.52,16.65,46.781,46.781,0,0,1-2.06,5c-.72.64-1.84.39-3,.15-.43-7.19-1-14-1.4-21.17q-2.1-16.25-4.19-32.49Z" fill="url(#linear-gradient-47)"/>
          <path id="Trazado_119116" data-name="Trazado 119116" d="M241.75,280.84c-.43-7.19-1-14-1.4-21.17q-2.1-16.25-4.19-32.49l14.74-4.82v1.09c-6.89,6-8.24,10.73-8.17,14,.08,3.93,2.22,5.87,1.8,11.56-.3,4.07-1.52,4.78-1.52,8.45,0,4.73,2,7.39,3,10.12s1.29,6.37-.55,11.69c-.24.55-.47,1-.68,1.46C244,281.33,242.92,281.08,241.75,280.84Z" opacity="0.3" fill="url(#linear-gradient-48)"/>
          <path id="Trazado_119117" data-name="Trazado 119117" d="M242.47,285.12c.7-.87,1.34-.8,1.46-1.39a1.2,1.2,0,0,0-.64-1.22,1.61,1.61,0,0,0-1.47.3c-1.09.75-.77,1.87-1.8,2.38a2.61,2.61,0,0,0-.88.55c-.15.14-.51.5-.42.73s.76.25,1.39.23a2.77,2.77,0,0,0,1.48-.27C242.09,286.1,241.93,285.79,242.47,285.12Z" fill="url(#linear-gradient-49)"/>
          <path id="Trazado_119118" data-name="Trazado 119118" d="M240.99,258.02l2.76,1.09.8-1.27-2.16-1.45Z" fill="url(#linear-gradient-50)"/>
          <path id="Trazado_119119" data-name="Trazado 119119" d="M245.2,259.77c-.16-1.1.32-1.52,0-2a1.18,1.18,0,0,0-1.32-.36c-.62.24-.75,1.1-.78,1.29-.19,1.31.85,1.83.53,2.93a2.74,2.74,0,0,0-.2,1c0,.21,0,.72.26.81s.7-.39,1.11-.87a2.947,2.947,0,0,0,.8-1.27C245.66,260.72,245.32,260.62,245.2,259.77Z" fill="url(#linear-gradient-51)"/>
          <path id="Trazado_119120" data-name="Trazado 119120" d="M229.05,217.36a76,76,0,0,0-7.54,24.92c-.43,3.66-.38,5.93.67,8.21,3.79,8.16,17,8.7,19,8.76l2-4.06a20.34,20.34,0,0,0-7-7.66c-2.79-1.76-3.88-1.38-4.58-2.56-2.79-4.73,12.3-15,10-21.81C240.87,220.8,237.87,218.41,229.05,217.36Z" fill="url(#linear-gradient-52)"/>
          <path id="Trazado_119121" data-name="Trazado 119121" d="M240.19,179.69c-5.56.95-9.78,1.95-11.67,4.86-2,3.07,1.18,5.38,2,12.12,1.32,10.32-4.62,14.17-2.91,24.56a25.858,25.858,0,0,0,1.16,4.49,10.61,10.61,0,0,0,4.39,5.46,27.891,27.891,0,0,0,5.55,2.68c5.63,2,8.41.83,16,1.26,12.4.71,14.25,4.3,19.85,2.09s9.75-8.27,8.55-10.85c-.72-1.54-3-.58-6.24-2.47-4.19-2.45-3.48-5.78-6.88-8.64-4.88-4.11-9.58,0-13.76-3.54s-4.73-12.4-2.93-17.63c1.17-3.42,1.19-7.14,2.06-10.65a2.19,2.19,0,0,0,0-1.28c-.69-2-4.38-2.4-7.17-2.67a31.5,31.5,0,0,0-8,.21Z" fill="url(#linear-gradient-53)"/>
          <path id="Trazado_119122" data-name="Trazado 119122" d="M273.93,233.3c-1.72-1.15-.79-4.39-3.33-6.11-2.36-1.59-4.2.49-7.67-.57-4.46-1.37-4.23-5.66-8.5-7-3.07-1-4,1-8.43,1.06a17.59,17.59,0,0,1-13.89-6.43,15.89,15.89,0,0,1-2.91-6.08c-1.18,3.82-2.46,7.51-1.55,13.09a26.34,26.34,0,0,0,1.62,5.7,7.87,7.87,0,0,0,2.8,3.5,27.79,27.79,0,0,0,6.68,3.43c5.63,2,8.41.83,16,1.26,12.4.71,14.25,4.3,19.85,2.09a16.16,16.16,0,0,0,7.95-7C277.63,233.73,275.17,234.13,273.93,233.3Z" opacity="0.3" fill="url(#linear-gradient-54)"/>
          <path id="Trazado_119123" data-name="Trazado 119123" d="M237,170.08a15.09,15.09,0,0,0-1.63,4.89c-.09,2,2.18,1.87,2.18,1.87l-.08,1.27a2.76,2.76,0,0,1-1.8,2.4l-.9.33s5.86,1.26,9.06-1l-.93-.09a2.77,2.77,0,0,1-2.47-2.47v-.54S241.37,170.46,237,170.08Z" fill="url(#linear-gradient-55)"/>
          <path id="Trazado_119124" data-name="Trazado 119124" d="M222.55,156.57c.87,1.65-.57,3.75-1.5,5.66-1.86,3.85-3.15,10.15-.75,14.54a10.6,10.6,0,0,0,6.92,5.21c3.21.61,4.51-1.16,7.91-.31.25.06,4.55,1.18,5.51,4.1,1.17,3.59-3.06,9-7.55,10.6-8.21,2.94-21.48-5.29-24.18-16.46-2.93-12.16,7.24-25.4,11.42-24.85A3.17,3.17,0,0,1,222.55,156.57Z" fill="url(#linear-gradient-56)"/>
          <path id="Trazado_119125" data-name="Trazado 119125" d="M237.9,172.94c.3,0,.55-.41.76-.3s.19.68,0,1.07a1.38,1.38,0,0,1-.55.59,3.92,3.92,0,0,1,.66,1.49,5.11,5.11,0,0,1-.83,3.31c-1.45,3.09.81,8,3.29,10.44,2,2,3,1.2,4.15,2.84,2.34,3.18-.89,6.69.32,11,1.84,6.52,12.14,8.46,12.57,8.54l.46.07c4.62.74,11.62,1.85,16.55-1.94,3.69-2.84,5.38-7.78,5.1-12.13a14,14,0,0,0-4-9c-.56-.56-3.88-3.89-8.38-3.93-2.38,0-2.86.82-4.68.3-2.49-.71-4-3-5-4.38-1.75-2.59-1-3.14-2.3-4.41-2.47-2.49-5.37-.53-8-2.73s-1-5.11-3.55-7-7.54-1.26-8.59,1.05C235,169.76,237,173,237.9,172.94Z" fill="url(#linear-gradient-57)"/>
        </g>
      </g>
    </g>
  </g>
</svg>
