<svg xmlns="http://www.w3.org/2000/svg" width="1239" height="404" viewBox="0 0 1239 404">
  <g id="bg-1" transform="translate(-181 -1184)">
    <text id="Para_llevar_a_cabo_este_proceso_se_plantean_campañas_promocionales_las_cuales_deben_contener_elementos_básicos_como:_" data-name="Para llevar a cabo este proceso, se plantean campañas promocionales, las cuales deben contener elementos básicos como: " transform="translate(181 1184)" fill="#12263f" font-size="16" font-family="Roboto-Regular, Roboto"><tspan x="0" y="17">Para llevar a cabo este proceso, se plantean campañas promocionales, las cuales deben contener elementos básicos como: </tspan></text>
    <rect id="Rectángulo_6764" data-name="Rectángulo 6764" width="715" height="404" transform="translate(703 1184)" fill="#e9e4fd"/>
    <path id="Trazado_119711" data-name="Trazado 119711" d="M22.854,251.373c9.8-22.039,31.024-33.477,52.651-37.554,26.348-4.975,48.626-9.523,58.651-39.028,8.94-26.408,7.661-55.95,16.316-82.059,7.481-22.548,22.892-38.153,44.34-44.766,20.251-6.269,41.437-4.691,61.905-9.351,17.767-4.047,38.609-18.456,47.564-34.876,1.444-2.648.688-1.234,1.5-3.688H0V403.985H34.412c12.516-30.9,6.269-54.087-3.74-79.126C21.216,301.167,11.678,276.464,22.854,251.373Z" transform="translate(703 1183.987)" fill="#dad5ed"/>
    <path id="Trazado_119712" data-name="Trazado 119712" d="M0,0V403.972H38.415c12.718-32.557,4.87-57.6-4.272-80.518-8.708-21.815-18.575-46.532-7.87-70.6,10.975-24.687,35.991-32.767,49.928-35.4,26.064-4.915,50.684-9.561,61.5-41.5,4.638-13.7,6.6-28.256,8.491-42.335,1.8-13.361,3.666-27.178,7.833-39.746,7.1-21.433,21.583-36.081,41.893-42.365,10.907-3.374,21.964-4.384,33.664-5.454,9.172-.838,18.658-1.706,27.964-3.823,19.84-4.489,40.869-19.967,50.018-36.732l.082-.15A10.7,10.7,0,0,0,308.964,2.4c.052-.209.127-.494.359-1.2L309.75,0Z" transform="translate(703 1184)" fill="#cec8e8"/>
    <path id="Trazado_119713" data-name="Trazado 119713" d="M22.854,251.373c9.8-22.039,31.024-33.477,52.651-37.554,26.348-4.975,48.626-9.523,58.651-39.028,8.94-26.408,7.661-55.95,16.316-82.059,7.481-22.54,22.892-38.153,44.34-44.766,20.251-6.269,41.437-4.691,61.905-9.351,17.767-4.047,38.609-18.456,47.564-34.876,1.444-2.648.688-1.234,1.5-3.688H-520V403.985H34.412c12.516-30.9,6.269-54.087-3.74-79.126C21.216,301.167,11.678,276.464,22.854,251.373Z" transform="translate(703 1183.987)" fill="#f7f5ff"/>
  </g>
</svg>
