<svg xmlns="http://www.w3.org/2000/svg" xmlns:xlink="http://www.w3.org/1999/xlink" width="224.51" height="289.771" viewBox="0 0 224.51 289.771">
  <defs>
    <linearGradient id="linear-gradient" x1="0.237" y1="-0.211" x2="0.766" y2="1.22" gradientUnits="objectBoundingBox">
      <stop offset="0" stop-color="#fff"/>
      <stop offset="1" stop-color="#d2d1d1"/>
    </linearGradient>
  </defs>
  <g id="card12" transform="translate(-699.8 -6479.45)">
    <path id="Trazado_119735" data-name="Trazado 119735" d="M612.21,1432.75h76a23.3,23.3,0,0,0,23.3-23.3v-99.91l25-21.16-25-21.15v-99.91a23.3,23.3,0,0,0-23.3-23.3h-76Z" transform="translate(187.8 5336.391)" fill="#bb43b0"/>
    <g id="Grupo_58710" data-name="Grupo 58710" transform="translate(187.8 5336.391)" opacity="0.8">
      <rect id="Rectángulo_7719" data-name="Rectángulo 7719" width="155.01" height="245.05" rx="46.05" transform="translate(553.4 1183.73)" fill="#fff" opacity="0"/>
      <rect id="Rectángulo_7720" data-name="Rectángulo 7720" width="155.01" height="245.05" rx="46.05" transform="translate(553.22 1183.56)" fill="#f8f8f8" opacity="0.01"/>
      <rect id="Rectángulo_7721" data-name="Rectángulo 7721" width="155.01" height="245.05" rx="46.05" transform="translate(553.03 1183.38)" fill="#f6f6f6" opacity="0.02"/>
      <rect id="Rectángulo_7722" data-name="Rectángulo 7722" width="155.01" height="245.05" rx="46.05" transform="translate(552.84 1183.2)" fill="#f4f4f4" opacity="0.03"/>
      <rect id="Rectángulo_7723" data-name="Rectángulo 7723" width="155.01" height="245.05" rx="46.05" transform="translate(552.66 1183.03)" fill="#f2f2f2" opacity="0.04"/>
      <rect id="Rectángulo_7724" data-name="Rectángulo 7724" width="155.01" height="245.05" rx="46.05" transform="translate(552.47 1182.85)" fill="#f0f0f0" opacity="0.05"/>
      <rect id="Rectángulo_7725" data-name="Rectángulo 7725" width="155.01" height="245.05" rx="46.05" transform="translate(552.29 1182.67)" fill="#eee" opacity="0.06"/>
      <rect id="Rectángulo_7726" data-name="Rectángulo 7726" width="155.01" height="245.05" rx="46.05" transform="translate(552.1 1182.49)" fill="#ececec" opacity="0.07"/>
      <rect id="Rectángulo_7727" data-name="Rectángulo 7727" width="155.01" height="245.05" rx="46.05" transform="translate(551.92 1182.32)" fill="#eaeaea" opacity="0.08"/>
      <rect id="Rectángulo_7728" data-name="Rectángulo 7728" width="155.01" height="245.05" rx="46.05" transform="translate(551.73 1182.14)" fill="#e8e8e8" opacity="0.09"/>
      <rect id="Rectángulo_7729" data-name="Rectángulo 7729" width="155.01" height="245.05" rx="46.05" transform="translate(551.55 1181.96)" fill="#e6e6e6" opacity="0.1"/>
      <rect id="Rectángulo_7730" data-name="Rectángulo 7730" width="155.01" height="245.05" rx="46.05" transform="translate(551.36 1181.79)" fill="#e4e4e4" opacity="0.11"/>
      <rect id="Rectángulo_7731" data-name="Rectángulo 7731" width="155.01" height="245.05" rx="46.05" transform="translate(551.18 1181.61)" fill="#e2e2e2" opacity="0.12"/>
      <rect id="Rectángulo_7732" data-name="Rectángulo 7732" width="155.01" height="245.05" rx="46.05" transform="translate(550.99 1181.43)" fill="#e0e0e0" opacity="0.13"/>
      <rect id="Rectángulo_7733" data-name="Rectángulo 7733" width="155.01" height="245.05" rx="46.05" transform="translate(550.81 1181.26)" fill="#dedede" opacity="0.14"/>
      <rect id="Rectángulo_7734" data-name="Rectángulo 7734" width="155.01" height="245.05" rx="46.05" transform="translate(550.62 1181.08)" fill="#dcdcdc" opacity="0.15"/>
      <rect id="Rectángulo_7735" data-name="Rectángulo 7735" width="155.01" height="245.05" rx="46.05" transform="translate(550.44 1180.9)" fill="#dadada" opacity="0.16"/>
      <rect id="Rectángulo_7736" data-name="Rectángulo 7736" width="155.01" height="245.05" rx="46.05" transform="translate(550.25 1180.72)" fill="#d8d8d8" opacity="0.17"/>
      <rect id="Rectángulo_7737" data-name="Rectángulo 7737" width="155.01" height="245.05" rx="46.05" transform="translate(550.07 1180.55)" fill="#d6d6d6" opacity="0.18"/>
      <rect id="Rectángulo_7738" data-name="Rectángulo 7738" width="155.01" height="245.05" rx="46.05" transform="translate(549.88 1180.37)" fill="#d4d4d4" opacity="0.19"/>
      <rect id="Rectángulo_7739" data-name="Rectángulo 7739" width="155.01" height="245.05" rx="46.05" transform="translate(549.7 1180.19)" fill="#d2d2d2" opacity="0.2"/>
      <rect id="Rectángulo_7740" data-name="Rectángulo 7740" width="155.01" height="245.05" rx="46.05" transform="translate(549.51 1180.02)" fill="#d0d0d0" opacity="0.21"/>
      <rect id="Rectángulo_7741" data-name="Rectángulo 7741" width="155.01" height="245.05" rx="46.05" transform="translate(549.33 1179.84)" fill="#cecece" opacity="0.22"/>
      <rect id="Rectángulo_7742" data-name="Rectángulo 7742" width="155.01" height="245.05" rx="46.05" transform="translate(549.14 1179.66)" fill="#ccc" opacity="0.23"/>
      <rect id="Rectángulo_7743" data-name="Rectángulo 7743" width="155.01" height="245.05" rx="46.05" transform="translate(548.96 1179.49)" fill="#cacaca" opacity="0.24"/>
      <rect id="Rectángulo_7744" data-name="Rectángulo 7744" width="155.01" height="245.05" rx="46.05" transform="translate(548.77 1179.31)" fill="#c8c8c8" opacity="0.25"/>
      <rect id="Rectángulo_7745" data-name="Rectángulo 7745" width="155.01" height="245.05" rx="46.05" transform="translate(548.59 1179.13)" fill="#c5c5c5" opacity="0.26"/>
      <rect id="Rectángulo_7746" data-name="Rectángulo 7746" width="155.01" height="245.05" rx="46.05" transform="translate(548.4 1178.96)" fill="#c3c3c3" opacity="0.27"/>
      <rect id="Rectángulo_7747" data-name="Rectángulo 7747" width="155.01" height="245.05" rx="46.05" transform="translate(548.22 1178.78)" fill="#c1c1c1" opacity="0.28"/>
      <rect id="Rectángulo_7748" data-name="Rectángulo 7748" width="155.01" height="245.05" rx="46.05" transform="translate(548.03 1178.6)" fill="#bfbfbf" opacity="0.29"/>
      <rect id="Rectángulo_7749" data-name="Rectángulo 7749" width="155.01" height="245.05" rx="46.05" transform="translate(547.85 1178.42)" fill="#bdbdbd" opacity="0.3"/>
      <rect id="Rectángulo_7750" data-name="Rectángulo 7750" width="155.01" height="245.05" rx="46.05" transform="translate(547.66 1178.25)" fill="#bbb" opacity="0.31"/>
      <rect id="Rectángulo_7751" data-name="Rectángulo 7751" width="155.01" height="245.05" rx="46.05" transform="translate(547.48 1178.07)" fill="#b9b9b9" opacity="0.32"/>
      <rect id="Rectángulo_7752" data-name="Rectángulo 7752" width="155.01" height="245.05" rx="46.05" transform="translate(547.29 1177.89)" fill="#b7b7b7" opacity="0.33"/>
      <rect id="Rectángulo_7753" data-name="Rectángulo 7753" width="155.01" height="245.05" rx="46.05" transform="translate(547.11 1177.72)" fill="#b5b5b5" opacity="0.34"/>
      <rect id="Rectángulo_7754" data-name="Rectángulo 7754" width="155.01" height="245.05" rx="46.05" transform="translate(546.92 1177.54)" fill="#b3b3b3" opacity="0.35"/>
      <rect id="Rectángulo_7755" data-name="Rectángulo 7755" width="155.01" height="245.05" rx="46.05" transform="translate(546.74 1177.36)" fill="#b1b1b1" opacity="0.36"/>
      <rect id="Rectángulo_7756" data-name="Rectángulo 7756" width="155.01" height="245.05" rx="46.05" transform="translate(546.55 1177.19)" fill="#afafaf" opacity="0.37"/>
      <rect id="Rectángulo_7757" data-name="Rectángulo 7757" width="155.01" height="245.05" rx="46.05" transform="translate(546.37 1177.01)" fill="#adadad" opacity="0.38"/>
      <rect id="Rectángulo_7758" data-name="Rectángulo 7758" width="155.01" height="245.05" rx="46.05" transform="translate(546.18 1176.83)" fill="#ababab" opacity="0.39"/>
      <rect id="Rectángulo_7759" data-name="Rectángulo 7759" width="155.01" height="245.05" rx="46.05" transform="translate(546 1176.65)" fill="#a9a9a9" opacity="0.4"/>
      <rect id="Rectángulo_7760" data-name="Rectángulo 7760" width="155.01" height="245.05" rx="46.05" transform="translate(545.81 1176.48)" fill="#a7a7a7" opacity="0.41"/>
      <rect id="Rectángulo_7761" data-name="Rectángulo 7761" width="155.01" height="245.05" rx="46.05" transform="translate(545.63 1176.3)" fill="#a5a5a5" opacity="0.42"/>
      <rect id="Rectángulo_7762" data-name="Rectángulo 7762" width="155.01" height="245.05" rx="46.05" transform="translate(545.44 1176.12)" fill="#a3a3a3" opacity="0.43"/>
      <rect id="Rectángulo_7763" data-name="Rectángulo 7763" width="155.01" height="245.05" rx="46.05" transform="translate(545.26 1175.95)" fill="#a1a1a1" opacity="0.44"/>
      <rect id="Rectángulo_7764" data-name="Rectángulo 7764" width="155.01" height="245.05" rx="46.05" transform="translate(545.07 1175.77)" fill="#9f9f9f" opacity="0.45"/>
      <rect id="Rectángulo_7765" data-name="Rectángulo 7765" width="155.01" height="245.05" rx="46.05" transform="translate(544.89 1175.59)" fill="#9d9d9d" opacity="0.46"/>
      <rect id="Rectángulo_7766" data-name="Rectángulo 7766" width="155.01" height="245.05" rx="46.05" transform="translate(544.7 1175.42)" fill="#9b9b9b" opacity="0.47"/>
      <rect id="Rectángulo_7767" data-name="Rectángulo 7767" width="155.01" height="245.05" rx="46.05" transform="translate(544.52 1175.24)" fill="#999" opacity="0.48"/>
      <rect id="Rectángulo_7768" data-name="Rectángulo 7768" width="155.01" height="245.05" rx="46.05" transform="translate(544.33 1175.06)" fill="#979797" opacity="0.49"/>
      <rect id="Rectángulo_7769" data-name="Rectángulo 7769" width="155.01" height="245.05" rx="46.05" transform="translate(544.15 1174.88)" fill="#959595" opacity="0.5"/>
      <rect id="Rectángulo_7770" data-name="Rectángulo 7770" width="155.01" height="245.05" rx="46.05" transform="translate(543.96 1174.71)" fill="#939393" opacity="0.5"/>
      <rect id="Rectángulo_7771" data-name="Rectángulo 7771" width="155.01" height="245.05" rx="46.05" transform="translate(543.78 1174.53)" fill="#919191" opacity="0.51"/>
      <rect id="Rectángulo_7772" data-name="Rectángulo 7772" width="155.01" height="245.05" rx="46.05" transform="translate(543.59 1174.35)" fill="#8f8f8f" opacity="0.52"/>
      <rect id="Rectángulo_7773" data-name="Rectángulo 7773" width="155.01" height="245.05" rx="46.05" transform="translate(543.41 1174.18)" fill="#8d8d8d" opacity="0.53"/>
      <rect id="Rectángulo_7774" data-name="Rectángulo 7774" width="155.01" height="245.05" rx="46.05" transform="translate(543.22 1174)" fill="#8b8b8b" opacity="0.54"/>
      <rect id="Rectángulo_7775" data-name="Rectángulo 7775" width="155.01" height="245.05" rx="46.05" transform="translate(543.04 1173.82)" fill="#898989" opacity="0.55"/>
      <rect id="Rectángulo_7776" data-name="Rectángulo 7776" width="155.01" height="245.05" rx="46.05" transform="translate(542.85 1173.65)" fill="#878787" opacity="0.56"/>
      <rect id="Rectángulo_7777" data-name="Rectángulo 7777" width="155.01" height="245.05" rx="46.05" transform="translate(542.67 1173.47)" fill="#858585" opacity="0.57"/>
      <rect id="Rectángulo_7778" data-name="Rectángulo 7778" width="155.01" height="245.05" rx="46.05" transform="translate(542.48 1173.29)" fill="#838383" opacity="0.58"/>
      <rect id="Rectángulo_7779" data-name="Rectángulo 7779" width="155.01" height="245.05" rx="46.05" transform="translate(542.3 1173.12)" fill="#818181" opacity="0.59"/>
      <rect id="Rectángulo_7780" data-name="Rectángulo 7780" width="155.01" height="245.05" rx="46.05" transform="translate(542.11 1172.94)" fill="gray" opacity="0.6"/>
      <rect id="Rectángulo_7781" data-name="Rectángulo 7781" width="155.01" height="245.05" rx="46.05" transform="translate(541.92 1172.76)" fill="gray" opacity="0.61"/>
      <rect id="Rectángulo_7782" data-name="Rectángulo 7782" width="155.01" height="245.05" rx="46.05" transform="translate(541.74 1172.58)" fill="gray" opacity="0.62"/>
      <rect id="Rectángulo_7783" data-name="Rectángulo 7783" width="155.01" height="245.05" rx="46.05" transform="translate(541.55 1172.41)" fill="#7e7e7e" opacity="0.63"/>
      <rect id="Rectángulo_7784" data-name="Rectángulo 7784" width="155.01" height="245.05" rx="46.05" transform="translate(541.37 1172.23)" fill="#7c7c7c" opacity="0.64"/>
      <rect id="Rectángulo_7785" data-name="Rectángulo 7785" width="155.01" height="245.05" rx="46.05" transform="translate(541.18 1172.05)" fill="#7a7a7a" opacity="0.65"/>
      <rect id="Rectángulo_7786" data-name="Rectángulo 7786" width="155.01" height="245.05" rx="46.05" transform="translate(541 1171.88)" fill="#787878" opacity="0.66"/>
      <rect id="Rectángulo_7787" data-name="Rectángulo 7787" width="155.01" height="245.05" rx="46.05" transform="translate(540.81 1171.7)" fill="#767676" opacity="0.67"/>
      <rect id="Rectángulo_7788" data-name="Rectángulo 7788" width="155.01" height="245.05" rx="46.05" transform="translate(540.63 1171.52)" fill="#747474" opacity="0.68"/>
      <rect id="Rectángulo_7789" data-name="Rectángulo 7789" width="155.01" height="245.05" rx="46.05" transform="translate(540.44 1171.35)" fill="#727272" opacity="0.69"/>
      <rect id="Rectángulo_7790" data-name="Rectángulo 7790" width="155.01" height="245.05" rx="46.05" transform="translate(540.26 1171.17)" fill="#707070" opacity="0.7"/>
      <rect id="Rectángulo_7791" data-name="Rectángulo 7791" width="155.01" height="245.05" rx="46.05" transform="translate(540.07 1170.99)" fill="#6e6e6e" opacity="0.71"/>
      <rect id="Rectángulo_7792" data-name="Rectángulo 7792" width="155.01" height="245.05" rx="46.05" transform="translate(539.89 1170.81)" fill="#6c6c6c" opacity="0.72"/>
      <rect id="Rectángulo_7793" data-name="Rectángulo 7793" width="155.01" height="245.05" rx="46.05" transform="translate(539.7 1170.64)" fill="#6a6a6a" opacity="0.73"/>
      <rect id="Rectángulo_7794" data-name="Rectángulo 7794" width="155.01" height="245.05" rx="46.05" transform="translate(539.52 1170.46)" fill="#686868" opacity="0.74"/>
      <rect id="Rectángulo_7795" data-name="Rectángulo 7795" width="155.01" height="245.05" rx="46.05" transform="translate(539.33 1170.28)" fill="#656565" opacity="0.75"/>
      <rect id="Rectángulo_7796" data-name="Rectángulo 7796" width="155.01" height="245.05" rx="46.05" transform="translate(539.15 1170.11)" fill="#636363" opacity="0.76"/>
      <rect id="Rectángulo_7797" data-name="Rectángulo 7797" width="155.01" height="245.05" rx="46.05" transform="translate(538.96 1169.93)" fill="#616161" opacity="0.77"/>
      <rect id="Rectángulo_7798" data-name="Rectángulo 7798" width="155.01" height="245.05" rx="46.05" transform="translate(538.78 1169.75)" fill="#5f5f5f" opacity="0.78"/>
      <rect id="Rectángulo_7799" data-name="Rectángulo 7799" width="155.01" height="245.05" rx="46.05" transform="translate(538.59 1169.58)" fill="#5d5d5d" opacity="0.79"/>
      <rect id="Rectángulo_7800" data-name="Rectángulo 7800" width="155.01" height="245.05" rx="46.05" transform="translate(538.41 1169.4)" fill="#5b5b5b" opacity="0.8"/>
      <rect id="Rectángulo_7801" data-name="Rectángulo 7801" width="155.01" height="245.05" rx="46.05" transform="translate(538.22 1169.22)" fill="#595959" opacity="0.81"/>
      <rect id="Rectángulo_7802" data-name="Rectángulo 7802" width="155.01" height="245.05" rx="46.05" transform="translate(538.04 1169.04)" fill="#575757" opacity="0.82"/>
      <rect id="Rectángulo_7803" data-name="Rectángulo 7803" width="155.01" height="245.05" rx="46.05" transform="translate(537.85 1168.87)" fill="#555" opacity="0.83"/>
      <rect id="Rectángulo_7804" data-name="Rectángulo 7804" width="155.01" height="245.05" rx="46.05" transform="translate(537.67 1168.69)" fill="#535353" opacity="0.84"/>
      <rect id="Rectángulo_7805" data-name="Rectángulo 7805" width="155.01" height="245.05" rx="46.05" transform="translate(537.48 1168.51)" fill="#515151" opacity="0.85"/>
      <rect id="Rectángulo_7806" data-name="Rectángulo 7806" width="155.01" height="245.05" rx="46.05" transform="translate(537.3 1168.34)" fill="#4f4f4f" opacity="0.86"/>
      <rect id="Rectángulo_7807" data-name="Rectángulo 7807" width="155.01" height="245.05" rx="46.05" transform="translate(537.11 1168.16)" fill="#4d4d4d" opacity="0.87"/>
      <rect id="Rectángulo_7808" data-name="Rectángulo 7808" width="155.01" height="245.05" rx="46.05" transform="translate(536.93 1167.98)" fill="#4b4b4b" opacity="0.88"/>
      <rect id="Rectángulo_7809" data-name="Rectángulo 7809" width="155.01" height="245.05" rx="46.05" transform="translate(536.74 1167.81)" fill="#494949" opacity="0.89"/>
      <rect id="Rectángulo_7810" data-name="Rectángulo 7810" width="155.01" height="245.05" rx="46.05" transform="translate(536.56 1167.63)" fill="#474747" opacity="0.9"/>
      <rect id="Rectángulo_7811" data-name="Rectángulo 7811" width="155.01" height="245.05" rx="46.05" transform="translate(536.37 1167.45)" fill="#454545" opacity="0.91"/>
      <rect id="Rectángulo_7812" data-name="Rectángulo 7812" width="155.01" height="245.05" rx="46.05" transform="translate(536.19 1167.28)" fill="#434343" opacity="0.92"/>
      <rect id="Rectángulo_7813" data-name="Rectángulo 7813" width="155.01" height="245.05" rx="46.05" transform="translate(536 1167.1)" fill="#414141" opacity="0.93"/>
      <rect id="Rectángulo_7814" data-name="Rectángulo 7814" width="155.01" height="245.05" rx="46.05" transform="translate(535.82 1166.92)" fill="#3f3f3f" opacity="0.94"/>
      <rect id="Rectángulo_7815" data-name="Rectángulo 7815" width="155.01" height="245.05" rx="46.05" transform="translate(535.63 1166.74)" fill="#3d3d3d" opacity="0.95"/>
      <rect id="Rectángulo_7816" data-name="Rectángulo 7816" width="155.01" height="245.05" rx="46.05" transform="translate(535.45 1166.57)" fill="#3b3b3b" opacity="0.96"/>
      <rect id="Rectángulo_7817" data-name="Rectángulo 7817" width="155.01" height="245.05" rx="46.05" transform="translate(535.26 1166.39)" fill="#393939" opacity="0.97"/>
      <rect id="Rectángulo_7818" data-name="Rectángulo 7818" width="155.01" height="245.05" rx="46.05" transform="translate(535.08 1166.21)" fill="#373737" opacity="0.98"/>
      <rect id="Rectángulo_7819" data-name="Rectángulo 7819" width="155.01" height="245.05" rx="46.05" transform="translate(534.89 1166.04)" fill="#353535" opacity="0.99"/>
      <rect id="Rectángulo_7820" data-name="Rectángulo 7820" width="155.01" height="245.05" rx="46.05" transform="translate(534.71 1165.86)" fill="#333"/>
    </g>
    <g id="Grupo_58711" data-name="Grupo 58711" transform="translate(187.8 5336.391)">
      <rect id="Rectángulo_7821" data-name="Rectángulo 7821" width="249.9" height="159.86" rx="51.4" transform="translate(692.14 1163.43) rotate(90)" fill="url(#linear-gradient)"/>
      <rect id="Rectángulo_7822" data-name="Rectángulo 7822" width="245.05" height="155.01" rx="46.05" transform="translate(689.71 1165.86) rotate(90)" fill="#ededed"/>
    </g>
    <g id="Grupo_58712" data-name="Grupo 58712" transform="translate(187.8 5336.391)">
      <rect id="Rectángulo_7823" data-name="Rectángulo 7823" width="1.71" height="1.71" transform="translate(610.5 1431.11)" fill="#4d4d4d"/>
      <path id="Trazado_119736" data-name="Trazado 119736" d="M605.32,1432.83h-3.46v-1.72h3.46Zm-8.64,0h-3.46v-1.72h3.46Zm-8.64,0h-3.45v-1.72H588Zm-8.63,0H576v-1.72h3.46Zm-8.64,0h-3.46v-1.72h3.46Zm-8.64,0h-3.45v-1.72h3.45Zm-8.64,0H550v-1.72h3.45Zm-8.63,0H541.4v-1.72h3.46Zm-8.64,0h-.05a24.078,24.078,0,0,1-3.51-.26l.24-1.69a23.635,23.635,0,0,0,3.27.23Zm-8.75-1.62a24.551,24.551,0,0,1-3.24-1.53l.85-1.49a21.768,21.768,0,0,0,3,1.42Zm-7.57-4.68a25.149,25.149,0,0,1-2.46-2.6l1.33-1.08a22.512,22.512,0,0,0,2.28,2.41Zm-5.37-7.1a25.523,25.523,0,0,1-1.35-3.31l1.63-.53a22.122,22.122,0,0,0,1.26,3.08Zm-2.42-8.57c-.07-.72-.1-1.45-.1-2.19v-1.33h1.71v1.33q0,1,.09,2Zm1.61-8.71H512v-3.45h1.71Zm0-8.63H512v-3.46h1.71Zm0-8.64H512v-3.46h1.71Zm0-8.64H512v-3.45h1.71Zm0-8.64H512v-3.45h1.71Zm0-8.63H512v-3.46h1.71Zm0-8.64H512v-3.45h1.71Zm0-8.63H512v-3.46h1.71Zm0-8.64H512v-3.46h1.71Zm0-8.64H512V1321h1.71Zm0-8.63H512v-3.46h1.71Zm0-8.64H512v-3.46h1.71Zm0-34.55H512v-3.45h1.71Zm0-8.64H512v-3.45h1.71Zm0-8.63H512v-3.46h1.71Zm0-8.64H512v-3.45h1.71Zm0-8.64H512v-3.45h1.71Zm0-8.63H512V1226h1.71Zm0-8.64H512v-3.46h1.71Zm0-8.64H512v-3.45h1.71Zm0-8.63H512v-3.46h1.71Zm0-8.64H512v-3.46h1.71Zm0-8.64H512v-3.45h1.71Zm0-8.63H512v-3.46h1.71Zm0-8.64H512v-.84a24.319,24.319,0,0,1,.15-2.7l1.7.184a23.65,23.65,0,0,0-.14,2.52Zm1.22-8.23-1.63-.54a24.461,24.461,0,0,1,1.38-3.3l1.53.77a22.865,22.865,0,0,0-1.28,3.07Zm4-7.28-1.34-1.07a24.99,24.99,0,0,1,2.41-2.63l1.18,1.24a22.874,22.874,0,0,0-2.28,2.46Zm6.22-5.48-.88-1.47a24.373,24.373,0,0,1,3.19-1.6l.65,1.58a22.789,22.789,0,0,0-2.99,1.52Zm80.13-2.36h-3.45v-1.71h3.45Zm-8.63-.1H593.2v-1.71h3.46Zm-8.64-.09h-3.45v-1.72h3.46Zm-8.64-.09h-3.45v-1.71h3.45Zm-8.63-.09h-3.46v-1.71h3.46Zm-8.64-.09h-3.45v-1.71h3.45Zm-29.2,0-.27-1.69a23.521,23.521,0,0,1,3.56-.28v1.72a21.262,21.262,0,0,0-3.32.23Zm20.57-.07h-3.46v-1.71h3.45Zm-8.64-.09h-3.46v-1.71h3.46Z" fill="#4d4d4d"/>
      <rect id="Rectángulo_7824" data-name="Rectángulo 7824" width="1.71" height="1.71" transform="translate(610.095 1144.77) rotate(-89.427)" fill="#4d4d4d"/>
    </g>
    <path id="Trazado_119887" data-name="Trazado 119887" d="M4.588-12.8,7.875-3.516l3.27-9.281h3.463V0H11.962V-3.5l.264-6.038L8.771,0H6.961L3.516-9.527,3.779-3.5V0H1.143V-12.8ZM22.254,0A2.821,2.821,0,0,1,22-.853,3.073,3.073,0,0,1,19.6.176a3.376,3.376,0,0,1-2.316-.809,2.6,2.6,0,0,1-.918-2.039,2.687,2.687,0,0,1,1.121-2.32,5.529,5.529,0,0,1,3.239-.817h1.169v-.545a1.567,1.567,0,0,0-.338-1.055,1.331,1.331,0,0,0-1.068-.4,1.513,1.513,0,0,0-1.006.308,1.045,1.045,0,0,0-.365.844h-2.54a2.551,2.551,0,0,1,.51-1.529,3.37,3.37,0,0,1,1.441-1.1,5.253,5.253,0,0,1,2.092-.4A4.15,4.15,0,0,1,23.41-8.8a3.09,3.09,0,0,1,1.033,2.483V-2.2A4.546,4.546,0,0,0,24.82-.149V0Zm-2.1-1.767a2.188,2.188,0,0,0,1.037-.25,1.645,1.645,0,0,0,.7-.672V-4.324h-.949q-1.907,0-2.03,1.318l-.009.149a1.017,1.017,0,0,0,.334.782A1.3,1.3,0,0,0,20.153-1.767Zm9.611-1.828L31.522-9.51h2.725L30.424,1.477l-.211.5A2.9,2.9,0,0,1,27.4,3.841a4,4,0,0,1-1.125-.167V1.749l.387.009a2.09,2.09,0,0,0,1.077-.22A1.443,1.443,0,0,0,28.3.809l.3-.782L25.264-9.51H28Zm4.909-1.248a5.64,5.64,0,0,1,.545-2.522,3.989,3.989,0,0,1,1.569-1.714,4.577,4.577,0,0,1,2.377-.606,4.33,4.33,0,0,1,3.142,1.178,4.727,4.727,0,0,1,1.358,3.2l.018.65A4.97,4.97,0,0,1,42.46-1.147,4.247,4.247,0,0,1,39.182.176,4.268,4.268,0,0,1,35.9-1.143a5.058,5.058,0,0,1-1.226-3.586Zm2.54.18a3.555,3.555,0,0,0,.51,2.073,1.682,1.682,0,0,0,1.459.717,1.686,1.686,0,0,0,1.441-.709,3.89,3.89,0,0,0,.519-2.267,3.519,3.519,0,0,0-.519-2.06,1.686,1.686,0,0,0-1.459-.731,1.658,1.658,0,0,0-1.441.726A3.955,3.955,0,0,0,37.213-4.662ZM50.59-7.128a6.9,6.9,0,0,0-.914-.07,1.86,1.86,0,0,0-1.89.976V0h-2.54V-9.51h2.4l.07,1.134a2.354,2.354,0,0,1,2.118-1.31,2.662,2.662,0,0,1,.791.114ZM54.493,0H51.944V-9.51h2.549Zm-2.7-11.971a1.251,1.251,0,0,1,.382-.94,1.436,1.436,0,0,1,1.042-.369,1.44,1.44,0,0,1,1.037.369,1.244,1.244,0,0,1,.387.94,1.247,1.247,0,0,1-.391.949,1.443,1.443,0,0,1-1.033.369,1.443,1.443,0,0,1-1.033-.369A1.247,1.247,0,0,1,51.794-11.971Zm9.94,9.343a.818.818,0,0,0-.461-.734,5.241,5.241,0,0,0-1.481-.479Q56.4-4.553,56.4-6.724a2.613,2.613,0,0,1,1.05-2.114A4.237,4.237,0,0,1,60.2-9.686a4.56,4.56,0,0,1,2.9.853,2.687,2.687,0,0,1,1.085,2.215h-2.54a1.229,1.229,0,0,0-.352-.9,1.488,1.488,0,0,0-1.1-.356,1.52,1.52,0,0,0-.993.29.916.916,0,0,0-.352.738.783.783,0,0,0,.4.681,4.114,4.114,0,0,0,1.349.448,11.019,11.019,0,0,1,1.6.426A2.628,2.628,0,0,1,64.2-2.733a2.481,2.481,0,0,1-1.116,2.1,4.815,4.815,0,0,1-2.883.8A5.029,5.029,0,0,1,58.083-.25a3.561,3.561,0,0,1-1.455-1.169,2.716,2.716,0,0,1-.527-1.6h2.408a1.326,1.326,0,0,0,.5,1.037,1.987,1.987,0,0,0,1.248.36,1.839,1.839,0,0,0,1.1-.277A.861.861,0,0,0,61.735-2.628Zm7.146-9.22V-9.51h1.626v1.863H68.88V-2.9a1.133,1.133,0,0,0,.2.756,1.015,1.015,0,0,0,.773.229,4.051,4.051,0,0,0,.747-.062V-.053a5.229,5.229,0,0,1-1.538.229,2.425,2.425,0,0,1-2.725-2.7V-7.646H64.952V-9.51H66.34v-2.338ZM77.432,0a2.821,2.821,0,0,1-.255-.853,3.073,3.073,0,0,1-2.4,1.028,3.376,3.376,0,0,1-2.316-.809,2.6,2.6,0,0,1-.918-2.039,2.687,2.687,0,0,1,1.121-2.32A5.529,5.529,0,0,1,75.9-5.81h1.169v-.545a1.567,1.567,0,0,0-.338-1.055,1.331,1.331,0,0,0-1.068-.4,1.513,1.513,0,0,0-1.006.308,1.045,1.045,0,0,0-.365.844h-2.54a2.551,2.551,0,0,1,.51-1.529,3.37,3.37,0,0,1,1.441-1.1,5.253,5.253,0,0,1,2.092-.4,4.15,4.15,0,0,1,2.791.883A3.09,3.09,0,0,1,79.62-6.319V-2.2A4.546,4.546,0,0,0,80-.149V0Zm-2.1-1.767a2.188,2.188,0,0,0,1.037-.25,1.645,1.645,0,0,0,.7-.672V-4.324h-.949q-1.907,0-2.03,1.318l-.009.149a1.017,1.017,0,0,0,.334.782A1.3,1.3,0,0,0,75.331-1.767Z" transform="translate(759.66 6629.091)" fill="#12263f"/>
    <g id="Grupo_58735" data-name="Grupo 58735" transform="translate(187.8 5336.391)">
      <path id="Trazado_119796" data-name="Trazado 119796" d="M587,1234.8a1.58,1.58,0,0,1,1.71-.93,6.58,6.58,0,0,1,4.36,2.1c.74.75,1.46,1.52,2.25,2.2a3.63,3.63,0,0,0,4.09.27c-.08-.2-.15-.42-.24-.62l-6.84-17.11c-.49-1.24-.16-1.88,1.12-2.17l22.27-5a2.755,2.755,0,0,1,1.07,0q11.15,2.46,22.28,5c1.25.28,1.6.94,1.13,2.11q-3.42,8.58-6.86,17.16c-.09.21-.16.42-.23.63a3.6,3.6,0,0,0,4-.25c.81-.69,1.54-1.47,2.29-2.23a6.46,6.46,0,0,1,4.6-2.1,1.29,1.29,0,0,1,1.47,1.19,1.27,1.27,0,0,1-1.33,1.33,4.35,4.35,0,0,0-3,1.48,25.5,25.5,0,0,1-2.43,2.34,6.32,6.32,0,0,1-8.09-.37c-.93-.84-1.76-1.79-2.71-2.61a3.64,3.64,0,0,0-4.63,0c-.81.68-1.54,1.47-2.29,2.22a6.31,6.31,0,0,1-7.23,1.52,11.994,11.994,0,0,1-2.53-1.82c-.7-.58-1.28-1.3-2-1.9a3.64,3.64,0,0,0-4.58-.06c-.85.71-1.6,1.53-2.38,2.3a6.46,6.46,0,0,1-6.23,1.82,6.551,6.551,0,0,1-3.29-2c-.69-.71-1.39-1.41-2.11-2.09a3.061,3.061,0,0,0-2.07-.83,1.53,1.53,0,0,1-1.59-1.05Zm28,4.1h1.83c.58,0,.72-.2.72-.8v-17.76c0-1.14-.43-1.74-1.26-1.75s-1.27.61-1.27,1.75v18.56Z" fill="#d283cb"/>
      <path id="Trazado_119797" data-name="Trazado 119797" d="M587,1239.94a1.47,1.47,0,0,1,1.77-1,6.53,6.53,0,0,1,4.31,2.1c.71.71,1.4,1.46,2.16,2.12a3.67,3.67,0,0,0,4.68,0c.75-.64,1.43-1.37,2.12-2.08a6.47,6.47,0,0,1,9.75,0c.69.7,1.37,1.43,2.12,2.07a3.66,3.66,0,0,0,4.64,0c.77-.65,1.46-1.39,2.16-2.11a6.46,6.46,0,0,1,9.71,0l1.31,1.36c2,2.1,4.34,2.09,6.36,0,.62-.64,1.23-1.3,1.89-1.91a6.24,6.24,0,0,1,4-1.62,1.33,1.33,0,0,1,1.47,1.19,1.22,1.22,0,0,1-1.21,1.32,5.06,5.06,0,0,0-3.52,1.87,14.815,14.815,0,0,1-2.58,2.31,6.35,6.35,0,0,1-8-1.12c-.49-.49-.95-1-1.43-1.49-2-2.07-4.34-2.08-6.32,0-.46.48-.91,1-1.38,1.45a6.46,6.46,0,0,1-9.55,0c-.45-.46-.9-.93-1.34-1.4-2-2.16-4.37-2.16-6.44,0-.57.59-1.11,1.21-1.72,1.75a6.4,6.4,0,0,1-9.09-.3c-.7-.69-1.39-1.41-2.1-2.09a3.241,3.241,0,0,0-2.22-.93,1.59,1.59,0,0,1-1.57-1Z" fill="#d283cb"/>
      <path id="Trazado_119798" data-name="Trazado 119798" d="M629.27,1188.06a1.58,1.58,0,0,1,1,1.69v3.35H615v-5Z" fill="#d283cb"/>
      <path id="Trazado_119799" data-name="Trazado 119799" d="M612.47,1188.06v5.05H602.31c0-1.38-.06-2.75,0-4.1,0-.34.56-.63.86-1Z" fill="#d283cb"/>
      <path id="Trazado_119800" data-name="Trazado 119800" d="M625.17,1212.85v-6.94h10.12v7.3c0,1.22-.63,1.74-1.82,1.48Z" fill="#d283cb"/>
      <path id="Trazado_119801" data-name="Trazado 119801" d="M635.32,1203.29H625.18v-7.57h8.52c1.16,0,1.62.46,1.62,1.63Z" fill="#d283cb"/>
      <path id="Trazado_119802" data-name="Trazado 119802" d="M604.76,1205.92v7.48l-3.45.78c-.86.19-1.71.39-2.56.56a1.24,1.24,0,0,1-1.58-1.2c0-2.52,0-5,0-7.62Z" fill="#d283cb"/>
      <path id="Trazado_119803" data-name="Trazado 119803" d="M615,1195.74v7.55h-7.58v-7.55Z" fill="#d283cb"/>
      <path id="Trazado_119804" data-name="Trazado 119804" d="M597.16,1203.27v-6.26a1.17,1.17,0,0,1,1.08-1.27h6.52v7.54Z" fill="#d283cb"/>
      <path id="Trazado_119805" data-name="Trazado 119805" d="M607.36,1205.9h7.58v5.25l-7.58,1.68Z" fill="#d283cb"/>
      <path id="Trazado_119806" data-name="Trazado 119806" d="M617.53,1203.28v-7.53h5v7.53Z" fill="#d283cb"/>
      <path id="Trazado_119807" data-name="Trazado 119807" d="M617.54,1205.9h5v6.36l-5-1.11Z" fill="#d283cb"/>
    </g>
  </g>
</svg>
