<svg xmlns="http://www.w3.org/2000/svg" xmlns:xlink="http://www.w3.org/1999/xlink" width="224.45" height="289.621" viewBox="0 0 224.45 289.621">
  <defs>
    <linearGradient id="linear-gradient" x1="0.237" y1="-0.212" x2="0.766" y2="1.22" gradientUnits="objectBoundingBox">
      <stop offset="0" stop-color="#fff"/>
      <stop offset="1" stop-color="#d2d1d1"/>
    </linearGradient>
    <linearGradient id="linear-gradient-2" x1="0.136" y1="0.141" x2="0.889" y2="0.884" gradientUnits="objectBoundingBox">
      <stop offset="0" stop-color="#fff"/>
      <stop offset="0.4" stop-color="#fbfbfb"/>
      <stop offset="0.76" stop-color="#f1f1f1"/>
      <stop offset="1" stop-color="#e5e5e5"/>
    </linearGradient>
    <linearGradient id="linear-gradient-3" x1="0.115" y1="0.124" x2="0.894" y2="0.885" gradientUnits="objectBoundingBox">
      <stop offset="0" stop-color="#fff"/>
      <stop offset="0.34" stop-color="#fbfbfb"/>
      <stop offset="0.64" stop-color="#f1f1f1"/>
      <stop offset="0.92" stop-color="#dedede"/>
      <stop offset="1" stop-color="#d8d8d8"/>
    </linearGradient>
    <linearGradient id="linear-gradient-4" x1="0.119" y1="0.151" x2="0.873" y2="0.842" gradientUnits="objectBoundingBox">
      <stop offset="0" stop-color="#d8d8d8"/>
      <stop offset="0.08" stop-color="#dedede"/>
      <stop offset="0.36" stop-color="#f1f1f1"/>
      <stop offset="0.66" stop-color="#fbfbfb"/>
      <stop offset="1" stop-color="#fff"/>
    </linearGradient>
  </defs>
  <g id="card4" transform="translate(-250 -5839.05)">
    <path id="Trazado_119742" data-name="Trazado 119742" d="M162.4,792.2h76a23.3,23.3,0,0,0,23.3-23.3V669l24.95-21.15L261.7,626.69V526.77a23.3,23.3,0,0,0-23.3-23.3h-76Z" transform="translate(187.8 5336.391)" fill="#472ea6"/>
    <g id="Grupo_58722" data-name="Grupo 58722" transform="translate(187.8 5336.391)" opacity="0.8">
      <rect id="Rectángulo_8037" data-name="Rectángulo 8037" width="155.01" height="245.05" rx="46.05" transform="translate(103.59 543.19)" fill="#fff" opacity="0"/>
      <rect id="Rectángulo_8038" data-name="Rectángulo 8038" width="155.01" height="245.05" rx="46.05" transform="translate(103.4 543.01)" fill="#f8f8f8" opacity="0.01"/>
      <rect id="Rectángulo_8039" data-name="Rectángulo 8039" width="155.01" height="245.05" rx="46.05" transform="translate(103.22 542.83)" fill="#f6f6f6" opacity="0.02"/>
      <rect id="Rectángulo_8040" data-name="Rectángulo 8040" width="155.01" height="245.05" rx="46.05" transform="translate(103.03 542.65)" fill="#f4f4f4" opacity="0.03"/>
      <rect id="Rectángulo_8041" data-name="Rectángulo 8041" width="155.01" height="245.05" rx="46.05" transform="translate(102.85 542.48)" fill="#f2f2f2" opacity="0.04"/>
      <rect id="Rectángulo_8042" data-name="Rectángulo 8042" width="155.01" height="245.05" rx="46.05" transform="translate(102.66 542.3)" fill="#f0f0f0" opacity="0.05"/>
      <rect id="Rectángulo_8043" data-name="Rectángulo 8043" width="155.01" height="245.05" rx="46.05" transform="translate(102.48 542.12)" fill="#eee" opacity="0.06"/>
      <rect id="Rectángulo_8044" data-name="Rectángulo 8044" width="155.01" height="245.05" rx="46.05" transform="translate(102.29 541.95)" fill="#ececec" opacity="0.07"/>
      <rect id="Rectángulo_8045" data-name="Rectángulo 8045" width="155.01" height="245.05" rx="46.05" transform="translate(102.11 541.77)" fill="#eaeaea" opacity="0.08"/>
      <rect id="Rectángulo_8046" data-name="Rectángulo 8046" width="155.01" height="245.05" rx="46.05" transform="translate(101.92 541.59)" fill="#e8e8e8" opacity="0.09"/>
      <rect id="Rectángulo_8047" data-name="Rectángulo 8047" width="155.01" height="245.05" rx="46.05" transform="translate(101.74 541.42)" fill="#e6e6e6" opacity="0.1"/>
      <rect id="Rectángulo_8048" data-name="Rectángulo 8048" width="155.01" height="245.05" rx="46.05" transform="translate(101.55 541.24)" fill="#e4e4e4" opacity="0.11"/>
      <rect id="Rectángulo_8049" data-name="Rectángulo 8049" width="155.01" height="245.05" rx="46.05" transform="translate(101.37 541.06)" fill="#e2e2e2" opacity="0.12"/>
      <rect id="Rectángulo_8050" data-name="Rectángulo 8050" width="155.01" height="245.05" rx="46.05" transform="translate(101.18 540.89)" fill="#e0e0e0" opacity="0.13"/>
      <rect id="Rectángulo_8051" data-name="Rectángulo 8051" width="155.01" height="245.05" rx="46.05" transform="translate(101 540.71)" fill="#dedede" opacity="0.14"/>
      <rect id="Rectángulo_8052" data-name="Rectángulo 8052" width="155.01" height="245.05" rx="46.05" transform="translate(100.81 540.53)" fill="#dcdcdc" opacity="0.15"/>
      <rect id="Rectángulo_8053" data-name="Rectángulo 8053" width="155.01" height="245.05" rx="46.05" transform="translate(100.63 540.35)" fill="#dadada" opacity="0.16"/>
      <rect id="Rectángulo_8054" data-name="Rectángulo 8054" width="155.01" height="245.05" rx="46.05" transform="translate(100.44 540.18)" fill="#d8d8d8" opacity="0.17"/>
      <rect id="Rectángulo_8055" data-name="Rectángulo 8055" width="155.01" height="245.05" rx="46.05" transform="translate(100.26 540)" fill="#d6d6d6" opacity="0.18"/>
      <rect id="Rectángulo_8056" data-name="Rectángulo 8056" width="155.01" height="245.05" rx="46.05" transform="translate(100.07 539.82)" fill="#d4d4d4" opacity="0.19"/>
      <rect id="Rectángulo_8057" data-name="Rectángulo 8057" width="155.01" height="245.05" rx="46.05" transform="translate(99.89 539.65)" fill="#d2d2d2" opacity="0.2"/>
      <rect id="Rectángulo_8058" data-name="Rectángulo 8058" width="155.01" height="245.05" rx="46.05" transform="translate(99.7 539.47)" fill="#d0d0d0" opacity="0.21"/>
      <rect id="Rectángulo_8059" data-name="Rectángulo 8059" width="155.01" height="245.05" rx="46.05" transform="translate(99.52 539.29)" fill="#cecece" opacity="0.22"/>
      <rect id="Rectángulo_8060" data-name="Rectángulo 8060" width="155.01" height="245.05" rx="46.05" transform="translate(99.33 539.12)" fill="#ccc" opacity="0.23"/>
      <rect id="Rectángulo_8061" data-name="Rectángulo 8061" width="155.01" height="245.05" rx="46.05" transform="translate(99.15 538.94)" fill="#cacaca" opacity="0.24"/>
      <rect id="Rectángulo_8062" data-name="Rectángulo 8062" width="155.01" height="245.05" rx="46.05" transform="translate(98.96 538.76)" fill="#c8c8c8" opacity="0.25"/>
      <rect id="Rectángulo_8063" data-name="Rectángulo 8063" width="155.01" height="245.05" rx="46.05" transform="translate(98.78 538.58)" fill="#c5c5c5" opacity="0.26"/>
      <rect id="Rectángulo_8064" data-name="Rectángulo 8064" width="155.01" height="245.05" rx="46.05" transform="translate(98.59 538.41)" fill="#c3c3c3" opacity="0.27"/>
      <rect id="Rectángulo_8065" data-name="Rectángulo 8065" width="155.01" height="245.05" rx="46.05" transform="translate(98.41 538.23)" fill="#c1c1c1" opacity="0.28"/>
      <rect id="Rectángulo_8066" data-name="Rectángulo 8066" width="155.01" height="245.05" rx="46.05" transform="translate(98.22 538.05)" fill="#bfbfbf" opacity="0.29"/>
      <rect id="Rectángulo_8067" data-name="Rectángulo 8067" width="155.01" height="245.05" rx="46.05" transform="translate(98.04 537.88)" fill="#bdbdbd" opacity="0.3"/>
      <rect id="Rectángulo_8068" data-name="Rectángulo 8068" width="155.01" height="245.05" rx="46.05" transform="translate(97.85 537.7)" fill="#bbb" opacity="0.31"/>
      <rect id="Rectángulo_8069" data-name="Rectángulo 8069" width="155.01" height="245.05" rx="46.05" transform="translate(97.67 537.52)" fill="#b9b9b9" opacity="0.32"/>
      <rect id="Rectángulo_8070" data-name="Rectángulo 8070" width="155.01" height="245.05" rx="46.05" transform="translate(97.48 537.35)" fill="#b7b7b7" opacity="0.33"/>
      <rect id="Rectángulo_8071" data-name="Rectángulo 8071" width="155.01" height="245.05" rx="46.05" transform="translate(97.3 537.17)" fill="#b5b5b5" opacity="0.34"/>
      <rect id="Rectángulo_8072" data-name="Rectángulo 8072" width="155.01" height="245.05" rx="46.05" transform="translate(97.11 536.99)" fill="#b3b3b3" opacity="0.35"/>
      <rect id="Rectángulo_8073" data-name="Rectángulo 8073" width="155.01" height="245.05" rx="46.05" transform="translate(96.93 536.81)" fill="#b1b1b1" opacity="0.36"/>
      <rect id="Rectángulo_8074" data-name="Rectángulo 8074" width="155.01" height="245.05" rx="46.05" transform="translate(96.74 536.64)" fill="#afafaf" opacity="0.37"/>
      <rect id="Rectángulo_8075" data-name="Rectángulo 8075" width="155.01" height="245.05" rx="46.05" transform="translate(96.56 536.46)" fill="#adadad" opacity="0.38"/>
      <rect id="Rectángulo_8076" data-name="Rectángulo 8076" width="155.01" height="245.05" rx="46.05" transform="translate(96.37 536.28)" fill="#ababab" opacity="0.39"/>
      <rect id="Rectángulo_8077" data-name="Rectángulo 8077" width="155.01" height="245.05" rx="46.05" transform="translate(96.19 536.11)" fill="#a9a9a9" opacity="0.4"/>
      <rect id="Rectángulo_8078" data-name="Rectángulo 8078" width="155.01" height="245.05" rx="46.05" transform="translate(96 535.93)" fill="#a7a7a7" opacity="0.41"/>
      <rect id="Rectángulo_8079" data-name="Rectángulo 8079" width="155.01" height="245.05" rx="46.05" transform="translate(95.82 535.75)" fill="#a5a5a5" opacity="0.42"/>
      <rect id="Rectángulo_8080" data-name="Rectángulo 8080" width="155.01" height="245.05" rx="46.05" transform="translate(95.63 535.58)" fill="#a3a3a3" opacity="0.43"/>
      <rect id="Rectángulo_8081" data-name="Rectángulo 8081" width="155.01" height="245.05" rx="46.05" transform="translate(95.45 535.4)" fill="#a1a1a1" opacity="0.44"/>
      <rect id="Rectángulo_8082" data-name="Rectángulo 8082" width="155.01" height="245.05" rx="46.05" transform="translate(95.26 535.22)" fill="#9f9f9f" opacity="0.45"/>
      <rect id="Rectángulo_8083" data-name="Rectángulo 8083" width="155.01" height="245.05" rx="46.05" transform="translate(95.08 535.04)" fill="#9d9d9d" opacity="0.46"/>
      <rect id="Rectángulo_8084" data-name="Rectángulo 8084" width="155.01" height="245.05" rx="46.05" transform="translate(94.89 534.87)" fill="#9b9b9b" opacity="0.47"/>
      <rect id="Rectángulo_8085" data-name="Rectángulo 8085" width="155.01" height="245.05" rx="46.05" transform="translate(94.7 534.69)" fill="#999" opacity="0.48"/>
      <rect id="Rectángulo_8086" data-name="Rectángulo 8086" width="155.01" height="245.05" rx="46.05" transform="translate(94.52 534.51)" fill="#979797" opacity="0.49"/>
      <rect id="Rectángulo_8087" data-name="Rectángulo 8087" width="155.01" height="245.05" rx="46.05" transform="translate(94.33 534.34)" fill="#959595" opacity="0.5"/>
      <rect id="Rectángulo_8088" data-name="Rectángulo 8088" width="155.01" height="245.05" rx="46.05" transform="translate(94.15 534.16)" fill="#939393" opacity="0.5"/>
      <rect id="Rectángulo_8089" data-name="Rectángulo 8089" width="155.01" height="245.05" rx="46.05" transform="translate(93.96 533.98)" fill="#919191" opacity="0.51"/>
      <rect id="Rectángulo_8090" data-name="Rectángulo 8090" width="155.01" height="245.05" rx="46.05" transform="translate(93.78 533.81)" fill="#8f8f8f" opacity="0.52"/>
      <rect id="Rectángulo_8091" data-name="Rectángulo 8091" width="155.01" height="245.05" rx="46.05" transform="translate(93.59 533.63)" fill="#8d8d8d" opacity="0.53"/>
      <rect id="Rectángulo_8092" data-name="Rectángulo 8092" width="155.01" height="245.05" rx="46.05" transform="translate(93.41 533.45)" fill="#8b8b8b" opacity="0.54"/>
      <rect id="Rectángulo_8093" data-name="Rectángulo 8093" width="155.01" height="245.05" rx="46.05" transform="translate(93.22 533.28)" fill="#898989" opacity="0.55"/>
      <rect id="Rectángulo_8094" data-name="Rectángulo 8094" width="155.01" height="245.05" rx="46.05" transform="translate(93.04 533.1)" fill="#878787" opacity="0.56"/>
      <rect id="Rectángulo_8095" data-name="Rectángulo 8095" width="155.01" height="245.05" rx="46.05" transform="translate(92.85 532.92)" fill="#858585" opacity="0.57"/>
      <rect id="Rectángulo_8096" data-name="Rectángulo 8096" width="155.01" height="245.05" rx="46.05" transform="translate(92.67 532.74)" fill="#838383" opacity="0.58"/>
      <rect id="Rectángulo_8097" data-name="Rectángulo 8097" width="155.01" height="245.05" rx="46.05" transform="translate(92.48 532.57)" fill="#818181" opacity="0.59"/>
      <rect id="Rectángulo_8098" data-name="Rectángulo 8098" width="155.01" height="245.05" rx="46.05" transform="translate(92.3 532.39)" fill="gray" opacity="0.6"/>
      <rect id="Rectángulo_8099" data-name="Rectángulo 8099" width="155.01" height="245.05" rx="46.05" transform="translate(92.11 532.21)" fill="gray" opacity="0.61"/>
      <rect id="Rectángulo_8100" data-name="Rectángulo 8100" width="155.01" height="245.05" rx="46.05" transform="translate(91.93 532.04)" fill="gray" opacity="0.62"/>
      <rect id="Rectángulo_8101" data-name="Rectángulo 8101" width="155.01" height="245.05" rx="46.05" transform="translate(91.74 531.86)" fill="#7e7e7e" opacity="0.63"/>
      <rect id="Rectángulo_8102" data-name="Rectángulo 8102" width="155.01" height="245.05" rx="46.05" transform="translate(91.56 531.68)" fill="#7c7c7c" opacity="0.64"/>
      <rect id="Rectángulo_8103" data-name="Rectángulo 8103" width="155.01" height="245.05" rx="46.05" transform="translate(91.37 531.51)" fill="#7a7a7a" opacity="0.65"/>
      <rect id="Rectángulo_8104" data-name="Rectángulo 8104" width="155.01" height="245.05" rx="46.05" transform="translate(91.19 531.33)" fill="#787878" opacity="0.66"/>
      <rect id="Rectángulo_8105" data-name="Rectángulo 8105" width="155.01" height="245.05" rx="46.05" transform="translate(91 531.15)" fill="#767676" opacity="0.67"/>
      <rect id="Rectángulo_8106" data-name="Rectángulo 8106" width="155.01" height="245.05" rx="46.05" transform="translate(90.82 530.97)" fill="#747474" opacity="0.68"/>
      <rect id="Rectángulo_8107" data-name="Rectángulo 8107" width="155.01" height="245.05" rx="46.05" transform="translate(90.63 530.8)" fill="#727272" opacity="0.69"/>
      <rect id="Rectángulo_8108" data-name="Rectángulo 8108" width="155.01" height="245.05" rx="46.05" transform="translate(90.45 530.62)" fill="#707070" opacity="0.7"/>
      <rect id="Rectángulo_8109" data-name="Rectángulo 8109" width="155.01" height="245.05" rx="46.05" transform="translate(90.26 530.44)" fill="#6e6e6e" opacity="0.71"/>
      <rect id="Rectángulo_8110" data-name="Rectángulo 8110" width="155.01" height="245.05" rx="46.05" transform="translate(90.08 530.27)" fill="#6c6c6c" opacity="0.72"/>
      <rect id="Rectángulo_8111" data-name="Rectángulo 8111" width="155.01" height="245.05" rx="46.05" transform="translate(89.89 530.09)" fill="#6a6a6a" opacity="0.73"/>
      <rect id="Rectángulo_8112" data-name="Rectángulo 8112" width="155.01" height="245.05" rx="46.05" transform="translate(89.71 529.91)" fill="#686868" opacity="0.74"/>
      <rect id="Rectángulo_8113" data-name="Rectángulo 8113" width="155.01" height="245.05" rx="46.05" transform="translate(89.52 529.74)" fill="#656565" opacity="0.75"/>
      <rect id="Rectángulo_8114" data-name="Rectángulo 8114" width="155.01" height="245.05" rx="46.05" transform="translate(89.34 529.56)" fill="#636363" opacity="0.76"/>
      <rect id="Rectángulo_8115" data-name="Rectángulo 8115" width="155.01" height="245.05" rx="46.05" transform="translate(89.15 529.38)" fill="#616161" opacity="0.77"/>
      <rect id="Rectángulo_8116" data-name="Rectángulo 8116" width="155.01" height="245.05" rx="46.05" transform="translate(88.97 529.2)" fill="#5f5f5f" opacity="0.78"/>
      <rect id="Rectángulo_8117" data-name="Rectángulo 8117" width="155.01" height="245.05" rx="46.05" transform="translate(88.78 529.03)" fill="#5d5d5d" opacity="0.79"/>
      <rect id="Rectángulo_8118" data-name="Rectángulo 8118" width="155.01" height="245.05" rx="46.05" transform="translate(88.6 528.85)" fill="#5b5b5b" opacity="0.8"/>
      <rect id="Rectángulo_8119" data-name="Rectángulo 8119" width="155.01" height="245.05" rx="46.05" transform="translate(88.41 528.67)" fill="#595959" opacity="0.81"/>
      <rect id="Rectángulo_8120" data-name="Rectángulo 8120" width="155.01" height="245.05" rx="46.05" transform="translate(88.23 528.5)" fill="#575757" opacity="0.82"/>
      <rect id="Rectángulo_8121" data-name="Rectángulo 8121" width="155.01" height="245.05" rx="46.05" transform="translate(88.04 528.32)" fill="#555" opacity="0.83"/>
      <rect id="Rectángulo_8122" data-name="Rectángulo 8122" width="155.01" height="245.05" rx="46.05" transform="translate(87.86 528.14)" fill="#535353" opacity="0.84"/>
      <rect id="Rectángulo_8123" data-name="Rectángulo 8123" width="155.01" height="245.05" rx="46.05" transform="translate(87.67 527.97)" fill="#515151" opacity="0.85"/>
      <rect id="Rectángulo_8124" data-name="Rectángulo 8124" width="155.01" height="245.05" rx="46.05" transform="translate(87.49 527.79)" fill="#4f4f4f" opacity="0.86"/>
      <rect id="Rectángulo_8125" data-name="Rectángulo 8125" width="155.01" height="245.05" rx="46.05" transform="translate(87.3 527.61)" fill="#4d4d4d" opacity="0.87"/>
      <rect id="Rectángulo_8126" data-name="Rectángulo 8126" width="155.01" height="245.05" rx="46.05" transform="translate(87.12 527.44)" fill="#4b4b4b" opacity="0.88"/>
      <rect id="Rectángulo_8127" data-name="Rectángulo 8127" width="155.01" height="245.05" rx="46.05" transform="translate(86.93 527.26)" fill="#494949" opacity="0.89"/>
      <rect id="Rectángulo_8128" data-name="Rectángulo 8128" width="155.01" height="245.05" rx="46.05" transform="translate(86.75 527.08)" fill="#474747" opacity="0.9"/>
      <rect id="Rectángulo_8129" data-name="Rectángulo 8129" width="155.01" height="245.05" rx="46.05" transform="translate(86.56 526.9)" fill="#454545" opacity="0.91"/>
      <rect id="Rectángulo_8130" data-name="Rectángulo 8130" width="155.01" height="245.05" rx="46.05" transform="translate(86.38 526.73)" fill="#434343" opacity="0.92"/>
      <rect id="Rectángulo_8131" data-name="Rectángulo 8131" width="155.01" height="245.05" rx="46.05" transform="translate(86.19 526.55)" fill="#414141" opacity="0.93"/>
      <rect id="Rectángulo_8132" data-name="Rectángulo 8132" width="155.01" height="245.05" rx="46.05" transform="translate(86.01 526.37)" fill="#3f3f3f" opacity="0.94"/>
      <rect id="Rectángulo_8133" data-name="Rectángulo 8133" width="155.01" height="245.05" rx="46.05" transform="translate(85.82 526.2)" fill="#3d3d3d" opacity="0.95"/>
      <rect id="Rectángulo_8134" data-name="Rectángulo 8134" width="155.01" height="245.05" rx="46.05" transform="translate(85.64 526.02)" fill="#3b3b3b" opacity="0.96"/>
      <rect id="Rectángulo_8135" data-name="Rectángulo 8135" width="155.01" height="245.05" rx="46.05" transform="translate(85.45 525.84)" fill="#393939" opacity="0.97"/>
      <rect id="Rectángulo_8136" data-name="Rectángulo 8136" width="155.01" height="245.05" rx="46.05" transform="translate(85.27 525.67)" fill="#373737" opacity="0.98"/>
      <rect id="Rectángulo_8137" data-name="Rectángulo 8137" width="155.01" height="245.05" rx="46.05" transform="translate(85.08 525.49)" fill="#353535" opacity="0.99"/>
      <rect id="Rectángulo_8138" data-name="Rectángulo 8138" width="155.01" height="245.05" rx="46.05" transform="translate(84.9 525.31)" fill="#333"/>
    </g>
    <g id="Grupo_58723" data-name="Grupo 58723" transform="translate(187.8 5336.391)">
      <rect id="Rectángulo_8139" data-name="Rectángulo 8139" width="249.9" height="159.86" rx="51.4" transform="translate(242.33 522.89) rotate(90)" fill="url(#linear-gradient)"/>
      <rect id="Rectángulo_8140" data-name="Rectángulo 8140" width="245.05" height="155.01" rx="46.05" transform="translate(239.91 525.31) rotate(90)" fill="#ededed"/>
    </g>
    <g id="Grupo_58724" data-name="Grupo 58724" transform="translate(187.8 5336.391)">
      <rect id="Rectángulo_8141" data-name="Rectángulo 8141" width="1.71" height="1.71" transform="translate(160.69 790.57)" fill="#4d4d4d"/>
      <path id="Trazado_119743" data-name="Trazado 119743" d="M155.5,792.28h-3.45v-1.71h3.45Zm-8.63,0h-3.46v-1.71h3.46Zm-8.64,0h-3.45v-1.71h3.45Zm-8.64,0h-3.45v-1.71h3.45Zm-8.63,0H117.5v-1.71H121Zm-8.64,0h-3.45v-1.71h3.45Zm-8.64,0h-3.45v-1.71h3.45Zm-8.63,0H91.59v-1.71h3.46Zm-8.64,0h-.06a24.284,24.284,0,0,1-3.51-.26l.25-1.69a22.159,22.159,0,0,0,3.26.24Zm-8.75-1.62a24,24,0,0,1-3.24-1.53l.85-1.49a22.274,22.274,0,0,0,3,1.43ZM70.09,786a24.167,24.167,0,0,1-2.46-2.6L69,782.3a21.613,21.613,0,0,0,2.28,2.41Zm-5.37-7.1a23.687,23.687,0,0,1-1.35-3.31L65,775a23.373,23.373,0,0,0,1.25,3.08Zm-2.42-8.56c-.07-.73-.1-1.46-.1-2.2v-1.33h1.71v1.33q0,1,.09,2Zm1.61-8.72H62.2v-3.45h1.71Zm0-8.63H62.2v-3.46h1.71Zm0-8.64H62.2V740.9h1.71Zm0-8.64H62.2v-3.45h1.71Zm0-8.63H62.2V723.6h1.71Zm0-8.64H62.2V715h1.71Zm0-8.64H62.2v-3.45h1.71Zm0-8.63H62.2v-3.46h1.71Zm0-8.64H62.2v-3.45h1.71Zm0-8.64H62.2v-3.45h1.71Zm0-8.63H62.2V671.8h1.71Zm0-8.64H62.2v-3.45h1.71Zm0-8.64H62.2v-3.45h1.71Zm0-8.63H62.2v-3.46h1.71Zm0-8.64H62.2v-3.46h1.71Zm0-8.64H62.2V628.6h1.71Zm0-8.63H62.2V620h1.71Zm0-8.64H62.2v-3.46h1.71Zm0-8.64H62.2v-3.45h1.71Zm0-8.63H62.2v-3.46h1.71Zm0-8.64H62.2v-3.46h1.71Zm0-8.64H62.2V576.8h1.71Zm0-8.64H62.2v-3.45h1.71Zm0-8.63H62.2V559.5h1.71Zm0-8.64H62.2v-3.45h1.71Zm0-8.64H62.2v-3.45h1.71Zm0-8.63H62.2v-3.46h1.71Zm0-8.64H62.2v-.84a24.318,24.318,0,0,1,.15-2.7l1.7.194a23.32,23.32,0,0,0-.14,2.51Zm1.22-8.23-1.63-.54a24.463,24.463,0,0,1,1.38-3.3l1.53.77a22.864,22.864,0,0,0-1.28,3.05Zm4-7.28-1.33-1.07a25,25,0,0,1,2.41-2.63l1.18,1.24a25.152,25.152,0,0,0-2.3,2.44Zm6.23-5.48L74.44,506a23.242,23.242,0,0,1,3.19-1.61l.65,1.58a22.776,22.776,0,0,0-2.96,1.45Zm80.13-2.36L152,505v-1.71h3.45Zm-8.63-.09H143.4v-1.71h3.45Zm-8.64-.09h-3.45v-1.71h3.46Zm-8.64-.1h-3.45v-1.72h3.45Zm-8.63-.09h-3.46v-1.72h3.46Zm-8.64-.09h-3.45v-1.71h3.46Zm-29.2,0-.27-1.69a23.48,23.48,0,0,1,3.55-.27v1.71a21.186,21.186,0,0,0-3.32.21Zm20.56-.07h-3.45v-1.71h3.45ZM95,504.42H91.54v-1.71H95Z" fill="#4d4d4d"/>
      <rect id="Rectángulo_8142" data-name="Rectángulo 8142" width="1.71" height="1.71" transform="translate(160.688 505.147) rotate(-89.38)" fill="#4d4d4d"/>
    </g>
    <g id="Grupo" transform="translate(187.8 5336.391)">
      <path id="Trazado_119869" data-name="Trazado 119869" d="M11.188-4.263A4.528,4.528,0,0,1,9.664-1.011,5.355,5.355,0,0,1,6.038.176,4.816,4.816,0,0,1,2.167-1.481,6.793,6.793,0,0,1,.756-6.029v-.782a7.671,7.671,0,0,1,.65-3.252,4.874,4.874,0,0,1,1.859-2.158,5.207,5.207,0,0,1,2.808-.751,5.217,5.217,0,0,1,3.568,1.187,4.866,4.866,0,0,1,1.564,3.331H8.569a2.673,2.673,0,0,0-.69-1.8,2.555,2.555,0,0,0-1.806-.558A2.24,2.24,0,0,0,4.1-9.866a5.3,5.3,0,0,0-.672,2.931v.967a5.667,5.667,0,0,0,.628,3.032,2.2,2.2,0,0,0,1.982.958,2.6,2.6,0,0,0,1.824-.558,2.521,2.521,0,0,0,.69-1.727ZM18.264,0a2.821,2.821,0,0,1-.255-.853,3.073,3.073,0,0,1-2.4,1.028,3.376,3.376,0,0,1-2.316-.809,2.6,2.6,0,0,1-.918-2.039A2.687,2.687,0,0,1,13.5-4.992a5.529,5.529,0,0,1,3.239-.817H17.9v-.545a1.567,1.567,0,0,0-.338-1.055A1.331,1.331,0,0,0,16.5-7.8a1.513,1.513,0,0,0-1.006.308,1.045,1.045,0,0,0-.365.844h-2.54a2.551,2.551,0,0,1,.51-1.529,3.37,3.37,0,0,1,1.441-1.1,5.253,5.253,0,0,1,2.092-.4,4.15,4.15,0,0,1,2.791.883,3.09,3.09,0,0,1,1.033,2.483V-2.2A4.546,4.546,0,0,0,20.83-.149V0Zm-2.1-1.767a2.188,2.188,0,0,0,1.037-.25,1.645,1.645,0,0,0,.7-.672V-4.324h-.949q-1.907,0-2.03,1.318l-.009.149a1.017,1.017,0,0,0,.334.782A1.3,1.3,0,0,0,16.163-1.767ZM24.741-9.51l.079,1.1a3.32,3.32,0,0,1,2.733-1.274A2.759,2.759,0,0,1,29.8-8.8a4.142,4.142,0,0,1,.756,2.654V0H28.02V-6.082a1.648,1.648,0,0,0-.352-1.173A1.574,1.574,0,0,0,26.5-7.62a1.747,1.747,0,0,0-1.608.914V0h-2.54V-9.51ZM38,0a2.821,2.821,0,0,1-.255-.853,3.073,3.073,0,0,1-2.4,1.028,3.376,3.376,0,0,1-2.316-.809,2.6,2.6,0,0,1-.918-2.039,2.687,2.687,0,0,1,1.121-2.32,5.529,5.529,0,0,1,3.239-.817h1.169v-.545A1.567,1.567,0,0,0,37.3-7.409a1.331,1.331,0,0,0-1.068-.4,1.513,1.513,0,0,0-1.006.308,1.045,1.045,0,0,0-.365.844h-2.54a2.551,2.551,0,0,1,.51-1.529,3.37,3.37,0,0,1,1.441-1.1,5.253,5.253,0,0,1,2.092-.4,4.15,4.15,0,0,1,2.791.883,3.09,3.09,0,0,1,1.033,2.483V-2.2a4.546,4.546,0,0,0,.378,2.048V0Zm-2.1-1.767a2.188,2.188,0,0,0,1.037-.25,1.645,1.645,0,0,0,.7-.672V-4.324h-.949q-1.907,0-2.03,1.318l-.009.149a1.017,1.017,0,0,0,.334.782A1.3,1.3,0,0,0,35.895-1.767ZM44.815,0H42.267V-13.5h2.549Zm6.179-4.825a5.731,5.731,0,0,1,1-3.542,3.237,3.237,0,0,1,2.729-1.318,2.913,2.913,0,0,1,2.294,1.037V-13.5h2.549V0H57.27l-.123-1.011A2.989,2.989,0,0,1,54.7.176a3.228,3.228,0,0,1-2.694-1.323A5.916,5.916,0,0,1,50.994-4.825Zm2.54.189A3.754,3.754,0,0,0,54-2.585a1.517,1.517,0,0,0,1.354.713,1.7,1.7,0,0,0,1.661-.995V-6.625a1.675,1.675,0,0,0-1.644-.995Q53.534-7.62,53.534-4.636ZM65.909.176A4.668,4.668,0,0,1,62.5-1.107a4.561,4.561,0,0,1-1.314-3.419v-.246a5.745,5.745,0,0,1,.554-2.562,4.064,4.064,0,0,1,1.569-1.74,4.4,4.4,0,0,1,2.316-.611A3.947,3.947,0,0,1,68.7-8.455,5,5,0,0,1,69.82-4.966v1.037H63.765a2.36,2.36,0,0,0,.743,1.494,2.245,2.245,0,0,0,1.569.563A2.742,2.742,0,0,0,68.37-2.936l1.248,1.4A3.813,3.813,0,0,1,68.071-.277,5.075,5.075,0,0,1,65.909.176Zm-.29-7.813a1.587,1.587,0,0,0-1.226.512,2.651,2.651,0,0,0-.6,1.466h3.533v-.2a1.891,1.891,0,0,0-.457-1.311A1.638,1.638,0,0,0,65.619-7.638Z" transform="translate(125.53 640.67)" fill="#12263f"/>
      <path id="Trazado_119851" data-name="Trazado 119851" d="M.58-4.825a5.731,5.731,0,0,1,1-3.542A3.237,3.237,0,0,1,4.307-9.686,2.913,2.913,0,0,1,6.6-8.648V-13.5H9.149V0H6.855L6.732-1.011A2.989,2.989,0,0,1,4.289.176,3.228,3.228,0,0,1,1.6-1.147,5.916,5.916,0,0,1,.58-4.825Zm2.54.189a3.754,3.754,0,0,0,.466,2.051,1.517,1.517,0,0,0,1.354.713A1.7,1.7,0,0,0,6.6-2.867V-6.625A1.675,1.675,0,0,0,4.957-7.62Q3.12-7.62,3.12-4.636ZM13.8,0H11.25V-9.51H13.8ZM11.1-11.971a1.251,1.251,0,0,1,.382-.94,1.436,1.436,0,0,1,1.042-.369,1.44,1.44,0,0,1,1.037.369,1.244,1.244,0,0,1,.387.94,1.247,1.247,0,0,1-.391.949,1.443,1.443,0,0,1-1.033.369,1.443,1.443,0,0,1-1.033-.369A1.247,1.247,0,0,1,11.1-11.971Zm9.94,9.343a.818.818,0,0,0-.461-.734A5.241,5.241,0,0,0,19.1-3.841q-3.393-.712-3.393-2.883a2.613,2.613,0,0,1,1.05-2.114A4.237,4.237,0,0,1,19.5-9.686a4.56,4.56,0,0,1,2.9.853,2.687,2.687,0,0,1,1.085,2.215h-2.54a1.229,1.229,0,0,0-.352-.9,1.488,1.488,0,0,0-1.1-.356,1.52,1.52,0,0,0-.993.29.916.916,0,0,0-.352.738.783.783,0,0,0,.4.681,4.114,4.114,0,0,0,1.349.448,11.019,11.019,0,0,1,1.6.426,2.628,2.628,0,0,1,2.013,2.558,2.481,2.481,0,0,1-1.116,2.1,4.815,4.815,0,0,1-2.883.8A5.029,5.029,0,0,1,17.389-.25a3.561,3.561,0,0,1-1.455-1.169,2.716,2.716,0,0,1-.527-1.6h2.408a1.326,1.326,0,0,0,.5,1.037,1.987,1.987,0,0,0,1.248.36,1.839,1.839,0,0,0,1.1-.277A.861.861,0,0,0,21.041-2.628Zm7.146-9.22V-9.51h1.626v1.863H28.187V-2.9a1.133,1.133,0,0,0,.2.756,1.015,1.015,0,0,0,.773.229,4.051,4.051,0,0,0,.747-.062V-.053a5.229,5.229,0,0,1-1.538.229,2.425,2.425,0,0,1-2.725-2.7V-7.646H24.258V-9.51h1.389v-2.338Zm8.385,4.72a6.9,6.9,0,0,0-.914-.07,1.86,1.86,0,0,0-1.89.976V0h-2.54V-9.51h2.4l.07,1.134a2.354,2.354,0,0,1,2.118-1.31,2.662,2.662,0,0,1,.791.114ZM40.474,0H37.925V-9.51h2.549Zm-2.7-11.971a1.251,1.251,0,0,1,.382-.94A1.436,1.436,0,0,1,39.2-13.28a1.44,1.44,0,0,1,1.037.369,1.244,1.244,0,0,1,.387.94,1.247,1.247,0,0,1-.391.949,1.443,1.443,0,0,1-1.033.369,1.443,1.443,0,0,1-1.033-.369A1.247,1.247,0,0,1,37.775-11.971Zm13.359,7.3A5.758,5.758,0,0,1,50.159-1.1,3.231,3.231,0,0,1,47.435.176a2.969,2.969,0,0,1-2.47-1.187L44.851,0H42.565V-13.5h2.54v4.843a2.893,2.893,0,0,1,2.312-1.028,3.258,3.258,0,0,1,2.729,1.279,5.767,5.767,0,0,1,.989,3.6Zm-2.54-.185a3.783,3.783,0,0,0-.457-2.1,1.545,1.545,0,0,0-1.362-.664,1.676,1.676,0,0,0-1.67.993v3.753a1.7,1.7,0,0,0,1.688,1A1.568,1.568,0,0,0,48.41-3.085,6.257,6.257,0,0,0,48.595-4.852Zm9.8,3.885a3.185,3.185,0,0,1-2.6,1.143A3,3,0,0,1,53.459-.7a3.752,3.752,0,0,1-.822-2.575V-9.51h2.54v6.151q0,1.487,1.354,1.487a1.834,1.834,0,0,0,1.775-.9V-9.51h2.549V0H58.465Zm8.332-.905a1.666,1.666,0,0,0,1.143-.387,1.355,1.355,0,0,0,.457-1.028h2.382a3.258,3.258,0,0,1-.527,1.771A3.48,3.48,0,0,1,68.761-.268a4.442,4.442,0,0,1-1.991.444,4.129,4.129,0,0,1-3.217-1.3A5.13,5.13,0,0,1,62.376-4.7v-.167a5.071,5.071,0,0,1,1.169-3.507,4.08,4.08,0,0,1,3.208-1.31A4,4,0,0,1,69.614-8.67a3.594,3.594,0,0,1,1.094,2.7H68.326a1.745,1.745,0,0,0-.457-1.206,1.524,1.524,0,0,0-1.16-.464,1.53,1.53,0,0,0-1.34.647,3.749,3.749,0,0,0-.453,2.1v.264a3.8,3.8,0,0,0,.448,2.113A1.549,1.549,0,0,0,66.727-1.872ZM74.839,0H72.29V-9.51h2.549Zm-2.7-11.971a1.251,1.251,0,0,1,.382-.94,1.436,1.436,0,0,1,1.042-.369,1.44,1.44,0,0,1,1.037.369,1.244,1.244,0,0,1,.387.94,1.247,1.247,0,0,1-.391.949,1.443,1.443,0,0,1-1.033.369,1.443,1.443,0,0,1-1.033-.369A1.247,1.247,0,0,1,72.141-11.971Zm4.395,7.128a5.64,5.64,0,0,1,.545-2.522,3.989,3.989,0,0,1,1.569-1.714,4.577,4.577,0,0,1,2.377-.606,4.33,4.33,0,0,1,3.142,1.178,4.727,4.727,0,0,1,1.358,3.2l.018.65a4.97,4.97,0,0,1-1.222,3.511A4.247,4.247,0,0,1,81.044.176a4.268,4.268,0,0,1-3.283-1.318,5.058,5.058,0,0,1-1.226-3.586Zm2.54.18a3.555,3.555,0,0,0,.51,2.073,1.682,1.682,0,0,0,1.459.717,1.686,1.686,0,0,0,1.441-.709A3.89,3.89,0,0,0,83-4.847a3.519,3.519,0,0,0-.519-2.06,1.686,1.686,0,0,0-1.459-.731,1.658,1.658,0,0,0-1.441.726A3.955,3.955,0,0,0,79.075-4.662ZM81.527-13.5H84.3l-2.435,2.725H79.8Zm7.919,3.99.079,1.1a3.32,3.32,0,0,1,2.733-1.274,2.759,2.759,0,0,1,2.25.888,4.142,4.142,0,0,1,.756,2.654V0h-2.54V-6.082a1.648,1.648,0,0,0-.352-1.173A1.574,1.574,0,0,0,91.2-7.62a1.747,1.747,0,0,0-1.608.914V0h-2.54V-9.51Z" transform="translate(112.57 662.27)" fill="#12263f"/>
      <path id="Trazado_119852" data-name="Trazado 119852" d="M3.656,0H1.107V-9.51H3.656ZM.958-11.971a1.251,1.251,0,0,1,.382-.94,1.436,1.436,0,0,1,1.042-.369,1.44,1.44,0,0,1,1.037.369,1.244,1.244,0,0,1,.387.94,1.247,1.247,0,0,1-.391.949,1.443,1.443,0,0,1-1.033.369,1.443,1.443,0,0,1-1.033-.369A1.247,1.247,0,0,1,.958-11.971ZM8.086-9.51l.079,1.1A3.32,3.32,0,0,1,10.9-9.686a2.759,2.759,0,0,1,2.25.888A4.142,4.142,0,0,1,13.9-6.144V0h-2.54V-6.082a1.648,1.648,0,0,0-.352-1.173A1.574,1.574,0,0,0,9.844-7.62a1.747,1.747,0,0,0-1.608.914V0H5.7V-9.51Zm7.348,4.685a5.731,5.731,0,0,1,1-3.542A3.237,3.237,0,0,1,19.16-9.686a2.913,2.913,0,0,1,2.294,1.037V-13.5H24V0H21.709l-.123-1.011A2.989,2.989,0,0,1,19.143.176a3.228,3.228,0,0,1-2.694-1.323A5.916,5.916,0,0,1,15.434-4.825Zm2.54.189a3.754,3.754,0,0,0,.466,2.051,1.517,1.517,0,0,0,1.354.713,1.7,1.7,0,0,0,1.661-.995V-6.625a1.675,1.675,0,0,0-1.644-.995Q17.974-7.62,17.974-4.636ZM28.652,0H26.1V-9.51h2.549Zm-2.7-11.971a1.251,1.251,0,0,1,.382-.94,1.436,1.436,0,0,1,1.042-.369,1.44,1.44,0,0,1,1.037.369,1.244,1.244,0,0,1,.387.94,1.247,1.247,0,0,1-.391.949,1.443,1.443,0,0,1-1.033.369,1.443,1.443,0,0,1-1.033-.369A1.247,1.247,0,0,1,25.954-11.971Z" transform="translate(122.49 683.87)" fill="#12263f"/>
      <path id="Trazado_119868" data-name="Trazado 119868" d="M6.319-7.128a6.9,6.9,0,0,0-.914-.07,1.86,1.86,0,0,0-1.89.976V0H.976V-9.51h2.4l.07,1.134a2.354,2.354,0,0,1,2.118-1.31,2.662,2.662,0,0,1,.791.114Z" transform="translate(152.26 683.87)" fill="#12263f"/>
      <path id="Trazado_119850" data-name="Trazado 119850" d="M5.353.176A4.668,4.668,0,0,1,1.947-1.107,4.561,4.561,0,0,1,.633-4.526v-.246a5.745,5.745,0,0,1,.554-2.562,4.064,4.064,0,0,1,1.569-1.74,4.4,4.4,0,0,1,2.316-.611,3.947,3.947,0,0,1,3.072,1.23A5,5,0,0,1,9.264-4.966v1.037H3.208a2.36,2.36,0,0,0,.743,1.494,2.245,2.245,0,0,0,1.569.563A2.742,2.742,0,0,0,7.813-2.936l1.248,1.4A3.813,3.813,0,0,1,7.515-.277,5.075,5.075,0,0,1,5.353.176Zm-.29-7.813a1.587,1.587,0,0,0-1.226.512,2.651,2.651,0,0,0-.6,1.466H6.768v-.2a1.891,1.891,0,0,0-.457-1.311A1.638,1.638,0,0,0,5.063-7.638Zm9.6,5.766A1.666,1.666,0,0,0,15.8-2.259a1.355,1.355,0,0,0,.457-1.028h2.382a3.258,3.258,0,0,1-.527,1.771A3.48,3.48,0,0,1,16.695-.268,4.442,4.442,0,0,1,14.7.176a4.129,4.129,0,0,1-3.217-1.3A5.13,5.13,0,0,1,10.31-4.7v-.167a5.071,5.071,0,0,1,1.169-3.507,4.08,4.08,0,0,1,3.208-1.31A4,4,0,0,1,17.547-8.67a3.594,3.594,0,0,1,1.094,2.7H16.26A1.745,1.745,0,0,0,15.8-7.174a1.524,1.524,0,0,0-1.16-.464,1.53,1.53,0,0,0-1.34.647,3.749,3.749,0,0,0-.453,2.1v.264A3.8,3.8,0,0,0,13.3-2.515,1.549,1.549,0,0,0,14.66-1.872Z" transform="translate(158.66 683.87)" fill="#12263f"/>
      <path id="Trazado_119867" data-name="Trazado 119867" d="M4.017-11.848V-9.51H5.643v1.863H4.017V-2.9a1.133,1.133,0,0,0,.2.756,1.015,1.015,0,0,0,.773.229,4.051,4.051,0,0,0,.747-.062V-.053A5.229,5.229,0,0,1,4.2.176a2.425,2.425,0,0,1-2.725-2.7V-7.646H.088V-9.51H1.477v-2.338Z" transform="translate(177.78 683.87)" fill="#12263f"/>
      <path id="Trazado_119853" data-name="Trazado 119853" d="M.58-4.843a5.64,5.64,0,0,1,.545-2.522A3.989,3.989,0,0,1,2.694-9.079a4.577,4.577,0,0,1,2.377-.606A4.33,4.33,0,0,1,8.213-8.508a4.727,4.727,0,0,1,1.358,3.2l.018.65A4.97,4.97,0,0,1,8.367-1.147,4.247,4.247,0,0,1,5.089.176,4.268,4.268,0,0,1,1.806-1.143,5.058,5.058,0,0,1,.58-4.729Zm2.54.18a3.555,3.555,0,0,0,.51,2.073,1.682,1.682,0,0,0,1.459.717A1.686,1.686,0,0,0,6.53-2.581a3.89,3.89,0,0,0,.519-2.267,3.519,3.519,0,0,0-.519-2.06,1.686,1.686,0,0,0-1.459-.731,1.658,1.658,0,0,0-1.441.726A3.955,3.955,0,0,0,3.12-4.662Zm8.156,3.414a1.279,1.279,0,0,1,.409-.984,1.45,1.45,0,0,1,1.024-.378,1.462,1.462,0,0,1,1.033.378,1.279,1.279,0,0,1,.409.984,1.261,1.261,0,0,1-.4.971A1.468,1.468,0,0,1,12.709.1a1.456,1.456,0,0,1-1.028-.374A1.261,1.261,0,0,1,11.276-1.248Zm0-7.2a1.279,1.279,0,0,1,.409-.984,1.45,1.45,0,0,1,1.024-.378,1.462,1.462,0,0,1,1.033.378,1.279,1.279,0,0,1,.409.984,1.261,1.261,0,0,1-.4.971,1.468,1.468,0,0,1-1.037.374,1.456,1.456,0,0,1-1.028-.374A1.261,1.261,0,0,1,11.276-8.446Z" transform="translate(183.59 683.87)" fill="#12263f"/>
    </g>
    <g id="Grupo_58730" data-name="Grupo 58730" transform="translate(187.8 5336.391)">
      <g id="Grupo_58729" data-name="Grupo 58729">
        <circle id="Elipse_4711" data-name="Elipse 4711" cx="31.67" cy="31.67" r="31.67" transform="translate(126.164 597.919) rotate(-81)" fill="url(#linear-gradient-2)"/>
        <g id="Grupo_58728" data-name="Grupo 58728">
          <circle id="Elipse_4712" data-name="Elipse 4712" cx="28.54" cy="28.54" r="28.54" transform="translate(133.86 543.05)" fill="#472ea6"/>
          <circle id="Elipse_4713" data-name="Elipse 4713" cx="22.41" cy="22.41" r="22.41" transform="translate(139.99 549.18)" fill="url(#linear-gradient-3)"/>
          <circle id="Elipse_4714" data-name="Elipse 4714" cx="21.26" cy="21.26" r="21.26" transform="translate(141.14 550.33)" fill="url(#linear-gradient-4)"/>
          <circle id="Elipse_4715" data-name="Elipse 4715" cx="21.26" cy="21.26" r="21.26" transform="translate(141.14 550.33)" fill="url(#linear-gradient-4)"/>
        </g>
      </g>
      <path id="Trazado_119746" data-name="Trazado 119746" d="M168.24,580.37H156.89v-1.58l6-6.66a13.93,13.93,0,0,0,1.83-2.45,4.07,4.07,0,0,0,.51-2,3.14,3.14,0,0,0-.82-2.22,2.88,2.88,0,0,0-2.19-.87,3.41,3.41,0,0,0-2.55.93,3.57,3.57,0,0,0-.91,2.6h-2.2a5.08,5.08,0,0,1,1.54-3.86,5.73,5.73,0,0,1,4.12-1.48,5.52,5.52,0,0,1,3.82,1.27,4.33,4.33,0,0,1,1.4,3.37q0,2.55-3.26,6.09l-4.63,5h8.69Z" fill="#12263f"/>
    </g>
  </g>
</svg>
