<svg xmlns="http://www.w3.org/2000/svg" xmlns:xlink="http://www.w3.org/1999/xlink" width="224.51" height="289.64" viewBox="0 0 224.51 289.64">
  <defs>
    <linearGradient id="linear-gradient" x1="0.237" y1="-0.211" x2="0.766" y2="1.22" gradientUnits="objectBoundingBox">
      <stop offset="0" stop-color="#fff"/>
      <stop offset="1" stop-color="#d2d1d1"/>
    </linearGradient>
  </defs>
  <g id="card8" transform="translate(-699.8 -6159.261)">
    <path id="Trazado_119726" data-name="Trazado 119726" d="M612.21,1112.44h76a23.3,23.3,0,0,0,23.3-23.3V989.23l25-21.16-25-21.15V847a23.3,23.3,0,0,0-23.3-23.3h-76Z" transform="translate(187.8 5336.391)" fill="#ef2a93"/>
    <g id="Grupo_58695" data-name="Grupo 58695" transform="translate(187.8 5336.391)" opacity="0.8">
      <rect id="Rectángulo_7295" data-name="Rectángulo 7295" width="155.01" height="245.05" rx="46.05" transform="translate(553.4 863.42)" fill="#fff" opacity="0"/>
      <rect id="Rectángulo_7296" data-name="Rectángulo 7296" width="155.01" height="245.05" rx="46.05" transform="translate(553.22 863.25)" fill="#f8f8f8" opacity="0.01"/>
      <rect id="Rectángulo_7297" data-name="Rectángulo 7297" width="155.01" height="245.05" rx="46.05" transform="translate(553.03 863.07)" fill="#f6f6f6" opacity="0.02"/>
      <rect id="Rectángulo_7298" data-name="Rectángulo 7298" width="155.01" height="245.05" rx="46.05" transform="translate(552.84 862.89)" fill="#f4f4f4" opacity="0.03"/>
      <rect id="Rectángulo_7299" data-name="Rectángulo 7299" width="155.01" height="245.05" rx="46.05" transform="translate(552.66 862.71)" fill="#f2f2f2" opacity="0.04"/>
      <rect id="Rectángulo_7300" data-name="Rectángulo 7300" width="155.01" height="245.05" rx="46.05" transform="translate(552.47 862.54)" fill="#f0f0f0" opacity="0.05"/>
      <rect id="Rectángulo_7301" data-name="Rectángulo 7301" width="155.01" height="245.05" rx="46.05" transform="translate(552.29 862.36)" fill="#eee" opacity="0.06"/>
      <rect id="Rectángulo_7302" data-name="Rectángulo 7302" width="155.01" height="245.05" rx="46.05" transform="translate(552.1 862.18)" fill="#ececec" opacity="0.07"/>
      <rect id="Rectángulo_7303" data-name="Rectángulo 7303" width="155.01" height="245.05" rx="46.05" transform="translate(551.92 862.01)" fill="#eaeaea" opacity="0.08"/>
      <rect id="Rectángulo_7304" data-name="Rectángulo 7304" width="155.01" height="245.05" rx="46.05" transform="translate(551.73 861.83)" fill="#e8e8e8" opacity="0.09"/>
      <rect id="Rectángulo_7305" data-name="Rectángulo 7305" width="155.01" height="245.05" rx="46.05" transform="translate(551.55 861.65)" fill="#e6e6e6" opacity="0.1"/>
      <rect id="Rectángulo_7306" data-name="Rectángulo 7306" width="155.01" height="245.05" rx="46.05" transform="translate(551.36 861.48)" fill="#e4e4e4" opacity="0.11"/>
      <rect id="Rectángulo_7307" data-name="Rectángulo 7307" width="155.01" height="245.05" rx="46.05" transform="translate(551.18 861.3)" fill="#e2e2e2" opacity="0.12"/>
      <rect id="Rectángulo_7308" data-name="Rectángulo 7308" width="155.01" height="245.05" rx="46.05" transform="translate(550.99 861.12)" fill="#e0e0e0" opacity="0.13"/>
      <rect id="Rectángulo_7309" data-name="Rectángulo 7309" width="155.01" height="245.05" rx="46.05" transform="translate(550.81 860.94)" fill="#dedede" opacity="0.14"/>
      <rect id="Rectángulo_7310" data-name="Rectángulo 7310" width="155.01" height="245.05" rx="46.05" transform="translate(550.62 860.77)" fill="#dcdcdc" opacity="0.15"/>
      <rect id="Rectángulo_7311" data-name="Rectángulo 7311" width="155.01" height="245.05" rx="46.05" transform="translate(550.44 860.59)" fill="#dadada" opacity="0.16"/>
      <rect id="Rectángulo_7312" data-name="Rectángulo 7312" width="155.01" height="245.05" rx="46.05" transform="translate(550.25 860.41)" fill="#d8d8d8" opacity="0.17"/>
      <rect id="Rectángulo_7313" data-name="Rectángulo 7313" width="155.01" height="245.05" rx="46.05" transform="translate(550.07 860.24)" fill="#d6d6d6" opacity="0.18"/>
      <rect id="Rectángulo_7314" data-name="Rectángulo 7314" width="155.01" height="245.05" rx="46.05" transform="translate(549.88 860.06)" fill="#d4d4d4" opacity="0.19"/>
      <rect id="Rectángulo_7315" data-name="Rectángulo 7315" width="155.01" height="245.05" rx="46.05" transform="translate(549.7 859.88)" fill="#d2d2d2" opacity="0.2"/>
      <rect id="Rectángulo_7316" data-name="Rectángulo 7316" width="155.01" height="245.05" rx="46.05" transform="translate(549.51 859.71)" fill="#d0d0d0" opacity="0.21"/>
      <rect id="Rectángulo_7317" data-name="Rectángulo 7317" width="155.01" height="245.05" rx="46.05" transform="translate(549.33 859.53)" fill="#cecece" opacity="0.22"/>
      <rect id="Rectángulo_7318" data-name="Rectángulo 7318" width="155.01" height="245.05" rx="46.05" transform="translate(549.14 859.35)" fill="#ccc" opacity="0.23"/>
      <rect id="Rectángulo_7319" data-name="Rectángulo 7319" width="155.01" height="245.05" rx="46.05" transform="translate(548.96 859.17)" fill="#cacaca" opacity="0.24"/>
      <rect id="Rectángulo_7320" data-name="Rectángulo 7320" width="155.01" height="245.05" rx="46.05" transform="translate(548.77 859)" fill="#c8c8c8" opacity="0.25"/>
      <rect id="Rectángulo_7321" data-name="Rectángulo 7321" width="155.01" height="245.05" rx="46.05" transform="translate(548.59 858.82)" fill="#c5c5c5" opacity="0.26"/>
      <rect id="Rectángulo_7322" data-name="Rectángulo 7322" width="155.01" height="245.05" rx="46.05" transform="translate(548.4 858.64)" fill="#c3c3c3" opacity="0.27"/>
      <rect id="Rectángulo_7323" data-name="Rectángulo 7323" width="155.01" height="245.05" rx="46.05" transform="translate(548.22 858.47)" fill="#c1c1c1" opacity="0.28"/>
      <rect id="Rectángulo_7324" data-name="Rectángulo 7324" width="155.01" height="245.05" rx="46.05" transform="translate(548.03 858.29)" fill="#bfbfbf" opacity="0.29"/>
      <rect id="Rectángulo_7325" data-name="Rectángulo 7325" width="155.01" height="245.05" rx="46.05" transform="translate(547.85 858.11)" fill="#bdbdbd" opacity="0.3"/>
      <rect id="Rectángulo_7326" data-name="Rectángulo 7326" width="155.01" height="245.05" rx="46.05" transform="translate(547.66 857.94)" fill="#bbb" opacity="0.31"/>
      <rect id="Rectángulo_7327" data-name="Rectángulo 7327" width="155.01" height="245.05" rx="46.05" transform="translate(547.48 857.76)" fill="#b9b9b9" opacity="0.32"/>
      <rect id="Rectángulo_7328" data-name="Rectángulo 7328" width="155.01" height="245.05" rx="46.05" transform="translate(547.29 857.58)" fill="#b7b7b7" opacity="0.33"/>
      <rect id="Rectángulo_7329" data-name="Rectángulo 7329" width="155.01" height="245.05" rx="46.05" transform="translate(547.11 857.4)" fill="#b5b5b5" opacity="0.34"/>
      <rect id="Rectángulo_7330" data-name="Rectángulo 7330" width="155.01" height="245.05" rx="46.05" transform="translate(546.92 857.23)" fill="#b3b3b3" opacity="0.35"/>
      <rect id="Rectángulo_7331" data-name="Rectángulo 7331" width="155.01" height="245.05" rx="46.05" transform="translate(546.74 857.05)" fill="#b1b1b1" opacity="0.36"/>
      <rect id="Rectángulo_7332" data-name="Rectángulo 7332" width="155.01" height="245.05" rx="46.05" transform="translate(546.55 856.87)" fill="#afafaf" opacity="0.37"/>
      <rect id="Rectángulo_7333" data-name="Rectángulo 7333" width="155.01" height="245.05" rx="46.05" transform="translate(546.37 856.7)" fill="#adadad" opacity="0.38"/>
      <rect id="Rectángulo_7334" data-name="Rectángulo 7334" width="155.01" height="245.05" rx="46.05" transform="translate(546.18 856.52)" fill="#ababab" opacity="0.39"/>
      <rect id="Rectángulo_7335" data-name="Rectángulo 7335" width="155.01" height="245.05" rx="46.05" transform="translate(546 856.34)" fill="#a9a9a9" opacity="0.4"/>
      <rect id="Rectángulo_7336" data-name="Rectángulo 7336" width="155.01" height="245.05" rx="46.05" transform="translate(545.81 856.17)" fill="#a7a7a7" opacity="0.41"/>
      <rect id="Rectángulo_7337" data-name="Rectángulo 7337" width="155.01" height="245.05" rx="46.05" transform="translate(545.63 855.99)" fill="#a5a5a5" opacity="0.42"/>
      <rect id="Rectángulo_7338" data-name="Rectángulo 7338" width="155.01" height="245.05" rx="46.05" transform="translate(545.44 855.81)" fill="#a3a3a3" opacity="0.43"/>
      <rect id="Rectángulo_7339" data-name="Rectángulo 7339" width="155.01" height="245.05" rx="46.05" transform="translate(545.26 855.64)" fill="#a1a1a1" opacity="0.44"/>
      <rect id="Rectángulo_7340" data-name="Rectángulo 7340" width="155.01" height="245.05" rx="46.05" transform="translate(545.07 855.46)" fill="#9f9f9f" opacity="0.45"/>
      <rect id="Rectángulo_7341" data-name="Rectángulo 7341" width="155.01" height="245.05" rx="46.05" transform="translate(544.89 855.28)" fill="#9d9d9d" opacity="0.46"/>
      <rect id="Rectángulo_7342" data-name="Rectángulo 7342" width="155.01" height="245.05" rx="46.05" transform="translate(544.7 855.1)" fill="#9b9b9b" opacity="0.47"/>
      <rect id="Rectángulo_7343" data-name="Rectángulo 7343" width="155.01" height="245.05" rx="46.05" transform="translate(544.52 854.93)" fill="#999" opacity="0.48"/>
      <rect id="Rectángulo_7344" data-name="Rectángulo 7344" width="155.01" height="245.05" rx="46.05" transform="translate(544.33 854.75)" fill="#979797" opacity="0.49"/>
      <rect id="Rectángulo_7345" data-name="Rectángulo 7345" width="155.01" height="245.05" rx="46.05" transform="translate(544.15 854.57)" fill="#959595" opacity="0.5"/>
      <rect id="Rectángulo_7346" data-name="Rectángulo 7346" width="155.01" height="245.05" rx="46.05" transform="translate(543.96 854.4)" fill="#939393" opacity="0.5"/>
      <rect id="Rectángulo_7347" data-name="Rectángulo 7347" width="155.01" height="245.05" rx="46.05" transform="translate(543.78 854.22)" fill="#919191" opacity="0.51"/>
      <rect id="Rectángulo_7348" data-name="Rectángulo 7348" width="155.01" height="245.05" rx="46.05" transform="translate(543.59 854.04)" fill="#8f8f8f" opacity="0.52"/>
      <rect id="Rectángulo_7349" data-name="Rectángulo 7349" width="155.01" height="245.05" rx="46.05" transform="translate(543.41 853.87)" fill="#8d8d8d" opacity="0.53"/>
      <rect id="Rectángulo_7350" data-name="Rectángulo 7350" width="155.01" height="245.05" rx="46.05" transform="translate(543.22 853.69)" fill="#8b8b8b" opacity="0.54"/>
      <rect id="Rectángulo_7351" data-name="Rectángulo 7351" width="155.01" height="245.05" rx="46.05" transform="translate(543.04 853.51)" fill="#898989" opacity="0.55"/>
      <rect id="Rectángulo_7352" data-name="Rectángulo 7352" width="155.01" height="245.05" rx="46.05" transform="translate(542.85 853.33)" fill="#878787" opacity="0.56"/>
      <rect id="Rectángulo_7353" data-name="Rectángulo 7353" width="155.01" height="245.05" rx="46.05" transform="translate(542.67 853.16)" fill="#858585" opacity="0.57"/>
      <rect id="Rectángulo_7354" data-name="Rectángulo 7354" width="155.01" height="245.05" rx="46.05" transform="translate(542.48 852.98)" fill="#838383" opacity="0.58"/>
      <rect id="Rectángulo_7355" data-name="Rectángulo 7355" width="155.01" height="245.05" rx="46.05" transform="translate(542.3 852.8)" fill="#818181" opacity="0.59"/>
      <rect id="Rectángulo_7356" data-name="Rectángulo 7356" width="155.01" height="245.05" rx="46.05" transform="translate(542.11 852.63)" fill="gray" opacity="0.6"/>
      <rect id="Rectángulo_7357" data-name="Rectángulo 7357" width="155.01" height="245.05" rx="46.05" transform="translate(541.92 852.45)" fill="gray" opacity="0.61"/>
      <rect id="Rectángulo_7358" data-name="Rectángulo 7358" width="155.01" height="245.05" rx="46.05" transform="translate(541.74 852.27)" fill="gray" opacity="0.62"/>
      <rect id="Rectángulo_7359" data-name="Rectángulo 7359" width="155.01" height="245.05" rx="46.05" transform="translate(541.55 852.1)" fill="#7e7e7e" opacity="0.63"/>
      <rect id="Rectángulo_7360" data-name="Rectángulo 7360" width="155.01" height="245.05" rx="46.05" transform="translate(541.37 851.92)" fill="#7c7c7c" opacity="0.64"/>
      <rect id="Rectángulo_7361" data-name="Rectángulo 7361" width="155.01" height="245.05" rx="46.05" transform="translate(541.18 851.74)" fill="#7a7a7a" opacity="0.65"/>
      <rect id="Rectángulo_7362" data-name="Rectángulo 7362" width="155.01" height="245.05" rx="46.05" transform="translate(541 851.56)" fill="#787878" opacity="0.66"/>
      <rect id="Rectángulo_7363" data-name="Rectángulo 7363" width="155.01" height="245.05" rx="46.05" transform="translate(540.81 851.39)" fill="#767676" opacity="0.67"/>
      <rect id="Rectángulo_7364" data-name="Rectángulo 7364" width="155.01" height="245.05" rx="46.05" transform="translate(540.63 851.21)" fill="#747474" opacity="0.68"/>
      <rect id="Rectángulo_7365" data-name="Rectángulo 7365" width="155.01" height="245.05" rx="46.05" transform="translate(540.44 851.03)" fill="#727272" opacity="0.69"/>
      <rect id="Rectángulo_7366" data-name="Rectángulo 7366" width="155.01" height="245.05" rx="46.05" transform="translate(540.26 850.86)" fill="#707070" opacity="0.7"/>
      <rect id="Rectángulo_7367" data-name="Rectángulo 7367" width="155.01" height="245.05" rx="46.05" transform="translate(540.07 850.68)" fill="#6e6e6e" opacity="0.71"/>
      <rect id="Rectángulo_7368" data-name="Rectángulo 7368" width="155.01" height="245.05" rx="46.05" transform="translate(539.89 850.5)" fill="#6c6c6c" opacity="0.72"/>
      <rect id="Rectángulo_7369" data-name="Rectángulo 7369" width="155.01" height="245.05" rx="46.05" transform="translate(539.7 850.33)" fill="#6a6a6a" opacity="0.73"/>
      <rect id="Rectángulo_7370" data-name="Rectángulo 7370" width="155.01" height="245.05" rx="46.05" transform="translate(539.52 850.15)" fill="#686868" opacity="0.74"/>
      <rect id="Rectángulo_7371" data-name="Rectángulo 7371" width="155.01" height="245.05" rx="46.05" transform="translate(539.33 849.97)" fill="#656565" opacity="0.75"/>
      <rect id="Rectángulo_7372" data-name="Rectángulo 7372" width="155.01" height="245.05" rx="46.05" transform="translate(539.15 849.8)" fill="#636363" opacity="0.76"/>
      <rect id="Rectángulo_7373" data-name="Rectángulo 7373" width="155.01" height="245.05" rx="46.05" transform="translate(538.96 849.62)" fill="#616161" opacity="0.77"/>
      <rect id="Rectángulo_7374" data-name="Rectángulo 7374" width="155.01" height="245.05" rx="46.05" transform="translate(538.78 849.44)" fill="#5f5f5f" opacity="0.78"/>
      <rect id="Rectángulo_7375" data-name="Rectángulo 7375" width="155.01" height="245.05" rx="46.05" transform="translate(538.59 849.26)" fill="#5d5d5d" opacity="0.79"/>
      <rect id="Rectángulo_7376" data-name="Rectángulo 7376" width="155.01" height="245.05" rx="46.05" transform="translate(538.41 849.09)" fill="#5b5b5b" opacity="0.8"/>
      <rect id="Rectángulo_7377" data-name="Rectángulo 7377" width="155.01" height="245.05" rx="46.05" transform="translate(538.22 848.91)" fill="#595959" opacity="0.81"/>
      <rect id="Rectángulo_7378" data-name="Rectángulo 7378" width="155.01" height="245.05" rx="46.05" transform="translate(538.04 848.73)" fill="#575757" opacity="0.82"/>
      <rect id="Rectángulo_7379" data-name="Rectángulo 7379" width="155.01" height="245.05" rx="46.05" transform="translate(537.85 848.56)" fill="#555" opacity="0.83"/>
      <rect id="Rectángulo_7380" data-name="Rectángulo 7380" width="155.01" height="245.05" rx="46.05" transform="translate(537.67 848.38)" fill="#535353" opacity="0.84"/>
      <rect id="Rectángulo_7381" data-name="Rectángulo 7381" width="155.01" height="245.05" rx="46.05" transform="translate(537.48 848.2)" fill="#515151" opacity="0.85"/>
      <rect id="Rectángulo_7382" data-name="Rectángulo 7382" width="155.01" height="245.05" rx="46.05" transform="translate(537.3 848.03)" fill="#4f4f4f" opacity="0.86"/>
      <rect id="Rectángulo_7383" data-name="Rectángulo 7383" width="155.01" height="245.05" rx="46.05" transform="translate(537.11 847.85)" fill="#4d4d4d" opacity="0.87"/>
      <rect id="Rectángulo_7384" data-name="Rectángulo 7384" width="155.01" height="245.05" rx="46.05" transform="translate(536.93 847.67)" fill="#4b4b4b" opacity="0.88"/>
      <rect id="Rectángulo_7385" data-name="Rectángulo 7385" width="155.01" height="245.05" rx="46.05" transform="translate(536.74 847.49)" fill="#494949" opacity="0.89"/>
      <rect id="Rectángulo_7386" data-name="Rectángulo 7386" width="155.01" height="245.05" rx="46.05" transform="translate(536.56 847.32)" fill="#474747" opacity="0.9"/>
      <rect id="Rectángulo_7387" data-name="Rectángulo 7387" width="155.01" height="245.05" rx="46.05" transform="translate(536.37 847.14)" fill="#454545" opacity="0.91"/>
      <rect id="Rectángulo_7388" data-name="Rectángulo 7388" width="155.01" height="245.05" rx="46.05" transform="translate(536.19 846.96)" fill="#434343" opacity="0.92"/>
      <rect id="Rectángulo_7389" data-name="Rectángulo 7389" width="155.01" height="245.05" rx="46.05" transform="translate(536 846.79)" fill="#414141" opacity="0.93"/>
      <rect id="Rectángulo_7390" data-name="Rectángulo 7390" width="155.01" height="245.05" rx="46.05" transform="translate(535.82 846.61)" fill="#3f3f3f" opacity="0.94"/>
      <rect id="Rectángulo_7391" data-name="Rectángulo 7391" width="155.01" height="245.05" rx="46.05" transform="translate(535.63 846.43)" fill="#3d3d3d" opacity="0.95"/>
      <rect id="Rectángulo_7392" data-name="Rectángulo 7392" width="155.01" height="245.05" rx="46.05" transform="translate(535.45 846.26)" fill="#3b3b3b" opacity="0.96"/>
      <rect id="Rectángulo_7393" data-name="Rectángulo 7393" width="155.01" height="245.05" rx="46.05" transform="translate(535.26 846.08)" fill="#393939" opacity="0.97"/>
      <rect id="Rectángulo_7394" data-name="Rectángulo 7394" width="155.01" height="245.05" rx="46.05" transform="translate(535.08 845.9)" fill="#373737" opacity="0.98"/>
      <rect id="Rectángulo_7395" data-name="Rectángulo 7395" width="155.01" height="245.05" rx="46.05" transform="translate(534.89 845.72)" fill="#353535" opacity="0.99"/>
      <rect id="Rectángulo_7396" data-name="Rectángulo 7396" width="155.01" height="245.05" rx="46.05" transform="translate(534.71 845.55)" fill="#333"/>
    </g>
    <g id="Grupo_58696" data-name="Grupo 58696" transform="translate(187.8 5336.391)">
      <rect id="Rectángulo_7397" data-name="Rectángulo 7397" width="249.9" height="159.86" rx="51.4" transform="translate(692.14 843.12) rotate(90)" fill="url(#linear-gradient)"/>
      <rect id="Rectángulo_7398" data-name="Rectángulo 7398" width="245.05" height="155.01" rx="46.05" transform="translate(689.71 845.54) rotate(90)" fill="#ededed"/>
    </g>
    <g id="Grupo_58697" data-name="Grupo 58697" transform="translate(187.8 5336.391)">
      <rect id="Rectángulo_7399" data-name="Rectángulo 7399" width="1.71" height="1.71" transform="translate(610.5 1110.8)" fill="#4d4d4d"/>
      <path id="Trazado_119727" data-name="Trazado 119727" d="M605.32,1112.51h-3.46v-1.71h3.46Zm-8.64,0h-3.46v-1.71h3.46Zm-8.64,0h-3.45v-1.71H588Zm-8.63,0H576v-1.71h3.46Zm-8.64,0h-3.46v-1.71h3.46Zm-8.64,0h-3.45v-1.71h3.45Zm-8.64,0H550v-1.71h3.45Zm-8.63,0H541.4v-1.71h3.46Zm-8.64,0h-.05a24.071,24.071,0,0,1-3.51-.25l.24-1.7a22.193,22.193,0,0,0,3.27.24Zm-8.75-1.61a25.884,25.884,0,0,1-3.24-1.53l.85-1.49a22.981,22.981,0,0,0,3,1.42Zm-7.57-4.69a24.085,24.085,0,0,1-2.46-2.59l1.33-1.08a22.512,22.512,0,0,0,2.28,2.41Zm-5.37-7.09a25.125,25.125,0,0,1-1.35-3.32l1.63-.52a21.517,21.517,0,0,0,1.26,3.07Zm-2.42-8.57c-.07-.72-.1-1.45-.1-2.19V1087h1.71v1.34q0,1,.09,2Zm1.61-8.71H512v-3.45h1.71Zm0-8.64H512v-3.45h1.71Zm0-8.63H512v-3.46h1.71Zm0-8.64H512v-3.45h1.71Zm0-8.64H512v-3.45h1.71Zm0-8.63H512v-3.46h1.71Zm0-8.64H512v-3.45h1.71Zm0-8.64H512v-3.45h1.71Zm0-8.63H512v-3.46h1.71Zm0-8.64H512v-3.45h1.71Zm0-8.64H512V992h1.71Zm0-8.63H512v-3.46h1.71Zm0-34.55H512v-3.46h1.71Zm0-8.64H512V940.2h1.71Zm0-8.64H512v-3.45h1.71Zm0-8.63H512v-3.46h1.71Zm0-8.64H512v-3.45h1.71Zm0-8.63H512v-3.46h1.71Zm0-8.64H512V897h1.71Zm0-8.64H512v-3.45h1.71Zm0-8.64H512v-3.45h1.71Zm0-8.63H512V871.1h1.71Zm0-8.64H512v-3.45h1.71Zm0-8.64H512v-3.45h1.71Zm0-8.63H512v-.84a24.589,24.589,0,0,1,.15-2.707l1.7.187a23.487,23.487,0,0,0-.14,2.52Zm1.22-8.23-1.63-.55a24.894,24.894,0,0,1,1.38-3.29l1.53.76a23,23,0,0,0-1.28,3.08Zm4-7.29-1.34-1.06a24.081,24.081,0,0,1,2.41-2.63l1.18,1.24a23.747,23.747,0,0,0-2.28,2.45Zm6.22-5.47-.88-1.47a25.753,25.753,0,0,1,3.19-1.61l.65,1.59a22.777,22.777,0,0,0-2.99,1.49Zm80.13-2.37h-3.45v-1.71h3.45Zm-8.63-.09H593.2v-1.72h3.46Zm-8.64-.09h-3.45v-1.72h3.46Zm-8.64-.09h-3.45v-1.71h3.45Zm-8.63-.09h-3.46v-1.71h3.46Zm-8.64-.09h-3.45v-1.71h3.45Zm-29.2,0-.27-1.69a23.522,23.522,0,0,1,3.56-.28v1.71a21.3,21.3,0,0,0-3.32.24Zm20.57-.07h-3.46v-1.71h3.45Zm-8.64-.1h-3.46v-1.71h3.46Z" fill="#4d4d4d"/>
      <rect id="Rectángulo_7400" data-name="Rectángulo 7400" width="1.71" height="1.71" transform="translate(610.085 824.696) rotate(-89.427)" fill="#4d4d4d"/>
    </g>
    <path id="Trazado_119879" data-name="Trazado 119879" d="M4.588-12.8,7.875-3.516l3.27-9.281h3.463V0H11.962V-3.5l.264-6.038L8.771,0H6.961L3.516-9.527,3.779-3.5V0H1.143V-12.8ZM19.424,0H16.875V-9.51h2.549Zm-2.7-11.971a1.251,1.251,0,0,1,.382-.94,1.436,1.436,0,0,1,1.042-.369,1.44,1.44,0,0,1,1.037.369,1.244,1.244,0,0,1,.387.94,1.247,1.247,0,0,1-.391.949,1.443,1.443,0,0,1-1.033.369,1.443,1.443,0,0,1-1.033-.369A1.247,1.247,0,0,1,16.726-11.971ZM23.854-9.51l.079,1.1a3.32,3.32,0,0,1,2.733-1.274,2.759,2.759,0,0,1,2.25.888,4.142,4.142,0,0,1,.756,2.654V0h-2.54V-6.082a1.648,1.648,0,0,0-.352-1.173,1.574,1.574,0,0,0-1.169-.365A1.747,1.747,0,0,0,24-6.706V0h-2.54V-9.51ZM31.2-4.843a5.64,5.64,0,0,1,.545-2.522,3.989,3.989,0,0,1,1.569-1.714,4.577,4.577,0,0,1,2.377-.606,4.33,4.33,0,0,1,3.142,1.178,4.727,4.727,0,0,1,1.358,3.2l.018.65a4.97,4.97,0,0,1-1.222,3.511A4.247,4.247,0,0,1,35.71.176a4.268,4.268,0,0,1-3.283-1.318A5.058,5.058,0,0,1,31.2-4.729Zm2.54.18a3.555,3.555,0,0,0,.51,2.073,1.682,1.682,0,0,0,1.459.717,1.686,1.686,0,0,0,1.441-.709,3.89,3.89,0,0,0,.519-2.267,3.519,3.519,0,0,0-.519-2.06,1.686,1.686,0,0,0-1.459-.731,1.658,1.658,0,0,0-1.441.726A3.955,3.955,0,0,0,33.741-4.662ZM47.118-7.128A6.9,6.9,0,0,0,46.2-7.2a1.86,1.86,0,0,0-1.89.976V0h-2.54V-9.51h2.4l.07,1.134a2.354,2.354,0,0,1,2.118-1.31,2.662,2.662,0,0,1,.791.114ZM51.021,0H48.472V-9.51h2.549Zm-2.7-11.971a1.251,1.251,0,0,1,.382-.94,1.436,1.436,0,0,1,1.042-.369,1.44,1.44,0,0,1,1.037.369,1.244,1.244,0,0,1,.387.94,1.247,1.247,0,0,1-.391.949,1.443,1.443,0,0,1-1.033.369,1.443,1.443,0,0,1-1.033-.369A1.247,1.247,0,0,1,48.322-11.971Zm9.94,9.343a.818.818,0,0,0-.461-.734,5.241,5.241,0,0,0-1.481-.479q-3.393-.712-3.393-2.883a2.613,2.613,0,0,1,1.05-2.114,4.237,4.237,0,0,1,2.747-.848,4.56,4.56,0,0,1,2.9.853,2.687,2.687,0,0,1,1.085,2.215h-2.54a1.229,1.229,0,0,0-.352-.9,1.488,1.488,0,0,0-1.1-.356,1.52,1.52,0,0,0-.993.29.916.916,0,0,0-.352.738.783.783,0,0,0,.4.681,4.114,4.114,0,0,0,1.349.448,11.019,11.019,0,0,1,1.6.426,2.628,2.628,0,0,1,2.013,2.558,2.481,2.481,0,0,1-1.116,2.1,4.815,4.815,0,0,1-2.883.8A5.029,5.029,0,0,1,54.611-.25a3.561,3.561,0,0,1-1.455-1.169,2.716,2.716,0,0,1-.527-1.6h2.408a1.326,1.326,0,0,0,.5,1.037,1.987,1.987,0,0,0,1.248.36,1.839,1.839,0,0,0,1.1-.277A.861.861,0,0,0,58.263-2.628Zm7.146-9.22V-9.51h1.626v1.863H65.408V-2.9a1.133,1.133,0,0,0,.2.756,1.015,1.015,0,0,0,.773.229,4.051,4.051,0,0,0,.747-.062V-.053a5.229,5.229,0,0,1-1.538.229,2.425,2.425,0,0,1-2.725-2.7V-7.646H61.479V-9.51h1.389v-2.338ZM73.96,0a2.821,2.821,0,0,1-.255-.853,3.073,3.073,0,0,1-2.4,1.028A3.376,3.376,0,0,1,68.99-.633a2.6,2.6,0,0,1-.918-2.039,2.687,2.687,0,0,1,1.121-2.32,5.529,5.529,0,0,1,3.239-.817H73.6v-.545a1.567,1.567,0,0,0-.338-1.055,1.331,1.331,0,0,0-1.068-.4,1.513,1.513,0,0,0-1.006.308,1.045,1.045,0,0,0-.365.844h-2.54a2.551,2.551,0,0,1,.51-1.529,3.37,3.37,0,0,1,1.441-1.1,5.253,5.253,0,0,1,2.092-.4,4.15,4.15,0,0,1,2.791.883,3.09,3.09,0,0,1,1.033,2.483V-2.2a4.546,4.546,0,0,0,.378,2.048V0Zm-2.1-1.767a2.188,2.188,0,0,0,1.037-.25,1.645,1.645,0,0,0,.7-.672V-4.324H72.65q-1.907,0-2.03,1.318l-.009.149a1.017,1.017,0,0,0,.334.782A1.3,1.3,0,0,0,71.859-1.767Z" transform="translate(761.45 6308.771)" fill="#12263f"/>
    <g id="Grupo_58736" data-name="Grupo 58736" transform="translate(187.8 5336.391)">
      <path id="Trazado_119808" data-name="Trazado 119808" d="M603.05,924.3a11.056,11.056,0,0,1-1.5-.3,4.49,4.49,0,0,1-2.9-4.92,15,15,0,0,1,1.42-5.13c.56-1.24,1.23-2.44,1.88-3.64a.8.8,0,0,1,.56-.4h15.47l.11.05a5.37,5.37,0,0,0,.23,4.16,18.156,18.156,0,0,0,1.16,1.74l.19-.08c.05-.75.11-1.49.16-2.24.22-3.67.43-7.34.65-11a1.12,1.12,0,0,0-1.17-1.38l-4.79-.53a3.09,3.09,0,0,1-2.79-3.74c1-4.73,1.94-9.45,2.94-14.16a3.8,3.8,0,0,1,4.26-3.1,3.87,3.87,0,0,1,3.28,3.88,1.38,1.38,0,0,0,.35.84,15.871,15.871,0,0,0,6.75,4,9.549,9.549,0,0,0,3.63.6c1.66-.06,3.31,0,5,0,2.3,0,3.51,1.21,3.52,3.48v1.7a3.08,3.08,0,0,1-3.12,3.1h-2c.49,3.66,1.27,7,4.39,9.39a6,6,0,0,1,2.46,6.18,1.632,1.632,0,0,1-.06.53c.63.07,1.26.09,1.87.19a8.47,8.47,0,0,1,7,7.48c.07.71-.09,1-.87,1.39a6.7,6.7,0,1,1-13.07,2.96h-.11c-1,1.14-1.78,1-2.34-.47-.12-.32-.22-.66-.29-.89a19.59,19.59,0,0,1-2,.19H617.14c-.54,0-.72.12-.81.69a6.67,6.67,0,0,1-13.16-.11A1.953,1.953,0,0,1,603.05,924.3Zm26.88-7.39V894.07a18.119,18.119,0,0,1-9.22-3.78c-.26,1.13-.5,2.15-.72,3.16-.17.8,0,1.16.81,1.46,1.5.56,3,1.13,4.51,1.68a3.15,3.15,0,0,1,2.37,3.7c-.39,3.89-.82,7.78-1.23,11.67-.18,1.63-.35,3.27-.52,4.95Zm14.66,11.77a4.6,4.6,0,0,0,4.25-6.41,1.08,1.08,0,0,0-1-.75,11.88,11.88,0,0,0-7.22,1.46,1.2,1.2,0,0,0-.68,1.16,4.62,4.62,0,0,0,4.65,4.54Zm-39.36-4.43a4.48,4.48,0,0,0,4.92,4.06c2.18-.16,4.26-2.24,4-4.06Z" fill="#f472b8"/>
      <path id="Trazado_119809" data-name="Trazado 119809" d="M598.71,882.75h7.11a3.14,3.14,0,0,1,3.34,3.35v11a3.14,3.14,0,0,1-3.39,3.36H591.68a3.14,3.14,0,0,1-3.4-3.41q0-5.49,0-11a3.14,3.14,0,0,1,3.38-3.37Z" fill="#f472b8"/>
      <path id="Trazado_119810" data-name="Trazado 119810" d="M618.51,907.8H602.13a1.15,1.15,0,0,1-1-.5,6.25,6.25,0,0,1-1.33-3.68,1,1,0,0,1,1.14-1.19h16.43c.73,0,1.15.35,1.16,1C618.54,904.89,618.51,906.3,618.51,907.8Z" fill="#f472b8"/>
      <path id="Trazado_119811" data-name="Trazado 119811" d="M626.91,873.35a5.22,5.22,0,1,1-5.24-5.21A5.22,5.22,0,0,1,626.91,873.35Z" fill="#f472b8"/>
    </g>
  </g>
</svg>
