<svg xmlns="http://www.w3.org/2000/svg" xmlns:xlink="http://www.w3.org/1999/xlink" width="224.45" height="289.61" viewBox="0 0 224.45 289.61">
  <defs>
    <linearGradient id="linear-gradient" x1="0.237" y1="-0.212" x2="0.766" y2="1.22" gradientUnits="objectBoundingBox">
      <stop offset="0" stop-color="#fff"/>
      <stop offset="1" stop-color="#d2d1d1"/>
    </linearGradient>
    <linearGradient id="linear-gradient-2" x1="0.136" y1="0.141" x2="0.889" y2="0.884" gradientUnits="objectBoundingBox">
      <stop offset="0" stop-color="#fff"/>
      <stop offset="0.4" stop-color="#fbfbfb"/>
      <stop offset="0.76" stop-color="#f1f1f1"/>
      <stop offset="1" stop-color="#e5e5e5"/>
    </linearGradient>
    <linearGradient id="linear-gradient-3" x1="0.115" y1="0.124" x2="0.894" y2="0.885" gradientUnits="objectBoundingBox">
      <stop offset="0" stop-color="#fff"/>
      <stop offset="0.34" stop-color="#fbfbfb"/>
      <stop offset="0.64" stop-color="#f1f1f1"/>
      <stop offset="0.92" stop-color="#dedede"/>
      <stop offset="1" stop-color="#d8d8d8"/>
    </linearGradient>
    <linearGradient id="linear-gradient-4" x1="0.119" y1="0.151" x2="0.873" y2="0.842" gradientUnits="objectBoundingBox">
      <stop offset="0" stop-color="#d8d8d8"/>
      <stop offset="0.08" stop-color="#dedede"/>
      <stop offset="0.36" stop-color="#f1f1f1"/>
      <stop offset="0.66" stop-color="#fbfbfb"/>
      <stop offset="1" stop-color="#fff"/>
    </linearGradient>
  </defs>
  <g id="card1" transform="translate(-250 -5513.7)">
    <path id="Trazado_119715" data-name="Trazado 119715" d="M162.4,466.84h76a23.3,23.3,0,0,0,23.3-23.29V343.63l24.95-21.15L261.7,301.32V201.41a23.3,23.3,0,0,0-23.3-23.3h-76Z" transform="translate(187.8 5336.391)" fill="#472ea6"/>
    <g id="Grupo_58677" data-name="Grupo 58677" transform="translate(187.8 5336.391)" opacity="0.8">
      <rect id="Rectángulo_6765" data-name="Rectángulo 6765" width="155.01" height="245.05" rx="46.05" transform="translate(103.59 217.83)" fill="#fff" opacity="0"/>
      <rect id="Rectángulo_6766" data-name="Rectángulo 6766" width="155.01" height="245.05" rx="46.05" transform="translate(103.4 217.65)" fill="#f8f8f8" opacity="0.01"/>
      <rect id="Rectángulo_6767" data-name="Rectángulo 6767" width="155.01" height="245.05" rx="46.05" transform="translate(103.22 217.47)" fill="#f6f6f6" opacity="0.02"/>
      <rect id="Rectángulo_6768" data-name="Rectángulo 6768" width="155.01" height="245.05" rx="46.05" transform="translate(103.03 217.3)" fill="#f4f4f4" opacity="0.03"/>
      <rect id="Rectángulo_6769" data-name="Rectángulo 6769" width="155.01" height="245.05" rx="46.05" transform="translate(102.85 217.12)" fill="#f2f2f2" opacity="0.04"/>
      <rect id="Rectángulo_6770" data-name="Rectángulo 6770" width="155.01" height="245.05" rx="46.05" transform="translate(102.66 216.94)" fill="#f0f0f0" opacity="0.05"/>
      <rect id="Rectángulo_6771" data-name="Rectángulo 6771" width="155.01" height="245.05" rx="46.05" transform="translate(102.48 216.77)" fill="#eee" opacity="0.06"/>
      <rect id="Rectángulo_6772" data-name="Rectángulo 6772" width="155.01" height="245.05" rx="46.05" transform="translate(102.29 216.59)" fill="#ececec" opacity="0.07"/>
      <rect id="Rectángulo_6773" data-name="Rectángulo 6773" width="155.01" height="245.05" rx="46.05" transform="translate(102.11 216.41)" fill="#eaeaea" opacity="0.08"/>
      <rect id="Rectángulo_6774" data-name="Rectángulo 6774" width="155.01" height="245.05" rx="46.05" transform="translate(101.92 216.23)" fill="#e8e8e8" opacity="0.09"/>
      <rect id="Rectángulo_6775" data-name="Rectángulo 6775" width="155.01" height="245.05" rx="46.05" transform="translate(101.74 216.06)" fill="#e6e6e6" opacity="0.1"/>
      <rect id="Rectángulo_6776" data-name="Rectángulo 6776" width="155.01" height="245.05" rx="46.05" transform="translate(101.55 215.88)" fill="#e4e4e4" opacity="0.11"/>
      <rect id="Rectángulo_6777" data-name="Rectángulo 6777" width="155.01" height="245.05" rx="46.05" transform="translate(101.37 215.7)" fill="#e2e2e2" opacity="0.12"/>
      <rect id="Rectángulo_6778" data-name="Rectángulo 6778" width="155.01" height="245.05" rx="46.05" transform="translate(101.18 215.53)" fill="#e0e0e0" opacity="0.13"/>
      <rect id="Rectángulo_6779" data-name="Rectángulo 6779" width="155.01" height="245.05" rx="46.05" transform="translate(101 215.35)" fill="#dedede" opacity="0.14"/>
      <rect id="Rectángulo_6780" data-name="Rectángulo 6780" width="155.01" height="245.05" rx="46.05" transform="translate(100.81 215.17)" fill="#dcdcdc" opacity="0.15"/>
      <rect id="Rectángulo_6781" data-name="Rectángulo 6781" width="155.01" height="245.05" rx="46.05" transform="translate(100.63 215)" fill="#dadada" opacity="0.16"/>
      <rect id="Rectángulo_6782" data-name="Rectángulo 6782" width="155.01" height="245.05" rx="46.05" transform="translate(100.44 214.82)" fill="#d8d8d8" opacity="0.17"/>
      <rect id="Rectángulo_6783" data-name="Rectángulo 6783" width="155.01" height="245.05" rx="46.05" transform="translate(100.26 214.64)" fill="#d6d6d6" opacity="0.18"/>
      <rect id="Rectángulo_6784" data-name="Rectángulo 6784" width="155.01" height="245.05" rx="46.05" transform="translate(100.07 214.46)" fill="#d4d4d4" opacity="0.19"/>
      <rect id="Rectángulo_6785" data-name="Rectángulo 6785" width="155.01" height="245.05" rx="46.05" transform="translate(99.89 214.29)" fill="#d2d2d2" opacity="0.2"/>
      <rect id="Rectángulo_6786" data-name="Rectángulo 6786" width="155.01" height="245.05" rx="46.05" transform="translate(99.7 214.11)" fill="#d0d0d0" opacity="0.21"/>
      <rect id="Rectángulo_6787" data-name="Rectángulo 6787" width="155.01" height="245.05" rx="46.05" transform="translate(99.52 213.93)" fill="#cecece" opacity="0.22"/>
      <rect id="Rectángulo_6788" data-name="Rectángulo 6788" width="155.01" height="245.05" rx="46.05" transform="translate(99.33 213.76)" fill="#ccc" opacity="0.23"/>
      <rect id="Rectángulo_6789" data-name="Rectángulo 6789" width="155.01" height="245.05" rx="46.05" transform="translate(99.15 213.58)" fill="#cacaca" opacity="0.24"/>
      <rect id="Rectángulo_6790" data-name="Rectángulo 6790" width="155.01" height="245.05" rx="46.05" transform="translate(98.96 213.4)" fill="#c8c8c8" opacity="0.25"/>
      <rect id="Rectángulo_6791" data-name="Rectángulo 6791" width="155.01" height="245.05" rx="46.05" transform="translate(98.78 213.23)" fill="#c5c5c5" opacity="0.26"/>
      <rect id="Rectángulo_6792" data-name="Rectángulo 6792" width="155.01" height="245.05" rx="46.05" transform="translate(98.59 213.05)" fill="#c3c3c3" opacity="0.27"/>
      <rect id="Rectángulo_6793" data-name="Rectángulo 6793" width="155.01" height="245.05" rx="46.05" transform="translate(98.41 212.87)" fill="#c1c1c1" opacity="0.28"/>
      <rect id="Rectángulo_6794" data-name="Rectángulo 6794" width="155.01" height="245.05" rx="46.05" transform="translate(98.22 212.7)" fill="#bfbfbf" opacity="0.29"/>
      <rect id="Rectángulo_6795" data-name="Rectángulo 6795" width="155.01" height="245.05" rx="46.05" transform="translate(98.04 212.52)" fill="#bdbdbd" opacity="0.3"/>
      <rect id="Rectángulo_6796" data-name="Rectángulo 6796" width="155.01" height="245.05" rx="46.05" transform="translate(97.85 212.34)" fill="#bbb" opacity="0.31"/>
      <rect id="Rectángulo_6797" data-name="Rectángulo 6797" width="155.01" height="245.05" rx="46.05" transform="translate(97.67 212.16)" fill="#b9b9b9" opacity="0.32"/>
      <rect id="Rectángulo_6798" data-name="Rectángulo 6798" width="155.01" height="245.05" rx="46.05" transform="translate(97.48 211.99)" fill="#b7b7b7" opacity="0.33"/>
      <rect id="Rectángulo_6799" data-name="Rectángulo 6799" width="155.01" height="245.05" rx="46.05" transform="translate(97.3 211.81)" fill="#b5b5b5" opacity="0.34"/>
      <rect id="Rectángulo_6800" data-name="Rectángulo 6800" width="155.01" height="245.05" rx="46.05" transform="translate(97.11 211.63)" fill="#b3b3b3" opacity="0.35"/>
      <rect id="Rectángulo_6801" data-name="Rectángulo 6801" width="155.01" height="245.05" rx="46.05" transform="translate(96.93 211.46)" fill="#b1b1b1" opacity="0.36"/>
      <rect id="Rectángulo_6802" data-name="Rectángulo 6802" width="155.01" height="245.05" rx="46.05" transform="translate(96.74 211.28)" fill="#afafaf" opacity="0.37"/>
      <rect id="Rectángulo_6803" data-name="Rectángulo 6803" width="155.01" height="245.05" rx="46.05" transform="translate(96.56 211.1)" fill="#adadad" opacity="0.38"/>
      <rect id="Rectángulo_6804" data-name="Rectángulo 6804" width="155.01" height="245.05" rx="46.05" transform="translate(96.37 210.93)" fill="#ababab" opacity="0.39"/>
      <rect id="Rectángulo_6805" data-name="Rectángulo 6805" width="155.01" height="245.05" rx="46.05" transform="translate(96.19 210.75)" fill="#a9a9a9" opacity="0.4"/>
      <rect id="Rectángulo_6806" data-name="Rectángulo 6806" width="155.01" height="245.05" rx="46.05" transform="translate(96 210.57)" fill="#a7a7a7" opacity="0.41"/>
      <rect id="Rectángulo_6807" data-name="Rectángulo 6807" width="155.01" height="245.05" rx="46.05" transform="translate(95.82 210.39)" fill="#a5a5a5" opacity="0.42"/>
      <rect id="Rectángulo_6808" data-name="Rectángulo 6808" width="155.01" height="245.05" rx="46.05" transform="translate(95.63 210.22)" fill="#a3a3a3" opacity="0.43"/>
      <rect id="Rectángulo_6809" data-name="Rectángulo 6809" width="155.01" height="245.05" rx="46.05" transform="translate(95.45 210.04)" fill="#a1a1a1" opacity="0.44"/>
      <rect id="Rectángulo_6810" data-name="Rectángulo 6810" width="155.01" height="245.05" rx="46.05" transform="translate(95.26 209.86)" fill="#9f9f9f" opacity="0.45"/>
      <rect id="Rectángulo_6811" data-name="Rectángulo 6811" width="155.01" height="245.05" rx="46.05" transform="translate(95.08 209.69)" fill="#9d9d9d" opacity="0.46"/>
      <rect id="Rectángulo_6812" data-name="Rectángulo 6812" width="155.01" height="245.05" rx="46.05" transform="translate(94.89 209.51)" fill="#9b9b9b" opacity="0.47"/>
      <rect id="Rectángulo_6813" data-name="Rectángulo 6813" width="155.01" height="245.05" rx="46.05" transform="translate(94.7 209.33)" fill="#999" opacity="0.48"/>
      <rect id="Rectángulo_6814" data-name="Rectángulo 6814" width="155.01" height="245.05" rx="46.05" transform="translate(94.52 209.16)" fill="#979797" opacity="0.49"/>
      <rect id="Rectángulo_6815" data-name="Rectángulo 6815" width="155.01" height="245.05" rx="46.05" transform="translate(94.33 208.98)" fill="#959595" opacity="0.5"/>
      <rect id="Rectángulo_6816" data-name="Rectángulo 6816" width="155.01" height="245.05" rx="46.05" transform="translate(94.15 208.8)" fill="#939393" opacity="0.5"/>
      <rect id="Rectángulo_6817" data-name="Rectángulo 6817" width="155.01" height="245.05" rx="46.05" transform="translate(93.96 208.62)" fill="#919191" opacity="0.51"/>
      <rect id="Rectángulo_6818" data-name="Rectángulo 6818" width="155.01" height="245.05" rx="46.05" transform="translate(93.78 208.45)" fill="#8f8f8f" opacity="0.52"/>
      <rect id="Rectángulo_6819" data-name="Rectángulo 6819" width="155.01" height="245.05" rx="46.05" transform="translate(93.59 208.27)" fill="#8d8d8d" opacity="0.53"/>
      <rect id="Rectángulo_6820" data-name="Rectángulo 6820" width="155.01" height="245.05" rx="46.05" transform="translate(93.41 208.09)" fill="#8b8b8b" opacity="0.54"/>
      <rect id="Rectángulo_6821" data-name="Rectángulo 6821" width="155.01" height="245.05" rx="46.05" transform="translate(93.22 207.92)" fill="#898989" opacity="0.55"/>
      <rect id="Rectángulo_6822" data-name="Rectángulo 6822" width="155.01" height="245.05" rx="46.05" transform="translate(93.04 207.74)" fill="#878787" opacity="0.56"/>
      <rect id="Rectángulo_6823" data-name="Rectángulo 6823" width="155.01" height="245.05" rx="46.05" transform="translate(92.85 207.56)" fill="#858585" opacity="0.57"/>
      <rect id="Rectángulo_6824" data-name="Rectángulo 6824" width="155.01" height="245.05" rx="46.05" transform="translate(92.67 207.39)" fill="#838383" opacity="0.58"/>
      <rect id="Rectángulo_6825" data-name="Rectángulo 6825" width="155.01" height="245.05" rx="46.05" transform="translate(92.48 207.21)" fill="#818181" opacity="0.59"/>
      <rect id="Rectángulo_6826" data-name="Rectángulo 6826" width="155.01" height="245.05" rx="46.05" transform="translate(92.3 207.03)" fill="gray" opacity="0.6"/>
      <rect id="Rectángulo_6827" data-name="Rectángulo 6827" width="155.01" height="245.05" rx="46.05" transform="translate(92.11 206.85)" fill="gray" opacity="0.61"/>
      <rect id="Rectángulo_6828" data-name="Rectángulo 6828" width="155.01" height="245.05" rx="46.05" transform="translate(91.93 206.68)" fill="gray" opacity="0.62"/>
      <rect id="Rectángulo_6829" data-name="Rectángulo 6829" width="155.01" height="245.05" rx="46.05" transform="translate(91.74 206.5)" fill="#7e7e7e" opacity="0.63"/>
      <rect id="Rectángulo_6830" data-name="Rectángulo 6830" width="155.01" height="245.05" rx="46.05" transform="translate(91.56 206.32)" fill="#7c7c7c" opacity="0.64"/>
      <rect id="Rectángulo_6831" data-name="Rectángulo 6831" width="155.01" height="245.05" rx="46.05" transform="translate(91.37 206.15)" fill="#7a7a7a" opacity="0.65"/>
      <rect id="Rectángulo_6832" data-name="Rectángulo 6832" width="155.01" height="245.05" rx="46.05" transform="translate(91.19 205.97)" fill="#787878" opacity="0.66"/>
      <rect id="Rectángulo_6833" data-name="Rectángulo 6833" width="155.01" height="245.05" rx="46.05" transform="translate(91 205.79)" fill="#767676" opacity="0.67"/>
      <rect id="Rectángulo_6834" data-name="Rectángulo 6834" width="155.01" height="245.05" rx="46.05" transform="translate(90.82 205.62)" fill="#747474" opacity="0.68"/>
      <rect id="Rectángulo_6835" data-name="Rectángulo 6835" width="155.01" height="245.05" rx="46.05" transform="translate(90.63 205.44)" fill="#727272" opacity="0.69"/>
      <rect id="Rectángulo_6836" data-name="Rectángulo 6836" width="155.01" height="245.05" rx="46.05" transform="translate(90.45 205.26)" fill="#707070" opacity="0.7"/>
      <rect id="Rectángulo_6837" data-name="Rectángulo 6837" width="155.01" height="245.05" rx="46.05" transform="translate(90.26 205.09)" fill="#6e6e6e" opacity="0.71"/>
      <rect id="Rectángulo_6838" data-name="Rectángulo 6838" width="155.01" height="245.05" rx="46.05" transform="translate(90.08 204.91)" fill="#6c6c6c" opacity="0.72"/>
      <rect id="Rectángulo_6839" data-name="Rectángulo 6839" width="155.01" height="245.05" rx="46.05" transform="translate(89.89 204.73)" fill="#6a6a6a" opacity="0.73"/>
      <rect id="Rectángulo_6840" data-name="Rectángulo 6840" width="155.01" height="245.05" rx="46.05" transform="translate(89.71 204.55)" fill="#686868" opacity="0.74"/>
      <rect id="Rectángulo_6841" data-name="Rectángulo 6841" width="155.01" height="245.05" rx="46.05" transform="translate(89.52 204.38)" fill="#656565" opacity="0.75"/>
      <rect id="Rectángulo_6842" data-name="Rectángulo 6842" width="155.01" height="245.05" rx="46.05" transform="translate(89.34 204.2)" fill="#636363" opacity="0.76"/>
      <rect id="Rectángulo_6843" data-name="Rectángulo 6843" width="155.01" height="245.05" rx="46.05" transform="translate(89.15 204.02)" fill="#616161" opacity="0.77"/>
      <rect id="Rectángulo_6844" data-name="Rectángulo 6844" width="155.01" height="245.05" rx="46.05" transform="translate(88.97 203.85)" fill="#5f5f5f" opacity="0.78"/>
      <rect id="Rectángulo_6845" data-name="Rectángulo 6845" width="155.01" height="245.05" rx="46.05" transform="translate(88.78 203.67)" fill="#5d5d5d" opacity="0.79"/>
      <rect id="Rectángulo_6846" data-name="Rectángulo 6846" width="155.01" height="245.05" rx="46.05" transform="translate(88.6 203.49)" fill="#5b5b5b" opacity="0.8"/>
      <rect id="Rectángulo_6847" data-name="Rectángulo 6847" width="155.01" height="245.05" rx="46.05" transform="translate(88.41 203.32)" fill="#595959" opacity="0.81"/>
      <rect id="Rectángulo_6848" data-name="Rectángulo 6848" width="155.01" height="245.05" rx="46.05" transform="translate(88.23 203.14)" fill="#575757" opacity="0.82"/>
      <rect id="Rectángulo_6849" data-name="Rectángulo 6849" width="155.01" height="245.05" rx="46.05" transform="translate(88.04 202.96)" fill="#555" opacity="0.83"/>
      <rect id="Rectángulo_6850" data-name="Rectángulo 6850" width="155.01" height="245.05" rx="46.05" transform="translate(87.86 202.78)" fill="#535353" opacity="0.84"/>
      <rect id="Rectángulo_6851" data-name="Rectángulo 6851" width="155.01" height="245.05" rx="46.05" transform="translate(87.67 202.61)" fill="#515151" opacity="0.85"/>
      <rect id="Rectángulo_6852" data-name="Rectángulo 6852" width="155.01" height="245.05" rx="46.05" transform="translate(87.49 202.43)" fill="#4f4f4f" opacity="0.86"/>
      <rect id="Rectángulo_6853" data-name="Rectángulo 6853" width="155.01" height="245.05" rx="46.05" transform="translate(87.3 202.25)" fill="#4d4d4d" opacity="0.87"/>
      <rect id="Rectángulo_6854" data-name="Rectángulo 6854" width="155.01" height="245.05" rx="46.05" transform="translate(87.12 202.08)" fill="#4b4b4b" opacity="0.88"/>
      <rect id="Rectángulo_6855" data-name="Rectángulo 6855" width="155.01" height="245.05" rx="46.05" transform="translate(86.93 201.9)" fill="#494949" opacity="0.89"/>
      <rect id="Rectángulo_6856" data-name="Rectángulo 6856" width="155.01" height="245.05" rx="46.05" transform="translate(86.75 201.72)" fill="#474747" opacity="0.9"/>
      <rect id="Rectángulo_6857" data-name="Rectángulo 6857" width="155.01" height="245.05" rx="46.05" transform="translate(86.56 201.55)" fill="#454545" opacity="0.91"/>
      <rect id="Rectángulo_6858" data-name="Rectángulo 6858" width="155.01" height="245.05" rx="46.05" transform="translate(86.38 201.37)" fill="#434343" opacity="0.92"/>
      <rect id="Rectángulo_6859" data-name="Rectángulo 6859" width="155.01" height="245.05" rx="46.05" transform="translate(86.19 201.19)" fill="#414141" opacity="0.93"/>
      <rect id="Rectángulo_6860" data-name="Rectángulo 6860" width="155.01" height="245.05" rx="46.05" transform="translate(86.01 201.01)" fill="#3f3f3f" opacity="0.94"/>
      <rect id="Rectángulo_6861" data-name="Rectángulo 6861" width="155.01" height="245.05" rx="46.05" transform="translate(85.82 200.84)" fill="#3d3d3d" opacity="0.95"/>
      <rect id="Rectángulo_6862" data-name="Rectángulo 6862" width="155.01" height="245.05" rx="46.05" transform="translate(85.64 200.66)" fill="#3b3b3b" opacity="0.96"/>
      <rect id="Rectángulo_6863" data-name="Rectángulo 6863" width="155.01" height="245.05" rx="46.05" transform="translate(85.45 200.48)" fill="#393939" opacity="0.97"/>
      <rect id="Rectángulo_6864" data-name="Rectángulo 6864" width="155.01" height="245.05" rx="46.05" transform="translate(85.27 200.31)" fill="#373737" opacity="0.98"/>
      <rect id="Rectángulo_6865" data-name="Rectángulo 6865" width="155.01" height="245.05" rx="46.05" transform="translate(85.08 200.13)" fill="#353535" opacity="0.99"/>
      <rect id="Rectángulo_6866" data-name="Rectángulo 6866" width="155.01" height="245.05" rx="46.05" transform="translate(84.9 199.95)" fill="#333"/>
    </g>
    <g id="Grupo_58678" data-name="Grupo 58678" transform="translate(187.8 5336.391)">
      <rect id="Rectángulo_6867" data-name="Rectángulo 6867" width="249.9" height="159.86" rx="51.4" transform="translate(242.33 197.53) rotate(90)" fill="url(#linear-gradient)"/>
      <rect id="Rectángulo_6868" data-name="Rectángulo 6868" width="245.05" height="155.01" rx="46.05" transform="translate(239.9 199.95) rotate(90)" fill="#ededed"/>
    </g>
    <g id="Grupo_58679" data-name="Grupo 58679" transform="translate(187.8 5336.391)">
      <rect id="Rectángulo_6869" data-name="Rectángulo 6869" width="1.71" height="1.71" transform="translate(160.69 465.21)" fill="#4d4d4d"/>
      <path id="Trazado_119716" data-name="Trazado 119716" d="M155.5,466.92h-3.45v-1.71h3.45Zm-8.63,0h-3.46v-1.71h3.46Zm-8.64,0h-3.45v-1.71h3.45Zm-8.64,0h-3.45v-1.71h3.45Zm-8.63,0H117.5v-1.71H121Zm-8.64,0h-3.45v-1.71h3.45Zm-8.64,0h-3.45v-1.71h3.45Zm-8.63,0H91.59v-1.71h3.46Zm-8.64,0h-.06a25.776,25.776,0,0,1-3.51-.25l.25-1.7a22.15,22.15,0,0,0,3.26.24Zm-8.75-1.61a25.3,25.3,0,0,1-3.24-1.54l.85-1.49a22.27,22.27,0,0,0,3,1.43Zm-7.57-4.69a24.172,24.172,0,0,1-2.46-2.6L69,456.94a21.7,21.7,0,0,0,2.28,2.42Zm-5.37-7.1a23.691,23.691,0,0,1-1.35-3.31l1.63-.53a22.828,22.828,0,0,0,1.25,3.08ZM62.3,445c-.07-.72-.1-1.46-.1-2.2v-1.33h1.71v1.33q0,1,.09,2Zm1.61-8.71H62.2v-3.46h1.71Zm0-8.64H62.2V424.2h1.71Zm0-8.64H62.2v-3.45h1.71Zm0-8.63H62.2v-3.46h1.71Zm0-8.64H62.2v-3.46h1.71Zm0-8.64H62.2v-3.45h1.71Zm0-8.64H62.2V381h1.71Zm0-8.63H62.2v-3.46h1.71Zm0-8.64H62.2V363.7h1.71Zm0-8.63H62.2V355.1h1.71Zm0-8.64H62.2v-3.46h1.71Zm0-8.64H62.2v-3.45h1.71Zm0-8.63H62.2v-3.46h1.71Zm0-8.64H62.2v-3.46h1.71Zm0-8.64H62.2v-3.45h1.71Zm0-8.64H62.2v-3.45h1.71Zm0-8.63H62.2v-3.5h1.71Zm0-8.64H62.2V286h1.71Zm0-8.64H62.2v-3.45h1.71Zm0-8.63H62.2v-3.46h1.71Zm0-8.64H62.2V260.1h1.71Zm0-8.64H62.2v-3.45h1.71Zm0-8.63H62.2v-3.46h1.71Zm0-8.64H62.2v-3.46h1.71Zm0-8.64H62.2v-3.45h1.71Zm0-8.63H62.2v-3.46h1.71Zm0-8.64H62.2v-3.46h1.71Zm0-8.64H62.2v-.83a24.339,24.339,0,0,1,.15-2.71l1.7.19a23.5,23.5,0,0,0-.14,2.52Zm1.22-8.22-1.63-.55a24.459,24.459,0,0,1,1.38-3.3l1.53.77a23,23,0,0,0-1.28,3.04Zm4-7.29-1.33-1.07a25,25,0,0,1,2.41-2.63l1.18,1.24a25.151,25.151,0,0,0-2.3,2.42Zm6.23-5.47-.88-1.47A23.249,23.249,0,0,1,77.63,179l.65,1.58a21.641,21.641,0,0,0-2.96,1.49Zm80.13-2.37h-3.45v-1.71h3.45Zm-8.63-.09H143.4v-1.71h3.45Zm-8.64-.09h-3.45v-1.71h3.46Zm-8.64-.09h-3.45v-1.71h3.45Zm-8.63-.1h-3.46v-1.71h3.46Zm-8.64-.09h-3.45v-1.72h3.46Zm-29.2,0-.27-1.69a22.26,22.26,0,0,1,3.55-.28v1.71a21.191,21.191,0,0,0-3.32.21Zm20.56-.08h-3.45v-1.72h3.45ZM95,179.06H91.54v-1.71H95Z" fill="#4d4d4d"/>
      <rect id="Rectángulo_6870" data-name="Rectángulo 6870" width="1.71" height="1.71" transform="translate(160.688 179.766) rotate(-89.38)" fill="#4d4d4d"/>
    </g>
    <g id="Grupo" transform="translate(187.8 5336.391)">
      <path id="Trazado_119843" data-name="Trazado 119843" d="M11.188-4.263A4.528,4.528,0,0,1,9.664-1.011,5.355,5.355,0,0,1,6.038.176,4.816,4.816,0,0,1,2.167-1.481,6.793,6.793,0,0,1,.756-6.029v-.782a7.671,7.671,0,0,1,.65-3.252,4.874,4.874,0,0,1,1.859-2.158,5.207,5.207,0,0,1,2.808-.751,5.217,5.217,0,0,1,3.568,1.187,4.866,4.866,0,0,1,1.564,3.331H8.569a2.673,2.673,0,0,0-.69-1.8,2.555,2.555,0,0,0-1.806-.558A2.24,2.24,0,0,0,4.1-9.866a5.3,5.3,0,0,0-.672,2.931v.967a5.667,5.667,0,0,0,.628,3.032,2.2,2.2,0,0,0,1.982.958,2.6,2.6,0,0,0,1.824-.558,2.521,2.521,0,0,0,.69-1.727ZM18.264,0a2.821,2.821,0,0,1-.255-.853,3.073,3.073,0,0,1-2.4,1.028,3.376,3.376,0,0,1-2.316-.809,2.6,2.6,0,0,1-.918-2.039A2.687,2.687,0,0,1,13.5-4.992a5.529,5.529,0,0,1,3.239-.817H17.9v-.545a1.567,1.567,0,0,0-.338-1.055A1.331,1.331,0,0,0,16.5-7.8a1.513,1.513,0,0,0-1.006.308,1.045,1.045,0,0,0-.365.844h-2.54a2.551,2.551,0,0,1,.51-1.529,3.37,3.37,0,0,1,1.441-1.1,5.253,5.253,0,0,1,2.092-.4,4.15,4.15,0,0,1,2.791.883,3.09,3.09,0,0,1,1.033,2.483V-2.2A4.546,4.546,0,0,0,20.83-.149V0Zm-2.1-1.767a2.188,2.188,0,0,0,1.037-.25,1.645,1.645,0,0,0,.7-.672V-4.324h-.949q-1.907,0-2.03,1.318l-.009.149a1.017,1.017,0,0,0,.334.782A1.3,1.3,0,0,0,16.163-1.767ZM24.741-9.51l.079,1.1a3.32,3.32,0,0,1,2.733-1.274A2.759,2.759,0,0,1,29.8-8.8a4.142,4.142,0,0,1,.756,2.654V0H28.02V-6.082a1.648,1.648,0,0,0-.352-1.173A1.574,1.574,0,0,0,26.5-7.62a1.747,1.747,0,0,0-1.608.914V0h-2.54V-9.51ZM38,0a2.821,2.821,0,0,1-.255-.853,3.073,3.073,0,0,1-2.4,1.028,3.376,3.376,0,0,1-2.316-.809,2.6,2.6,0,0,1-.918-2.039,2.687,2.687,0,0,1,1.121-2.32,5.529,5.529,0,0,1,3.239-.817h1.169v-.545A1.567,1.567,0,0,0,37.3-7.409a1.331,1.331,0,0,0-1.068-.4,1.513,1.513,0,0,0-1.006.308,1.045,1.045,0,0,0-.365.844h-2.54a2.551,2.551,0,0,1,.51-1.529,3.37,3.37,0,0,1,1.441-1.1,5.253,5.253,0,0,1,2.092-.4,4.15,4.15,0,0,1,2.791.883,3.09,3.09,0,0,1,1.033,2.483V-2.2a4.546,4.546,0,0,0,.378,2.048V0Zm-2.1-1.767a2.188,2.188,0,0,0,1.037-.25,1.645,1.645,0,0,0,.7-.672V-4.324h-.949q-1.907,0-2.03,1.318l-.009.149a1.017,1.017,0,0,0,.334.782A1.3,1.3,0,0,0,35.895-1.767ZM44.815,0H42.267V-13.5h2.549Zm6.179-4.825a5.731,5.731,0,0,1,1-3.542,3.237,3.237,0,0,1,2.729-1.318,2.913,2.913,0,0,1,2.294,1.037V-13.5h2.549V0H57.27l-.123-1.011A2.989,2.989,0,0,1,54.7.176a3.228,3.228,0,0,1-2.694-1.323A5.916,5.916,0,0,1,50.994-4.825Zm2.54.189A3.754,3.754,0,0,0,54-2.585a1.517,1.517,0,0,0,1.354.713,1.7,1.7,0,0,0,1.661-.995V-6.625a1.675,1.675,0,0,0-1.644-.995Q53.534-7.62,53.534-4.636ZM65.909.176A4.668,4.668,0,0,1,62.5-1.107a4.561,4.561,0,0,1-1.314-3.419v-.246a5.745,5.745,0,0,1,.554-2.562,4.064,4.064,0,0,1,1.569-1.74,4.4,4.4,0,0,1,2.316-.611A3.947,3.947,0,0,1,68.7-8.455,5,5,0,0,1,69.82-4.966v1.037H63.765a2.36,2.36,0,0,0,.743,1.494,2.245,2.245,0,0,0,1.569.563A2.742,2.742,0,0,0,68.37-2.936l1.248,1.4A3.813,3.813,0,0,1,68.071-.277,5.075,5.075,0,0,1,65.909.176Zm-.29-7.813a1.587,1.587,0,0,0-1.226.512,2.651,2.651,0,0,0-.6,1.466h3.533v-.2a1.891,1.891,0,0,0-.457-1.311A1.638,1.638,0,0,0,65.619-7.638Z" transform="translate(125.53 315.32)" fill="#12263f"/>
      <path id="Trazado_119844" data-name="Trazado 119844" d="M.58-4.825a5.731,5.731,0,0,1,1-3.542A3.237,3.237,0,0,1,4.307-9.686,2.913,2.913,0,0,1,6.6-8.648V-13.5H9.149V0H6.855L6.732-1.011A2.989,2.989,0,0,1,4.289.176,3.228,3.228,0,0,1,1.6-1.147,5.916,5.916,0,0,1,.58-4.825Zm2.54.189a3.754,3.754,0,0,0,.466,2.051,1.517,1.517,0,0,0,1.354.713A1.7,1.7,0,0,0,6.6-2.867V-6.625A1.675,1.675,0,0,0,4.957-7.62Q3.12-7.62,3.12-4.636ZM13.8,0H11.25V-9.51H13.8ZM11.1-11.971a1.251,1.251,0,0,1,.382-.94,1.436,1.436,0,0,1,1.042-.369,1.44,1.44,0,0,1,1.037.369,1.244,1.244,0,0,1,.387.94,1.247,1.247,0,0,1-.391.949,1.443,1.443,0,0,1-1.033.369,1.443,1.443,0,0,1-1.033-.369A1.247,1.247,0,0,1,11.1-11.971Zm9.94,9.343a.818.818,0,0,0-.461-.734A5.241,5.241,0,0,0,19.1-3.841q-3.393-.712-3.393-2.883a2.613,2.613,0,0,1,1.05-2.114A4.237,4.237,0,0,1,19.5-9.686a4.56,4.56,0,0,1,2.9.853,2.687,2.687,0,0,1,1.085,2.215h-2.54a1.229,1.229,0,0,0-.352-.9,1.488,1.488,0,0,0-1.1-.356,1.52,1.52,0,0,0-.993.29.916.916,0,0,0-.352.738.783.783,0,0,0,.4.681,4.114,4.114,0,0,0,1.349.448,11.019,11.019,0,0,1,1.6.426,2.628,2.628,0,0,1,2.013,2.558,2.481,2.481,0,0,1-1.116,2.1,4.815,4.815,0,0,1-2.883.8A5.029,5.029,0,0,1,17.389-.25a3.561,3.561,0,0,1-1.455-1.169,2.716,2.716,0,0,1-.527-1.6h2.408a1.326,1.326,0,0,0,.5,1.037,1.987,1.987,0,0,0,1.248.36,1.839,1.839,0,0,0,1.1-.277A.861.861,0,0,0,21.041-2.628Zm7.146-9.22V-9.51h1.626v1.863H28.187V-2.9a1.133,1.133,0,0,0,.2.756,1.015,1.015,0,0,0,.773.229,4.051,4.051,0,0,0,.747-.062V-.053a5.229,5.229,0,0,1-1.538.229,2.425,2.425,0,0,1-2.725-2.7V-7.646H24.258V-9.51h1.389v-2.338Zm8.385,4.72a6.9,6.9,0,0,0-.914-.07,1.86,1.86,0,0,0-1.89.976V0h-2.54V-9.51h2.4l.07,1.134a2.354,2.354,0,0,1,2.118-1.31,2.662,2.662,0,0,1,.791.114ZM40.474,0H37.925V-9.51h2.549Zm-2.7-11.971a1.251,1.251,0,0,1,.382-.94A1.436,1.436,0,0,1,39.2-13.28a1.44,1.44,0,0,1,1.037.369,1.244,1.244,0,0,1,.387.94,1.247,1.247,0,0,1-.391.949,1.443,1.443,0,0,1-1.033.369,1.443,1.443,0,0,1-1.033-.369A1.247,1.247,0,0,1,37.775-11.971Zm13.359,7.3A5.758,5.758,0,0,1,50.159-1.1,3.231,3.231,0,0,1,47.435.176a2.969,2.969,0,0,1-2.47-1.187L44.851,0H42.565V-13.5h2.54v4.843a2.893,2.893,0,0,1,2.312-1.028,3.258,3.258,0,0,1,2.729,1.279,5.767,5.767,0,0,1,.989,3.6Zm-2.54-.185a3.783,3.783,0,0,0-.457-2.1,1.545,1.545,0,0,0-1.362-.664,1.676,1.676,0,0,0-1.67.993v3.753a1.7,1.7,0,0,0,1.688,1A1.568,1.568,0,0,0,48.41-3.085,6.257,6.257,0,0,0,48.595-4.852Zm9.8,3.885a3.185,3.185,0,0,1-2.6,1.143A3,3,0,0,1,53.459-.7a3.752,3.752,0,0,1-.822-2.575V-9.51h2.54v6.151q0,1.487,1.354,1.487a1.834,1.834,0,0,0,1.775-.9V-9.51h2.549V0H58.465Zm8.332-.905a1.666,1.666,0,0,0,1.143-.387,1.355,1.355,0,0,0,.457-1.028h2.382a3.258,3.258,0,0,1-.527,1.771A3.48,3.48,0,0,1,68.761-.268a4.442,4.442,0,0,1-1.991.444,4.129,4.129,0,0,1-3.217-1.3A5.13,5.13,0,0,1,62.376-4.7v-.167a5.071,5.071,0,0,1,1.169-3.507,4.08,4.08,0,0,1,3.208-1.31A4,4,0,0,1,69.614-8.67a3.594,3.594,0,0,1,1.094,2.7H68.326a1.745,1.745,0,0,0-.457-1.206,1.524,1.524,0,0,0-1.16-.464,1.53,1.53,0,0,0-1.34.647,3.749,3.749,0,0,0-.453,2.1v.264a3.8,3.8,0,0,0,.448,2.113A1.549,1.549,0,0,0,66.727-1.872ZM74.839,0H72.29V-9.51h2.549Zm-2.7-11.971a1.251,1.251,0,0,1,.382-.94,1.436,1.436,0,0,1,1.042-.369,1.44,1.44,0,0,1,1.037.369,1.244,1.244,0,0,1,.387.94,1.247,1.247,0,0,1-.391.949,1.443,1.443,0,0,1-1.033.369,1.443,1.443,0,0,1-1.033-.369A1.247,1.247,0,0,1,72.141-11.971Zm4.395,7.128a5.64,5.64,0,0,1,.545-2.522,3.989,3.989,0,0,1,1.569-1.714,4.577,4.577,0,0,1,2.377-.606,4.33,4.33,0,0,1,3.142,1.178,4.727,4.727,0,0,1,1.358,3.2l.018.65a4.97,4.97,0,0,1-1.222,3.511A4.247,4.247,0,0,1,81.044.176a4.268,4.268,0,0,1-3.283-1.318,5.058,5.058,0,0,1-1.226-3.586Zm2.54.18a3.555,3.555,0,0,0,.51,2.073,1.682,1.682,0,0,0,1.459.717,1.686,1.686,0,0,0,1.441-.709A3.89,3.89,0,0,0,83-4.847a3.519,3.519,0,0,0-.519-2.06,1.686,1.686,0,0,0-1.459-.731,1.658,1.658,0,0,0-1.441.726A3.955,3.955,0,0,0,79.075-4.662ZM81.527-13.5H84.3l-2.435,2.725H79.8Zm7.919,3.99.079,1.1a3.32,3.32,0,0,1,2.733-1.274,2.759,2.759,0,0,1,2.25.888,4.142,4.142,0,0,1,.756,2.654V0h-2.54V-6.082a1.648,1.648,0,0,0-.352-1.173A1.574,1.574,0,0,0,91.2-7.62a1.747,1.747,0,0,0-1.608.914V0h-2.54V-9.51Z" transform="translate(112.57 336.92)" fill="#12263f"/>
      <path id="Trazado_119846" data-name="Trazado 119846" d="M.58-4.825a5.731,5.731,0,0,1,1-3.542A3.237,3.237,0,0,1,4.307-9.686,2.913,2.913,0,0,1,6.6-8.648V-13.5H9.149V0H6.855L6.732-1.011A2.989,2.989,0,0,1,4.289.176,3.228,3.228,0,0,1,1.6-1.147,5.916,5.916,0,0,1,.58-4.825Zm2.54.189a3.754,3.754,0,0,0,.466,2.051,1.517,1.517,0,0,0,1.354.713A1.7,1.7,0,0,0,6.6-2.867V-6.625A1.675,1.675,0,0,0,4.957-7.62Q3.12-7.62,3.12-4.636ZM13.8,0H11.25V-9.51H13.8ZM11.1-11.971a1.251,1.251,0,0,1,.382-.94,1.436,1.436,0,0,1,1.042-.369,1.44,1.44,0,0,1,1.037.369,1.244,1.244,0,0,1,.387.94,1.247,1.247,0,0,1-.391.949,1.443,1.443,0,0,1-1.033.369,1.443,1.443,0,0,1-1.033-.369A1.247,1.247,0,0,1,11.1-11.971Z" transform="translate(129.92 358.52)" fill="#12263f"/>
      <path id="Trazado_119871" data-name="Trazado 119871" d="M6.319-7.128a6.9,6.9,0,0,0-.914-.07,1.86,1.86,0,0,0-1.89.976V0H.976V-9.51h2.4l.07,1.134a2.354,2.354,0,0,1,2.118-1.31,2.662,2.662,0,0,1,.791.114Z" transform="translate(144.84 358.52)" fill="#12263f"/>
      <path id="Trazado_119845" data-name="Trazado 119845" d="M5.353.176A4.668,4.668,0,0,1,1.947-1.107,4.561,4.561,0,0,1,.633-4.526v-.246a5.745,5.745,0,0,1,.554-2.562,4.064,4.064,0,0,1,1.569-1.74,4.4,4.4,0,0,1,2.316-.611,3.947,3.947,0,0,1,3.072,1.23A5,5,0,0,1,9.264-4.966v1.037H3.208a2.36,2.36,0,0,0,.743,1.494,2.245,2.245,0,0,0,1.569.563A2.742,2.742,0,0,0,7.813-2.936l1.248,1.4A3.813,3.813,0,0,1,7.515-.277,5.075,5.075,0,0,1,5.353.176Zm-.29-7.813a1.587,1.587,0,0,0-1.226.512,2.651,2.651,0,0,0-.6,1.466H6.768v-.2a1.891,1.891,0,0,0-.457-1.311A1.638,1.638,0,0,0,5.063-7.638Zm9.6,5.766A1.666,1.666,0,0,0,15.8-2.259a1.355,1.355,0,0,0,.457-1.028h2.382a3.258,3.258,0,0,1-.527,1.771A3.48,3.48,0,0,1,16.695-.268,4.442,4.442,0,0,1,14.7.176a4.129,4.129,0,0,1-3.217-1.3A5.13,5.13,0,0,1,10.31-4.7v-.167a5.071,5.071,0,0,1,1.169-3.507,4.08,4.08,0,0,1,3.208-1.31A4,4,0,0,1,17.547-8.67a3.594,3.594,0,0,1,1.094,2.7H16.26A1.745,1.745,0,0,0,15.8-7.174a1.524,1.524,0,0,0-1.16-.464,1.53,1.53,0,0,0-1.34.647,3.749,3.749,0,0,0-.453,2.1v.264A3.8,3.8,0,0,0,13.3-2.515,1.549,1.549,0,0,0,14.66-1.872Z" transform="translate(151.23 358.52)" fill="#12263f"/>
      <path id="Trazado_119870" data-name="Trazado 119870" d="M4.017-11.848V-9.51H5.643v1.863H4.017V-2.9a1.133,1.133,0,0,0,.2.756,1.015,1.015,0,0,0,.773.229,4.051,4.051,0,0,0,.747-.062V-.053A5.229,5.229,0,0,1,4.2.176a2.425,2.425,0,0,1-2.725-2.7V-7.646H.088V-9.51H1.477v-2.338Z" transform="translate(170.35 358.52)" fill="#12263f"/>
      <path id="Trazado_119847" data-name="Trazado 119847" d="M.58-4.843a5.64,5.64,0,0,1,.545-2.522A3.989,3.989,0,0,1,2.694-9.079a4.577,4.577,0,0,1,2.377-.606A4.33,4.33,0,0,1,8.213-8.508a4.727,4.727,0,0,1,1.358,3.2l.018.65A4.97,4.97,0,0,1,8.367-1.147,4.247,4.247,0,0,1,5.089.176,4.268,4.268,0,0,1,1.806-1.143,5.058,5.058,0,0,1,.58-4.729Zm2.54.18a3.555,3.555,0,0,0,.51,2.073,1.682,1.682,0,0,0,1.459.717A1.686,1.686,0,0,0,6.53-2.581a3.89,3.89,0,0,0,.519-2.267,3.519,3.519,0,0,0-.519-2.06,1.686,1.686,0,0,0-1.459-.731,1.658,1.658,0,0,0-1.441.726A3.955,3.955,0,0,0,3.12-4.662Zm8.156,3.414a1.279,1.279,0,0,1,.409-.984,1.45,1.45,0,0,1,1.024-.378,1.462,1.462,0,0,1,1.033.378,1.279,1.279,0,0,1,.409.984,1.261,1.261,0,0,1-.4.971A1.468,1.468,0,0,1,12.709.1a1.456,1.456,0,0,1-1.028-.374A1.261,1.261,0,0,1,11.276-1.248Zm0-7.2a1.279,1.279,0,0,1,.409-.984,1.45,1.45,0,0,1,1.024-.378,1.462,1.462,0,0,1,1.033.378,1.279,1.279,0,0,1,.409.984,1.261,1.261,0,0,1-.4.971,1.468,1.468,0,0,1-1.037.374,1.456,1.456,0,0,1-1.028-.374A1.261,1.261,0,0,1,11.276-8.446Z" transform="translate(176.17 358.52)" fill="#12263f"/>
    </g>
    <g id="Grupo_58688" data-name="Grupo 58688" transform="translate(187.8 5336.391)">
      <g id="Grupo_58687" data-name="Grupo 58687">
        <circle id="Elipse_4696" data-name="Elipse 4696" cx="31.67" cy="31.67" r="31.67" transform="translate(126.169 272.564) rotate(-81)" fill="url(#linear-gradient-2)"/>
        <g id="Grupo_58686" data-name="Grupo 58686">
          <circle id="Elipse_4697" data-name="Elipse 4697" cx="28.54" cy="28.54" r="28.54" transform="translate(133.86 217.7)" fill="#472ea6"/>
          <circle id="Elipse_4698" data-name="Elipse 4698" cx="22.41" cy="22.41" r="22.41" transform="translate(139.99 223.83)" fill="url(#linear-gradient-3)"/>
          <circle id="Elipse_4699" data-name="Elipse 4699" cx="21.26" cy="21.26" r="21.26" transform="translate(141.14 224.98)" fill="url(#linear-gradient-4)"/>
          <circle id="Elipse_4700" data-name="Elipse 4700" cx="21.26" cy="21.26" r="21.26" transform="translate(141.14 224.98)" fill="url(#linear-gradient-4)"/>
        </g>
      </g>
      <path id="Trazado_119721" data-name="Trazado 119721" d="M164.08,254.82h-2.19V240.35L157.52,242v-2l6.22-2.34h.34Z" fill="#12263f"/>
    </g>
  </g>
</svg>
