<svg xmlns="http://www.w3.org/2000/svg" xmlns:xlink="http://www.w3.org/1999/xlink" width="549.391" height="523.158" viewBox="0 0 549.391 523.158">
  <defs>
    <clipPath id="clip-path">
      <rect width="8.621" height="136.142" fill="none"/>
    </clipPath>
  </defs>
  <g id="conceptual4" transform="translate(2646.391 4014.645)">
    <rect id="Rectángulo_6771" data-name="Rectángulo 6771" width="549.391" height="116.974" rx="12" transform="translate(-2646.391 -4014.645)" fill="#ef2a66" opacity="0.09"/>
    <rect id="Rectángulo_6775" data-name="Rectángulo 6775" width="385.391" height="131.974" rx="12" transform="translate(-2518.282 -3867.645)" fill="#ef2a66" opacity="0.09"/>
    <rect id="Rectángulo_6779" data-name="Rectángulo 6779" width="385.391" height="205.974" rx="12" transform="translate(-2518.282 -3697.461)" fill="#ef2a66" opacity="0.09"/>
    <g id="Grupo_58685" data-name="Grupo 58685" transform="translate(-2523.338 -3969.645)">
      <g id="Grupo_20708" data-name="Grupo 20708" transform="translate(0 0)">
        <text id="Variables_de_posición_del_usuario_o_de_uso_" data-name="Variables de posición del usuario o de uso 
" transform="translate(0 0)" fill="#12263f" font-size="18" font-family="Roboto-Black, Roboto" font-weight="800"><tspan x="0" y="19">Variables de posición del usuario o de uso </tspan></text>
      </g>
    </g>
    <text id="Se_refieren_a_la_disposición_que_tiene_el_consumidor_ante_la_posible_compra_del_producto." data-name="Se refieren a la disposición que tiene el consumidor ante la posible compra del producto." transform="translate(-2498.892 -3841.645)" fill="#12263f" font-size="16" font-family="Roboto-Regular, Roboto"><tspan x="0" y="17">Se refieren a la disposición que tiene el </tspan><tspan x="0" y="41">consumidor ante la posible compra del </tspan><tspan x="0" y="65">producto.</tspan></text>
    <text id="Unidad_geográfica_Condiciones_geográficas_Raza_Tipo_de_población" data-name="Unidad geográfica 
Condiciones geográficas
Raza
Tipo de población" transform="translate(-2436.892 -3671.461)" fill="#12263f" font-size="16" font-family="Roboto-Regular, Roboto"><tspan x="0" y="17">Unidad geográfica </tspan><tspan x="0" y="57">Condiciones geográficas</tspan><tspan x="0" y="97">Raza</tspan><tspan x="0" y="137">Tipo de población</tspan></text>
    <line id="Línea_170" data-name="Línea 170" y2="320" transform="translate(-2590.502 -3914.145)" fill="none" stroke="#727997" stroke-width="2"/>
    <path id="Trazado_119791" data-name="Trazado 119791" d="M-5665.28-5111.5h-72.02" transform="translate(3146.998 1309.843)" fill="none" stroke="#727997" stroke-width="2"/>
    <path id="Trazado_119795" data-name="Trazado 119795" d="M-5665.08-5111.5h-72.22" transform="translate(3146.797 1517.025)" fill="none" stroke="#727997" stroke-width="2"/>
    <g id="Grupo_423" data-name="Grupo 423" transform="translate(-2470.012 -3668.603)" clip-path="url(#clip-path)">
      <g id="Grupo_423-2" data-name="Grupo 423">
        <path id="Trazado_635" data-name="Trazado 635" d="M8.385,6.763,1.856.234A.8.8,0,0,0,.725.23l0,0L.24.715a.8.8,0,0,0,0,1.131l0,0L5.722,7.332.234,12.82a.8.8,0,0,0,0,1.131l0,0,.481.481a.8.8,0,0,0,1.131,0l0,0L8.385,7.9a.81.81,0,0,0,0-1.139Z" transform="translate(0.002 0.002)" fill="#472ea6"/>
      </g>
      <g id="Grupo_423-3" data-name="Grupo 423" transform="translate(0 40)">
        <path id="Trazado_635-2" data-name="Trazado 635" d="M8.385,6.763,1.856.234A.8.8,0,0,0,.725.23l0,0L.24.715a.8.8,0,0,0,0,1.131l0,0L5.722,7.332.234,12.82a.8.8,0,0,0,0,1.131l0,0,.481.481a.8.8,0,0,0,1.131,0l0,0L8.385,7.9a.81.81,0,0,0,0-1.139Z" transform="translate(0.002 0.002)" fill="#472ea6"/>
      </g>
      <g id="Grupo_423-4" data-name="Grupo 423" transform="translate(0 80)">
        <path id="Trazado_635-3" data-name="Trazado 635" d="M8.385,6.763,1.856.234A.8.8,0,0,0,.725.23l0,0L.24.715a.8.8,0,0,0,0,1.131l0,0L5.722,7.332.234,12.82a.8.8,0,0,0,0,1.131l0,0,.481.481a.8.8,0,0,0,1.131,0l0,0L8.385,7.9a.81.81,0,0,0,0-1.139Z" transform="translate(0.002 0.002)" fill="#472ea6"/>
      </g>
      <g id="Grupo_423-5" data-name="Grupo 423" transform="translate(0 120)">
        <path id="Trazado_635-4" data-name="Trazado 635" d="M8.385,6.763,1.856.234A.8.8,0,0,0,.725.23l0,0L.24.715a.8.8,0,0,0,0,1.131l0,0L5.722,7.332.234,12.82a.8.8,0,0,0,0,1.131l0,0,.481.481a.8.8,0,0,0,1.131,0l0,0L8.385,7.9a.81.81,0,0,0,0-1.139Z" transform="translate(0.002 0.002)" fill="#472ea6"/>
      </g>
    </g>
    <g id="cf5_variable_4" data-name="cf5_variable 4" transform="translate(-2638 -4003.987)">
      <path id="Trazado_116845" data-name="Trazado 116845" d="M90,45A45,45,0,1,1,45,0,45,45,0,0,1,90,45Z" fill="#dad5ed"/>
      <path id="Trazado_116846" data-name="Trazado 116846" d="M90,46.83,59.58,16.45l-33.41,57L42.62,89.94c.79,0,1.58.06,2.38.06A45,45,0,0,0,90,46.83Z" fill="#cccadb"/>
      <path id="Trazado_116847" data-name="Trazado 116847" d="M26.17,28.43A15.54,15.54,0,0,0,10.63,44c0,8.58,15.54,29.51,15.54,29.51S41.71,52.55,41.71,44A15.54,15.54,0,0,0,26.17,28.43Zm0,26.32a11.51,11.51,0,1,1,11.5-11.5,11.51,11.51,0,0,1-11.5,11.5Z" fill="#b5abdb"/>
      <path id="Trazado_116848" data-name="Trazado 116848" d="M38.93,43.4A12.76,12.76,0,1,1,26.17,30.64,12.76,12.76,0,0,1,38.93,43.4Z" fill="#fff"/>
      <path id="Trazado_116849" data-name="Trazado 116849" d="M31.44,38.72a5.27,5.27,0,1,1-5.27-5.27,5.27,5.27,0,0,1,5.27,5.27Z" fill="#6c58b8"/>
      <path id="Trazado_116850" data-name="Trazado 116850" d="M26.17,56.16a12.71,12.71,0,0,0,9.15-3.87,9.28,9.28,0,0,0-18.31,0,12.71,12.71,0,0,0,9.16,3.87Z" fill="#6c58b8"/>
      <path id="Trazado_116851" data-name="Trazado 116851" d="M63.83,28.43A15.54,15.54,0,0,0,48.29,44c0,8.58,15.54,29.51,15.54,29.51S79.37,52.55,79.37,44A15.54,15.54,0,0,0,63.83,28.43Zm0,26.32a11.51,11.51,0,1,1,11.51-11.5,11.51,11.51,0,0,1-11.51,11.5Z" fill="#f25585"/>
      <path id="Trazado_116852" data-name="Trazado 116852" d="M76.59,43.4A12.76,12.76,0,1,1,63.83,30.64,12.76,12.76,0,0,1,76.59,43.4Z" fill="#e9edf5"/>
      <path id="Trazado_116853" data-name="Trazado 116853" d="M69.1,38.72a5.27,5.27,0,1,1-5.27-5.27A5.27,5.27,0,0,1,69.1,38.72Z" fill="#472ea6"/>
      <path id="Trazado_116854" data-name="Trazado 116854" d="M63.83,56.16A12.71,12.71,0,0,0,73,52.29a9.28,9.28,0,0,0-18.31,0,12.71,12.71,0,0,0,9.14,3.87Z" fill="#472ea6"/>
      <path id="Trazado_116855" data-name="Trazado 116855" d="M45,10.55a21,21,0,0,0-21,21c0,11.58,21,39.81,21,39.81S66,43.09,66,31.51A21,21,0,0,0,45,10.55Zm0,35.5A15.52,15.52,0,1,1,60.52,30.54,15.52,15.52,0,0,1,45,46.05Z" fill="#febc7c"/>
      <path id="Trazado_116856" data-name="Trazado 116856" d="M45,71.32S66,43.09,66,31.51a21,21,0,0,0-21-21h0V15h0a15.52,15.52,0,1,1,0,31h0Z" fill="#fd8f25"/>
      <path id="Trazado_116857" data-name="Trazado 116857" d="M62.21,30.75a17.2,17.2,0,1,1-5.038-12.172A17.21,17.21,0,0,1,62.21,30.75Z" fill="#fff"/>
      <path id="Trazado_116858" data-name="Trazado 116858" d="M45,13.54h0V48h0a17.21,17.21,0,1,0,0-34.42Z" fill="#e9edf5"/>
      <path id="Trazado_116859" data-name="Trazado 116859" d="M52.11,24.42A7.11,7.11,0,1,1,45,17.32a7.11,7.11,0,0,1,7.11,7.1Z" fill="#9182ca"/>
      <path id="Trazado_116860" data-name="Trazado 116860" d="M45,17.32h0V31.53h0a7.11,7.11,0,1,0,0-14.21Z" fill="#6c58b8"/>
      <path id="Trazado_116861" data-name="Trazado 116861" d="M45,48a17.16,17.16,0,0,0,12.35-5.22,12.51,12.51,0,0,0-24.7,0A17.16,17.16,0,0,0,45,48Z" fill="#9182ca"/>
      <path id="Trazado_116862" data-name="Trazado 116862" d="M45,32.25h0V48h0a17.16,17.16,0,0,0,12.35-5.22A12.52,12.52,0,0,0,45,32.25Z" fill="#6c58b8"/>
    </g>
  </g>
</svg>
