<svg xmlns="http://www.w3.org/2000/svg" width="1235" height="404" viewBox="0 0 1235 404">
  <g id="fondo-morado" transform="translate(9517 6022)">
    <rect id="Rectángulo_6765" data-name="Rectángulo 6765" width="715" height="404" transform="translate(-8997 -6022)" fill="#e9e4fd"/>
    <path id="Trazado_119725" data-name="Trazado 119725" d="M22.854,251.373c9.8-22.039,31.024-33.477,52.651-37.554,26.348-4.975,48.626-9.523,58.651-39.028,8.94-26.408,7.661-55.95,16.316-82.059,7.481-22.54,22.892-38.153,44.34-44.766,20.251-6.269,41.437-4.691,61.905-9.351,17.767-4.047,38.609-18.456,47.564-34.876,1.444-2.648.688-1.234,1.5-3.688H-520V403.985H34.412c12.516-30.9,6.269-54.087-3.74-79.126C21.216,301.167,11.678,276.464,22.854,251.373Z" transform="translate(-8997 -6022.013)" fill="#f7f5ff"/>
  </g>
</svg>
