<svg xmlns="http://www.w3.org/2000/svg" width="64.906" height="62.33" viewBox="0 0 64.906 62.33">
  <g id="icon1" transform="translate(-692.713 -235.76)">
    <g id="Grupo_54207" data-name="Grupo 54207">
      <path id="Trazado_102128" data-name="Trazado 102128" d="M716.07,260.86a9.57,9.57,0,0,1,6.78,2.81h0l.24.27-2.87,2.86c-.08-.09-.14-.19-.23-.28a5.55,5.55,0,0,0-7.84,0L700,278.65a5.544,5.544,0,0,0,7.84,7.84l11.86-11.86,2.85,2.85-11.86,11.86a9.581,9.581,0,0,1-13.55-13.55l12.13-12.12a9.55,9.55,0,0,1,6.8-2.81Zm0-1.64a11.15,11.15,0,0,0-7.93,3.29L696,274.63a11.222,11.222,0,0,0,15.87,15.87l11.86-11.86a1.62,1.62,0,0,0,.49-1.16,1.65,1.65,0,0,0-.49-1.16l-2.85-2.85a1.64,1.64,0,0,0-2.32,0L706.7,285.33a3.9,3.9,0,0,1-5.52-5.52l12.12-12.13a3.91,3.91,0,0,1,5.5,0h0a1.306,1.306,0,0,0,.17.21,1.62,1.62,0,0,0,1.18.56h.05a1.63,1.63,0,0,0,1.16-.48l2.87-2.86a1.65,1.65,0,0,0,0-2.28l-.06-.07-.22-.24a11.16,11.16,0,0,0-7.94-3.29Z" fill="#bbabf5"/>
      <path id="Trazado_102129" data-name="Trazado 102129" d="M746.33,241.7a9.55,9.55,0,0,1,6.77,2.81h0a9.58,9.58,0,0,1,0,13.55L741,270.18a9.57,9.57,0,0,1-13.55,0q-.33-.33-.63-.69l3.12-2.6c.12.15.23.3.36.44a5.56,5.56,0,0,0,7.85,0l12.12-12.12a5.547,5.547,0,1,0-7.84-7.85l-9.85,9.85-2.85-2.86,9.84-9.84a9.57,9.57,0,0,1,6.76-2.81Zm0-1.64a11.16,11.16,0,0,0-7.94,3.29l-9.84,9.84a1.64,1.64,0,0,0,0,2.32l2.85,2.86a1.64,1.64,0,0,0,2.32,0l9.85-9.85a3.907,3.907,0,0,1,5.52,5.53L737,266.17a3.92,3.92,0,0,1-5.53,0l-.1-.13-.14-.19a1.63,1.63,0,0,0-1.12-.59h-.16a1.63,1.63,0,0,0-1,.38l-3.12,2.6a1.63,1.63,0,0,0-.21,2.3,9.691,9.691,0,0,0,.73.81,11.21,11.21,0,0,0,15.87,0l12.12-12.12a11.23,11.23,0,0,0-7.93-19.16Z" fill="#bbabf5"/>
    </g>
    <g id="Grupo_54208" data-name="Grupo 54208">
      <path id="Trazado_102130" data-name="Trazado 102130" d="M725.14,246.25h0a1.51,1.51,0,0,1-1.51-1.51v-7.06a1.5,1.5,0,0,1,1.51-1.51h0a1.51,1.51,0,0,1,1.51,1.51v7.06a1.52,1.52,0,0,1-1.51,1.51Z" fill="#bbabf5"/>
      <path id="Trazado_102131" data-name="Trazado 102131" d="M725.14,246.66a1.92,1.92,0,0,1-1.92-1.92v-7.06a1.92,1.92,0,1,1,3.84,0v7.06a1.92,1.92,0,0,1-1.92,1.92Zm0-10.08a1.11,1.11,0,0,0-1.11,1.1v7.06a1.11,1.11,0,0,0,2.21,0v-7.06A1.1,1.1,0,0,0,725.14,236.58Z" fill="#bbabf5"/>
    </g>
    <g id="Grupo_54209" data-name="Grupo 54209">
      <path id="Trazado_102132" data-name="Trazado 102132" d="M714.8,249h0a1.5,1.5,0,0,1-2.06-.55l-3.53-6.12a1.51,1.51,0,0,1,.55-2.06h0a1.52,1.52,0,0,1,2.07.55l3.53,6.12a1.51,1.51,0,0,1-.56,2.06Z" fill="#bbabf5"/>
      <path id="Trazado_102133" data-name="Trazado 102133" d="M714.05,249.63a1.92,1.92,0,0,1-1.67-1l-3.53-6.11a1.922,1.922,0,1,1,3.33-1.92l3.53,6.11a1.93,1.93,0,0,1-.7,2.63A2,2,0,0,1,714.05,249.63Zm-3.54-9.14a1.14,1.14,0,0,0-.55.15,1.11,1.11,0,0,0-.4,1.51l3.53,6.11a1.1,1.1,0,0,0,1.91-1.1l-3.53-6.11a1.09,1.09,0,0,0-.96-.56Z" fill="#bbabf5"/>
    </g>
    <g id="Grupo_54210" data-name="Grupo 54210">
      <path id="Trazado_102134" data-name="Trazado 102134" d="M707.23,256.59h0a1.5,1.5,0,0,1-2.06.55l-6.12-3.53a1.5,1.5,0,0,1-.55-2.06h0a1.52,1.52,0,0,1,2.07-.56l6.11,3.53A1.52,1.52,0,0,1,707.23,256.59Z" fill="#bbabf5"/>
      <path id="Trazado_102135" data-name="Trazado 102135" d="M705.92,257.75a2,2,0,0,1-1-.25l-6.07-3.5a1.922,1.922,0,1,1,1.92-3.33l6.11,3.53a1.92,1.92,0,0,1-1,3.58Zm-6.11-6.55a1.1,1.1,0,0,0-.59,2.06l6.11,3.53a1.07,1.07,0,0,0,.84.11,1.14,1.14,0,0,0,.67-.51,1.11,1.11,0,0,0-.4-1.51l-6.12-3.53a1.08,1.08,0,0,0-.51-.15Z" fill="#bbabf5"/>
    </g>
    <g id="Grupo_54211" data-name="Grupo 54211">
      <path id="Trazado_102136" data-name="Trazado 102136" d="M725.14,287.6h0a1.52,1.52,0,0,1,1.51,1.51v7.06a1.52,1.52,0,0,1-1.51,1.52h0a1.51,1.51,0,0,1-1.51-1.52v-7.06A1.51,1.51,0,0,1,725.14,287.6Z" fill="#bbabf5"/>
      <path id="Trazado_102137" data-name="Trazado 102137" d="M725.14,298.09a1.92,1.92,0,0,1-1.92-1.92v-7.06a1.92,1.92,0,1,1,3.84,0v7.06a1.92,1.92,0,0,1-1.92,1.92Zm0-10.08a1.11,1.11,0,0,0-1.11,1.1v7.06a1.11,1.11,0,1,0,2.21,0v-7.06a1.1,1.1,0,0,0-1.1-1.11Z" fill="#bbabf5"/>
    </g>
    <g id="Grupo_54212" data-name="Grupo 54212">
      <path id="Trazado_102138" data-name="Trazado 102138" d="M735.48,284.83h0a1.51,1.51,0,0,1,2.06.55l3.53,6.12a1.5,1.5,0,0,1-.55,2.06h0a1.52,1.52,0,0,1-2.07-.55l-3.53-6.11a1.51,1.51,0,0,1,.56-2.07Z" fill="#bbabf5"/>
      <path id="Trazado_102139" data-name="Trazado 102139" d="M739.76,294.18a1.92,1.92,0,0,1-1.66-1l-3.53-6.12a1.922,1.922,0,1,1,3.33-1.92l3.53,6.11a1.93,1.93,0,0,1-.71,2.63A2,2,0,0,1,739.76,294.18ZM736.23,285a1.069,1.069,0,0,0-.55.14,1.1,1.1,0,0,0-.4,1.51l3.53,6.12a1.1,1.1,0,0,0,1.91-1.11l-3.53-6.11A1.1,1.1,0,0,0,736.23,285Z" fill="#bbabf5"/>
    </g>
    <g id="Grupo_54213" data-name="Grupo 54213">
      <path id="Trazado_102140" data-name="Trazado 102140" d="M743,277.26h0a1.52,1.52,0,0,1,2.07-.55l6.11,3.53a1.52,1.52,0,0,1,.56,2.07h0a1.52,1.52,0,0,1-2.07.55l-6.11-3.53A1.52,1.52,0,0,1,743,277.26Z" fill="#bbabf5"/>
      <path id="Trazado_102141" data-name="Trazado 102141" d="M750.46,283.47a1.84,1.84,0,0,1-1-.26l-6.12-3.53a1.92,1.92,0,0,1,.47-3.52,1.89,1.89,0,0,1,1.45.2l6.12,3.53a1.92,1.92,0,0,1-1,3.58Zm-6.1-6.55a1.08,1.08,0,0,0-1,.55,1.1,1.1,0,0,0,.4,1.51l6.11,3.53a1.17,1.17,0,0,0,.84.11,1.07,1.07,0,0,0,.67-.52,1.1,1.1,0,0,0-.4-1.51l-6.11-3.53a1.119,1.119,0,0,0-.51-.14Z" fill="#bbabf5"/>
    </g>
  </g>
</svg>
