<svg xmlns="http://www.w3.org/2000/svg" xmlns:xlink="http://www.w3.org/1999/xlink" width="402" height="402" viewBox="0 0 402 402">
  <defs>
    <linearGradient id="linear-gradient" x1="-0.04" y1="0.5" x2="1.04" y2="0.5" gradientUnits="objectBoundingBox">
      <stop offset="0" stop-color="#472ea6"/>
      <stop offset="1" stop-color="#6c58b8"/>
    </linearGradient>
    <linearGradient id="linear-gradient-2" x1="0.196" y1="0.668" x2="-0.224" y2="1.022" gradientUnits="objectBoundingBox">
      <stop offset="0" stop-color="#ef2a66"/>
      <stop offset="1" stop-color="#f25585"/>
    </linearGradient>
    <linearGradient id="linear-gradient-3" x1="-0.537" y1="1.71" x2="0.343" y2="0.683" xlink:href="#linear-gradient-2"/>
    <linearGradient id="linear-gradient-4" x1="-0.223" y1="1.216" x2="1.071" y2="-0.201" gradientUnits="objectBoundingBox">
      <stop offset="0" stop-color="#241753"/>
      <stop offset="1" stop-color="#6c58b8"/>
    </linearGradient>
    <linearGradient id="linear-gradient-5" x1="2.091" y1="-1.079" x2="0.626" y2="0.402" gradientUnits="objectBoundingBox">
      <stop offset="0" stop-color="#ff928e"/>
      <stop offset="1" stop-color="#feb3b1"/>
    </linearGradient>
    <linearGradient id="linear-gradient-6" x1="2.427" y1="-2.139" x2="0.733" y2="0.168" xlink:href="#linear-gradient-5"/>
    <linearGradient id="linear-gradient-7" x1="1.8" y1="-1.838" x2="0.424" y2="0.668" xlink:href="#linear-gradient-5"/>
    <linearGradient id="linear-gradient-8" x1="0.866" y1="-0.275" x2="0.418" y2="0.395" xlink:href="#linear-gradient-5"/>
    <linearGradient id="linear-gradient-9" x1="7.284" y1="-1.096" x2="6.447" y2="0.574" gradientUnits="objectBoundingBox">
      <stop offset="0" stop-color="#a22b25"/>
      <stop offset="1" stop-color="#c0423c"/>
    </linearGradient>
    <linearGradient id="linear-gradient-10" x1="0.823" y1="-0.072" x2="-0.037" y2="1.818" xlink:href="#linear-gradient-5"/>
    <linearGradient id="linear-gradient-11" x1="2.661" y1="-1.043" x2="-0.485" y2="1.087" xlink:href="#linear-gradient-5"/>
    <linearGradient id="linear-gradient-12" x1="1.79" y1="-0.14" x2="1.019" y2="0.232" xlink:href="#linear-gradient-4"/>
    <linearGradient id="linear-gradient-13" x1="1.839" y1="-2.343" x2="0.319" y2="0.424" xlink:href="#linear-gradient"/>
    <linearGradient id="linear-gradient-14" x1="1.449" y1="-1.206" x2="0.573" y2="0.39" xlink:href="#linear-gradient"/>
    <linearGradient id="linear-gradient-15" x1="2.343" y1="-0.143" x2="0.145" y2="0.624" xlink:href="#linear-gradient"/>
    <linearGradient id="linear-gradient-16" x1="0.078" y1="-0.523" x2="0.383" y2="0.223" xlink:href="#linear-gradient"/>
    <linearGradient id="linear-gradient-17" x1="0.46" y1="0.941" x2="0.287" y2="1.412" xlink:href="#linear-gradient-5"/>
    <linearGradient id="linear-gradient-18" x1="1.736" y1="-0.401" x2="1.109" y2="0.081" xlink:href="#linear-gradient-4"/>
    <linearGradient id="linear-gradient-19" x1="1.899" y1="-0.864" x2="1.113" y2="-0.153" xlink:href="#linear-gradient-4"/>
    <linearGradient id="linear-gradient-20" x1="0.212" y1="2.212" x2="0.041" y2="3.217" xlink:href="#linear-gradient-5"/>
    <linearGradient id="linear-gradient-21" x1="-0.488" y1="4.058" x2="-0.977" y2="5.942" xlink:href="#linear-gradient-5"/>
    <linearGradient id="linear-gradient-22" y1="0.5" x2="1" y2="0.5" gradientUnits="objectBoundingBox">
      <stop offset="0" stop-color="#dae3fe"/>
      <stop offset="1" stop-color="#e9effd"/>
    </linearGradient>
    <linearGradient id="linear-gradient-23" x1="0" y1="0.499" x2="1.003" y2="0.499" xlink:href="#linear-gradient-22"/>
    <linearGradient id="linear-gradient-24" x1="0" y1="0.499" x2="0.998" y2="0.499" xlink:href="#linear-gradient-22"/>
    <linearGradient id="linear-gradient-25" x1="0.002" y1="0.501" x2="0.998" y2="0.501" xlink:href="#linear-gradient-22"/>
    <linearGradient id="linear-gradient-26" x1="0.003" y1="0.493" x2="1.004" y2="0.493" xlink:href="#linear-gradient-22"/>
    <linearGradient id="linear-gradient-27" x1="-0.001" y1="0.501" x2="1.001" y2="0.501" xlink:href="#linear-gradient-22"/>
    <linearGradient id="linear-gradient-28" x1="-0.001" y1="0.499" x2="1.006" y2="0.499" xlink:href="#linear-gradient-22"/>
    <linearGradient id="linear-gradient-29" x1="0" y1="0.502" x2="0.998" y2="0.502" xlink:href="#linear-gradient-22"/>
  </defs>
  <g id="img3" transform="translate(0 0.001)">
    <g id="Layer_1" data-name="Layer 1">
      <rect id="Rectángulo_6276" data-name="Rectángulo 6276" width="402" height="402" transform="translate(0 -0.001)" fill="none"/>
      <g id="Grupo_56995" data-name="Grupo 56995" transform="translate(16.124 10.242)">
        <ellipse id="Elipse_4368" data-name="Elipse 4368" cx="168.806" cy="182.22" rx="168.806" ry="182.22" transform="translate(0 337.287) rotate(-87.49)" fill="url(#linear-gradient)"/>
        <g id="Grupo_56994" data-name="Grupo 56994" transform="translate(23.721 12.096)" opacity="0.68">
          <path id="Trazado_115472" data-name="Trazado 115472" d="M290.982,193.32q0,22.349-1.723,44.658-1.739,22.337-5.637,44.337a250.86,250.86,0,0,1-11.338,43.267,101.2,101.2,0,0,1-9.848,20.193,40.238,40.238,0,0,1-7.465,8.6,20.939,20.939,0,0,1-4.832,3.122,14.579,14.579,0,0,1-5.693,1.335,14.329,14.329,0,0,1-5.75-1.054,19.743,19.743,0,0,1-4.976-2.953,38.169,38.169,0,0,1-7.561-8.472,98.211,98.211,0,0,1-9.993-20.113,205.978,205.978,0,0,1-6.676-21.384c-1.86-7.241-3.43-14.521-4.775-21.859-2.7-14.666-4.534-29.477-5.782-44.329s-1.868-29.767-1.965-44.65c-.04-7.45.185-14.9.459-22.341s.709-14.883,1.272-22.317c1.127-14.851,2.794-29.67,5.266-44.369,1.24-7.353,2.69-14.666,4.421-21.923a210.642,210.642,0,0,1,6.265-21.481,97.429,97.429,0,0,1,9.574-20.25,36.9,36.9,0,0,1,7.392-8.512,18.935,18.935,0,0,1,4.9-2.92,13.87,13.87,0,0,1,5.637-.99,15.046,15.046,0,0,1,5.572,1.3,21.914,21.914,0,0,1,4.832,3,41.381,41.381,0,0,1,7.553,8.359,101.116,101.116,0,0,1,10.348,19.871C276,75.322,279.765,89.82,282.72,104.422a420.044,420.044,0,0,1,6.3,44.248Q290.95,170.939,290.982,193.32Zm-2.834,0c0-14.827-.523-29.654-1.747-44.433a429.194,429.194,0,0,0-5.741-44.071c-2.738-14.554-6.273-29.019-11.58-42.84a99.3,99.3,0,0,0-9.929-19.751A40.326,40.326,0,0,0,251.9,33.97a16.48,16.48,0,0,0-9.792-4.216,12.894,12.894,0,0,0-5.266,1.006,17.718,17.718,0,0,0-4.606,2.84,35.447,35.447,0,0,0-7.062,8.367,95.593,95.593,0,0,0-9.164,20.113,208.789,208.789,0,0,0-5.911,21.4c-1.611,7.241-2.955,14.481-4.091,21.851-4.477,29.324-5.911,59.051-5.806,88.689q-.081,22.237,1.514,44.441c1.1,14.787,2.778,29.534,5.315,44.128,1.264,7.3,2.746,14.562,4.526,21.722a204.009,204.009,0,0,0,6.394,21.239,96.857,96.857,0,0,0,9.639,19.855,37.066,37.066,0,0,0,7.151,8.182,14.873,14.873,0,0,0,9.663,3.749,15.845,15.845,0,0,0,9.55-4.191,38.976,38.976,0,0,0,7.006-8.319,99.944,99.944,0,0,0,9.454-19.92c4.993-13.91,8.262-28.423,10.8-43.009s4.179-29.349,5.291-44.136S288.156,208.147,288.148,193.32Z" transform="translate(-78.356 -27.968)" fill="#fff"/>
          <path id="Trazado_115473" data-name="Trazado 115473" d="M345.372,193.092a217.489,217.489,0,0,1-7.737,56.9,183.119,183.119,0,0,1-23.879,52.181c-10.705,15.905-24.338,30.016-40.625,40.226A107.759,107.759,0,0,1,247,354.333a98,98,0,0,1-56.815,0,107.879,107.879,0,0,1-26.156-11.818c-16.311-10.225-29.976-24.329-40.713-40.226a183.67,183.67,0,0,1-23.952-52.2,206.047,206.047,0,0,1-5.839-28.246,226.2,226.2,0,0,1-1.954-28.753,226.232,226.232,0,0,1,1.979-28.753,206,206,0,0,1,5.831-28.222,183.164,183.164,0,0,1,24-52.149c10.737-15.9,24.4-29.976,40.705-40.161A108.1,108.1,0,0,1,190.24,31.972a97.084,97.084,0,0,1,56.7,0A108.058,108.058,0,0,1,273.05,43.854c16.279,10.2,29.9,24.288,40.617,40.226a183.019,183.019,0,0,1,23.92,52.124,217.418,217.418,0,0,1,7.786,56.887Zm-3.217,0a214.409,214.409,0,0,0-7.343-56.139,182.127,182.127,0,0,0-22.906-51.714,147.752,147.752,0,0,0-17.694-22.172,123.8,123.8,0,0,0-21.9-18.013,105.741,105.741,0,0,0-25.737-11.907,93.972,93.972,0,0,0-55.971,0,105.952,105.952,0,0,0-25.681,11.931,123.337,123.337,0,0,0-21.853,18.029,147.789,147.789,0,0,0-17.63,22.2,182.127,182.127,0,0,0-22.826,51.7,208.207,208.207,0,0,0-5.477,27.8,217.068,217.068,0,0,0,0,56.558,209.61,209.61,0,0,0,5.525,27.82,181.974,181.974,0,0,0,22.866,51.65,148.143,148.143,0,0,0,17.646,22.14,122.713,122.713,0,0,0,21.853,17.925,106.033,106.033,0,0,0,25.649,11.883,93.273,93.273,0,0,0,55.858,0,106.314,106.314,0,0,0,25.681-11.859A123.424,123.424,0,0,0,294.1,322.965a148.872,148.872,0,0,0,17.694-22.14,182.119,182.119,0,0,0,22.946-51.634,214.3,214.3,0,0,0,7.383-56.1Z" transform="translate(-57.678 -27.74)" fill="#fff"/>
          <path id="Trazado_115474" data-name="Trazado 115474" d="M66.057,151.687c12.662-.185,25.316-.266,37.97-.395l37.97-.225c12.662-.1,25.316-.081,37.97-.113l37.97-.064,75.948.193,37.97.25c12.654.145,25.308.225,37.97.427a.141.141,0,0,1,0,.282c-12.662.2-25.316.282-37.97.427l-37.97.25-75.948.193-37.97-.064c-12.654,0-25.308,0-37.97-.113l-37.97-.225c-12.654-.129-25.308-.209-37.97-.395a.217.217,0,0,1,0-.427Z" transform="translate(-52.676 -51.814)" fill="#fff"/>
          <path id="Trazado_115475" data-name="Trazado 115475" d="M120.809,72.627c8.982-.177,17.964-.258,26.946-.395l26.946-.217c8.982-.1,17.964-.089,26.946-.121l26.946-.064,26.954.072c8.982.048,17.964,0,26.946.129l26.946.242c8.982.145,17.964.234,26.946.427a.137.137,0,0,1,.137.145.145.145,0,0,1-.137.145c-8.982.193-17.964.282-26.946.427l-26.946.242c-8.982.1-17.964.081-26.946.121l-26.954.081-26.946-.072c-8.982,0-17.964,0-26.946-.113l-26.946-.225c-8.982-.129-17.964-.209-26.946-.395a.213.213,0,0,1,0-.427Z" transform="translate(-63.332 -36.326)" fill="#fff"/>
          <path id="Trazado_115476" data-name="Trazado 115476" d="M49.657,230.745l41.272-.395,41.272-.225c13.757-.1,27.514-.089,41.272-.113l41.272-.072,82.551.2,41.272.242c13.757.145,27.514.234,41.272.427a.137.137,0,0,1,.137.145.145.145,0,0,1-.137.145c-13.757.193-27.514.282-41.272.427l-41.272.242-82.551.2-41.272-.064c-13.757,0-27.514,0-41.272-.121L90.929,231.6,49.657,231.2a.217.217,0,0,1,0-.427Z" transform="translate(-49.482 -67.268)" fill="#fff"/>
          <path id="Trazado_115477" data-name="Trazado 115477" d="M66.057,309.807c12.662-.185,25.316-.258,37.97-.395l37.97-.225c12.662-.089,25.316-.081,37.97-.113l37.97-.064,75.948.2,37.97.242c12.654.145,25.308.234,37.97.427a.145.145,0,0,1,0,.29c-12.662.193-25.316.274-37.97.427l-37.97.242-75.948.2-37.97-.072c-12.654,0-25.308,0-37.97-.113l-37.97-.242c-12.654-.129-25.308-.209-37.97-.395a.217.217,0,0,1,0-.427Z" transform="translate(-52.676 -82.725)" fill="#fff"/>
          <path id="Trazado_115478" data-name="Trazado 115478" d="M343.311,389.878H127.439a.749.749,0,1,1,0-1.5H343.311a.749.749,0,1,1,0,1.5Z" transform="translate(-64.684 -98.277)" fill="#fff"/>
        </g>
      </g>
      <g id="Grupo_56998" data-name="Grupo 56998" transform="translate(155.425 39.534)">
        <g id="Grupo_56996" data-name="Grupo 56996" transform="translate(14.127 3.72)">
          <path id="Trazado_115479" data-name="Trazado 115479" d="M303.165,53.719C288.3,53.6,273.3,55.955,260.035,61.448c-30.89,12.8-57.092,46.648-46.842,81.232,3.334,11.26,1.611,23.638,12.8,28.52,6.064,2.646,22.547,4.214,28.852,2.131,16.693-5.533,27.66-20.678,18.585-37.48-2.907-5.373-6.667-10.287-9.18-15.868s-3.656-12.185-1.1-17.742c5.025-10.9,21.742-14.364,32.532-14.035a37.857,37.857,0,0,1,31.26,17.541c8.568,13.488,10.734,29.9,9.486,45.563-1.345,16.753-8.423,29.549-19.02,42.4-9.123,11.067-19.181,21.716-25.245,34.689-5.564,11.927-7.384,25.142-7.642,38.2-.048,2.533-12.643,26.372-12.586,33.651,0,1.029,14.285,4.44,15.3,4.448l26.2.3a2.1,2.1,0,0,0,2.118-2.059c.395-35.437,11.274-69.216,38.934-93.015,10.05-8.654,20.872-15.708,28.691-26.638,11.137-15.579,16.637-30.909,15.05-50.131-1.449-17.557-7.247-35.131-18.7-48.747-12.328-14.646-30.366-23.791-49.1-27.732a138.165,138.165,0,0,0-27.266-2.952Z" transform="translate(-210.934 -53.715)" fill="#b3204d"/>
          <path id="Trazado_115480" data-name="Trazado 115480" d="M346.109,408.665c0,16.314-9.043,30.753-25.349,30.753-3.527,0-15.509,0-18.65-1.1-11.37-4.107-11.41-12.844-11.41-25.631,0-16.314,5.508-32.363,21.822-32.363S346.109,392.359,346.109,408.665Z" transform="translate(-226.468 -117.624)" fill="#ef2a66"/>
        </g>
        <g id="Grupo_56997" data-name="Grupo 56997">
          <path id="Trazado_115481" data-name="Trazado 115481" d="M285.624,49.1c-14.873-.121-29.867,2.236-43.137,7.737-30.882,12.8-57.092,46.648-46.834,81.232,3.334,11.26,11.04,25.383,22.241,30.265,6.072,2.638,13.126,2.469,19.407.386,16.693-5.533,27.66-20.686,18.585-37.479-2.907-5.381-6.667-10.295-9.18-15.868s-3.656-12.193-1.1-17.742c5.025-10.906,21.742-14.364,32.532-14.043a37.857,37.857,0,0,1,31.22,17.525c8.528,13.512,10.734,29.943,9.478,45.579-1.337,16.753-8.415,29.549-19.012,42.41-9.132,11.067-19.181,21.716-25.245,34.681-5.572,11.927-7.392,25.15-7.642,38.2-.048,2.525.805,28.954.862,36.193a1.891,1.891,0,0,0,1.868,1.874l26.2.29a2.093,2.093,0,0,0,2.118-2.059c.395-35.388,11.274-69.168,38.934-93.007,10.05-8.662,20.872-15.716,28.691-26.638,11.137-15.579,16.628-30.909,15.042-50.139-1.449-17.557-7.247-35.123-18.69-48.747C349.65,65.1,331.628,56,312.89,52.051A138.227,138.227,0,0,0,285.624,49.1Z" transform="translate(-193.391 -49.095)" fill="url(#linear-gradient-2)"/>
          <circle id="Elipse_4369" data-name="Elipse 4369" cx="29.537" cy="29.537" r="29.537" transform="translate(64.234 265.523)" fill="url(#linear-gradient-3)"/>
        </g>
        <path id="Trazado_115482" data-name="Trazado 115482" d="M208,136.894a.266.266,0,0,1-.25-.2c-2.061-9.325-2.367-23.924,7.916-40.536,10.05-16.226,24.158-27.081,41.873-32.267,18.972-5.548,41.5-4.364,66.965,3.527a.258.258,0,0,1-.153.491c-48.984-15.187-87.459-5.065-108.242,28.514-10.2,16.467-9.9,30.93-7.859,40.158a.25.25,0,0,1-.193.306Z" transform="translate(-195.963 -51.308)" fill="#fff" opacity="0.54"/>
        <path id="Trazado_115483" data-name="Trazado 115483" d="M215,171.962a.266.266,0,0,1-.209-.1,38.652,38.652,0,0,1-4.179-8.222.266.266,0,0,1,.145-.33.25.25,0,0,1,.33.153,38.875,38.875,0,0,0,4.115,8.093.242.242,0,0,1-.056.354A.209.209,0,0,1,215,171.962Z" transform="translate(-196.741 -71.421)" fill="#fff" opacity="0.54"/>
        <path id="Trazado_115484" data-name="Trazado 115484" d="M319.658,391.291h-.113a21.363,21.363,0,0,0-9.768-2.416.258.258,0,0,1,0-.515,21.942,21.942,0,0,1,10,2.416.258.258,0,0,1-.121.483Z" transform="translate(-216.007 -115.469)" fill="#fff" opacity="0.54"/>
        <path id="Trazado_115485" data-name="Trazado 115485" d="M292.259,429.568a.257.257,0,0,1-.145-.048,22.144,22.144,0,0,1,1.908-37.847.258.258,0,0,1,.346.1.25.25,0,0,1-.1.346,21.637,21.637,0,0,0-1.86,36.993.258.258,0,0,1,.064.354.25.25,0,0,1-.209.1Z" transform="translate(-210.719 -116.109)" fill="#fff" opacity="0.54"/>
      </g>
      <g id="Grupo_57002" data-name="Grupo 57002" transform="translate(65.728 46.402)">
        <path id="Trazado_115486" data-name="Trazado 115486" d="M102.64,209.065c6.531,81.709,29.239,152.3,26.573,192.641a6.225,6.225,0,0,0,3.809,6.176c24.311,10.082,51.061,14.446,81.065,5.242a8.858,8.858,0,0,0,6.209-8.544c-.652-64.791,35.117-130.685,15.155-206.572-7.545-2.915-27.862-4.469-45.3-3.463l-33.152,2.295C142.8,197.324,116.37,200.078,102.64,209.065Z" transform="translate(-85.803 -84.533)" fill="url(#linear-gradient-4)"/>
        <path id="Trazado_115487" data-name="Trazado 115487" d="M171.809,153.325l-5.862,42.461a.627.627,0,0,1-.072.354l-.145.6c-.33,2.078,20.776,16.242,37.267-3.06l-4.477-42.429c-.483-2.335-4.284-2.963-6.668-2.851l-15.485.749A4.832,4.832,0,0,0,171.809,153.325Z" transform="translate(-98.089 -75.379)" fill="url(#linear-gradient-5)"/>
        <g id="Grupo_56999" data-name="Grupo 56999" transform="translate(56.188)">
          <path id="Trazado_115488" data-name="Trazado 115488" d="M163.983,128.43s6.345-15.67.668-19.809-14.414-2.512-12.989,9.124C153.434,132.183,163.983,128.43,163.983,128.43Z" transform="translate(-151.508 -67.154)" fill="url(#linear-gradient-6)"/>
          <path id="Trazado_115489" data-name="Trazado 115489" d="M208.78,138.774s2.48-16.725,9.47-17.418,13.689,5.17,6.563,14.495C215.971,147.326,208.78,138.774,208.78,138.774Z" transform="translate(-162.661 -70.025)" fill="url(#linear-gradient-7)"/>
          <path id="Trazado_115490" data-name="Trazado 115490" d="M162.991,92.421c23.288-11.58,43.629-8.431,55.128,14.913-10.323,33.7-26.066,60.209-43.613,54.661C156.533,157.5,157.4,126.242,162.991,92.421Z" transform="translate(-153.052 -63.129)" fill="url(#linear-gradient-8)"/>
          <path id="Trazado_115491" data-name="Trazado 115491" d="M214.146,61.583a16.306,16.306,0,0,1,6.152,4.509,12.083,12.083,0,0,1,2.416,11.185c-.548,1.659-1.611,3.648-.7,5.355.749,1.449,2.9,2.617,3.857,4.107,1.86,2.883,1.538,6.74.129,9.872a22.651,22.651,0,0,1-5.637,7.851c-2.472,2-3.527,4.123-4.542,7.167-1.152,3.471-2.52,6.837-3.809,10.243-.862,2.279-.942,5.556-3.221,7.062a1.176,1.176,0,0,1-1.611-.177,1.747,1.747,0,0,1-.072-1.369c2.021-8.987,5.484-17.812,6.16-27.04a3.109,3.109,0,0,0-.29-1.8,3.27,3.27,0,0,0-.974-.934c-2.214-1.546-4.517-2.15-6.49-4.115-1.353-1.337-1.377-2.641-3.551-2.11a14.494,14.494,0,0,1-8.6-.548c-1.667-.644-3.422-1.611-5.146-1.119-1.329.387-2.247,1.562-3.3,2.472-4.679,4.026-11.41,2.915-16.975,2.279a1.135,1.135,0,0,0-.636,0,1.184,1.184,0,0,0-.5.668c-.5,1.208-.95,2.416-1.393,3.664q-1.949,5.339-3.9,10.67c-.5,1.385-.668,2.73-1.047,4.075a1.949,1.949,0,0,1-.878,1.272c-.169.081-1.611.217-1.562-.056q1.2-8.053,2.416-16.105c.886-5.983-2.786-11.708-2.714-17.716.048-4.115,2.045-8.576,5.911-9.993,1.836-.668,3.978-.628,5.516-1.828,1.184-.918,1.755-2.416,2.488-3.7a15.71,15.71,0,0,1,16.2-7.577c3.889.741,5.5,3.946,9.872,2.915a27.378,27.378,0,0,1,12.361-.483,21.058,21.058,0,0,1,4.067,1.3Z" transform="translate(-152.719 -57.624)" fill="url(#linear-gradient-9)"/>
        </g>
        <g id="Grupo_57000" data-name="Grupo 57000" transform="translate(22.279 111.526)">
          <path id="Trazado_115492" data-name="Trazado 115492" d="M133.527,372.6c16.339-.878,44.667-2.416,66.224-19.713,3.455,7.086,5.146,10.428,23.264,23.393a143.883,143.883,0,0,1-96.155,11.274Z" transform="translate(-112.799 -226.855)" fill="url(#linear-gradient-10)"/>
          <path id="Trazado_115493" data-name="Trazado 115493" d="M132.486,389.553a5.323,5.323,0,0,0,2.69-7.151c-2.166-4.574-5.87-11.733-8.818-14.028-2.81-2.19-6.184-3.334-9.3-4.96-1.143-.6-3.495-2.875-4.719-2.834-1.876.056-2.078,2.472-2.327,3.881a43.726,43.726,0,0,0,2.553,23.634,4.944,4.944,0,0,0,1.079,1.8,4.88,4.88,0,0,0,1.611.9,107.186,107.186,0,0,0,10.96,3.752,1.4,1.4,0,0,0,1.731-.99,12.408,12.408,0,0,1,.958-2.657C129.853,389.835,131.23,390.117,132.486,389.553Z" transform="translate(-109.398 -228.352)" fill="url(#linear-gradient-11)"/>
          <path id="Trazado_115494" data-name="Trazado 115494" d="M213.388,326.806a2.746,2.746,0,0,1,.709-4.107,27.435,27.435,0,0,0,9.236-9c11.652-19.093,14.221-58.18,14.221-58.18S226.28,193.424,253,196.484c0,0,49.29,16.427,9.864,120.522-2.883,7.61-15.413,23.473-23.2,29.521a2.279,2.279,0,0,1-2.553.129C227.81,341.018,219.975,334.786,213.388,326.806Z" transform="translate(-129.527 -196.374)" fill="url(#linear-gradient-12)"/>
        </g>
        <path id="Trazado_115495" data-name="Trazado 115495" d="M144.277,302.554a.926.926,0,0,1-.894-.66,174.678,174.678,0,0,0-13.391-30.269.29.29,0,0,1,.121-.395.282.282,0,0,1,.395.113,175.156,175.156,0,0,1,13.4,30.366.362.362,0,0,0,.693,0c3.221-11.724,9.124-23.352,14.438-33.249a.3.3,0,0,1,.523.274c-5.274,9.8-11.129,21.452-14.358,33.152a.942.942,0,0,1-.9.692Z" transform="translate(-91.123 -98.831)" fill="url(#linear-gradient-13)"/>
        <path id="Trazado_115496" data-name="Trazado 115496" d="M168.223,354.57a.274.274,0,0,1-.193-.081.29.29,0,0,1,0-.411c14.293-16.057,24.963-44.418,29.19-77.812a.3.3,0,0,1,.33-.258.29.29,0,0,1,.258.33c-4.276,33.515-14.97,62-29.335,78.11a.314.314,0,0,1-.25.121Z" transform="translate(-98.521 -100.363)" fill="url(#linear-gradient-14)"/>
        <path id="Trazado_115497" data-name="Trazado 115497" d="M125.344,260.665a.29.29,0,0,1-.29-.29c0-21.4-11.41-45.481-20.252-48.525a.29.29,0,0,1-.177-.378.282.282,0,0,1,.37-.177c4.389,1.506,9.494,8.053,13.689,17.41a81.185,81.185,0,0,1,6.982,31.671.29.29,0,0,1-.322.29Z" transform="translate(-86.186 -87.679)" fill="url(#linear-gradient-15)"/>
        <path id="Trazado_115498" data-name="Trazado 115498" d="M212.688,336.371a.33.33,0,0,1-.242-.113.306.306,0,0,1,.064-.419c8.359-6.16,14.921-17.716,18.98-33.394a157.572,157.572,0,0,0,4.276-45.6.306.306,0,0,1,.282-.314.29.29,0,0,1,.306.282,159.507,159.507,0,0,1-4.292,45.779c-4.091,15.815-10.734,27.475-19.2,33.724a.306.306,0,0,1-.177.056Z" transform="translate(-107.177 -96.552)" fill="url(#linear-gradient-16)"/>
        <g id="Grupo_57001" data-name="Grupo 57001" transform="translate(0 91.862)">
          <path id="Trazado_115499" data-name="Trazado 115499" d="M183.817,182.16l-2.472,18.158c-3.712,22.547-11.725,39.393-14.285,54.226.749-4.34,8.447,3.221,12.884,5.154,5.476,2.367,10.581,4.832,15.3,7.247,4.211-22.225,1.369-62.278,1.369-62.278C192.031,189.56,188.423,197.331,183.817,182.16Z" transform="translate(-98.349 -173.912)" fill="url(#linear-gradient-17)"/>
          <path id="Trazado_115500" data-name="Trazado 115500" d="M98.568,212.459c-35.947,31.856-9.14,119.065,31.695,139.236a3.3,3.3,0,0,0,1.611.322c34.054-1.949,7.7-49.08-10.75-90.285a3.407,3.407,0,0,1-.29-1.28c-.411-19.254-5.588-34.489-17.716-47.752A3.31,3.31,0,0,0,98.568,212.459Z" transform="translate(-81.731 -179.659)" fill="url(#linear-gradient-18)"/>
          <path id="Trazado_115501" data-name="Trazado 115501" d="M143.263,362.965c28.715-1.015,44.917-59.838,48.533-88.28a1.208,1.208,0,0,0-1.61-1.272c-7.795,2.987-17.394-.29-27.459-5.556a1.208,1.208,0,0,0-1.675.6c-8.286,20.131-22.3,47.131-22.362,57.109a.807.807,0,0,0,0,.137l3.358,36.164a1.2,1.2,0,0,0,1.216,1.1Z" transform="translate(-92.823 -190.574)" fill="url(#linear-gradient-19)"/>
          <path id="Trazado_115502" data-name="Trazado 115502" d="M181.027,207.889c-2.327-8.479-5.443-17.885-3.31-21.106,5.967-7.32,14.672-11.861,19.391-14.309,7.73-2.053,7.062,9.816,10.219,21.251,2.15,3.116-3.173,10.742-8.262,18.239Z" transform="translate(-100.285 -171.98)" fill="url(#linear-gradient-20)"/>
          <path id="Trazado_115503" data-name="Trazado 115503" d="M176.491,193.09c-2.8-4.123-1.667-17.466-5.677-20.051-.33-.209-.064-.749.314-.805,2.416-.435,4.96-.612,6.249.757s1.667,6.442,4.026,8.745Z" transform="translate(-99.05 -171.917)" fill="url(#linear-gradient-21)"/>
        </g>
      </g>
      <g id="Grupo_57019" data-name="Grupo 57019" transform="translate(223.034 63.469)">
        <g id="Grupo_57006" data-name="Grupo 57006" transform="translate(33.523 0.54)">
          <g id="Grupo_57003" data-name="Grupo 57003" transform="translate(25.357)">
            <path id="Trazado_115504" data-name="Trazado 115504" d="M350.39,80.946a.588.588,0,0,1,.459-.523l.918-.185a.58.58,0,0,1,.676.467.572.572,0,0,1-.459.668l-.894.185a.58.58,0,0,1-.684-.443A.6.6,0,0,1,350.39,80.946Z" transform="translate(-350.389 -79.698)" fill="#fd8f25"/>
            <path id="Trazado_115505" data-name="Trazado 115505" d="M355.282,80.214a.588.588,0,0,1,.523-.531c.636-.056,1.288-.1,1.925-.113a.58.58,0,1,1,0,1.16c-.612,0-1.24.048-1.852.1a.58.58,0,0,1-.628-.523Zm4.952-.056a.58.58,0,0,1,.62-.531h.2a15.117,15.117,0,0,1,1.707.161.58.58,0,0,1-.137,1.152c-.548-.072-1.1-.121-1.651-.161h-.2a.58.58,0,0,1-.54-.612Zm4.9.7a.241.241,0,0,1,0-.081.572.572,0,0,1,.684-.443c.628.137,1.256.3,1.868.467a.58.58,0,0,1,.395.717.572.572,0,0,1-.709.395c-.6-.169-1.2-.314-1.8-.451A.58.58,0,0,1,365.139,80.858Zm4.743,1.474a.628.628,0,0,1,0-.169.58.58,0,0,1,.749-.33c.6.234,1.192.483,1.772.749a.58.58,0,1,1-.483,1.055c-.556-.258-1.135-.5-1.707-.725a.564.564,0,0,1-.33-.58Zm4.493,2.11a.556.556,0,0,1,.072-.25.572.572,0,0,1,.805-.209c.556.322,1.1.66,1.611,1.015a.572.572,0,0,1,.169.805.588.588,0,0,1-.805.169c-.515-.346-1.047-.676-1.611-.982A.58.58,0,0,1,374.375,84.442Zm4.026,2.81a.563.563,0,0,1,.129-.322.58.58,0,0,1,.805-.089c.5.4.99.805,1.458,1.256a.587.587,0,1,1-.805.854c-.451-.411-.926-.805-1.4-1.208a.588.588,0,0,1-.185-.491Zm3.6,3.406a.572.572,0,0,1,.185-.387.58.58,0,0,1,.805,0c.427.475.845.966,1.248,1.458a.58.58,0,1,1-.9.725c-.387-.475-.805-.95-1.208-1.409a.6.6,0,0,1-.113-.387Zm3.036,3.914a.6.6,0,0,1,.258-.443.58.58,0,0,1,.805.161c.346.54.684,1.087,1.007,1.61a.58.58,0,1,1-1,.58c-.306-.531-.636-1.063-.974-1.57a.6.6,0,0,1-.08-.338Zm2.416,4.332a.588.588,0,0,1,.338-.491.58.58,0,0,1,.765.29c.266.58.515,1.176.749,1.763a.58.58,0,1,1-1.079.427c-.217-.58-.467-1.152-.717-1.707a.523.523,0,0,1-.056-.282Zm-1.884,30.31a.564.564,0,0,1,.081-.266c.322-.515.636-1.063.934-1.611a.58.58,0,0,1,1.015.548c-.306.564-.628,1.127-.966,1.667a.573.573,0,0,1-1.063-.338Zm3.6-25.671a.58.58,0,0,1,1.127-.113c.177.612.33,1.24.467,1.86a.58.58,0,1,1-1.127.25c-.129-.6-.282-1.2-.451-1.8a.556.556,0,0,1-.016-.2Zm-1.329,21.275a.474.474,0,0,1,0-.185c.242-.572.467-1.152.668-1.731a.581.581,0,0,1,1.1.387c-.217.6-.451,1.2-.693,1.8a.588.588,0,0,1-.757.306.572.572,0,0,1-.314-.572Zm2.3-16.419a.572.572,0,1,1,1.143,0c.081.628.137,1.272.177,1.908a.58.58,0,1,1-1.152.072c-.04-.612-.1-1.232-.169-1.844A.265.265,0,0,1,390.142,108.4Zm-.741,11.716a.4.4,0,0,1,0-.1c.153-.6.282-1.208.395-1.812a.588.588,0,0,1,.685-.443.58.58,0,0,1,.459.676c-.113.628-.25,1.264-.411,1.876a.58.58,0,0,1-.7.427.588.588,0,0,1-.427-.628Zm.95-6.772a.572.572,0,0,1,.6-.531.564.564,0,0,1,.556.6,19.148,19.148,0,0,1-.121,1.917.572.572,0,0,1-.628.523.588.588,0,0,1-.523-.628c.056-.62.1-1.24.121-1.852Z" transform="translate(-351.336 -79.57)" fill="#fd8f25"/>
            <path id="Trazado_115506" data-name="Trazado 115506" d="M390,144.973a.62.62,0,0,1,.129-.322c.193-.234.378-.475.564-.717a.58.58,0,1,1,.918.7l-.58.741a.58.58,0,0,1-.805.089A.6.6,0,0,1,390,144.973Z" transform="translate(-358.103 -92.052)" fill="#fd8f25"/>
          </g>
          <g id="Grupo_57004" data-name="Grupo 57004" transform="translate(0 10.842)">
            <path id="Trazado_115507" data-name="Trazado 115507" d="M362.9,159.845a.58.58,0,0,1,.515-.531l.9-.1a.58.58,0,1,1,.145,1.152l-.934.1a.58.58,0,0,1-.628-.515.234.234,0,0,1,0-.1Z" transform="translate(-327.467 -105.92)" fill="#fd8f25"/>
            <path id="Trazado_115508" data-name="Trazado 115508" d="M319.029,112.778h0c.056-.556.121-1.119.193-1.675v-.2a.58.58,0,1,1,1.143.169v.193c-.081.531-.145,1.079-.193,1.611a.58.58,0,0,1-1.152-.1Zm-.129,3.02a.58.58,0,0,1,1.151,0,17.189,17.189,0,0,0,.064,1.82.581.581,0,1,1-1.16.072c0-.628-.056-1.264-.056-1.892Zm.926-7.827v-.1c.153-.612.322-1.224.507-1.828a.572.572,0,0,1,.717-.378.58.58,0,0,1,.387.725c-.177.572-.338,1.168-.483,1.755a.58.58,0,0,1-1.143-.177Zm-.54,12.683a.572.572,0,0,1,.483-.531.588.588,0,0,1,.668.483c.089.6.2,1.2.33,1.8a.572.572,0,0,1-.443.684.58.58,0,0,1-.684-.443c-.137-.612-.25-1.24-.346-1.86A.692.692,0,0,1,319.286,120.653Zm2.053-17.321a.7.7,0,0,1,.04-.177,18.506,18.506,0,0,1,.805-1.723.58.58,0,1,1,1.047.5q-.4.805-.749,1.667a.58.58,0,0,1-.757.314.588.588,0,0,1-.386-.58Zm-.934,22.064a.58.58,0,0,1,1.127-.137c.185.58.387,1.16.6,1.723a.58.58,0,1,1-1.079.411c-.225-.588-.435-1.184-.628-1.78a1,1,0,0,1-.024-.217Zm3.132-26.412a.6.6,0,0,1,.081-.258c.33-.54.676-1.071,1.031-1.611a.58.58,0,1,1,.95.652c-.338.5-.676,1.015-.99,1.538a.58.58,0,0,1-.805.193.588.588,0,0,1-.266-.515Zm-1.337,30.93a.58.58,0,0,1,1.1-.217c.266.54.556,1.087.854,1.61a.572.572,0,0,1-.217.805.588.588,0,0,1-.805-.217c-.306-.548-.6-1.1-.886-1.667A.564.564,0,0,1,322.2,129.914Zm2.488,4.187a.572.572,0,0,1,.242-.435.588.588,0,0,1,.805.145c.346.5.717.99,1.087,1.466a.57.57,0,1,1-.894.709,16.484,16.484,0,0,1-1.127-1.522.571.571,0,0,1-.081-.362Zm3.149,3.769a.555.555,0,0,1,.177-.37.58.58,0,0,1,.805,0c.419.435.854.87,1.3,1.288a.572.572,0,0,1,0,.805.564.564,0,0,1-.805,0c-.459-.427-.91-.878-1.345-1.329a.572.572,0,0,1-.129-.395Zm3.624,3.269a.588.588,0,0,1,.121-.314.58.58,0,0,1,.805-.1c.483.37.974.733,1.482,1.071a.58.58,0,0,1,.145.805.572.572,0,0,1-.805.153c-.523-.354-1.039-.733-1.538-1.111a.588.588,0,0,1-.242-.5Zm4.066,2.681a.6.6,0,0,1,.073-.242.58.58,0,0,1,.805-.225c.531.29,1.079.572,1.611.805a.58.58,0,0,1,.266.805.572.572,0,0,1-.805.266c-.564-.266-1.127-.564-1.683-.862a.6.6,0,0,1-.3-.548Zm4.437,2.029a.524.524,0,0,1,0-.161.588.588,0,0,1,.741-.346c.572.209,1.152.411,1.731.58a.581.581,0,1,1-.338,1.111c-.6-.185-1.2-.387-1.788-.6a.572.572,0,0,1-.395-.58Zm4.687,1.329v-.072a.58.58,0,0,1,.685-.451c.6.121,1.2.225,1.8.314a.58.58,0,0,1-.161,1.143c-.628-.089-1.248-.2-1.868-.322a.6.6,0,0,1-.483-.612Zm4.832.62a.588.588,0,0,1,.612-.539c.6,0,1.216.048,1.82,0a.588.588,0,0,1,.588.58.58.58,0,0,1-.58.58h-1.892a.588.588,0,0,1-.548-.612Z" transform="translate(-318.9 -93.769)" fill="#fd8f25"/>
            <path id="Trazado_115509" data-name="Trazado 115509" d="M328.2,94.271a.564.564,0,0,1,.129-.33l.612-.717a.593.593,0,0,1,.87.805c-.2.225-.4.451-.6.684a.58.58,0,0,1-.805.072A.572.572,0,0,1,328.2,94.271Z" transform="translate(-320.71 -93.034)" fill="#fd8f25"/>
          </g>
          <g id="Grupo_57005" data-name="Grupo 57005" transform="translate(8.134 7.908)">
            <path id="Trazado_115510" data-name="Trazado 115510" d="M337.335,95.647a.378.378,0,0,0-.145.419l1.3,4.517a20.468,20.468,0,0,0-3.559,5.637l-4.638.749a.4.4,0,0,0-.322.314l-.966,5.556a.37.37,0,0,0,.193.4l4.115,2.279a20.422,20.422,0,0,0,1.449,6.442l-2.754,3.809a.387.387,0,0,0,0,.451l3.221,4.614a.37.37,0,0,0,.419.145l4.517-1.3a20.47,20.47,0,0,0,5.637,3.559l.749,4.638a.4.4,0,0,0,.314.322l5.556.966a.378.378,0,0,0,.4-.193l2.279-4.115a20.421,20.421,0,0,0,6.442-1.449l3.809,2.754a.387.387,0,0,0,.451,0l4.614-3.221a.386.386,0,0,0,.145-.419l-1.3-4.542a20.471,20.471,0,0,0,3.559-5.637l4.638-.749a.4.4,0,0,0,.322-.314l.966-5.556a.378.378,0,0,0-.193-.4l-4.115-2.271a20.423,20.423,0,0,0-1.449-6.442l2.754-3.809a.386.386,0,0,0,0-.451l-3.221-4.614a.387.387,0,0,0-.419-.145l-4.517,1.3a20.47,20.47,0,0,0-5.637-3.559l-.741-4.646a.4.4,0,0,0-.314-.322L355.34,89.4a.37.37,0,0,0-.4.193l-2.279,4.115a20.422,20.422,0,0,0-6.442,1.449L342.408,92.4a.386.386,0,0,0-.451,0Z" transform="translate(-329.001 -89.391)" fill="#fd8f25"/>
            <path id="Trazado_115511" data-name="Trazado 115511" d="M353.127,118.574a5.467,5.467,0,1,1,0,.8A6.845,6.845,0,0,1,353.127,118.574Zm9.993.733a4.626,4.626,0,0,0,0-.668,4.506,4.506,0,1,0,0,.676Z" transform="translate(-333.697 -94.087)" fill="url(#linear-gradient-22)"/>
            <path id="Trazado_115512" data-name="Trazado 115512" d="M342.851,116.1a8.419,8.419,0,0,1,.169-1.4,14.8,14.8,0,0,1,.515-2.037h0v-.089h0v-.056h0a.6.6,0,0,1,.04-.129v-.048l.1-.266a.869.869,0,0,1,.064-.153.217.217,0,0,1,.225-.145h.072a.225.225,0,0,1,.129.3,13.385,13.385,0,1,0,14.7-8.141,12.931,12.931,0,0,0-1.353-.169,13.432,13.432,0,0,0-5.741.854.23.23,0,1,1-.169-.427,13.842,13.842,0,1,1,4.026,26.726q-.685-.048-1.4-.169A13.866,13.866,0,0,1,342.851,116.1Z" transform="translate(-331.691 -92.092)" fill="url(#linear-gradient-23)"/>
          </g>
        </g>
        <g id="Grupo_57010" data-name="Grupo 57010" transform="translate(14.422 52.696)">
          <path id="Trazado_115513" data-name="Trazado 115513" d="M302.2,151.737a.177.177,0,0,0-.056.209l.805,2.094a9.791,9.791,0,0,0-1.482,2.794l-2.174.531a.177.177,0,0,0-.137.161l-.25,2.673a.193.193,0,0,0,.1.185l2.037.918a10.066,10.066,0,0,0,.934,3.02l-1.16,1.917a.185.185,0,0,0,0,.209l1.715,2.07a.185.185,0,0,0,.2.056l2.1-.805a9.718,9.718,0,0,0,2.786,1.474l.531,2.174a.193.193,0,0,0,.161.137l2.673.25a.177.177,0,0,0,.185-.1l.926-2.037a9.76,9.76,0,0,0,3.02-.934l1.908,1.168a.193.193,0,0,0,.217,0l2.061-1.715a.177.177,0,0,0,.056-.209l-.805-2.094a9.791,9.791,0,0,0,1.482-2.794l2.166-.531a.177.177,0,0,0,.145-.161l.25-2.673a.185.185,0,0,0-.113-.185l-2.037-.918a9.664,9.664,0,0,0-.934-3.02l1.2-1.941a.185.185,0,0,0,0-.209l-1.715-2.07a.185.185,0,0,0-.2-.056l-2.1.805a9.663,9.663,0,0,0-2.794-1.474l-.523-2.174a.2.2,0,0,0-.161-.137l-2.673-.25a.177.177,0,0,0-.185.1l-.918,2.045a9.664,9.664,0,0,0-3.02.934l-1.908-1.168a.193.193,0,0,0-.217,0Z" transform="translate(-295.905 -145.07)" fill="#fd8f25"/>
          <path id="Trazado_115514" data-name="Trazado 115514" d="M310.428,162.012a2.528,2.528,0,0,1,.491-1.329,2.561,2.561,0,0,1,1.683-1.031,2.588,2.588,0,1,1-2.15,2.947,2.417,2.417,0,0,1-.024-.588Zm4.751.346a2.022,2.022,0,0,0,0-.491,2.241,2.241,0,1,0,.016.491Z" transform="translate(-298.147 -147.316)" fill="url(#linear-gradient-24)"/>
          <g id="Grupo_57009" data-name="Grupo 57009">
            <g id="Grupo_57007" data-name="Grupo 57007" transform="translate(7.351)" opacity="0.64">
              <path id="Trazado_115515" data-name="Trazado 115515" d="M304.31,146.971a.467.467,0,0,1,.25-.395l.717-.378a.493.493,0,1,1,.435.886l-.676.346a.491.491,0,0,1-.668-.185A.483.483,0,0,1,304.31,146.971Z" transform="translate(-304.308 -144.692)" fill="#fd8f25"/>
              <path id="Trazado_115516" data-name="Trazado 115516" d="M308,145.379a.483.483,0,0,1,.354-.435c.491-.145,1-.266,1.506-.362a.491.491,0,0,1,.572.4.483.483,0,0,1-.395.564,13.817,13.817,0,0,0-1.409.338.491.491,0,0,1-.612-.338A.4.4,0,0,1,308,145.379Zm3.873-.58a.5.5,0,0,1,.483-.459H313.9a.491.491,0,1,1-.089.974h-1.441a.491.491,0,0,1-.5-.483Zm3.889.483a.347.347,0,0,1,0-.089.491.491,0,0,1,.6-.346,14.257,14.257,0,0,1,1.474.475.492.492,0,0,1-.354.918,13.751,13.751,0,0,0-1.377-.451.483.483,0,0,1-.354-.507Zm3.616,1.522a.452.452,0,0,1,.064-.217.491.491,0,0,1,.676-.169,14.868,14.868,0,0,1,1.288.854.5.5,0,0,1-.588.805,13.623,13.623,0,0,0-1.208-.805.491.491,0,0,1-.242-.467Zm3.068,2.416a.451.451,0,0,1,.153-.314.483.483,0,0,1,.693,0c.354.37.693.805,1.015,1.176a.5.5,0,1,1-.805.6,13.508,13.508,0,0,0-.942-1.1.483.483,0,0,1-.121-.354Zm2.3,3.173a.491.491,0,0,1,.918-.193,12.379,12.379,0,0,1,.66,1.4.491.491,0,1,1-.91.37,12.956,12.956,0,0,0-.612-1.313.443.443,0,0,1-.064-.25Zm1.353,3.672a.491.491,0,0,1,.974-.064c.064.306.121.62.169.926s.056.4.081.6a.491.491,0,1,1-.974.113l-.072-.556c-.048-.29-.1-.588-.169-.87a.867.867,0,0,1-.016-.129Zm.161,5.4a.088.088,0,0,1,0-.04c.072-.475.129-.958.153-1.433a.483.483,0,0,1,.515-.467.491.491,0,0,1,.467.515,9.883,9.883,0,0,1-.169,1.538.49.49,0,0,1-.974-.1Z" transform="translate(-305.026 -144.34)" fill="#fd8f25"/>
              <path id="Trazado_115517" data-name="Trazado 115517" d="M329.592,169.2a.346.346,0,0,1,0-.153c.1-.234.185-.475.266-.709a.491.491,0,0,1,.926.314c-.089.258-.177.515-.282.765a.491.491,0,0,1-.942-.217Z" transform="translate(-309.225 -148.958)" fill="#fd8f25"/>
            </g>
            <g id="Grupo_57008" data-name="Grupo 57008" transform="translate(0 8.394)" opacity="0.64">
              <path id="Trazado_115518" data-name="Trazado 115518" d="M319.47,179.276a.475.475,0,0,1,.314-.419c.234-.1.475-.193.7-.3a.491.491,0,0,1,.652.25.483.483,0,0,1-.25.644c-.242.113-.5.217-.749.314a.491.491,0,0,1-.636-.282A.6.6,0,0,1,319.47,179.276Z" transform="translate(-299.909 -159.39)" fill="#fd8f25"/>
              <path id="Trazado_115519" data-name="Trazado 115519" d="M295.18,160.994a14.708,14.708,0,0,1,.217-1.691.5.5,0,0,1,.58-.395.483.483,0,0,1,.387.572,15.1,15.1,0,0,0-.2,1.611h0a.493.493,0,0,1-.982-.072h0Zm.064,2.722a.491.491,0,0,1,.982,0,1.376,1.376,0,0,0,.064.507c.056.362.129.725.209,1.079a.491.491,0,0,1-.362.588.483.483,0,0,1-.588-.362,11.188,11.188,0,0,1-.225-1.152,4.275,4.275,0,0,0-.081-.548Zm1.16,4.2a.491.491,0,0,1,.934-.169,14.065,14.065,0,0,0,.741,1.425.491.491,0,0,1-.805.507,16.172,16.172,0,0,1-.805-1.53.411.411,0,0,1-.064-.234Zm2.359,3.656a.491.491,0,0,1,.862-.29,14.988,14.988,0,0,0,1.127,1.135.491.491,0,0,1-.652.733,14.442,14.442,0,0,1-1.216-1.216.507.507,0,0,1-.121-.362Zm3.35,2.786a.435.435,0,0,1,.072-.217.491.491,0,0,1,.668-.169,14.141,14.141,0,0,0,1.425.749.491.491,0,0,1,.242.652.483.483,0,0,1-.644.242,15.3,15.3,0,0,1-1.53-.805.5.5,0,0,1-.233-.451Zm4.026,1.659v-.081a.491.491,0,0,1,.6-.362,12.961,12.961,0,0,0,1.61.29.491.491,0,1,1-.121.974,13.543,13.543,0,0,1-1.691-.306.491.491,0,0,1-.395-.515Zm4.348.443a.089.089,0,0,1,0-.064.491.491,0,0,1,.451-.459,8.237,8.237,0,0,0,1.232-.137l.37-.064a.491.491,0,1,1,.209.958l-.4.072q-.652.1-1.3.145a.491.491,0,0,1-.556-.451Z" transform="translate(-295.178 -155.57)" fill="#fd8f25"/>
              <path id="Trazado_115520" data-name="Trazado 115520" d="M296.379,155.945a.467.467,0,0,1,0-.145c.1-.25.209-.5.322-.749a.492.492,0,1,1,.894.411c-.1.234-.209.467-.3.7a.5.5,0,0,1-.644.274.491.491,0,0,1-.274-.491Z" transform="translate(-295.411 -154.764)" fill="#fd8f25"/>
            </g>
          </g>
          <path id="Trazado_115521" data-name="Trazado 115521" d="M305.34,160.734v-.145h0a6.289,6.289,0,0,1,.282-1.393.193.193,0,0,1,.2-.137h0a.2.2,0,0,1,.129.25,6.442,6.442,0,0,0-.258,1.3,6.281,6.281,0,0,0,5.637,6.845h.137a6.282,6.282,0,1,0,1.031-12.522h-.137a6.273,6.273,0,0,0-3.157.6.137.137,0,0,1-.1,0,.185.185,0,0,1-.169-.1.2.2,0,0,1,.1-.266,6.684,6.684,0,0,1,3.358-.636h.145a6.692,6.692,0,1,1-1.039,13.343h-.145a6.676,6.676,0,0,1-6.039-7.118Z" transform="translate(-297.149 -146.32)" fill="url(#linear-gradient-25)"/>
        </g>
        <g id="Grupo_57014" data-name="Grupo 57014">
          <g id="Grupo_57011" data-name="Grupo 57011" transform="translate(10.968)">
            <path id="Trazado_115522" data-name="Trazado 115522" d="M290.89,79.481a.234.234,0,0,1,.185-.209l.572-.113a.225.225,0,0,1,.266.185.217.217,0,0,1-.185.266l-.556.113a.234.234,0,0,1-.274-.177A.2.2,0,0,1,290.89,79.481Z" transform="translate(-290.89 -78.95)" fill="#fd8f25"/>
            <path id="Trazado_115523" data-name="Trazado 115523" d="M293,79.166a.233.233,0,0,1,.209-.209c.387,0,.805-.056,1.168-.056a.234.234,0,0,1,.234.225.225.225,0,0,1-.234.234,7.448,7.448,0,0,0-1.119.056.233.233,0,0,1-.258-.209Zm2.287,0h0a.233.233,0,0,1,.25-.209,6.134,6.134,0,0,1,.942.1h.217a.242.242,0,0,1,.193.266.233.233,0,0,1-.266.193h-.209c-.3,0-.6-.072-.91-.1a.234.234,0,0,1-.217-.274Zm2.263.354a.217.217,0,0,1,.274-.169c.378.089.757.193,1.119.314a.225.225,0,0,1,.145.29.234.234,0,0,1-.29.153c-.354-.121-.717-.225-1.079-.314a.225.225,0,0,1-.169-.29Zm2.166.717a.26.26,0,0,1,0-.072.234.234,0,0,1,.3-.121c.362.153.709.314,1.055.5a.234.234,0,1,1-.217.411,10.993,10.993,0,0,0-1.015-.483.25.25,0,0,1-.121-.25Zm2.029,1.063a.266.266,0,0,1,0-.1.242.242,0,0,1,.322-.072c.322.209.644.435.958.668a.234.234,0,0,1-.282.37c-.3-.225-.612-.443-.926-.644a.234.234,0,0,1-.072-.234Zm1.82,1.385a.29.29,0,0,1,.056-.137.234.234,0,0,1,.33,0,8.446,8.446,0,0,1,.805.805.234.234,0,0,1-.338.314c-.258-.274-.531-.54-.805-.805a.266.266,0,0,1-.048-.193Zm1.57,1.659a.266.266,0,0,1,.089-.161.242.242,0,0,1,.33,0c.242.306.475.62.685.942a.233.233,0,0,1-.056.322.242.242,0,0,1-.3-.024c-.209-.314-.435-.612-.668-.91a.25.25,0,0,1-.081-.185Zm1.288,1.892a.217.217,0,0,1,.113-.185.242.242,0,0,1,.314.089q.29.507.531,1.039a.231.231,0,0,1-.419.193c-.161-.338-.33-.676-.515-1a.2.2,0,0,1-.024-.145Zm-.29,14.181a.267.267,0,0,1,0-.1c.193-.314.387-.644.556-.974a.225.225,0,0,1,.306-.1.242.242,0,0,1,.1.314c-.177.346-.37.684-.572,1.015a.242.242,0,0,1-.322.072.234.234,0,0,1-.073-.234Zm1.24-12.079a.234.234,0,0,1,.451-.056c.129.362.25.733.354,1.1a.234.234,0,0,1-.161.282.226.226,0,0,1-.29-.161c-.1-.354-.209-.717-.338-1.071a.4.4,0,0,1-.016-.137Zm-.2,10.066a.153.153,0,0,1,0-.064c.137-.346.274-.7.387-1.063a.229.229,0,0,1,.435.145c-.113.362-.25.733-.395,1.087a.225.225,0,0,1-.3.129.234.234,0,0,1-.129-.274Zm.805-7.859a.233.233,0,0,1,.193-.209.225.225,0,0,1,.266.185c.072.378.129.805.169,1.152a.231.231,0,0,1-.459.048c-.04-.378-.1-.749-.161-1.119a.137.137,0,0,1-.008-.1Zm-.113,5.685v-.04c.081-.362.153-.733.209-1.1a.217.217,0,0,1,.258-.193.226.226,0,0,1,.2.258,11.108,11.108,0,0,1-.217,1.143.228.228,0,0,1-.451-.064Zm.346-3.414a.225.225,0,0,1,.225-.209.242.242,0,0,1,.242.225v1.16h0a.234.234,0,0,1-.459,0V92.863Z" transform="translate(-291.301 -78.9)" fill="#fd8f25"/>
            <path id="Trazado_115524" data-name="Trazado 115524" d="M308.06,107.2a.282.282,0,0,1,.048-.129l.354-.443a.225.225,0,0,1,.322-.048.242.242,0,0,1,.048.322l-.362.467a.234.234,0,0,1-.322,0A.226.226,0,0,1,308.06,107.2Z" transform="translate(-294.234 -84.281)" fill="#fd8f25"/>
          </g>
          <g id="Grupo_57012" data-name="Grupo 57012" transform="translate(0 4.716)">
            <path id="Trazado_115525" data-name="Trazado 115525" d="M296.09,113.684a.234.234,0,0,1,.209-.209l.564-.064a.234.234,0,0,1,.064.459l-.588.064a.225.225,0,0,1-.25-.209Z" transform="translate(-280.934 -90.336)" fill="#fd8f25"/>
            <path id="Trazado_115526" data-name="Trazado 115526" d="M277.286,93.551a2.584,2.584,0,0,1,.056-.66.242.242,0,0,1,.258-.209.234.234,0,0,1,.2.258c0,.217-.048.443-.056.644s0,.314,0,.459a.233.233,0,0,1-.242.225.242.242,0,0,1-.226-.242A2.351,2.351,0,0,1,277.286,93.551Zm0,1.611a.234.234,0,0,1,.459,0,8.376,8.376,0,0,0,.1,1.1.234.234,0,0,1-.2.258.225.225,0,0,1-.258-.2c-.048-.378-.081-.757-.1-1.143Zm.258-3.358c.073-.37.161-.749.266-1.111a.234.234,0,0,1,.282-.161.225.225,0,0,1,.161.29c-.1.354-.185.717-.258,1.071a.243.243,0,1,1-.475-.1Zm0,5.588a.217.217,0,0,1,.177-.209.233.233,0,0,1,.274.185c.081.354.169.717.274,1.071a.225.225,0,0,1-.161.282.217.217,0,0,1-.282-.153c-.113-.362-.2-.741-.282-1.111a.088.088,0,0,1,0-.1Zm.6-7.755a.177.177,0,0,1,0-.064c.137-.354.29-.709.451-1.055a.233.233,0,0,1,.306-.113.242.242,0,0,1,.113.306c-.161.338-.306.676-.435,1.023a.227.227,0,1,1-.443-.1Zm0,9.913a.225.225,0,0,1,.145-.2.234.234,0,0,1,.3.137c.129.338.282.684.443,1.015a.234.234,0,0,1-.113.306.225.225,0,0,1-.306-.1c-.169-.346-.322-.7-.459-1.055a.2.2,0,0,1,.032-.113Zm.918-11.95a.217.217,0,0,1,0-.1c.193-.33.395-.66.612-.974a.234.234,0,1,1,.378.266c-.2.306-.4.62-.588.934a.2.2,0,1,1-.362-.145Zm.056,13.979a.217.217,0,0,1,.113-.185.234.234,0,0,1,.314.081c.185.322.387.636.6.934a.234.234,0,0,1-.378.266c-.217-.314-.427-.636-.612-.966a.193.193,0,0,1,.008-.145Zm1.288,1.844a.209.209,0,0,1,.081-.161.234.234,0,0,1,.33,0,8.69,8.69,0,0,0,.733.805.242.242,0,0,1,0,.33.234.234,0,0,1-.33,0c-.266-.274-.523-.556-.805-.854a.2.2,0,0,1,.032-.137Zm1.562,1.611a.29.29,0,0,1,.056-.137.242.242,0,0,1,.33,0c.274.242.564.475.862.7a.242.242,0,0,1,.048.322.25.25,0,0,1-.33.048c-.3-.234-.6-.475-.886-.725a.242.242,0,0,1-.04-.217Zm1.8,1.337a.282.282,0,0,1,.04-.1.234.234,0,0,1,.314-.072c.314.193.636.378.966.548a.234.234,0,1,1-.217.411c-.33-.169-.668-.362-.99-.564a.258.258,0,0,1-.072-.225Zm2.005,1.039a.236.236,0,0,1,0-.072.225.225,0,0,1,.3-.129q.515.217,1.039.387a.234.234,0,1,1-.137.443c-.362-.121-.725-.258-1.079-.4a.225.225,0,0,1-.081-.234Zm2.134.693h0a.242.242,0,0,1,.282-.177c.354.089.725.161,1.087.217a.233.233,0,0,1,.193.266.25.25,0,0,1-.266.193c-.378-.064-.757-.137-1.127-.225a.225.225,0,0,1-.129-.282Zm2.223.346a.242.242,0,0,1,.25-.217h1.071a.242.242,0,0,1,.234.234.234.234,0,0,1-.234.234h-1.143a.234.234,0,0,1-.137-.258Z" transform="translate(-277.269 -85.076)" fill="#fd8f25"/>
            <path id="Trazado_115527" data-name="Trazado 115527" d="M281.129,85.4a.282.282,0,0,1,.048-.129l.387-.443a.226.226,0,0,1,.322,0,.242.242,0,0,1,0,.33c-.129.137-.25.282-.37.435a.234.234,0,0,1-.322,0A.226.226,0,0,1,281.129,85.4Z" transform="translate(-278.02 -84.756)" fill="#fd8f25"/>
          </g>
          <g id="Grupo_57013" data-name="Grupo 57013" transform="translate(3.485 3.413)">
            <path id="Trazado_115528" data-name="Trazado 115528" d="M285.207,85.853a.169.169,0,0,0-.064.177l.564,1.957a9.156,9.156,0,0,0-1.538,2.416l-2.013.322a.169.169,0,0,0-.137.137l-.419,2.416a.169.169,0,0,0,.081.177l1.788.982a8.922,8.922,0,0,0,.628,2.81L282.9,98.858a.145.145,0,0,0,0,.193l1.4,2a.153.153,0,0,0,.185.064l1.957-.564a8.857,8.857,0,0,0,2.416,1.546l.322,2.005a.153.153,0,0,0,.137.137l2.416.427a.177.177,0,0,0,.177-.089l.982-1.78a8.858,8.858,0,0,0,2.8-.628l1.651,1.192a.185.185,0,0,0,.2,0l2-1.409a.169.169,0,0,0,.064-.177l-.564-1.965a8.794,8.794,0,0,0,1.538-2.416l2.013-.322a.169.169,0,0,0,.137-.137l.419-2.416a.161.161,0,0,0-.081-.177l-1.788-.982a8.923,8.923,0,0,0-.628-2.81l1.192-1.651a.161.161,0,0,0,0-.193l-1.409-1.949a.153.153,0,0,0-.185-.064l-1.957.564a8.858,8.858,0,0,0-2.416-1.546l-.322-2.005a.169.169,0,0,0-.137-.145l-2.416-.419a.169.169,0,0,0-.169.089l-.99,1.78a8.858,8.858,0,0,0-2.8.628L287.4,84.444a.185.185,0,0,0-.2,0Z" transform="translate(-281.596 -83.139)" fill="#fd8f25"/>
            <path id="Trazado_115529" data-name="Trazado 115529" d="M292,95.793a2.408,2.408,0,1,1,0,.354h0a2.6,2.6,0,0,1,0-.354Zm4.324.314a1.742,1.742,0,0,0,0-.29,1.938,1.938,0,0,0-3.865.29h0a1.941,1.941,0,0,0,3.865,0Z" transform="translate(-283.621 -85.178)" fill="url(#linear-gradient-26)"/>
            <path id="Trazado_115530" data-name="Trazado 115530" d="M287.44,94.668a4.185,4.185,0,0,1,.072-.62h0l.048-.25a6.114,6.114,0,0,1,.25-.854h0v-.129a.225.225,0,0,1,.225-.145h.072a.225.225,0,0,1,.129.3,5.363,5.363,0,0,0-.33,1.168,5.572,5.572,0,0,0,.95,4.228,5.637,5.637,0,0,0,3.656,2.327q.29.048.58.072a5.677,5.677,0,0,0,1.466-11.249c-.193,0-.378-.056-.572-.072a5.685,5.685,0,0,0-2.416.362.217.217,0,0,1-.1,0,.229.229,0,0,1-.064-.443,6.12,6.12,0,0,1,2.633-.395,4.068,4.068,0,0,1,.62.072,6.136,6.136,0,0,1-1.482,12.159,5.222,5.222,0,0,1-.62-.081,6.136,6.136,0,0,1-5.065-6.442Z" transform="translate(-282.734 -84.271)" fill="url(#linear-gradient-27)"/>
          </g>
        </g>
        <g id="Grupo_57018" data-name="Grupo 57018" transform="translate(72.824 64.58)">
          <g id="Grupo_57015" data-name="Grupo 57015" transform="translate(16.97)">
            <path id="Trazado_115531" data-name="Trazado 115531" d="M388.78,160.185a.58.58,0,0,1,.459-.523c.306-.064.62-.129.926-.177a.58.58,0,1,1,.2,1.135c-.3.048-.6.113-.886.169a.572.572,0,0,1-.684-.435A.605.605,0,0,1,388.78,160.185Z" transform="translate(-388.779 -159.169)" fill="#fd8f25"/>
            <path id="Trazado_115532" data-name="Trazado 115532" d="M393.6,159.639a.58.58,0,0,1,.556-.54h1.884a.58.58,0,1,1-.056,1.152c-.6,0-1.2-.04-1.8,0a.588.588,0,0,1-.6-.564A.137.137,0,0,1,393.6,159.639Zm4.791.387v-.072a.58.58,0,0,1,.676-.459c.612.121,1.232.266,1.828.435a.58.58,0,0,1,.4.717.588.588,0,0,1-.717.4c-.564-.161-1.152-.306-1.739-.419a.58.58,0,0,1-.451-.6Zm4.6,1.433a.523.523,0,0,1,.048-.193.572.572,0,0,1,.765-.3c.572.25,1.143.531,1.691.805a.588.588,0,0,1,.225.805.572.572,0,0,1-.805.225c-.523-.282-1.063-.548-1.611-.805a.564.564,0,0,1-.314-.564Zm4.163,2.416a.523.523,0,0,1,.113-.3.572.572,0,0,1,.805-.121c.507.37,1,.805,1.466,1.192a.58.58,0,1,1-.765.862,14.983,14.983,0,0,0-1.393-1.127.572.572,0,0,1-.226-.531Zm3.511,3.293a.6.6,0,0,1,.2-.4.572.572,0,0,1,.805.064c.411.475.805.974,1.168,1.482a.58.58,0,1,1-.942.676c-.346-.483-.717-.958-1.1-1.409A.6.6,0,0,1,410.661,167.168Zm2.706,3.978a.58.58,0,0,1,1.087-.225c.29.556.564,1.127.805,1.7a.58.58,0,0,1-1.063.451c-.233-.548-.491-1.087-.765-1.61a.628.628,0,0,1-.064-.314Zm-.121,20.292a.6.6,0,0,1,.073-.234c.282-.523.548-1.063.805-1.611a.581.581,0,1,1,1.063.467c-.25.572-.531,1.143-.805,1.691a.58.58,0,0,1-1.087-.314Zm1.876-15.815a.572.572,0,0,1,.427-.515.58.58,0,0,1,.709.411c.161.6.3,1.224.4,1.844a.58.58,0,1,1-1.135.2c-.1-.588-.234-1.176-.387-1.747a.524.524,0,0,1-.016-.193Zm-.072,11.354a.258.258,0,0,1,0-.113c.153-.572.29-1.16.4-1.747a.58.58,0,1,1,1.135.217c-.113.612-.258,1.232-.427,1.836a.58.58,0,0,1-1.135-.193Zm.805-6.6a.572.572,0,0,1,.556-.531.564.564,0,0,1,.6.556v1.884h0a.581.581,0,1,1-1.16-.072c0-.6.04-1.2,0-1.788Z" transform="translate(-389.716 -159.099)" fill="#fd8f25"/>
            <path id="Trazado_115533" data-name="Trazado 115533" d="M415.3,203a.621.621,0,0,1,.129-.322c.185-.234.37-.467.548-.709a.58.58,0,0,1,.805-.121.572.572,0,0,1,.121.805c-.185.258-.387.507-.58.749a.58.58,0,0,1-.805.089A.588.588,0,0,1,415.3,203Z" transform="translate(-393.944 -167.403)" fill="#fd8f25"/>
          </g>
          <g id="Grupo_57016" data-name="Grupo 57016" transform="translate(0 7.263)">
            <path id="Trazado_115534" data-name="Trazado 115534" d="M396.77,213.027a.588.588,0,0,1,.532-.531l.894-.1a.58.58,0,0,1,.644.5.588.588,0,0,1-.5.652l-.942.1a.588.588,0,0,1-.628-.523Z" transform="translate(-373.365 -176.741)" fill="#fd8f25"/>
            <path id="Trazado_115535" data-name="Trazado 115535" d="M367.757,182.178c0-.242.04-.5.064-.749a.588.588,0,0,1,.636-.515.572.572,0,0,1,.515.62h0c0,.234-.048.467-.064.709h0c0,.346-.04.7-.048,1.047a.58.58,0,1,1-1.151,0Q367.721,182.722,367.757,182.178Zm.564-3.624v-.1c.145-.6.322-1.2.515-1.78a.588.588,0,0,1,.733-.37.58.58,0,0,1,.362.733c-.185.556-.346,1.127-.483,1.691a.58.58,0,0,1-1.143-.177Zm-.475,7.626a.572.572,0,0,1,.507-.531.588.588,0,0,1,.644.507c.064.58.161,1.168.274,1.739a.58.58,0,0,1-.451.684.588.588,0,0,1-.685-.459c-.121-.6-.217-1.216-.29-1.828A.527.527,0,0,1,367.846,186.181Zm2.1-12.079a.62.62,0,0,1,.056-.209c.274-.556.58-1.1.894-1.611a.58.58,0,0,1,.805-.193.564.564,0,0,1,.193.805,12.28,12.28,0,0,0-.805,1.546.58.58,0,0,1-1.1-.306ZM368.9,190.795a.6.6,0,0,1,.386-.507.58.58,0,0,1,.741.362c.193.548.411,1.1.652,1.61a.58.58,0,0,1-1.055.475c-.258-.564-.483-1.143-.693-1.723A.8.8,0,0,1,368.9,190.795Zm2.053,4.268a.547.547,0,0,1,.266-.443.58.58,0,0,1,.805.185c.306.491.644.982.991,1.449a.58.58,0,1,1-.926.693c-.37-.5-.717-1.015-1.047-1.538a.532.532,0,0,1-.089-.346Zm2.923,3.728a.547.547,0,0,1,.169-.37.58.58,0,0,1,.805,0c.411.411.805.805,1.28,1.2a.572.572,0,0,1,.064.805.588.588,0,0,1-.805.064,16.677,16.677,0,0,1-1.353-1.272A.572.572,0,0,1,373.877,198.791Zm3.664,3a.588.588,0,0,1,.1-.274.572.572,0,0,1,.805-.169c.491.314,1,.62,1.514.894a.58.58,0,1,1-.54,1.023c-.548-.3-1.087-.612-1.61-.95a.58.58,0,0,1-.266-.515Zm4.244,2.118a.348.348,0,0,1,0-.153.572.572,0,0,1,.741-.346c.548.2,1.111.387,1.675.54a.58.58,0,0,1-.306,1.111c-.6-.161-1.192-.354-1.772-.564a.58.58,0,0,1-.338-.588Zm4.59,1.143h0a.58.58,0,0,1,.652-.491c.435.056.878.1,1.313.137h.435a.58.58,0,0,1,.548.6h0a.572.572,0,0,1-.6.531h-.459a10.357,10.357,0,0,1-1.393-.145.588.588,0,0,1-.491-.668Z" transform="translate(-367.705 -168.874)" fill="#fd8f25"/>
            <path id="Trazado_115536" data-name="Trazado 115536" d="M373.679,169.352a.62.62,0,0,1,.129-.322l.62-.725a.59.59,0,1,1,.862.805c-.2.217-.395.451-.58.684a.58.58,0,0,1-.805.081.588.588,0,0,1-.225-.523Z" transform="translate(-368.868 -168.118)" fill="#fd8f25"/>
          </g>
          <g id="Grupo_57017" data-name="Grupo 57017" transform="translate(5.604 5.457)">
            <path id="Trazado_115537" data-name="Trazado 115537" d="M380.273,170.091a.258.258,0,0,0-.1.282l.87,3.028a13.641,13.641,0,0,0-2.416,3.752l-3.1.5a.25.25,0,0,0-.217.209l-.644,3.72a.258.258,0,0,0,.129.274l2.754,1.514a13.617,13.617,0,0,0,.966,4.34l-1.844,2.553a.258.258,0,0,0,0,.3l2.174,3.084a.25.25,0,0,0,.282.1l3.052-.878a13.691,13.691,0,0,0,3.744,2.416l.5,3.108a.266.266,0,0,0,.217.209l3.72.652a.258.258,0,0,0,.266-.129l1.522-2.754a13.745,13.745,0,0,0,4.332-.974l2.553,1.844a.258.258,0,0,0,.3,0l3.092-2.174a.25.25,0,0,0,.1-.282l-.862-3.044a13.763,13.763,0,0,0,2.416-3.752l3.1-.5a.258.258,0,0,0,.217-.209l.644-3.72a.258.258,0,0,0-.129-.274l-2.754-1.522a13.786,13.786,0,0,0-.966-4.332l1.844-2.553a.258.258,0,0,0,0-.3l-2.174-3.092a.258.258,0,0,0-.282-.1l-3.028.87a13.688,13.688,0,0,0-3.744-2.416l-.507-3.108a.258.258,0,0,0-.209-.217l-3.72-.644a.258.258,0,0,0-.266.129l-1.522,2.754a13.529,13.529,0,0,0-4.332.974l-2.553-1.844a.282.282,0,0,0-.306,0Z" transform="translate(-374.664 -165.876)" fill="#fd8f25"/>
            <path id="Trazado_115538" data-name="Trazado 115538" d="M390.377,185.33a3.954,3.954,0,0,1,.966-2.335,4.045,4.045,0,1,1-.966,2.939A3.779,3.779,0,0,1,390.377,185.33Zm6.684.5a3.211,3.211,0,0,0,0-.395,2.657,2.657,0,1,0-5.3.395h0a2.656,2.656,0,0,0,5.3,0Z" transform="translate(-377.722 -168.94)" fill="url(#linear-gradient-28)"/>
            <path id="Trazado_115539" data-name="Trazado 115539" d="M383.875,183.751a6.262,6.262,0,0,1,.113-.942h0a9.666,9.666,0,0,1,.548-1.917.321.321,0,0,1,.306-.145.225.225,0,0,1,.121.3,9.246,9.246,0,0,0-.515,1.82,8.858,8.858,0,0,0,7.247,10.267,8.628,8.628,0,0,0,.9.113,8.867,8.867,0,0,0,2.15-17.6,8.351,8.351,0,0,0-.9-.113,8.785,8.785,0,0,0-3.809.564.137.137,0,0,1-.1,0,.225.225,0,0,1-.2-.145.233.233,0,0,1,.129-.3,9.349,9.349,0,0,1,4.026-.6,7.174,7.174,0,0,1,.942.113,9.341,9.341,0,0,1-2.255,18.521,9.551,9.551,0,0,1-.95-.113,9.357,9.357,0,0,1-7.755-9.824Z" transform="translate(-376.454 -167.659)" fill="url(#linear-gradient-29)"/>
          </g>
        </g>
      </g>
    </g>
  </g>
</svg>
