<svg xmlns="http://www.w3.org/2000/svg" width="192" height="192" viewBox="0 0 192 192">
  <g id="img3" transform="translate(0.106)">
    <circle id="Elipse_4520" data-name="Elipse 4520" cx="96" cy="96" r="96" transform="translate(-0.106 0)" fill="#dad5ed"/>
    <g id="Grupo_57489" data-name="Grupo 57489" transform="translate(21.027 13.619)">
      <g id="Grupo_57447" data-name="Grupo 57447" transform="translate(20.462 61.387)">
        <path id="Trazado_116773" data-name="Trazado 116773" d="M-200.392,105.86a2.558,2.558,0,0,1-2.558-2.558V92.632a14.81,14.81,0,0,0-4.366-10.541,2.558,2.558,0,0,1,0-3.618,2.558,2.558,0,0,1,3.617,0,19.892,19.892,0,0,1,5.864,14.159V103.3A2.558,2.558,0,0,1-200.392,105.86Z" transform="translate(208.066 -77.724)" fill="#fda551"/>
      </g>
      <g id="Grupo_57448" data-name="Grupo 57448" transform="translate(10.231 40.925)">
        <path id="Trazado_116774" data-name="Trazado 116774" d="M-213.617,66.622h-5.115V58.949a2.558,2.558,0,0,1,2.558-2.558,2.558,2.558,0,0,1,2.557,2.558Z" transform="translate(218.732 -56.391)" fill="#fd8f25"/>
      </g>
      <g id="Grupo_57449" data-name="Grupo 57449" transform="translate(10.231 56.272)">
        <path id="Trazado_116775" data-name="Trazado 116775" d="M-216.174,82.622a2.558,2.558,0,0,1-2.558-2.558V72.391h5.115v7.673A2.558,2.558,0,0,1-216.174,82.622Z" transform="translate(218.732 -72.391)" fill="#fd8f25"/>
      </g>
      <g id="Grupo_57450" data-name="Grupo 57450" transform="translate(15.347 51.156)">
        <path id="Trazado_116776" data-name="Trazado 116776" d="M-213.4,72.173V67.058h7.673a2.558,2.558,0,0,1,2.558,2.557,2.558,2.558,0,0,1-2.558,2.558Z" transform="translate(213.399 -67.058)" fill="#fd8f25"/>
      </g>
      <g id="Grupo_57451" data-name="Grupo 57451" transform="translate(0 51.156)">
        <path id="Trazado_116777" data-name="Trazado 116777" d="M-229.4,69.615a2.558,2.558,0,0,1,2.558-2.557h7.673v5.115h-7.673A2.558,2.558,0,0,1-229.4,69.615Z" transform="translate(229.399 -67.058)" fill="#fd8f25"/>
      </g>
      <g id="Grupo_57452" data-name="Grupo 57452" transform="translate(122.774 61.387)">
        <path id="Trazado_116778" data-name="Trazado 116778" d="M-98.841,105.86A2.558,2.558,0,0,1-101.4,103.3V92.632a19.893,19.893,0,0,1,5.865-14.159,2.558,2.558,0,0,1,3.617,0,2.559,2.559,0,0,1,0,3.618,14.806,14.806,0,0,0-4.366,10.541V103.3a2.558,2.558,0,0,1-2.558,2.558Z" transform="translate(101.399 -77.724)" fill="#fda551"/>
      </g>
      <g id="Grupo_57453" data-name="Grupo 57453" transform="translate(61.387 76.734)">
        <path id="Trazado_116779" data-name="Trazado 116779" d="M-137.263,101.4h-25.578A2.558,2.558,0,0,1-165.4,98.84V93.724h30.693V98.84A2.558,2.558,0,0,1-137.263,101.4Z" transform="translate(165.399 -93.724)" fill="#555a6e"/>
      </g>
      <g id="Grupo_57454" data-name="Grupo 57454" transform="translate(61.387 76.734)">
        <path id="Trazado_116780" data-name="Trazado 116780" d="M-165.4,93.724h30.693v2.558H-165.4Z" transform="translate(165.399 -93.724)" fill="#463c4b"/>
      </g>
      <g id="Grupo_57455" data-name="Grupo 57455" transform="translate(76.734 79.292)">
        <path id="Trazado_116781" data-name="Trazado 116781" d="M-134.052,96.391H-149.4v5.115h12.79a2.558,2.558,0,0,0,2.557-2.557Z" transform="translate(149.399 -96.391)" fill="#463c4b"/>
      </g>
      <g id="Grupo_57456" data-name="Grupo 57456" transform="translate(17.905 86.965)">
        <path id="Trazado_116782" data-name="Trazado 116782" d="M-98.19,170.893H-200.5a10.231,10.231,0,0,1-10.231-10.231V104.391H-87.958v56.272A10.231,10.231,0,0,1-98.19,170.893Z" transform="translate(210.732 -104.391)" fill="#be6b1c"/>
      </g>
      <g id="Grupo_57457" data-name="Grupo 57457" transform="translate(15.347 86.965)">
        <path id="Trazado_116783" data-name="Trazado 116783" d="M-162.243,170.893h-40.925A10.231,10.231,0,0,1-213.4,160.663V104.391h61.387v56.272A10.23,10.23,0,0,1-162.243,170.893Z" transform="translate(213.399 -104.391)" fill="#fd8f25"/>
      </g>
      <g id="Grupo_57458" data-name="Grupo 57458" transform="translate(5.116 86.965)">
        <path id="Trazado_116784" data-name="Trazado 116784" d="M-152.448,104.391a10.231,10.231,0,0,0-10.231,10.231v10.231a2.558,2.558,0,0,1-2.558,2.558h-56.272a2.558,2.558,0,0,1-2.557-2.558V114.622a10.231,10.231,0,0,1,10.231-10.231Z" transform="translate(224.065 -104.391)" fill="#febc7c"/>
      </g>
      <g id="Grupo_57459" data-name="Grupo 57459" transform="translate(76.734 86.965)">
        <path id="Trazado_116785" data-name="Trazado 116785" d="M-149.4,104.391a10.232,10.232,0,0,1,10.231,10.231v10.231a2.558,2.558,0,0,0,2.558,2.558h56.271a2.558,2.558,0,0,0,2.558-2.558V114.622a10.232,10.232,0,0,0-10.231-10.231Z" transform="translate(149.399 -104.391)" fill="#fda551"/>
      </g>
      <g id="Grupo_57460" data-name="Grupo 57460" transform="translate(76.734 0)">
        <path id="Trazado_116786" data-name="Trazado 116786" d="M-134.052,90.458H-149.4V13.724a12.351,12.351,0,0,1,8.733,3.618,40.045,40.045,0,0,1,11.73,28.317V85.342A5.115,5.115,0,0,1-134.052,90.458Z" transform="translate(149.399 -13.724)" fill="#472ea6"/>
      </g>
      <g id="Grupo_57461" data-name="Grupo 57461" transform="translate(56.272 0)">
        <path id="Trazado_116787" data-name="Trazado 116787" d="M-165.617,90.458h15.347V13.724A12.347,12.347,0,0,0-159,17.342a40.046,40.046,0,0,0-11.73,28.317V85.342A5.115,5.115,0,0,0-165.617,90.458Z" transform="translate(170.732 -13.724)" fill="#6c58b8"/>
      </g>
      <g id="Grupo_57462" data-name="Grupo 57462" transform="translate(63.945 20.463)">
        <ellipse id="Elipse_4521" data-name="Elipse 4521" cx="12.789" cy="12.789" rx="12.789" ry="12.789" fill="#f9aac2"/>
      </g>
      <g id="Grupo_57463" data-name="Grupo 57463" transform="translate(76.734 20.463)">
        <path id="Trazado_116788" data-name="Trazado 116788" d="M-136.609,47.847A12.789,12.789,0,0,0-149.4,35.058V60.635A12.789,12.789,0,0,0-136.609,47.847Z" transform="translate(149.399 -35.058)" fill="#f25585"/>
      </g>
      <g id="Grupo_57464" data-name="Grupo 57464" transform="translate(69.061 25.578)">
        <ellipse id="Elipse_4522" data-name="Elipse 4522" cx="7.673" cy="7.673" rx="7.673" ry="7.673" fill="#00d2d2"/>
      </g>
      <g id="Grupo_57465" data-name="Grupo 57465" transform="translate(74.177 51.156)">
        <path id="Trazado_116789" data-name="Trazado 116789" d="M-149.508,67.058a2.558,2.558,0,0,0-2.557,2.557V95.193a2.558,2.558,0,0,0,2.557,2.558,2.558,2.558,0,0,0,2.558-2.558V69.615A2.558,2.558,0,0,0-149.508,67.058Z" transform="translate(152.065 -67.058)" fill="#f9aac2"/>
      </g>
      <g id="Grupo_57466" data-name="Grupo 57466" transform="translate(97.197 51.156)">
        <path id="Trazado_116790" data-name="Trazado 116790" d="M-128.065,87.52l9.172,9.172a3.617,3.617,0,0,0,2.557,1.06,3.618,3.618,0,0,0,3.618-3.618V85.582a7.677,7.677,0,0,0-2.247-5.426l-13.1-13.1Z" transform="translate(128.065 -67.058)" fill="#f25585"/>
      </g>
      <g id="Grupo_57467" data-name="Grupo 57467" transform="translate(40.925 51.156)">
        <path id="Trazado_116791" data-name="Trazado 116791" d="M-171.385,87.52l-9.172,9.172a3.618,3.618,0,0,1-2.558,1.06,3.618,3.618,0,0,1-3.617-3.618V85.582a7.677,7.677,0,0,1,2.247-5.426l13.1-13.1Z" transform="translate(186.732 -67.058)" fill="#f9aac2"/>
      </g>
      <g id="Grupo_57468" data-name="Grupo 57468" transform="translate(62.663 0)">
        <path id="Trazado_116792" data-name="Trazado 116792" d="M-150,13.724V23.955h-14.071a40.022,40.022,0,0,1,5.34-6.615,12.35,12.35,0,0,1,4.006-2.676A12.358,12.358,0,0,1-150,13.724Z" transform="translate(164.069 -13.724)" fill="#f9aac2"/>
      </g>
      <g id="Grupo_57469" data-name="Grupo 57469" transform="translate(76.734 0)">
        <path id="Trazado_116793" data-name="Trazado 116793" d="M-135.328,23.955H-149.4V13.724a12.363,12.363,0,0,1,4.726.94,12.35,12.35,0,0,1,4.006,2.676A39.969,39.969,0,0,1-135.328,23.955Z" transform="translate(149.399 -13.724)" fill="#f25585"/>
      </g>
      <g id="Grupo_57470" data-name="Grupo 57470" transform="translate(63.945 84.407)">
        <path id="Trazado_116794" data-name="Trazado 116794" d="M-162.732,101.724h25.578v2.558h-25.578Z" transform="translate(162.732 -101.724)" fill="#00d2d2"/>
      </g>
      <g id="Grupo_57471" data-name="Grupo 57471" transform="translate(138.121 40.925)">
        <path id="Trazado_116795" data-name="Trazado 116795" d="M-85.4,66.622h5.116V58.949a2.558,2.558,0,0,0-2.558-2.558A2.558,2.558,0,0,0-85.4,58.949Z" transform="translate(85.399 -56.391)" fill="#fd8f25"/>
      </g>
      <g id="Grupo_57472" data-name="Grupo 57472" transform="translate(138.121 56.272)">
        <path id="Trazado_116796" data-name="Trazado 116796" d="M-82.841,82.622a2.558,2.558,0,0,0,2.558-2.558V72.391H-85.4v7.673A2.558,2.558,0,0,0-82.841,82.622Z" transform="translate(85.399 -72.391)" fill="#fd8f25"/>
      </g>
      <g id="Grupo_57473" data-name="Grupo 57473" transform="translate(127.89 51.156)">
        <path id="Trazado_116797" data-name="Trazado 116797" d="M-85.834,72.173V67.058h-7.673a2.558,2.558,0,0,0-2.557,2.557,2.558,2.558,0,0,0,2.557,2.558Z" transform="translate(96.065 -67.058)" fill="#fd8f25"/>
      </g>
      <g id="Grupo_57474" data-name="Grupo 57474" transform="translate(143.237 51.156)">
        <path id="Trazado_116798" data-name="Trazado 116798" d="M-69.834,69.615a2.558,2.558,0,0,0-2.557-2.557h-7.673v5.115h7.673A2.558,2.558,0,0,0-69.834,69.615Z" transform="translate(80.065 -67.058)" fill="#fd8f25"/>
      </g>
      <g id="Grupo_57475" data-name="Grupo 57475" transform="translate(109.985 2.558)">
        <path id="Trazado_116799" data-name="Trazado 116799" d="M-114.732,24.064h5.115V18.949a2.558,2.558,0,0,0-2.557-2.558,2.558,2.558,0,0,0-2.558,2.558Z" transform="translate(114.732 -16.391)" fill="#fd8f25"/>
      </g>
      <g id="Grupo_57476" data-name="Grupo 57476" transform="translate(109.985 15.347)">
        <path id="Trazado_116800" data-name="Trazado 116800" d="M-112.174,37.4a2.558,2.558,0,0,0,2.557-2.557V29.724h-5.115V34.84A2.558,2.558,0,0,0-112.174,37.4Z" transform="translate(114.732 -29.724)" fill="#fd8f25"/>
      </g>
      <g id="Grupo_57477" data-name="Grupo 57477" transform="translate(102.312 10.231)">
        <path id="Trazado_116801" data-name="Trazado 116801" d="M-115.059,29.506V24.391h-5.115a2.558,2.558,0,0,0-2.558,2.558,2.558,2.558,0,0,0,2.558,2.557Z" transform="translate(122.732 -24.391)" fill="#fd8f25"/>
      </g>
      <g id="Grupo_57478" data-name="Grupo 57478" transform="translate(115.101 10.231)">
        <path id="Trazado_116802" data-name="Trazado 116802" d="M-101.726,26.949a2.558,2.558,0,0,0-2.557-2.558H-109.4v5.115h5.116A2.558,2.558,0,0,0-101.726,26.949Z" transform="translate(109.399 -24.391)" fill="#fd8f25"/>
      </g>
      <g id="Grupo_57479" data-name="Grupo 57479" transform="translate(109.985 28.136)">
        <path id="Trazado_116803" data-name="Trazado 116803" d="M-112.174,63.52a2.558,2.558,0,0,1-2.558-2.558V45.615a2.558,2.558,0,0,1,2.558-2.557,2.558,2.558,0,0,1,2.557,2.557V60.962A2.558,2.558,0,0,1-112.174,63.52Z" transform="translate(114.732 -43.058)" fill="#fda551"/>
      </g>
      <g id="Grupo_57480" data-name="Grupo 57480" transform="translate(109.985 51.156)">
        <path id="Trazado_116804" data-name="Trazado 116804" d="M-112.174,74.731a2.558,2.558,0,0,1-2.558-2.558V69.615a2.558,2.558,0,0,1,2.558-2.557,2.558,2.558,0,0,1,2.557,2.557v2.558A2.558,2.558,0,0,1-112.174,74.731Z" transform="translate(114.732 -67.058)" fill="#fda551"/>
      </g>
      <g id="Grupo_57481" data-name="Grupo 57481" transform="translate(38.367 2.558)">
        <path id="Trazado_116805" data-name="Trazado 116805" d="M-189.4,24.064h5.116V18.949a2.558,2.558,0,0,0-2.558-2.558,2.558,2.558,0,0,0-2.558,2.558Z" transform="translate(189.399 -16.391)" fill="#fd8f25"/>
      </g>
      <g id="Grupo_57482" data-name="Grupo 57482" transform="translate(38.367 15.347)">
        <path id="Trazado_116806" data-name="Trazado 116806" d="M-186.841,37.4a2.558,2.558,0,0,0,2.558-2.557V29.724H-189.4V34.84A2.558,2.558,0,0,0-186.841,37.4Z" transform="translate(189.399 -29.724)" fill="#fd8f25"/>
      </g>
      <g id="Grupo_57483" data-name="Grupo 57483" transform="translate(30.693 10.231)">
        <path id="Trazado_116807" data-name="Trazado 116807" d="M-189.726,29.506V24.391h-5.115a2.558,2.558,0,0,0-2.558,2.558,2.558,2.558,0,0,0,2.558,2.557Z" transform="translate(197.399 -24.391)" fill="#fd8f25"/>
      </g>
      <g id="Grupo_57484" data-name="Grupo 57484" transform="translate(43.483 10.231)">
        <path id="Trazado_116808" data-name="Trazado 116808" d="M-176.392,26.949a2.558,2.558,0,0,0-2.558-2.558h-5.115v5.115h5.115A2.558,2.558,0,0,0-176.392,26.949Z" transform="translate(184.065 -24.391)" fill="#fd8f25"/>
      </g>
      <g id="Grupo_57485" data-name="Grupo 57485" transform="translate(38.367 28.136)">
        <path id="Trazado_116809" data-name="Trazado 116809" d="M-186.841,63.52a2.558,2.558,0,0,1-2.558-2.558V45.615a2.558,2.558,0,0,1,2.558-2.557,2.558,2.558,0,0,1,2.558,2.557V60.962A2.558,2.558,0,0,1-186.841,63.52Z" transform="translate(189.399 -43.058)" fill="#fda551"/>
      </g>
      <g id="Grupo_57486" data-name="Grupo 57486" transform="translate(38.367 51.156)">
        <path id="Trazado_116810" data-name="Trazado 116810" d="M-186.841,74.731a2.558,2.558,0,0,1-2.558-2.558V69.615a2.558,2.558,0,0,1,2.558-2.557,2.558,2.558,0,0,1,2.558,2.557v2.558A2.558,2.558,0,0,1-186.841,74.731Z" transform="translate(189.399 -67.058)" fill="#fda551"/>
      </g>
      <g id="Grupo_57487" data-name="Grupo 57487" transform="translate(133.006 20.463)">
        <ellipse id="Elipse_4523" data-name="Elipse 4523" cx="5.116" cy="5.116" rx="5.116" ry="5.116" transform="translate(0)" fill="#fda551"/>
      </g>
      <g id="Grupo_57488" data-name="Grupo 57488" transform="translate(10.232 20.463)">
        <ellipse id="Elipse_4524" data-name="Elipse 4524" cx="5.116" cy="5.116" rx="5.116" ry="5.116" fill="#fda551"/>
      </g>
    </g>
  </g>
</svg>
