<svg id="img3" xmlns="http://www.w3.org/2000/svg" xmlns:xlink="http://www.w3.org/1999/xlink" width="212.47" height="212.47" viewBox="0 0 212.47 212.47">
  <defs>
    <linearGradient id="linear-gradient" x1="0.5" y1="0.941" x2="0.429" y2="-0.71" gradientUnits="objectBoundingBox">
      <stop offset="0" stop-color="#09005d"/>
      <stop offset="1" stop-color="#1a0f91"/>
    </linearGradient>
    <linearGradient id="linear-gradient-2" x1="-1.226" y1="-0.158" x2="3.776" y2="2.234" gradientUnits="objectBoundingBox">
      <stop offset="0" stop-color="#6c58b8"/>
      <stop offset="1" stop-color="#ef2a66"/>
    </linearGradient>
    <linearGradient id="linear-gradient-3" x1="-30.602" y1="-2.443" x2="159.272" y2="15.527" xlink:href="#linear-gradient-2"/>
    <linearGradient id="linear-gradient-4" x1="1.519" y1="-0.775" x2="-1.482" y2="2.906" xlink:href="#linear-gradient"/>
    <linearGradient id="linear-gradient-5" x1="1.003" y1="-2.459" x2="-0.074" y2="4.129" xlink:href="#linear-gradient"/>
    <linearGradient id="linear-gradient-6" x1="0.727" y1="-2.869" x2="0.282" y2="3.708" gradientUnits="objectBoundingBox">
      <stop offset="0" stop-color="#4f52ff"/>
      <stop offset="1" stop-color="#4042e2"/>
    </linearGradient>
    <linearGradient id="linear-gradient-7" y1="0.5" x2="1" y2="0.5" gradientUnits="objectBoundingBox">
      <stop offset="0" stop-color="#120c2a"/>
      <stop offset="1" stop-color="#472ea6"/>
    </linearGradient>
    <linearGradient id="linear-gradient-8" x1="-1.041" y1="2.886" x2="3.054" y2="-3.455" xlink:href="#linear-gradient-6"/>
    <linearGradient id="linear-gradient-9" x1="-1.771" y1="4.016" x2="2.325" y2="-2.325" xlink:href="#linear-gradient-6"/>
    <linearGradient id="linear-gradient-10" x1="-2.467" y1="5.102" x2="1.622" y2="-1.239" xlink:href="#linear-gradient-6"/>
    <linearGradient id="linear-gradient-11" x1="-0.555" y1="2.133" x2="3.54" y2="-4.208" xlink:href="#linear-gradient-6"/>
    <linearGradient id="linear-gradient-12" x1="-1.284" y1="3.263" x2="2.811" y2="-3.078" xlink:href="#linear-gradient-6"/>
    <linearGradient id="linear-gradient-13" x1="-1.982" y1="4.349" x2="2.107" y2="-1.992" xlink:href="#linear-gradient-6"/>
    <linearGradient id="linear-gradient-14" x1="-2.716" y1="5.479" x2="1.38" y2="-0.863" xlink:href="#linear-gradient-6"/>
    <linearGradient id="linear-gradient-15" x1="-0.125" y1="1.467" x2="3.971" y2="-4.874" xlink:href="#linear-gradient-6"/>
    <linearGradient id="linear-gradient-16" x1="-0.854" y1="2.597" x2="3.241" y2="-3.744" xlink:href="#linear-gradient-6"/>
    <linearGradient id="linear-gradient-17" x1="-1.552" y1="3.683" x2="2.537" y2="-2.658" xlink:href="#linear-gradient-6"/>
    <linearGradient id="linear-gradient-18" x1="0.348" y1="0.735" x2="4.444" y2="-5.606" xlink:href="#linear-gradient-6"/>
    <linearGradient id="linear-gradient-19" x1="-0.381" y1="1.864" x2="3.715" y2="-4.476" xlink:href="#linear-gradient-6"/>
    <linearGradient id="linear-gradient-20" x1="-1.079" y1="2.951" x2="3.009" y2="-3.39" xlink:href="#linear-gradient-6"/>
    <linearGradient id="linear-gradient-21" x1="-0.03" y1="0.905" x2="1.632" y2="-0.366" xlink:href="#linear-gradient-6"/>
    <linearGradient id="linear-gradient-22" x1="-18.558" y1="0.499" x2="-17.557" y2="0.499" xlink:href="#linear-gradient-6"/>
    <linearGradient id="linear-gradient-23" x1="-19.119" y1="0.496" x2="-18.118" y2="0.496" xlink:href="#linear-gradient"/>
    <linearGradient id="linear-gradient-24" x1="-67.674" y1="0.5" x2="-66.674" y2="0.5" gradientUnits="objectBoundingBox">
      <stop offset="0" stop-color="#febbba"/>
      <stop offset="1" stop-color="#ff928e"/>
    </linearGradient>
    <linearGradient id="linear-gradient-25" x1="-60.695" y1="0.5" x2="-59.69" y2="0.5" xlink:href="#linear-gradient-6"/>
    <linearGradient id="linear-gradient-26" x1="-40.833" y1="0.499" x2="-39.832" y2="0.499" xlink:href="#linear-gradient"/>
    <linearGradient id="linear-gradient-27" x1="-67.215" y1="0.502" x2="-66.215" y2="0.502" xlink:href="#linear-gradient-24"/>
    <linearGradient id="linear-gradient-28" x1="-1.201" y1="2.187" x2="0.725" y2="0.284" xlink:href="#linear-gradient-6"/>
    <linearGradient id="linear-gradient-29" x1="-0.089" y1="-19.757" x2="-0.429" y2="-18.881" gradientUnits="objectBoundingBox">
      <stop offset="0" stop-color="#f57fa3"/>
      <stop offset="1" stop-color="#ef2a66"/>
    </linearGradient>
    <linearGradient id="linear-gradient-30" x1="-43.234" y1="5.025" x2="-42.876" y2="4.216" xlink:href="#linear-gradient-6"/>
    <linearGradient id="linear-gradient-31" x1="-39.989" y1="0.098" x2="-42.378" y2="1.143" xlink:href="#linear-gradient-24"/>
    <linearGradient id="linear-gradient-32" x1="-15.271" y1="0.5" x2="-14.271" y2="0.5" xlink:href="#linear-gradient-24"/>
    <linearGradient id="linear-gradient-33" x1="-24.1" y1="-0.004" x2="-24.115" y2="1.888" xlink:href="#linear-gradient-24"/>
    <linearGradient id="linear-gradient-34" x1="-32.813" y1="138.477" x2="-34.336" y2="139.817" xlink:href="#linear-gradient-24"/>
    <linearGradient id="linear-gradient-35" x1="-18.876" y1="87.84" x2="-17.857" y2="87.84" xlink:href="#linear-gradient"/>
    <linearGradient id="linear-gradient-36" x1="-97.474" y1="393.745" x2="-94.181" y2="391.39" xlink:href="#linear-gradient-24"/>
    <linearGradient id="linear-gradient-37" x1="-39.214" y1="0.5" x2="-38.22" y2="0.5" xlink:href="#linear-gradient-24"/>
    <linearGradient id="linear-gradient-38" x1="-1.665" y1="-0.454" x2="-2.328" y2="1.454" xlink:href="#linear-gradient-24"/>
    <linearGradient id="linear-gradient-39" x1="-1.63" y1="-0.454" x2="-2.293" y2="1.454" xlink:href="#linear-gradient-24"/>
    <linearGradient id="linear-gradient-40" x1="-26.824" y1="-1.226" x2="-28.516" y2="3.824" xlink:href="#linear-gradient-24"/>
  </defs>
  <rect id="Rectángulo_6739" data-name="Rectángulo 6739" width="212.47" height="212.47" fill="none"/>
  <g id="Grupo_58610" data-name="Grupo 58610" transform="translate(16.08 11.433)">
    <g id="Grupo_58587" data-name="Grupo 58587" transform="translate(41.804)">
      <path id="Trazado_119366" data-name="Trazado 119366" d="M81.73,56.431A11.07,11.07,0,0,1,92.8,45.34h94.2A9.752,9.752,0,0,1,196.74,54.6l6.955,136.533a7.2,7.2,0,0,1-7.082,7.564L88.678,200.656a6.827,6.827,0,0,1-6.948-6.827Z" transform="translate(-81.73 -24.661)" fill="url(#linear-gradient)"/>
      <path id="Trazado_119367" data-name="Trazado 119367" d="M105.826,250.62h0l-12.082-.156a7.444,7.444,0,0,1-7.323-7.422v-18.23a.269.269,0,0,1,.262-.262.262.262,0,0,1,.255.262v18.23a6.934,6.934,0,0,0,6.813,6.905l12.04.156a.248.248,0,0,1,.255.262A.255.255,0,0,1,105.826,250.62Z" transform="translate(-83.098 -76.949)" fill="url(#linear-gradient-2)"/>
      <path id="Trazado_119368" data-name="Trazado 119368" d="M86.682,215.88a.269.269,0,0,1-.262-.262v-2.953a.262.262,0,0,1,.262-.255.255.255,0,0,1,.255.255v2.953A.262.262,0,0,1,86.682,215.88Z" transform="translate(-83.098 -73.407)" fill="url(#linear-gradient-3)"/>
      <g id="Grupo_58586" data-name="Grupo 58586" transform="translate(7.713 19.545)">
        <path id="Trazado_119369" data-name="Trazado 119369" d="M92.62,46.976a3.215,3.215,0,0,1,3.647-3.208c12.862,1.742,57.084,7.132,93.65,4.327a2.975,2.975,0,0,1,3.2,2.833l7.288,137.142a3.414,3.414,0,0,1-3.215,3.6c-15.376.914-78.706,4.434-101.277,2.068a2.713,2.713,0,0,1-2.429-2.684Z" transform="translate(-92.62 -43.739)" fill="#7d97f4"/>
        <path id="Trazado_119370" data-name="Trazado 119370" d="M94.76,51.875A3.095,3.095,0,0,1,98.3,48.787c12.373,1.679,54.931,6.87,90.116,4.164a2.868,2.868,0,0,1,3.088,2.705l7.012,131.972a3.293,3.293,0,0,1-3.095,3.47c-14.8.871-75.746,4.249-97.481,1.983A2.613,2.613,0,0,1,95.6,190.5Z" transform="translate(-93.244 -45.202)" fill="#91b3fa"/>
        <rect id="Rectángulo_6740" data-name="Rectángulo 6740" width="84.053" height="11.318" rx="5.659" transform="translate(9.745 15.037)" fill="#fff" opacity="0.58"/>
        <rect id="Rectángulo_6741" data-name="Rectángulo 6741" width="85.618" height="5.659" rx="2.829" transform="translate(9.561 73.657)" fill="#fff" opacity="0.58"/>
        <rect id="Rectángulo_6742" data-name="Rectángulo 6742" width="85.618" height="5.659" rx="2.829" transform="translate(9.561 82.39)" fill="#fff" opacity="0.58"/>
        <rect id="Rectángulo_6743" data-name="Rectángulo 6743" width="87.41" height="5.659" rx="2.829" transform="translate(9.632 132.228)" fill="#fff" opacity="0.58"/>
        <path id="Trazado_119371" data-name="Trazado 119371" d="M189.6,125.142H108.154a2.054,2.054,0,0,1-2.054-2.054V92.634a2.054,2.054,0,0,1,2.054-2.054h80.03a2.054,2.054,0,0,1,2.054,1.962l1.381,30.489a2.061,2.061,0,0,1-2.018,2.111Z" transform="translate(-96.553 -57.405)" fill="#fff" opacity="0.25"/>
        <path id="Trazado_119372" data-name="Trazado 119372" d="M189.517,125.329H108.07a2.38,2.38,0,0,1-2.38-2.373V92.5a2.38,2.38,0,0,1,2.38-2.373H188.1a2.366,2.366,0,0,1,2.373,2.266l1.416,30.489a2.373,2.373,0,0,1-2.373,2.479ZM108.1,90.746a1.735,1.735,0,0,0-1.735,1.728v30.454a1.735,1.735,0,0,0,1.735,1.728h81.447a1.728,1.728,0,0,0,1.728-1.806l-1.416-30.489a1.721,1.721,0,0,0-1.721-1.615Z" transform="translate(-96.433 -57.274)" fill="#fff"/>
        <path id="Trazado_119373" data-name="Trazado 119373" d="M190.925,211.32h-82.1a2.606,2.606,0,0,1-2.606-2.606V179.329a2.6,2.6,0,0,1,2.606-2.6h80.958a2.606,2.606,0,0,1,2.606,2.5l1.133,29.385a2.6,2.6,0,0,1-2.6,2.705Z" transform="translate(-96.588 -82.541)" fill="#fff" opacity="0.25"/>
        <path id="Trazado_119374" data-name="Trazado 119374" d="M190.791,211.49h-82.1a2.939,2.939,0,0,1-2.932-2.932V179.195a2.932,2.932,0,0,1,2.932-2.925H189.65a2.918,2.918,0,0,1,2.925,2.833l1.176,29.363a2.925,2.925,0,0,1-2.925,3.045Zm-82.1-34.576a2.281,2.281,0,0,0-2.281,2.281V208.58a2.281,2.281,0,0,0,2.281,2.281h82.1a2.273,2.273,0,0,0,2.281-2.365l-1.14-29.385a2.273,2.273,0,0,0-2.281-2.2Z" transform="translate(-96.454 -82.407)" fill="#fff"/>
        <rect id="Rectángulo_6744" data-name="Rectángulo 6744" width="0.644" height="34.597" transform="matrix(1, -0.017, 0.017, 1, 34.598, 33.15)" fill="#fff"/>
        <rect id="Rectángulo_6745" data-name="Rectángulo 6745" width="0.644" height="34.604" transform="matrix(1, -0.027, 0.027, 1, 65.929, 33.136)" fill="#fff"/>
        <rect id="Rectángulo_6746" data-name="Rectángulo 6746" width="58.918" height="0.644" transform="matrix(1, -0.014, 0.014, 1, 35.204, 43.743)" fill="#fff"/>
        <rect id="Rectángulo_6747" data-name="Rectángulo 6747" width="59.272" height="0.644" transform="translate(35.355 56.794)" fill="#fff"/>
        <rect id="Rectángulo_6748" data-name="Rectángulo 6748" width="34.597" height="0.644" transform="translate(34.6 128.776) rotate(-89.29)" fill="#fff"/>
        <rect id="Rectángulo_6749" data-name="Rectángulo 6749" width="60.568" height="0.644" transform="translate(35.568 102.27)" fill="#fff"/>
        <rect id="Rectángulo_6750" data-name="Rectángulo 6750" width="61.213" height="0.644" transform="translate(35.136 110.244)" fill="#fff"/>
        <rect id="Rectángulo_6751" data-name="Rectángulo 6751" width="0.644" height="61.51" transform="translate(35.194 119.767) rotate(-89.29)" fill="#fff"/>
      </g>
      <path id="Trazado_119375" data-name="Trazado 119375" d="M167.4,18.2c-3.407-2.365-6.374-2.316-8.442-1.7a4.157,4.157,0,0,0-2.96,4.363l.9,9.8,10.694.956S174.067,22.848,167.4,18.2Zm-4.7,7.911a2.67,2.67,0,1,1,2.663-2.663,2.67,2.67,0,0,1-2.663,2.663Z" transform="translate(-103.392 -16.142)" fill="url(#linear-gradient-4)"/>
      <path id="Trazado_119376" data-name="Trazado 119376" d="M158.518,27.135a.248.248,0,0,1-.255-.234l-.149-1.565a.262.262,0,0,1,.517-.042l.142,1.558a.262.262,0,0,1-.234.283Zm-.283-3.06a.262.262,0,0,1-.255-.234l-.106-1.183a3.959,3.959,0,0,1,2.833-4.164,7.946,7.946,0,0,1,3.909-.156.255.255,0,0,1,.2.3.262.262,0,0,1-.3.2,7.422,7.422,0,0,0-3.654.149,3.449,3.449,0,0,0-2.443,3.619l.106,1.183a.255.255,0,0,1-.227.283Z" transform="translate(-103.941 -16.733)" fill="#91b3fa"/>
      <path id="Trazado_119377" data-name="Trazado 119377" d="M136.69,42.307V37.349a3.01,3.01,0,0,1,3.109-3.01l34,1.169a2.925,2.925,0,0,1,2.833,2.748l.283,4.731Z" transform="translate(-97.765 -21.451)" fill="url(#linear-gradient-5)"/>
      <path id="Trazado_119378" data-name="Trazado 119378" d="M153.871,36.79H152.4a.255.255,0,1,1,0-.51h1.466a.255.255,0,0,1,0,.51Z" transform="translate(-102.276 -22.018)" fill="#91b3fa"/>
      <path id="Trazado_119379" data-name="Trazado 119379" d="M139.182,41.332a.255.255,0,0,1-.262-.262V39.08a2.79,2.79,0,0,1,2.833-2.79h5.368a.255.255,0,1,1,0,.51h-5.368a2.281,2.281,0,0,0-2.281,2.281v1.962a.255.255,0,0,1-.29.29Z" transform="translate(-98.416 -22.021)" fill="#91b3fa"/>
      <path id="Trazado_119380" data-name="Trazado 119380" d="M117.1,46.1a3.208,3.208,0,0,1,3.2-3.045h59.407a4.384,4.384,0,0,1,4.327,3.647l.05.29a3.768,3.768,0,0,1-3.711,4.412H119.421A2.45,2.45,0,0,1,117,48.822Z" transform="translate(-92.019 -23.993)" fill="url(#linear-gradient-6)"/>
    </g>
    <g id="Grupo_58592" data-name="Grupo 58592" transform="translate(29.886 23.627)">
      <g id="Grupo_58588" data-name="Grupo 58588" transform="translate(0 29.864)">
        <ellipse id="Elipse_4662" data-name="Elipse 4662" cx="8.456" cy="8.456" rx="8.456" ry="8.456" transform="translate(0 15.565) rotate(-66.97)" fill="#febc7c"/>
        <ellipse id="Elipse_4663" data-name="Elipse 4663" cx="8.173" cy="8.173" rx="8.173" ry="8.173" transform="translate(0.764 5.895) rotate(-18.27)" fill="#f25585"/>
        <path id="Trazado_119381" data-name="Trazado 119381" d="M70.078,102.874a.262.262,0,0,1-.127,0,.269.269,0,0,1-.212-.319,7.84,7.84,0,0,1,7.012-6.225.276.276,0,0,1,.042.545,7.415,7.415,0,0,0-1.3.227,7.238,7.238,0,0,0-5.22,5.56.276.276,0,0,1-.2.212Z" transform="translate(-66.311 -93.029)" fill="#fff" opacity="0.58"/>
        <ellipse id="Elipse_4664" data-name="Elipse 4664" cx="6.919" cy="6.919" rx="6.919" ry="6.919" transform="matrix(0.497, -0.868, 0.868, 0.497, 1.865, 13.774)" fill="#fff" opacity="0.78"/>
        <path id="Trazado_119382" data-name="Trazado 119382" d="M80.182,110.7l-.2-.708a6.155,6.155,0,0,1-2.125.113.439.439,0,0,1-.368-.432v-.708a.439.439,0,0,1,.5-.432,5.05,5.05,0,0,0,1.983-.113c.708-.2,1.211-.595,1.069-1.1s-.616-.609-1.7-.609c-1.558,0-2.769-.354-3.109-1.622a2.459,2.459,0,0,1,1.686-2.89l-.2-.708a.439.439,0,0,1,.3-.538l.432-.12a.439.439,0,0,1,.538.312l.177.652a5.46,5.46,0,0,1,1.693-.149.432.432,0,0,1,.4.439v.708a.432.432,0,0,1-.475.432,4.554,4.554,0,0,0-1.664.142c-.864.234-1.013.659-.928.984s.708.524,1.919.567c1.735.042,2.585.531,2.911,1.728s-.248,2.316-1.763,2.989l.22.814a.439.439,0,0,1-.312.538l-.425.113a.439.439,0,0,1-.567-.4Z" transform="translate(-68.186 -94.336)" fill="#f25585"/>
      </g>
      <g id="Grupo_58589" data-name="Grupo 58589" transform="translate(10.639)">
        <ellipse id="Elipse_4665" data-name="Elipse 4665" cx="13.796" cy="13.796" rx="13.796" ry="13.796" transform="matrix(0.963, -0.27, 0.27, 0.963, 0, 7.457)" fill="#febc7c"/>
        <ellipse id="Elipse_4666" data-name="Elipse 4666" cx="13.336" cy="13.336" rx="13.336" ry="13.336" transform="matrix(0.967, -0.254, 0.254, 0.967, 0.723, 7.499)" fill="#f25585"/>
        <path id="Trazado_119383" data-name="Trazado 119383" d="M86.866,66.152h-.12a.255.255,0,0,1-.2-.3,12.522,12.522,0,0,1,9.023-9.611,12.748,12.748,0,0,1,2.245-.4.262.262,0,0,1,.276.234.255.255,0,0,1-.234.276,12.479,12.479,0,0,0-2.125.382,12,12,0,0,0-8.655,9.207A.276.276,0,0,1,86.866,66.152Z" transform="translate(-81.855 -51.352)" fill="#fff" opacity="0.58"/>
        <circle id="Elipse_4667" data-name="Elipse 4667" cx="11.289" cy="11.289" r="11.289" transform="translate(1.397 17.221) rotate(-45)" fill="#fff" opacity="0.78"/>
        <path id="Trazado_119384" data-name="Trazado 119384" d="M103.273,78.981l-.3-1.183a9.972,9.972,0,0,1-3.541.184.708.708,0,0,1-.6-.708v-1.2a.708.708,0,0,1,.822-.708,8.3,8.3,0,0,0,3.244-.191c1.19-.319,1.969-.963,1.742-1.792s-1.006-1.006-2.783-1c-2.535,0-4.5-.574-5.071-2.656-.51-1.87.475-3.676,2.748-4.7l-.319-1.19a.708.708,0,0,1,.5-.878l.708-.191a.708.708,0,0,1,.878.51l.29,1.062a8.846,8.846,0,0,1,2.762-.241.708.708,0,0,1,.659.708v1.1a.708.708,0,0,1-.786.708,7.429,7.429,0,0,0-2.713.227c-1.416.39-1.657,1.084-1.516,1.608.177.644,1.147.857,3.137.921,2.833.078,4.249.871,4.745,2.833.489,1.8-.4,3.775-2.875,4.88l.361,1.324a.708.708,0,0,1-.5.878l-.708.191a.708.708,0,0,1-.885-.5Z" transform="translate(-84.806 -53.366)" fill="#f25585"/>
      </g>
      <g id="Grupo_58590" data-name="Grupo 58590" transform="translate(28.186 27.546)">
        <ellipse id="Elipse_4668" data-name="Elipse 4668" cx="14.2" cy="14.2" rx="14.2" ry="14.2" transform="translate(0 27.846) rotate(-78.66)" fill="#febc7c"/>
        <ellipse id="Elipse_4669" data-name="Elipse 4669" cx="13.726" cy="13.726" rx="13.726" ry="13.726" transform="translate(0.188 26.901) rotate(-76.61)" fill="#f25585"/>
        <path id="Trazado_119385" data-name="Trazado 119385" d="M110.727,104.393a.333.333,0,0,1-.12,0,.262.262,0,0,1-.2-.3,12.883,12.883,0,0,1,9.285-9.915,12.748,12.748,0,0,1,2.3-.4.248.248,0,0,1,.276.234.255.255,0,0,1-.234.276,12.422,12.422,0,0,0-11.126,9.88.255.255,0,0,1-.184.234Z" transform="translate(-106.364 -89.965)" fill="#fff" opacity="0.58"/>
        <ellipse id="Elipse_4670" data-name="Elipse 4670" cx="11.615" cy="11.615" rx="11.615" ry="11.615" transform="translate(5.341 28.422) rotate(-89.39)" fill="#fff" opacity="0.78"/>
        <path id="Trazado_119386" data-name="Trazado 119386" d="M127.643,117.623l-.326-1.218a10.234,10.234,0,0,1-3.626.184.708.708,0,0,1-.616-.708v-1.225a.708.708,0,0,1,.843-.708,8.626,8.626,0,0,0,3.336-.191c1.225-.333,2.026-1,1.8-1.848s-1.041-1.034-2.868-1.027c-2.606,0-4.639-.595-5.22-2.734-.524-1.926.489-3.782,2.833-4.844l-.333-1.218a.708.708,0,0,1,.517-.907l.708-.191a.708.708,0,0,1,.9.517l.3,1.1a9.207,9.207,0,0,1,2.833-.248.708.708,0,0,1,.708.708v1.126a.708.708,0,0,1-.807.708,7.592,7.592,0,0,0-2.79.241c-1.416.39-1.707,1.1-1.558,1.643.177.666,1.176.885,3.222.956,2.918.078,4.341.892,4.887,2.9.5,1.848-.418,3.881-2.96,5.021l.368,1.36a.708.708,0,0,1-.517.907l-.708.191a.708.708,0,0,1-.921-.5Z" transform="translate(-109.406 -92.062)" fill="#f25585"/>
      </g>
      <g id="Grupo_58591" data-name="Grupo 58591" transform="translate(42.623 3.625)">
        <ellipse id="Elipse_4671" data-name="Elipse 4671" cx="11.353" cy="11.353" rx="11.353" ry="11.353" transform="matrix(0.984, -0.178, 0.178, 0.984, 0, 4.048)" fill="#febc7c"/>
        <ellipse id="Elipse_4672" data-name="Elipse 4672" cx="10.978" cy="10.978" rx="10.978" ry="10.978" transform="translate(1.858 23.784) rotate(-88.11)" fill="#f25585"/>
        <path id="Trazado_119387" data-name="Trazado 119387" d="M129.654,67.2a.262.262,0,0,1-.127,0,.269.269,0,0,1-.22-.326,10.468,10.468,0,0,1,9.335-8.293.283.283,0,0,1,.043.56,10.043,10.043,0,0,0-1.756.312,9.816,9.816,0,0,0-7.082,7.536.276.276,0,0,1-.191.212Z" transform="translate(-126.314 -55.777)" fill="#fff" opacity="0.58"/>
        <ellipse id="Elipse_4673" data-name="Elipse 4673" cx="9.292" cy="9.292" rx="9.292" ry="9.292" transform="translate(0.978 9.311) rotate(-27.13)" fill="#fff" opacity="0.78"/>
        <path id="Trazado_119388" data-name="Trazado 119388" d="M143.187,77.728l-.262-.977a8.1,8.1,0,0,1-2.9.149.581.581,0,0,1-.489-.581v-.977a.595.595,0,0,1,.673-.581,6.82,6.82,0,0,0,2.67-.149c.977-.269,1.622-.8,1.416-1.48s-.836-.822-2.295-.822c-2.082,0-3.711-.475-4.172-2.181-.418-1.544.39-3.031,2.259-3.874l-.262-.977a.588.588,0,0,1,.418-.708l.574-.156a.588.588,0,0,1,.708.411l.234.878a7.465,7.465,0,0,1,2.273-.2.588.588,0,0,1,.538.588v.857a.588.588,0,0,1-.644.588,6.091,6.091,0,0,0-2.231.191c-1.161.312-1.36.885-1.246,1.317s.942.708,2.578.765c2.337.064,3.477.708,3.909,2.323.4,1.48-.333,3.1-2.366,4.009l.29,1.1a.588.588,0,0,1-.411.708l-.574.156a.6.6,0,0,1-.687-.375Z" transform="translate(-128.77 -57.473)" fill="#f25585"/>
      </g>
    </g>
    <g id="Grupo_58598" data-name="Grupo 58598" transform="translate(0 87.118)">
      <g id="Grupo_58596" data-name="Grupo 58596">
        <g id="Grupo_58593" data-name="Grupo 58593">
          <path id="Trazado_119389" data-name="Trazado 119389" d="M23.969,143.81c-.4,14.554-1.728,64.775-1.1,82.566a3.832,3.832,0,0,0,3.9,3.463c10.531.3,49.144,1.077,66.369.439,3.591-.135,6.445-2.705,6.516-5.885.361-15.284,1.147-58.259-.708-77.948a5.24,5.24,0,0,0-4.958-4.476c-11.466-1.013-50.242-3.5-65.122-2.642A4.913,4.913,0,0,0,23.969,143.81Z" transform="translate(-22.704 -139.151)" fill="url(#linear-gradient-7)"/>
          <rect id="Rectángulo_6752" data-name="Rectángulo 6752" width="67.516" height="20.907" rx="6.05" transform="translate(4.289 6.792)" fill="#91b3fa"/>
          <path id="Trazado_119390" data-name="Trazado 119390" d="M94.666,153.975a2.833,2.833,0,0,0-1.99-.864l-55.157-.871a2.833,2.833,0,0,0-2.833,2.557l-1.147,12.238c-.092,1.006,1.558,1.848,3.654,1.87l54.229.659c2.125,0,3.832-.772,3.853-1.778l.205-11.8A2.833,2.833,0,0,0,94.666,153.975Z" transform="translate(-25.864 -142.97)" fill="#fff" opacity="0.2"/>
        </g>
        <path id="Trazado_119391" data-name="Trazado 119391" d="M44.347,194.3a3.945,3.945,0,0,1-3.945,3.945H35.608A3.945,3.945,0,0,1,31.67,194.3h0a3.938,3.938,0,0,1,3.938-3.938H40.4A3.938,3.938,0,0,1,44.34,194.3Z" transform="translate(-25.32 -154.092)" fill="url(#linear-gradient-8)"/>
        <path id="Trazado_119392" data-name="Trazado 119392" d="M69.507,194.3a3.945,3.945,0,0,1-3.938,3.945h-4.8A3.945,3.945,0,0,1,56.83,194.3h0a3.938,3.938,0,0,1,3.938-3.938h4.8a3.938,3.938,0,0,1,3.938,3.938Z" transform="translate(-32.661 -154.092)" fill="url(#linear-gradient-9)"/>
        <path id="Trazado_119393" data-name="Trazado 119393" d="M93.7,194.3a3.945,3.945,0,0,1-3.945,3.945H84.959A3.952,3.952,0,0,1,81,194.3h0a3.945,3.945,0,0,1,3.945-3.938H89.74a3.938,3.938,0,0,1,3.945,3.938Z" transform="translate(-39.713 -154.092)" fill="url(#linear-gradient-10)"/>
        <path id="Trazado_119394" data-name="Trazado 119394" d="M118.249,195.089a4.009,4.009,0,0,1-4.009,4H109.6a4,4,0,0,1-4-4h0a4,4,0,0,1,4-4.009h4.639a4.009,4.009,0,0,1,4.009,4.009Z" transform="translate(-46.89 -154.302)" fill="#f25585"/>
        <path id="Trazado_119395" data-name="Trazado 119395" d="M44.347,211.718a3.938,3.938,0,0,1-3.945,3.945H35.608a3.938,3.938,0,0,1-3.938-3.945h0a3.938,3.938,0,0,1,3.938-3.938H40.4a3.938,3.938,0,0,1,3.938,3.938Z" transform="translate(-25.32 -159.174)" fill="url(#linear-gradient-11)"/>
        <path id="Trazado_119396" data-name="Trazado 119396" d="M69.507,211.718a3.938,3.938,0,0,1-3.938,3.945h-4.8a3.938,3.938,0,0,1-3.938-3.945h0a3.938,3.938,0,0,1,3.938-3.938h4.8A3.938,3.938,0,0,1,69.507,211.718Z" transform="translate(-32.661 -159.174)" fill="url(#linear-gradient-12)"/>
        <path id="Trazado_119397" data-name="Trazado 119397" d="M93.7,211.718a3.945,3.945,0,0,1-3.945,3.945H84.959A3.945,3.945,0,0,1,81,211.718h0a3.945,3.945,0,0,1,3.945-3.938H89.74a3.938,3.938,0,0,1,3.945,3.938Z" transform="translate(-39.713 -159.174)" fill="url(#linear-gradient-13)"/>
        <path id="Trazado_119398" data-name="Trazado 119398" d="M118.867,211.718a3.938,3.938,0,0,1-3.938,3.945h-4.8a3.938,3.938,0,0,1-3.938-3.945h0a3.938,3.938,0,0,1,3.938-3.938h4.8a3.938,3.938,0,0,1,3.938,3.938Z" transform="translate(-47.062 -159.174)" fill="url(#linear-gradient-14)"/>
        <g id="Grupo_58594" data-name="Grupo 58594" transform="translate(6.35 59.527)">
          <path id="Trazado_119399" data-name="Trazado 119399" d="M44.347,227.145a3.938,3.938,0,0,1-3.945,3.938H35.608a3.938,3.938,0,0,1-3.938-3.938h0a3.945,3.945,0,0,1,3.938-3.945H40.4a3.945,3.945,0,0,1,3.938,3.945Z" transform="translate(-31.67 -223.2)" opacity="0.63" fill="url(#linear-gradient-15)"/>
          <path id="Trazado_119400" data-name="Trazado 119400" d="M69.507,227.145a3.938,3.938,0,0,1-3.938,3.938h-4.8a3.938,3.938,0,0,1-3.938-3.938h0a3.945,3.945,0,0,1,3.938-3.945h4.8a3.945,3.945,0,0,1,3.938,3.945Z" transform="translate(-39.011 -223.2)" opacity="0.63" fill="url(#linear-gradient-16)"/>
          <path id="Trazado_119401" data-name="Trazado 119401" d="M93.7,227.145a3.938,3.938,0,0,1-3.945,3.938H84.959A3.945,3.945,0,0,1,81,227.145h0a3.952,3.952,0,0,1,3.945-3.945H89.74a3.945,3.945,0,0,1,3.945,3.945Z" transform="translate(-46.063 -223.2)" opacity="0.63" fill="url(#linear-gradient-17)"/>
        </g>
        <g id="Grupo_58595" data-name="Grupo 58595" transform="translate(6.35 71.524)">
          <path id="Trazado_119402" data-name="Trazado 119402" d="M44.347,244.085a3.938,3.938,0,0,1-3.945,3.938H35.608a3.938,3.938,0,0,1-3.938-3.938h0a3.938,3.938,0,0,1,3.938-3.945H40.4a3.938,3.938,0,0,1,3.938,3.945Z" transform="translate(-31.67 -240.14)" opacity="0.63" fill="url(#linear-gradient-18)"/>
          <path id="Trazado_119403" data-name="Trazado 119403" d="M69.507,244.085a3.938,3.938,0,0,1-3.938,3.938h-4.8a3.938,3.938,0,0,1-3.938-3.938h0a3.938,3.938,0,0,1,3.938-3.945h4.8a3.938,3.938,0,0,1,3.938,3.945Z" transform="translate(-39.011 -240.14)" opacity="0.63" fill="url(#linear-gradient-19)"/>
          <path id="Trazado_119404" data-name="Trazado 119404" d="M93.7,244.085a3.938,3.938,0,0,1-3.945,3.938H84.959A3.945,3.945,0,0,1,81,244.085h0a3.945,3.945,0,0,1,3.945-3.945H89.74a3.945,3.945,0,0,1,3.945,3.945Z" transform="translate(-46.063 -240.14)" opacity="0.63" fill="url(#linear-gradient-20)"/>
        </g>
        <rect id="Rectángulo_6753" data-name="Rectángulo 6753" width="10.284" height="19.533" rx="5.142" transform="translate(59.815 60.596)" fill="url(#linear-gradient-21)"/>
      </g>
      <g id="Grupo_58597" data-name="Grupo 58597" transform="translate(57.754 11.933)" opacity="0.7">
        <path id="Trazado_119405" data-name="Trazado 119405" d="M110.3,156.857a.857.857,0,0,1-.857.857h-2.4a.857.857,0,0,1-.857-.857h0a.857.857,0,0,1,.857-.857h2.394a.857.857,0,0,1,.857.857Z" transform="translate(-104.816 -156)" fill="#fff"/>
        <path id="Trazado_119406" data-name="Trazado 119406" d="M110.3,173.307a.857.857,0,0,1-.857.857h-2.4a.857.857,0,0,1-.857-.857h0a.857.857,0,0,1,.857-.857h2.394a.857.857,0,0,1,.857.857Z" transform="translate(-104.816 -160.8)" fill="#fff"/>
        <path id="Trazado_119407" data-name="Trazado 119407" d="M105.964,162.655a.857.857,0,0,1-.857.857h0a.857.857,0,0,1-.857-.857v-2.408a.857.857,0,0,1,.857-.857h0a.857.857,0,0,1,.857.857Z" transform="translate(-104.25 -156.989)" fill="#fff"/>
        <path id="Trazado_119408" data-name="Trazado 119408" d="M105.964,169.418a.857.857,0,0,1-.857.857h0a.857.857,0,0,1-.857-.857v-2.4a.857.857,0,0,1,.857-.857h0a.857.857,0,0,1,.857.857Z" transform="translate(-104.25 -158.964)" fill="#fff"/>
        <path id="Trazado_119409" data-name="Trazado 119409" d="M114.194,162.655a.857.857,0,0,1-.857.857h0a.857.857,0,0,1-.857-.857v-2.408a.857.857,0,0,1,.857-.857h0a.857.857,0,0,1,.857.857Z" transform="translate(-106.651 -156.989)" fill="#fff"/>
        <path id="Trazado_119410" data-name="Trazado 119410" d="M114.194,169.418a.857.857,0,0,1-.857.857h0a.857.857,0,0,1-.857-.857v-2.4a.857.857,0,0,1,.857-.857h0a.857.857,0,0,1,.857.857Z" transform="translate(-106.651 -158.964)" fill="#fff"/>
      </g>
    </g>
    <g id="Grupo_58609" data-name="Grupo 58609" transform="translate(91.085 101.278)">
      <g id="Grupo_58604" data-name="Grupo 58604" transform="translate(34.73 6.011)">
        <g id="Grupo_58599" data-name="Grupo 58599" transform="translate(18 65.342)">
          <path id="Trazado_119411" data-name="Trazado 119411" d="M226.01,267.29c1.509.127,4.143.34,6.211.432a5.871,5.871,0,0,0,2.38-.234.815.815,0,0,1,0,.135.425.425,0,0,1-.4.4,71.733,71.733,0,0,1-8.145,0,.312.312,0,0,1-.248-.46A3.081,3.081,0,0,1,226.01,267.29Z" transform="translate(-225.766 -262.049)" fill="url(#linear-gradient-22)"/>
          <path id="Trazado_119412" data-name="Trazado 119412" d="M232.321,266.462c-2.068-.092-4.7-.3-6.211-.432,1.487-1.827,6.211-3.06,6.211-3.06h1.339a5.6,5.6,0,0,1,1.041,3.258,5.871,5.871,0,0,1-2.38.234Z" transform="translate(-225.866 -260.789)" fill="url(#linear-gradient-23)"/>
          <path id="Trazado_119413" data-name="Trazado 119413" d="M236.063,259.89l-.127,2.472a.56.56,0,0,1-.482.531,2.125,2.125,0,0,1-1.006-.085.659.659,0,0,1-.446-.51l-.432-2.408Z" transform="translate(-228.043 -259.89)" fill="url(#linear-gradient-24)"/>
        </g>
        <g id="Grupo_58601" data-name="Grupo 58601" transform="translate(38.882 63.033)">
          <g id="Grupo_58600" data-name="Grupo 58600" transform="translate(0.586 2.294)">
            <path id="Trazado_119414" data-name="Trazado 119414" d="M260.641,267.55a1.211,1.211,0,0,0,1.077-.8h0a.857.857,0,0,1-.574.977,3.754,3.754,0,0,1-1.594.248,1.586,1.586,0,0,1-1.19-.552h0A4.015,4.015,0,0,0,260.641,267.55Z" transform="translate(-256.744 -261.877)" fill="url(#linear-gradient-25)"/>
            <path id="Trazado_119415" data-name="Trazado 119415" d="M256.873,259.87h1.1c1.678-.035,2.727,3.5,3.074,4.873a1.211,1.211,0,0,1-1.077.8,4.016,4.016,0,0,1-2.288-.127,10.575,10.575,0,0,1-1.572-3.952A1.417,1.417,0,0,1,256.873,259.87Z" transform="translate(-256.078 -259.87)" fill="url(#linear-gradient-26)"/>
          </g>
          <path id="Trazado_119416" data-name="Trazado 119416" d="M257.594,256.63l.609,2.429a.659.659,0,0,1-.34.751,2.323,2.323,0,0,1-1.268.3.552.552,0,0,1-.453-.368l-.892-2.557Z" transform="translate(-255.25 -256.63)" fill="url(#linear-gradient-27)"/>
        </g>
        <path id="Trazado_119417" data-name="Trazado 119417" d="M249.906,243.373c-.765.673-3.237.765-3.237.765-8.917-21.4-12.564-24.434-12.564-24.434,1.289,8.074.212,25.95.212,25.95a5.34,5.34,0,0,1-3.371,0,137.914,137.914,0,0,0-4.547-33.839c6.02-.135,9.207-2.2,10.269-3.024C241.7,216.892,249.906,243.373,249.906,243.373Z" transform="translate(-207.951 -179.639)" fill="url(#linear-gradient-28)"/>
        <path id="Trazado_119418" data-name="Trazado 119418" d="M231.79,173.99c1.14,5.666.708,15.872.467,20.539-.078,1.3.836,3.109,1.572,4.349a.39.39,0,0,1-.156.545,27,27,0,0,1-10.255,2.833.708.708,0,0,1-.708-.517,134.805,134.805,0,0,0-7.791-21.955C219.566,172.4,231.79,173.99,231.79,173.99Z" transform="translate(-204.601 -169.444)" fill="url(#linear-gradient-29)"/>
        <path id="Trazado_119419" data-name="Trazado 119419" d="M234.9,222.027a.3.3,0,0,0,.149-.042.276.276,0,0,0,.092-.39,9.008,9.008,0,0,0-3.541-3.067.283.283,0,0,0-.382.135.276.276,0,0,0,.135.375,8.577,8.577,0,0,1,3.293,2.833.3.3,0,0,0,.255.156Z" transform="translate(-209.348 -182.472)" fill="url(#linear-gradient-30)"/>
        <g id="Grupo_58602" data-name="Grupo 58602" transform="translate(25.957 4.575)">
          <path id="Trazado_119420" data-name="Trazado 119420" d="M247.014,196.946a19.441,19.441,0,0,1-3.612,8.612l-.822-.673a25.426,25.426,0,0,0,.411-8.223,9.916,9.916,0,0,1,4.023.283Z" transform="translate(-238.628 -180.65)" fill="url(#linear-gradient-31)"/>
          <path id="Trazado_119421" data-name="Trazado 119421" d="M237,181.109l1.268-7.019s8.5,6.509,7.153,16.289a9.915,9.915,0,0,0-4.023-.283A13.908,13.908,0,0,0,237,181.109Z" transform="translate(-237 -174.09)" fill="#f25585"/>
        </g>
        <g id="Grupo_58603" data-name="Grupo 58603" transform="translate(0 10.305)">
          <path id="Trazado_119422" data-name="Trazado 119422" d="M213.716,182.18,217,189.262c-.531,4.249-2.833,6.119-5.3,6.827a15.192,15.192,0,0,0-1.1-4.611C213.716,188.214,213.716,182.18,213.716,182.18Z" transform="translate(-203.341 -182.18)" fill="#f25585"/>
          <path id="Trazado_119423" data-name="Trazado 119423" d="M207.6,195.3a15.192,15.192,0,0,1,1.1,4.611c-6.6,2.557-8.35-2.408-8.35-2.408l1.218-.212A6.926,6.926,0,0,0,207.6,195.3Z" transform="translate(-200.35 -186.008)" fill="url(#linear-gradient-32)"/>
        </g>
        <path id="Trazado_119424" data-name="Trazado 119424" d="M219.26,169.2l1.579,5.829a1.147,1.147,0,0,0,1.523.758,23.524,23.524,0,0,0,2.281-1.048,1.523,1.523,0,0,0,.538-2.2l-3.272-4.915Z" transform="translate(-205.867 -167.63)" fill="url(#linear-gradient-33)"/>
      </g>
      <g id="Grupo_58605" data-name="Grupo 58605" transform="translate(42.955)">
        <path id="Trazado_119425" data-name="Trazado 119425" d="M214.36,163.218c0,.1,1.317,6.65,1.317,6.65l3.725-.843-.34-6.374S214.6,161.539,214.36,163.218Z" transform="translate(-212.662 -160.061)" fill="url(#linear-gradient-34)"/>
        <path id="Trazado_119426" data-name="Trazado 119426" d="M217.52,163.135l.446,3.35a.382.382,0,0,1,0,.127c-.035.269-.234,1.161-1.133.907a4.249,4.249,0,0,0-2.125-.276.475.475,0,0,0-.326.545,19.924,19.924,0,0,0,.857,3.052.467.467,0,0,0,.567.283,15.32,15.32,0,0,0,3.286-1.346.475.475,0,0,0,.234-.425c0-.85-.135-3.421-.057-4.143s.914-1.084,1.275-1.225a.446.446,0,0,0,.255-.262,1.225,1.225,0,0,0-.822-1.785.474.474,0,0,1-.3-.616,1.225,1.225,0,0,0-.708-1.693,1.721,1.721,0,0,0-2.061.5.467.467,0,0,1-.6.071.375.375,0,0,0-.425,0,.467.467,0,0,1-.666-.2,1.416,1.416,0,0,0-1.636-.814c-1.671.283-1.856,2.125-1.416,3.215s2.231.708,3.13.127a1.946,1.946,0,0,1,1.955.255.453.453,0,0,1,.269.354Z" transform="translate(-211.962 -159.143)" fill="url(#linear-gradient-35)"/>
        <path id="Trazado_119427" data-name="Trazado 119427" d="M222.42,168.364s-.708-1.926,0-2.394,1.749-.227,1.523,1.169C223.667,168.867,222.42,168.364,222.42,168.364Z" transform="translate(-214.922 -161.071)" fill="url(#linear-gradient-36)"/>
      </g>
      <path id="Trazado_119428" data-name="Trazado 119428" d="M199.934,198.494c-.333.262-1.466-.276-2.167-.652a.8.8,0,0,1-.382-.949c.163-.531.446-1.211.786-1.3C198.772,195.455,201.35,197.424,199.934,198.494Z" transform="translate(-164.743 -169.777)" fill="url(#linear-gradient-37)"/>
      <g id="Grupo_58608" data-name="Grupo 58608" transform="translate(0 17.886)">
        <g id="Grupo_58607" data-name="Grupo 58607">
          <path id="Trazado_119429" data-name="Trazado 119429" d="M246.007,211.584,179.631,188l-3.541,9.759L242.466,222a3.1,3.1,0,0,0,3.739-1.353,13.173,13.173,0,0,0,1.565-6.53A2.67,2.67,0,0,0,246.007,211.584Z" transform="translate(-158.541 -185.448)" fill="#febc7c"/>
          <g id="Grupo_58606" data-name="Grupo 58606">
            <path id="Trazado_119430" data-name="Trazado 119430" d="M151.863,184.406l9.143,1.126a8.053,8.053,0,0,1-1.82,4.766l-7.656-5.05a.46.46,0,0,1,.333-.843Z" transform="translate(-151.312 -184.397)" fill="#febc7c"/>
            <path id="Trazado_119431" data-name="Trazado 119431" d="M175.646,187.416a12.8,12.8,0,0,1-3.541,9.759L162.43,190.8a8.053,8.053,0,0,0,1.82-4.8Z" transform="translate(-154.556 -184.865)" fill="#ffe9d3"/>
          </g>
        </g>
        <path id="Trazado_119432" data-name="Trazado 119432" d="M247.4,216.125a.2.2,0,0,0,.064-.382l-63.5-22.437a.192.192,0,1,0-.127.361l63.5,22.444Z" transform="translate(-160.765 -186.993)" fill="url(#linear-gradient-38)"/>
        <path id="Trazado_119433" data-name="Trazado 119433" d="M245.857,221.524a.193.193,0,0,0,.064-.375l-63.507-22.444a.191.191,0,0,0-.248.12.2.2,0,0,0,.12.248l63.5,22.444Z" transform="translate(-160.311 -188.568)" fill="url(#linear-gradient-39)"/>
      </g>
      <path id="Trazado_119434" data-name="Trazado 119434" d="M240.79,208.022l-3.846-.312-1.664,1.53s.4.545,1.629.234a17.79,17.79,0,0,1,2.918-.39s1.693.765,1.714-.666Z" transform="translate(-175.811 -173.313)" fill="url(#linear-gradient-40)"/>
    </g>
  </g>
</svg>
