<svg id="img4" xmlns="http://www.w3.org/2000/svg" xmlns:xlink="http://www.w3.org/1999/xlink" width="402.323" height="402.323" viewBox="0 0 402.323 402.323">
  <defs>
    <linearGradient id="linear-gradient" x1="-0.04" y1="0.5" x2="1.04" y2="0.5" gradientUnits="objectBoundingBox">
      <stop offset="0" stop-color="#472ea6"/>
      <stop offset="1" stop-color="#6c58b8"/>
    </linearGradient>
    <linearGradient id="linear-gradient-2" y1="0.5" x2="1" y2="0.5" gradientUnits="objectBoundingBox">
      <stop offset="0" stop-color="#fd8f25"/>
      <stop offset="1" stop-color="#fda551"/>
    </linearGradient>
    <linearGradient id="linear-gradient-3" x1="0" y1="0.5" x2="1" y2="0.5" xlink:href="#linear-gradient-2"/>
    <linearGradient id="linear-gradient-4" x1="0" y1="0.5" x2="1" y2="0.5" xlink:href="#linear-gradient-2"/>
    <linearGradient id="linear-gradient-5" x1="-0.001" y1="0.5" x2="1" y2="0.5" xlink:href="#linear-gradient-2"/>
    <linearGradient id="linear-gradient-6" x1="43.62" y1="-163.399" x2="43.404" y2="-154.268" gradientUnits="objectBoundingBox">
      <stop offset="0" stop-color="#120c2a"/>
      <stop offset="1" stop-color="#35237d"/>
    </linearGradient>
    <linearGradient id="linear-gradient-7" x1="42.701" y1="-163.744" x2="42.489" y2="-154.23" xlink:href="#linear-gradient-6"/>
    <linearGradient id="linear-gradient-8" x1="43.015" y1="-172.926" x2="42.801" y2="-162.552" xlink:href="#linear-gradient-6"/>
    <linearGradient id="linear-gradient-9" x1="-284.37" y1="-3.795" x2="-291.196" y2="-3.498" xlink:href="#linear-gradient-6"/>
    <linearGradient id="linear-gradient-10" x1="1198.228" y1="-4.556" x2="1192.04" y2="-4.279" xlink:href="#linear-gradient-6"/>
    <linearGradient id="linear-gradient-11" x1="0.042" y1="1.17" x2="0.805" y2="0.038" gradientUnits="objectBoundingBox">
      <stop offset="0" stop-color="#f25585"/>
      <stop offset="0.97" stop-color="#b3204d"/>
    </linearGradient>
    <linearGradient id="linear-gradient-12" x1="-0.017" y1="1.228" x2="0.949" y2="-0.151" xlink:href="#linear-gradient-11"/>
    <linearGradient id="linear-gradient-13" x1="-0.128" y1="1.462" x2="0.869" y2="-0.08" xlink:href="#linear-gradient-11"/>
    <linearGradient id="linear-gradient-14" x1="-0.064" y1="1.122" x2="0.939" y2="-0.002" xlink:href="#linear-gradient-11"/>
    <linearGradient id="linear-gradient-15" x1="-0.032" y1="1.184" x2="0.9" y2="-0.032" xlink:href="#linear-gradient-11"/>
    <linearGradient id="linear-gradient-16" x1="0.086" y1="0.993" x2="0.816" y2="0.106" xlink:href="#linear-gradient-11"/>
    <linearGradient id="linear-gradient-17" x1="-0.098" y1="1.035" x2="0.942" y2="0.086" xlink:href="#linear-gradient-11"/>
    <linearGradient id="linear-gradient-18" x1="-0.045" y1="1.232" x2="0.883" y2="-0.03" xlink:href="#linear-gradient-11"/>
    <linearGradient id="linear-gradient-19" x1="0.473" y1="-2.081" x2="0.366" y2="-12.524" xlink:href="#linear-gradient-6"/>
    <linearGradient id="linear-gradient-20" x1="232.189" y1="0.583" x2="235.803" y2="0.446" gradientUnits="objectBoundingBox">
      <stop offset="0" stop-color="#cb236d"/>
      <stop offset="1" stop-color="#4c246d"/>
    </linearGradient>
    <linearGradient id="linear-gradient-21" x1="0.002" y1="1.148" x2="0.875" y2="0.012" xlink:href="#linear-gradient-11"/>
    <linearGradient id="linear-gradient-22" x1="84.342" y1="0.562" x2="85.693" y2="0.673" xlink:href="#linear-gradient-6"/>
    <linearGradient id="linear-gradient-23" x1="0" y1="0.5" x2="1" y2="0.5" xlink:href="#linear-gradient-6"/>
    <linearGradient id="linear-gradient-24" x1="0" y1="0.5" x2="0.998" y2="0.5" xlink:href="#linear-gradient-6"/>
    <linearGradient id="linear-gradient-25" x1="97.037" y1="0.5" x2="98.038" y2="0.5" xlink:href="#linear-gradient-6"/>
    <linearGradient id="linear-gradient-26" x1="261.536" y1="-0.308" x2="260.171" y2="1.929" xlink:href="#linear-gradient-6"/>
    <linearGradient id="linear-gradient-27" x1="97.037" y1="0.5" x2="98.037" y2="0.5" xlink:href="#linear-gradient-6"/>
    <linearGradient id="linear-gradient-30" x1="37.792" y1="-0.486" x2="35.377" y2="1.163" xlink:href="#linear-gradient-11"/>
    <linearGradient id="linear-gradient-31" x1="261.536" y1="-0.308" x2="260.171" y2="1.929" xlink:href="#linear-gradient-6"/>
    <linearGradient id="linear-gradient-32" x1="166.249" y1="-40.628" x2="167.253" y2="-40.628" xlink:href="#linear-gradient-6"/>
    <linearGradient id="linear-gradient-33" x1="170.816" y1="-310.864" x2="167.118" y2="-277.809" xlink:href="#linear-gradient-2"/>
    <linearGradient id="linear-gradient-34" x1="232.141" y1="-3.208" x2="234.118" y2="6.806" xlink:href="#linear-gradient-2"/>
    <linearGradient id="linear-gradient-35" x1="71.02" y1="0.794" x2="73.103" y2="-0.625" xlink:href="#linear-gradient-6"/>
    <linearGradient id="linear-gradient-36" x1="137.485" y1="-0.66" x2="135.15" y2="1.29" xlink:href="#linear-gradient-6"/>
    <linearGradient id="linear-gradient-37" x1="0.707" y1="1.817" x2="0.553" y2="0.701" xlink:href="#linear-gradient-2"/>
    <linearGradient id="linear-gradient-38" x1="115.075" y1="-0.219" x2="114.258" y2="2.963" gradientUnits="objectBoundingBox">
      <stop offset="0" stop-color="#febbba"/>
      <stop offset="1" stop-color="#ff928e"/>
    </linearGradient>
    <linearGradient id="linear-gradient-39" x1="109.07" y1="-110.687" x2="107.505" y2="-109.312" xlink:href="#linear-gradient-38"/>
    <linearGradient id="linear-gradient-40" x1="64.502" y1="-67.514" x2="65.533" y2="-67.514" xlink:href="#linear-gradient-6"/>
    <linearGradient id="linear-gradient-41" x1="250.277" y1="-316.333" x2="253.166" y2="-318.76" xlink:href="#linear-gradient-38"/>
    <linearGradient id="linear-gradient-42" x1="0.285" y1="-0.563" x2="0.552" y2="1.036" xlink:href="#linear-gradient-2"/>
    <linearGradient id="linear-gradient-43" x1="0.632" y1="-2.776" x2="0.443" y2="1.871" xlink:href="#linear-gradient-2"/>
    <linearGradient id="linear-gradient-44" x1="1.158" y1="-0.145" x2="0.23" y2="0.75" xlink:href="#linear-gradient-11"/>
    <linearGradient id="linear-gradient-45" x1="284.755" y1="244.605" x2="283.329" y2="242.016" xlink:href="#linear-gradient-38"/>
    <linearGradient id="linear-gradient-46" x1="1.255" y1="0.119" x2="3.039" y2="-0.823" xlink:href="#linear-gradient-2"/>
    <linearGradient id="linear-gradient-47" x1="484.557" y1="1.017" x2="480.092" y2="0.3" xlink:href="#linear-gradient-38"/>
    <linearGradient id="linear-gradient-48" x1="410.014" y1="-6.664" x2="414.262" y2="-0.467" xlink:href="#linear-gradient-38"/>
    <linearGradient id="linear-gradient-49" x1="1.905" y1="0.5" x2="0.959" y2="0.5" xlink:href="#linear-gradient-11"/>
    <linearGradient id="linear-gradient-50" x1="64.256" y1="-0.115" x2="65.824" y2="1.726" xlink:href="#linear-gradient-11"/>
  </defs>
  <g id="Layer_1" data-name="Layer 1">
    <rect id="Rectángulo_6277" data-name="Rectángulo 6277" width="402.323" height="402.323" fill="none"/>
    <g id="Grupo_57058" data-name="Grupo 57058" transform="translate(29.507 29.458)">
      <path id="Trazado_115540" data-name="Trazado 115540" d="M81.824,230.606a1.232,1.232,0,0,1-.427-.556c-16.484-42.461-21.573-77-22.934-98.5-1.482-23.352.91-36.462,1.015-37a1.266,1.266,0,1,1,2.488.467c-.1.5-9.486,53.549,21.8,134.115a1.264,1.264,0,0,1-1.933,1.474Z" transform="translate(-40.799 -47.67)" fill="#fff" opacity="0.24"/>
      <g id="Grupo_57020" data-name="Grupo 57020" transform="translate(58.465 59.044)" opacity="0.84">
        <path id="Trazado_115541" data-name="Trazado 115541" d="M116.027,260.111a1.3,1.3,0,0,1-.6-1.321c.113-.805,11.612-77.965-6.088-147.208a1.329,1.329,0,0,1,2.569-.652c17.828,69.775,6.249,147.482,6.128,148.263a1.321,1.321,0,0,1-1.506,1.1A1.208,1.208,0,0,1,116.027,260.111Z" transform="translate(-109.314 -110.021)" fill="#fff" opacity="0.24"/>
      </g>
      <g id="Grupo_57022" data-name="Grupo 57022" transform="translate(17.887 4.783)">
        <ellipse id="Elipse_4370" data-name="Elipse 4370" cx="131.62" cy="141.927" rx="131.62" ry="141.927" transform="translate(0 262.987) rotate(-87.49)" fill="url(#linear-gradient)"/>
        <ellipse id="Elipse_4371" data-name="Elipse 4371" cx="111.335" cy="105.319" rx="111.335" ry="105.319" transform="translate(28.533 22.901)" fill="#fff" opacity="0.11"/>
        <g id="Grupo_57021" data-name="Grupo 57021" transform="translate(18.508 9.497)" opacity="0.68">
          <path id="Trazado_115542" data-name="Trazado 115542" d="M269.782,183.343a392.687,392.687,0,0,1-5.717,69.365c-1.039,5.717-2.239,11.4-3.672,17.039a165.323,165.323,0,0,1-5.113,16.677,79.044,79.044,0,0,1-7.642,15.727,31.5,31.5,0,0,1-5.733,6.684,16.509,16.509,0,0,1-3.752,2.416,11.274,11.274,0,0,1-4.381,1.039,11.073,11.073,0,0,1-4.429-.805A15.157,15.157,0,0,1,225.5,309.2a29.577,29.577,0,0,1-5.862-6.579,76.62,76.62,0,0,1-7.747-15.67,161.347,161.347,0,0,1-5.178-16.661c-1.441-5.637-2.657-11.322-3.7-17.039-2.086-11.427-3.511-22.974-4.469-34.545s-1.425-23.191-1.49-34.811c0-5.806.129-11.612.338-17.41s.54-11.6.966-17.393c.854-11.58,2.142-23.135,4.026-34.626.95-5.725,2.07-11.435,3.414-17.087a164.189,164.189,0,0,1,4.832-16.741c.974-2.738,2.037-5.452,3.221-8.1a59.06,59.06,0,0,1,4.171-7.682,28.6,28.6,0,0,1,5.8-6.6,14.382,14.382,0,0,1,3.785-2.271,10.605,10.605,0,0,1,4.356-.805,11.507,11.507,0,0,1,4.3,1.007,16.677,16.677,0,0,1,3.744,2.335,32.129,32.129,0,0,1,5.854,6.506,78.44,78.44,0,0,1,8.053,15.485,157.982,157.982,0,0,1,5.508,16.54c1.546,5.637,2.859,11.274,4.026,16.959A370.3,370.3,0,0,1,269.782,183.343Zm-1.723,0c0-11.571-.411-23.143-1.377-34.666a333.757,333.757,0,0,0-4.525-34.392c-1.063-5.685-2.311-11.33-3.785-16.91a159.231,159.231,0,0,0-5.291-16.5,77.511,77.511,0,0,0-7.755-15.421,31.357,31.357,0,0,0-5.637-6.442,16.194,16.194,0,0,0-3.591-2.295,10.8,10.8,0,0,0-4.091-1,10.017,10.017,0,0,0-4.139.805,14.172,14.172,0,0,0-3.616,2.214,27.991,27.991,0,0,0-5.524,6.539,58.515,58.515,0,0,0-4.026,7.634c-1.168,2.633-2.2,5.331-3.14,8.053a163.228,163.228,0,0,0-4.63,16.7c-1.28,5.637-2.327,11.33-3.221,17.039-1.78,11.435-2.931,22.958-3.656,34.505s-1,23.119-.974,34.69.354,23.143,1.216,34.674,2.19,23.038,4.179,34.433c1,5.693,2.158,11.362,3.551,16.967a157.7,157.7,0,0,0,5.009,16.572,75.694,75.694,0,0,0,7.513,15.493,28.87,28.87,0,0,0,5.637,6.442,14.358,14.358,0,0,0,3.583,2.174,10.059,10.059,0,0,0,4.026.805,10.38,10.38,0,0,0,4.026-.982,15.3,15.3,0,0,0,3.511-2.311,30.31,30.31,0,0,0,5.492-6.515,78.246,78.246,0,0,0,7.36-15.63,164.435,164.435,0,0,0,4.952-16.6c1.377-5.637,2.52-11.274,3.511-16.975,1.973-11.394,3.285-22.9,4.155-34.433S268.067,194.915,268.059,183.343Z" transform="translate(-104.431 -54.482)" fill="#fff"/>
          <path id="Trazado_115543" data-name="Trazado 115543" d="M312.063,183.176a169.484,169.484,0,0,1-6,44.289,142.714,142.714,0,0,1-18.492,40.649,116.527,116.527,0,0,1-14.183,17.377,99.057,99.057,0,0,1-17.407,14.036,83.861,83.861,0,0,1-20.309,9.3,75.883,75.883,0,0,1-44.173,0,84.062,84.062,0,0,1-20.325-9.285,99.107,99.107,0,0,1-17.431-14.027,116.729,116.729,0,0,1-14.167-17.337,142.955,142.955,0,0,1-18.565-40.665,161.087,161.087,0,0,1-4.494-21.975,165.16,165.16,0,0,1,0-44.764,162.5,162.5,0,0,1,4.511-21.967,143.375,143.375,0,0,1,18.589-40.633,117.143,117.143,0,0,1,14.175-17.321A99.211,99.211,0,0,1,171.28,66.865,84.36,84.36,0,0,1,191.6,57.612a75.37,75.37,0,0,1,44.1,0,83.934,83.934,0,0,1,20.253,9.333A98.5,98.5,0,0,1,273.39,80.917,116.47,116.47,0,0,1,287.54,98.238a142.934,142.934,0,0,1,18.541,40.617A169.461,169.461,0,0,1,312.063,183.176Zm-1.97,0a167.468,167.468,0,0,0-5.749-43.846,142.324,142.324,0,0,0-17.93-40.367,116.383,116.383,0,0,0-13.829-17.3,96.792,96.792,0,0,0-17.1-14.044,82.657,82.657,0,0,0-20.044-9.277,73.475,73.475,0,0,0-43.658,0,82.184,82.184,0,0,0-20.036,9.3A96.318,96.318,0,0,0,154.669,81.7a115.7,115.7,0,0,0-13.8,17.3,141.954,141.954,0,0,0-17.833,40.367,161.076,161.076,0,0,0-4.3,21.742,169.36,169.36,0,0,0,0,44.184,162,162,0,0,0,4.31,21.742,141.922,141.922,0,0,0,17.905,40.327,115.073,115.073,0,0,0,13.8,17.281,96.51,96.51,0,0,0,17.069,14.028,82.531,82.531,0,0,0,20.02,9.26,73.01,73.01,0,0,0,43.594,0,83.062,83.062,0,0,0,20.036-9.252,96.191,96.191,0,0,0,17.093-14.019,115.774,115.774,0,0,0,13.821-17.273,142.1,142.1,0,0,0,17.954-40.335A167.826,167.826,0,0,0,310.093,183.176Z" transform="translate(-88.297 -54.315)" fill="#fff"/>
          <path id="Trazado_115544" data-name="Trazado 115544" d="M94.719,151.111a.129.129,0,0,1,0-.258l29.579-.242,29.571-.129,59.151-.113,59.151.121,29.571.145,29.619.242a.089.089,0,0,1,0,.177l-29.579.258-29.571.145-59.151.121-59.151-.1-29.571-.137Z" transform="translate(-84.323 -73.021)" fill="#fff"/>
          <path id="Trazado_115545" data-name="Trazado 115545" d="M137.26,89.4a.129.129,0,0,1,.121-.129c7-.113,13.994-.161,20.987-.242l20.987-.137c6.993-.056,13.994-.048,20.987-.064h20.987l41.975.121,20.987.145c6.993.089,13.986.137,20.979.258a.089.089,0,0,1,.088.089.1.1,0,0,1-.088.089c-6.993.113-13.986.169-20.979.258l-20.987.145-41.974.121H200.342c-6.993,0-13.994,0-20.987-.072l-20.987-.209c-6.993-.081-13.986-.129-20.987-.242A.129.129,0,0,1,137.26,89.4Z" transform="translate(-92.633 -61.037)" fill="#fff"/>
          <path id="Trazado_115546" data-name="Trazado 115546" d="M81.969,212.709a.137.137,0,0,1-.129-.137.129.129,0,0,1,.129-.121l32.172-.242,32.172-.137,64.3-.113,64.3.121,32.172.153,32.172.258a.08.08,0,0,1,.08.089.072.072,0,0,1-.08.081l-32.172.258-32.172.153-64.3.121-64.3-.113-32.172-.137Z" transform="translate(-81.84 -85.016)" fill="#fff"/>
          <path id="Trazado_115547" data-name="Trazado 115547" d="M94.719,274.043,124.3,273.8l29.571-.137,59.15-.1,59.151.121,29.571.145,29.579.258a.089.089,0,0,1,0,.177l-29.579.258-29.571.145-59.151.121-59.151-.064-29.571-.137-29.579-.242a.129.129,0,0,1,0-.258Z" transform="translate(-84.323 -97.012)" fill="#fff"/>
          <path id="Trazado_115548" data-name="Trazado 115548" d="M311.2,335.8a.451.451,0,0,1-.451.459H142.554a.459.459,0,1,1,0-.91H310.748A.451.451,0,0,1,311.2,335.8Z" transform="translate(-93.729 -109.045)" fill="#fff"/>
        </g>
      </g>
      <g id="Grupo_57029" data-name="Grupo 57029" transform="translate(29.464)">
        <path id="Trazado_115549" data-name="Trazado 115549" d="M98.97,165.285a1.514,1.514,0,0,1-.459-.072,1.449,1.449,0,0,1-.91-1.836c.185-.548.378-1.1.572-1.611a1.449,1.449,0,0,1,2.722.99c-.193.523-.378,1.047-.556,1.611a1.441,1.441,0,0,1-1.369.918Zm2.609-6.692a1.538,1.538,0,0,1-.588-.121,1.457,1.457,0,0,1-.733-1.908l.725-1.611a1.449,1.449,0,0,1,2.617,1.232c-.242.507-.475,1.015-.7,1.53a1.441,1.441,0,0,1-1.321.878Zm3.221-6.442a1.433,1.433,0,0,1-.693-.177,1.449,1.449,0,0,1-.572-1.965c.282-.507.564-1.015.854-1.514a1.449,1.449,0,1,1,2.5,1.449c-.282.483-.556.966-.805,1.458a1.458,1.458,0,0,1-1.313.765Zm3.712-6.144a1.44,1.44,0,0,1-1.216-2.239c.314-.483.636-.958.966-1.441a1.452,1.452,0,0,1,2.416,1.611l-.942,1.4a1.433,1.433,0,0,1-1.248.684Zm4.171-5.846a1.441,1.441,0,0,1-1.143-2.319c.346-.459.7-.918,1.063-1.369a1.441,1.441,0,0,1,2.214,1.812l-1.039,1.329a1.433,1.433,0,0,1-1.119.6Zm4.558-5.54a1.449,1.449,0,0,1-1.087-2.416c.378-.435.805-.862,1.152-1.3a1.445,1.445,0,0,1,2.142,1.941c-.378.419-.749.805-1.119,1.264a1.457,1.457,0,0,1-1.1.523Zm4.9-5.25a1.433,1.433,0,0,1-1.015-.419,1.449,1.449,0,0,1,0-2.045c.4-.411.805-.805,1.224-1.216a1.443,1.443,0,1,1,2.021,2.061l-1.224,1.192a1.45,1.45,0,0,1-1.031.443Zm5.2-4.952a1.417,1.417,0,0,1-1.071-.483,1.433,1.433,0,0,1,.1-2.037c.427-.387.854-.805,1.288-1.152a1.449,1.449,0,0,1,1.908,2.174l-1.264,1.119a1.433,1.433,0,0,1-.99.395Zm5.46-4.67a1.441,1.441,0,0,1-.91-2.569l1.345-1.079a1.449,1.449,0,0,1,1.8,2.271l-1.321,1.055a1.466,1.466,0,0,1-.934.338Zm5.693-4.389a1.441,1.441,0,0,1-.854-2.609q.7-.515,1.4-1.015a1.449,1.449,0,0,1,1.683,2.351l-1.377.99a1.409,1.409,0,0,1-.878.3Zm5.878-4.131a1.449,1.449,0,0,1-.805-2.649l1.441-.942a1.441,1.441,0,1,1,1.57,2.416l-1.417.926a1.385,1.385,0,0,1-.789.25Zm6.08-3.825a1.449,1.449,0,0,1-.741-2.69l1.482-.878a1.477,1.477,0,1,1,1.474,2.561l-1.474.805a1.434,1.434,0,0,1-.741.234Zm6.241-3.551a1.441,1.441,0,0,1-.684-2.714l1.514-.805a1.443,1.443,0,1,1,1.345,2.553l-1.49.805a1.4,1.4,0,0,1-.684.193Zm6.378-3.269a1.449,1.449,0,0,1-.628-2.746l1.546-.741a1.444,1.444,0,0,1,1.24,2.609l-1.522.733a1.5,1.5,0,0,1-.636.177ZM169.6,97.6a1.449,1.449,0,0,1-.58-2.77l1.611-.676a1.449,1.449,0,1,1,1.119,2.665l-1.554.66a1.457,1.457,0,0,1-.62.153Zm6.651-2.7a1.466,1.466,0,0,1-1.353-.934A1.45,1.45,0,0,1,175.7,92.1l1.611-.6a1.449,1.449,0,0,1,1,2.714l-1.611.6a1.458,1.458,0,0,1-.451.129Zm6.772-2.416a1.441,1.441,0,0,1-.443-2.818l1.611-.523a1.443,1.443,0,0,1,.862,2.754l-1.611.515a1.425,1.425,0,0,1-.419.121Zm6.885-2.061a1.449,1.449,0,0,1-.387-2.843l1.667-.443a1.444,1.444,0,1,1,.733,2.794l-1.611.435a1.272,1.272,0,0,1-.4.1Zm6.974-1.715a1.441,1.441,0,0,1-.306-2.859l1.691-.354a1.449,1.449,0,0,1,.572,2.834c-.548.1-1.1.225-1.651.346a1.363,1.363,0,0,1-.306.081ZM234.2,87.627a1.4,1.4,0,0,1-.314,0c-.54-.121-1.079-.234-1.611-.338a1.443,1.443,0,1,1,.54-2.834c.58.113,1.152.225,1.715.354a1.449,1.449,0,0,1-.314,2.859Zm-30.261-.25a1.441,1.441,0,0,1-.217-2.867l1.707-.258a1.443,1.443,0,1,1,.4,2.859l-1.667.25a1.062,1.062,0,0,1-.225.064Zm7.126-.886a1.443,1.443,0,1,1-.129-2.883l1.731-.137a1.445,1.445,0,1,1,.209,2.883,16.767,16.767,0,0,0-1.675.137Zm16.049,0h-.145l-1.667-.153a1.441,1.441,0,0,1-1.329-1.554,1.457,1.457,0,0,1,1.554-1.329c.58.048,1.16.1,1.731.161a1.443,1.443,0,1,1-.145,2.883Zm-8.858-.378a1.441,1.441,0,0,1,0-2.883h1.731a1.449,1.449,0,0,1,0,2.891h-1.707Z" transform="translate(-77.963 -45.666)" fill="#fff"/>
        <g id="Grupo_57025" data-name="Grupo 57025" transform="translate(0 61.236)">
          <g id="Grupo_57024" data-name="Grupo 57024">
            <g id="Grupo_57023" data-name="Grupo 57023" transform="translate(0.525 0.284)">
              <circle id="Elipse_4372" data-name="Elipse 4372" cx="19.125" cy="19.125" r="19.125" transform="translate(0.037)" fill="url(#linear-gradient-2)"/>
              <path id="Trazado_115550" data-name="Trazado 115550" d="M112.138,135.46H73.921s-1.554,10.613,15.549,39.7a4.179,4.179,0,0,0,7.159,0C113.693,146.089,112.138,135.46,112.138,135.46Z" transform="translate(-73.884 -117.358)" fill="url(#linear-gradient-3)"/>
            </g>
            <path id="Trazado_115551" data-name="Trazado 115551" d="M92.911,173.362v.1h0a4.751,4.751,0,0,1-4.026-2.343c-9.977-17-13.633-27.741-14.946-33.756a19.261,19.261,0,0,1-.652-4.131,10.034,10.034,0,0,1,0-2.086l.048-.306a19.688,19.688,0,0,1,39.28.193,8.986,8.986,0,0,1,0,1.055v.072a19.753,19.753,0,0,1-.805,5.532c-1.353,6.007-5.033,16.653-14.849,33.362a4.622,4.622,0,0,1-4.05,2.3ZM74.318,131.875a12.619,12.619,0,0,0,.048,1.313h0a17.716,17.716,0,0,0,.62,3.9h0c1.288,5.927,4.9,16.54,14.817,33.426a3.6,3.6,0,0,0,3.1,1.764h0a3.777,3.777,0,0,0,3.108-1.78c9.744-16.6,13.383-27.153,14.712-33.088h0a18.69,18.69,0,0,0,.636-5.234l-.113-.081h0a6.626,6.626,0,0,1,.089-.926h.048a18.521,18.521,0,1,0-37.042.193v.564Z" transform="translate(-73.233 -112.628)" fill="#fff" opacity="0.8"/>
            <circle id="Elipse_4373" data-name="Elipse 4373" cx="11.048" cy="11.048" r="11.048" transform="translate(4.127 19.349) rotate(-45)" fill="#fff"/>
            <path id="Trazado_115552" data-name="Trazado 115552" d="M94.936,145.5a11.668,11.668,0,1,1,11.66-11.663A11.668,11.668,0,0,1,94.936,145.5Zm0-22.088a10.468,10.468,0,1,0,10.428,10.468,10.468,10.468,0,0,0-10.428-10.468Z" transform="translate(-75.185 -114.484)" fill="#7d97f4"/>
          </g>
          <path id="Trazado_115553" data-name="Trazado 115553" d="M84.7,121.3a.2.2,0,0,1-.145-.064.193.193,0,0,1,0-.266,17.12,17.12,0,0,1,11.161-4.131.185.185,0,1,1,0,.37A16.749,16.749,0,0,0,84.8,121.237.193.193,0,0,1,84.7,121.3Z" transform="translate(-75.428 -113.448)" fill="#fff"/>
          <path id="Trazado_115554" data-name="Trazado 115554" d="M77.355,136.114a.193.193,0,0,1-.185-.185,17.08,17.08,0,0,1,2.569-9.027.185.185,0,0,1,.314.193,16.741,16.741,0,0,0-2.512,8.858A.185.185,0,0,1,77.355,136.114Z" transform="translate(-73.999 -115.393)" fill="#fff"/>
        </g>
        <g id="Grupo_57028" data-name="Grupo 57028" transform="translate(141.891)">
          <g id="Grupo_57027" data-name="Grupo 57027">
            <g id="Grupo_57026" data-name="Grupo 57026" transform="translate(0.425 0.304)">
              <circle id="Elipse_4374" data-name="Elipse 4374" cx="13.923" cy="13.923" r="13.923" transform="translate(0.003)" fill="url(#linear-gradient-4)"/>
              <path id="Trazado_115555" data-name="Trazado 115555" d="M277.791,53.32h-27.8s-1.127,7.73,11.274,28.9a3.044,3.044,0,0,0,5.21,0C278.926,61.058,277.791,53.32,277.791,53.32Z" transform="translate(-249.967 -40.146)" fill="url(#linear-gradient-5)"/>
            </g>
            <path id="Trazado_115556" data-name="Trazado 115556" d="M263.789,80.885v.081h0a3.446,3.446,0,0,1-2.947-1.707c-7.247-12.369-9.929-20.2-10.879-24.568a13.971,13.971,0,0,1-.483-3.012,6.99,6.99,0,0,1,0-1.514V49.94a14.325,14.325,0,0,1,28.595.145,6.7,6.7,0,0,1,0,.765V50.9a14.445,14.445,0,0,1-.573,4.03c-.989,4.377-3.671,12.124-10.806,24.283A3.374,3.374,0,0,1,263.789,80.885Zm-13.544-30.2c0,.209,0,.507.04.958h0a12.826,12.826,0,0,0,.451,2.834h0c.942,4.316,3.575,12.079,10.79,24.335a2.625,2.625,0,0,0,2.255,1.28h0a2.738,2.738,0,0,0,2.255-1.288c7.094-12.079,9.744-19.769,10.718-24.085h0a13.512,13.512,0,0,0,.459-3.817l-.081-.056h0a5.761,5.761,0,0,1,.064-.684h.04a13.5,13.5,0,0,0-26.968.137v.411Z" transform="translate(-249.439 -36.582)" fill="#fff" opacity="0.8"/>
            <circle id="Elipse_4375" data-name="Elipse 4375" cx="8.036" cy="8.036" r="8.036" transform="matrix(0.957, -0.29, 0.29, 0.957, 4.384, 8.834)" fill="#fff"/>
            <path id="Trazado_115557" data-name="Trazado 115557" d="M265.263,60.631a8.5,8.5,0,1,1,8.487-8.5A8.5,8.5,0,0,1,265.263,60.631Zm0-16.105a7.573,7.573,0,1,1,0,.024Z" transform="translate(-250.865 -37.956)" fill="#7d97f4"/>
          </g>
          <path id="Trazado_115558" data-name="Trazado 115558" d="M257.815,43.015a.145.145,0,0,1-.1-.048.137.137,0,0,1,0-.193,12.506,12.506,0,0,1,8.125-3,.133.133,0,1,1,0,.266,12.192,12.192,0,0,0-7.9,2.947.121.121,0,0,1-.121.032Z" transform="translate(-251.042 -37.203)" fill="#fff"/>
          <path id="Trazado_115559" data-name="Trazado 115559" d="M252.469,53.794a.129.129,0,0,1-.129-.129,12.473,12.473,0,0,1,1.86-6.571.145.145,0,0,1,.185-.048.137.137,0,0,1,.048.185,12.175,12.175,0,0,0-1.828,6.442.137.137,0,0,1-.137.121Z" transform="translate(-250.004 -38.617)" fill="#fff"/>
        </g>
      </g>
      <g id="Grupo_57040" data-name="Grupo 57040" transform="translate(124.419 37.121)">
        <g id="Grupo_57030" data-name="Grupo 57030">
          <rect id="Rectángulo_6278" data-name="Rectángulo 6278" width="208.746" height="6.579" transform="translate(210.55 168.862) rotate(180)" fill="url(#linear-gradient-6)"/>
          <rect id="Rectángulo_6279" data-name="Rectángulo 6279" width="212.466" height="6.313" transform="translate(214.27 102.525) rotate(180)" fill="url(#linear-gradient-7)"/>
          <rect id="Rectángulo_6280" data-name="Rectángulo 6280" width="210.364" height="5.79" transform="translate(212.168 51.657) rotate(180)" fill="url(#linear-gradient-8)"/>
          <path id="Trazado_115560" data-name="Trazado 115560" d="M0,0H6.659V203.85H4.332A4.332,4.332,0,0,1,0,199.518Z" transform="translate(6.659 203.85) rotate(180)" fill="url(#linear-gradient-9)"/>
          <path id="Trazado_115561" data-name="Trazado 115561" d="M0,0H7.352V212.853a4.783,4.783,0,0,1-4.783,4.783H0Z" transform="translate(215.953 218.538) rotate(180)" fill="url(#linear-gradient-10)"/>
        </g>
        <g id="Grupo_57039" data-name="Grupo 57039" transform="translate(54.186 14.408)">
          <g id="Grupo_57031" data-name="Grupo 57031" transform="translate(42.928 44.978)">
            <path id="Trazado_115562" data-name="Trazado 115562" d="M317.855,193.077a5.637,5.637,0,0,1-5.725-5.637V162.461a6,6,0,0,1,5.927-5.991c9.856-.1,30.181-.113,46.818,1.288a4.5,4.5,0,0,1,4.115,4.332l1.554,24.158a5.709,5.709,0,0,1-5.637,5.927Z" transform="translate(-312.13 -156.429)" fill="url(#linear-gradient-11)"/>
            <path id="Trazado_115563" data-name="Trazado 115563" d="M345.221,177.78l6.764.733a1.522,1.522,0,0,0,1.683-1.611l-1.474-20.131c-2.843-.089-5.637-.153-8.334-.2v19.672A1.514,1.514,0,0,0,345.221,177.78Z" transform="translate(-318.309 -156.456)" fill="#fff" opacity="0.37"/>
            <path id="Trazado_115564" data-name="Trazado 115564" d="M348.753,174.313a.684.684,0,0,0,.676.644h.04a.684.684,0,0,0,.644-.725l-1.023-17.563H347.73Z" transform="translate(-319.063 -156.476)" fill="#fff"/>
          </g>
          <g id="Grupo_57032" data-name="Grupo 57032" transform="translate(103.145 50.192)">
            <path id="Trazado_115565" data-name="Trazado 115565" d="M391.814,194.322a4.831,4.831,0,0,1-4.9-4.831V168.07a5.129,5.129,0,0,1,5.081-5.129c8.439-.1,25.857-.1,40.109,1.1a3.857,3.857,0,0,1,3.527,3.7l1.28,20.727a4.9,4.9,0,0,1-4.832,5.081Z" transform="translate(-386.91 -162.903)" fill="url(#linear-gradient-12)"/>
            <path id="Trazado_115566" data-name="Trazado 115566" d="M415.208,181.221l5.8.62a1.3,1.3,0,0,0,1.441-1.393L421.183,163.2c-2.416-.072-4.832-.129-7.143-.169v16.91A1.313,1.313,0,0,0,415.208,181.221Z" transform="translate(-392.193 -162.928)" fill="#fff" opacity="0.37"/>
            <path id="Trazado_115567" data-name="Trazado 115567" d="M418.218,178.247a.58.58,0,0,0,.58.556h0a.58.58,0,0,0,.548-.612l-.878-15.05H417.3Z" transform="translate(-392.828 -162.949)" fill="#fff"/>
          </g>
          <g id="Grupo_57033" data-name="Grupo 57033" transform="translate(18.585 5.31)">
            <path id="Trazado_115568" data-name="Trazado 115568" d="M285.435,136.094c-1.941.048-3.535-1.949-3.535-4.437V111.928c0-2.593,1.611-4.7,3.656-4.727a263.829,263.829,0,0,1,28.892,1.015c1.4.153,2.488,1.611,2.537,3.414l.958,19.076c.072,2.528-1.482,4.63-3.463,4.679Z" transform="translate(-281.9 -107.167)" fill="url(#linear-gradient-13)"/>
            <path id="Trazado_115569" data-name="Trazado 115569" d="M305.609,124.017l5.339.58a1.208,1.208,0,0,0,1.329-1.288l-1.168-15.888c-2.239-.072-4.445-.121-6.579-.161v15.558a1.208,1.208,0,0,0,1.079,1.2Z" transform="translate(-286.307 -107.185)" fill="#fff" opacity="0.37"/>
            <path id="Trazado_115570" data-name="Trazado 115570" d="M308.385,121.281a.531.531,0,0,0,.531.507h0a.54.54,0,0,0,.507-.572l-.805-13.866H307.54Z" transform="translate(-286.893 -107.202)" fill="#fff"/>
          </g>
          <g id="Grupo_57034" data-name="Grupo 57034" transform="translate(59.661)">
            <path id="Trazado_115571" data-name="Trazado 115571" d="M337.009,134.182c-2.255.056-4.1-2.271-4.1-5.154V106.1c0-3.012,1.892-5.46,4.244-5.492a306.451,306.451,0,0,1,33.563,1.184c1.611.169,2.9,1.876,2.955,3.97l1.184,22.161c.089,2.931-1.723,5.379-4.026,5.435Z" transform="translate(-332.91 -100.573)" fill="url(#linear-gradient-14)"/>
            <path id="Trazado_115572" data-name="Trazado 115572" d="M360.488,120.151l6.209.668a1.393,1.393,0,0,0,1.546-1.49l-1.361-18.464c-2.6-.081-5.162-.137-7.642-.185v18.078a1.4,1.4,0,0,0,1.248,1.393Z" transform="translate(-338.038 -100.594)" fill="#fff" opacity="0.37"/>
            <path id="Trazado_115573" data-name="Trazado 115573" d="M363.762,116.979a.628.628,0,0,0,.62.588h0a.62.62,0,0,0,.588-.652l-.934-16.105H362.78Z" transform="translate(-338.727 -100.619)" fill="#fff"/>
          </g>
          <g id="Grupo_57035" data-name="Grupo 57035" transform="translate(108.162 1.039)">
            <path id="Trazado_115574" data-name="Trazado 115574" d="M397.247,135.472c-2.255.056-4.107-2.263-4.107-5.146V107.4c0-3.012,1.892-5.468,4.244-5.5a306.59,306.59,0,0,1,33.571,1.184c1.611.177,2.891,1.884,2.947,3.97l1.119,22.161c.081,2.931-1.731,5.379-4.026,5.435Z" transform="translate(-393.14 -101.863)" fill="url(#linear-gradient-15)"/>
            <path id="Trazado_115575" data-name="Trazado 115575" d="M420.7,121.443l6.209.668a1.393,1.393,0,0,0,1.546-1.49l-1.361-18.456c-2.6-.089-5.162-.145-7.642-.185v18.078a1.393,1.393,0,0,0,1.248,1.385Z" transform="translate(-398.264 -101.886)" fill="#fff" opacity="0.37"/>
            <path id="Trazado_115576" data-name="Trazado 115576" d="M423.9,118.268a.636.636,0,0,0,.628.588h0a.62.62,0,0,0,.588-.66l-.934-16.105H422.93Z" transform="translate(-398.941 -101.907)" fill="#fff"/>
          </g>
          <g id="Grupo_57036" data-name="Grupo 57036" transform="translate(0 99.035)">
            <path id="Trazado_115577" data-name="Trazado 115577" d="M263.732,273.147c-2.7.081-4.912-3.342-4.912-7.6V231.725c0-4.445,2.263-8.053,5.081-8.109,8.439-.145,25.857-.153,40.11,1.739,1.949.266,3.463,2.778,3.527,5.862l1.353,32.693c.1,4.332-2.069,7.948-4.832,8.053Z" transform="translate(-258.82 -223.559)" fill="url(#linear-gradient-16)"/>
            <path id="Trazado_115578" data-name="Trazado 115578" d="M287.168,241.831l5.8.62a1.313,1.313,0,0,0,1.45-1.393l-1.272-17.24c-2.416-.081-4.832-.137-7.143-.177v16.91a1.313,1.313,0,0,0,1.168,1.28Z" transform="translate(-264.113 -223.575)" fill="#fff" opacity="0.37"/>
            <path id="Trazado_115579" data-name="Trazado 115579" d="M290.18,238.863a.6.6,0,0,0,.588.548h0a.588.588,0,0,0,.548-.62l-.878-15.05H289.27Z" transform="translate(-264.75 -223.594)" fill="#fff"/>
          </g>
          <g id="Grupo_57037" data-name="Grupo 57037" transform="translate(51.77 98.689)">
            <path id="Trazado_115580" data-name="Trazado 115580" d="M328.014,272.717c-2.7.081-4.9-3.342-4.9-7.6V231.3c0-4.445,2.255-8.053,5.073-8.109,8.447-.145,25.857-.153,40.11,1.739,1.949.266,3.463,2.778,3.527,5.862l1.337,32.709c.1,4.332-2.07,7.948-4.832,8.053Z" transform="translate(-323.11 -223.129)" fill="url(#linear-gradient-17)"/>
            <path id="Trazado_115581" data-name="Trazado 115581" d="M351.45,241.4l5.8.62a1.313,1.313,0,0,0,1.449-1.393l-1.272-17.24c-2.416-.081-4.832-.137-7.135-.177v16.91a1.3,1.3,0,0,0,1.16,1.28Z" transform="translate(-328.403 -223.145)" fill="#fff" opacity="0.37"/>
            <path id="Trazado_115582" data-name="Trazado 115582" d="M354.46,238.433a.6.6,0,0,0,.588.548h0a.588.588,0,0,0,.548-.62l-.878-15.05H353.55Z" transform="translate(-329.038 -223.164)" fill="#fff"/>
          </g>
          <g id="Grupo_57038" data-name="Grupo 57038" transform="translate(103.652 93.481)">
            <path id="Trazado_115583" data-name="Trazado 115583" d="M392.444,272.094c-2.69.089-4.9-3.744-4.9-8.5v-37.8c0-4.968,2.263-9.011,5.073-9.067,8.447-.161,25.865-.169,40.118,1.949,1.941.29,3.455,3.108,3.527,6.555l1.329,36.567c.1,4.832-2.061,8.858-4.832,8.971Z" transform="translate(-387.54 -216.662)" fill="url(#linear-gradient-18)"/>
            <path id="Trazado_115584" data-name="Trazado 115584" d="M415.887,237.085l5.8.7a1.385,1.385,0,0,0,1.441-1.562l-1.264-19.27c-2.416-.089-4.832-.153-7.143-.193v18.875A1.417,1.417,0,0,0,415.887,237.085Z" transform="translate(-392.833 -216.681)" fill="#fff" opacity="0.37"/>
            <path id="Trazado_115585" data-name="Trazado 115585" d="M418.908,233.762a.612.612,0,0,0,.58.612h.04a.636.636,0,0,0,.548-.693L419.2,216.86H418.03Z" transform="translate(-393.478 -216.7)" fill="#fff"/>
          </g>
        </g>
      </g>
      <g id="Grupo_57049" data-name="Grupo 57049" transform="translate(87.563 179.596)">
        <rect id="Rectángulo_6281" data-name="Rectángulo 6281" width="176.721" height="16.21" transform="translate(8.431 99.868)" fill="url(#linear-gradient-19)"/>
        <path id="Trazado_115586" data-name="Trazado 115586" d="M156.588,400.218h-2.416a2.762,2.762,0,0,1-2.762-2.762V384H156.6Z" transform="translate(-146.86 -284.141)" fill="url(#linear-gradient-20)"/>
        <path id="Trazado_115587" data-name="Trazado 115587" d="M328.963,267.084c0-3.865-4.083-7.094-8.512-7.094H153.692c-4.429,0-7.932,3.221-7.932,7.094V354.97c0,3.865,3.5,7.159,7.932,7.159h166.76c4.429,0,8.512-3.293,8.512-7.159Z" transform="translate(-145.76 -259.99)" fill="#472ea6"/>
        <path id="Trazado_115588" data-name="Trazado 115588" d="M324.205,271.642c0-3.535-3.044-6.442-7.247-6.442H159.684c-4.179,0-8.294,2.891-8.294,6.442v80.364c0,3.535,4.115,6.949,8.294,6.949H317a7.167,7.167,0,0,0,7.247-6.949Z" transform="translate(-146.856 -261.005)" fill="#6c58b8" opacity="0.24"/>
        <path id="Trazado_115589" data-name="Trazado 115589" d="M431.426,339.813l-10.96-33.821a2,2,0,0,0-1.957-1.353H374.47V384.73h59.548Z" transform="translate(-190.3 -268.685)" fill="url(#linear-gradient-21)"/>
        <path id="Trazado_115590" data-name="Trazado 115590" d="M437.163,388.759a3.72,3.72,0,0,0-2.134-.58l-45.9.886L388.92,402.1l45.851,1.127c1.683,0,3.132-.805,3.132-1.949V390.233A1.611,1.611,0,0,0,437.163,388.759Z" transform="translate(-193.115 -284.954)" fill="url(#linear-gradient-22)"/>
        <g id="Grupo_57041" data-name="Grupo 57041" transform="translate(195.998 40.649)">
          <path id="Trazado_115591" data-name="Trazado 115591" d="M425.735,338.654l-6.627-26.267a2.158,2.158,0,0,0-1.989-1.667h-25.9a2.263,2.263,0,0,0-2.061,2.287l.62,21.033a2.078,2.078,0,0,0,1.731,1.981l31.9,5.162a2.053,2.053,0,0,0,2.327-2.529Z" transform="translate(-389.16 -310.519)" fill="url(#linear-gradient-23)"/>
          <path id="Trazado_115592" data-name="Trazado 115592" d="M432.432,310.47l-.338.056a2.061,2.061,0,0,0-1.651,2.561l7.247,26.839a2.045,2.045,0,0,0,2.359,1.49l2.287-.427Z" transform="translate(-397.186 -310.47)" fill="url(#linear-gradient-24)"/>
        </g>
        <rect id="Rectángulo_6282" data-name="Rectángulo 6282" width="11.998" height="4.864" rx="2.42" transform="translate(196.498 72.956)" fill="#120c2a"/>
        <path id="Trazado_115593" data-name="Trazado 115593" d="M377.546,275.308a2.979,2.979,0,0,0-2.078.636,2.682,2.682,0,0,0-1,1.8v21.21h26.855S399.86,276.943,377.546,275.308Z" transform="translate(-190.3 -262.971)" fill="#472ea6"/>
        <g id="Grupo_57043" data-name="Grupo 57043" transform="translate(190.058 95.874)">
          <g id="Grupo_57042" data-name="Grupo 57042" transform="translate(0)">
            <circle id="Elipse_4376" data-name="Elipse 4376" cx="20.864" cy="20.864" r="20.864" transform="translate(0 41.697) rotate(-87.8)" fill="url(#linear-gradient-25)"/>
            <circle id="Elipse_4377" data-name="Elipse 4377" cx="16.943" cy="16.943" r="16.943" transform="matrix(0.984, -0.178, 0.178, 0.984, 1.96, 7.986)" fill="#7d97f4"/>
            <path id="Trazado_115594" data-name="Trazado 115594" d="M421.125,408.454a.385.385,0,0,1-.161,0,.411.411,0,0,1-.217-.54A14.6,14.6,0,0,0,400.181,389.5a.411.411,0,0,1-.564-.161.4.4,0,0,1,.161-.556,15.413,15.413,0,0,1,21.742,19.455A.4.4,0,0,1,421.125,408.454Z" transform="translate(-385.245 -380.56)" fill="#bdd0fb"/>
          </g>
          <circle id="Elipse_4378" data-name="Elipse 4378" cx="7.771" cy="7.771" r="7.771" transform="matrix(0.251, -0.968, 0.968, 0.251, 12.193, 27.236)" fill="url(#linear-gradient-26)"/>
        </g>
        <g id="Grupo_57045" data-name="Grupo 57045" transform="translate(61.513 95.986)">
          <g id="Grupo_57044" data-name="Grupo 57044" transform="translate(0)">
            <circle id="Elipse_4379" data-name="Elipse 4379" cx="20.864" cy="20.864" r="20.864" transform="translate(0 41.705) rotate(-88.09)" fill="url(#linear-gradient-27)"/>
            <circle id="Elipse_4380" data-name="Elipse 4380" cx="16.943" cy="16.943" r="16.943" transform="translate(2.116 7.511) rotate(-9.22)" fill="#7d97f4"/>
            <path id="Trazado_115595" data-name="Trazado 115595" d="M261.359,408.459a.361.361,0,0,1-.161,0,.411.411,0,0,1-.225-.54,14.423,14.423,0,0,0,1.151-5.677A14.6,14.6,0,0,0,240.382,389.5a.411.411,0,1,1-.4-.717,15.429,15.429,0,0,1,21.742,19.455A.419.419,0,0,1,261.359,408.459Z" transform="translate(-225.581 -380.678)" fill="#bdd0fb"/>
          </g>
          <circle id="Elipse_4381" data-name="Elipse 4381" cx="7.771" cy="7.771" r="7.771" transform="translate(11.775 26.565) rotate(-72.23)" fill="url(#linear-gradient-26)"/>
        </g>
        <g id="Grupo_57047" data-name="Grupo 57047" transform="translate(13.72 95.909)">
          <g id="Grupo_57046" data-name="Grupo 57046" transform="translate(0)">
            <circle id="Elipse_4382" data-name="Elipse 4382" cx="20.864" cy="20.864" r="20.864" transform="matrix(0.036, -0.999, 0.999, 0.036, 0, 41.702)" fill="url(#linear-gradient-27)"/>
            <circle id="Elipse_4383" data-name="Elipse 4383" cx="16.943" cy="16.943" r="16.943" transform="translate(2.178 7.594) rotate(-9.22)" fill="url(#linear-gradient-30)"/>
            <path id="Trazado_115596" data-name="Trazado 115596" d="M202.079,408.459a.362.362,0,0,1-.161,0,.411.411,0,0,1-.225-.54,14.4,14.4,0,0,0,1.151-5.677A14.6,14.6,0,0,0,181.1,389.5a.411.411,0,1,1-.4-.717,15.429,15.429,0,0,1,21.742,19.455A.419.419,0,0,1,202.079,408.459Z" transform="translate(-166.244 -380.601)" fill="#fff"/>
          </g>
          <circle id="Elipse_4384" data-name="Elipse 4384" cx="7.771" cy="7.771" r="7.771" transform="matrix(0.251, -0.968, 0.968, 0.251, 12.128, 27.196)" fill="url(#linear-gradient-31)"/>
        </g>
        <g id="Grupo_57048" data-name="Grupo 57048" transform="translate(234.417 91.437)">
          <rect id="Rectángulo_6283" data-name="Rectángulo 6283" width="9.405" height="11.346" rx="2.56" transform="translate(0.016)" fill="#120c2a"/>
          <path id="Trazado_115597" data-name="Trazado 115597" d="M441.1,373.54v10.7H439.39a2.835,2.835,0,0,1-2.521-2.416v-6.78c0-1.135,1.385-1.506,2.52-1.506Z" transform="translate(-436.87 -373.54)" fill="#fff" opacity="0.8"/>
        </g>
        <path id="Trazado_115598" data-name="Trazado 115598" d="M378.8,358.728a.411.411,0,0,1-.411-.411V310.647a.419.419,0,0,1,.805,0v47.671A.411.411,0,0,1,378.8,358.728Z" transform="translate(-191.064 -269.796)" fill="#fff" opacity="0.7"/>
        <path id="Trazado_115599" data-name="Trazado 115599" d="M396.88,297.72a.4.4,0,0,1-.387-.282c-6.168-17.861-18.891-16.6-19.02-16.588a.411.411,0,1,1-.1-.805c.129,0,13.5-1.385,19.9,17.136a.419.419,0,0,1-.395.548Z" transform="translate(-190.783 -263.891)" fill="#bdd0fb"/>
      </g>
      <g id="Grupo_57056" data-name="Grupo 57056" transform="translate(0 148.073)">
        <g id="Grupo_57050" data-name="Grupo 57050" transform="translate(17.203 183.016)">
          <path id="Trazado_115600" data-name="Trazado 115600" d="M75.854,458.8a1.039,1.039,0,0,0,0-.314c-1.868-6.337-11.789-10.364-11.789-10.364l-3.978.209c-2.416,5.54-2.214,8.962-1.884,10.468a1.143,1.143,0,0,0,0,.129,119.182,119.182,0,0,0,17.651-.129Z" transform="translate(-58.007 -448.12)" fill="url(#linear-gradient-32)"/>
          <path id="Trazado_115601" data-name="Trazado 115601" d="M58.26,461.533a1.554,1.554,0,0,0,1.232,1.015c4.638.805,12.079.258,15.179,0A1.28,1.28,0,0,0,75.9,461.42a119.167,119.167,0,0,1-17.643.113Z" transform="translate(-58.056 -450.71)" fill="url(#linear-gradient-33)"/>
        </g>
        <g id="Grupo_57051" data-name="Grupo 57051" transform="translate(39.599 182.629)">
          <path id="Trazado_115602" data-name="Trazado 115602" d="M92.117,459.864a19.328,19.328,0,0,1-6.3-.894v1.071a.684.684,0,0,0,.66.709l19.382-.121a.886.886,0,0,0,.709-1.288C104.051,459.55,97.577,460.017,92.117,459.864Z" transform="translate(-85.819 -449.846)" fill="url(#linear-gradient-34)"/>
          <path id="Trazado_115603" data-name="Trazado 115603" d="M106.587,457.134a1.216,1.216,0,0,0-.072-.145c-1.715-2.416-6.072-7.151-14.688-9.22L87.7,447.64s-1.836,3.221-1.876,9.124a19.1,19.1,0,0,0,6.3.894C97.577,457.81,104.051,457.343,106.587,457.134Z" transform="translate(-85.82 -447.64)" fill="url(#linear-gradient-35)"/>
        </g>
        <path id="Trazado_115604" data-name="Trazado 115604" d="M77.988,328.316s8.713,48.613,8.536,96.276c0,.87-6.337,2.021-6.442,1.216-1.433-8.222-10.662-61.562-15.26-69.059,0,0-1.86,47.212-.894,68.543,0,.531-5.9,1.369-5.991.757-1-6.933-7.69-55.176-7.449-84.914,0-1.675,1.57-15.646,1.57-15.646C61.9,327.2,69.42,330.177,77.988,328.316Z" transform="translate(-39.338 -241.223)" fill="url(#linear-gradient-36)"/>
        <path id="Trazado_115605" data-name="Trazado 115605" d="M44.282,287.36c-5.741-12.667-6.353-21.565,0-25.349a9.2,9.2,0,0,1,1.16-.217l8.053-1.039h0a102.844,102.844,0,0,1,13.931-1.917c6.732-.419,13.971,0,16.91,3.334A47.631,47.631,0,0,0,90.1,272.1c5.411,7.1,8.053,15.018,10.879,13.472.805-.419,1.337-3.221,1.925-4.526a14.665,14.665,0,0,1,9.3,4.252c-2.351,12.763-10.122,18.046-29.182,2.367-3.616,10.235-7.6,23.167-6.313,32.548a1.659,1.659,0,0,1-1.337,1.772c-4.34.644-18.118,2.295-24.834-.395-.395-.153-1.482-.37-1.482-.805a92.725,92.725,0,0,0-4.276-31.6,17.918,17.918,0,0,1-.5-1.828Z" transform="translate(-37.247 -228.216)" fill="url(#linear-gradient-37)"/>
        <path id="Trazado_115606" data-name="Trazado 115606" d="M60.9,246.051l-1.3,13.23s7.449,2.239,12.884-1.611l-3.8-12.03Z" transform="translate(-41.114 -225.672)" fill="url(#linear-gradient-38)"/>
        <g id="Grupo_57052" data-name="Grupo 57052" transform="translate(15.419 1.974)">
          <path id="Trazado_115607" data-name="Trazado 115607" d="M74.135,231.788c.089.225.459,16.492.459,16.492H65.3L62.66,232.915S72.653,227.947,74.135,231.788Z" transform="translate(-57.129 -224.665)" fill="url(#linear-gradient-39)"/>
          <path id="Trazado_115608" data-name="Trazado 115608" d="M64.5,233.526a1.369,1.369,0,0,0-.419,1.1l.749,8.053a1.344,1.344,0,0,0,.089.354c.242.636,1.192,2.577,3.173,1.5,1.683-.918,3.221-1.747,4.517-1.78a1.329,1.329,0,0,1,1.361,1.313,48.484,48.484,0,0,1-.362,7.344,1.329,1.329,0,0,1-1.4,1.135,37.434,37.434,0,0,1-8.2-1.385,1.337,1.337,0,0,1-.9-1.031c-.395-2.134-1.522-8.1-2.1-9.744s-2.633-2.029-3.632-2.206a1.369,1.369,0,0,1-.9-.588,2.941,2.941,0,0,1,.934-4.517,1.329,1.329,0,0,0,.419-1.812,2.947,2.947,0,0,1,.805-4.268,4.171,4.171,0,0,1,5.017,0,1.377,1.377,0,0,0,1.659-.1.91.91,0,0,1,.854-.193c1.917.491,1.611-2.182,2.569-3.02,1.377-1.168,2.867.531,3.422,1.788.314.7.531,1.433.87,2.118a6.619,6.619,0,0,0,2.359,2.625,1.1,1.1,0,0,1,.4.362.676.676,0,0,1-.137.725,1.965,1.965,0,0,1-.66.4,8.318,8.318,0,0,1-6.055.242C67.136,231.311,65.332,232.72,64.5,233.526Z" transform="translate(-55.791 -223.294)" fill="url(#linear-gradient-40)"/>
          <path id="Trazado_115609" data-name="Trazado 115609" d="M61.895,246.673s.161-4.832-1.764-5.532-4.268.411-2.971,3.591C58.77,248.687,61.895,246.673,61.895,246.673Z" transform="translate(-55.985 -226.731)" fill="url(#linear-gradient-41)"/>
        </g>
        <g id="Grupo_57053" data-name="Grupo 57053" transform="translate(15.275)">
          <path id="Trazado_115610" data-name="Trazado 115610" d="M75.726,229.578c-2.891-15.05-24.3-8.785-19.382,4.695C63.768,232.074,72.6,228.136,75.726,229.578Z" transform="translate(-55.612 -220.843)" fill="url(#linear-gradient-42)"/>
          <path id="Trazado_115611" data-name="Trazado 115611" d="M65.145,233.7l12.449,3.422a.918.918,0,0,0,.886-.225,8.7,8.7,0,0,1,5.967-2.5.266.266,0,0,0,.081-.507l-7.4-2.843h0c-3.857-.87-7.891.37-11.99,2.359a.161.161,0,0,0,.008.3Z" transform="translate(-57.448 -222.774)" fill="url(#linear-gradient-43)"/>
        </g>
        <g id="Grupo_57054" data-name="Grupo 57054" transform="translate(12.72 34.017)">
          <path id="Trazado_115612" data-name="Trazado 115612" d="M59.244,306.662a6.684,6.684,0,0,1-6.8-6.684V270.264a7.118,7.118,0,0,1,7.038-7.127c11.724-.129,35.89-.137,55.675,1.53a5.363,5.363,0,0,1,4.9,5.146l1.844,28.74a6.8,6.8,0,0,1-6.668,7.054Z" transform="translate(-52.44 -263.087)" fill="url(#linear-gradient-44)"/>
          <path id="Trazado_115613" data-name="Trazado 115613" d="M91.781,288.465l8.053.87a1.82,1.82,0,0,0,2.005-1.941l-1.764-23.932c-3.374-.1-6.7-.185-9.9-.242v23.441A1.812,1.812,0,0,0,91.781,288.465Z" transform="translate(-59.788 -263.113)" fill="#fff" opacity="0.37"/>
          <path id="Trazado_115614" data-name="Trazado 115614" d="M95.966,284.347a.805.805,0,0,0,.805.765h0a.805.805,0,0,0,.805-.854L96.361,263.37H94.75Z" transform="translate(-60.68 -263.142)" fill="#fff"/>
        </g>
        <g id="Grupo_57055" data-name="Grupo 57055" transform="translate(0 33.312)">
          <path id="Trazado_115615" data-name="Trazado 115615" d="M87.849,317.237c1.449-2.029.362-3.374.362-3.374-7.32-2.609-17.812-2.416-25.768-12.393-3.221,1.715-.62,2.738-4.163,7.883C74.965,320.079,87.849,317.237,87.849,317.237Z" transform="translate(-40.857 -269.857)" fill="url(#linear-gradient-45)"/>
          <path id="Trazado_115616" data-name="Trazado 115616" d="M49.815,272.059c.1,12.006,3.881,21.154,21.887,30.463l-3.68,5.709c-8.761-.805-24.158-12.514-28.852-21.2-1.143-2.142-2.73-8.858-2.5-13.641C37.108,263.652,47.181,254.689,49.815,272.059Z" transform="translate(-36.643 -262.212)" fill="url(#linear-gradient-46)"/>
          <path id="Trazado_115617" data-name="Trazado 115617" d="M94.621,319.978c4.4,1.61,7.416-1.015,9.373-3.873a29.448,29.448,0,0,0-10.074.153Z" transform="translate(-47.798 -272.638)" fill="url(#linear-gradient-47)"/>
        </g>
        <path id="Trazado_115618" data-name="Trazado 115618" d="M138.309,282.349c-1.111-.274-3.624-3.664-3.889-2.416s.491,2.81.378,3.342-.958,3.479-.29,4.719a50.73,50.73,0,0,1,1.925,5.21c.161.491.3,1.151.805,1.1s.926-.765.974-1.28C138.237,292.818,139.428,282.615,138.309,282.349Z" transform="translate(-55.652 -232.297)" fill="url(#linear-gradient-48)"/>
      </g>
      <g id="Grupo_57057" data-name="Grupo 57057" transform="translate(76.832 240.916)">
        <path id="Trazado_115619" data-name="Trazado 115619" d="M0,0H75.96V81.145a9.1,9.1,0,0,1-9.1,9.1H.024V0Z" transform="translate(75.96 90.559) rotate(180)" fill="url(#linear-gradient-49)"/>
        <path id="Trazado_115620" data-name="Trazado 115620" d="M0,0H73.012V90.188h-62.7A10.307,10.307,0,0,1,.008,79.881V0Z" transform="translate(85.317 90.583) rotate(180)" fill="url(#linear-gradient-50)"/>
        <path id="Trazado_115621" data-name="Trazado 115621" d="M193.08,362.6l-8.439.91a1.9,1.9,0,0,1-2.1-2.029l1.844-25.092c3.535-.113,7.022-.193,10.388-.25v24.568a1.9,1.9,0,0,1-1.691,1.892Z" transform="translate(-141.978 -336.14)" fill="#fff" opacity="0.37"/>
        <path id="Trazado_115622" data-name="Trazado 115622" d="M190.919,358.281a.805.805,0,0,1-.846.805h-.048a.846.846,0,0,1-.805-.894l1.272-21.9h1.7Z" transform="translate(-143.28 -336.169)" fill="#fff"/>
      </g>
    </g>
  </g>
</svg>
