<svg id="img5" xmlns="http://www.w3.org/2000/svg" xmlns:xlink="http://www.w3.org/1999/xlink" width="402.323" height="402.323" viewBox="0 0 402.323 402.323">
  <defs>
    <linearGradient id="linear-gradient" x1="0.463" y1="0.142" x2="0.557" y2="1.049" gradientUnits="objectBoundingBox">
      <stop offset="0" stop-color="#472ea6"/>
      <stop offset="1" stop-color="#6c58b8"/>
    </linearGradient>
    <linearGradient id="linear-gradient-2" y1="0.5" x2="1" y2="0.5" gradientUnits="objectBoundingBox">
      <stop offset="0" stop-color="#dae3fe"/>
      <stop offset="1" stop-color="#e9effd"/>
    </linearGradient>
    <linearGradient id="linear-gradient-3" x1="0" y1="0.499" x2="1" y2="0.499" xlink:href="#linear-gradient-2"/>
    <linearGradient id="linear-gradient-4" x1="0" y1="0.5" x2="1" y2="0.5" xlink:href="#linear-gradient-2"/>
    <linearGradient id="linear-gradient-5" x1="0.528" y1="1.132" x2="0.407" y2="-0.083" gradientUnits="objectBoundingBox">
      <stop offset="0" stop-color="#a22b25"/>
      <stop offset="1" stop-color="#c0423c"/>
    </linearGradient>
    <linearGradient id="linear-gradient-6" x1="1.931" y1="-0.354" x2="-0.311" y2="1.263" gradientUnits="objectBoundingBox">
      <stop offset="0" stop-color="#fd8f25"/>
      <stop offset="0.97" stop-color="#be6b1c"/>
    </linearGradient>
    <linearGradient id="linear-gradient-7" x1="-0.58" y1="0.867" x2="-5.057" y2="2.815" gradientUnits="objectBoundingBox">
      <stop offset="0" stop-color="#f25585"/>
      <stop offset="0.97" stop-color="#b3204d"/>
    </linearGradient>
    <linearGradient id="linear-gradient-8" x1="0.888" y1="-0.843" x2="0.251" y2="1.394" gradientUnits="objectBoundingBox">
      <stop offset="0" stop-color="#ff928e"/>
      <stop offset="1" stop-color="#feb3b1"/>
    </linearGradient>
    <linearGradient id="linear-gradient-9" x1="1.01" y1="-1.187" x2="0.399" y2="0.554" xlink:href="#linear-gradient-8"/>
    <linearGradient id="linear-gradient-10" x1="0.763" y1="-1.392" x2="-0.306" y2="5.924" xlink:href="#linear-gradient-8"/>
    <linearGradient id="linear-gradient-11" x1="0.858" y1="0.196" x2="-0.223" y2="1.099" gradientUnits="objectBoundingBox">
      <stop offset="0" stop-color="#120c2a"/>
      <stop offset="1" stop-color="#35237d"/>
    </linearGradient>
    <linearGradient id="linear-gradient-12" x1="0.911" y1="0.156" x2="-0.229" y2="1.313" xlink:href="#linear-gradient-8"/>
    <linearGradient id="linear-gradient-13" x1="0.89" y1="-1.066" x2="0.726" y2="-0.352" xlink:href="#linear-gradient-8"/>
    <linearGradient id="linear-gradient-14" x1="-0.001" y1="-0.635" x2="0.452" y2="0.325" xlink:href="#linear-gradient-8"/>
    <linearGradient id="linear-gradient-15" x1="-0.251" y1="-0.731" x2="0.078" y2="-0.223" gradientUnits="objectBoundingBox">
      <stop offset="0" stop-color="#241753"/>
      <stop offset="1" stop-color="#6c58b8"/>
    </linearGradient>
    <linearGradient id="linear-gradient-16" x1="-1.524" y1="-2.94" x2="0.332" y2="0.195" xlink:href="#linear-gradient-8"/>
    <linearGradient id="linear-gradient-17" x1="0.604" y1="0.858" x2="0.332" y2="-0.073" xlink:href="#linear-gradient-5"/>
    <linearGradient id="linear-gradient-18" x1="1.016" y1="0.19" x2="-0.331" y2="0.942" xlink:href="#linear-gradient-6"/>
    <linearGradient id="linear-gradient-19" x1="0.592" y1="0.88" x2="0.368" y2="-0.057" xlink:href="#linear-gradient-5"/>
    <linearGradient id="linear-gradient-20" x1="1.004" y1="-0.976" x2="0.537" y2="0.326" xlink:href="#linear-gradient"/>
    <linearGradient id="linear-gradient-21" x1="0.985" y1="0.336" x2="-1.642" y2="1.663" xlink:href="#linear-gradient-6"/>
    <linearGradient id="linear-gradient-22" x1="0.609" y1="0.796" x2="0.324" y2="-0.022" xlink:href="#linear-gradient-5"/>
    <linearGradient id="linear-gradient-23" x1="211.942" y1="14.352" x2="211.62" y2="13.444" xlink:href="#linear-gradient-5"/>
    <linearGradient id="linear-gradient-24" x1="560.226" y1="44.262" x2="559.924" y2="43.209" xlink:href="#linear-gradient-5"/>
    <linearGradient id="linear-gradient-25" x1="17.043" y1="26.02" x2="16.544" y2="27.137" xlink:href="#linear-gradient"/>
    <linearGradient id="linear-gradient-26" x1="1.532" y1="-5.148" x2="1.018" y2="-2.331" xlink:href="#linear-gradient"/>
    <linearGradient id="linear-gradient-27" x1="15.872" y1="-2.337" x2="6.968" y2="-0.694" xlink:href="#linear-gradient-7"/>
    <linearGradient id="linear-gradient-28" x1="0.553" y1="0.447" x2="-0.948" y2="1.964" xlink:href="#linear-gradient-7"/>
    <linearGradient id="linear-gradient-29" x1="5.026" y1="-4.089" x2="2.652" y2="-1.681" xlink:href="#linear-gradient"/>
    <linearGradient id="linear-gradient-30" x1="6.9" y1="-0.668" x2="2.76" y2="0.091" xlink:href="#linear-gradient"/>
    <linearGradient id="linear-gradient-31" x1="128.431" y1="-0.433" x2="125.652" y2="1.196" xlink:href="#linear-gradient-8"/>
    <linearGradient id="linear-gradient-32" x1="3.488" y1="-4.124" x2="1.593" y2="-1.192" xlink:href="#linear-gradient"/>
    <linearGradient id="linear-gradient-33" x1="1.686" y1="-0.921" x2="-0.436" y2="1.64" xlink:href="#linear-gradient-8"/>
    <linearGradient id="linear-gradient-34" x1="4.843" y1="-5.894" x2="2.662" y2="-2.683" xlink:href="#linear-gradient"/>
    <linearGradient id="linear-gradient-35" x1="3.227" y1="-4.356" x2="1.378" y2="-1.063" xlink:href="#linear-gradient"/>
    <linearGradient id="linear-gradient-36" x1="-0.001" y1="0.5" x2="1" y2="0.5" xlink:href="#linear-gradient-8"/>
    <linearGradient id="linear-gradient-37" x1="215.654" y1="13.841" x2="216.689" y2="9.535" xlink:href="#linear-gradient"/>
    <linearGradient id="linear-gradient-38" x1="3.502" y1="-4.845" x2="1.652" y2="-1.551" xlink:href="#linear-gradient"/>
    <linearGradient id="linear-gradient-39" x1="-0.001" y1="0.499" x2="1.002" y2="0.499" xlink:href="#linear-gradient-8"/>
    <linearGradient id="linear-gradient-40" x1="215.822" y1="13.143" x2="216.857" y2="8.836" xlink:href="#linear-gradient"/>
    <linearGradient id="linear-gradient-41" x1="360.852" y1="1.1" x2="361.56" y2="-0.302" xlink:href="#linear-gradient-8"/>
    <linearGradient id="linear-gradient-42" x1="93.332" y1="-0.177" x2="-14.581" y2="0.611" xlink:href="#linear-gradient-8"/>
    <linearGradient id="linear-gradient-43" x1="-0.312" y1="1.598" x2="0.508" y2="0.516" xlink:href="#linear-gradient-7"/>
    <linearGradient id="linear-gradient-44" x1="6198.505" y1="-0.167" x2="6181.006" y2="3.346" xlink:href="#linear-gradient"/>
    <linearGradient id="linear-gradient-45" x1="7833.015" y1="-0.086" x2="7810.896" y2="3.376" xlink:href="#linear-gradient"/>
    <linearGradient id="linear-gradient-46" x1="6958.171" y1="-0.014" x2="6938.539" y2="3.444" xlink:href="#linear-gradient"/>
    <linearGradient id="linear-gradient-47" x1="4683.355" y1="0.121" x2="4670.13" y2="3.399" xlink:href="#linear-gradient"/>
    <linearGradient id="linear-gradient-48" x1="10959.784" y1="0.175" x2="10928.857" y2="3.7" xlink:href="#linear-gradient"/>
    <linearGradient id="linear-gradient-49" x1="6973.133" y1="0.227" x2="6953.48" y2="3.744" xlink:href="#linear-gradient"/>
    <linearGradient id="linear-gradient-50" x1="4106.485" y1="-0.188" x2="4094.877" y2="2.947" xlink:href="#linear-gradient"/>
    <linearGradient id="linear-gradient-51" x1="-0.529" y1="1.362" x2="0.691" y2="0.367" xlink:href="#linear-gradient-7"/>
    <linearGradient id="linear-gradient-52" x1="6208.99" y1="-0.167" x2="6191.308" y2="3.348" xlink:href="#linear-gradient"/>
    <linearGradient id="linear-gradient-53" x1="7815.153" y1="-0.091" x2="7792.881" y2="3.372" xlink:href="#linear-gradient"/>
    <linearGradient id="linear-gradient-54" x1="6925.512" y1="-0.018" x2="6905.791" y2="3.444" xlink:href="#linear-gradient"/>
    <linearGradient id="linear-gradient-55" x1="4690.84" y1="0.119" x2="4677.477" y2="3.4" xlink:href="#linear-gradient"/>
    <linearGradient id="linear-gradient-56" x1="11028.817" y1="0.174" x2="10997.424" y2="3.701" xlink:href="#linear-gradient"/>
    <linearGradient id="linear-gradient-57" x1="6954.668" y1="0.227" x2="6934.886" y2="3.747" xlink:href="#linear-gradient"/>
    <linearGradient id="linear-gradient-58" x1="4125.042" y1="-0.191" x2="4113.279" y2="2.952" xlink:href="#linear-gradient"/>
    <linearGradient id="linear-gradient-59" x1="-0.014" y1="1.169" x2="0.944" y2="-0.028" xlink:href="#linear-gradient-7"/>
    <linearGradient id="linear-gradient-60" x1="8793.922" y1="-0.165" x2="8775.962" y2="3.357" xlink:href="#linear-gradient"/>
    <linearGradient id="linear-gradient-61" x1="11161.538" y1="-0.086" x2="11138.747" y2="3.376" xlink:href="#linear-gradient"/>
    <linearGradient id="linear-gradient-62" x1="9841.834" y1="-0.016" x2="9821.742" y2="3.446" xlink:href="#linear-gradient"/>
    <linearGradient id="linear-gradient-63" x1="6695.028" y1="0.12" x2="6681.366" y2="3.396" xlink:href="#linear-gradient"/>
    <linearGradient id="linear-gradient-64" x1="15592.175" y1="0.181" x2="15560.362" y2="3.676" xlink:href="#linear-gradient"/>
    <linearGradient id="linear-gradient-65" x1="9928.161" y1="0.226" x2="9907.908" y2="3.744" xlink:href="#linear-gradient"/>
    <linearGradient id="linear-gradient-66" x1="5662.407" y1="-0.19" x2="5650.848" y2="2.931" xlink:href="#linear-gradient"/>
    <linearGradient id="linear-gradient-67" x1="-1.143" y1="2.344" x2="0.438" y2="0.594" gradientUnits="objectBoundingBox">
      <stop offset="0" stop-color="#fe7062"/>
      <stop offset="0.53" stop-color="#fe7164"/>
      <stop offset="0.72" stop-color="#fe776b"/>
      <stop offset="0.86" stop-color="#fe8076"/>
      <stop offset="0.97" stop-color="#ff8d87"/>
      <stop offset="1" stop-color="#ff928e"/>
    </linearGradient>
    <linearGradient id="linear-gradient-68" x1="10306.042" y1="-0.167" x2="10284.652" y2="3.366" xlink:href="#linear-gradient"/>
    <linearGradient id="linear-gradient-69" x1="12881.878" y1="-0.086" x2="12855.216" y2="3.377" xlink:href="#linear-gradient"/>
    <linearGradient id="linear-gradient-70" x1="11495.96" y1="-0.02" x2="11472.124" y2="3.463" xlink:href="#linear-gradient"/>
    <linearGradient id="linear-gradient-71" x1="7769.46" y1="0.127" x2="7753.451" y2="3.372" xlink:href="#linear-gradient"/>
    <linearGradient id="linear-gradient-72" x1="18341.674" y1="0.17" x2="18303.863" y2="3.706" xlink:href="#linear-gradient"/>
    <linearGradient id="linear-gradient-73" x1="11570.895" y1="0.228" x2="11546.935" y2="3.747" xlink:href="#linear-gradient"/>
    <linearGradient id="linear-gradient-74" x1="6723.535" y1="-0.188" x2="6709.633" y2="2.945" xlink:href="#linear-gradient"/>
    <linearGradient id="linear-gradient-75" x1="-0.792" y1="1.508" x2="0.737" y2="0.342" xlink:href="#linear-gradient-7"/>
    <linearGradient id="linear-gradient-76" x1="10208.447" y1="-0.167" x2="10186.934" y2="3.367" xlink:href="#linear-gradient"/>
    <linearGradient id="linear-gradient-77" x1="12888.976" y1="-0.086" x2="12861.905" y2="3.377" xlink:href="#linear-gradient"/>
    <linearGradient id="linear-gradient-78" x1="11468.709" y1="-0.016" x2="11444.579" y2="3.452" xlink:href="#linear-gradient"/>
    <linearGradient id="linear-gradient-79" x1="7701.787" y1="0.127" x2="7685.694" y2="3.37" xlink:href="#linear-gradient"/>
    <linearGradient id="linear-gradient-80" x1="18152.963" y1="0.171" x2="18115.014" y2="3.704" xlink:href="#linear-gradient"/>
    <linearGradient id="linear-gradient-81" x1="11584.404" y1="0.228" x2="11560.047" y2="3.749" xlink:href="#linear-gradient"/>
    <linearGradient id="linear-gradient-82" x1="6772.887" y1="-0.191" x2="6758.685" y2="2.95" xlink:href="#linear-gradient"/>
  </defs>
  <g id="Layer_1" data-name="Layer 1" transform="translate(0)">
    <rect id="Rectángulo_6284" data-name="Rectángulo 6284" width="364.002" height="402.323" transform="translate(18.548)" fill="none"/>
    <g id="Grupo_57094" data-name="Grupo 57094" transform="translate(0 30.353)">
      <g id="Grupo_57062" data-name="Grupo 57062" transform="translate(53.153 42.802)">
        <ellipse id="Elipse_4385" data-name="Elipse 4385" cx="140.483" cy="151.788" rx="140.483" ry="151.788" transform="translate(0 280.697) rotate(-87.49)" fill="url(#linear-gradient)"/>
        <g id="Grupo_57059" data-name="Grupo 57059" transform="translate(30.483 24.499)" opacity="0.18">
          <ellipse id="Elipse_4386" data-name="Elipse 4386" cx="119.105" cy="112.518" rx="119.105" ry="112.518" fill="#91b3fa"/>
        </g>
        <g id="Grupo_57060" data-name="Grupo 57060" transform="translate(19.733 10.117)" opacity="0.68">
          <path id="Trazado_115623" data-name="Trazado 115623" d="M268.293,241.19q0,18.581-1.425,37.137c-.966,12.355-2.488,24.678-4.679,36.88q-1.667,9.158-3.93,18.187a176.511,176.511,0,0,1-5.468,17.793c-1.087,2.912-2.279,5.791-3.616,8.607a67.591,67.591,0,0,1-4.542,8.172,42.359,42.359,0,0,1-2.8,3.772,28.444,28.444,0,0,1-3.318,3.362,17.34,17.34,0,0,1-4.026,2.582,12.089,12.089,0,0,1-4.678,1.1,11.527,11.527,0,0,1-2.416-.193,12.17,12.17,0,0,1-2.319-.676,16.44,16.44,0,0,1-4.1-2.413,25.758,25.758,0,0,1-3.4-3.29,39.512,39.512,0,0,1-2.859-3.732,62.992,62.992,0,0,1-4.622-8.14c-1.361-2.8-2.561-5.671-3.664-8.583a171.892,171.892,0,0,1-5.524-17.776c-1.546-6.009-2.843-12.065-3.954-18.179-2.231-12.194-3.744-24.517-4.775-36.864s-1.522-24.75-1.61-37.145v-4.641l.081-4.649q.1-4.649.274-9.29.338-9.29,1.031-18.557c.91-12.363,2.287-24.686,4.324-36.92,1.023-6.105,2.214-12.194,3.648-18.227a174.189,174.189,0,0,1,5.178-17.865c1.039-2.928,2.182-5.824,3.479-8.647a63.038,63.038,0,0,1,4.453-8.2,30.576,30.576,0,0,1,6.12-7.07,15.634,15.634,0,0,1,4.026-2.413,12.33,12.33,0,0,1,2.279-.66,11.689,11.689,0,0,1,2.367-.169,12.372,12.372,0,0,1,4.6,1.078,18.089,18.089,0,0,1,4.026,2.494,34.448,34.448,0,0,1,6.257,6.95,68.212,68.212,0,0,1,4.743,8.044c1.409,2.767,2.665,5.631,3.825,8.494a170.4,170.4,0,0,1,5.878,17.648c1.659,5.976,3.06,12.017,4.276,18.1a349.817,349.817,0,0,1,5.186,36.808C267.762,216.4,268.277,228.771,268.293,241.19Zm-1.836,0q0-9.258-.354-18.5t-1.119-18.5a353.812,353.812,0,0,0-4.831-36.695c-1.135-6.065-2.464-12.065-4.026-18.058a167.781,167.781,0,0,0-5.637-17.607c-1.119-2.872-2.335-5.7-3.7-8.462a65.463,65.463,0,0,0-4.606-7.987,33.352,33.352,0,0,0-6.056-6.869,17.341,17.341,0,0,0-3.833-2.413,11.493,11.493,0,0,0-4.381-1.062,10.793,10.793,0,0,0-4.413.8,15.19,15.19,0,0,0-3.865,2.413,30.164,30.164,0,0,0-5.9,6.974,62.876,62.876,0,0,0-4.292,8.092c-1.248,2.815-2.351,5.695-3.35,8.607a172.188,172.188,0,0,0-4.952,17.817c-1.361,6.017-2.488,12.066-3.438,18.187-1.892,12.2-3.124,24.5-3.906,36.824q-.58,9.242-.805,18.5-.121,4.625-.169,9.258v9.226q-.064,18.5,1.3,37c.926,12.307,2.343,24.581,4.461,36.743,1.063,6.073,2.311,12.122,3.793,18.106a170.631,170.631,0,0,0,5.355,17.7c1.063,2.888,2.231,5.735,3.543,8.51a63.525,63.525,0,0,0,4.477,8.044,39.408,39.408,0,0,0,2.754,3.652,25.216,25.216,0,0,0,3.221,3.217,15.3,15.3,0,0,0,3.833,2.317,10.4,10.4,0,0,0,4.324.8,10.937,10.937,0,0,0,4.292-1.046,16.39,16.39,0,0,0,3.752-2.453,25.839,25.839,0,0,0,3.165-3.266,39.49,39.49,0,0,0,2.706-3.692,65.606,65.606,0,0,0,4.4-8.044c1.3-2.791,2.456-5.63,3.511-8.534a173.246,173.246,0,0,0,5.274-17.7c1.474-5.992,2.7-12.065,3.744-18.122,2.11-12.154,3.511-24.437,4.445-36.743S266.465,253.537,266.457,241.19Z" transform="translate(-91.451 -103.619)" fill="#fff"/>
          <path id="Trazado_115624" data-name="Trazado 115624" d="M313.8,240.981a183.325,183.325,0,0,1-1.611,23.866,173.383,173.383,0,0,1-4.832,23.439,159.193,159.193,0,0,1-8.189,22.474,142.763,142.763,0,0,1-11.6,20.914,124.236,124.236,0,0,1-15.139,18.5,105.985,105.985,0,0,1-18.609,14.969,90.437,90.437,0,0,1-21.742,9.942,81.747,81.747,0,0,1-47.268,0,90.188,90.188,0,0,1-21.742-9.926A105.7,105.7,0,0,1,144.4,350.205a124.793,124.793,0,0,1-15.171-18.5,151.479,151.479,0,0,1-19.841-43.436,172.291,172.291,0,0,1-4.832-23.447,179.323,179.323,0,0,1,0-47.779,173.725,173.725,0,0,1,4.832-23.439,151.061,151.061,0,0,1,19.874-43.371,124.206,124.206,0,0,1,15.163-18.5A105.855,105.855,0,0,1,163.087,116.8a89.971,89.971,0,0,1,21.742-9.91,81.715,81.715,0,0,1,47.2,0,90.389,90.389,0,0,1,21.742,9.926,105.8,105.8,0,0,1,18.634,14.945,124.1,124.1,0,0,1,15.147,18.5,144.636,144.636,0,0,1,11.62,20.913,159.492,159.492,0,0,1,8.2,22.466,172.341,172.341,0,0,1,4.832,23.431A183.352,183.352,0,0,1,313.8,240.981Zm-2.1,0a178.27,178.27,0,0,0-6.16-46.79A151.049,151.049,0,0,0,286.38,151.1a123.211,123.211,0,0,0-14.8-18.452,103.854,103.854,0,0,0-18.3-14.977,88.679,88.679,0,0,0-21.444-9.942,79.7,79.7,0,0,0-46.7,0,88.18,88.18,0,0,0-21.428,9.958,103.091,103.091,0,0,0-18.279,14.985,123,123,0,0,0-14.768,18.452,142.682,142.682,0,0,0-11.274,20.793,160.485,160.485,0,0,0-7.867,22.281,180.468,180.468,0,0,0,0,93.5,159.422,159.422,0,0,0,7.883,22.273,142.552,142.552,0,0,0,11.274,20.777,122.876,122.876,0,0,0,14.776,18.468,103.6,103.6,0,0,0,18.279,14.961,88.268,88.268,0,0,0,21.4,9.974,79.748,79.748,0,0,0,46.7,0,88.167,88.167,0,0,0,21.42-9.926,103.325,103.325,0,0,0,18.3-14.945,123.03,123.03,0,0,0,14.793-18.436,150.624,150.624,0,0,0,19.189-43.058,177.9,177.9,0,0,0,6.16-46.806Z" transform="translate(-74.389 -103.41)" fill="#fff"/>
          <path id="Trazado_115625" data-name="Trazado 115625" d="M81.293,206.623l15.823-.145,15.815-.113,31.63-.145c10.549-.064,21.09-.056,31.638-.072l31.638-.048,31.63.048h31.638l31.63.161,15.815.129,7.916.064,7.908.081a.1.1,0,0,1,.089.1.089.089,0,0,1-.089.089l-7.908.089-7.916.064-15.815.129-31.63.153-7.916.04H239.469l-31.63.048H176.2c-10.549,0-21.09,0-31.638-.072l-31.63-.145-15.791-.04L81.317,206.9a.145.145,0,0,1-.137-.137.137.137,0,0,1,.113-.137Z" transform="translate(-70.148 -123.5)" fill="#fff"/>
          <path id="Trazado_115626" data-name="Trazado 115626" d="M126.867,140.873l5.637-.081,5.637-.064,11.233-.113,22.459-.145q22.467-.145,44.925-.121h44.957l22.459.161,11.233.129,5.637.064,5.637.081a.1.1,0,0,1,.1.1.1.1,0,0,1-.1.089l-5.637.089-5.637.064-11.233.129-22.459.153H250.441l-11.225.04H216.757c-14.978,0-29.947,0-44.925-.113l-22.459-.145-11.233-.121-5.637-.056-5.637-.081a.137.137,0,1,1,0-.274Z" transform="translate(-79.019 -110.603)" fill="#fff"/>
          <path id="Trazado_115627" data-name="Trazado 115627" d="M67.633,272.423l17.176-.145L102,272.166l34.384-.145c11.459-.064,22.918-.056,34.384-.072l34.384-.048,34.376.048h34.384l34.384.161,17.192.129,8.6.064,8.592.081a.1.1,0,0,1,.089.1.089.089,0,0,1-.089.089l-8.592.089-8.6.064-17.192.129L273.915,273l-8.592.04H239.53l-34.376.048H170.77c-11.467,0-22.926,0-34.384-.072L102,272.874l-17.192-.04L67.617,272.7a.145.145,0,0,1-.137-.137.137.137,0,0,1,.153-.137Z" transform="translate(-67.48 -136.373)" fill="#fff"/>
          <path id="Trazado_115628" data-name="Trazado 115628" d="M81.293,338.223l15.823-.145,15.815-.113,31.63-.145c10.549-.064,21.09-.056,31.638-.072l31.638-.048,31.63.048h31.638l31.63.161,15.815.129,7.916.064,7.908.081a.1.1,0,0,1,.089.1.089.089,0,0,1-.089.089l-7.908.089-7.916.064-15.815.129-31.63.153-7.916.04H239.469l-31.63.048-31.638-.04c-10.549,0-21.09,0-31.638-.072l-31.63-.032-15.791-.113L81.317,338.5a.145.145,0,0,1-.137-.137A.137.137,0,0,1,81.293,338.223Z" transform="translate(-70.148 -149.246)" fill="#fff"/>
          <path id="Trazado_115629" data-name="Trazado 115629" d="M312.079,404.686H132.4a.483.483,0,0,1,0-.966H312.079a.483.483,0,1,1,0,.966Z" transform="translate(-80.029 -162.198)" fill="#fff"/>
        </g>
        <g id="Grupo_57061" data-name="Grupo 57061" transform="translate(73.463 84.894)">
          <circle id="Elipse_4387" data-name="Elipse 4387" cx="7.916" cy="7.916" r="7.916" transform="translate(162.585 73.753)" fill="#91b3fa"/>
          <path id="Trazado_115630" data-name="Trazado 115630" d="M134.692,367.973a.5.5,0,0,1-.475-.37.491.491,0,0,1,.362-.588c.459-.113.926-.242,1.385-.37a.483.483,0,0,1,.6.33.491.491,0,0,1-.33.6l-1.425.378Zm4.614-1.474a.491.491,0,0,1-.451-.306.475.475,0,0,1,.266-.628c.443-.177.894-.37,1.321-.564a.485.485,0,1,1,.395.886c-.435.2-.894.395-1.353.572a.474.474,0,0,1-.177.008Zm4.34-2.134a.483.483,0,0,1-.419-.242.475.475,0,0,1,.169-.66c.411-.25.805-.5,1.208-.765a.491.491,0,0,1,.676.137.483.483,0,0,1-.137.668c-.411.274-.805.54-1.248.805a.491.491,0,0,1-.25.056Zm3.93-2.818a.467.467,0,0,1-.362-.169.483.483,0,0,1,.048-.685c.362-.306.717-.628,1.063-.958a.475.475,0,0,1,.684,0,.483.483,0,0,1,0,.685c-.354.338-.725.668-1.1.982a.5.5,0,0,1-.338.145Zm3.406-3.446a.5.5,0,0,1-.314-.113.483.483,0,0,1-.064-.684c.306-.362.6-.741.894-1.119a.475.475,0,0,1,.676-.1.483.483,0,0,1,.1.676c-.3.395-.6.805-.918,1.16a.467.467,0,0,1-.4.177Zm2.786-3.954a.492.492,0,0,1-.25-.072.475.475,0,0,1-.161-.66c.234-.411.475-.805.7-1.248a.485.485,0,0,1,.854.459c-.234.435-.475.87-.725,1.28A.483.483,0,0,1,153.768,354.147Zm2.182-4.332a.418.418,0,0,1-.193-.04.491.491,0,0,1-.258-.636c.185-.435.37-.878.54-1.329a.483.483,0,0,1,.9.338c-.169.467-.354.926-.548,1.369a.475.475,0,0,1-.443.3Zm1.611-4.574h-.137a.491.491,0,0,1-.33-.6c.129-.459.258-.926.378-1.385a.483.483,0,0,1,.588-.354.491.491,0,0,1,.354.588c-.121.475-.25.958-.386,1.425a.491.491,0,0,1-.467.33Zm1.1-4.719h-.089a.491.491,0,0,1-.387-.564c.089-.467.169-.95.242-1.425a.485.485,0,0,1,.958.153c-.072.483-.161.966-.242,1.441a.5.5,0,0,1-.483.395Zm.668-4.832h-.048a.491.491,0,0,1-.435-.531c.048-.475.089-.966.121-1.441a.491.491,0,0,1,.974.072c0,.483-.081.974-.129,1.466a.483.483,0,0,1-.483.459Zm.282-4.831h0a.483.483,0,0,1-.475-.491c0-.491,0-.966,0-1.433a.491.491,0,0,1,.483-.491.475.475,0,0,1,.483.475h0v1.449a.475.475,0,0,1-.491.5Zm-.064-4.832a.491.491,0,0,1-.491-.459c0-.507-.048-.99-.081-1.449a.484.484,0,0,1,.966-.064c0,.459.064.95.089,1.466a.491.491,0,0,1-.459.507Zm-.419-4.832a.483.483,0,0,1-.475-.427c-.121-.9-.209-1.417-.209-1.417a.487.487,0,1,1,.958-.169s.089.54.209,1.466a.483.483,0,0,1-.419.54Z" transform="translate(-134.204 -220.306)" fill="url(#linear-gradient-2)"/>
          <path id="Trazado_115631" data-name="Trazado 115631" d="M296.957,278.735a.491.491,0,0,1-.395-.2l-.862-1.168a.483.483,0,0,1,.773-.58l.87,1.176a.491.491,0,0,1-.387.805Zm-2.931-3.865a.5.5,0,0,1-.387-.185q-.451-.58-.894-1.135a.487.487,0,1,1,.757-.612l.9,1.151a.475.475,0,0,1-.081.676.467.467,0,0,1-.282.113Zm-3.052-3.769a.483.483,0,0,1-.37-.169l-.894-1.1a.467.467,0,0,1,.056-.676.483.483,0,0,1,.684.048l.942,1.111a.483.483,0,0,1-.064.684.451.451,0,0,1-.338.113Zm-3.221-3.656a.443.443,0,0,1-.354-.161c-.33-.354-.652-.717-.982-1.063a.491.491,0,0,1,0-.693.483.483,0,0,1,.685,0l.99,1.079a.491.491,0,0,1,0,.684.507.507,0,0,1-.29.169Zm-3.318-3.527a.483.483,0,0,1-.346-.145c-.338-.354-.684-.693-1.023-1.031a.487.487,0,0,1,.684-.693l1.031,1.039a.483.483,0,0,1,0,.685.475.475,0,0,1-.3.153Zm-3.463-3.4a.459.459,0,0,1-.33-.129l-1.015-.982a.485.485,0,0,1,.652-.717c.354.322.717.652,1.071.99a.491.491,0,0,1,0,.684.475.475,0,0,1-.33.161Zm-116.021-.491a.483.483,0,0,1-.37-.169.475.475,0,0,1,.056-.685s.4-.346,1.151-.934a.483.483,0,1,1,.6.757c-.725.572-1.119.91-1.119.91a.467.467,0,0,1-.266.129Zm112.413-2.746a.539.539,0,0,1-.322-.113l-1.023-.926a.486.486,0,1,1,.62-.749l1.119.942a.483.483,0,0,1,.048.684.467.467,0,0,1-.395.169Zm-108.556-.225a.467.467,0,0,1-.395-.2.491.491,0,0,1,.113-.676l1.192-.845a.483.483,0,0,1,.676.121.491.491,0,0,1-.121.676l-1.184.805a.451.451,0,0,1-.234.129Zm4.026-2.746a.507.507,0,0,1-.411-.217.491.491,0,0,1,.145-.676l1.224-.805a.483.483,0,0,1,.523.805l-1.224.805a.443.443,0,0,1-.225.1Zm100.786-.089a.467.467,0,0,1-.3-.1c-.378-.3-.765-.588-1.152-.878a.5.5,0,0,1,.588-.805l1.16.886a.527.527,0,0,1-.266.91Zm-96.63-2.48a.475.475,0,0,1-.411-.234.483.483,0,0,1,.169-.668L178,250.1a.487.487,0,0,1,.483.846l-1.248.733a.548.548,0,0,1-.266.072Zm92.765-.395a.427.427,0,0,1-.274-.089l-1.2-.805a.487.487,0,0,1,.548-.805c.4.266.805.548,1.2.805a.483.483,0,0,1,.129.676.491.491,0,0,1-.411.225Zm-88.538-2a.467.467,0,0,1-.427-.258.483.483,0,0,1,.193-.652c.427-.234.854-.459,1.3-.684a.483.483,0,1,1,.443.854l-1.28.684a.443.443,0,0,1-.234.064Zm84.487-.66a.5.5,0,0,1-.258-.072c-.411-.258-.805-.507-1.24-.749a.491.491,0,0,1,.5-.805l1.248.757a.483.483,0,0,1,.161.668.475.475,0,0,1-.419.209Zm-80.171-1.554a.483.483,0,0,1-.209-.918l1.321-.628a.475.475,0,0,1,.644.225.491.491,0,0,1-.234.652c-.443.2-.878.411-1.3.62a.532.532,0,0,1-.225.056Zm75.992-.862a.467.467,0,0,1-.225-.056l-1.28-.676a.491.491,0,0,1-.209-.652.475.475,0,0,1,.652-.209c.435.217.862.451,1.3.684a.483.483,0,0,1-.234.91Zm-71.555-1.151a.491.491,0,0,1-.443-.3.475.475,0,0,1,.25-.636l1.345-.572a.484.484,0,0,1,.37.894l-1.329.572a.556.556,0,0,1-.225.04Zm67.19-1.015a.6.6,0,0,1-.2-.04c-.443-.209-.878-.4-1.321-.6a.491.491,0,0,1,.395-.894l1.337.6a.483.483,0,0,1-.209.926Zm-62.729-.805a.483.483,0,0,1-.169-.942l1.369-.507a.475.475,0,0,1,.62.29.491.491,0,0,1-.29.62q-.692.242-1.353.507A.749.749,0,0,1,194.432,243.3Zm58.236-1.1a.507.507,0,0,1-.177,0l-1.345-.507a.475.475,0,0,1-.29-.62.483.483,0,0,1,.62-.29l1.369.515a.491.491,0,0,1-.177.942Zm-53.662-.515a.483.483,0,0,1-.459-.338.491.491,0,0,1,.306-.612l1.393-.443a.491.491,0,0,1,.612.322.483.483,0,0,1-.322.6l-1.377.443a.508.508,0,0,1-.153.024Zm49.12-1.079h-.145L246.6,240.2a.487.487,0,1,1,.274-.934l1.393.427a.483.483,0,0,1-.145.95Zm-44.474-.314a.491.491,0,0,1-.129-.958l1.417-.37a.483.483,0,0,1,.588.346.475.475,0,0,1-.346.588l-1.4.37a.363.363,0,0,1-.129.008Zm39.812-1.023h-.121l-1.4-.33a.483.483,0,1,1,.209-.942l1.425.33a.483.483,0,0,1-.113.958Zm-35.085-.153a.483.483,0,0,1-.1-.958l1.425-.3a.491.491,0,0,1,.572.378.475.475,0,0,1-.378.572l-1.417.3Zm30.35-.805h-.081c-.475-.089-.95-.161-1.425-.242a.467.467,0,0,1-.4-.548.483.483,0,0,1,.548-.411c.483.081.966.153,1.449.242a.5.5,0,0,1,.395.564.491.491,0,0,1-.5.378Zm-25.583-.072a.484.484,0,1,1-.072-.966c.475-.081.958-.153,1.441-.217a.484.484,0,0,1,.137.958l-1.425.217Zm20.784-.6h-.048l-1.441-.137a.485.485,0,1,1,.089-.966l1.458.137a.491.491,0,0,1,.427.54.483.483,0,0,1-.5.451Zm-15.976,0a.484.484,0,0,1-.048-.966l1.458-.137a.485.485,0,1,1,.081.966l-1.441.129ZM229.1,237.3h0l-1.441-.048a.483.483,0,1,1,0-.966h1.466a.5.5,0,0,1,.467.507.483.483,0,0,1-.507.467Zm-6.305,0a.483.483,0,1,1,0-.966l1.458-.048a.491.491,0,0,1,0,.974l-1.449.04Z" transform="translate(-140.097 -204.241)" fill="url(#linear-gradient-3)"/>
          <circle id="Elipse_4388" data-name="Elipse 4388" cx="7.916" cy="7.916" r="7.916" transform="translate(12.61 64.041) rotate(-22.5)" fill="#91b3fa"/>
          <path id="Trazado_115632" data-name="Trazado 115632" d="M264.448,233a.483.483,0,0,1-.443-.29l-.6-1.312a.483.483,0,0,1,.225-.644.5.5,0,0,1,.652.234c.209.435.411.886.612,1.329a.5.5,0,0,1-.25.644A.556.556,0,0,1,264.448,233Zm-2.158-4.34a.475.475,0,0,1-.419-.258c-.233-.419-.475-.805-.717-1.256a.483.483,0,1,1,.805-.483c.25.419.491.854.725,1.272a.491.491,0,0,1-.427.725Zm-2.5-4.155a.483.483,0,0,1-.411-.217c-.258-.395-.531-.805-.805-1.192a.489.489,0,0,1,.805-.556c.282.4.556.805.805,1.216a.483.483,0,0,1-.137.668.467.467,0,0,1-.258.081Zm-2.843-3.922a.5.5,0,0,1-.387-.185c-.29-.378-.6-.757-.9-1.127a.483.483,0,0,1,.064-.684.491.491,0,0,1,.684.064l.918,1.143a.491.491,0,0,1-.081.684.515.515,0,0,1-.3.1Zm-3.149-3.688a.475.475,0,0,1-.354-.161c-.33-.346-.66-.7-1-1.047a.487.487,0,1,1,.7-.676l1.007,1.063a.491.491,0,0,1,0,.693A.531.531,0,0,1,253.794,216.9Zm-3.43-3.43a.475.475,0,0,1-.33-.129c-.354-.33-.717-.652-1.071-.966a.483.483,0,0,1-.048-.684.491.491,0,0,1,.684-.048c.37.322.733.652,1.1.982a.491.491,0,0,1,0,.693A.507.507,0,0,1,250.364,213.465Zm-3.688-3.149a.467.467,0,0,1-.3-.1c-.378-.3-.765-.6-1.151-.878a.5.5,0,0,1,.588-.805l1.16.894a.491.491,0,0,1,.081.684A.483.483,0,0,1,246.676,210.316Zm-73.415-.459a.492.492,0,0,1-.306-.878c.387-.3.805-.588,1.176-.878a.494.494,0,0,1,.572.805l-1.152.878A.483.483,0,0,1,173.261,209.857Zm69.493-2.416a.475.475,0,0,1-.274-.081l-1.208-.805a.483.483,0,1,1,.515-.805c.411.266.805.532,1.232.805a.483.483,0,0,1-.266.886Zm-65.523-.395a.483.483,0,0,1-.266-.894c.411-.258.805-.523,1.248-.805a.483.483,0,0,1,.66.161.475.475,0,0,1-.161.668l-1.224.765a.5.5,0,0,1-.258.129Zm61.384-2.094a.483.483,0,0,1-.234-.064l-1.272-.693a.491.491,0,0,1-.2-.652.483.483,0,0,1,.652-.2c.435.225.87.459,1.288.7a.484.484,0,0,1-.234.91Zm-57.173-.306a.491.491,0,0,1-.234-.918l1.3-.668a.483.483,0,0,1,.652.217.475.475,0,0,1-.217.644l-1.28.668a.579.579,0,0,1-.25.04Zm52.873-1.892a.6.6,0,0,1-.2-.04c-.435-.2-.878-.4-1.321-.588a.487.487,0,1,1,.387-.894l1.337.6a.483.483,0,0,1-.2.926Zm-48.533-.217a.491.491,0,0,1-.193-.934l1.361-.564a.491.491,0,0,1,.628.266.5.5,0,0,1-.266.636c-.451.177-.894.362-1.337.556A.556.556,0,0,1,185.782,202.537Zm44.023-1.611a.613.613,0,0,1-.169,0c-.451-.169-.91-.33-1.361-.475a.491.491,0,0,1,.306-.926l1.385.483a.483.483,0,0,1-.161.942Zm-39.457-.121a.483.483,0,0,1-.153-.942l1.393-.459a.485.485,0,1,1,.29.926l-1.369.451a.556.556,0,0,1-.2,0Zm34.876-1.337a.33.33,0,0,1-.129,0l-1.409-.395a.485.485,0,0,1,.234-.942c.475.113.95.234,1.417.362a.5.5,0,0,1,.346.6.483.483,0,0,1-.5.354Zm-30.229,0a.491.491,0,0,1-.467-.37.483.483,0,0,1,.346-.588l1.425-.346a.5.5,0,0,1,.588.362.483.483,0,0,1-.37.58l-1.4.346Zm25.47-1.079h-.089l-1.417-.234a.491.491,0,0,1-.411-.556.483.483,0,0,1,.556-.4l1.449.234a.491.491,0,0,1,.387.564.475.475,0,0,1-.475.395Zm-20.751,0a.485.485,0,0,1-.081-.966l1.449-.234a.484.484,0,0,1,.137.958c-.467.072-.95.145-1.425.234Zm4.832-.644a.484.484,0,1,1-.048-.966c.483-.048.974-.089,1.466-.121a.484.484,0,0,1,.064.966,14.327,14.327,0,0,0-1.433.121Zm11.088-.04h0c-.475-.048-.958-.089-1.441-.121a.484.484,0,1,1,.064-.966c.491,0,.982.072,1.466.121a.485.485,0,1,1-.089.966Zm-6.3-.25a.483.483,0,0,1,0-.966H210.8a.483.483,0,0,1,.475.491.475.475,0,0,1-.491.483h-1.449Z" transform="translate(-141.714 -196.49)" fill="url(#linear-gradient-4)"/>
        </g>
      </g>
      <g id="Grupo_57069" data-name="Grupo 57069">
        <g id="Grupo_57063" data-name="Grupo 57063" transform="translate(199.046 16.124)">
          <circle id="Elipse_4389" data-name="Elipse 4389" cx="71.869" cy="71.869" r="71.869" transform="translate(0 101.638) rotate(-45)" fill="#91b3fa"/>
          <circle id="Elipse_4390" data-name="Elipse 4390" cx="69.485" cy="69.485" r="69.485" transform="translate(3.371 101.638) rotate(-45)" fill="#7d97f4"/>
          <circle id="Elipse_4391" data-name="Elipse 4391" cx="58.808" cy="58.808" r="58.808" transform="translate(19.992 103.152) rotate(-45)" fill="#bdd0fb"/>
        </g>
        <g id="Grupo_57064" data-name="Grupo 57064" transform="translate(0 16.132)">
          <circle id="Elipse_4392" data-name="Elipse 4392" cx="71.869" cy="71.869" r="71.869" transform="translate(0 101.638) rotate(-45)" fill="#91b3fa"/>
          <circle id="Elipse_4393" data-name="Elipse 4393" cx="69.485" cy="69.485" r="69.485" transform="translate(32.149 32.148)" fill="#7d97f4"/>
          <path id="Trazado_115633" data-name="Trazado 115633" d="M23.539,178.1h0a.491.491,0,0,1-.459-.515,65.428,65.428,0,0,1,.95-8.117.475.475,0,0,1,.556-.387.483.483,0,0,1,.395.564,63.139,63.139,0,0,0-.926,8A.491.491,0,0,1,23.539,178.1Z" transform="translate(14.053 -79.411)" fill="#bdd0fb"/>
          <path id="Trazado_115634" data-name="Trazado 115634" d="M31.932,139.91a.547.547,0,0,1-.217-.056.483.483,0,0,1-.217-.652A64.638,64.638,0,0,1,89.21,103.69h0a64.742,64.742,0,0,1,11.692,1.055.483.483,0,1,1-.177.95,64.315,64.315,0,0,0-11.483-1.039h0A63.672,63.672,0,0,0,32.4,139.638.5.5,0,0,1,31.932,139.91Z" transform="translate(12.424 -66.678)" fill="#bdd0fb"/>
          <circle id="Elipse_4394" data-name="Elipse 4394" cx="58.808" cy="58.808" r="58.808" transform="translate(19.984 103.152) rotate(-45)" fill="#bdd0fb"/>
        </g>
        <g id="Grupo_57065" data-name="Grupo 57065" transform="translate(175.141 56.333)">
          <path id="Trazado_115635" data-name="Trazado 115635" d="M240.148,171.009s-2.778-7.312-6.023-6.643a22.238,22.238,0,0,0-6.8,3.165l-5.21,7.062s14.64,5.766,19.785,2.464a112.922,112.922,0,0,0,33.821-.515A74.349,74.349,0,0,1,270.4,160.5C260.851,165.911,250.552,169.954,240.148,171.009Z" transform="translate(-222.11 -117.942)" fill="url(#linear-gradient-5)"/>
          <path id="Trazado_115636" data-name="Trazado 115636" d="M331.043,107.65S309.632,134.618,282.1,150.2a74.349,74.349,0,0,0,5.315,16.041c14.285-2.343,30.817-7.94,44.828-20.373Z" transform="translate(-233.793 -107.65)" fill="url(#linear-gradient-6)"/>
        </g>
        <path id="Trazado_115637" data-name="Trazado 115637" d="M143.6,112.08l1.329,35.7a97.577,97.577,0,0,0,10.79,3.068c2.142-6.893,6.861-15.356,10.718-21.645C152.256,124.183,143.6,112.08,143.6,112.08Z" transform="translate(-21.813 -52.18)" fill="url(#linear-gradient-7)"/>
        <path id="Trazado_115638" data-name="Trazado 115638" d="M217.345,111.32c-19.455,21.009-35.206,22.249-47.977,17.716-3.857,6.289-8.576,14.752-10.718,21.645,51.963,11.451,64.195-36.309,64.195-36.309Z" transform="translate(-27.347 -52.032)" fill="url(#linear-gradient-8)"/>
        <path id="Trazado_115639" data-name="Trazado 115639" d="M236.44,107.964a7.119,7.119,0,0,1,6.386-1.611c4.147.757,7.843,2.2,10.428,0s3.495.757,3.495.757L249,112.989Z" transform="translate(-46.684 -50.906)" fill="url(#linear-gradient-9)"/>
        <path id="Trazado_115640" data-name="Trazado 115640" d="M230.69,112.3s1.538-6.442,6.16-5.54,15.139,6.6,17.844,5.54,6.168-3.567,7.948-2.681l-3.132,3.889s8.053-4.638,9.43-1.788l-13.383,7.529S235.972,117.292,230.69,112.3Z" transform="translate(-45.975 -51.127)" fill="url(#linear-gradient-10)"/>
        <path id="Trazado_115641" data-name="Trazado 115641" d="M129.315,163.817c14.148-16.838,19.576-34.811,2.714-52.108s-30.39-8.367-30.39-8.367C63.993,126.268,59.652,188.716,59.58,215.353A58.727,58.727,0,0,0,102.9,227.762C101.888,210.071,116.085,179.568,129.315,163.817Z" transform="translate(-0.232 -50.029)" fill="url(#linear-gradient-11)"/>
        <path id="Trazado_115642" data-name="Trazado 115642" d="M138.205,71.84c0,1.127-16.105,24.021-16.105,24.021s2.9,5.693,16.709,10.323l11.918-24.512Z" transform="translate(-16.179 -44.343)" fill="url(#linear-gradient-12)"/>
        <path id="Trazado_115643" data-name="Trazado 115643" d="M134.23,164.766s30.6,25.607,63.615,14.438a7.875,7.875,0,0,1,6.2.467l9.494,5.009a8.463,8.463,0,0,0,11.225-3.14,17.845,17.845,0,0,0,2.673-7.143l-18.577-7.513,1.369-2.279s-9.067-.805-11.443,5.733c0,0-17.265,7.183-46.4-24.858C152.364,145.48,139.15,156.721,134.23,164.766Z" transform="translate(-21.659 -58.684)" fill="url(#linear-gradient-13)"/>
        <path id="Trazado_115644" data-name="Trazado 115644" d="M127.48,163.494a.66.66,0,0,1-.378-.121c-12.884-8.721-18.988-22.8-19.044-22.942a.678.678,0,1,1,1.248-.531c.056.137,5.983,13.858,18.521,22.354a.676.676,0,0,1,.185.942A.692.692,0,0,1,127.48,163.494Z" transform="translate(-12.17 -57.517)" fill="#120c2a"/>
        <path id="Trazado_115645" data-name="Trazado 115645" d="M147.818,138.016a.668.668,0,0,1-.564-.306c-.04-.064-3.978-6.192-11.475-19.608-2.279-4.091-5.274-6.676-8.9-7.69-6.015-1.683-11.813,1.546-11.869,1.611a.676.676,0,1,1-.668-1.176c.258-.145,6.329-3.535,12.884-1.707,3.986,1.111,7.247,3.914,9.727,8.334,7.473,13.383,11.386,19.471,11.427,19.535a.668.668,0,0,1-.572,1.039Z" transform="translate(-14.136 -51.502)" fill="#120c2a"/>
        <g id="Grupo_57066" data-name="Grupo 57066" transform="translate(101.584)">
          <path id="Trazado_115646" data-name="Trazado 115646" d="M152.29,55.55s5.733,13.174,6.12,20.083,1.876,11.4-6.12,12.8-14.728-2.593-18.408-9.478c0,0-5.717-10.613-4.437-14.954S152.29,55.55,152.29,55.55Z" transform="translate(-119.058 -41.171)" fill="url(#linear-gradient-14)"/>
          <path id="Trazado_115647" data-name="Trazado 115647" d="M134.177,70.521l.459-.2a1.1,1.1,0,0,0,.531-1.506c-1.127-2.174-3.326-7.167-.483-8.334,3.656-1.5,18.15-4.453,21.275-9.6,3.012-4.944.346-11.322-3.656-13.134a.556.556,0,0,0-.725.234l-.33.628a.54.54,0,0,1-1-.1h0a.548.548,0,0,0-.982-.145c-.958,1.538-3.559,4.026-10.468,5.315-9.864,1.82-16.387,5.814-16.548,12.626a.54.54,0,0,1-.805.451c-.733-.443-1.892-.652-3.455.652-2.706,2.279-1.611,8.189,4.34,13.045a.54.54,0,0,1,0,.87c-1.079.7-2.681,2.367,1.474,4.59,4.3,2.3,7.513,2.11,8.745,1.908a.54.54,0,0,0,.443-.652l-1.321-5.991a.548.548,0,0,1,.531-.66Z" transform="translate(-116.591 -37.693)" fill="url(#linear-gradient-15)"/>
          <path id="Trazado_115648" data-name="Trazado 115648" d="M137,78.435s-2.19-8.415-5.959-6.055,1.957,9.43,4.993,9.744Z" transform="translate(-119.163 -44.367)" fill="url(#linear-gradient-16)"/>
        </g>
        <path id="Trazado_115649" data-name="Trazado 115649" d="M220.9,186.461s7.771,7.6,9.268,6.49a27.24,27.24,0,0,0,3.221-3.414,3.342,3.342,0,0,0,.225-3.93l-1.836-2.826a5.29,5.29,0,0,0-7.908-1.152A9.663,9.663,0,0,0,220.9,186.461Z" transform="translate(-42.211 -65.474)" fill="url(#linear-gradient-17)"/>
        <path id="Trazado_115650" data-name="Trazado 115650" d="M399.633,106.242c-30.2-8.858-57.447.387-57.447.387l-2.174,14.052a56.5,56.5,0,0,0,6.482,36.373,159.674,159.674,0,0,1,19.825,67.062,58.936,58.936,0,0,0,50.731-3.221C436.611,142.341,399.633,106.242,399.633,106.242Z" transform="translate(-86.158 -50.295)" fill="url(#linear-gradient-18)"/>
        <path id="Trazado_115651" data-name="Trazado 115651" d="M348.64,84.289l7.062,16.975a3.422,3.422,0,0,0,2.561,2.037c4.066.693,13.923,1.788,20.389-2.464a1.659,1.659,0,0,0,.443-2.319L366.042,79.78Z" transform="translate(-77.53 -45.889)" fill="url(#linear-gradient-19)"/>
        <g id="Grupo_57067" data-name="Grupo 57067" transform="translate(271.98 97.294)">
          <path id="Trazado_115652" data-name="Trazado 115652" d="M363.841,181.277a1.61,1.61,0,0,0-.99,2.247l20.437,39.192a1.61,1.61,0,0,0,1.828.805l66.836-19.326a1.61,1.61,0,0,0,1.079-1.941l-11.523-39.868a1.554,1.554,0,0,0-1.9-1.079Z" transform="translate(-362.69 -159.05)" fill="#bdd0fb"/>
          <path id="Trazado_115653" data-name="Trazado 115653" d="M369.162,176.138A1.611,1.611,0,0,0,368,178.3l16.363,44.442a1.611,1.611,0,0,0,2,1.015l66.659-19.246a1.611,1.611,0,0,0,1.143-1.925l-9.236-42.775a1.611,1.611,0,0,0-1.981-1.248Z" transform="translate(-363.702 -158.517)" fill="#91b3fa"/>
          <path id="Trazado_115654" data-name="Trazado 115654" d="M376.264,172.372a2.029,2.029,0,0,0-1.667,2.464l11.113,47.977a2.029,2.029,0,0,0,2.536,1.5l65.644-18.956a2.037,2.037,0,0,0,1.409-2.416l-10.1-39.208a2.029,2.029,0,0,0-2.271-1.5Z" transform="translate(-364.998 -159.236)" fill="url(#linear-gradient-20)"/>
        </g>
        <path id="Trazado_115655" data-name="Trazado 115655" d="M438.629,178.6c5.089-38.483-24.568-68.084-24.568-68.084l-3.31-3.342L396.41,131.086c13.4,16.7,19.769,32.009,22.676,44.023C422.951,173.99,432.236,172.21,438.629,178.6Z" transform="translate(-97.276 -51.224)" fill="url(#linear-gradient-21)"/>
        <path id="Trazado_115656" data-name="Trazado 115656" d="M418.969,181.259a.483.483,0,0,1-.467-.37c-3.608-14.905-11.209-29.649-22.587-43.83a.491.491,0,0,1,.081-.684.475.475,0,0,1,.676.081c11.475,14.293,19.133,29.166,22.773,44.208a.491.491,0,0,1-.354.588Z" transform="translate(-89.753 -56.89)" fill="#120c2a"/>
        <path id="Trazado_115657" data-name="Trazado 115657" d="M420.215,191.272a70.957,70.957,0,0,1,2.013,23.489,3.092,3.092,0,0,1-2.867,2.77c-1.707.121-4.026.282-6.112.4-2.287.129-4.831-1.313-6.514-2.52a1.023,1.023,0,0,0-1.506,1.288c1.264,2.472,4.477,4.679,6.692,5.975a1.063,1.063,0,0,1-.242,1.933l-9.47,2.681c15.557,14.656,25.833-1.739,25.833-1.739a74.313,74.313,0,0,0,11.716-30.793C433.365,188.373,424.081,190.152,420.215,191.272Z" transform="translate(-98.406 -67.386)" fill="url(#linear-gradient-22)"/>
        <g id="Grupo_57068" data-name="Grupo 57068" transform="translate(263.295 4.273)">
          <path id="Trazado_115658" data-name="Trazado 115658" d="M352.79,54.761c-.266.314-10.17,25.824-10.17,25.824l14.688,5.347,13-22.789S357.332,49.535,352.79,54.761Z" transform="translate(-339.443 -45.058)" fill="url(#linear-gradient-23)"/>
          <path id="Trazado_115659" data-name="Trazado 115659" d="M363.376,62.326a2.255,2.255,0,0,1,0,1.981L357.57,76.652a2.039,2.039,0,0,1-.338.515c-.749.862-3.366,3.4-5.878.556-2.134-2.416-4.139-4.622-6.12-5.4a2.23,2.23,0,0,0-2.875,1.28,83.012,83.012,0,0,0-3.64,11.813,2.247,2.247,0,0,0,1.57,2.6,62.5,62.5,0,0,0,13.81,2.553,2.239,2.239,0,0,0,2.021-1.111c1.844-3.149,7.046-11.942,8.858-14.2,1.723-2.094,5.323-1.731,6.957-1.441A2.263,2.263,0,0,0,373.7,73.4c1.514-1.135,4.083-3.841,1.1-7.674a2.247,2.247,0,0,1,.387-3.108c1.683-1.369,3.406-3.785,1.184-7.2s-5.637-3.446-7.916-2.931a2.327,2.327,0,0,1-2.569-1.111,1.49,1.49,0,0,0-1.248-.805c-3.3-.33-1.248-4.364-2.327-6.241-1.514-2.641-4.832-.805-6.442.862-.886.926-1.651,1.957-2.577,2.843a11.12,11.12,0,0,1-5.234,2.81,1.8,1.8,0,0,0-.845.346,1.111,1.111,0,0,0-.193,1.216,2.964,2.964,0,0,0,.805,1.015,13.963,13.963,0,0,0,9.438,3.849C360.453,57.358,362.506,60.595,363.376,62.326Z" transform="translate(-338.674 -43)" fill="#fff"/>
          <path id="Trazado_115660" data-name="Trazado 115660" d="M367.93,86.248s2.48-7.682,5.951-7.738,6.523,3.092,2.649,7.376C371.715,91.209,367.93,86.248,367.93,86.248Z" transform="translate(-344.372 -49.915)" fill="url(#linear-gradient-24)"/>
        </g>
        <path id="Trazado_115661" data-name="Trazado 115661" d="M349.68,49.992c13.174-22.209,43.484,0,27.966,18.521C367.17,60.783,355.454,49.493,349.68,49.992Z" transform="translate(-77.918 -38.278)" fill="url(#linear-gradient-25)"/>
        <path id="Trazado_115662" data-name="Trazado 115662" d="M364.983,62.7l-21.637-1.723a1.546,1.546,0,0,1-1.28-.862,14.7,14.7,0,0,0-8-7.376.443.443,0,0,1,.161-.805l13.335-.258h.04c6.6.805,12.272,5.105,17.611,10.589a.282.282,0,0,1-.225.435Z" transform="translate(-73.574 -40.417)" fill="url(#linear-gradient-26)"/>
      </g>
      <path id="Trazado_115663" data-name="Trazado 115663" d="M350.62,381.643a.539.539,0,0,1-.242-.064l-1.264-.7a.485.485,0,0,1,.459-.854c.435.234.862.467,1.28.709a.483.483,0,0,1,.185.66A.475.475,0,0,1,350.62,381.643Zm-4.3-2.247a.5.5,0,0,1-.209-.048c-.435-.217-.87-.419-1.3-.62a.491.491,0,0,1-.242-.644.5.5,0,0,1,.644-.242l1.329.628a.491.491,0,0,1,.225.652A.5.5,0,0,1,346.32,379.4Zm-71.8-.338a.483.483,0,0,1-.209-.918c.435-.217.878-.419,1.321-.62a.483.483,0,1,1,.4.878l-1.3.612a.523.523,0,0,1-.209.048Zm67.376-1.611a.476.476,0,0,1-.185-.04l-1.345-.54a.485.485,0,0,1,.354-.9l1.361.548a.483.483,0,0,1,.258.628.475.475,0,0,1-.443.274Zm-62.939-.314a.483.483,0,0,1-.185-.934c.451-.185.91-.362,1.361-.531a.483.483,0,1,1,.346.9l-1.345.531a.459.459,0,0,1-.177,0Zm58.4-1.457a.346.346,0,0,1-.153,0l-1.377-.451a.486.486,0,0,1,.3-.926l1.393.459a.491.491,0,0,1-.161.95Zm-53.847-.282a.483.483,0,0,1-.153-.942c.459-.161.926-.306,1.385-.459a.491.491,0,0,1,.612.322.483.483,0,0,1-.314.6l-1.377.451Zm49.217-1.16H332.6l-1.4-.378a.483.483,0,0,1,.25-.934l1.409.378a.483.483,0,0,1-.129.95Zm-44.579-.242a.491.491,0,0,1-.467-.354.475.475,0,0,1,.346-.6l1.417-.37a.485.485,0,0,1,.234.942l-1.4.362Zm39.868-.918h-.1l-1.417-.29a.491.491,0,0,1,.185-.958l1.433.3a.491.491,0,0,1-.1.966Zm-35.149-.2a.491.491,0,0,1-.475-.387.483.483,0,0,1,.379-.572l1.433-.282a.484.484,0,1,1,.185.95l-1.425.282Zm30.382-.693h-.072l-1.433-.209a.483.483,0,0,1-.411-.548.491.491,0,0,1,.548-.419l1.449.217a.483.483,0,0,1,.4.556.491.491,0,0,1-.483.435Zm-25.607-.145a.484.484,0,1,1-.064-.966l1.449-.2a.483.483,0,0,1,.121.958l-1.433.2Zm20.8-.475h-.048l-1.441-.137a.475.475,0,0,1-.443-.515.491.491,0,0,1,.523-.451l1.458.137a.491.491,0,0,1,.435.531.483.483,0,0,1-.483.467Zm-15.984-.1a.483.483,0,0,1-.483-.435.491.491,0,0,1,.443-.531l1.458-.113a.491.491,0,0,1,.523.451.483.483,0,0,1-.451.515l-1.441.113Zm11.145-.25h0l-1.449-.048a.491.491,0,0,1-.475-.5.475.475,0,0,1,.5-.467c.491,0,.974,0,1.466.048a.483.483,0,0,1,0,.966Zm-6.305,0a.491.491,0,0,1,0-.974h1.458a.491.491,0,0,1,0,.974h-1.449Z" transform="translate(-60.213 -102.686)" fill="#fff"/>
      <path id="Trazado_115664" data-name="Trazado 115664" d="M200.463,410.291H198.99a.483.483,0,0,1-.467-.5.491.491,0,0,1,.5-.475h1.441a.483.483,0,1,1,0,.966Zm3.39-.089a.483.483,0,0,1-.483-.459.491.491,0,0,1,.459-.515l1.441-.1a.475.475,0,0,1,.515.443.483.483,0,0,1-.443.523l-1.458.1Zm-8.238-.1h0a12.76,12.76,0,0,1-1.458-.145.483.483,0,1,1,.1-.958l1.441.137a.491.491,0,0,1-.048.974Zm13.061-.354a.484.484,0,1,1-.064-.966c.475-.064.958-.137,1.425-.217a.483.483,0,0,1,.556.4.475.475,0,0,1-.395.556q-.725.121-1.449.217Zm-17.869-.274h-.081l-1.441-.274a.475.475,0,0,1-.378-.572.483.483,0,0,1,.564-.378l1.425.266a.5.5,0,0,1,.395.564.491.491,0,0,1-.483.37Zm22.644-.588a.483.483,0,0,1-.1-.958l1.4-.33a.485.485,0,0,1,.234.942l-1.425.33Zm-27.379-.443h-.121c-.475-.121-.95-.25-1.417-.387a.491.491,0,0,1-.33-.6.483.483,0,0,1,.6-.33c.467.137.934.258,1.393.378a.491.491,0,0,1,.346.6.483.483,0,0,1-.467.322Zm32.065-.805a.491.491,0,0,1-.467-.346.5.5,0,0,1,.322-.6c.459-.137.926-.29,1.377-.443a.491.491,0,0,1,.306.926c-.459.153-.926.306-1.393.443a.458.458,0,0,1-.145.008Zm-36.7-.62a.558.558,0,0,1-.161,0l-1.377-.5a.485.485,0,0,1,.338-.91c.451.169.91.338,1.361.491a.491.491,0,0,1,.3.62.483.483,0,0,1-.459.282Zm41.277-.982a.491.491,0,0,1-.177-.942c.451-.169.9-.354,1.337-.54a.485.485,0,0,1,.378.894l-1.361.556a.629.629,0,0,1-.177.016Zm-45.787-.805a.451.451,0,0,1-.2-.04l-1.329-.6a.485.485,0,1,1,.411-.878l1.313.6a.491.491,0,0,1,.25.636.483.483,0,0,1-.443.282Zm50.224-1.16a.5.5,0,0,1-.435-.274.491.491,0,0,1,.225-.652l1.288-.644a.483.483,0,0,1,.652.2.491.491,0,0,1-.209.66l-1.3.66a.532.532,0,0,1-.217.04Zm-54.58-.966a.475.475,0,0,1-.234-.056l-1.28-.717a.483.483,0,1,1,.483-.805l1.256.7a.475.475,0,0,1,.2.652.491.491,0,0,1-.427.217Zm58.848-1.337a.475.475,0,0,1-.411-.234.483.483,0,0,1,.169-.668c.411-.242.805-.5,1.232-.749a.483.483,0,1,1,.515.805l-1.256.765a.548.548,0,0,1-.25.072Zm-63.027-1.127a.443.443,0,0,1-.258-.08l-1.224-.805a.483.483,0,0,1-.129-.676.475.475,0,0,1,.668-.129l1.208.805a.483.483,0,0,1,.145.668.491.491,0,0,1-.411.209Zm67.1-1.5a.483.483,0,0,1-.274-.886l1.168-.805a.486.486,0,0,1,.58.781l-1.192.862a.532.532,0,0,1-.282.04Zm-71.039-1.3a.5.5,0,0,1-.29-.1l-1.16-.9a.483.483,0,0,1-.072-.684.491.491,0,0,1,.684-.081c.37.306.757.6,1.135.894a.486.486,0,0,1-.3.87Zm74.889-1.667a.483.483,0,0,1-.306-.854l1.1-.942a.485.485,0,0,1,.636.733c-.362.322-.741.636-1.111.95a.475.475,0,0,1-.314.113Zm-78.657-1.425a.483.483,0,0,1-.322-.121c-.362-.322-.725-.66-1.079-.99a.484.484,0,1,1,.66-.709c.354.33.709.66,1.063.974a.483.483,0,0,1,.04.685.459.459,0,0,1-.362.161Zm82.249-1.828a.491.491,0,0,1-.346-.145.483.483,0,0,1,0-.685c.338-.338.684-.684,1.015-1.031a.487.487,0,1,1,.7.676c-.338.354-.684.7-1.031,1.047a.507.507,0,0,1-.338.137Zm-85.727-1.546a.475.475,0,0,1-.354-.153l-.99-1.071a.485.485,0,1,1,.717-.652c.322.354.652.709.982,1.055a.483.483,0,0,1,0,.684A.507.507,0,0,1,157.205,391.384Zm-3.221-3.648a.483.483,0,0,1-.378-.185c-.306-.378-.612-.765-.91-1.151a.491.491,0,0,1,.1-.684.483.483,0,0,1,.676.1c.29.378.588.765.894,1.135a.483.483,0,0,1-.081.676A.475.475,0,0,1,153.984,387.736ZM151.1,383.83a.491.491,0,0,1-.4-.209c-.266-.411-.54-.805-.805-1.232a.483.483,0,1,1,.805-.523c.258.4.523.805.805,1.208a.483.483,0,0,1-.129.676.475.475,0,0,1-.242.081Z" transform="translate(-26.144 -104.972)" fill="#fff"/>
      <g id="Grupo_57073" data-name="Grupo 57073" transform="translate(157.98 126.876)">
        <g id="Grupo_57070" data-name="Grupo 57070" transform="translate(0 34.701)">
          <path id="Trazado_115665" data-name="Trazado 115665" d="M201.465,289.267a.515.515,0,0,0,.531.3l6.378-.636a27.992,27.992,0,0,0,6.643,6.152l-.137,6.442a.523.523,0,0,0,.338.507l7.247,2.665a.524.524,0,0,0,.588-.153l4.026-4.96a28.137,28.137,0,0,0,9.051-.354l4.429,4.63a.531.531,0,0,0,.6.121l6.99-3.221a.523.523,0,0,0,.306-.531l-.636-6.386a27.8,27.8,0,0,0,6.152-6.635l6.442.137a.523.523,0,0,0,.507-.346l2.665-7.247a.515.515,0,0,0-.161-.588l-4.96-4.067a27.87,27.87,0,0,0-.354-9.043l4.638-4.437a.515.515,0,0,0,.113-.6l-3.221-6.99a.523.523,0,0,0-.531-.306l-6.386.636a27.685,27.685,0,0,0-6.643-6.152l.145-6.442a.54.54,0,0,0-.346-.507l-7.247-2.665a.531.531,0,0,0-.6.161l-4.026,4.96a27.854,27.854,0,0,0-9.043.346l-4.437-4.63a.523.523,0,0,0-.6-.113l-6.99,3.221a.539.539,0,0,0-.306.531l.636,6.386a27.846,27.846,0,0,0-6.152,6.643l-6.442-.145a.523.523,0,0,0-.5.346l-2.673,7.247a.54.54,0,0,0,.161.588l4.96,4.066a28.078,28.078,0,0,0,.354,9.043l-4.638,4.437a.54.54,0,0,0-.113.6Z" transform="translate(-197.473 -238.559)" fill="#fda551"/>
          <path id="Trazado_115666" data-name="Trazado 115666" d="M233.91,285.94a8.646,8.646,0,1,1,1.224.225A8.98,8.98,0,0,1,233.91,285.94Zm3.438-13.23a4.5,4.5,0,0,0-.733-.129,4.928,4.928,0,1,0,.733.129Z" transform="translate(-203.305 -244.468)" fill="#febc7c"/>
          <path id="Trazado_115667" data-name="Trazado 115667" d="M228.934,293.5a17.164,17.164,0,0,1-1.86-.588l-.29-.113a18.322,18.322,0,0,1-3.366-1.7.6.6,0,0,1-.266-.66.684.684,0,0,1,.072-.177.612.612,0,0,1,.846-.185,18.283,18.283,0,0,0,3.422,1.691h0a17.957,17.957,0,0,0,22.853-9.993c.089-.209.169-.411.242-.62a17.511,17.511,0,0,0,.548-1.747,17.957,17.957,0,0,0-34.231-10.71,17.5,17.5,0,0,0-.548,1.747,17.9,17.9,0,0,0-.266,7.787.606.606,0,1,1-1.192.225,19.148,19.148,0,1,1,37.38,1.256c-.161.62-.362,1.248-.588,1.86A19.2,19.2,0,0,1,228.934,293.5Z" transform="translate(-200.801 -241.918)" fill="#febc7c"/>
        </g>
        <g id="Grupo_57071" data-name="Grupo 57071" transform="translate(56.816 91.81)">
          <path id="Trazado_115668" data-name="Trazado 115668" d="M286.349,343.373a.274.274,0,0,0,.258-.169l1.151-3a13.817,13.817,0,0,0,4.236-1.611l2.843,1.506a.274.274,0,0,0,.3,0l2.81-2.633a.25.25,0,0,0,.064-.3l-1.3-2.931a14.189,14.189,0,0,0,1.868-4.123l3.068-.95a.258.258,0,0,0,.185-.242l.129-3.849a.274.274,0,0,0-.169-.258l-3-1.143a14.206,14.206,0,0,0-1.611-4.244l1.5-2.834a.258.258,0,0,0-.04-.306L296,313.474a.258.258,0,0,0-.3-.056l-2.915,1.313a13.883,13.883,0,0,0-4.123-1.868l-.942-3.068a.258.258,0,0,0-.25-.185l-3.849-.129a.258.258,0,0,0-.25.169l-1.152,3a13.819,13.819,0,0,0-4.236,1.611l-2.843-1.506a.274.274,0,0,0-.3,0l-2.818,2.625a.258.258,0,0,0-.056.3l1.3,2.931a14.229,14.229,0,0,0-1.868,4.131l-3.068.942a.258.258,0,0,0-.185.242l-.129,3.849a.274.274,0,0,0,.169.258l3,1.143a14.2,14.2,0,0,0,1.611,4.244l-1.5,2.835a.258.258,0,0,0,.04.306l2.625,2.81a.29.29,0,0,0,.306.064l2.931-1.313a13.906,13.906,0,0,0,4.123,1.876l.942,3.068a.282.282,0,0,0,.25.185Z" transform="translate(-268.03 -309.48)" fill="#fda551"/>
          <path id="Trazado_115669" data-name="Trazado 115669" d="M291.307,332.274A4.34,4.34,0,1,1,287.1,325.2a4.937,4.937,0,0,1,3.285.636,4.34,4.34,0,0,1,1.3,5.991,3.465,3.465,0,0,1-.37.451Zm-5.146-4.5a2.081,2.081,0,0,0-.225.3,2.5,2.5,0,1,0,3.463-.757,2.553,2.553,0,0,0-1.892-.338,2.416,2.416,0,0,0-1.345.829Z" transform="translate(-271.079 -312.529)" fill="#febc7c"/>
          <path id="Trazado_115670" data-name="Trazado 115670" d="M294.006,334.39a9.2,9.2,0,0,1-.676.7l-.113.1a9.712,9.712,0,0,1-1.514,1.127.3.3,0,0,1-.362,0,.177.177,0,0,1-.056-.073.306.306,0,0,1,.1-.419,9.105,9.105,0,0,0,1.522-1.151h0a9,9,0,0,0,.652-12.457l-.225-.242a7.029,7.029,0,0,0-.66-.636,8.987,8.987,0,0,0-12.465,12.884c.209.225.427.435.652.636a8.986,8.986,0,0,0,3.43,1.868.234.234,0,0,1,.113.064.3.3,0,0,1,.1.314.314.314,0,0,1-.379.209,9.5,9.5,0,0,1-3.656-2,6.958,6.958,0,0,1-.7-.676,9.6,9.6,0,0,1,13.311-13.794c.242.217.475.443.7.684a9.607,9.607,0,0,1,.226,12.852Z" transform="translate(-269.816 -311.239)" fill="#febc7c"/>
        </g>
        <g id="Grupo_57072" data-name="Grupo 57072" transform="translate(45.853)">
          <path id="Trazado_115671" data-name="Trazado 115671" d="M256.924,227.454a.346.346,0,0,0,.338.193l4.026-.4a17.942,17.942,0,0,0,4.2,3.889l-.089,4.026a.346.346,0,0,0,.217.322l4.566,1.691a.322.322,0,0,0,.37-.1l2.569-3.132a17.917,17.917,0,0,0,5.725-.225l2.8,2.931a.346.346,0,0,0,.387.072l4.421-2.037a.322.322,0,0,0,.185-.338l-.395-4.026a17.788,17.788,0,0,0,3.889-4.2l4.026.089a.322.322,0,0,0,.322-.217l1.691-4.558a.338.338,0,0,0-.1-.378l-3.14-2.569a17.643,17.643,0,0,0-.2-5.669l2.931-2.81a.346.346,0,0,0,.072-.378L293.7,205.2a.33.33,0,0,0-.338-.193l-4.026.4a17.61,17.61,0,0,0-4.2-3.889l.089-4.026a.322.322,0,0,0-.217-.314l-4.566-1.691a.33.33,0,0,0-.37.1l-2.569,3.132a17.716,17.716,0,0,0-5.725.225l-2.8-2.931a.322.322,0,0,0-.395-.121l-4.421,2.029a.346.346,0,0,0-.193.338l.4,4.026a17.417,17.417,0,0,0-3.889,4.2l-4.026-.089a.346.346,0,0,0-.322.217l-1.691,4.582a.354.354,0,0,0,.1.378l3.14,2.569a17.644,17.644,0,0,0,.225,5.717l-2.931,2.81a.322.322,0,0,0-.073.378Z" transform="translate(-254.416 -195.466)" fill="#fda551"/>
          <path id="Trazado_115672" data-name="Trazado 115672" d="M277.316,225.331a5.756,5.756,0,1,1,.757.1,4.149,4.149,0,0,1-.757-.1Zm2.174-8.367a4.344,4.344,0,0,0-.467-.081,3.353,3.353,0,1,0,.467.1Z" transform="translate(-258.075 -199.189)" fill="#febc7c"/>
          <path id="Trazado_115673" data-name="Trazado 115673" d="M274.528,230.09a11.1,11.1,0,0,1-1.176-.37l-.185-.064a12.08,12.08,0,0,1-2.134-1.079.378.378,0,0,1-.161-.419.283.283,0,0,1,.048-.113.387.387,0,0,1,.531-.121A11.1,11.1,0,0,0,273.618,229h0a11.367,11.367,0,0,0,14.43-6.329l.153-.387c.137-.37.25-.741.346-1.1,1.369-5.307-2.263-11.716-7.062-13.5a11.378,11.378,0,0,0-14.591,6.716,10.909,10.909,0,0,0-.346,1.1,11.274,11.274,0,0,0-.169,4.928.4.4,0,0,1,0,.169.387.387,0,0,1-.749,0,12.078,12.078,0,0,1,.177-5.266,11.1,11.1,0,0,1,.37-1.176A12.127,12.127,0,0,1,289.3,221.41a11.071,11.071,0,0,1-.362,1.184A12.151,12.151,0,0,1,274.528,230.09Z" transform="translate(-256.559 -197.555)" fill="#febc7c"/>
        </g>
      </g>
      <g id="Grupo_57093" data-name="Grupo 57093" transform="translate(97.25 232.734)">
        <g id="Grupo_57082" data-name="Grupo 57082">
          <rect id="Rectángulo_6285" data-name="Rectángulo 6285" width="147.651" height="13.544" transform="translate(7.03 83.44)" fill="#120c2a"/>
          <rect id="Rectángulo_6286" data-name="Rectángulo 6286" width="4.332" height="16.798" transform="translate(3.777 83.44)" fill="url(#linear-gradient-27)"/>
          <path id="Trazado_115674" data-name="Trazado 115674" d="M274.375,333.017c0-3.221-3.406-5.927-7.11-5.927H127.955c-3.7,0-6.635,2.706-6.635,5.927v73.431c0,3.221,2.931,5.983,6.635,5.983H267.264c3.7,0,7.11-2.754,7.11-5.983Z" transform="translate(-121.32 -327.09)" fill="#35237d"/>
          <path id="Trazado_115675" data-name="Trazado 115675" d="M270.416,336.831c0-2.955-2.545-5.371-6.039-5.371H132.943c-3.495,0-6.933,2.416-6.933,5.371v67.118c0,2.955,3.438,5.806,6.933,5.806H264.377a5.983,5.983,0,0,0,6.039-5.806Z" transform="translate(-122.233 -327.941)" fill="#6c58b8"/>
          <path id="Trazado_115676" data-name="Trazado 115676" d="M359.982,393.8l-9.148-28.232a1.683,1.683,0,0,0-1.611-1.135H312.4v66.917h49.749Z" transform="translate(-158.532 -334.362)" fill="url(#linear-gradient-28)"/>
          <path id="Trazado_115677" data-name="Trazado 115677" d="M364.785,434.683a3.092,3.092,0,0,0-1.78-.483l-38.346.733-.169,10.9,38.306.942c1.409,0,2.625-.676,2.625-1.611v-9.244A1.369,1.369,0,0,0,364.785,434.683Z" transform="translate(-160.887 -347.949)" fill="#120c2a"/>
          <g id="Grupo_57074" data-name="Grupo 57074" transform="translate(163.756 33.966)">
            <path id="Trazado_115678" data-name="Trazado 115678" d="M355.231,392.816,349.7,370.873a1.8,1.8,0,0,0-1.667-1.393H326.4a1.876,1.876,0,0,0-1.715,1.908l.515,17.571a1.731,1.731,0,0,0,1.441,1.659l26.654,4.308a1.715,1.715,0,0,0,1.941-2.11Z" transform="translate(-324.679 -369.311)" fill="url(#linear-gradient-29)"/>
            <path id="Trazado_115679" data-name="Trazado 115679" d="M360.833,369.27l-.282.048a1.691,1.691,0,0,0-1.168.765,1.723,1.723,0,0,0-.217,1.377l6.031,22.426a1.723,1.723,0,0,0,1.981,1.24l1.9-.354Z" transform="translate(-331.384 -369.27)" fill="url(#linear-gradient-30)"/>
          </g>
          <rect id="Rectángulo_6287" data-name="Rectángulo 6287" width="10.025" height="4.067" rx="2.02" transform="translate(164.167 60.958)" fill="#120c2a"/>
          <path id="Trazado_115680" data-name="Trazado 115680" d="M314.975,339.888a2.48,2.48,0,0,0-1.739.531,2.247,2.247,0,0,0-.805,1.506v17.716h22.442S333.64,341.257,314.975,339.888Z" transform="translate(-158.538 -329.581)" fill="url(#linear-gradient-31)"/>
          <g id="Grupo_57076" data-name="Grupo 57076" transform="translate(157.562 79.251)">
            <g id="Grupo_57075" data-name="Grupo 57075" transform="translate(0)">
              <circle id="Elipse_4395" data-name="Elipse 4395" cx="17.483" cy="17.483" r="17.483" transform="matrix(0.987, -0.16, 0.16, 0.987, 0, 5.579)" fill="url(#linear-gradient-32)"/>
              <circle id="Elipse_4396" data-name="Elipse 4396" cx="14.156" cy="14.156" r="14.156" transform="translate(4.29 5.702) rotate(-3.56)" fill="#120c2a"/>
              <path id="Trazado_115681" data-name="Trazado 115681" d="M351.414,451.076h-.1a.282.282,0,0,1-.145-.362,12.264,12.264,0,0,0-17.257-15.493.274.274,0,0,1-.266-.475A12.812,12.812,0,0,1,351.7,450.915.274.274,0,0,1,351.414,451.076Z" transform="translate(-320.209 -426.989)" fill="url(#linear-gradient-33)"/>
            </g>
            <circle id="Elipse_4397" data-name="Elipse 4397" cx="6.49" cy="6.49" r="6.49" transform="translate(12.822 12.452)" fill="url(#linear-gradient-34)"/>
          </g>
          <g id="Grupo_57078" data-name="Grupo 57078" transform="translate(49.958 78.746)">
            <g id="Grupo_57077" data-name="Grupo 57077" transform="translate(0)">
              <circle id="Elipse_4398" data-name="Elipse 4398" cx="17.434" cy="17.434" r="17.434" transform="translate(0 4.262) rotate(-7.02)" fill="url(#linear-gradient-35)"/>
              <circle id="Elipse_4399" data-name="Elipse 4399" cx="14.156" cy="14.156" r="14.156" transform="translate(4.328 6.316) rotate(-4.07)" fill="#120c2a"/>
              <path id="Trazado_115682" data-name="Trazado 115682" d="M217.916,451.08h-.1a.282.282,0,0,1-.145-.362,12.264,12.264,0,0,0-17.289-15.477.274.274,0,0,1-.266-.475,12.812,12.812,0,0,1,18.054,16.169.266.266,0,0,1-.25.145Z" transform="translate(-186.601 -426.488)" fill="url(#linear-gradient-36)"/>
            </g>
            <circle id="Elipse_4400" data-name="Elipse 4400" cx="6.49" cy="6.49" r="6.49" transform="translate(12.932 12.956)" fill="url(#linear-gradient-37)"/>
          </g>
          <g id="Grupo_57080" data-name="Grupo 57080" transform="translate(10.675 79.384)">
            <g id="Grupo_57079" data-name="Grupo 57079" transform="translate(0)">
              <circle id="Elipse_4401" data-name="Elipse 4401" cx="17.434" cy="17.434" r="17.434" transform="translate(0 2.875) rotate(-4.73)" fill="url(#linear-gradient-38)"/>
              <circle id="Elipse_4402" data-name="Elipse 4402" cx="14.156" cy="14.156" r="14.156" transform="translate(3.793 5.563) rotate(-3.56)" fill="#120c2a"/>
              <path id="Trazado_115683" data-name="Trazado 115683" d="M168.386,451.086h-.1a.282.282,0,0,1-.145-.362,12.078,12.078,0,0,0,.966-4.767,12.264,12.264,0,0,0-18.255-10.71.274.274,0,0,1-.266-.475,12.812,12.812,0,0,1,18.03,16.153.266.266,0,0,1-.225.161Z" transform="translate(-137.671 -427.132)" fill="url(#linear-gradient-39)"/>
            </g>
            <circle id="Elipse_4403" data-name="Elipse 4403" cx="6.49" cy="6.49" r="6.49" transform="translate(12.331 12.318)" fill="url(#linear-gradient-40)"/>
          </g>
          <g id="Grupo_57081" data-name="Grupo 57081" transform="translate(195.862 76.402)">
            <rect id="Rectángulo_6288" data-name="Rectángulo 6288" width="7.859" height="9.486" rx="2.14" fill="url(#linear-gradient-41)"/>
            <path id="Trazado_115684" data-name="Trazado 115684" d="M368.069,422v8.938H366.66a2.367,2.367,0,0,1-2.11-2.021V423.28c0-.95,1.16-1.256,2.11-1.256Z" transform="translate(-364.55 -421.976)" fill="#fff" opacity="0.8"/>
          </g>
          <path id="Trazado_115685" data-name="Trazado 115685" d="M316.035,409.5a.266.266,0,0,1-.266-.266V369.4a.274.274,0,1,1,.54,0V409.23a.274.274,0,0,1-.274.266Z" transform="translate(-159.187 -335.268)" fill="url(#linear-gradient-42)"/>
          <path id="Trazado_115686" data-name="Trazado 115686" d="M331.16,358.567a.274.274,0,0,1-.258-.185c-1.5-4.34-4.437-10.058-9.977-12.659a12.079,12.079,0,0,0-5.991-1.248.274.274,0,0,1-.064-.54,12.522,12.522,0,0,1,6.289,1.3c5.7,2.681,8.729,8.536,10.259,12.973a.266.266,0,0,1-.169.346Z" transform="translate(-158.973 -330.367)" fill="#fff"/>
        </g>
        <g id="Grupo_57084" data-name="Grupo 57084" transform="translate(6.11 36.459)">
          <path id="Trazado_115687" data-name="Trazado 115687" d="M192.436,415.08a6.668,6.668,0,0,0,6.9-6.547V379.4a7.1,7.1,0,0,0-7.143-6.982c-11.886-.129-36.4-.137-56.448,1.5a5.339,5.339,0,0,0-4.968,5.049l-1.868,28.184a6.764,6.764,0,0,0,6.764,6.909Z" transform="translate(-128.908 -372.366)" fill="url(#linear-gradient-43)"/>
          <path id="Trazado_115688" data-name="Trazado 115688" d="M204.311,384.47c.056,2.48,0,6.442-.089,8.954a2.287,2.287,0,0,1-2.585,2.174l-9.784-1.1a2.263,2.263,0,0,1-2.029-2.561l1.2-7.747a2.311,2.311,0,0,1,2.3-1.908h8.665a2.279,2.279,0,0,1,2.319,2.19Z" transform="translate(-140.767 -374.297)" fill="#fff"/>
          <path id="Trazado_115689" data-name="Trazado 115689" d="M173.625,397.247l-8.117.854a1.8,1.8,0,0,1-2.029-1.9l1.78-23.457c3.422-.1,6.8-.177,10.05-.234v22.942a1.8,1.8,0,0,1-1.683,1.8Z" transform="translate(-135.64 -372.394)" fill="#fff" opacity="0.37"/>
          <path id="Trazado_115690" data-name="Trazado 115690" d="M171.539,393.214a.805.805,0,0,1-.805.749h-.048a.805.805,0,0,1-.765-.805l1.224-20.478h1.651Z" transform="translate(-136.895 -372.427)" fill="#fff"/>
          <g id="Grupo_57083" data-name="Grupo 57083" transform="translate(52.754 10.314)">
            <path id="Trazado_115691" data-name="Trazado 115691" d="M202.144,392.505a.282.282,0,0,0,.274-.25l.419-6.442a.274.274,0,1,0-.548,0l-.419,6.442a.266.266,0,0,0,.258.282Z" transform="translate(-195.871 -385.245)" fill="url(#linear-gradient-44)"/>
            <path id="Trazado_115692" data-name="Trazado 115692" d="M201.064,392.472a.274.274,0,0,0,.274-.258l.217-6.571a.266.266,0,0,0-.266-.274.258.258,0,0,0-.282.258l-.217,6.571a.266.266,0,0,0,.258.274Z" transform="translate(-195.66 -385.212)" fill="url(#linear-gradient-45)"/>
            <path id="Trazado_115693" data-name="Trazado 115693" d="M199.6,392.47a.266.266,0,0,1-.258-.274c.1-2.206.314-6.442.314-6.563a.274.274,0,1,1,.548,0c0,.113-.266,5.508-.322,6.587a.266.266,0,0,1-.274.25Zm.048-6.837Z" transform="translate(-195.378 -385.21)" fill="url(#linear-gradient-46)"/>
            <path id="Trazado_115694" data-name="Trazado 115694" d="M197.278,392.7a.54.54,0,0,0,.548-.507c.234-6.37.193-6.515.161-6.611a.548.548,0,0,0-.668-.37.54.54,0,0,0-.4.58c0,.387-.1,4.091-.185,6.361a.54.54,0,0,0,.531.548Z" transform="translate(-194.87 -385.178)" fill="url(#linear-gradient-47)"/>
            <path id="Trazado_115695" data-name="Trazado 115695" d="M195.874,392.5a.274.274,0,0,0,.274-.266v-6.442a.274.274,0,1,0-.548,0v6.442A.274.274,0,0,0,195.874,392.5Z" transform="translate(-194.65 -385.241)" fill="url(#linear-gradient-48)"/>
            <path id="Trazado_115696" data-name="Trazado 115696" d="M194.686,392.5a.274.274,0,0,0,.274-.258c.048-2.239.177-5.9.282-6.337a.258.258,0,0,0,0-.274.274.274,0,0,0-.378-.081c-.153.1-.29.185-.443,6.676a.266.266,0,0,0,.266.274Z" transform="translate(-194.42 -385.239)" fill="url(#linear-gradient-49)"/>
            <path id="Trazado_115697" data-name="Trazado 115697" d="M203.869,393.022a.539.539,0,0,0,.548-.5l.37-6.772a.548.548,0,0,0-1.1-.056l-.362,6.772a.532.532,0,0,0,.515.556Z" transform="translate(-196.155 -385.174)" fill="url(#linear-gradient-50)"/>
          </g>
        </g>
        <g id="Grupo_57086" data-name="Grupo 57086" transform="translate(77.407 39.603)">
          <path id="Trazado_115698" data-name="Trazado 115698" d="M279.349,418.369a6.531,6.531,0,0,0,6.724-6.442V383.2a6.957,6.957,0,0,0-6.957-6.885c-11.58-.121-35.431-.129-55.007,1.482a5.218,5.218,0,0,0-4.832,4.968l-1.828,27.765a6.635,6.635,0,0,0,6.6,6.8Z" transform="translate(-217.447 -376.271)" fill="url(#linear-gradient-51)"/>
          <path id="Trazado_115699" data-name="Trazado 115699" d="M290.921,388.216c.048,2.416,0,6.321-.081,8.858a2.255,2.255,0,0,1-2.529,2.142l-9.534-1.127a2.223,2.223,0,0,1-1.973-2.52l1.168-7.634a2.255,2.255,0,0,1,2.239-1.884h8.447A2.239,2.239,0,0,1,290.921,388.216Z" transform="translate(-229.003 -378.176)" fill="#fff"/>
          <path id="Trazado_115700" data-name="Trazado 115700" d="M261.008,400.785l-7.948.805a1.772,1.772,0,0,1-1.981-1.868l1.739-23.119c3.334-.1,6.619-.177,9.792-.234v22.644A1.772,1.772,0,0,1,261.008,400.785Z" transform="translate(-223.996 -376.29)" fill="#fff" opacity="0.37"/>
          <path id="Trazado_115701" data-name="Trazado 115701" d="M258.982,396.814a.805.805,0,0,1-.805.733h-.04a.805.805,0,0,1-.757-.805l1.2-20.172,1.611-.04Z" transform="translate(-225.224 -376.322)" fill="#fff"/>
          <g id="Grupo_57085" data-name="Grupo 57085" transform="translate(51.393 10.185)">
            <path id="Trazado_115702" data-name="Trazado 115702" d="M288.806,396.121a.266.266,0,0,0,.266-.242l.411-6.353a.266.266,0,0,0-.531,0l-.411,6.353a.258.258,0,0,0,.25.274Z" transform="translate(-282.686 -388.986)" fill="url(#linear-gradient-52)"/>
            <path id="Trazado_115703" data-name="Trazado 115703" d="M287.754,396.1a.274.274,0,0,0,.266-.25l.209-6.442a.266.266,0,0,0-.258-.274.25.25,0,0,0-.274.25l-.217,6.482a.258.258,0,0,0,.258.266Z" transform="translate(-282.479 -388.96)" fill="url(#linear-gradient-53)"/>
            <path id="Trazado_115704" data-name="Trazado 115704" d="M286.328,396.093a.266.266,0,0,1-.258-.274c.1-2.174.306-6.321.314-6.442a.258.258,0,0,1,.266-.258.266.266,0,0,1,.266.258c0,.113-.258,5.427-.314,6.49a.258.258,0,0,1-.266.25Zm.048-6.74Z" transform="translate(-282.205 -388.958)" fill="url(#linear-gradient-54)"/>
            <path id="Trazado_115705" data-name="Trazado 115705" d="M284.069,396.322a.54.54,0,0,0,.531-.507c.225-6.273.185-6.442.153-6.506a.531.531,0,0,0-1.039.2c0,.378-.1,4.026-.185,6.273a.531.531,0,0,0,.515.531Z" transform="translate(-281.71 -388.921)" fill="url(#linear-gradient-55)"/>
            <path id="Trazado_115706" data-name="Trazado 115706" d="M282.7,396.117a.258.258,0,0,0,.266-.258v-6.353a.266.266,0,0,0-.531,0v6.353a.258.258,0,0,0,.266.258Z" transform="translate(-281.496 -388.982)" fill="url(#linear-gradient-56)"/>
            <path id="Trazado_115707" data-name="Trazado 115707" d="M281.536,396.115a.258.258,0,0,0,.266-.25c.056-2.214.169-5.822.282-6.249a.266.266,0,0,0-.378-.346c-.145.089-.29.177-.435,6.579a.258.258,0,0,0,.258.266Z" transform="translate(-281.27 -388.979)" fill="url(#linear-gradient-57)"/>
            <path id="Trazado_115708" data-name="Trazado 115708" d="M290.521,396.634a.531.531,0,0,0,.531-.491l.354-6.676a.523.523,0,0,0-.5-.548.54.54,0,0,0-.564.491l-.354,6.676a.523.523,0,0,0,.507.548Z" transform="translate(-282.968 -388.919)" fill="url(#linear-gradient-58)"/>
          </g>
        </g>
        <g id="Grupo_57088" data-name="Grupo 57088" transform="translate(9.168 4.721)">
          <path id="Trazado_115709" data-name="Trazado 115709" d="M182.176,359.226V338.064a5.065,5.065,0,0,0-5.017-5.073c-8.35-.1-25.559-.1-39.643,1.087a3.809,3.809,0,0,0-3.487,3.664l-1.321,20.47a4.832,4.832,0,0,0,4.751,5.017l39.868.757a4.759,4.759,0,0,0,4.848-4.759Z" transform="translate(-132.706 -332.953)" fill="url(#linear-gradient-59)"/>
          <path id="Trazado_115710" data-name="Trazado 115710" d="M185.665,341.758c.04,1.8,0,4.662-.056,6.506a1.611,1.611,0,0,1-1.82,1.611l-6.869-.805a1.61,1.61,0,0,1-1.425-1.86l.846-5.637a1.611,1.611,0,0,1,1.611-1.393h6.088A1.611,1.611,0,0,1,185.665,341.758Z" transform="translate(-141.035 -334.36)" fill="#fff"/>
          <path id="Trazado_115711" data-name="Trazado 115711" d="M164.108,351.033l-5.725.62a1.3,1.3,0,0,1-1.433-1.385l1.256-17.039c2.416-.081,4.775-.137,7.054-.169v16.685A1.288,1.288,0,0,1,164.108,351.033Z" transform="translate(-137.426 -332.974)" fill="#fff" opacity="0.37"/>
          <path id="Trazado_115712" data-name="Trazado 115712" d="M162.659,348.1a.58.58,0,0,1-.58.54h0a.572.572,0,0,1-.54-.6l.862-14.881h1.16Z" transform="translate(-138.321 -332.991)" fill="#fff"/>
          <g id="Grupo_57087" data-name="Grupo 57087" transform="translate(37.093 7.507)">
            <path id="Trazado_115713" data-name="Trazado 115713" d="M184.143,347.583a.2.2,0,0,0,.193-.177l.3-4.687a.209.209,0,0,0-.185-.209.193.193,0,0,0-.2.185l-.3,4.687a.193.193,0,0,0,.177.2Z" transform="translate(-179.779 -342.321)" fill="url(#linear-gradient-60)"/>
            <path id="Trazado_115714" data-name="Trazado 115714" d="M183.383,347.562a.193.193,0,0,0,.193-.185l.153-4.775a.2.2,0,0,0-.185-.2.185.185,0,0,0-.2.185l-.153,4.775a.2.2,0,0,0,.185.2Z" transform="translate(-179.631 -342.299)" fill="url(#linear-gradient-61)"/>
            <path id="Trazado_115715" data-name="Trazado 115715" d="M182.355,347.562a.2.2,0,0,1-.185-.2c.081-1.611.225-4.662.225-4.767a.193.193,0,0,1,.387,0c0,.081-.193,4.026-.225,4.783a.193.193,0,0,1-.193.185ZM182.355,342.593Z" transform="translate(-179.432 -342.3)" fill="url(#linear-gradient-62)"/>
            <path id="Trazado_115716" data-name="Trazado 115716" d="M180.726,347.731a.386.386,0,0,0,.387-.37c.161-4.63.129-4.735.113-4.832a.387.387,0,0,0-.749.153c0,.274-.081,2.963-.137,4.614a.387.387,0,0,0,.37.4Z" transform="translate(-179.075 -342.275)" fill="url(#linear-gradient-63)"/>
            <path id="Trazado_115717" data-name="Trazado 115717" d="M179.742,347.574a.185.185,0,0,0,.185-.193v-4.687a.193.193,0,1,0-.378,0v4.687A.193.193,0,0,0,179.742,347.574Z" transform="translate(-178.921 -342.311)" fill="url(#linear-gradient-64)"/>
            <path id="Trazado_115718" data-name="Trazado 115718" d="M178.955,347.582a.185.185,0,0,0,.193-.185c.04-1.611.121-4.292.2-4.614a.185.185,0,0,0,0-.193.193.193,0,0,0-.266-.056c-.1.064-.209.129-.314,4.831a.193.193,0,0,0,.193.2Z" transform="translate(-178.77 -342.319)" fill="url(#linear-gradient-65)"/>
            <path id="Trazado_115719" data-name="Trazado 115719" d="M185.369,347.965a.4.4,0,0,0,.387-.362l.258-4.92a.4.4,0,0,0-.805,0l-.258,4.92a.4.4,0,0,0,.37.4Z" transform="translate(-179.973 -342.276)" fill="url(#linear-gradient-66)"/>
          </g>
        </g>
        <g id="Grupo_57090" data-name="Grupo 57090" transform="translate(59.57 5.352)">
          <path id="Trazado_115720" data-name="Trazado 115720" d="M237.39,360.015v-21.17c0-2.778-1.9-5.041-4.268-5.073a334.831,334.831,0,0,0-33.732,1.1,3.607,3.607,0,0,0-2.971,3.664L195.3,358.992c-.081,2.706,1.739,4.968,4.026,5.017l33.925.757C235.53,364.822,237.39,362.672,237.39,360.015Z" transform="translate(-195.297 -333.737)" fill="url(#linear-gradient-67)"/>
          <path id="Trazado_115721" data-name="Trazado 115721" d="M240.368,342.548c0,1.8,0,4.654-.056,6.5a1.482,1.482,0,0,1-1.546,1.611l-5.846-.805a1.611,1.611,0,0,1-1.216-1.86l.717-5.637a1.482,1.482,0,0,1,1.377-1.385h5.178a1.514,1.514,0,0,1,1.393,1.578Z" transform="translate(-202.382 -335.145)" fill="#fff"/>
          <path id="Trazado_115722" data-name="Trazado 115722" d="M222.023,351.813l-4.88.62a1.2,1.2,0,0,1-1.216-1.377L217,334.009c2.037-.072,4.026-.129,6-.169v16.693a1.224,1.224,0,0,1-.974,1.28Z" transform="translate(-199.312 -333.757)" fill="#fff" opacity="0.37"/>
          <path id="Trazado_115723" data-name="Trazado 115723" d="M220.771,348.877a.531.531,0,0,1-.483.548h0a.548.548,0,0,1-.459-.612l.733-14.873h.982Z" transform="translate(-200.073 -333.776)" fill="#fff"/>
          <g id="Grupo_57089" data-name="Grupo 57089" transform="translate(31.535 7.482)">
            <path id="Trazado_115724" data-name="Trazado 115724" d="M239.071,348.365a.177.177,0,0,0,.161-.177l.25-4.687a.164.164,0,1,0-.322-.024l-.25,4.687a.177.177,0,0,0,.153.2Z" transform="translate(-235.325 -343.082)" fill="url(#linear-gradient-68)"/>
            <path id="Trazado_115725" data-name="Trazado 115725" d="M238.421,348.344a.177.177,0,0,0,.161-.185l.137-4.775a.177.177,0,0,0-.161-.193c-.1,0-.161.081-.169.185l-.129,4.775a.177.177,0,0,0,.161.193Z" transform="translate(-235.199 -343.06)" fill="url(#linear-gradient-69)"/>
            <path id="Trazado_115726" data-name="Trazado 115726" d="M237.551,348.349a.185.185,0,0,1-.161-.2c.064-1.61.193-4.662.193-4.767a.161.161,0,0,1,.322,0c0,.081-.153,4.026-.185,4.791a.185.185,0,0,1-.161.177Zm0-4.968Z" transform="translate(-235.03 -343.066)" fill="url(#linear-gradient-70)"/>
            <path id="Trazado_115727" data-name="Trazado 115727" d="M236.161,348.505a.354.354,0,0,0,.33-.37c.137-4.622.113-4.727.1-4.832a.33.33,0,0,0-.4-.266.4.4,0,0,0-.242.419c0,.274-.056,2.971-.1,4.622a.354.354,0,0,0,.314.395Z" transform="translate(-234.727 -343.029)" fill="url(#linear-gradient-71)"/>
            <path id="Trazado_115728" data-name="Trazado 115728" d="M235.321,348.373a.177.177,0,0,0,.161-.193V343.5a.161.161,0,1,0-.322,0v4.678a.177.177,0,0,0,.161.193Z" transform="translate(-234.595 -343.089)" fill="url(#linear-gradient-72)"/>
            <path id="Trazado_115729" data-name="Trazado 115729" d="M234.613,348.362a.177.177,0,0,0,.161-.185c0-1.611.1-4.284.177-4.606a.25.25,0,0,0,0-.2.153.153,0,0,0-.225-.056c-.089.073-.177.137-.266,4.832a.177.177,0,0,0,.161.193Z" transform="translate(-234.459 -343.079)" fill="url(#linear-gradient-73)"/>
            <path id="Trazado_115730" data-name="Trazado 115730" d="M240.12,348.745a.354.354,0,0,0,.33-.362l.217-4.92a.362.362,0,0,0-.314-.4.354.354,0,0,0-.338.362l-.225,4.92a.37.37,0,0,0,.314.4Z" transform="translate(-235.497 -343.035)" fill="url(#linear-gradient-74)"/>
          </g>
        </g>
        <g id="Grupo_57092" data-name="Grupo 57092" transform="translate(103.344 6.657)">
          <path id="Trazado_115731" data-name="Trazado 115731" d="M290.929,361.643V340.465c0-2.778-1.868-5.041-4.187-5.073a321.887,321.887,0,0,0-33.072,1.1,3.569,3.569,0,0,0-2.907,3.664l-1.1,20.461c-.081,2.706,1.707,4.968,3.97,5.025l33.257.757C289.109,366.474,290.929,364.3,290.929,361.643Z" transform="translate(-249.657 -335.357)" fill="url(#linear-gradient-75)"/>
          <path id="Trazado_115732" data-name="Trazado 115732" d="M293.841,344.17c0,1.8,0,4.654-.048,6.506a1.474,1.474,0,0,1-1.522,1.611l-5.725-.805a1.611,1.611,0,0,1-1.192-1.86l.7-5.637a1.474,1.474,0,0,1,1.353-1.385h5.073a1.506,1.506,0,0,1,1.361,1.57Z" transform="translate(-256.603 -336.767)" fill="#fff"/>
          <path id="Trazado_115733" data-name="Trazado 115733" d="M275.853,353.433l-4.775.62a1.184,1.184,0,0,1-1.192-1.377l1.047-17.047c2.005-.072,3.978-.129,5.886-.169v16.693A1.224,1.224,0,0,1,275.853,353.433Z" transform="translate(-253.593 -335.377)" fill="#fff" opacity="0.37"/>
          <path id="Trazado_115734" data-name="Trazado 115734" d="M274.645,350.505a.523.523,0,0,1-.475.54h0a.548.548,0,0,1-.451-.612l.725-14.873h.958Z" transform="translate(-254.342 -335.396)" fill="#fff"/>
          <g id="Grupo_57091" data-name="Grupo 57091" transform="translate(30.916 7.482)">
            <path id="Trazado_115735" data-name="Trazado 115735" d="M292.561,349.985h0a.177.177,0,0,0,.161-.177l.25-4.687a.185.185,0,0,0-.153-.2.169.169,0,0,0-.169.177l-.25,4.687C292.408,349.888,292.472,349.985,292.561,349.985Z" transform="translate(-288.896 -344.702)" fill="url(#linear-gradient-76)"/>
            <path id="Trazado_115736" data-name="Trazado 115736" d="M291.961,349.964a.185.185,0,0,0,.161-.185l.129-4.775a.177.177,0,0,0-.153-.193.169.169,0,0,0-.169.185l-.129,4.775a.169.169,0,0,0,.153.193Z" transform="translate(-288.779 -344.68)" fill="url(#linear-gradient-77)"/>
            <path id="Trazado_115737" data-name="Trazado 115737" d="M291.083,349.964a.169.169,0,0,1-.153-.193c.064-1.611.185-4.67.185-4.775a.162.162,0,1,1,.322.008c0,.072-.161,4.026-.185,4.783a.177.177,0,0,1-.161.177ZM291.083,345Z" transform="translate(-288.61 -344.68)" fill="url(#linear-gradient-78)"/>
            <path id="Trazado_115738" data-name="Trazado 115738" d="M289.711,350.125h0a.354.354,0,0,0,.322-.37c.137-4.622.113-4.727.1-4.832a.322.322,0,0,0-.395-.266.378.378,0,0,0-.234.419c0,.282-.064,2.971-.113,4.622a.362.362,0,0,0,.322.427Z" transform="translate(-288.309 -344.649)" fill="url(#linear-gradient-79)"/>
            <path id="Trazado_115739" data-name="Trazado 115739" d="M288.9,349.993a.177.177,0,0,0,.161-.185v-4.687a.161.161,0,1,0-.322,0v4.7A.177.177,0,0,0,288.9,349.993Z" transform="translate(-288.184 -344.709)" fill="url(#linear-gradient-80)"/>
            <path id="Trazado_115740" data-name="Trazado 115740" d="M288.2,349.982a.177.177,0,0,0,.161-.185c0-1.611.1-4.284.169-4.606a.249.249,0,0,0,0-.2.153.153,0,0,0-.225-.056c-.081.072-.169.137-.258,4.832a.177.177,0,0,0,.161.193Z" transform="translate(-288.049 -344.699)" fill="url(#linear-gradient-81)"/>
            <path id="Trazado_115741" data-name="Trazado 115741" d="M293.581,350.368h0a.346.346,0,0,0,.322-.362l.209-4.92a.322.322,0,1,0-.636-.04l-.217,4.92a.362.362,0,0,0,.322.4Z" transform="translate(-289.063 -344.658)" fill="url(#linear-gradient-82)"/>
          </g>
        </g>
      </g>
    </g>
  </g>
</svg>
