<svg id="img6" xmlns="http://www.w3.org/2000/svg" xmlns:xlink="http://www.w3.org/1999/xlink" width="402.323" height="402.323" viewBox="0 0 402.323 402.323">
  <defs>
    <linearGradient id="linear-gradient" x1="0.864" y1="0.236" x2="0.455" y2="0.577" gradientUnits="objectBoundingBox">
      <stop offset="0" stop-color="#ff9085"/>
      <stop offset="1" stop-color="#fb6fbb"/>
    </linearGradient>
    <linearGradient id="linear-gradient-2" x1="0.737" y1="0.148" x2="0.181" y2="0.938" gradientUnits="objectBoundingBox">
      <stop offset="0" stop-color="#e38ddd"/>
      <stop offset="1" stop-color="#9571f6"/>
    </linearGradient>
    <linearGradient id="linear-gradient-3" x1="0.969" y1="0.199" x2="-0.416" y2="1.42" xlink:href="#linear-gradient"/>
    <clipPath id="clip-path">
      <path id="Trazado_115374" data-name="Trazado 115374" d="M192.757,340.59c4.252-16.6,8.053-41.752-.153-68.857-9.389-31.123-25.961-36.373-42.678-69.2-23.908-46.85-2.8-83.344-25.212-96.63-10.927-6.49-27.379-5.4-37.042,2.488-27.54,22.547-13.689,111.665,34.537,143.617,21.8,14.446,39.771,11.37,56.706,30.817C193.86,299.981,194.367,323.929,192.757,340.59Z" transform="translate(-73.658 -101.674)" fill="url(#linear-gradient)"/>
    </clipPath>
    <clipPath id="clip-path-2">
      <path id="Trazado_115380" data-name="Trazado 115380" d="M344.579,331.466c-9.22-9.856-21.822-26.461-23.135-47.953-2.279-37.5,32.379-47.687,40.528-94.931,6.571-38.1-12.506-51.536,1.683-83.456,2.376-5.331,14.543-34.094,36.414-36.236,12.328-1.224,22.265,6.531,24.158,7.988,28.184,21.991,28.925,85.357,4.936,130.612-13.786,25.994-23.264,26.831-52.124,65.668a256.931,256.931,0,0,0-32.46,58.308Z" transform="translate(-321.337 -68.758)" fill="url(#linear-gradient-2)"/>
    </clipPath>
    <clipPath id="clip-path-3">
      <path id="Trazado_115385" data-name="Trazado 115385" d="M295.38,356.367A143.536,143.536,0,0,1,322.042,325.9c23.352-20.043,37.952-19.173,44.99-35.037,7.247-16.427-4.9-25.124,4.187-43.83.765-1.57,10.67-21.291,26.453-21.468,11.04-.121,19.028,9.389,22.773,13.85,14.551,17.313,22.314,49.265,6.812,72.473-14.7,22.024-42.872,25.108-51.834,26.034-15.735,1.611-21.251-2.625-37.042-.548C319.095,339.94,304.5,349.208,295.38,356.367Z" transform="translate(-295.38 -225.569)" fill="url(#linear-gradient-3)"/>
    </clipPath>
    <linearGradient id="linear-gradient-7" y1="0.5" x2="1" y2="0.5" gradientUnits="objectBoundingBox">
      <stop offset="0" stop-color="#472ea6"/>
      <stop offset="1" stop-color="#6c58b8"/>
    </linearGradient>
    <linearGradient id="linear-gradient-8" x1="0" y1="0.5" x2="1" y2="0.5" xlink:href="#linear-gradient-7"/>
    <linearGradient id="linear-gradient-9" x1="0.415" y1="-2.476" x2="0.581" y2="-3.292" gradientUnits="objectBoundingBox">
      <stop offset="0" stop-color="#311944"/>
      <stop offset="1" stop-color="#893976"/>
    </linearGradient>
    <linearGradient id="linear-gradient-10" x1="-0.38" y1="-9.315" x2="0.269" y2="-11.512" xlink:href="#linear-gradient-9"/>
    <linearGradient id="linear-gradient-11" x1="0.475" y1="0.654" x2="0.55" y2="0.306" gradientUnits="objectBoundingBox">
      <stop offset="0" stop-color="#fda551"/>
      <stop offset="0.01" stop-color="#fda44f"/>
      <stop offset="0.08" stop-color="#fd9b3c"/>
      <stop offset="0.16" stop-color="#fd942f"/>
      <stop offset="0.27" stop-color="#fd9027"/>
      <stop offset="0.49" stop-color="#fd8f25"/>
      <stop offset="0.62" stop-color="#f28923"/>
      <stop offset="0.84" stop-color="#d5781f"/>
      <stop offset="1" stop-color="#be6b1c"/>
    </linearGradient>
    <linearGradient id="linear-gradient-12" x1="117.972" y1="-0.598" x2="116.891" y2="4.867" gradientUnits="objectBoundingBox">
      <stop offset="0" stop-color="#9182ca"/>
      <stop offset="1" stop-color="#472ea6"/>
    </linearGradient>
    <linearGradient id="linear-gradient-13" x1="69.176" y1="9.468" x2="70.171" y2="9.468" gradientUnits="objectBoundingBox">
      <stop offset="0" stop-color="#444b8c"/>
      <stop offset="1" stop-color="#26264f"/>
    </linearGradient>
    <linearGradient id="linear-gradient-14" x1="982.299" y1="0.501" x2="983.299" y2="0.501" gradientUnits="objectBoundingBox">
      <stop offset="0" stop-color="#ffc444"/>
      <stop offset="1" stop-color="#f36f56"/>
    </linearGradient>
    <linearGradient id="linear-gradient-15" x1="65.046" y1="100.746" x2="66.01" y2="100.746" xlink:href="#linear-gradient-13"/>
    <linearGradient id="linear-gradient-16" x1="780.966" y1="0.501" x2="781.964" y2="0.501" xlink:href="#linear-gradient-14"/>
    <linearGradient id="linear-gradient-17" x1="70.073" y1="-0.249" x2="69.435" y2="1.807" xlink:href="#linear-gradient-12"/>
    <linearGradient id="linear-gradient-18" x1="72.566" y1="1.627" x2="72.819" y2="0.675" xlink:href="#linear-gradient-12"/>
    <linearGradient id="linear-gradient-19" x1="90.399" y1="-0.53" x2="89.573" y2="2.631" xlink:href="#linear-gradient-12"/>
    <linearGradient id="linear-gradient-20" x1="81.577" y1="3.337" x2="81.457" y2="0.667" xlink:href="#linear-gradient-9"/>
    <linearGradient id="linear-gradient-21" x1="232.205" y1="-0.346" x2="232.331" y2="1.228" xlink:href="#linear-gradient-9"/>
    <linearGradient id="linear-gradient-22" x1="314.357" y1="0.5" x2="315.357" y2="0.5" xlink:href="#linear-gradient-14"/>
    <linearGradient id="linear-gradient-23" x1="176.524" y1="0.447" x2="176.504" y2="2.094" xlink:href="#linear-gradient-14"/>
    <linearGradient id="linear-gradient-24" x1="364.361" y1="0.196" x2="364.517" y2="1.858" xlink:href="#linear-gradient-14"/>
    <linearGradient id="linear-gradient-25" x1="408.62" y1="41.577" x2="408.851" y2="46.627" xlink:href="#linear-gradient-13"/>
    <linearGradient id="linear-gradient-26" x1="156.178" y1="5.047" x2="156.178" y2="3.833" xlink:href="#linear-gradient-13"/>
    <linearGradient id="linear-gradient-27" x1="65.542" y1="0.691" x2="65.353" y2="0.249" xlink:href="#linear-gradient-13"/>
    <linearGradient id="linear-gradient-28" x1="66.343" y1="1.423" x2="66.764" y2="0.014" xlink:href="#linear-gradient-9"/>
    <linearGradient id="linear-gradient-29" x1="71.552" y1="0.499" x2="72.553" y2="0.499" xlink:href="#linear-gradient-9"/>
    <linearGradient id="linear-gradient-30" x1="452.773" y1="0.502" x2="453.773" y2="0.502" xlink:href="#linear-gradient-14"/>
    <linearGradient id="linear-gradient-31" x1="0.148" y1="1.185" x2="0.902" y2="-0.284" xlink:href="#linear-gradient-13"/>
    <linearGradient id="linear-gradient-32" x1="-0.345" y1="2.146" x2="0.409" y2="0.677" xlink:href="#linear-gradient-12"/>
    <linearGradient id="linear-gradient-33" x1="0.782" y1="0.182" x2="-0.614" y2="1.755" xlink:href="#linear-gradient-12"/>
    <linearGradient id="linear-gradient-34" x1="0" y1="0.5" x2="1" y2="0.5" xlink:href="#linear-gradient-12"/>
  </defs>
  <g id="Layer_1" data-name="Layer 1">
    <rect id="Rectángulo_6275" data-name="Rectángulo 6275" width="402.323" height="402.323" fill="none"/>
    <g id="Grupo_56993" data-name="Grupo 56993" transform="translate(48.059 44.171)">
      <g id="Grupo_56953" data-name="Grupo 56953" transform="translate(91.275)">
        <path id="Trazado_115367" data-name="Trazado 115367" d="M261.875,90.7l-4.9.33a37.487,37.487,0,0,0-2.214-6.265l4.026-2.722a2.416,2.416,0,0,0,.636-3.366L254.676,71.7a2.456,2.456,0,0,0-3.382-.676l-4.115,2.746a39.286,39.286,0,0,0-5.081-4.381l2.166-4.461a2.416,2.416,0,0,0-1.143-3.221l-7.626-3.752A2.416,2.416,0,0,0,232.258,59l-2.19,4.477a38.283,38.283,0,0,0-6.611-1.313l-.378-5.017a2.5,2.5,0,0,0-2.649-2.287l-8.528.5a2.416,2.416,0,0,0-2.287,2.593l.378,5.025a39.57,39.57,0,0,0-6.442,2.11L200.676,60.9a2.537,2.537,0,0,0-3.471-.693l-7.135,4.687a2.416,2.416,0,0,0-.66,3.406l2.955,4.163a38.6,38.6,0,0,0-4.517,5.057l-4.614-2.231a2.528,2.528,0,0,0-3.358,1.119L176.1,84.049a2.464,2.464,0,0,0,1.176,3.31l4.622,2.182a38.008,38.008,0,0,0-1.288,6.643l-5.073.346a2.464,2.464,0,0,0-2.327,2.633l.644,8.52a2.512,2.512,0,0,0,2.7,2.287l5.033-.354a38.87,38.87,0,0,0,2.263,6.442l-4.139,2.762a2.416,2.416,0,0,0-.668,3.43l4.9,7.046a2.528,2.528,0,0,0,3.487.644l4.107-2.754a39.956,39.956,0,0,0,5.242,4.445l-2.142,4.4a2.416,2.416,0,0,0,1.168,3.285l7.771,3.656a2.512,2.512,0,0,0,3.326-1.16l2.118-4.348a39.233,39.233,0,0,0,6.708,1.256l.362,4.832a2.464,2.464,0,0,0,2.657,2.255l8.512-.676a2.464,2.464,0,0,0,2.279-2.633l-.362-4.791a39.4,39.4,0,0,0,6.442-2.247l2.714,3.946a2.472,2.472,0,0,0,3.414.636l6.982-4.767a2.416,2.416,0,0,0,.636-3.382l-2.722-3.97a39.08,39.08,0,0,0,4.4-5.113l4.356,2.086a2.416,2.416,0,0,0,3.221-1.127l3.632-7.553a2.416,2.416,0,0,0-1.135-3.221l-4.316-2.174A37.926,37.926,0,0,0,258,104.237l4.832-.346a2.416,2.416,0,0,0,2.231-2.585l-.628-8.35a2.416,2.416,0,0,0-2.561-2.255ZM217.731,75.707a25.059,25.059,0,0,1,26.654,22.942,24.649,24.649,0,0,1-22.909,26.38,25.043,25.043,0,0,1-26.92-22.918,24.633,24.633,0,0,1,23.175-26.4Z" transform="translate(-173.202 -54.854)" fill="#bbabf5"/>
        <path id="Trazado_115368" data-name="Trazado 115368" d="M338.549,76.274l-2.231.145a17.521,17.521,0,0,0-1.007-2.867l1.844-1.24a1.087,1.087,0,0,0,.29-1.522l-2.15-3.173a1.111,1.111,0,0,0-1.538-.306l-1.892,1.248a18.787,18.787,0,0,0-2.3-2l.982-2.021a1.119,1.119,0,0,0-.515-1.482l-3.471-1.707a1.1,1.1,0,0,0-1.49.491l-.99,2.037a17.8,17.8,0,0,0-3.012-.6l-.169-2.279A1.135,1.135,0,0,0,319.714,60l-3.881.225a1.1,1.1,0,0,0-1.039,1.176l.177,2.287a17.4,17.4,0,0,0-2.915.958l-1.313-1.908a1.152,1.152,0,0,0-1.57-.314l-3.221,2.134a1.1,1.1,0,0,0-.3,1.546l1.313,1.908a17.233,17.233,0,0,0-2.037,2.295l-2.1-1.015a1.143,1.143,0,0,0-1.522.507l-1.715,3.471a1.119,1.119,0,0,0,.531,1.506l2.086,1a16.423,16.423,0,0,0-.588,3.02l-2.311.153a1.127,1.127,0,0,0-1.079,1.184l.3,3.873a1.135,1.135,0,0,0,1.224,1.039l2.287-.161a17.319,17.319,0,0,0,1.031,2.931l-1.884,1.248a1.111,1.111,0,0,0-.306,1.562l2.231,3.221a1.152,1.152,0,0,0,1.611.29l1.86-1.248A17.866,17.866,0,0,0,309,94.907l-.974,2a1.1,1.1,0,0,0,.531,1.49l3.527,1.659a1.144,1.144,0,0,0,1.514-.523l.966-1.981a16.861,16.861,0,0,0,3.076.564l.169,2.182a1.1,1.1,0,0,0,1.208,1.023l3.865-.3a1.119,1.119,0,0,0,1.031-1.2l-.161-2.182a18,18,0,0,0,2.931-1.015l1.232,1.8a1.127,1.127,0,0,0,1.538.234l3.173-2.166a1.1,1.1,0,0,0,.29-1.538l-1.24-1.8a18.337,18.337,0,0,0,2.005-2.319l1.973.95a1.111,1.111,0,0,0,1.482-.523l1.651-3.43a1.1,1.1,0,0,0-.515-1.466l-1.989-.958a16.912,16.912,0,0,0,.556-3l2.206-.153a1.1,1.1,0,0,0,1.015-1.176l-.29-3.793a1.1,1.1,0,0,0-1.216-1.007Zm-20.059-6.82a11.386,11.386,0,0,1,12.079,10.468,11.2,11.2,0,0,1-10.38,11.942,11.394,11.394,0,0,1-12.24-10.42,11.2,11.2,0,0,1,10.541-11.99Z" transform="translate(-197.551 -55.856)" fill="#dad5ed"/>
      </g>
      <g id="Grupo_56963" data-name="Grupo 56963" transform="translate(11.254 11.196)">
        <g id="Grupo_56956" data-name="Grupo 56956" transform="translate(0 26.506)">
          <path id="Trazado_115369" data-name="Trazado 115369" d="M192.757,340.59c4.252-16.6,8.053-41.752-.153-68.857-9.389-31.123-25.961-36.373-42.678-69.2-23.908-46.85-2.8-83.344-25.212-96.63-10.927-6.49-27.379-5.4-37.042,2.488-27.54,22.547-13.689,111.665,34.537,143.617,21.8,14.446,39.771,11.37,56.706,30.817C193.86,299.981,194.367,323.929,192.757,340.59Z" transform="translate(-73.658 -101.674)" fill="url(#linear-gradient)"/>
          <g id="Grupo_56955" data-name="Grupo 56955" clip-path="url(#clip-path)">
            <g id="Grupo_56954" data-name="Grupo 56954" transform="translate(0.612 -9.191)">
              <path id="Trazado_115370" data-name="Trazado 115370" d="M200.166,297.283l.523-.169a124.672,124.672,0,0,0-8.31-19.568c-7.618-14.366-15.461-22-25.406-31.679a285.348,285.348,0,0,1-22.338-23.755c-16.057-19.326-21.09-26.147-25.929-37.332a113.622,113.622,0,0,1-8.906-52.768A110.771,110.771,0,0,1,121.412,90.5l-.491-.242a111.124,111.124,0,0,0-11.66,41.712,114.08,114.08,0,0,0,8.954,53.05c4.832,11.274,9.913,18.094,26.01,37.46A286.791,286.791,0,0,0,166.6,246.27c9.9,9.663,17.716,17.257,25.293,31.542A123.858,123.858,0,0,1,200.166,297.283Z" transform="translate(-81.148 -90.26)" fill="#fff"/>
              <path id="Trazado_115371" data-name="Trazado 115371" d="M106.469,174.406v-.451c-.805-16.717,9.148-28.24,17.651-34.964a73.278,73.278,0,0,1,18.827-10.71l-.177-.515a73.946,73.946,0,0,0-19.02,10.79c-8.52,6.74-18.521,18.255-17.869,34.956A60.949,60.949,0,0,1,89.244,160.58C81.707,152.286,73.139,138.033,75.3,117.1l-.548-.056c-2.142,21.122,6.49,35.544,14.1,43.919a60.394,60.394,0,0,0,17.208,13.254Z" transform="translate(-74.418 -95.475)" fill="#fff"/>
              <path id="Trazado_115372" data-name="Trazado 115372" d="M116.4,241.294a56.232,56.232,0,0,0,19.181-5.387l.2-.1-.072-.217c-10.323-30.849,9.51-48.315,9.711-48.517l-.354-.419a39.981,39.981,0,0,0-8.906,12.731c-3.438,7.569-6.394,19.97-1.047,36.156-2.472,1.248-26.839,12.884-48.984-2.118l-.306.451A45.539,45.539,0,0,0,116.4,241.294Z" transform="translate(-76.638 -109.032)" fill="#fff"/>
              <path id="Trazado_115373" data-name="Trazado 115373" d="M144.221,278.935c14.97-1.474,22.169-8.745,22.273-8.858l.137-.137-.089-.177c-8.383-16.178-.048-44.12.04-44.4l-.523-.161c-.089.282-8.423,28.24-.1,44.635-1.611,1.49-16.612,14.607-46.89,5.774l-.153.523C129,279.079,137.409,279.611,144.221,278.935Z" transform="translate(-83.084 -116.539)" fill="#fff"/>
            </g>
          </g>
        </g>
        <g id="Grupo_56959" data-name="Grupo 56959" transform="translate(199.14)">
          <path id="Trazado_115375" data-name="Trazado 115375" d="M344.579,331.466c-9.22-9.856-21.822-26.461-23.135-47.953-2.279-37.5,32.379-47.687,40.528-94.931,6.571-38.1-12.506-51.536,1.683-83.456,2.376-5.331,14.543-34.094,36.414-36.236,12.328-1.224,22.265,6.531,24.158,7.988,28.184,21.991,28.925,85.357,4.936,130.612-13.786,25.994-23.264,26.831-52.124,65.668a256.931,256.931,0,0,0-32.46,58.308Z" transform="translate(-321.337 -68.758)" fill="url(#linear-gradient-2)"/>
          <g id="Grupo_56958" data-name="Grupo 56958" clip-path="url(#clip-path-2)">
            <g id="Grupo_56957" data-name="Grupo 56957" transform="translate(18.137 -10.885)">
              <path id="Trazado_115376" data-name="Trazado 115376" d="M354.618,344.358l-.443.177C342.016,314.371,340.6,289.6,349.964,270.9c4.59-9.148,10.033-13.738,15.8-18.569,6.2-5.234,12.61-10.645,18.07-22.289,5.307-11.322,5.041-18.626,4.7-27.878a125.546,125.546,0,0,1,2.947-35.27,133.671,133.671,0,0,1,10.323-30.189c3.632-7.964,6.5-14.253,7.207-25.454,1.16-18.279-4.373-37.042-16.451-55.748l.411-.266C405.1,74.043,410.688,92.9,409.5,111.286c-.717,11.274-3.6,17.611-7.247,25.623a133.244,133.244,0,0,0-10.315,30.068,125.175,125.175,0,0,0-2.923,35.1c.338,9.317.612,16.677-4.743,28.1-5.508,11.741-11.958,17.184-18.2,22.45-5.725,4.831-11.129,9.405-15.67,18.464C341.09,289.69,342.515,314.338,354.618,344.358Z" transform="translate(-343.86 -55.24)" fill="#fff"/>
              <path id="Trazado_115377" data-name="Trazado 115377" d="M405.252,144.482l-.089-.314c-.121-.443-12.771-45.142-36.454-51.3l.121-.467c12.538,3.221,21.879,17.144,27.508,28.184a144.051,144.051,0,0,1,9.2,23.119,86.21,86.21,0,0,0,35.069-43.033,82.018,82.018,0,0,0,5.323-24.488h.475a81.657,81.657,0,0,1-5.347,24.625,86.661,86.661,0,0,1-35.56,43.484Z" transform="translate(-348.699 -59.318)" fill="#fff"/>
              <path id="Trazado_115378" data-name="Trazado 115378" d="M425.96,188.424c-2.078,1.288-4.083,2.416-5.991,3.463a101.3,101.3,0,0,1-27.475,10.235h-.209l-.064-.193c-7.5-22.7-30.366-46.858-30.6-47.1l.354-.33c.225.242,23.038,24.335,30.64,47.075a105.147,105.147,0,0,0,71.563-56.424l.435.209A101.857,101.857,0,0,1,425.96,188.424Z" transform="translate(-347.319 -72.75)" fill="#fff"/>
              <path id="Trazado_115379" data-name="Trazado 115379" d="M435.435,261.163c-34.272,21.323-62.657,20.308-62.955,20.292h-.25V281.2c2.7-27.475-22.547-53.05-22.821-53.3l.338-.338c.258.25,25.518,25.824,22.982,53.429,3.1.056,33.99-.072,69.413-24.834l.282.395Q438.906,259.005,435.435,261.163Z" transform="translate(-344.941 -88.799)" fill="#fff"/>
            </g>
          </g>
        </g>
        <g id="Grupo_56962" data-name="Grupo 56962" transform="translate(178.238 126.272)">
          <path id="Trazado_115381" data-name="Trazado 115381" d="M295.38,356.367A143.536,143.536,0,0,1,322.042,325.9c23.352-20.043,37.952-19.173,44.99-35.037,7.247-16.427-4.9-25.124,4.187-43.83.765-1.57,10.67-21.291,26.453-21.468,11.04-.121,19.028,9.389,22.773,13.85,14.551,17.313,22.314,49.265,6.812,72.473-14.7,22.024-42.872,25.108-51.834,26.034-15.735,1.611-21.251-2.625-37.042-.548C319.095,339.94,304.5,349.208,295.38,356.367Z" transform="translate(-295.38 -225.569)" fill="url(#linear-gradient-3)"/>
          <g id="Grupo_56961" data-name="Grupo 56961" clip-path="url(#clip-path-3)">
            <g id="Grupo_56960" data-name="Grupo 56960" transform="translate(-4.332 -2.455)">
              <path id="Trazado_115382" data-name="Trazado 115382" d="M290.387,362.473l-.387-.258c12.079-18.819,26.292-30.97,42.2-36.116a65.135,65.135,0,0,1,17.522-2.9c6.49-.395,12.618-.805,21.532-4.654,16.041-6.974,27.813-17.877,33.152-30.7,8.27-19.858,1.949-45.376-16.105-65l.354-.33C406.81,242.289,413.2,268,404.829,288.035c-5.387,12.932-17.249,23.932-33.41,30.954-8.987,3.914-15.155,4.292-21.694,4.695a64.479,64.479,0,0,0-17.393,2.875C316.517,331.664,302.4,343.751,290.387,362.473Z" transform="translate(-290 -222.52)" fill="#fff"/>
              <path id="Trazado_115383" data-name="Trazado 115383" d="M424.7,279.054l-.1-.354c-4.316-14.285-16.741-21.6-26.4-25.2a75.871,75.871,0,0,0-20.2-4.469v-.483a77.024,77.024,0,0,1,20.325,4.493c9.663,3.624,22.128,10.919,26.573,25.164,2.585-2.351,22.2-21.025,16.355-40.714l.459-.137c6.313,21.259-16.548,41.261-16.781,41.463Z" transform="translate(-307.138 -225.408)" fill="#fff"/>
              <path id="Trazado_115384" data-name="Trazado 115384" d="M429.993,320.919a59.013,59.013,0,0,1-9.043,2.416c-11.99,2.166-20.413-.217-20.5-.242l-.225-.064.064-.225c3.8-14.342-2.287-26.106-8.053-33.45A61.523,61.523,0,0,0,378.61,276.7l.25-.4a61.572,61.572,0,0,1,13.754,12.731c5.822,7.392,11.95,19.213,8.222,33.652a49.969,49.969,0,0,0,20.075.161c10.968-2,27.29-8.342,42.775-27.29l.37.3C452.283,310.233,440.043,317.4,429.993,320.919Z" transform="translate(-307.256 -232.993)" fill="#fff"/>
            </g>
          </g>
        </g>
      </g>
      <g id="Grupo_56980" data-name="Grupo 56980" transform="translate(70.038 43.15)">
        <path id="Trazado_115386" data-name="Trazado 115386" d="M353.361,129.187l-.684,232.139a22.125,22.125,0,0,1-20.663,21.863l-163.088,8.43c-12.151.627-22.056-8.607-22.056-20.391V130.908c0-11.157,8.785-20.359,19.97-21.469.717-.072,1.449-.1,2.182-.1l163.716-.8a20.459,20.459,0,0,1,20.623,20.657Z" transform="translate(-146.87 -108.457)" fill="#120c2a"/>
        <path id="Trazado_115387" data-name="Trazado 115387" d="M368.4,129.048l-.717,231.938c0,11.366-8.713,21.22-20.131,21.815l-162.766,8.43c-12.127.627-22.547-8.567-22.547-20.335v-240.1c0-11.141,9.011-20.335,20.18-21.453.717-.072,1.691-.1,2.416-.1l163.386-.8C359.777,108.376,368.433,117.594,368.4,129.048Z" transform="translate(-149.863 -108.44)" fill="url(#linear-gradient-7)"/>
        <g id="Grupo_56964" data-name="Grupo 56964" transform="translate(12.433 0.016)" opacity="0.3">
          <path id="Trazado_115388" data-name="Trazado 115388" d="M368.417,128.744l-.209,58.357L162.32,190.87V130.475c0-10.9,8.6-19.753,19.391-21.21a25.108,25.108,0,0,1,3.221,0l163.386-.805C359.792,108.379,368.449,117.277,368.417,128.744Z" transform="translate(-162.312 -108.459)" fill="url(#linear-gradient-8)"/>
          <path id="Trazado_115389" data-name="Trazado 115389" d="M368.294,181.846l-.089,24.278c-20.687,6.225-58.357,10.839-100.93,11.733-18.585.387-36.438.04-52.462-.942-21.186-1.288-38.95-3.664-52.5-6.8V184.978c5.1-1.24,9.784-2.416,15.364-3.471a420.01,420.01,0,0,1,43.049-5.637c14.495-1.24,30.4-2.029,46.866-2.247,21.339-.29,41.31.395,58.59,1.852,1.353.1,2.7.225,4.026.346q6.249.58,11.966,1.3c1.345.161,2.673.338,3.978.515,2.988.411,5.564.805,8.294,1.313C359.678,179.8,364.332,180.783,368.294,181.846Z" transform="translate(-162.31 -121.137)" fill="#97a6b7"/>
        </g>
        <path id="Trazado_115390" data-name="Trazado 115390" d="M361.244,179.663a6.442,6.442,0,0,1-6.289,6.378l-169.1,2.907a6.442,6.442,0,0,1-6.651-6.353V142.13a6.643,6.643,0,0,1,6.659-6.531l169.256-1.409a6.184,6.184,0,0,1,6.257,6.225Z" transform="translate(-153.166 -113.454)" fill="#fff"/>
        <path id="Trazado_115391" data-name="Trazado 115391" d="M357.667,179.241a4.026,4.026,0,0,1-3.978,4.026l-168.225,2.8a4.026,4.026,0,0,1-4.2-4.026V141.78a4.187,4.187,0,0,1,4.22-4.131L353.826,136.2a3.914,3.914,0,0,1,3.954,3.93Z" transform="translate(-153.567 -113.846)" fill="#f4f7fa"/>
        <g id="Grupo_56970" data-name="Grupo 56970" transform="translate(176.101 27.226)">
          <g id="Grupo_56967" data-name="Grupo 56967" transform="translate(0 4.685)">
            <g id="Grupo_56965" data-name="Grupo 56965" transform="translate(0.048)" opacity="0.3">
              <path id="Trazado_115392" data-name="Trazado 115392" d="M369.638,158.192a1.836,1.836,0,0,1-1.965,1.8h-.1a1.78,1.78,0,0,1-1.957-1.747v-8.053a1.941,1.941,0,0,1,1.973-1.908h.089a1.876,1.876,0,0,1,1.965,1.868Z" transform="translate(-365.62 -148.109)" fill="#97a6b7"/>
              <path id="Trazado_115393" data-name="Trazado 115393" d="M389.55,158a1.868,1.868,0,0,1-1.965,1.82h-.056a1.8,1.8,0,0,1-1.949-1.772v-8.053a1.941,1.941,0,0,1,1.957-1.925h.1a1.876,1.876,0,0,1,1.941,1.884Z" transform="translate(-369.507 -148.069)" fill="#97a6b7"/>
            </g>
            <g id="Grupo_56966" data-name="Grupo 56966" transform="translate(0 16.775)">
              <path id="Trazado_115394" data-name="Trazado 115394" d="M369.578,180.418a2.142,2.142,0,0,1-1.965,2.166h-.089a2.086,2.086,0,0,1-1.965-2.1V172.22a2.142,2.142,0,0,1,1.973-2.15h.089a2.078,2.078,0,0,1,1.957,2.094Z" transform="translate(-365.56 -169.128)" fill="#97a6b7" opacity="0.3"/>
              <path id="Trazado_115395" data-name="Trazado 115395" d="M389.482,180.045c0,1.079-.886,1.417-1.965,2.255h-.089a2.158,2.158,0,0,1-1.949-2.19v-8.656c0-1.079.878-2.545,1.957-2.553h.1c1.071,0,1.949,1.417,1.941,2.5Z" transform="translate(-369.439 -168.9)" fill="#97a6b7" opacity="0.3"/>
            </g>
          </g>
          <g id="Grupo_56969" data-name="Grupo 56969" transform="translate(4.026)">
            <path id="Trazado_115396" data-name="Trazado 115396" d="M382.879,165.113a2.021,2.021,0,0,1-1.989,1.981l-7.706.113c-1.079,0-1.554-.854-1.554-1.933v-.089c0-1.079.467-1.965,1.554-1.981l7.924-.1a1.771,1.771,0,0,1,1.772,1.917Z" transform="translate(-370.768 -146.31)" fill="#97a6b7" opacity="0.3"/>
            <g id="Grupo_56968" data-name="Grupo 56968">
              <path id="Trazado_115397" data-name="Trazado 115397" d="M382.879,144.263a1.989,1.989,0,0,1-1.965,1.981l-7.714.089c-1.087,0-1.57-.862-1.57-1.941V144.3c0-1.079.491-1.965,1.57-1.973l7.924-.081a1.763,1.763,0,0,1,1.755,1.925Z" transform="translate(-370.768 -142.25)" fill="#97a6b7" opacity="0.3"/>
              <path id="Trazado_115398" data-name="Trazado 115398" d="M382.671,186.935a2.045,2.045,0,0,1-2.013,1.989l-8.125.129a1.933,1.933,0,0,1-1.973-1.925v-.089a1.981,1.981,0,0,1,1.957-1.981l8.157-.129a1.949,1.949,0,0,1,2,1.916Z" transform="translate(-370.56 -150.562)" fill="#97a6b7" opacity="0.3"/>
            </g>
          </g>
        </g>
        <path id="Trazado_115399" data-name="Trazado 115399" d="M279.92,371.639a45.387,45.387,0,0,1-3.438,11.157c-.6,1.263-1.264,2.582-2,3.934l-89.7,4.657c-12.127.627-22.547-8.567-22.547-20.335V130.613c0-10.883,8.6-19.917,19.391-21.373.258.08.652.161.918.249,11.394,3.563,23.868,10.24,31.349,22.748,4.679,7.827,7.465,17.946,6.837,31.049a88.393,88.393,0,0,1-1.168,10.779q-.556,3.322-1.119,6.773-.709,4.3-1.393,8.8c-.717,4.778-1.377,9.653-1.917,14.64-.507,4.754-.894,9.556-1.087,14.35,0,.925-.064,1.858-.089,2.783-.072,2.992-.064,5.977.04,8.937q.1,3.057.362,6.041c.95,11.261,3.519,22,8.673,31.419,3.905,7.135,9.792,12.661,15.984,17.793,1.611,1.359,3.285,2.687,4.936,4.022a141.364,141.364,0,0,1,15.863,14.543l.354.386a83.091,83.091,0,0,1,6.531,8.2,60.871,60.871,0,0,1,5.685,10.127q.91,2.027,1.683,4.126c.9,2.413,1.667,4.826,2.343,7.344.3,1.118.6,2.26.878,3.411v.137a121.48,121.48,0,0,1,2.722,14.173A66.123,66.123,0,0,1,279.92,371.639Z" transform="translate(-149.863 -108.595)" fill="#fff" opacity="0.3"/>
        <g id="Grupo_56979" data-name="Grupo 56979" transform="translate(25.937 105.674)">
          <g id="Grupo_56974" data-name="Grupo 56974" transform="translate(0 0.04)">
            <g id="Grupo_56971" data-name="Grupo 56971" transform="translate(0.048)">
              <path id="Trazado_115400" data-name="Trazado 115400" d="M217.76,259.33a4.517,4.517,0,0,1-4.429,4.437l-29.714.805a4.284,4.284,0,0,1-4.477-4.236V249.3a4.542,4.542,0,0,1,4.477-4.453l29.722-.684a4.244,4.244,0,0,1,4.421,4.228Z" transform="translate(-179.14 -240.888)" fill="#97a6b7"/>
              <path id="Trazado_115401" data-name="Trazado 115401" d="M278.542,257.779a4.469,4.469,0,0,1-4.365,4.4l-29.223.765a4.211,4.211,0,0,1-4.4-4.2V247.859a4.493,4.493,0,0,1,4.389-4.421l29.231-.668a4.2,4.2,0,0,1,4.356,4.187Z" transform="translate(-191.099 -240.618)" fill="#97a6b7"/>
              <path id="Trazado_115402" data-name="Trazado 115402" d="M336.316,256.339a4.4,4.4,0,0,1-4.3,4.364l-28.764.757a4.171,4.171,0,0,1-4.332-4.171v-10.8a4.445,4.445,0,0,1,4.348-4.381l28.78-.66a4.139,4.139,0,0,1,4.276,4.155Z" transform="translate(-202.467 -240.361)" fill="#97a6b7"/>
              <path id="Trazado_115403" data-name="Trazado 115403" d="M395.18,254.868a4.364,4.364,0,0,1-4.236,4.332l-28.3.741a4.115,4.115,0,0,1-4.26-4.131V245.092a4.381,4.381,0,0,1,4.276-4.34l28.313-.652a4.091,4.091,0,0,1,4.211,4.123Z" transform="translate(-214.046 -240.098)" fill="#97a6b7"/>
            </g>
            <g id="Grupo_56972" data-name="Grupo 56972" transform="translate(0.04 34.229)">
              <path id="Trazado_115404" data-name="Trazado 115404" d="M217.726,302.779a4.55,4.55,0,0,1-4.429,4.461l-29.69.95a4.244,4.244,0,0,1-4.477-4.2V293.02a4.582,4.582,0,0,1,4.485-4.477l29.7-.854a4.228,4.228,0,0,1,4.429,4.2Z" transform="translate(-179.13 -283.594)" fill="#97a6b7"/>
              <path id="Trazado_115405" data-name="Trazado 115405" d="M278.476,300.92a4.493,4.493,0,0,1-4.364,4.421l-29.182.942A4.2,4.2,0,0,1,240.5,302.1V291.225a4.509,4.509,0,0,1,4.429-4.421L274.152,286a4.163,4.163,0,0,1,4.348,4.155Z" transform="translate(-191.082 -283.265)" fill="#97a6b7"/>
              <path id="Trazado_115406" data-name="Trazado 115406" d="M336.23,299.142a4.461,4.461,0,0,1-4.3,4.389l-28.756.918a4.131,4.131,0,0,1-4.324-4.139v-10.79a4.477,4.477,0,0,1,4.348-4.4l28.756-.805a4.115,4.115,0,0,1,4.284,4.123Z" transform="translate(-202.445 -282.936)" fill="#97a6b7"/>
              <path id="Trazado_115407" data-name="Trazado 115407" d="M395.1,297.329a4.4,4.4,0,0,1-4.236,4.348l-28.289.91a4.083,4.083,0,0,1-4.26-4.107v-10.7a4.421,4.421,0,0,1,4.284-4.365l28.3-.805a4.026,4.026,0,0,1,4.211,4.1Z" transform="translate(-214.027 -282.605)" fill="#97a6b7"/>
            </g>
            <g id="Grupo_56973" data-name="Grupo 56973" transform="translate(0 67.607)">
              <path id="Trazado_115408" data-name="Trazado 115408" d="M217.668,345.207a4.6,4.6,0,0,1-4.429,4.485l-29.682,1.119a4.219,4.219,0,0,1-4.477-4.171V335.664a4.59,4.59,0,0,1,4.477-4.493l29.69-1.023a4.187,4.187,0,0,1,4.421,4.163Z" transform="translate(-179.08 -325.24)" fill="#97a6b7"/>
              <path id="Trazado_115409" data-name="Trazado 115409" d="M278.412,343a4.526,4.526,0,0,1-4.356,4.445l-29.2,1.1a4.155,4.155,0,0,1-4.4-4.139V333.536a4.542,4.542,0,0,1,4.413-4.453l29.2-1.015a4.139,4.139,0,0,1,4.348,4.139Z" transform="translate(-191.034 -324.835)" fill="#97a6b7"/>
              <path id="Trazado_115410" data-name="Trazado 115410" d="M336.144,340.9a4.493,4.493,0,0,1-4.3,4.413l-28.74,1.079a4.1,4.1,0,0,1-4.324-4.107V331.5a4.493,4.493,0,0,1,4.34-4.421l28.748-.991a4.083,4.083,0,0,1,4.276,4.1Z" transform="translate(-202.391 -324.45)" fill="#97a6b7"/>
              <path id="Trazado_115411" data-name="Trazado 115411" d="M394.948,338.755a4.429,4.429,0,0,1-4.236,4.373L362.44,344.19a4.026,4.026,0,0,1-4.26-4.075V329.422a4.453,4.453,0,0,1,4.276-4.389l28.289-.974a4.026,4.026,0,0,1,4.211,4.067Z" transform="translate(-213.959 -324.055)" fill="#97a6b7"/>
            </g>
            <path id="Trazado_115412" data-name="Trazado 115412" d="M217.674,386.6a4.606,4.606,0,0,1-4.429,4.5l-29.666,1.28a4.179,4.179,0,0,1-4.469-4.139V377.3a4.63,4.63,0,0,1,4.477-4.517l29.674-1.192a4.155,4.155,0,0,1,4.421,4.139Z" transform="translate(-179.086 -265.703)" fill="#97a6b7"/>
            <path id="Trazado_115413" data-name="Trazado 115413" d="M278.354,384.047a4.566,4.566,0,0,1-4.365,4.469l-29.174,1.256a4.131,4.131,0,0,1-4.4-4.107V374.811a4.582,4.582,0,0,1,4.4-4.485l29.19-1.168a4.107,4.107,0,0,1,4.348,4.107Z" transform="translate(-191.024 -265.23)" fill="#97a6b7"/>
            <path id="Trazado_115414" data-name="Trazado 115414" d="M336.05,381.625a4.5,4.5,0,0,1-4.292,4.429l-28.723,1.24a4.075,4.075,0,0,1-4.324-4.075V372.445A4.525,4.525,0,0,1,303.05,368l28.731-1.152a4.026,4.026,0,0,1,4.276,4.075Z" transform="translate(-202.378 -264.78)" fill="#97a6b7"/>
            <path id="Trazado_115415" data-name="Trazado 115415" d="M217.668,430.967a4.638,4.638,0,0,1-4.421,4.526l-29.69,1.441a4.155,4.155,0,0,1-4.477-4.115V421.908a4.67,4.67,0,0,1,4.477-4.55L213.223,416a4.123,4.123,0,0,1,4.413,4.107Z" transform="translate(-179.08 -274.352)" fill="#97a6b7"/>
            <path id="Trazado_115416" data-name="Trazado 115416" d="M278.289,428.057a4.59,4.59,0,0,1-4.356,4.485l-29.166,1.433a4.107,4.107,0,0,1-4.4-4.083V419.054a4.614,4.614,0,0,1,4.4-4.5l29.174-1.345a4.083,4.083,0,0,1,4.348,4.075Z" transform="translate(-191.016 -273.809)" fill="#97a6b7"/>
            <path id="Trazado_115417" data-name="Trazado 115417" d="M335.97,425.294a4.534,4.534,0,0,1-4.292,4.445l-28.723,1.417a4.026,4.026,0,0,1-4.324-4.026V416.372a4.566,4.566,0,0,1,4.324-4.493l28.723-1.321a4.026,4.026,0,0,1,4.276,4.026Z" transform="translate(-202.362 -273.293)" fill="#97a6b7"/>
            <path id="Trazado_115418" data-name="Trazado 115418" d="M390.5,364.509l-28.272,1.135c-2.359.089-4.131,2.706-4.139,5.041v11.04L358,404.41v11.032c0,2.335,1.755,4.517,4.107,4.4l28.256-1.393a4.985,4.985,0,0,0,4.373-4.791V402.7l.064-22.547V369.188C394.856,366.861,392.827,364.413,390.5,364.509Z" transform="translate(-213.924 -264.326)" fill="#97a6b7"/>
          </g>
          <g id="Grupo_56978" data-name="Grupo 56978" transform="translate(1.675)">
            <g id="Grupo_56975" data-name="Grupo 56975" transform="translate(0.064)">
              <path id="Trazado_115419" data-name="Trazado 115419" d="M219.836,259.24a4.517,4.517,0,0,1-4.429,4.437l-29.69.805a4.276,4.276,0,0,1-4.477-4.228V249.247a4.558,4.558,0,0,1,4.485-4.453l29.7-.684a4.26,4.26,0,0,1,4.429,4.228Z" transform="translate(-181.24 -240.838)" fill="#abc"/>
              <path id="Trazado_115420" data-name="Trazado 115420" d="M278.542,257.779a4.469,4.469,0,0,1-4.365,4.4l-29.223.765a4.211,4.211,0,0,1-4.4-4.2V247.859a4.493,4.493,0,0,1,4.389-4.421l29.231-.668a4.2,4.2,0,0,1,4.356,4.187Z" transform="translate(-192.79 -240.577)" fill="#abc"/>
              <path id="Trazado_115421" data-name="Trazado 115421" d="M338.33,256.289a4.421,4.421,0,0,1-4.3,4.364l-28.748.749a4.171,4.171,0,0,1-4.332-4.163v-10.8a4.437,4.437,0,0,1,4.34-4.381l28.764-.66a4.139,4.139,0,0,1,4.276,4.155Z" transform="translate(-204.553 -240.311)" fill="#abc"/>
              <path id="Trazado_115422" data-name="Trazado 115422" d="M397.164,254.818a4.364,4.364,0,0,1-4.236,4.332l-28.289.741a4.115,4.115,0,0,1-4.26-4.131V245.05a4.4,4.4,0,0,1,4.284-4.348l28.3-.652a4.1,4.1,0,0,1,4.211,4.131Z" transform="translate(-216.127 -240.048)" fill="#abc"/>
            </g>
            <g id="Grupo_56976" data-name="Grupo 56976" transform="translate(0.048 34.221)">
              <path id="Trazado_115423" data-name="Trazado 115423" d="M219.808,302.711a4.566,4.566,0,0,1-4.437,4.461l-29.674.95a4.244,4.244,0,0,1-4.477-4.2V292.96a4.574,4.574,0,0,1,4.477-4.477l29.682-.854a4.228,4.228,0,0,1,4.429,4.2Z" transform="translate(-181.22 -283.534)" fill="#abc"/>
              <path id="Trazado_115424" data-name="Trazado 115424" d="M278.476,300.92a4.493,4.493,0,0,1-4.364,4.421l-29.182.942A4.2,4.2,0,0,1,240.5,302.1V291.225a4.509,4.509,0,0,1,4.429-4.421L274.152,286a4.163,4.163,0,0,1,4.348,4.155Z" transform="translate(-192.765 -283.217)" fill="#abc"/>
              <path id="Trazado_115425" data-name="Trazado 115425" d="M338.236,299.074a4.437,4.437,0,0,1-4.292,4.389l-28.739.926a4.139,4.139,0,0,1-4.324-4.139v-10.79a4.477,4.477,0,0,1,4.34-4.4l28.747-.805a4.107,4.107,0,0,1,4.276,4.123Z" transform="translate(-204.523 -282.876)" fill="#abc"/>
              <path id="Trazado_115426" data-name="Trazado 115426" d="M397.04,297.269a4.4,4.4,0,0,1-4.228,4.348l-28.28.91a4.083,4.083,0,0,1-4.252-4.107v-10.7a4.421,4.421,0,0,1,4.276-4.365l28.289-.805a4.026,4.026,0,0,1,4.2,4.091Z" transform="translate(-216.091 -282.545)" fill="#abc"/>
            </g>
            <g id="Grupo_56977" data-name="Grupo 56977" transform="translate(0.04 67.599)">
              <path id="Trazado_115427" data-name="Trazado 115427" d="M219.774,345.148a4.582,4.582,0,0,1-4.429,4.477l-29.666,1.119a4.212,4.212,0,0,1-4.469-4.171V335.663a4.614,4.614,0,0,1,4.477-4.5l29.674-1.023a4.2,4.2,0,0,1,4.421,4.163Z" transform="translate(-181.21 -325.19)" fill="#abc"/>
              <path id="Trazado_115428" data-name="Trazado 115428" d="M278.412,343a4.526,4.526,0,0,1-4.356,4.445l-29.2,1.1a4.155,4.155,0,0,1-4.4-4.139V333.536a4.542,4.542,0,0,1,4.413-4.453l29.2-1.015a4.139,4.139,0,0,1,4.348,4.139Z" transform="translate(-192.749 -324.787)" fill="#abc"/>
              <path id="Trazado_115429" data-name="Trazado 115429" d="M338.148,340.824a4.477,4.477,0,0,1-4.292,4.4l-28.723,1.087A4.123,4.123,0,0,1,300.8,342.2V331.426a4.493,4.493,0,0,1,4.34-4.421L333.9,326a4.083,4.083,0,0,1,4.276,4.1Z" transform="translate(-204.5 -324.384)" fill="#abc"/>
              <path id="Trazado_115430" data-name="Trazado 115430" d="M396.924,338.687a4.421,4.421,0,0,1-4.228,4.364l-28.264,1.079a4.026,4.026,0,0,1-4.252-4.075V329.362a4.453,4.453,0,0,1,4.276-4.389l28.3-.974a4.026,4.026,0,0,1,4.2,4.075Z" transform="translate(-216.064 -323.995)" fill="#abc"/>
            </g>
            <path id="Trazado_115431" data-name="Trazado 115431" d="M219.737,386.51a4.606,4.606,0,0,1-4.429,4.5l-29.641,1.28a4.179,4.179,0,0,1-4.477-4.139V377.209a4.63,4.63,0,0,1,4.477-4.517l29.649-1.184a4.155,4.155,0,0,1,4.421,4.131Z" transform="translate(-181.166 -265.648)" fill="#abc"/>
            <path id="Trazado_115432" data-name="Trazado 115432" d="M278.354,384.047a4.566,4.566,0,0,1-4.365,4.469l-29.174,1.256a4.131,4.131,0,0,1-4.4-4.107V374.811a4.582,4.582,0,0,1,4.4-4.485l29.19-1.168a4.107,4.107,0,0,1,4.348,4.107Z" transform="translate(-192.699 -265.19)" fill="#abc"/>
            <path id="Trazado_115433" data-name="Trazado 115433" d="M338.062,381.544a4.509,4.509,0,0,1-4.292,4.421l-28.715,1.248a4.075,4.075,0,0,1-4.324-4.083V372.365a4.526,4.526,0,0,1,4.34-4.445l28.715-1.151a4.026,4.026,0,0,1,4.276,4.075Z" transform="translate(-204.446 -264.725)" fill="#abc"/>
            <path id="Trazado_115434" data-name="Trazado 115434" d="M219.683,430.869a4.63,4.63,0,0,1-4.421,4.518l-29.633,1.466a4.155,4.155,0,0,1-4.469-4.115V421.81a4.654,4.654,0,0,1,4.477-4.542l29.641-1.361a4.123,4.123,0,0,1,4.4,4.1Z" transform="translate(-181.16 -274.294)" fill="#abc"/>
            <path id="Trazado_115435" data-name="Trazado 115435" d="M278.289,428.057a4.59,4.59,0,0,1-4.356,4.485l-29.166,1.433a4.107,4.107,0,0,1-4.4-4.083V419.054a4.614,4.614,0,0,1,4.4-4.5l29.174-1.345a4.083,4.083,0,0,1,4.348,4.075Z" transform="translate(-192.691 -273.769)" fill="#abc"/>
            <path id="Trazado_115436" data-name="Trazado 115436" d="M337.972,425.194a4.526,4.526,0,0,1-4.292,4.445l-28.723,1.385A4.026,4.026,0,0,1,300.64,427V416.24a4.566,4.566,0,0,1,4.34-4.461l28.7-1.321a4.026,4.026,0,0,1,4.276,4.026Z" transform="translate(-204.428 -273.233)" fill="#abc"/>
            <path id="Trazado_115437" data-name="Trazado 115437" d="M392.54,364.429l-28.264,1.127c-2.351.1-4.179,2.714-4.187,5.049v11.04l-.089,22.7V415.37a4.246,4.246,0,0,0,4.163,4.4l28.232-1.393a4.925,4.925,0,0,0,4.316-4.791v-10.96l.064-22.547V369.116C396.832,366.781,394.867,364.333,392.54,364.429Z" transform="translate(-215.988 -264.27)" fill="#abc"/>
          </g>
        </g>
      </g>
      <g id="Grupo_56982" data-name="Grupo 56982" transform="translate(30.773 57.513)">
        <g id="Grupo_56981" data-name="Grupo 56981">
          <path id="Trazado_115438" data-name="Trazado 115438" d="M119.9,126.475a22.683,22.683,0,0,0-14.375,4.348c-9.235,6.877-10.224,19.382-2.2,27.846l92.329,98.813a20.155,20.155,0,0,0,15.187,6.112,20.969,20.969,0,0,0,15.042-6.861l39.255-43.822,86.8,94.36a18.417,18.417,0,0,0,25.8,1.071,17.89,17.89,0,0,0,1.786-25.325L279.493,172.841a19.669,19.669,0,0,0-28.958-.234l-39.7,43.443-74.544-82.273A23.5,23.5,0,0,0,119.9,126.475Z" transform="translate(-97.897 -126.453)" fill="url(#linear-gradient-9)"/>
          <path id="Trazado_115439" data-name="Trazado 115439" d="M451.22,309.65l-48.75,42.759L465.578,373.6h4.413l-14.253-63.446Z" transform="translate(-157.516 -162.13)" fill="url(#linear-gradient-10)"/>
        </g>
        <path id="Trazado_115440" data-name="Trazado 115440" d="M411.437,337.926l-14.352-63.953-11.327,9.945c-.233-.306-.459-.612-.724-.9L284.976,172.841a19.656,19.656,0,0,0-28.961-.234L216.3,216.051l-74.533-82.273a23.472,23.472,0,0,0-16.395-7.3A22.718,22.718,0,0,0,111,130.823c-9.235,6.877-10.225,19.382-2.2,27.846l92.344,98.813a20.141,20.141,0,0,0,15.188,6.112,21,21,0,0,0,15.011-6.861l39.258-43.822,86.833,94.36c.265.29.555.548.8.805l-9.871,8.665Z" transform="translate(-98.963 -126.453)" fill="url(#linear-gradient-11)"/>
      </g>
      <g id="Grupo_56989" data-name="Grupo 56989" transform="translate(0 127.967)">
        <path id="Trazado_115441" data-name="Trazado 115441" d="M163.688,273.483c3.543-3.785-6.273-18.014-11.523-24.246-4.59-5.444-9.309-11.04-15.1-10.331-5.089.628-10.042,5.991-10.339,11.129C125.929,263.868,158.647,278.862,163.688,273.483Z" transform="translate(-72.736 -218.956)" fill="url(#linear-gradient-12)"/>
        <path id="Trazado_115442" data-name="Trazado 115442" d="M119.541,463.315c-.668.54-.805,1.9-.87,2.786a1.965,1.965,0,0,0,0,.733c.322,1.015,2.295,1.127,5.4,1.441,4.9.5,6.362.886,6.74.153s-.507-1.8-.6-1.925a4.541,4.541,0,0,0-2.416-1.313c-2.311-.757-3.873-1.176-4.348-1.3C120.475,463.1,119.976,462.961,119.541,463.315Z" transform="translate(-71.163 -262.635)" fill="url(#linear-gradient-13)"/>
        <path id="Trazado_115443" data-name="Trazado 115443" d="M122.439,457.8l.491,5.58a3.028,3.028,0,0,1-3.116.387l-1.264-5.484Z" transform="translate(-71.146 -261.597)" fill="url(#linear-gradient-14)"/>
        <path id="Trazado_115444" data-name="Trazado 115444" d="M167.828,462.27a2.754,2.754,0,0,0-.29,3.31c.684.805,1.715.2,4.63.282,3.124.1,3.938.805,6.064.25.854-.242,2.367-.805,2.343-1.425,0-.427-.805-.652-3.374-1.514a34.568,34.568,0,0,0-4.413-1.425C170.848,461.424,168.891,461.086,167.828,462.27Z" transform="translate(-80.605 -262.306)" fill="url(#linear-gradient-15)"/>
        <path id="Trazado_115445" data-name="Trazado 115445" d="M169.561,456.14l1.57,5.21a3.044,3.044,0,0,1-3.084.628l-2.327-5.065Z" transform="translate(-80.332 -261.274)" fill="url(#linear-gradient-16)"/>
        <path id="Trazado_115446" data-name="Trazado 115446" d="M146.483,314.4a488.791,488.791,0,0,0,15.429,115.634l-6,1.611c-5.065-4.727-11.467-12.175-14.551-22.692-1.916-6.531-1.28-9.88-2.5-17.917-1.933-12.779-5.854-19.479-9.9-29.794a169.788,169.788,0,0,1-10.251-41.068Z" transform="translate(-71.177 -233.67)" fill="#26264f"/>
        <path id="Trazado_115447" data-name="Trazado 115447" d="M123.426,312.3q-1.836,33.426-3,68.06-.854,25.994-1.272,51.319l-6.128.757a71.3,71.3,0,0,1-6.353-16.516c-2.182-8.745-1.675-13.939-2.633-23-1.071-10.162-2.625-12.377-5.387-25.2C93.02,341.709,90.249,328.7,96.5,320.611,98.5,318.018,104.857,311.423,123.426,312.3Z" transform="translate(-66.158 -233.246)" fill="#26264f"/>
        <path id="Trazado_115448" data-name="Trazado 115448" d="M90.775,241.862a95.463,95.463,0,0,1,20.373-3.406c12.24-.684,18.36-1.031,22.7,1.884,10.017,6.732,2.263,22.265,6.361,60.789.588,5.5.717,11.04,1.143,16.556.7,9.132.862,9.663.225,10.557-4.026,5.806-18.851-2.947-40.641.507-12.192,1.941-17.716,6.4-21.065,3.181-3.9-3.752-.556-13.842,2.327-22.547,3.3-9.969,5.339-10.1,7.247-17.6,1.957-7.851.805-11.894.467-24.27a220.4,220.4,0,0,1,.862-25.647Z" transform="translate(-63.269 -218.788)" fill="url(#linear-gradient-17)"/>
        <path id="Trazado_115449" data-name="Trazado 115449" d="M120.408,318.512c-5.693-.451-9.389,2.77-14.309.266-6.74-3.446-8.906-14.148-8.471-21.742.652-11.515,7.247-14.551,6.088-21.991-.612-4.026-3.487-9.365-13.8-14.825-.137,4.59-.113,8.512,0,11.62.306,12.377,1.49,16.419-.467,24.27-1.876,7.5-3.914,7.634-7.247,17.6-2.883,8.689-6.225,18.778-2.327,22.547,3.342,3.221,8.858-1.24,21.065-3.181,18.77-2.979,32.4,3.1,38.362,1.127C132.1,322.3,125.53,318.915,120.408,318.512Z" transform="translate(-63.269 -223.119)" fill="url(#linear-gradient-18)"/>
        <path id="Trazado_115450" data-name="Trazado 115450" d="M94.959,243.453c-4.026-3.342-12.248.443-14.43,1.458-12.192,5.637-23.143,20.832-20.429,36.9.4,2.416,2.295,13.689,11.829,19.133,8.608,4.92,20.236,3.656,29.545-3.318l3.817-3.39,3.761-4.026A30.092,30.092,0,0,0,99.041,284.7c-6.192-2-10.7,1.611-13.577-1.135-1.981-1.884-1.981-5.21-1.5-7.247.99-4.026,4.566-5.2,7.553-8.053C98.534,261.451,99.83,247.455,94.959,243.453Z" transform="translate(-59.682 -219.591)" fill="url(#linear-gradient-19)"/>
        <g id="Grupo_56983" data-name="Grupo 56983" transform="translate(37.298 75.432)">
          <path id="Trazado_115451" data-name="Trazado 115451" d="M162.9,308.693l-54.516-.813,14.495,7,40.158-2.625Z" transform="translate(-106.463 -307.833)" fill="url(#linear-gradient-20)"/>
          <path id="Trazado_115452" data-name="Trazado 115452" d="M106,309.318h0a2.416,2.416,0,0,0,1.611,2.279L125,318.434l.081-4.735-17.176-5.822A1.506,1.506,0,0,0,106,309.318Z" transform="translate(-106 -307.822)" fill="url(#linear-gradient-21)"/>
        </g>
        <path id="Trazado_115453" data-name="Trazado 115453" d="M116.4,304.806c-.33-.072,1.611-3.986,3.173-3.535s9.083,4.832,9.776,6.627l.684,1.8a16.909,16.909,0,0,1-5.331-.427C122.658,308.583,119.123,305.418,116.4,304.806Z" transform="translate(-70.72 -231.107)" fill="url(#linear-gradient-22)"/>
        <g id="Grupo_56985" data-name="Grupo 56985" transform="translate(36.919)">
          <path id="Trazado_115454" data-name="Trazado 115454" d="M117.407,222a43.16,43.16,0,0,1-.757,8.471c-.443,2.263-.757,2.843-1.16,3.318-.612.717-1.53,1.313-6.732,2.6-2.826.7-3.221.684-3.221.966-.306,1.369,7.408,6.039,15.38,4.912,4.88-.693,9.317-3.471,9.051-4.936s-5.154-.684-6.6-3.342c-1.015-1.852.121-4.477,1.458-6.659C123.5,224.883,118.7,224.416,117.407,222Z" transform="translate(-105.529 -215.676)" fill="url(#linear-gradient-23)"/>
          <g id="Grupo_56984" data-name="Grupo 56984" transform="translate(8.165)">
            <path id="Trazado_115455" data-name="Trazado 115455" d="M128.433,221.88a5.129,5.129,0,0,0-.1-5.886,5.6,5.6,0,0,0-4.026-1.788c-3.116-.362-7.054.942-8.423,3.809-.805,1.7.942,5.234,1.224,5.87s.87.966,1.393,1.506c.725.757,1.852,1.949,3.7,3.954a11.829,11.829,0,0,1,.709-2.118,11.12,11.12,0,0,1,1.474-2.48C126.025,222.766,127.346,223.329,128.433,221.88Z" transform="translate(-115.669 -214.146)" fill="#26264f"/>
            <path id="Trazado_115456" data-name="Trazado 115456" d="M119.936,229.065a6.974,6.974,0,0,0,6.136,3.092c3.648-.234,4.187-8.423,1.852-10.162a4.622,4.622,0,0,0-3.608-.467,19.114,19.114,0,0,1-2.231.805c-1.232.282-1.458.169-1.8.459s-.741,1.24,0,3.64a1.989,1.989,0,0,0-2.126-.7,1.361,1.361,0,0,0-.483.475C117.142,227.173,118,228.372,119.936,229.065Z" transform="translate(-116.03 -215.55)" fill="url(#linear-gradient-24)"/>
            <path id="Trazado_115457" data-name="Trazado 115457" d="M120.154,222.565c.177.129-.362.805-.4,1.723a4.485,4.485,0,0,0,3.616,4.155c1.1.1,1.409-.556,3.221-.749a8.3,8.3,0,0,1,2.657.153,4.454,4.454,0,0,1-1.288,4.872c-1.288.918-3.221.387-4.026.137a5.21,5.21,0,0,1-2.987-2.2c-.894-1.562,0-2.5-1.039-3.551a9.369,9.369,0,0,1-1.844-1.8,4.366,4.366,0,0,1-.37-.693C118.656,223.62,119.9,222.372,120.154,222.565Z" transform="translate(-116.062 -215.782)" fill="#26264f"/>
            <path id="Trazado_115458" data-name="Trazado 115458" d="M127.848,230.947a4.485,4.485,0,0,1,2.15-.338.169.169,0,0,0,.153-.048,1.691,1.691,0,0,0-1.651-.483c-.572.161-1.023.7-.942.805S127.719,230.971,127.848,230.947Z" transform="translate(-117.982 -217.239)" fill="#fff"/>
          </g>
        </g>
        <g id="Grupo_56986" data-name="Grupo 56986" transform="translate(48.571 26.367)">
          <path id="Trazado_115459" data-name="Trazado 115459" d="M125,246.89c-.306.693-.652,1.417-1.039,2.15-.169.322-.338.628-.507.934l-2.118.29L120,247.188a13.791,13.791,0,0,0,2.537.089A12.669,12.669,0,0,0,125,246.89Z" transform="translate(-120 -246.89)" fill="url(#linear-gradient-25)"/>
          <path id="Trazado_115460" data-name="Trazado 115460" d="M123.511,250.47s2.416,23.7,9.872,27.379c-.177.757.089,6.925.089,6.925s-6.925-1.989-7.32-1.844-8.528-12.965-4.735-31.993Z" transform="translate(-120.08 -247.587)" fill="url(#linear-gradient-26)"/>
        </g>
        <g id="Grupo_56988" data-name="Grupo 56988" transform="translate(53.983 44.661)">
          <g id="Grupo_56987" data-name="Grupo 56987">
            <path id="Trazado_115461" data-name="Trazado 115461" d="M130.569,273.032l-3.841,34.988a3.292,3.292,0,0,0,2.77,2.947l56.368-3.463a1.965,1.965,0,0,0,1.852-1.61l7.078-33.821c.209-1.232-2-2.5-3.221-2.464l-59.081,1.659a1.973,1.973,0,0,0-1.925,1.763Z" transform="translate(-126.72 -269.609)" fill="url(#linear-gradient-27)"/>
            <path id="Trazado_115462" data-name="Trazado 115462" d="M132.168,274.3l-3.841,35a1.973,1.973,0,0,0,2.053,2.19l57.092-2.706a1.965,1.965,0,0,0,1.852-1.61l5.838-33.949a1.981,1.981,0,0,0-2.005-2.311l-59.081,1.667A1.973,1.973,0,0,0,132.168,274.3Z" transform="translate(-127.031 -269.862)" fill="url(#linear-gradient-28)"/>
          </g>
          <path id="Trazado_115463" data-name="Trazado 115463" d="M165.691,300.957c-4.985-2.11-3.221-6.144-9.115-11.161-7.763-6.627-15.678-3.752-18.448-8.858-.862-1.611-1.272-4.083.225-8.109l-4.276.121a1.973,1.973,0,0,0-1.908,1.755l-3.841,35a1.973,1.973,0,0,0,2.053,2.19l57.092-2.706a1.965,1.965,0,0,0,1.852-1.611l.805-4.678a21.516,21.516,0,0,0-6.217-2.335C175.571,298.8,171.432,303.389,165.691,300.957Z" transform="translate(-127.031 -270.236)" opacity="0.3" fill="url(#linear-gradient-29)"/>
        </g>
        <path id="Trazado_115464" data-name="Trazado 115464" d="M204.025,311.712a.451.451,0,0,0-.4-.588c-1.208-.056-4.026-.081-5.548.862-2.013,1.232-4.606,3.471-2.416,4.606l2.037,1.055a.427.427,0,0,0,.3,0c.725-.153,3.777-.805,4.107-1S203.574,313.081,204.025,311.712Z" transform="translate(-86 -233.028)" fill="url(#linear-gradient-30)"/>
      </g>
      <g id="Grupo_56992" data-name="Grupo 56992" transform="translate(158.926 227.768)">
        <path id="Trazado_115465" data-name="Trazado 115465" d="M363.271,389.44c0,27.749-22.483,51.27-51.166,52.583-29.794,1.361-54.806-21.589-54.806-51.3s25.011-53.259,54.806-52.623C340.8,338.717,363.271,361.7,363.271,389.44Z" transform="translate(-257.3 -338.084)" fill="url(#linear-gradient-31)"/>
        <path id="Trazado_115466" data-name="Trazado 115466" d="M367.371,389.44c0,27.749-22.483,51.27-51.174,52.583-29.794,1.361-54.8-21.589-54.8-51.3s25-53.259,54.8-52.623C344.921,338.717,367.371,361.7,367.371,389.44Z" transform="translate(-258.098 -338.084)" fill="url(#linear-gradient-32)"/>
        <path id="Trazado_115467" data-name="Trazado 115467" d="M365.012,390.231c0,26.147-21.21,48.267-48.219,49.443-27.983,1.224-51.423-20.357-51.423-48.243s23.441-50.03,51.423-49.483C343.8,342.479,365.012,364.092,365.012,390.231Z" transform="translate(-258.872 -338.835)" fill="url(#linear-gradient-33)"/>
        <g id="Grupo_56990" data-name="Grupo 56990" transform="translate(24.85 24.508)">
          <path id="Trazado_115468" data-name="Trazado 115468" d="M310.345,397.9q3.261-4.228,3.261-12.643,0-8.053-3.31-12.393t-9.5-4.34q-12.634,0-12.634,16.733,0,8.189,3.3,12.538a10.993,10.993,0,0,0,9.333,4.332Q307.083,402.139,310.345,397.9Zm-9.478-3.35c-1.224,0-2.11-.757-2.657-2.287a21.838,21.838,0,0,1-.805-6.933,21.509,21.509,0,0,1,.805-6.9q.805-2.255,2.657-2.255,3.519,0,3.511,9.156t-3.511,9.236Z" transform="translate(-288.16 -368.52)" fill="#fff"/>
          <path id="Trazado_115469" data-name="Trazado 115469" d="M356.848,399.43q-3.318-4.348-9.5-4.34-12.634,0-12.626,16.725,0,8.165,3.293,12.506a11.027,11.027,0,0,0,9.333,4.34q6.3,0,9.558-4.228t3.221-12.618Q360.158,403.771,356.848,399.43Zm-9.43,21.685c-1.216,0-2.1-.757-2.649-2.287a21.6,21.6,0,0,1-.805-6.933,21.233,21.233,0,0,1,.805-6.9q.805-2.263,2.649-2.255,3.511,0,3.519,9.156t-3.519,9.22Z" transform="translate(-297.227 -373.694)" fill="#fff"/>
          <path id="Trazado_115470" data-name="Trazado 115470" d="M340.957,370.046a1.192,1.192,0,0,0-1.007-.6h-5.427a2.416,2.416,0,0,0-2.053,1.224l-28.055,50.594a1.184,1.184,0,0,0,1.015,1.755h6.128a1.168,1.168,0,0,0,1.015-.612l28.4-51.2a1.208,1.208,0,0,0-.016-1.168Z" transform="translate(-291.297 -368.701)" fill="#fff"/>
        </g>
        <g id="Grupo_56991" data-name="Grupo 56991" transform="translate(3.302 2.291)" opacity="0.3">
          <path id="Trazado_115471" data-name="Trazado 115471" d="M293.143,368.309c-1.763-5.741-1.683-14.495,6.909-27.379-22.161,6.378-38.652,26.477-38.652,50.522,0,29.714,25,52.656,54.8,51.295a53.952,53.952,0,0,0,29.263-10.2,50.036,50.036,0,0,0-6.829-24.6C325.337,385.976,298.667,386.322,293.143,368.309Z" transform="translate(-261.4 -340.93)" opacity="0.3" fill="url(#linear-gradient-34)"/>
        </g>
      </g>
    </g>
  </g>
</svg>
